<svg xmlns="http://www.w3.org/2000/svg" width="2048" height="2048" viewBox="0 0 2048 2048" version="1.1">
	<path d="M 625 452.274 C 623.517 453.013, 620.979 456.419, 618.760 460.646 C 613.714 470.262, 601.744 481.607, 591.529 486.454 C 582.653 490.666, 580 493.682, 580 499.558 C 580 505.266, 583.485 509.397, 590.272 511.736 C 598.428 514.548, 611.161 527.769, 622.306 545 C 624.061 547.712, 625.641 548.766, 629.328 549.683 C 636.654 551.504, 638.783 550.264, 645.599 540.204 C 648.842 535.417, 653.072 529.744, 654.998 527.598 C 660.437 521.536, 670.943 514.043, 675.671 512.853 C 678.026 512.260, 681.088 510.639, 682.476 509.251 C 684.578 507.149, 685 505.784, 685 501.086 C 685 497.892, 684.398 494.585, 683.612 493.463 C 682.848 492.373, 678.461 489.567, 673.862 487.228 C 663.124 481.767, 652.353 472.108, 647.667 463.740 C 643.194 455.749, 640.151 452.953, 634.803 451.919 C 628.971 450.791, 627.900 450.830, 625 452.274 M 1402.256 452.533 C 1401.052 453.377, 1398.206 457.643, 1395.932 462.013 C 1390.685 472.098, 1381.520 480.998, 1372.064 485.188 C 1357.064 491.835, 1355.708 493.229, 1355.571 502.144 C 1355.482 507.989, 1357.952 511.127, 1362.423 510.847 C 1364.115 510.740, 1366.850 511.371, 1368.500 512.248 C 1374.877 515.637, 1385.338 525.458, 1390.942 533.315 C 1394.153 537.817, 1398.576 543.413, 1400.773 545.750 C 1404.635 549.861, 1404.967 550, 1410.949 550 C 1418.343 550, 1420.553 548.978, 1422.381 544.714 C 1424.534 539.694, 1435.383 525.764, 1441.482 520.190 C 1444.520 517.414, 1449.891 513.779, 1453.417 512.113 C 1460.850 508.601, 1463 506.047, 1463 500.728 C 1463 494.787, 1460.730 491.444, 1455.281 489.363 C 1449.224 487.050, 1436.411 477.428, 1431.650 471.618 C 1429.637 469.161, 1427.037 464.662, 1425.873 461.620 C 1423.146 454.494, 1421.542 453.147, 1414.388 451.976 C 1406.421 450.671, 1404.809 450.745, 1402.256 452.533 M 1011.831 523.023 C 994.899 525.880, 976.616 535.388, 965.419 547.159 C 957.927 555.034, 954.728 559.554, 950.055 568.870 C 944.101 580.741, 941.844 590.133, 941.732 603.500 C 941.626 616.101, 943.252 623.695, 948.368 634.500 C 951.487 641.087, 961.046 654.154, 965.872 658.426 C 968.902 661.110, 967.116 661.966, 958.450 661.985 C 939.525 662.026, 907.649 665.807, 881.628 671.099 C 848.353 677.865, 809.800 691.294, 771.558 709.439 C 754.001 717.769, 713.150 746.194, 695.016 762.698 C 675.620 780.351, 648.590 811.513, 634.127 832.898 C 617.760 857.097, 600.751 889.788, 589.329 919 C 581.425 939.215, 572.434 978.471, 568.487 1010 C 567.626 1016.875, 564.942 1034.875, 562.522 1050 C 551.685 1117.739, 547.992 1143.200, 540.360 1202.767 L 535.586 1240.035 531.575 1241.115 C 526.371 1242.516, 515.212 1248.136, 507 1253.493 C 488.969 1265.254, 473.375 1285.448, 468.385 1303.500 C 467.149 1307.970, 466.625 1315.086, 466.329 1331.403 L 465.932 1353.306 460.816 1355.677 C 442.482 1364.171, 429.811 1374.720, 421.558 1388.361 C 410.578 1406.510, 407.376 1418.647, 408.331 1438.500 C 409.028 1452.993, 410.651 1459.397, 416.948 1472.500 C 422.813 1484.705, 426.826 1490.354, 434.565 1497.302 C 445.078 1506.739, 455.974 1513.028, 471.500 1518.619 L 479.500 1521.500 1023.500 1521.500 L 1567.500 1521.500 1576 1518.633 C 1591.473 1513.413, 1603.680 1506.100, 1615.367 1495.048 C 1626.321 1484.690, 1633.276 1473.100, 1637.615 1457.972 C 1640.020 1449.589, 1640.182 1447.799, 1639.768 1434.203 C 1639.391 1421.800, 1638.909 1418.249, 1636.690 1411.500 C 1633.769 1402.614, 1627.047 1390.360, 1619.605 1380.354 C 1611.822 1369.890, 1597.277 1359.586, 1584.722 1355.642 C 1578.773 1353.774, 1577.980 1353.244, 1578.517 1351.500 C 1578.856 1350.400, 1579.373 1342.075, 1579.667 1333 C 1580.129 1318.746, 1579.919 1315.165, 1578.122 1306.693 C 1574.482 1289.527, 1565.296 1273.044, 1553.050 1261.707 C 1545.746 1254.944, 1524.357 1243.772, 1515.026 1241.844 C 1509.450 1240.693, 1508.981 1240.383, 1508.531 1237.552 C 1508.265 1235.873, 1506.435 1222.125, 1504.466 1207 C 1496.272 1144.067, 1480.629 1039.293, 1476.983 1022.924 C 1475.901 1018.068, 1473.454 1004.468, 1471.544 992.701 C 1462.867 939.244, 1455.678 915.931, 1434.944 874.015 C 1415.375 834.455, 1401.752 814.961, 1373.528 786.123 C 1352.479 764.617, 1326.860 743.946, 1300 726.797 C 1269.213 707.140, 1252.199 699.049, 1213.500 685.660 C 1185.886 676.106, 1175.927 673.661, 1139.849 667.574 C 1118.247 663.930, 1103.027 662.222, 1088.738 661.839 C 1078.375 661.561, 1076.711 660.891, 1080.392 658.479 C 1084.502 655.786, 1094.710 642.526, 1098.562 634.876 C 1103.887 624.303, 1105.282 616.782, 1104.753 601.500 C 1104.363 590.252, 1103.872 587.220, 1101.109 579 C 1099.353 573.775, 1095.798 565.970, 1093.208 561.656 C 1087.439 552.044, 1074.272 539.024, 1064.461 533.228 C 1049.162 524.190, 1028.574 520.198, 1011.831 523.023 M 1008.500 567.855 C 1000.921 571.458, 993.887 578.906, 989.685 587.777 C 986.839 593.784, 986.500 595.458, 986.500 603.500 C 986.500 611.249, 986.886 613.324, 989.277 618.430 C 997.062 635.053, 1013.032 644.793, 1028.138 642.133 C 1040.931 639.879, 1053.677 629.703, 1058.055 618.247 C 1064.261 602.009, 1059.868 584.976, 1046.424 573.142 C 1039.926 567.423, 1032.870 565, 1022.712 565.001 C 1015.751 565.001, 1013.586 565.436, 1008.500 567.855 M 1000 702.064 C 975.958 702.838, 937.738 705.461, 920 707.554 C 864.932 714.051, 821.027 728.471, 778.146 754.142 C 749.041 771.567, 735.647 782.149, 709.960 808.015 C 681.812 836.358, 656.537 872.985, 641.988 906.513 C 630.557 932.858, 622.974 956.265, 617.554 981.936 C 614.758 995.180, 608.854 1032.084, 606.586 1050.500 C 598.540 1115.819, 588.719 1184.530, 582.011 1222.424 C 580.364 1231.733, 579.161 1239.494, 579.339 1239.672 C 579.517 1239.850, 779.201 1239.992, 1023.081 1239.987 L 1466.500 1239.978 1466.205 1237.239 C 1465.767 1233.171, 1460.696 1201.781, 1456.070 1174.500 C 1452.063 1150.871, 1446.830 1116.250, 1440.877 1074 C 1428.634 987.107, 1423.012 961.289, 1407.014 918.500 C 1393.759 883.051, 1382.534 864.038, 1355.718 831.612 C 1340.351 813.032, 1331.311 804.330, 1307.985 785.665 C 1270.408 755.596, 1251.093 743.826, 1218.309 731.020 C 1184.162 717.682, 1162.100 712.208, 1123.580 707.516 C 1081.552 702.396, 1042.801 700.686, 1000 702.064 M 879 764.987 C 865.075 767.489, 826.106 784.196, 808.092 795.387 C 803.366 798.322, 795.360 803.287, 790.300 806.420 C 765.673 821.667, 732.969 857.350, 709.929 894.113 C 698.416 912.483, 682.119 950.128, 676.428 971.500 C 672.365 986.756, 667 1015.030, 667 1021.189 C 667 1025.126, 667.858 1029.239, 669.625 1033.769 C 672.150 1040.245, 672.476 1040.609, 678.233 1043.379 C 685.270 1046.764, 690.695 1046.624, 700.329 1042.809 C 705.891 1040.606, 706.245 1040.252, 708.064 1035.080 C 709.113 1032.099, 710.467 1025.799, 711.073 1021.080 C 713.345 1003.384, 721.767 972.657, 730.140 951.516 C 738.521 930.357, 753.010 905.703, 768.646 886 C 776.576 876.006, 797.335 855.427, 808 846.987 C 828.845 830.490, 859.071 815.224, 884.210 808.497 C 894.421 805.764, 899.612 802.224, 903.742 795.177 C 909.122 785.998, 905.951 771.984, 897.446 767.350 C 892.798 764.816, 885.295 763.855, 879 764.987 M 1234.550 808.126 C 1224.245 810.541, 1218.659 823.435, 1222.377 836.226 C 1224.277 842.761, 1225.444 843.850, 1242.535 855.027 C 1284.709 882.608, 1317.613 941.316, 1330.991 1012.850 C 1332.158 1019.093, 1334.148 1026.540, 1335.413 1029.399 C 1339.603 1038.874, 1349.879 1045.019, 1358.820 1043.397 C 1372.107 1040.987, 1379.572 1029.473, 1377.224 1015.011 C 1370.449 973.281, 1361.936 945.250, 1346.070 912.432 C 1325.609 870.111, 1300.181 840.037, 1264.500 815.956 C 1252.235 807.679, 1244.779 805.730, 1234.550 808.126 M 378.283 892.494 C 377.064 893.359, 374.209 897.638, 371.938 902.002 C 368.985 907.679, 365.912 911.724, 361.141 916.219 C 349.251 927.417, 345.969 929.665, 340.500 930.359 C 334.106 931.169, 332 933.548, 332 939.963 C 332 945.956, 334.884 950.364, 341 953.717 C 352.918 960.251, 361.396 967.720, 371.891 980.932 C 376.458 986.682, 380.512 988.995, 386 988.982 C 392.372 988.966, 394.881 987.344, 400 979.928 C 402.475 976.342, 405.405 972.304, 406.511 970.954 C 411.181 965.255, 421.137 957.176, 427.814 953.667 C 431.757 951.595, 435.437 949.052, 435.992 948.016 C 437.388 945.406, 437.229 937.011, 435.727 934.043 C 434.890 932.389, 433.236 931.327, 430.668 930.793 C 426.249 929.875, 414.468 921.346, 407.858 914.279 C 404.851 911.065, 402.426 907.039, 400.571 902.185 C 398.983 898.029, 396.870 894.330, 395.645 893.558 C 394.465 892.816, 390.575 891.919, 387 891.565 C 381.922 891.062, 380.015 891.265, 378.283 892.494 M 1651.635 893.061 C 1650.059 894.307, 1647.500 898.157, 1645.947 901.618 C 1644.394 905.079, 1641.184 910.016, 1638.812 912.589 C 1630.436 921.677, 1617.839 929.923, 1612.250 929.978 C 1607.852 930.021, 1606 933.301, 1606 941.045 C 1606 947.192, 1606.313 948.404, 1608.455 950.545 C 1609.805 951.895, 1611.442 953, 1612.092 953 C 1612.743 953, 1616.827 955.097, 1621.168 957.660 C 1629.227 962.419, 1638.021 970.816, 1645.962 981.333 C 1650.166 986.902, 1654.891 990.005, 1659.151 989.994 C 1664.637 989.981, 1668.750 987.976, 1671.350 984.047 C 1677.098 975.362, 1690.492 961.793, 1698.861 956.177 C 1709.740 948.878, 1711.516 946.493, 1711.445 939.291 C 1711.399 934.734, 1710.974 933.398, 1709.084 931.867 C 1707.816 930.840, 1705.555 930, 1704.061 930 C 1700.522 930, 1694.254 925.780, 1685.224 917.318 C 1679.876 912.307, 1676.829 908.384, 1673.724 902.513 C 1669.100 893.771, 1667.164 892.276, 1659.271 891.353 C 1655.305 890.889, 1654.016 891.178, 1651.635 893.061 M 665.500 1088.960 C 663.300 1089.960, 659.867 1092.515, 657.872 1094.639 C 654.512 1098.215, 654.204 1099.064, 653.707 1106.138 C 653.244 1112.746, 653.484 1114.432, 655.493 1118.638 C 658.991 1125.965, 663.129 1129.747, 668.537 1130.558 C 676.818 1131.800, 683.043 1130.675, 688.227 1126.999 C 692.268 1124.134, 693.264 1122.716, 695.088 1117.235 C 696.650 1112.541, 697.114 1109.136, 696.820 1104.520 C 696.470 1099.015, 695.945 1097.639, 692.673 1093.646 C 690.166 1090.586, 687.698 1088.733, 685.213 1088.042 C 679.515 1086.460, 670.028 1086.901, 665.500 1088.960 M 531.219 1287.013 C 515.070 1297.797, 511.016 1308.178, 511.797 1336.750 L 512.159 1350 1022.983 1350 L 1533.808 1350 1534.527 1339.441 C 1535.391 1326.772, 1534.555 1317.041, 1531.838 1308.117 C 1530.076 1302.331, 1528.917 1300.605, 1522.607 1294.370 C 1518.638 1290.448, 1513.520 1286.286, 1511.235 1285.120 L 1507.080 1283 1022.154 1283 L 537.228 1283 531.219 1287.013 M 482.232 1393.058 C 476.027 1394.285, 466.187 1399.809, 460.931 1405.017 C 448.665 1417.167, 445.759 1437.842, 453.974 1454.500 C 458.106 1462.877, 468.314 1473.280, 475.540 1476.475 L 481.265 1479.007 1023.883 1478.754 L 1566.500 1478.500 1571.934 1475.500 C 1578.979 1471.611, 1587.391 1463.895, 1590.652 1458.331 C 1604.453 1434.782, 1594.766 1406.622, 1568.836 1394.910 L 1563.500 1392.500 1025 1392.357 C 728.825 1392.278, 484.579 1392.593, 482.232 1393.058" stroke="none" fill="black" fill-rule="evenodd"/>
</svg>