<svg xmlns="http://www.w3.org/2000/svg" width="2048" height="2048" viewBox="0 0 2048 2048" version="1.1">
	<path d="M 1439.798 327.856 C 1439.634 328.210, 1437.795 329.289, 1435.711 330.252 L 1431.922 332.005 1431.848 339.752 C 1431.808 344.014, 1431.669 352.450, 1431.540 358.500 C 1431.412 364.550, 1431.222 376.250, 1431.119 384.500 L 1430.932 399.500 1433.526 401.754 C 1435.428 403.406, 1436.839 403.841, 1438.810 403.385 C 1444.177 402.142, 1445.661 400.440, 1446.713 394.321 C 1448.499 383.930, 1447.026 331.990, 1444.870 329.358 C 1443.751 327.992, 1440.219 326.946, 1439.798 327.856 M 1286.612 397.876 C 1284.381 400.341, 1283.605 406.062, 1285.228 408.086 C 1285.928 408.958, 1288.479 410.919, 1290.898 412.442 C 1296.642 416.059, 1311.941 427.743, 1313.939 430.038 C 1317.407 434.021, 1334.964 448.854, 1336.959 449.487 C 1339.696 450.356, 1343.470 447.926, 1345.510 443.982 C 1347.358 440.407, 1346.441 438.063, 1341.637 434.079 C 1339.927 432.660, 1336.721 429.854, 1334.514 427.842 C 1330.321 424.020, 1322.013 416.996, 1311.622 408.487 C 1303.854 402.127, 1293.531 396, 1290.583 396 C 1289.333 396, 1287.546 396.844, 1286.612 397.876 M 1589.121 397.079 C 1587.812 397.603, 1581.287 403.382, 1574.621 409.921 C 1567.954 416.460, 1559.564 424.270, 1555.975 427.277 C 1548.486 433.551, 1544 439.490, 1544 443.129 C 1544 449.525, 1553.454 452.378, 1558.076 447.377 C 1559.409 445.935, 1562.975 442.941, 1566 440.724 C 1573.022 435.578, 1596.876 411.455, 1598.084 408.279 C 1599.618 404.243, 1599.132 401.979, 1596.077 398.923 C 1592.895 395.741, 1592.635 395.672, 1589.121 397.079 M 1420.830 449.016 C 1409.693 451.062, 1405.870 452.203, 1397.362 456.020 C 1391.339 458.721, 1381.502 465.685, 1375.434 471.541 C 1373.748 473.168, 1370.222 476.300, 1367.598 478.500 C 1361.937 483.246, 1356 491.972, 1349.568 505 C 1345.932 512.366, 1345.007 515.194, 1345.454 517.588 C 1345.886 519.906, 1345.383 521.630, 1343.437 524.498 C 1336.450 534.794, 1336.649 562.436, 1343.867 584.102 C 1347.303 594.415, 1353.518 606.098, 1360.121 614.657 C 1368.135 625.044, 1385.520 639.164, 1397.454 644.978 C 1405.383 648.840, 1416 650.364, 1416 647.639 C 1416 645.850, 1418.506 645.392, 1419.500 647 C 1419.840 647.550, 1421.185 648, 1422.489 648 C 1424.187 648, 1424.952 647.361, 1425.180 645.750 C 1425.386 644.304, 1426.304 643.386, 1427.750 643.180 C 1430.316 642.816, 1430.743 644.837, 1428.770 647.997 C 1426.628 651.427, 1429.511 653.048, 1438.071 653.228 C 1476.839 654.042, 1504.298 639.482, 1523.365 608 C 1524.864 605.525, 1527.605 601.371, 1529.457 598.769 C 1533.258 593.428, 1536.987 582.906, 1539.930 569.217 C 1541.997 559.603, 1541.582 555, 1538.647 555 C 1537.876 555, 1536.685 554.325, 1536 553.500 C 1534.302 551.455, 1536.358 549, 1539.769 549 L 1542.293 549 1541.667 541.591 C 1539.884 520.491, 1529.150 496.451, 1514.071 479.784 C 1500.920 465.246, 1474.771 451.938, 1452.500 448.447 C 1441.021 446.647, 1432.931 446.793, 1420.830 449.016 M 1463.018 485.967 C 1461.801 488.240, 1462.707 489.702, 1466.633 491.803 C 1468.389 492.743, 1469.102 492.521, 1471.079 490.416 C 1474.132 487.166, 1472.758 484.625, 1467.714 484.194 C 1464.919 483.955, 1463.886 484.345, 1463.018 485.967 M 1422.557 513.908 C 1422.249 514.407, 1422.418 515.869, 1422.935 517.158 C 1423.574 518.754, 1423.893 518.969, 1423.937 517.832 C 1423.971 516.914, 1424.273 515.452, 1424.607 514.582 C 1425.246 512.917, 1423.520 512.349, 1422.557 513.908 M 1354.507 517.988 C 1353.659 519.362, 1355.753 522, 1357.692 522 C 1359.725 522, 1358.948 517.606, 1356.843 517.205 C 1355.932 517.031, 1354.881 517.384, 1354.507 517.988 M 1429.250 518.662 C 1427.758 519.265, 1427.584 522.625, 1429 523.500 C 1429.550 523.840, 1430 525.024, 1430 526.132 C 1430 527.510, 1430.553 528.042, 1431.750 527.815 C 1433.879 527.412, 1434.713 521.564, 1432.946 519.435 C 1431.695 517.928, 1431.283 517.842, 1429.250 518.662 M 1349.250 534.031 C 1346.247 535.238, 1346.188 539, 1349.171 539 C 1351.936 539, 1355.030 536.242, 1354.326 534.406 C 1353.715 532.815, 1352.499 532.725, 1349.250 534.031 M 1593.649 538.676 C 1588.727 541.255, 1588.278 548.473, 1592.886 550.939 C 1595.940 552.573, 1604.816 552.222, 1608 550.341 C 1610.644 548.779, 1611.035 548.793, 1614.655 550.591 C 1617.949 552.226, 1621.237 552.547, 1637.607 552.825 C 1656.548 553.147, 1656.739 553.128, 1659.502 550.752 C 1661.955 548.642, 1662.205 547.907, 1661.589 544.622 C 1660.446 538.531, 1658.122 537, 1650.020 537 C 1645.967 537, 1641.371 537.668, 1639.059 538.593 C 1635.439 540.041, 1634.642 540.045, 1630.289 538.628 C 1624.434 536.722, 1597.310 536.758, 1593.649 538.676 M 1260.722 541.611 C 1260.312 542.021, 1251.875 542.419, 1241.972 542.495 C 1225.560 542.621, 1223.726 542.813, 1221.234 544.666 C 1217.425 547.497, 1217.063 552.154, 1220.392 555.483 C 1222.895 557.986, 1223.012 558, 1240.896 558 C 1250.788 558, 1259.118 557.619, 1259.406 557.153 C 1259.693 556.687, 1265.233 556.524, 1271.715 556.790 C 1289.360 557.516, 1289.881 557.479, 1292.798 555.304 C 1295.974 552.935, 1296.648 550.579, 1295.020 547.538 C 1292.819 543.424, 1289.217 542.276, 1278 542.110 C 1272.225 542.024, 1266.143 541.709, 1264.484 541.410 C 1262.825 541.110, 1261.132 541.201, 1260.722 541.611 M 1520.041 588.450 C 1519.398 589.225, 1518.704 591.191, 1518.497 592.820 C 1518.167 595.435, 1518.378 595.718, 1520.311 595.246 C 1523.434 594.483, 1525 593.036, 1525 590.913 C 1525 588.316, 1521.567 586.612, 1520.041 588.450 M 1512.229 599.188 C 1512.847 601.042, 1515 601.349, 1515 599.583 C 1515 598.712, 1514.287 598, 1513.417 598 C 1512.546 598, 1512.011 598.534, 1512.229 599.188 M 1517.494 602.009 C 1516.729 603.247, 1517.826 607, 1518.954 607 C 1519.404 607, 1519.971 605.650, 1520.213 604 C 1520.648 601.037, 1518.891 599.750, 1517.494 602.009 M 1478.500 607 C 1478.160 607.550, 1478.557 608, 1479.382 608 C 1480.207 608, 1481.160 607.550, 1481.500 607 C 1481.840 606.450, 1481.443 606, 1480.618 606 C 1479.793 606, 1478.840 606.450, 1478.500 607 M 1474 610.559 C 1474 611.416, 1474.450 611.840, 1475 611.500 C 1475.550 611.160, 1476 610.459, 1476 609.941 C 1476 609.423, 1475.550 609, 1475 609 C 1474.450 609, 1474 609.702, 1474 610.559 M 1500.676 610.402 C 1500.380 611.173, 1500.403 612.070, 1500.727 612.394 C 1501.432 613.099, 1504 611.125, 1504 609.878 C 1504 608.447, 1501.260 608.879, 1500.676 610.402 M 1408.607 615.582 C 1407.520 618.414, 1407.951 622, 1409.378 622 C 1411.647 622, 1413.273 619.225, 1412.593 616.513 C 1411.887 613.703, 1409.538 613.154, 1408.607 615.582 M 1502 619.583 C 1502 621.349, 1504.153 621.042, 1504.771 619.188 C 1504.989 618.534, 1504.454 618, 1503.583 618 C 1502.713 618, 1502 618.712, 1502 619.583 M 1467.525 623.959 C 1466.690 625.311, 1469.052 628.780, 1471.189 629.339 C 1472.172 629.596, 1474.153 628.881, 1475.590 627.750 C 1477.903 625.931, 1478.013 625.587, 1476.542 624.763 C 1475.627 624.251, 1474.245 624.076, 1473.471 624.373 C 1472.697 624.670, 1471.798 624.482, 1471.473 623.956 C 1470.710 622.721, 1468.289 622.723, 1467.525 623.959 M 1433 633.893 C 1433 634.384, 1433.675 635.045, 1434.500 635.362 C 1435.414 635.712, 1436 635.363, 1436 634.469 C 1436 633.661, 1435.325 633, 1434.500 633 C 1433.675 633, 1433 633.402, 1433 633.893 M 1563.313 642.001 C 1556.455 647.045, 1556.707 647.892, 1568.799 660.449 C 1591.130 683.635, 1606.734 698, 1609.591 698 C 1611.228 698, 1617 691.300, 1617 689.400 C 1617 687.999, 1610.100 680.557, 1604 675.377 C 1602.625 674.210, 1599.475 670.835, 1597 667.877 C 1586.764 655.645, 1570.437 639, 1568.675 639 C 1567.971 639, 1565.558 640.350, 1563.313 642.001 M 1196 649.090 C 1188.575 650.088, 1180.925 651.357, 1179 651.911 C 1177.075 652.465, 1173.137 653.586, 1170.250 654.403 C 1167.362 655.219, 1163.999 656.588, 1162.777 657.444 C 1161.555 658.300, 1159.366 659, 1157.912 659 C 1156.459 659, 1154.197 659.805, 1152.885 660.790 C 1151.573 661.774, 1149.256 663.118, 1147.735 663.775 C 1146.215 664.433, 1144.455 666.102, 1143.825 667.485 C 1143.184 668.891, 1141.839 670, 1140.774 670 C 1136.174 670, 1128 677.052, 1128 681.020 C 1128 682.439, 1127.549 684.051, 1126.998 684.602 C 1126.447 685.153, 1125.734 687.485, 1125.412 689.784 C 1124.882 693.574, 1125.069 694.074, 1127.414 695.143 C 1130.444 696.523, 1130.683 698.814, 1128.455 705.124 C 1127.606 707.531, 1127.147 710.444, 1127.436 711.598 C 1127.831 713.175, 1126.974 714.490, 1123.981 716.895 C 1119.785 720.267, 1119.228 722.213, 1121.214 726.570 C 1122.283 728.918, 1122.169 729.445, 1120.249 730.999 C 1118.963 732.041, 1116.316 732.787, 1113.785 732.820 C 1111.428 732.852, 1103.279 734.119, 1095.676 735.637 C 1085.855 737.598, 1081.389 738.105, 1080.252 737.387 C 1079.362 736.826, 1078.092 733.639, 1077.394 730.219 C 1074.951 718.241, 1067.295 710.480, 1045.904 698.296 C 1020.882 684.045, 1014.057 681.787, 1008.722 685.997 C 1007.194 687.203, 1005.053 689.937, 1003.963 692.073 C 1002.134 695.658, 1001.979 698.054, 1001.947 723.227 C 1001.929 738.226, 1001.659 751.510, 1001.348 752.749 C 1000.760 755.092, 998.142 755.742, 996.381 753.981 C 995.690 753.290, 992.174 753.811, 985.431 755.604 C 970.896 759.470, 958.593 761.958, 957.851 761.180 C 957.494 760.806, 957.017 756, 956.792 750.500 C 956.467 742.582, 955.902 739.563, 954.078 736 C 949.480 727.019, 944.819 723.716, 908.500 703.704 C 903.550 700.977, 898.516 697.850, 897.312 696.757 C 893.840 693.601, 887.211 693.342, 883 696.196 C 877.264 700.085, 877.046 701.736, 877.285 739.401 L 877.500 773.303 871.780 773.614 C 868.634 773.784, 862.334 774.591, 857.780 775.405 C 853.226 776.219, 845 777.167, 839.500 777.512 L 829.500 778.137 823.500 773.757 C 817.321 769.245, 813.961 767.300, 803.327 762.080 C 797.168 759.057, 797.152 759.037, 795.981 753.275 C 793.360 740.382, 789.945 736.181, 780.408 734.116 C 777.159 733.413, 772.475 732.312, 770 731.669 C 767.525 731.026, 760.775 730.515, 755 730.533 C 742.629 730.571, 734.727 732.587, 730.776 736.713 C 727.522 740.112, 723.782 748.267, 724.554 750.281 C 724.865 751.089, 724.079 752.908, 722.809 754.321 C 720.646 756.730, 706.796 764.806, 693.757 771.263 C 690.598 772.827, 687.553 774.966, 686.991 776.016 C 686.305 777.299, 686.289 780.734, 686.943 786.490 C 687.478 791.200, 687.670 795.696, 687.370 796.479 C 687.067 797.269, 684.967 798.121, 682.661 798.391 C 669.841 799.891, 660.181 801.398, 655.636 802.609 C 648.212 804.585, 643.566 804.320, 638.217 801.614 C 635.623 800.301, 630.125 798.229, 626 797.009 C 621.875 795.789, 618.017 794.399, 617.427 793.920 C 614.669 791.681, 589.209 786.929, 569.500 784.975 C 555.937 783.631, 521.326 784.145, 508 785.889 C 484.877 788.915, 464.944 795.144, 462.085 800.236 C 460.845 802.444, 459.994 802.935, 458.178 802.492 C 453.754 801.413, 446.821 807.549, 442.175 816.656 C 439.139 822.609, 436 831.191, 436.540 832.065 C 436.797 832.480, 436.738 833.518, 436.411 834.372 C 435.873 835.774, 435.582 835.772, 433.422 834.357 C 430.809 832.645, 431.477 832.514, 414.500 838.066 C 399.131 843.092, 390.438 849.278, 384.496 859.417 C 382.127 863.458, 382.014 864.320, 382.431 875.097 C 382.732 882.865, 382.421 888.412, 381.457 892.500 C 380.348 897.201, 380.150 904.238, 380.542 925 C 380.817 939.575, 381.268 963.650, 381.543 978.500 C 381.818 993.350, 381.924 1009.550, 381.779 1014.500 C 381.574 1021.488, 381.729 1152.112, 381.948 1156.500 C 381.975 1157.050, 381.852 1163.575, 381.675 1171 C 381.497 1178.425, 381.742 1185.956, 382.219 1187.735 C 382.777 1189.817, 382.694 1191.703, 381.988 1193.023 C 380.603 1195.610, 381.674 1199.339, 383.590 1198.604 C 385.224 1197.977, 385.513 1199.565, 383.941 1200.536 C 383.329 1200.914, 383.156 1202.433, 383.530 1204.136 C 383.901 1205.824, 383.697 1207.661, 383.053 1208.436 C 382.396 1209.228, 381.888 1214.096, 381.831 1220.146 C 381.777 1225.840, 381.699 1233.875, 381.658 1238 C 381.546 1249.148, 381.689 1360.856, 381.820 1365.500 C 381.883 1367.700, 381.680 1383.710, 381.370 1401.077 C 380.424 1454.056, 381.433 1457.422, 403.500 1474.848 C 413.366 1482.639, 419.888 1486.198, 435.692 1492.413 C 447.387 1497.012, 457.772 1499.631, 471.869 1501.535 C 478.266 1502.399, 487.325 1503.811, 492 1504.674 C 499.149 1505.992, 506.063 1506.143, 535.500 1505.618 C 554.750 1505.275, 573.425 1504.592, 577 1504.101 C 580.575 1503.610, 591.825 1502.267, 602 1501.117 C 612.175 1499.967, 622.975 1498.578, 626 1498.030 C 629.025 1497.482, 637.350 1496.367, 644.500 1495.553 C 664.460 1493.279, 688.085 1490.251, 703 1488.055 C 710.425 1486.962, 724.375 1485.132, 734 1483.988 C 752.793 1481.755, 761.073 1480.668, 776 1478.473 C 781.225 1477.704, 789.550 1476.603, 794.500 1476.026 C 807.543 1474.505, 824.361 1472.364, 841.500 1470.043 C 861.451 1467.341, 865.067 1467.378, 867.826 1470.314 C 870.929 1473.618, 870.682 1475.403, 867.250 1474.467 C 861.979 1473.031, 860.718 1473.357, 859.894 1476.367 C 859.463 1477.944, 858.133 1479.919, 856.938 1480.756 C 854.910 1482.177, 854.805 1482.838, 855.363 1490.703 C 855.692 1495.337, 856.239 1499.577, 856.577 1500.125 C 856.916 1500.674, 857.276 1503.728, 857.376 1506.912 C 857.501 1510.863, 858.104 1513.247, 859.278 1514.421 C 860.223 1515.366, 861.299 1517.346, 861.668 1518.820 C 863.367 1525.609, 868.318 1530.391, 879.500 1536.043 C 891.970 1542.347, 900.375 1550.043, 903.984 1558.463 C 905.108 1561.085, 906.921 1564.485, 908.014 1566.019 C 909.106 1567.553, 910 1569.927, 910 1571.294 C 910 1574.107, 914.038 1589.450, 916.370 1595.500 C 917.218 1597.700, 917.945 1600.625, 917.984 1602 C 918.024 1603.375, 919.162 1606.525, 920.513 1609 C 921.865 1611.475, 923.493 1614.625, 924.132 1616 C 924.770 1617.375, 926.545 1621.200, 928.076 1624.500 C 929.606 1627.800, 931.734 1631.031, 932.804 1631.680 C 934.173 1632.511, 934.607 1633.606, 934.268 1635.377 C 933.966 1636.960, 934.568 1638.989, 935.894 1640.851 C 937.052 1642.478, 938 1644.095, 938 1644.445 C 938 1645.240, 941.758 1650.681, 944.600 1654 C 945.778 1655.375, 948.412 1658.975, 950.455 1662 C 956.112 1670.378, 960.634 1675.653, 970.600 1685.500 C 984.153 1698.891, 987.942 1702.259, 994 1706.299 C 997.025 1708.317, 1001.267 1711.212, 1003.427 1712.734 C 1008.963 1716.633, 1017.215 1721, 1019.050 1721 C 1019.902 1721, 1021.027 1721.418, 1021.550 1721.930 C 1022.072 1722.441, 1024.525 1723.599, 1027 1724.502 C 1043.903 1730.672, 1059.014 1733.292, 1077.500 1733.260 C 1085.200 1733.246, 1094.200 1732.751, 1097.500 1732.158 C 1115.507 1728.926, 1129.050 1725.288, 1131.500 1723.026 C 1132.600 1722.010, 1135.300 1720.689, 1137.500 1720.090 C 1143.501 1718.456, 1143.828 1718.028, 1143.656 1712.030 L 1143.500 1706.563 1148.498 1705.829 C 1152.187 1705.287, 1154.076 1705.475, 1155.713 1706.547 C 1158.825 1708.587, 1160.302 1708.372, 1163.015 1705.484 C 1164.315 1704.100, 1167.431 1701.773, 1169.939 1700.313 C 1179.063 1695.002, 1194.619 1680.333, 1208.058 1664.368 C 1216.576 1654.248, 1230.684 1633.636, 1235.003 1625 C 1236.791 1621.425, 1239.024 1617.375, 1239.966 1616 C 1240.909 1614.625, 1242.715 1610.800, 1243.980 1607.500 C 1245.245 1604.200, 1247.356 1599.389, 1248.670 1596.810 C 1249.984 1594.230, 1251.694 1590.180, 1252.469 1587.810 C 1253.244 1585.439, 1254.989 1580.350, 1256.345 1576.500 C 1257.702 1572.650, 1259.131 1567.357, 1259.521 1564.738 C 1259.912 1562.118, 1260.629 1559.729, 1261.115 1559.429 C 1261.602 1559.128, 1262 1557.928, 1262 1556.762 C 1262 1555.596, 1262.411 1553.260, 1262.913 1551.571 C 1264.794 1545.249, 1267.732 1532.917, 1270.404 1520.137 C 1271.250 1516.087, 1272.387 1512.239, 1272.929 1511.585 C 1273.472 1510.932, 1274.419 1507.045, 1275.035 1502.948 C 1275.651 1498.852, 1276.737 1494.375, 1277.448 1493 C 1278.160 1491.625, 1279.065 1488.700, 1279.460 1486.500 C 1280.114 1482.854, 1286.024 1472.359, 1289.198 1469.207 C 1303.124 1455.375, 1307.808 1452.729, 1320.581 1451.476 C 1326.672 1450.878, 1328.158 1451.095, 1333 1453.283 C 1336.025 1454.650, 1341.740 1458.549, 1345.700 1461.947 C 1353.205 1468.387, 1358.110 1475.208, 1364.428 1487.991 C 1366.443 1492.069, 1368.444 1495.878, 1368.874 1496.453 C 1369.304 1497.029, 1370.419 1499.570, 1371.353 1502.099 C 1372.287 1504.629, 1374.164 1507.745, 1375.525 1509.024 C 1376.886 1510.302, 1378.012 1512.058, 1378.027 1512.924 C 1378.076 1515.804, 1383.741 1527.881, 1388.258 1534.738 C 1390.708 1538.457, 1394.015 1543.925, 1395.607 1546.889 C 1397.198 1549.853, 1398.950 1553.016, 1399.500 1553.919 C 1401.944 1557.929, 1415.449 1575.165, 1421.430 1581.905 C 1425.043 1585.978, 1428 1589.676, 1428 1590.123 C 1428 1590.570, 1429.108 1591.517, 1430.462 1592.226 C 1431.816 1592.935, 1436.248 1596.662, 1440.310 1600.508 C 1444.373 1604.354, 1449.452 1608.870, 1451.598 1610.545 C 1460.201 1617.259, 1481.973 1629.548, 1489.614 1632.004 C 1491.751 1632.691, 1494.175 1633.818, 1495 1634.508 C 1495.825 1635.199, 1497.625 1636.068, 1499 1636.440 C 1502.095 1637.278, 1514.402 1640.827, 1518.641 1642.104 C 1520.369 1642.625, 1526.899 1643.229, 1533.152 1643.446 C 1539.406 1643.664, 1545.643 1644.103, 1547.011 1644.421 C 1550.940 1645.335, 1570.648 1643.032, 1582 1640.333 C 1589.586 1638.529, 1608.597 1630.639, 1611.500 1628.089 C 1612.600 1627.123, 1615.750 1625.059, 1618.500 1623.503 C 1626.338 1619.066, 1634.622 1612.348, 1637.003 1608.496 C 1638.200 1606.559, 1640.060 1604.503, 1641.137 1603.926 C 1642.479 1603.209, 1642.902 1602.265, 1642.479 1600.934 C 1642.081 1599.680, 1642.405 1598.782, 1643.393 1598.403 C 1644.235 1598.080, 1645.191 1596.973, 1645.518 1595.944 C 1645.972 1594.512, 1646.758 1594.202, 1648.860 1594.622 C 1651.268 1595.104, 1652.342 1594.346, 1657.554 1588.487 C 1663.110 1582.241, 1669.170 1573.914, 1675.012 1564.500 C 1683.648 1550.586, 1683.812 1550.269, 1689.047 1537.500 C 1690.851 1533.100, 1693.153 1527.670, 1694.163 1525.434 C 1695.174 1523.198, 1696 1520.892, 1696 1520.309 C 1696 1519.726, 1697.082 1516.802, 1698.405 1513.811 C 1699.727 1510.821, 1701.131 1505.702, 1701.524 1502.437 C 1701.917 1499.172, 1703.306 1493.350, 1704.611 1489.500 C 1707.871 1479.883, 1711.211 1462.241, 1713.036 1445 C 1713.647 1439.225, 1714.293 1433.150, 1714.471 1431.500 C 1715.740 1419.762, 1718.514 1406.773, 1720.734 1402.179 C 1722.161 1399.224, 1725.063 1395.443, 1727.259 1393.679 C 1736.449 1386.292, 1737.187 1385.445, 1737.918 1381.446 C 1738.812 1376.560, 1738.368 1375, 1736.083 1375 C 1733.391 1375, 1732.818 1373.816, 1734.828 1372.408 C 1736.425 1371.289, 1738.010 1367.436, 1739.689 1360.589 C 1740.285 1358.159, 1741.163 1341.405, 1741.362 1328.663 C 1741.495 1320.143, 1741.399 1319.739, 1738.694 1317.413 C 1736.596 1315.609, 1734.713 1315, 1731.228 1315 C 1728.664 1315, 1724.752 1314.372, 1722.533 1313.605 C 1709.537 1309.112, 1692.452 1305.411, 1668.751 1301.954 C 1662.193 1300.998, 1659.384 1300.960, 1657.535 1301.802 C 1655.613 1302.678, 1654.274 1302.595, 1651.477 1301.426 C 1649.502 1300.601, 1646.224 1299.945, 1644.193 1299.968 C 1642.162 1299.992, 1637.125 1299.680, 1633 1299.276 C 1628.875 1298.872, 1622.125 1298.613, 1618 1298.702 C 1562.041 1299.907, 1551.887 1300.452, 1544.461 1302.650 C 1541.690 1303.470, 1538.990 1304.017, 1538.461 1303.867 C 1535.949 1303.150, 1520.719 1306.433, 1518.516 1308.166 C 1516.543 1309.718, 1515.154 1309.957, 1511.176 1309.429 C 1507.730 1308.972, 1505.263 1309.232, 1502.885 1310.303 C 1501.023 1311.142, 1497.250 1312.288, 1494.500 1312.849 C 1464.845 1318.905, 1459.615 1321.245, 1459.525 1328.500 C 1459.507 1329.949, 1458.949 1330.400, 1457.500 1330.136 C 1449.428 1328.668, 1435.540 1331.863, 1429.250 1336.636 C 1426.688 1338.580, 1426 1339.832, 1426 1342.551 C 1426 1345.563, 1425.683 1346, 1423.500 1346 C 1421.990 1346, 1421 1345.429, 1421 1344.559 C 1421 1343.766, 1420.593 1342.867, 1420.096 1342.559 C 1419.023 1341.896, 1408.278 1347.820, 1403.063 1351.950 C 1401.041 1353.551, 1397.388 1355.649, 1394.944 1356.612 C 1392.500 1357.575, 1388.523 1359.857, 1386.106 1361.682 C 1383.690 1363.507, 1381.118 1365, 1380.391 1365 C 1379.665 1365, 1378.611 1365.859, 1378.049 1366.909 C 1377.112 1368.659, 1366.160 1373, 1362.679 1373 C 1361.908 1373, 1358.299 1374.350, 1354.660 1376 C 1351.021 1377.650, 1347.122 1379, 1345.996 1379 C 1344.060 1379, 1344.030 1378.843, 1345.446 1376.105 C 1347.068 1372.969, 1348.566 1367.638, 1350.255 1359 C 1350.846 1355.975, 1351.428 1340.900, 1351.547 1325.500 C 1351.786 1294.504, 1351.871 815.799, 1351.643 779.877 L 1351.500 757.255 1346.500 751.984 C 1337.611 742.614, 1336.616 741.821, 1328.500 737.629 L 1320.500 733.497 1320.852 725.374 C 1321.242 716.404, 1320.262 713.430, 1316.439 711.977 C 1314.364 711.188, 1314 710.393, 1314 706.651 C 1314 703.768, 1314.900 700.641, 1316.612 697.579 C 1318.971 693.358, 1319.155 692.275, 1318.523 686.367 C 1317.725 678.923, 1314.968 674.021, 1309.477 670.291 C 1307.565 668.991, 1306 667.484, 1306 666.943 C 1306 666.401, 1304.763 665.404, 1303.250 664.729 C 1301.737 664.053, 1298.081 662.056, 1295.125 660.290 C 1276.761 649.322, 1231.950 644.259, 1196 649.090 M 1211.500 666.110 C 1206 666.610, 1199.163 667.138, 1196.307 667.285 C 1193.451 667.432, 1190.789 667.878, 1190.390 668.276 C 1189.992 668.674, 1188.447 669, 1186.955 669 C 1185.464 669, 1182.727 669.625, 1180.872 670.390 C 1179.017 671.154, 1174.693 672.097, 1171.262 672.486 C 1167.335 672.932, 1164.051 673.958, 1162.400 675.257 C 1160.121 677.050, 1159.356 677.169, 1156.567 676.160 C 1150.558 673.987, 1149.384 674.712, 1149.948 680.250 C 1150.085 681.598, 1149.364 682.004, 1146.813 682.015 C 1144.505 682.026, 1143.923 682.299, 1144.896 682.914 C 1145.667 683.402, 1146.015 684.519, 1145.674 685.408 C 1144.673 688.017, 1146.752 691.955, 1149.728 693.087 C 1151.248 693.664, 1153.909 695.219, 1155.642 696.540 C 1158.677 698.856, 1160.633 699.341, 1171.500 700.475 C 1174.250 700.761, 1178.709 701.672, 1181.409 702.498 C 1191.560 705.604, 1195.876 704.056, 1198.981 696.197 C 1200.689 691.875, 1205.407 689.530, 1215.465 688.005 C 1227.012 686.255, 1237.734 688.257, 1240.304 692.643 C 1240.746 693.397, 1242.771 694.863, 1244.804 695.901 C 1246.837 696.938, 1249.357 698.735, 1250.405 699.894 C 1251.806 701.443, 1253.525 702.007, 1256.905 702.026 C 1262.125 702.056, 1276.806 698.719, 1285 695.641 C 1290.429 693.602, 1301.553 686.533, 1301.444 685.191 C 1301.116 681.119, 1299.566 679.141, 1296.212 678.512 C 1293.049 677.919, 1289.292 676.248, 1284 673.082 C 1281.788 671.758, 1269.833 669.016, 1259 667.348 C 1247.061 665.509, 1224.574 664.923, 1211.500 666.110 M 1467.971 703.647 C 1464.123 704.691, 1463.713 707.570, 1463.795 732.964 C 1463.905 766.564, 1464.626 775.625, 1467.344 777.528 C 1470.947 780.052, 1474.848 779.352, 1478.714 775.486 C 1482.120 772.080, 1482.206 771.806, 1481.542 766.491 C 1481.165 763.475, 1480.927 757.069, 1481.013 752.254 C 1481.520 723.827, 1481.087 712.068, 1479.412 708.830 C 1476.943 704.056, 1473.018 702.277, 1467.971 703.647 M 1018.498 714.020 C 1018.061 718.956, 1018.171 722.513, 1018.784 723.270 C 1019.331 723.946, 1020.086 729.225, 1020.461 735 C 1020.836 740.775, 1021.349 746.233, 1021.600 747.129 C 1021.852 748.025, 1027.783 752.517, 1034.779 757.112 C 1041.776 761.707, 1049.904 767.386, 1052.842 769.733 C 1055.780 772.080, 1058.790 774, 1059.531 774 C 1060.557 774, 1060.995 771.197, 1061.365 762.250 C 1061.633 755.788, 1061.899 749.825, 1061.957 749 C 1062.014 748.175, 1061.835 744.728, 1061.557 741.339 C 1060.952 733.949, 1057.538 728.258, 1050.594 723.064 C 1048.067 721.174, 1046 719.325, 1046 718.954 C 1046 718.065, 1022.303 706, 1020.557 706 C 1019.596 706, 1019.004 708.307, 1018.498 714.020 M 1143.250 707.220 C 1142.013 707.817, 1141 708.934, 1141 709.701 C 1141 710.469, 1139.577 711.695, 1137.838 712.426 C 1134.746 713.726, 1134.724 713.782, 1136.838 714.913 C 1138.027 715.550, 1139 716.747, 1139 717.575 C 1139 721.136, 1143.351 727.093, 1149.454 731.889 C 1156.658 737.551, 1158.461 738.444, 1171.750 742.928 C 1191.307 749.528, 1220.857 750.741, 1248.596 746.083 C 1265.507 743.244, 1283.850 736.514, 1290.391 730.750 C 1291.483 729.788, 1292.772 729, 1293.255 729 C 1293.738 729, 1295.791 727.781, 1297.817 726.290 C 1299.843 724.800, 1301.572 723.563, 1301.661 723.540 C 1301.749 723.518, 1302.117 721.920, 1302.477 719.988 C 1303.124 716.525, 1303.071 716.457, 1298.636 715.148 C 1293.717 713.696, 1290.004 714.392, 1282.747 718.130 C 1280.434 719.322, 1275.835 720.307, 1270.759 720.698 C 1266.029 721.063, 1261.956 721.901, 1261.191 722.667 C 1260.457 723.400, 1258.903 724, 1257.737 724 C 1255.709 724, 1255.697 723.942, 1257.471 722.645 C 1258.606 721.815, 1259.080 720.652, 1258.694 719.645 C 1257.921 717.631, 1254.142 717.467, 1253.394 719.416 C 1253.095 720.194, 1251.057 722.074, 1248.865 723.593 C 1244.930 726.320, 1244.645 726.360, 1226.190 726.794 C 1211.702 727.134, 1205.572 726.869, 1198.922 725.616 C 1194.204 724.727, 1188.495 724, 1186.235 724 C 1181.586 724, 1167.400 720.820, 1164.048 719.026 C 1161.924 717.889, 1161.906 717.762, 1163.593 715.897 C 1165.945 713.299, 1164.015 710.885, 1161.062 712.729 C 1160.023 713.378, 1157.282 714.020, 1154.971 714.157 C 1150.125 714.443, 1147.991 712.500, 1148.755 708.499 C 1149.290 705.703, 1147.336 705.250, 1143.250 707.220 M 895.689 720.083 C 894.788 723.527, 896.060 760.290, 897.182 763.227 C 898.448 766.542, 905.900 771.639, 920 778.835 C 925.775 781.783, 931.210 784.825, 932.079 785.597 C 936.901 789.883, 938.176 785.816, 938.335 765.628 C 938.464 749.406, 938.350 748.302, 936.186 744.801 C 932.776 739.283, 925.698 733.845, 913.061 727.033 C 906.831 723.675, 900.793 720.268, 899.644 719.463 C 896.878 717.526, 896.335 717.611, 895.689 720.083 M 1305 745.676 C 1304.175 745.961, 1297.875 748.822, 1291 752.034 C 1266.952 763.268, 1249.587 766.583, 1216 766.352 C 1193.440 766.197, 1180.569 764.487, 1170.365 760.292 L 1166.007 758.500 1166.004 752.250 C 1165.999 744.730, 1165.181 744.463, 1159.123 750 C 1154.809 753.944, 1152.638 754.842, 1151.576 753.123 C 1151.278 752.641, 1148.941 751.719, 1146.383 751.075 C 1143.824 750.431, 1139.957 748.998, 1137.789 747.892 C 1134.935 746.436, 1132.695 746.028, 1129.673 746.415 C 1121.653 747.440, 1118.493 748.311, 1117.406 749.798 C 1116.643 750.841, 1115.478 751.086, 1113.560 750.604 C 1112.047 750.225, 1110.272 750.360, 1109.615 750.904 C 1108.826 751.559, 1107.042 751.544, 1104.349 750.861 C 1100.785 749.956, 1099.664 750.136, 1095.388 752.299 C 1091.689 754.170, 1089.215 754.709, 1085.217 754.514 C 1081.179 754.317, 1079.731 754.639, 1079.077 755.878 C 1078.607 756.770, 1078.037 763.800, 1077.811 771.500 C 1077.327 787.990, 1076.298 790.863, 1069.969 793.396 C 1065.071 795.355, 1060.624 794.492, 1054.657 790.422 C 1051.151 788.031, 1043.831 783.670, 1027.500 774.241 C 1019.989 769.904, 1013.841 767.638, 1013.052 768.916 C 1012.728 769.440, 1006.396 770.565, 998.981 771.415 C 989.980 772.447, 982.622 773.948, 976.840 775.934 C 972.077 777.569, 965.844 779.217, 962.989 779.596 C 956.127 780.506, 954.010 783.665, 954.002 793 C 953.996 800.479, 951.822 805.812, 948 807.721 C 942.859 810.290, 934.190 808.826, 929 804.512 C 928.175 803.827, 923.900 801.359, 919.500 799.030 C 915.100 796.700, 909.006 793.259, 905.958 791.383 C 898.435 786.754, 887.646 785.189, 884.303 788.242 C 881.809 790.520, 877.018 791.624, 865.517 792.570 C 861.127 792.931, 856.582 793.589, 855.417 794.031 C 854.253 794.474, 849.525 795.166, 844.911 795.568 C 837.551 796.210, 836.209 796.635, 833.968 799.034 C 831.808 801.347, 831.424 802.673, 831.480 807.634 C 831.516 810.860, 832.132 814.546, 832.848 815.825 C 836.837 822.946, 826.394 838.680, 813.500 844.976 C 797.845 852.620, 768.859 857.096, 748.125 855.073 C 741.731 854.449, 733.575 853.497, 730 852.958 C 717.148 851.019, 701.183 844.597, 694.310 838.602 C 690.237 835.049, 685.032 825.973, 684.968 822.312 C 684.951 821.315, 684.266 819.613, 683.446 818.529 C 681.987 816.598, 681.787 816.593, 673.596 818.279 C 668.998 819.226, 663.804 820, 662.052 820 C 656.260 820, 655.165 821.283, 655.133 828.106 C 655.114 831.932, 655.671 835.094, 656.617 836.538 C 657.944 838.564, 657.953 839.194, 656.687 841.674 C 655.893 843.228, 655.452 845.876, 655.707 847.557 C 656.014 849.580, 655.634 851.059, 654.585 851.929 C 653.713 852.653, 653 853.865, 653 854.622 C 653 855.380, 652.594 856, 652.098 856 C 651.602 856, 650.706 857.404, 650.108 859.119 C 649.279 861.499, 648.562 862.119, 647.085 861.733 C 645.899 861.422, 645.310 861.667, 645.564 862.363 C 645.792 862.988, 645.646 863.973, 645.239 864.551 C 643.699 866.740, 633.324 871.721, 629.172 872.264 C 626.792 872.576, 624.290 873.588, 623.613 874.515 C 622.936 875.441, 620.608 876.570, 618.441 877.024 C 616.273 877.477, 611.742 878.539, 608.372 879.384 C 596.695 882.311, 580.494 883.210, 548.500 882.707 C 520.673 882.269, 516.057 881.953, 503.405 879.620 C 483.596 875.966, 469.192 871.414, 456.218 864.707 C 448.339 860.634, 445.418 857.198, 444.361 850.757 C 444.023 848.698, 442.904 846.042, 441.873 844.854 C 440.843 843.666, 440 841.918, 440 840.969 C 440 838.830, 436.851 835.978, 436.298 837.618 C 436.091 838.233, 434.927 840.665, 433.711 843.023 C 431.354 847.594, 430.118 848.418, 415.943 854.869 C 405.831 859.470, 403.244 862.391, 404.948 867.281 C 405.549 869.004, 406.993 871.428, 408.158 872.668 C 411.079 875.777, 428.768 884.330, 439.566 887.855 C 457.066 893.567, 490.999 900.060, 512.500 901.811 C 537.849 903.876, 590.081 901.181, 617.500 896.394 C 622.450 895.530, 630.550 894.209, 635.500 893.460 C 656.517 890.278, 664.192 888.999, 664.899 888.562 C 665.312 888.307, 675.066 886.719, 686.575 885.034 C 698.084 883.348, 713.125 881.066, 720 879.963 C 726.875 878.859, 748.925 875.471, 769 872.434 C 789.075 869.396, 809.325 866.243, 814 865.427 C 825.952 863.341, 874.893 856.030, 884.500 854.896 C 888.900 854.376, 897.900 853.047, 904.500 851.941 C 911.100 850.836, 921.450 849.247, 927.500 848.410 C 933.550 847.574, 943.450 846.015, 949.500 844.947 C 964.012 842.385, 990.748 838.426, 1010 835.989 C 1018.525 834.909, 1029.550 833.341, 1034.500 832.504 C 1039.450 831.667, 1053.175 829.593, 1065 827.895 C 1093.313 823.830, 1095.834 823.477, 1114 821.017 C 1122.525 819.862, 1137.375 817.618, 1147 816.029 C 1166.902 812.743, 1183.950 810.231, 1212 806.451 C 1269.871 798.651, 1293.153 793.162, 1319.076 781.206 C 1326.413 777.823, 1327.911 776.707, 1329.439 773.486 C 1331.529 769.083, 1331.084 762.855, 1328.473 759.970 C 1327.539 758.938, 1323.672 756.251, 1319.878 753.997 C 1316.084 751.743, 1312.257 748.796, 1311.375 747.449 C 1309.819 745.075, 1308.113 744.601, 1305 745.676 M 757.500 751.927 C 744.705 752.538, 742.593 753.141, 743.479 755.933 C 743.787 756.903, 743.343 759.003, 742.493 760.598 C 741.468 762.521, 741.114 765.018, 741.444 768 C 741.717 770.475, 742.204 777, 742.526 782.500 C 743.304 795.799, 743.573 796.034, 757.861 795.900 C 777.430 795.717, 776.914 796.572, 779.371 760.215 C 779.686 755.549, 779.435 754.701, 777.229 752.965 C 775.855 751.884, 773.553 751.080, 772.115 751.177 C 770.677 751.275, 764.100 751.613, 757.500 751.927 M 801.667 774.667 C 800.516 775.817, 800.938 777, 802.500 777 C 803.325 777, 804 776.325, 804 775.500 C 804 773.938, 802.817 773.516, 801.667 774.667 M 715.500 781.526 C 710.646 784.516, 708.404 784.652, 707.710 782 C 707.423 780.900, 706.470 780, 705.594 780 C 703.312 780, 703.623 781.312, 706.500 783.813 C 707.875 785.009, 709 786.391, 709 786.885 C 709 787.907, 714.893 790.409, 719.791 791.467 C 724.838 792.556, 726.096 790.957, 724.298 785.738 C 722.827 781.469, 721.276 778.974, 720.128 779.031 C 719.782 779.048, 717.700 780.171, 715.500 781.526 M 796.188 779.884 C 795.473 780.326, 794.625 783.233, 794.304 786.344 C 793.736 791.845, 793.788 792, 796.182 792 C 799.823 792, 808.002 788.990, 807.988 787.656 C 807.981 787.020, 806.518 785.494, 804.738 784.264 C 802.957 783.034, 800.597 781.365, 799.494 780.554 C 798.327 779.696, 796.945 779.416, 796.188 779.884 M 1325.500 798.714 C 1319.437 802.015, 1304.577 808, 1302.443 808 C 1301.234 808, 1299.725 808.626, 1299.090 809.391 C 1298.455 810.156, 1296.713 811.003, 1295.218 811.272 C 1293.723 811.541, 1288 812.899, 1282.500 814.289 C 1273.775 816.494, 1260.905 818.823, 1247.500 820.623 C 1240.324 821.586, 1238.622 821.837, 1229 823.342 C 1218.585 824.972, 1209.526 826.301, 1173.500 831.484 C 1160.300 833.383, 1142.075 836.091, 1133 837.503 C 1123.925 838.914, 1108.625 841.172, 1099 842.520 C 1089.375 843.868, 1072.050 846.305, 1060.500 847.936 C 1048.950 849.567, 1033.875 851.621, 1027 852.500 C 1020.125 853.380, 1011.125 854.723, 1007 855.485 C 1002.875 856.248, 992.750 857.828, 984.500 858.997 C 976.250 860.166, 965.675 861.780, 961 862.583 C 952.325 864.073, 946.891 864.874, 927.519 867.515 C 921.480 868.338, 915.855 869.210, 915.019 869.452 C 913.532 869.882, 859.824 878.184, 824 883.520 C 818.775 884.298, 803.250 886.751, 789.500 888.970 C 762.171 893.381, 715.950 900.613, 690 904.539 C 680.925 905.912, 670.575 907.479, 667 908.020 C 663.425 908.562, 657.125 909.468, 653 910.034 C 648.875 910.599, 643.475 911.494, 641 912.022 C 631.805 913.984, 607.967 917.278, 591.094 918.918 C 569.923 920.977, 511.525 921.154, 498 919.201 C 493.325 918.526, 484.775 917.311, 479 916.501 C 459.140 913.716, 442.186 909.409, 438.683 906.260 C 435.268 903.190, 434.322 902.896, 431.700 904.091 C 429.656 905.022, 428.236 904.741, 423.125 902.395 C 419.756 900.849, 417 899.158, 417 898.638 C 417 897.735, 409.143 890, 408.225 890 C 407.982 890, 408.042 891.033, 408.359 892.295 C 408.887 894.397, 408.652 894.558, 405.586 894.200 C 403.498 893.956, 401.924 894.314, 401.408 895.149 C 400.241 897.036, 400.873 1002.894, 402.064 1005.119 C 403.318 1007.463, 412.181 1013.306, 419.169 1016.396 C 431.709 1021.942, 453.249 1027.738, 477 1031.958 C 480.575 1032.593, 486.200 1033.733, 489.500 1034.492 C 493.255 1035.355, 504.492 1036.063, 519.531 1036.383 C 532.749 1036.665, 544.355 1037.199, 545.323 1037.571 C 546.292 1037.942, 547.013 1038.978, 546.927 1039.873 C 546.634 1042.900, 546.996 1044.121, 548 1043.500 C 548.550 1043.160, 549 1041.801, 549 1040.480 C 549 1037.315, 553.093 1036.212, 569.247 1035.022 C 582.345 1034.057, 588.390 1033.306, 613.500 1029.524 C 635.735 1026.175, 632.879 1026.601, 670.500 1021.003 C 689.200 1018.220, 709.225 1015.284, 715 1014.478 C 720.775 1013.671, 731.125 1012.139, 738 1011.072 C 744.875 1010.006, 754.775 1008.474, 760 1007.669 C 765.225 1006.865, 777.825 1005.455, 788 1004.537 C 812.716 1002.307, 816.385 1001.532, 820.852 997.596 C 822.858 995.828, 827.425 992.158, 831 989.441 C 834.575 986.723, 837.806 984.034, 838.179 983.465 C 838.553 982.895, 841.478 980.692, 844.679 978.568 C 847.881 976.444, 851.625 973.875, 853 972.859 C 867.504 962.138, 877.895 956.829, 901 948.331 C 911.917 944.316, 936.175 938.249, 944.701 937.401 C 947.891 937.084, 952.075 936.447, 954 935.986 C 957.418 935.166, 981.528 933.374, 985.500 933.643 C 986.600 933.718, 994.700 934.098, 1003.500 934.487 C 1012.300 934.876, 1019.829 935.397, 1020.232 935.645 C 1020.634 935.893, 1025.134 936.928, 1030.232 937.945 C 1041.790 940.251, 1058.949 944.741, 1060.406 945.839 C 1061.008 946.293, 1062.850 947.170, 1064.500 947.788 C 1066.150 948.405, 1071.653 950.506, 1076.728 952.455 C 1087.489 956.589, 1090.271 956.723, 1108 953.963 C 1121.767 951.820, 1145.984 948.647, 1161.500 946.954 C 1167 946.354, 1174.329 945.427, 1177.788 944.896 C 1181.246 944.364, 1184.467 944.171, 1184.946 944.467 C 1185.426 944.763, 1188.446 944.347, 1191.659 943.543 C 1194.871 942.738, 1205.568 941.339, 1215.429 940.433 C 1225.289 939.527, 1235.133 938.159, 1237.304 937.393 C 1239.475 936.627, 1242.657 935.978, 1244.376 935.952 C 1249.772 935.869, 1275.084 931.358, 1285 928.712 C 1298.430 925.128, 1307.433 921.854, 1316.576 917.230 C 1320.934 915.025, 1325.767 912.931, 1327.316 912.575 C 1332.924 911.288, 1333 910.464, 1333 851.032 L 1333 797 1330.750 797.040 C 1329.513 797.062, 1327.150 797.815, 1325.500 798.714 M 510.500 804.567 C 506.100 805.305, 499.800 806.440, 496.500 807.089 C 493.200 807.738, 488.925 808.381, 487 808.518 C 480.880 808.952, 471.643 811.768, 470.296 813.610 C 469.151 815.176, 469.561 815.898, 473.748 819.675 C 479.449 824.818, 481.461 825.492, 486.812 824.051 C 489.969 823.201, 492.434 823.279, 497.696 824.397 C 514.021 827.866, 529.445 829.253, 550 829.102 C 569.471 828.958, 574.434 828.604, 592 826.104 C 596.125 825.517, 603.325 824.565, 608 823.989 C 616.417 822.951, 627.317 821.168, 629.773 820.429 C 632.297 819.669, 628.776 816.001, 625.509 815.988 C 623.854 815.981, 620.575 814.875, 618.222 813.530 C 615.869 812.185, 613.327 811.321, 612.573 811.610 C 611.819 811.900, 610.905 811.656, 610.542 811.068 C 610.179 810.481, 608.793 810, 607.461 810 C 605.187 810, 598.763 808.866, 581 805.329 C 570.487 803.235, 521.598 802.707, 510.500 804.567 M 700.592 808.904 C 697.975 811.635, 697.908 811.919, 699.470 813.654 C 700.383 814.670, 702.741 817.695, 704.708 820.378 C 708.787 825.938, 715.439 829.462, 728.626 833.050 C 738.625 835.770, 762.436 836.795, 775.434 835.065 C 793.472 832.665, 808.688 826.053, 815.376 817.710 C 818.318 814.040, 818.363 813.834, 816.779 811.210 C 814.530 807.483, 811.595 807.410, 803.446 810.878 C 791.211 816.084, 781.473 817.306, 757 816.705 C 739.855 816.283, 733.778 815.752, 727 814.080 C 722.325 812.926, 717.600 811.551, 716.500 811.023 C 714.999 810.302, 703.818 806.004, 703.437 806.001 C 703.402 806, 702.122 807.307, 700.592 808.904 M 458.345 832.544 C 458.019 833.393, 458.013 835.755, 458.331 837.794 C 458.937 841.682, 464.496 847.654, 470.306 850.658 C 484.474 857.985, 525.066 865.020, 553 864.991 C 580.715 864.961, 622.230 857.979, 629.328 852.154 C 629.973 851.624, 631.555 851.036, 632.845 850.846 C 636.267 850.341, 639.750 840.225, 637.976 835.943 C 636.407 832.153, 634.619 832.236, 628.161 836.396 C 617.857 843.035, 596.089 846.761, 562.508 847.635 C 530.227 848.476, 507.047 846.852, 488 842.416 C 479.569 840.453, 477.072 839.519, 467.807 834.865 C 459.018 830.450, 459.137 830.479, 458.345 832.544 M 1203.500 846.067 C 1201.300 846.527, 1193.875 847.624, 1187 848.504 C 1172.934 850.304, 1160.428 853.227, 1155.087 855.963 C 1150.937 858.088, 1147.820 861.970, 1146.121 867.128 C 1144.594 871.763, 1144.562 888.295, 1146.062 898 C 1148.227 912.013, 1150.999 914.449, 1164.522 914.223 C 1179.662 913.970, 1214.932 909.419, 1225 906.418 C 1233.497 903.886, 1237.265 901.585, 1242.763 895.569 C 1249.330 888.383, 1251.477 882.229, 1250.690 872.844 C 1249.575 859.538, 1242.065 850.232, 1229.360 846.408 C 1224.303 844.886, 1210.042 844.698, 1203.500 846.067 M 1202.300 865.572 C 1184.218 867.763, 1166.612 870.959, 1165.279 872.293 C 1164.565 873.007, 1163.763 877.771, 1163.384 883.551 C 1162.744 893.322, 1162.792 893.646, 1165.300 896.536 C 1167.671 899.267, 1167.977 899.365, 1169.187 897.784 C 1170.195 896.467, 1173.169 895.827, 1182 895.026 C 1200.139 893.382, 1216.946 890.060, 1223.216 886.879 C 1227.582 884.664, 1232 878.641, 1232 874.903 C 1232 871.465, 1228.509 867.111, 1224.364 865.379 C 1220.447 863.742, 1217.162 863.771, 1202.300 865.572 M 993.462 951.061 C 993.102 951.643, 990.350 951.785, 986.678 951.411 C 972.303 949.946, 934.011 956.790, 912.979 964.583 C 909.392 965.913, 905.743 967, 904.869 967 C 903.996 967, 900.630 968.285, 897.390 969.856 C 894.151 971.427, 887.684 974.464, 883.021 976.606 C 870.140 982.521, 833.998 1007.973, 830.272 1013.752 C 827.268 1018.411, 822.520 1022.653, 819.445 1023.424 C 815.169 1024.498, 814.748 1025.028, 809.012 1036.570 C 806.012 1042.606, 802.736 1047.782, 801.332 1048.702 C 799.986 1049.584, 798.006 1051.924, 796.932 1053.903 C 795.858 1055.881, 794.600 1058.175, 794.136 1059 C 792.118 1062.590, 790.132 1067.740, 789.619 1070.712 C 789.315 1072.478, 787.476 1077.140, 785.533 1081.071 C 783.590 1085.003, 782 1089.211, 782 1090.423 C 782 1091.634, 780.636 1093.933, 778.968 1095.530 C 776.555 1097.843, 776.059 1098.991, 776.536 1101.162 C 776.865 1102.662, 776.442 1106.502, 775.596 1109.695 C 774.749 1112.888, 772.592 1123.150, 770.800 1132.500 C 767.647 1148.963, 767.543 1150.321, 767.535 1175.500 L 767.526 1201.500 771.252 1218.825 C 776.733 1244.305, 783.501 1263.887, 790.697 1275.087 C 803.826 1295.521, 812.011 1305.206, 811.994 1300.285 C 811.990 1299.303, 811.273 1297.150, 810.399 1295.500 C 805.339 1285.947, 801.413 1272.307, 799.030 1256 C 798.508 1252.425, 797.613 1247.076, 797.040 1244.114 C 795.496 1236.119, 795.781 1199.407, 797.519 1182.379 C 800.150 1156.596, 807.582 1130.297, 819.740 1103.740 C 822.290 1098.172, 822.483 1098, 825.574 1098.580 C 829.588 1099.333, 831.110 1097.373, 827.560 1096.023 C 824.468 1094.847, 824.313 1092.526, 827.059 1088.500 C 828.184 1086.850, 830.383 1083.025, 831.946 1080 C 833.509 1076.975, 837.140 1071.575, 840.014 1068 C 842.887 1064.425, 845.941 1060.042, 846.800 1058.260 C 847.658 1056.478, 849.149 1054.770, 850.112 1054.464 C 851.075 1054.159, 852.976 1052.017, 854.337 1049.704 C 857.499 1044.329, 860.838 1041.265, 864 1040.838 C 865.844 1040.589, 866.580 1039.812, 866.804 1037.880 C 867.117 1035.179, 876.584 1025.037, 887.460 1015.750 C 892.025 1011.853, 893.721 1011, 896.909 1011 C 900.625 1011, 900.788 1010.864, 900.647 1007.878 C 900.514 1005.047, 901.060 1004.445, 906.500 1001.425 C 909.800 999.593, 913.209 998.073, 914.076 998.047 C 914.942 998.021, 916.708 996.875, 918 995.500 C 920.629 992.701, 923 992.227, 923 994.500 C 923 995.548, 924.056 996, 926.500 996 C 930.257 996, 930.719 995.160, 928.750 991.907 C 927.639 990.071, 927.883 989.518, 930.949 986.932 C 934.885 983.611, 952.523 975.923, 968.587 970.525 C 980.538 966.509, 992.620 963.757, 1006.500 961.889 C 1011.450 961.223, 1018.425 960.155, 1022 959.515 L 1028.500 958.352 1025 956.763 C 1023.075 955.890, 1018.800 954.610, 1015.500 953.920 C 1012.200 953.229, 1009.050 952.351, 1008.500 951.969 C 1006.779 950.772, 994.113 950.008, 993.462 951.061 M 1029 978.733 C 1020.066 979.329, 1003.882 981.367, 998 982.636 C 994.425 983.407, 989.328 984.474, 986.674 985.008 C 977.977 986.755, 955.709 994.774, 945.215 999.938 C 939.558 1002.722, 934.540 1005, 934.064 1005 C 933.588 1005, 930.504 1007.025, 927.212 1009.500 C 923.274 1012.460, 920.218 1014, 918.279 1014 C 916.659 1014, 915.014 1014.319, 914.624 1014.709 C 914.234 1015.099, 912.196 1015.294, 910.095 1015.143 C 905.468 1014.809, 902.720 1017.037, 903.572 1020.433 C 904.058 1022.368, 903.672 1022.816, 901.073 1023.335 C 898.539 1023.842, 898 1024.431, 898 1026.692 C 898 1028.792, 896.184 1031.216, 890.250 1037.038 C 876.390 1050.636, 865.818 1062.819, 862.986 1068.457 C 862.169 1070.083, 859.138 1074.723, 856.250 1078.768 C 853.362 1082.812, 851 1086.389, 851 1086.716 C 851 1087.044, 849.875 1088.786, 848.500 1090.589 C 847.125 1092.392, 845.999 1094.234, 845.999 1094.683 C 845.998 1095.132, 844.198 1098.092, 841.999 1101.261 C 839.603 1104.712, 838 1108.170, 838 1109.888 C 838 1113.011, 835.639 1115.843, 834.530 1114.049 C 833.254 1111.983, 832.497 1113.080, 832.336 1117.230 C 832.170 1121.517, 831.007 1125.805, 825.892 1141 C 822.620 1150.720, 818.541 1169.660, 816.417 1185 C 813.551 1205.702, 815.156 1256.545, 818.975 1265.992 C 819.977 1268.471, 823.133 1276.800, 825.987 1284.500 C 828.842 1292.200, 833.012 1301.875, 835.254 1306 C 842.255 1318.883, 846 1326.346, 846 1327.414 C 846 1328.950, 857.226 1340, 858.786 1340 C 860.278 1340, 859.701 1336.964, 857.550 1333.500 C 856.228 1331.372, 852.472 1321.314, 848.398 1309 C 844.596 1297.505, 842.225 1287.393, 841.013 1277.500 C 840.406 1272.550, 839.481 1265.350, 838.958 1261.500 C 836.916 1246.488, 835.875 1230.197, 836.404 1221.549 C 837.599 1202.033, 838.839 1190.244, 840.302 1184.500 C 841.143 1181.200, 842.122 1176.475, 842.479 1174 C 843.289 1168.372, 849.533 1147.144, 854.415 1133.423 C 857.205 1125.580, 866.426 1107.246, 871.477 1099.500 C 873.270 1096.750, 875.761 1092.475, 877.012 1090 C 878.262 1087.525, 881.174 1083.250, 883.482 1080.500 C 885.789 1077.750, 889.057 1073.475, 890.744 1071 C 894.619 1065.313, 911.213 1048.256, 916.500 1044.524 C 918.700 1042.972, 920.950 1041.179, 921.500 1040.540 C 923.800 1037.868, 941.156 1025.891, 949.500 1021.217 C 966.400 1011.753, 987.259 1004.284, 1006 1000.986 C 1029.470 996.856, 1060.936 998.661, 1084.378 1005.482 C 1115.220 1014.457, 1137.110 1029.408, 1164.067 1059.911 C 1173.355 1070.422, 1174.138 1068.900, 1166.926 1054.351 C 1157.324 1034.980, 1141.828 1018.448, 1119.500 1003.754 C 1108.484 996.505, 1088.527 986.028, 1085.700 986.011 C 1084.711 986.005, 1082.622 985.339, 1081.060 984.531 C 1078.405 983.158, 1075.989 982.604, 1060.500 979.818 C 1054.919 978.814, 1037.026 978.198, 1029 978.733 M 1023 1018.155 C 1010.093 1019.631, 1001.747 1021.100, 994.500 1023.171 C 986.225 1025.536, 970.924 1030.953, 969.500 1032.022 C 968.950 1032.435, 964.675 1034.708, 960 1037.073 C 955.325 1039.439, 947.272 1044.552, 942.104 1048.437 C 936.936 1052.322, 931.279 1056.468, 929.532 1057.652 C 925.911 1060.106, 910.049 1076.141, 908.516 1078.900 C 907.957 1079.904, 905.853 1082.700, 903.841 1085.113 C 901.828 1087.526, 898.589 1091.427, 896.643 1093.782 C 894.697 1096.137, 891.256 1101.413, 888.996 1105.508 C 886.735 1109.602, 884.491 1113.197, 884.008 1113.495 C 882.762 1114.265, 878 1124.906, 878 1126.921 C 878 1127.844, 877.604 1129.027, 877.120 1129.550 C 875.210 1131.612, 867.762 1149.842, 866.518 1155.500 C 865.793 1158.800, 863.827 1166.675, 862.149 1173 C 860.472 1179.325, 858.369 1188.775, 857.476 1194 C 856.583 1199.225, 855.265 1206.875, 854.547 1211 C 853.757 1215.537, 853.588 1219.165, 854.120 1220.184 C 854.604 1221.111, 855 1226.575, 855 1232.328 C 855 1250.740, 859.538 1284.569, 863.841 1298.235 C 871.662 1323.072, 874.248 1330.273, 876.559 1333.652 C 878.007 1335.768, 880.692 1340.464, 882.526 1344.086 C 885.127 1349.225, 888.374 1353.072, 897.302 1361.598 C 908.205 1372.010, 913.365 1375.968, 914.524 1374.810 C 915.229 1374.104, 911.491 1365.499, 908.897 1361.855 C 902.108 1352.321, 889.014 1320.174, 886.146 1306 C 882.390 1287.436, 880.377 1266.252, 880.635 1248 C 880.771 1238.371, 884.050 1215.481, 886.939 1204 C 890.752 1188.843, 902.482 1159.390, 908.504 1149.849 C 910.361 1146.907, 912.832 1142.781, 913.996 1140.680 C 918.127 1133.222, 928.333 1120.368, 937.563 1111 C 953.844 1094.474, 963.488 1086.355, 976.093 1078.560 C 981.267 1075.361, 986.677 1071.932, 988.116 1070.941 C 989.555 1069.949, 993.605 1067.935, 997.116 1066.465 C 1000.627 1064.994, 1003.950 1063.445, 1004.500 1063.022 C 1005.807 1062.017, 1023.951 1055.585, 1031 1053.629 C 1060.148 1045.539, 1094.561 1045.104, 1121 1052.489 C 1134.170 1056.168, 1135.980 1055.523, 1128.750 1049.727 C 1110.803 1035.342, 1090.339 1026.300, 1063 1020.676 C 1049.516 1017.903, 1033.843 1016.915, 1023 1018.155 M 550 1050 C 550 1050.550, 550.477 1051, 551.059 1051 C 551.641 1051, 551.840 1050.550, 551.500 1050 C 551.160 1049.450, 550.684 1049, 550.441 1049 C 550.198 1049, 550 1049.450, 550 1050 M 1072 1065.750 C 1051.151 1067.173, 1025.409 1074.539, 999.223 1086.575 C 996.320 1087.909, 993.556 1089, 993.080 1089 C 992.604 1089, 991.968 1089.642, 991.666 1090.427 C 991.365 1091.212, 989.157 1092.722, 986.759 1093.783 C 984.360 1094.843, 980.846 1097.025, 978.949 1098.632 C 977.052 1100.238, 974.314 1102.151, 972.864 1102.884 C 971.414 1103.617, 969.164 1105.339, 967.864 1106.710 C 966.564 1108.082, 963.718 1110.846, 961.539 1112.852 C 959.361 1114.858, 954.636 1119.529, 951.039 1123.231 C 945.998 1128.421, 944.026 1129.836, 942.430 1129.412 C 941.188 1129.081, 939.829 1129.501, 939.032 1130.462 C 937.916 1131.807, 937.957 1132.257, 939.293 1133.281 C 940.701 1134.361, 940.346 1135.319, 936.191 1141.664 C 920.055 1166.304, 911.834 1184.757, 904.634 1212.500 C 901.311 1225.304, 900.086 1234.865, 899.379 1253.500 C 898.906 1265.967, 899.168 1270.695, 900.932 1281.500 C 907.388 1321.042, 919.816 1349.667, 941.912 1375.884 C 956.648 1393.368, 971.883 1407, 976.688 1407 C 978.751 1407, 993.227 1402.026, 996.905 1400.053 C 1000.804 1397.963, 1031.437 1388.391, 1047 1384.402 C 1061.294 1380.737, 1062.056 1380.069, 1052 1380.017 C 1041.120 1379.962, 1025.111 1376.743, 1023.029 1374.192 C 1022.188 1373.162, 1020.133 1371.782, 1018.462 1371.126 C 1016.632 1370.407, 1014.059 1367.859, 1011.990 1364.717 C 1009.606 1361.095, 1008.451 1360.019, 1008.214 1361.198 C 1008.027 1362.131, 1008.371 1363.825, 1008.980 1364.962 C 1010.519 1367.838, 1007.568 1368.889, 1004.093 1366.703 C 1002.667 1365.806, 999.147 1363.960, 996.272 1362.601 C 990.017 1359.644, 974.224 1344.722, 966.556 1334.525 C 956 1320.486, 947.189 1298.793, 943.529 1277.832 C 941.656 1267.100, 942.045 1238.362, 944.231 1226 C 948.293 1203.033, 963.383 1172.615, 978.337 1157.251 C 981.682 1153.814, 984.794 1150.332, 985.252 1149.514 C 986.134 1147.939, 1001.413 1136, 1002.547 1136 C 1002.912 1136, 1004.548 1134.875, 1006.182 1133.500 C 1007.816 1132.125, 1010.224 1131, 1011.532 1131 C 1012.841 1131, 1015.569 1129.875, 1017.595 1128.500 C 1019.621 1127.125, 1021.891 1126, 1022.640 1126 C 1023.388 1126, 1024 1125.630, 1024 1125.177 C 1024 1123.909, 1031.926 1120.253, 1037.500 1118.949 C 1040.250 1118.306, 1044.776 1117.140, 1047.559 1116.357 C 1054.476 1114.411, 1079.914 1114.382, 1087.139 1116.311 C 1090.088 1117.099, 1094.805 1118.278, 1097.622 1118.931 C 1104.310 1120.483, 1112.699 1123.929, 1116.654 1126.750 C 1118.389 1127.987, 1120.503 1129, 1121.351 1129 C 1122.200 1129, 1125.742 1131.138, 1129.223 1133.750 C 1132.704 1136.362, 1137.497 1139.829, 1139.875 1141.454 C 1145.041 1144.985, 1155.050 1155.709, 1158.805 1161.735 C 1160.287 1164.114, 1162.955 1168.036, 1164.734 1170.450 C 1175.184 1184.630, 1183.961 1215.848, 1184.007 1239 C 1184.027 1249.018, 1180.807 1272.395, 1178.359 1280 C 1177.562 1282.475, 1176.070 1287.200, 1175.044 1290.500 C 1174.017 1293.800, 1170.834 1300.775, 1167.970 1306 C 1165.106 1311.225, 1162.029 1316.897, 1161.131 1318.605 C 1158.648 1323.332, 1154.457 1328.276, 1143.500 1339.408 C 1133.255 1349.817, 1126.040 1356, 1124.141 1356 C 1123.552 1356, 1121.591 1357.288, 1119.785 1358.861 C 1117.978 1360.435, 1114.925 1362.523, 1113 1363.502 C 1111.075 1364.481, 1107.700 1366.498, 1105.500 1367.986 C 1103.300 1369.474, 1099.362 1371.497, 1096.750 1372.481 C 1091.969 1374.283, 1090.941 1375.391, 1093.250 1376.252 C 1095.048 1376.922, 1109.096 1376.424, 1111.695 1375.598 C 1115.428 1374.411, 1145.945 1376.848, 1148.337 1378.523 C 1149.496 1379.336, 1152.280 1380, 1154.523 1380 C 1156.765 1380, 1159.030 1380.430, 1159.555 1380.955 C 1160.080 1381.480, 1168.352 1382.043, 1177.938 1382.205 L 1195.366 1382.500 1202.527 1372 C 1213.994 1355.185, 1226.374 1331.460, 1231.227 1317 C 1238.271 1296.009, 1239.998 1285.163, 1240.713 1257.431 C 1241.620 1222.252, 1239.309 1205.980, 1229.003 1175 C 1224.482 1161.409, 1219.855 1150.955, 1217.496 1148.997 C 1216.673 1148.314, 1216 1147.257, 1216 1146.647 C 1216 1144.744, 1208.845 1133.729, 1204.260 1128.574 C 1201.850 1125.865, 1198.789 1121.790, 1197.458 1119.519 C 1196.128 1117.249, 1193.357 1114.065, 1191.302 1112.445 C 1189.247 1110.825, 1186.876 1108.686, 1186.033 1107.690 C 1181.549 1102.397, 1164.499 1088.005, 1162.695 1087.990 C 1162.038 1087.985, 1159.557 1086.436, 1157.182 1084.548 C 1154.697 1082.572, 1152.227 1081.359, 1151.364 1081.690 C 1150.540 1082.007, 1148.883 1081.765, 1147.683 1081.152 C 1144.370 1079.462, 1129.466 1074.097, 1120.701 1071.440 C 1106.343 1067.088, 1086.451 1064.764, 1072 1065.750 M 467 1103 C 467 1103.550, 467.450 1104, 468 1104 C 468.550 1104, 469 1103.550, 469 1103 C 469 1102.450, 468.550 1102, 468 1102 C 467.450 1102, 467 1102.450, 467 1103 M 1060 1133.656 C 1051.523 1134.371, 1032.691 1140.336, 1022.481 1145.540 C 1013.712 1150.009, 1010.873 1152.184, 999.747 1162.958 C 989.004 1173.360, 986.055 1176.914, 980.721 1185.884 C 970.585 1202.934, 966.273 1213.314, 963.334 1227.745 C 957.169 1258.018, 962.703 1292.969, 977.309 1316 C 982.917 1324.843, 991.648 1335.491, 998.128 1341.392 C 1003.466 1346.252, 1013.129 1353, 1014.752 1353 C 1015.218 1353, 1016.150 1353.550, 1016.822 1354.222 C 1018 1355.400, 1024.410 1357.499, 1036 1360.503 C 1053.716 1365.095, 1083.608 1359.703, 1103.088 1348.402 C 1107.261 1345.981, 1111.112 1344, 1111.644 1344 C 1113.247 1344, 1139.346 1317.760, 1141.488 1313.995 C 1142.582 1312.073, 1144.722 1308.475, 1146.245 1306 C 1157.543 1287.641, 1165.011 1261.078, 1164.991 1239.328 C 1164.980 1228.390, 1162.529 1214.686, 1158.493 1203 C 1157.068 1198.875, 1155.431 1193.958, 1154.856 1192.074 C 1152.408 1184.063, 1139.230 1166.030, 1129.841 1157.843 C 1108.988 1139.661, 1085.454 1131.511, 1060 1133.656 M 628.729 1283.604 C 628.328 1284.005, 628 1285.023, 628 1285.867 C 628 1286.992, 628.296 1287.104, 629.112 1286.287 C 629.724 1285.676, 630.053 1284.658, 629.842 1284.025 C 629.631 1283.392, 629.130 1283.203, 628.729 1283.604 M 1582 1315.065 C 1579.525 1315.526, 1568.950 1316.612, 1558.500 1317.477 C 1548.050 1318.342, 1537.475 1319.221, 1535 1319.430 C 1530.312 1319.826, 1521.407 1321.695, 1512 1324.256 C 1503.744 1326.503, 1491.266 1329.173, 1487.148 1329.572 C 1485.142 1329.767, 1480.865 1330.361, 1477.644 1330.891 C 1474.424 1331.422, 1471.258 1331.652, 1470.609 1331.403 C 1469.942 1331.147, 1469.356 1331.930, 1469.259 1333.206 C 1469.044 1336.071, 1466.224 1338.163, 1463 1337.852 C 1461.589 1337.715, 1458.539 1338.882, 1456 1340.530 C 1445.920 1347.071, 1438.955 1348.579, 1433.014 1345.507 C 1428.754 1343.304, 1426.680 1344.479, 1427.463 1348.653 C 1427.932 1351.156, 1427.708 1352.175, 1426.592 1352.603 C 1425.766 1352.920, 1423.418 1354.756, 1421.375 1356.683 C 1417.352 1360.477, 1416.282 1361.246, 1401.420 1371.032 C 1391.828 1377.347, 1378.389 1384.111, 1372.495 1385.591 C 1370.922 1385.986, 1368.077 1387.366, 1366.173 1388.657 C 1364.270 1389.949, 1360.864 1391.500, 1358.606 1392.103 C 1356.348 1392.707, 1352.557 1394.102, 1350.181 1395.205 C 1344.852 1397.678, 1314.232 1405.438, 1300.584 1407.774 C 1286.736 1410.144, 1247.065 1410.023, 1230.232 1407.558 C 1215.073 1405.339, 1193.739 1401.301, 1188 1399.565 C 1185.525 1398.816, 1180.125 1397.454, 1176 1396.539 C 1171.875 1395.624, 1166.897 1394.266, 1164.938 1393.521 C 1162.979 1392.776, 1159.307 1392.167, 1156.778 1392.167 C 1154.249 1392.167, 1151.352 1391.773, 1150.340 1391.292 C 1146.505 1389.469, 1097.879 1391.489, 1076.500 1394.360 C 1065.126 1395.888, 1029.780 1404.469, 1026.603 1406.474 C 1025.446 1407.204, 1022.058 1408.308, 1019.074 1408.928 C 1016.090 1409.547, 1012.265 1410.898, 1010.574 1411.930 C 1008.883 1412.962, 1003.474 1415.218, 998.552 1416.945 C 993.631 1418.671, 989.131 1420.455, 988.552 1420.910 C 987.974 1421.364, 983.900 1423.093, 979.500 1424.752 C 963.274 1430.869, 938.898 1441.159, 925.500 1447.548 C 920.422 1449.969, 908.897 1454, 907.052 1454 C 906.496 1454, 903.782 1455.709, 901.022 1457.799 C 898.261 1459.888, 894.315 1462.192, 892.252 1462.919 C 887.798 1464.488, 879.018 1470.902, 873.668 1476.494 L 869.835 1480.500 870.325 1492 C 870.719 1501.282, 871.313 1504.739, 873.400 1509.923 C 876.081 1516.580, 881.769 1523, 884.985 1523 C 888.159 1523, 902.069 1530.067, 906.147 1533.752 C 914.719 1541.496, 920.001 1552.563, 927.603 1578.706 C 930.129 1587.393, 932.785 1596.525, 933.505 1599 C 936.421 1609.020, 941.017 1618.472, 955.393 1644.021 C 958.829 1650.126, 968.603 1662.395, 976.848 1670.950 C 979.789 1674.003, 984.028 1678.892, 986.268 1681.817 C 988.510 1684.742, 992.175 1688.067, 994.420 1689.209 C 996.664 1690.351, 1000.368 1692.908, 1002.651 1694.893 C 1006.753 1698.458, 1017.960 1704.574, 1029.390 1709.483 C 1037.991 1713.179, 1052.337 1716.751, 1061.500 1717.480 C 1065.900 1717.830, 1071.672 1718.813, 1074.328 1719.664 C 1078.713 1721.071, 1079.541 1721.065, 1083.361 1719.606 C 1085.674 1718.723, 1088.992 1718, 1090.735 1718 C 1094.210 1718, 1100.039 1716.559, 1113 1712.495 C 1117.675 1711.029, 1124.294 1709.055, 1127.709 1708.107 C 1131.124 1707.160, 1134.724 1705.686, 1135.709 1704.832 C 1136.694 1703.979, 1140.072 1701.891, 1143.216 1700.193 C 1154.098 1694.315, 1160.544 1689.713, 1170.500 1680.717 C 1184.222 1668.318, 1200 1652.221, 1200 1650.621 C 1200 1649.895, 1201.448 1647.320, 1203.218 1644.900 C 1208.675 1637.439, 1215.867 1626.196, 1218.476 1621.048 C 1219.843 1618.349, 1221.385 1615.880, 1221.902 1615.560 C 1223.571 1614.529, 1232.156 1595.791, 1235.211 1586.511 C 1236.843 1581.555, 1238.526 1577.050, 1238.951 1576.500 C 1239.694 1575.539, 1240.924 1571.529, 1241.665 1567.650 C 1242.362 1563.996, 1245.866 1554.376, 1248.905 1547.772 C 1250.607 1544.072, 1252 1539.603, 1252 1537.843 C 1252 1534.741, 1252.810 1531.603, 1255.643 1523.730 C 1256.389 1521.656, 1257 1518.480, 1257 1516.671 C 1257 1514.862, 1257.661 1512.509, 1258.468 1511.441 C 1259.276 1510.374, 1259.977 1508.150, 1260.026 1506.500 C 1260.152 1502.253, 1263.421 1490.179, 1264.824 1488.776 C 1265.471 1488.129, 1266 1486.170, 1266 1484.422 C 1266 1482.675, 1266.675 1480.685, 1267.500 1480 C 1268.325 1479.315, 1269 1477.755, 1269 1476.533 C 1269 1475.310, 1269.900 1473.495, 1271 1472.500 C 1272.100 1471.505, 1273 1469.510, 1273 1468.068 C 1273 1466.606, 1274.217 1464.109, 1275.750 1462.426 C 1277.263 1460.764, 1281.425 1455.917, 1285 1451.654 C 1291.506 1443.895, 1297.039 1439.601, 1304.455 1436.555 C 1309.043 1434.671, 1323.008 1434.292, 1327.330 1435.935 C 1328.870 1436.521, 1331.510 1437, 1333.196 1437 C 1338.347 1437, 1351.441 1444.743, 1358.583 1452.013 C 1367.336 1460.921, 1368.735 1463.166, 1380.618 1487.389 C 1386.314 1499, 1391.639 1509.625, 1392.452 1511 C 1393.265 1512.375, 1396.924 1518.900, 1400.584 1525.500 C 1408.648 1540.046, 1424.489 1563.907, 1429.989 1569.793 C 1432.195 1572.155, 1434 1574.487, 1434 1574.976 C 1434 1576.688, 1446.832 1588.869, 1453.137 1593.144 C 1456.637 1595.517, 1460.620 1598.480, 1461.990 1599.729 C 1463.359 1600.978, 1464.817 1602, 1465.229 1602 C 1465.641 1602, 1468.463 1604.250, 1471.500 1607 C 1474.537 1609.750, 1477.636 1612, 1478.388 1612 C 1479.140 1612, 1480.269 1612.619, 1480.897 1613.375 C 1481.524 1614.132, 1484.167 1615.328, 1486.769 1616.034 C 1489.371 1616.739, 1493.544 1618.331, 1496.043 1619.570 C 1508.426 1625.713, 1539.201 1630.867, 1555.912 1629.596 C 1568.921 1628.606, 1590.915 1622.892, 1595 1619.440 C 1595.825 1618.743, 1600.099 1616.347, 1604.498 1614.116 C 1618.871 1606.826, 1641.226 1585.853, 1652.588 1569 C 1660.726 1556.929, 1671.336 1538.203, 1673.974 1531.256 C 1674.967 1528.640, 1677.149 1523.125, 1678.823 1519 C 1681.980 1511.223, 1689.160 1488.492, 1690.668 1481.500 C 1691.363 1478.279, 1691.918 1477.565, 1693.516 1477.832 C 1699.239 1478.789, 1700.424 1478.496, 1701.355 1475.890 C 1701.868 1474.455, 1701.989 1472.093, 1701.625 1470.640 C 1701.105 1468.569, 1700.355 1468, 1698.148 1468 C 1694.644 1468, 1693.812 1467.220, 1694.982 1465.033 C 1695.927 1463.267, 1698.648 1441.558, 1699.999 1425 C 1701.005 1412.673, 1701.843 1407.720, 1704.059 1401 C 1708.233 1388.343, 1711.758 1382.964, 1717.435 1380.592 C 1720.727 1379.216, 1722.698 1375.499, 1724.905 1366.500 C 1725.445 1364.300, 1726.301 1360.873, 1726.808 1358.884 C 1727.358 1356.725, 1727.365 1354.617, 1726.826 1353.654 C 1726.284 1352.685, 1726.330 1348.139, 1726.942 1342.271 C 1728.193 1330.266, 1727.093 1327.903, 1719.764 1326.850 C 1717.278 1326.493, 1714.401 1325.762, 1713.372 1325.226 C 1712.342 1324.689, 1706.100 1323.709, 1699.500 1323.046 C 1692.900 1322.384, 1686.150 1321.437, 1684.500 1320.942 C 1682.850 1320.447, 1679.025 1319.784, 1676 1319.469 C 1672.975 1319.153, 1663.075 1318.029, 1654 1316.969 C 1644.925 1315.910, 1636.600 1315.071, 1635.500 1315.105 C 1634.400 1315.139, 1622.925 1314.955, 1610 1314.697 C 1597.075 1314.438, 1584.475 1314.604, 1582 1315.065 M 1456 1326 C 1456 1326.550, 1456.450 1327, 1457 1327 C 1457.550 1327, 1458 1326.550, 1458 1326 C 1458 1325.450, 1457.550 1325, 1457 1325 C 1456.450 1325, 1456 1325.450, 1456 1326 M 1322 1334.124 C 1313.437 1338.082, 1305.343 1340.848, 1297.716 1342.424 C 1283.347 1345.392, 1261.518 1348.135, 1250.494 1348.358 C 1244.441 1348.480, 1238.883 1348.955, 1238.142 1349.412 C 1237.402 1349.870, 1235.044 1354.054, 1232.903 1358.712 C 1227.906 1369.579, 1218.472 1384.064, 1215.964 1384.720 C 1214.102 1385.207, 1214.115 1385.301, 1216.260 1386.955 C 1224.105 1393.004, 1254.420 1393.384, 1291 1387.893 C 1312.380 1384.684, 1322.019 1379.212, 1327.800 1367 C 1330.162 1362.010, 1330.401 1360.386, 1330.374 1349.500 C 1330.358 1342.900, 1330.077 1336.600, 1329.749 1335.500 C 1329.421 1334.400, 1329.119 1333.162, 1329.077 1332.750 C 1328.949 1331.504, 1326.739 1331.934, 1322 1334.124 M 1688.500 1339.713 C 1685.774 1340.369, 1681.392 1344.640, 1680.002 1347.996 C 1678.524 1351.564, 1680.092 1357.729, 1683.381 1361.277 C 1684.692 1362.692, 1687.624 1364.406, 1689.895 1365.087 C 1693.683 1366.222, 1694.217 1366.145, 1696.327 1364.162 C 1697.892 1362.692, 1699.905 1362, 1702.618 1362 C 1707.824 1362, 1713 1357.102, 1713 1352.176 C 1713 1347.137, 1705.901 1340.532, 1699.548 1339.662 C 1694.335 1338.947, 1691.631 1338.960, 1688.500 1339.713 M 1568.891 1340.917 C 1562.506 1341.327, 1553.281 1342.608, 1548.391 1343.766 C 1543.501 1344.923, 1533.650 1346.828, 1526.500 1347.999 C 1519.350 1349.170, 1510.234 1351.224, 1506.241 1352.564 C 1502.249 1353.904, 1498.331 1355, 1497.536 1355 C 1496.740 1355, 1490.375 1356.851, 1483.392 1359.113 C 1475.007 1361.829, 1469.944 1364.036, 1468.483 1365.613 C 1467.266 1366.926, 1465.829 1368, 1465.288 1368 C 1463.958 1368, 1460 1371.503, 1460 1372.679 C 1460 1373.199, 1458.581 1374.673, 1456.846 1375.956 C 1454.287 1377.848, 1453.345 1378.072, 1451.859 1377.144 C 1449.361 1375.584, 1446.488 1375.707, 1445.053 1377.436 C 1444.398 1378.225, 1442.606 1379.147, 1441.072 1379.484 C 1436.129 1380.570, 1414.473 1395.934, 1413.481 1399.059 C 1412.784 1401.255, 1409.485 1404.741, 1404.727 1408.308 C 1400.207 1411.696, 1397.430 1416.830, 1396.496 1423.523 C 1396.114 1426.261, 1395.145 1430.843, 1394.342 1433.707 C 1393.191 1437.817, 1393.134 1439.382, 1394.073 1441.136 C 1395.042 1442.948, 1394.936 1443.963, 1393.498 1446.634 C 1391.623 1450.115, 1391.553 1449.522, 1395.390 1462.500 C 1396.203 1465.250, 1397.548 1470.015, 1398.380 1473.089 C 1400.819 1482.111, 1421.497 1523.043, 1431.171 1538 C 1435.834 1545.210, 1460.548 1571.820, 1467.623 1577.249 C 1470.669 1579.587, 1475.006 1582.912, 1477.260 1584.637 C 1481.027 1587.521, 1488.224 1591.472, 1497 1595.475 C 1498.925 1596.353, 1502.656 1598.184, 1505.290 1599.545 C 1507.925 1600.905, 1513.264 1602.470, 1517.156 1603.022 C 1521.048 1603.574, 1524.596 1604.250, 1525.039 1604.524 C 1526.502 1605.428, 1535.789 1606.923, 1546.728 1608.016 C 1558.754 1609.217, 1561.571 1608.657, 1580.458 1601.307 C 1588.811 1598.056, 1607.430 1587.920, 1608.171 1586.220 C 1608.352 1585.804, 1609.850 1584.433, 1611.500 1583.174 C 1617.642 1578.487, 1624.177 1571.512, 1625.586 1568.140 C 1626.386 1566.226, 1627.931 1564.036, 1629.020 1563.273 C 1630.109 1562.511, 1631 1561.307, 1631 1560.598 C 1631 1559.890, 1631.896 1558.499, 1632.991 1557.508 C 1634.086 1556.517, 1636.170 1553.635, 1637.621 1551.103 C 1639.073 1548.571, 1641.467 1545.150, 1642.942 1543.500 C 1652.758 1532.520, 1668.544 1498.635, 1670.528 1484.289 C 1670.892 1481.655, 1671.855 1477.250, 1672.667 1474.500 C 1674.071 1469.748, 1675.084 1464.795, 1678.397 1446.500 C 1680.794 1433.262, 1682.020 1419.249, 1682.010 1405.201 L 1682 1391.903 1678.010 1385.896 C 1673.237 1378.710, 1663.969 1368, 1662.523 1368 C 1661.956 1368, 1658.118 1364.722, 1653.996 1360.716 C 1647.270 1354.181, 1645.496 1353.049, 1636.726 1349.703 C 1627.475 1346.173, 1626.795 1346.054, 1624.026 1347.487 C 1619.754 1349.695, 1618.021 1349.360, 1616.886 1346.103 C 1616.072 1343.767, 1614.969 1342.976, 1611.188 1342.017 C 1605.231 1340.506, 1583.943 1339.952, 1568.891 1340.917 M 1436.469 1344.050 C 1435.519 1345.588, 1436.820 1346.580, 1438.104 1345.296 C 1438.822 1344.578, 1438.839 1344.019, 1438.156 1343.597 C 1437.596 1343.251, 1436.837 1343.455, 1436.469 1344.050 M 1505.476 1372.396 C 1503.443 1375.499, 1504.245 1377, 1507.937 1377 C 1513.328 1377, 1515.030 1370.795, 1509.804 1370.190 C 1507.841 1369.962, 1506.685 1370.552, 1505.476 1372.396 M 387.250 1377.662 C 385.813 1378.242, 385.539 1381, 386.918 1381 C 388.970 1381, 391 1379.703, 391 1378.393 C 391 1376.996, 389.585 1376.720, 387.250 1377.662 M 898 1394.380 C 895.216 1395.919, 875.632 1399, 868.627 1399 C 866.147 1399, 863.840 1399.450, 863.500 1400 C 863.160 1400.550, 861.221 1400.997, 859.191 1400.993 C 854.573 1400.985, 838.095 1403.866, 835.764 1405.089 C 834.809 1405.590, 831.350 1406, 828.079 1406 C 824.807 1406, 820.994 1406.432, 819.606 1406.960 C 818.218 1407.487, 810.651 1408.830, 802.791 1409.944 C 794.931 1411.057, 784.675 1412.681, 780 1413.551 C 775.325 1414.422, 766.100 1415.741, 759.500 1416.484 C 752.900 1417.227, 743.450 1418.556, 738.500 1419.438 C 733.550 1420.320, 723.875 1421.711, 717 1422.529 C 710.125 1423.347, 702.017 1424.452, 698.981 1424.986 C 695.946 1425.519, 686.721 1426.852, 678.481 1427.948 C 662.399 1430.086, 631.612 1434.363, 621 1435.932 C 617.425 1436.460, 610.675 1437.169, 606 1437.507 C 601.325 1437.845, 595.925 1438.530, 594 1439.030 C 589.887 1440.098, 570.368 1441.721, 546.500 1442.979 C 530.275 1443.834, 521.965 1443.528, 493 1441.007 C 483.208 1440.155, 458.675 1434.929, 454.764 1432.862 C 452.707 1431.775, 445.842 1430.283, 437.434 1429.096 C 431.414 1428.246, 417.168 1422.112, 414.919 1419.402 C 414.293 1418.648, 411.867 1417.075, 409.528 1415.907 C 405.996 1414.143, 404.896 1413.985, 403.041 1414.978 C 400.872 1416.139, 400.819 1416.553, 401.183 1429.337 C 401.498 1440.394, 401.900 1443.140, 403.692 1446.500 C 413.330 1464.569, 438.533 1476.933, 479.800 1483.837 C 485.923 1484.861, 491.580 1486.236, 492.371 1486.893 C 493.162 1487.549, 494.864 1487.836, 496.154 1487.531 C 497.444 1487.225, 513.575 1486.791, 532 1486.566 C 564.594 1486.167, 570.998 1485.708, 603.500 1481.447 C 609.550 1480.654, 621.925 1479.105, 631 1478.005 C 640.075 1476.905, 654.475 1475.079, 663 1473.947 C 671.525 1472.815, 683.900 1471.272, 690.500 1470.518 C 704.698 1468.896, 744.318 1463.728, 758.500 1461.647 C 764 1460.841, 771.650 1459.883, 775.500 1459.521 C 779.350 1459.158, 789.925 1457.795, 799 1456.493 C 814.150 1454.319, 822.748 1453.137, 868 1447.012 C 876.525 1445.857, 884.625 1444.894, 886 1444.872 C 889.189 1444.818, 899.035 1441.929, 901 1440.470 C 903.585 1438.551, 914.656 1434, 916.740 1434 C 917.835 1434, 919.803 1433.164, 921.115 1432.142 C 922.427 1431.121, 925.300 1429.708, 927.500 1429.003 C 935.426 1426.463, 936.865 1425.795, 937.397 1424.408 C 937.694 1423.634, 938.614 1423, 939.441 1423 C 941.309 1423, 952 1418.001, 952 1417.128 C 952 1416.777, 949.188 1415.417, 945.750 1414.105 C 937.617 1411.002, 929.198 1405.962, 928.454 1403.750 C 928.130 1402.787, 926.974 1402, 925.886 1402 C 924.797 1402, 920.664 1400.234, 916.703 1398.076 C 908.501 1393.608, 901.792 1392.282, 898 1394.380 M 1666 1395 C 1666 1395.550, 1666.675 1396, 1667.500 1396 C 1668.325 1396, 1669 1395.550, 1669 1395 C 1669 1394.450, 1668.325 1394, 1667.500 1394 C 1666.675 1394, 1666 1394.450, 1666 1395 M 1669.250 1398.584 C 1665.344 1401.662, 1665.013 1404, 1668.484 1404 C 1671.482 1404, 1677.627 1398.823, 1676.601 1397.163 C 1675.451 1395.303, 1672.749 1395.826, 1669.250 1398.584 M 1653.765 1398.569 C 1653.452 1398.881, 1653.401 1400.440, 1653.652 1402.033 C 1653.903 1403.625, 1653.593 1405.893, 1652.962 1407.071 C 1651.543 1409.723, 1652.962 1411.464, 1655.807 1410.561 C 1658.645 1409.661, 1659.149 1407.586, 1657.777 1402.458 C 1656.695 1398.411, 1655.287 1397.046, 1653.765 1398.569 M 1424.106 1409.643 C 1420.748 1412.746, 1418 1415.634, 1418 1416.061 C 1418 1417.430, 1424.999 1421.214, 1426.480 1420.646 C 1428.769 1419.768, 1432.233 1412.042, 1431.766 1408.858 C 1431.535 1407.286, 1431.745 1406, 1432.232 1406 C 1432.719 1406, 1432.840 1405.550, 1432.500 1405 C 1431.429 1403.268, 1430.370 1403.854, 1424.106 1409.643 M 1648.546 1415.855 C 1648.222 1416.875, 1648.371 1418.788, 1648.876 1420.105 L 1649.794 1422.500 1650.897 1419.685 C 1651.504 1418.137, 1652 1416.224, 1652 1415.435 C 1652 1413.342, 1649.237 1413.678, 1648.546 1415.855 M 1109 1416.026 C 1105.425 1416.434, 1099.800 1417.066, 1096.500 1417.431 C 1082.507 1418.978, 1070.297 1420.822, 1067.500 1421.813 C 1065.850 1422.397, 1061.350 1423.401, 1057.500 1424.044 C 1047.542 1425.706, 1011.550 1437.735, 1008 1440.588 C 1006.418 1441.858, 1004.577 1442.829, 990.350 1449.895 C 985.482 1452.313, 979.700 1455.497, 977.500 1456.971 C 975.300 1458.445, 971.864 1460.742, 969.865 1462.076 C 965.101 1465.254, 958.189 1473.676, 957.091 1477.644 C 956.612 1479.373, 954.443 1483.198, 952.272 1486.144 C 946.855 1493.493, 946.352 1494.641, 945.545 1501.500 C 945.156 1504.800, 944.176 1508.534, 943.366 1509.797 C 940.203 1514.727, 939.613 1535, 942.632 1535 C 944.269 1535, 944.442 1536.609, 942.906 1537.558 C 942.230 1537.976, 942.045 1539.814, 942.421 1542.367 C 942.756 1544.640, 943.258 1549.650, 943.536 1553.500 C 943.814 1557.350, 944.445 1561.850, 944.937 1563.500 C 945.429 1565.150, 946.126 1568.300, 946.487 1570.500 C 948.519 1582.908, 958.299 1606.989, 966.749 1620.391 C 968.174 1622.651, 970.453 1626.300, 971.815 1628.500 C 980.570 1642.645, 995.784 1661.473, 1002.727 1666.754 C 1004.713 1668.264, 1008.446 1671.412, 1011.023 1673.750 C 1013.599 1676.088, 1016.046 1678, 1016.460 1678 C 1016.874 1678, 1018.852 1679.290, 1020.856 1680.868 C 1036.245 1692.978, 1069.820 1700.085, 1094.500 1696.458 C 1104.726 1694.954, 1122.329 1689.714, 1124.089 1687.649 C 1124.627 1687.017, 1125.651 1685.656, 1126.363 1684.623 C 1127.423 1683.088, 1128.037 1682.950, 1129.744 1683.863 C 1131.499 1684.802, 1132.653 1684.425, 1137.015 1681.490 C 1139.867 1679.570, 1142.576 1678, 1143.035 1678 C 1146.576 1678, 1178.062 1648.536, 1180.971 1642.500 C 1181.766 1640.850, 1184.742 1635.900, 1187.583 1631.500 C 1194.489 1620.804, 1201 1608.084, 1201 1605.287 C 1201 1604.834, 1202.190 1602.713, 1203.645 1600.572 C 1206.591 1596.236, 1209.341 1589.547, 1211.931 1580.414 C 1212.880 1577.066, 1214.409 1573.254, 1215.329 1571.941 C 1216.248 1570.629, 1217 1568.342, 1217 1566.860 C 1217 1565.377, 1218.087 1561.990, 1219.417 1559.332 C 1220.746 1556.674, 1222.164 1552.700, 1222.568 1550.500 C 1222.972 1548.300, 1224.339 1543.445, 1225.605 1539.711 C 1226.871 1535.977, 1227.669 1532.300, 1227.377 1531.539 C 1227.085 1530.779, 1227.343 1529.228, 1227.951 1528.092 C 1228.558 1526.957, 1229.461 1524.110, 1229.957 1521.764 C 1230.453 1519.419, 1231.493 1514.575, 1232.269 1511 C 1233.044 1507.425, 1233.695 1503.600, 1233.715 1502.500 C 1233.736 1501.400, 1234.314 1497.125, 1235 1493 C 1235.686 1488.875, 1236.213 1484.600, 1236.169 1483.500 C 1236.126 1482.400, 1236.076 1478.676, 1236.058 1475.225 C 1236.040 1471.773, 1235.383 1467.708, 1234.598 1466.190 C 1233.814 1464.673, 1232.842 1461.672, 1232.438 1459.523 C 1231.400 1453.986, 1228.465 1449.267, 1222.476 1443.500 C 1214.499 1435.820, 1209.740 1432.322, 1206.217 1431.548 C 1204.448 1431.159, 1203 1430.510, 1203 1430.106 C 1203 1427.435, 1177.931 1419.423, 1165.187 1418.021 C 1159.631 1417.409, 1152.478 1416.482, 1149.292 1415.960 C 1142.691 1414.879, 1118.705 1414.918, 1109 1416.026 M 1404.526 1419.950 C 1402.283 1424.287, 1402.624 1425.549, 1406.345 1426.691 C 1408.898 1427.475, 1410.334 1427.381, 1412.406 1426.295 C 1415.911 1424.459, 1415.478 1421.614, 1411.628 1421.173 C 1409.825 1420.966, 1408.587 1420.136, 1408.270 1418.923 C 1407.555 1416.191, 1406.290 1416.539, 1404.526 1419.950 M 1582.543 1420.931 C 1582.226 1421.443, 1582.425 1422.144, 1582.984 1422.490 C 1584.177 1423.227, 1586 1422.291, 1586 1420.941 C 1586 1419.724, 1583.293 1419.716, 1582.543 1420.931 M 1646 1428 C 1646 1428.550, 1646.450 1429, 1647 1429 C 1647.550 1429, 1648 1428.550, 1648 1428 C 1648 1427.450, 1647.550 1427, 1647 1427 C 1646.450 1427, 1646 1427.450, 1646 1428 M 1579.639 1445.694 C 1579.288 1446.046, 1579 1447.128, 1579 1448.099 C 1579 1449.071, 1578.059 1450.164, 1576.909 1450.529 C 1575.759 1450.894, 1574.181 1452.716, 1573.403 1454.577 C 1572.626 1456.438, 1570.867 1458.696, 1569.495 1459.595 C 1567.937 1460.616, 1567 1462.168, 1567 1463.729 C 1567 1465.936, 1567.350 1466.176, 1570 1465.787 C 1572.730 1465.386, 1573 1465.601, 1573 1468.173 C 1573 1469.728, 1573.434 1471, 1573.965 1471 C 1575.521 1471, 1577 1467.406, 1577 1463.623 C 1577 1461.693, 1577.850 1458.626, 1578.889 1456.807 C 1581.114 1452.913, 1582.442 1446.391, 1581.170 1445.605 C 1580.680 1445.302, 1579.991 1445.342, 1579.639 1445.694 M 1558.667 1448.667 C 1557.452 1449.881, 1557.976 1450.947, 1559.500 1450.362 C 1560.325 1450.045, 1561 1449.384, 1561 1448.893 C 1561 1447.845, 1559.622 1447.711, 1558.667 1448.667 M 898.190 1453.618 C 899.080 1454.508, 900.301 1454.932, 900.904 1454.559 C 902.890 1453.332, 902.047 1452, 899.286 1452 C 896.785 1452, 896.699 1452.127, 898.190 1453.618 M 1661.786 1467.006 C 1661.543 1468.659, 1661.567 1470.234, 1661.839 1470.506 C 1662.855 1471.522, 1666.685 1470.948, 1668.559 1469.499 C 1670.464 1468.027, 1670.456 1467.961, 1668.139 1465.999 C 1664.652 1463.046, 1662.313 1463.417, 1661.786 1467.006 M 1432 1474 C 1432 1474.550, 1432.450 1475, 1433 1475 C 1433.550 1475, 1434 1474.550, 1434 1474 C 1434 1473.450, 1433.550 1473, 1433 1473 C 1432.450 1473, 1432 1473.450, 1432 1474 M 911.500 1476.712 C 909.528 1477.802, 906.023 1478.392, 901.273 1478.435 C 894.783 1478.493, 893.767 1478.778, 891.323 1481.223 C 886.669 1485.877, 888.192 1493.459, 894.628 1497.676 C 896.559 1498.941, 900.117 1499.491, 908.434 1499.809 C 920.338 1500.265, 923.555 1499.459, 928.735 1494.723 C 933.640 1490.239, 932.376 1479.864, 926.641 1477.526 C 920.999 1475.227, 914.793 1474.893, 911.500 1476.712 M 1647.237 1480.976 C 1645.720 1482.605, 1645.318 1483.718, 1646.002 1484.402 C 1647.400 1485.800, 1650.297 1482.779, 1649.838 1480.400 C 1649.517 1478.732, 1649.278 1478.785, 1647.237 1480.976 M 920.740 1489.741 C 922.522 1490.628, 924.309 1491.024, 924.711 1490.622 C 925.770 1489.563, 922.915 1488.023, 920 1488.079 C 917.622 1488.126, 917.658 1488.207, 920.740 1489.741 M 1509.460 1519.065 C 1509.098 1519.651, 1509.092 1521.676, 1509.446 1523.565 C 1509.919 1526.087, 1510.610 1527, 1512.045 1527 C 1513.540 1527, 1514 1526.311, 1514 1524.071 C 1514 1522.461, 1513.293 1520.436, 1512.429 1519.571 C 1510.568 1517.711, 1510.323 1517.669, 1509.460 1519.065 M 1462 1538.382 C 1462 1539.207, 1462.450 1540.160, 1463 1540.500 C 1463.550 1540.840, 1464 1540.443, 1464 1539.618 C 1464 1538.793, 1463.550 1537.840, 1463 1537.500 C 1462.450 1537.160, 1462 1537.557, 1462 1538.382 M 1066.157 1555.642 C 1063.952 1557.857, 1061.861 1559, 1060.014 1559 C 1055.101 1559, 1055.076 1564.432, 1059.976 1567.326 C 1063.656 1569.501, 1063.694 1569.493, 1065.427 1566.141 C 1066.240 1564.568, 1068.277 1562.714, 1069.953 1562.020 C 1072.445 1560.987, 1073 1560.179, 1073 1557.579 C 1073 1554.689, 1071.426 1551.787, 1070.050 1552.142 C 1069.747 1552.220, 1067.996 1553.795, 1066.157 1555.642 M 1028.380 1644.452 C 1027.668 1646.308, 1028.707 1648, 1030.559 1648 C 1031.429 1648, 1032 1647.010, 1032 1645.500 C 1032 1642.752, 1029.329 1641.979, 1028.380 1644.452" stroke="none" fill="black" fill-rule="evenodd"/>
</svg>