<svg xmlns="http://www.w3.org/2000/svg" width="1024" height="1024" viewBox="0 0 1024 1024" version="1.1">
	<path d="M 508.924 228.584 C 506.592 231.071, 506.503 231.689, 506.590 244.834 C 506.735 266.906, 508.256 273.675, 512.871 272.786 C 515.592 272.262, 517.068 265.271, 517.698 249.932 C 518.350 234.043, 517.969 230.969, 514.975 227.975 C 512.421 225.421, 511.836 225.480, 508.924 228.584 M 478.174 256.314 C 472.215 262.657, 479.635 273.221, 486.343 267.945 C 489.885 265.159, 490.054 259.339, 486.686 256.174 C 483.701 253.371, 480.896 253.417, 478.174 256.314 M 536.189 256.039 C 531.786 260.141, 534.514 269, 540.181 269 C 544.608 269, 546.843 267.355, 547.552 263.575 C 548.405 259.029, 547.484 256.541, 544.434 255.152 C 540.796 253.494, 538.675 253.722, 536.189 256.039 M 612.500 267.775 C 605.714 269.217, 600.336 281.193, 604.571 285.429 C 606.510 287.367, 608.306 287.410, 611.802 285.602 C 615.744 283.564, 617.658 280.994, 618.427 276.706 C 619.571 270.326, 617.213 266.773, 612.500 267.775 M 407.200 269.200 C 405.560 270.840, 405.688 277.497, 407.425 280.855 C 408.973 283.848, 412.737 286, 416.425 286 C 422.734 286, 422.891 277.046, 416.701 270.250 C 414.444 267.772, 409.207 267.193, 407.200 269.200 M 649.500 270.897 C 645.514 273.408, 627.859 291.474, 624.588 296.390 C 621.263 301.386, 621.225 304.690, 624.475 306.171 C 626.577 307.128, 627.521 306.915, 630.725 304.756 C 639.537 298.822, 659 276.998, 659 273.051 C 659 268.884, 654.365 267.833, 649.500 270.897 M 370.667 270.667 C 369.517 271.816, 370.016 275.373, 371.792 278.691 C 375.176 285.013, 389.380 301.146, 394.631 304.631 C 400.611 308.600, 404.312 308.825, 404.820 305.249 C 405.455 300.774, 400.581 293.582, 388.893 281.750 C 379.244 271.981, 376.785 270, 374.310 270 C 372.673 270, 371.033 270.300, 370.667 270.667 M 364.200 304.200 C 360.737 307.663, 364.420 316.613, 369.717 317.607 C 375.984 318.782, 379.688 314.170, 376.883 308.684 C 374.340 303.712, 367.209 301.191, 364.200 304.200 M 505.315 304.007 C 504.114 304.491, 502.703 305.700, 502.180 306.694 C 501.657 307.687, 501.043 318.067, 500.816 329.761 L 500.403 351.022 494.952 361.261 L 489.500 371.500 489.195 409.821 C 488.902 446.644, 488.970 448.306, 490.924 452.343 C 494.175 459.059, 496.724 460, 511.654 459.998 C 526.608 459.997, 530.397 458.754, 533.252 452.919 C 534.828 449.696, 535.007 445.412, 535.037 410.107 L 535.070 370.877 529.785 361.189 L 524.500 351.500 524.225 330.500 C 524.074 318.950, 523.748 308.565, 523.499 307.421 C 523.251 306.278, 521.891 304.816, 520.477 304.171 C 517.504 302.817, 508.511 302.719, 505.315 304.007 M 654.388 303.980 C 651.092 305.312, 648 309.934, 648 313.528 C 648 317.079, 649.266 318, 654.148 318 C 658.453 318, 660.966 316.325, 662.629 312.346 C 665.556 305.340, 661.418 301.140, 654.388 303.980 M 652 314.059 C 652 314.641, 652.450 314.840, 653 314.500 C 653.550 314.160, 654 313.684, 654 313.441 C 654 313.198, 653.550 313, 653 313 C 652.450 313, 652 313.477, 652 314.059 M 510 317.878 C 510 321.139, 512.232 323.509, 514.487 322.643 C 515.442 322.277, 516 320.761, 516 318.531 C 516 315.274, 515.767 315, 513 315 C 510.362 315, 510 315.347, 510 317.878 M 250 350.062 C 232.891 351.668, 218.063 361.105, 208.473 376.491 C 200.344 389.534, 197 403.783, 197 425.381 C 197.001 446.048, 199.949 461.756, 215.045 521.500 C 237.874 611.850, 241.009 630.330, 240.991 674.411 C 240.982 698.143, 239.959 712.221, 237.008 729.211 C 233.481 749.521, 229.214 759.279, 220.955 765.916 C 216.398 769.578, 215.771 773.026, 219.223 775.443 C 220.445 776.299, 222.772 777, 224.394 777 C 230.843 777, 239.933 763.137, 244.654 746.103 C 247.692 735.143, 249.991 721.164, 249.996 713.618 C 250 708.133, 250.250 707.501, 253.700 704.247 C 260.772 697.577, 271.421 694.584, 288 694.610 C 303.639 694.633, 315.336 698.152, 326.659 706.238 C 330.646 709.085, 330.845 709.484, 331.478 715.854 C 332.667 727.818, 330.476 736.158, 323.560 745.992 C 320.126 750.875, 320.810 753.310, 325.752 753.806 C 332.438 754.477, 341.046 741.978, 343.134 728.569 C 343.925 723.489, 343.886 719.746, 342.985 714.108 C 342.317 709.923, 341.816 705.502, 341.871 704.283 C 341.987 701.730, 357.530 672.903, 362.733 665.590 C 365.976 661.032, 370.404 656.617, 373.665 654.691 C 375.045 653.875, 377.358 655.852, 383.133 662.780 C 391.098 672.336, 401.417 699.022, 404.964 719.239 C 410.014 748.023, 416.912 769.021, 423.151 774.601 C 426.251 777.374, 428.030 777.912, 430.750 776.901 C 433.856 775.746, 433.603 773.148, 429.615 765.225 C 414.802 735.796, 408.709 688.336, 416.432 662.537 C 419.694 651.640, 425.224 640.830, 429.287 637.412 C 430.943 636.018, 434.818 633.598, 437.899 632.034 C 440.980 630.469, 444.850 627.768, 446.500 626.032 C 449.243 623.145, 449.543 622.134, 450 614.238 C 450.403 607.285, 450.189 605.217, 448.904 603.632 C 447.244 601.583, 447.001 601.503, 438 600.056 C 434.975 599.570, 430.475 598.707, 428 598.138 C 421.081 596.549, 403.914 595.155, 377 593.999 C 363.525 593.420, 350.813 592.693, 348.750 592.385 L 345 591.824 345 583.412 C 345 578.785, 345.153 575, 345.340 575 C 345.527 575, 349.240 575.942, 353.590 577.094 C 369.270 581.246, 390.530 579.866, 410.179 573.421 C 414.781 571.912, 415.028 571.945, 425.266 575.443 C 438.627 580.008, 449.031 580.321, 462.046 576.547 C 476.530 572.348, 484.010 571.593, 495.974 573.120 C 501.764 573.858, 509.200 574.258, 512.500 574.007 C 529.088 572.747, 542.282 573.594, 558 576.927 C 570.293 579.534, 574.948 580.105, 580.500 579.687 C 587.247 579.179, 603.496 574.761, 605.450 572.903 C 607.018 571.413, 610.275 571.853, 620.130 574.886 C 633.496 579, 648.175 581.339, 655.488 580.518 C 658.781 580.149, 664.631 578.714, 668.488 577.329 C 672.345 575.944, 676.304 574.572, 677.286 574.280 C 678.933 573.789, 679.050 574.558, 678.786 584.124 L 678.500 594.500 650.500 595.126 C 618.698 595.837, 599.845 597.368, 589.090 600.110 C 585.015 601.150, 580.688 602, 579.475 602 C 578.262 602, 576.084 602.933, 574.635 604.073 C 572.238 605.958, 572 606.776, 572 613.122 C 572 617.259, 572.590 621.240, 573.449 622.901 C 575.240 626.364, 580.834 631.358, 585.778 633.907 C 599.381 640.919, 607.944 657.588, 610.104 681.258 C 611.333 694.720, 610.226 710.724, 606.905 727.500 C 604.264 740.847, 601.778 748.420, 595.874 761.104 C 591.676 770.124, 591.089 772.104, 591.945 774.354 C 593.332 778.002, 597.759 777.954, 601.519 774.250 C 608.265 767.605, 613.391 751.419, 618.932 719.274 C 623.374 693.503, 628.478 678.572, 637.466 665.050 C 643.180 656.455, 645.266 654.599, 648.339 655.370 C 655.326 657.124, 667.355 672.621, 677.492 692.930 L 683.197 704.359 681.960 710.187 C 680.238 718.302, 681.212 732.009, 684.023 739.218 C 686.549 745.696, 692.081 752.700, 695.782 754.107 C 698.709 755.220, 703 752.968, 703 750.319 C 703 749.420, 701.256 746.393, 699.125 743.592 C 692.987 735.525, 692.645 734.431, 692.192 721.435 L 691.771 709.371 695.135 706.522 C 707.665 695.913, 733.756 691.959, 755.252 697.412 C 760.482 698.739, 766.615 700.994, 768.881 702.425 C 772.547 704.739, 773 705.450, 773 708.887 C 773 719.164, 779.395 748.170, 784.158 759.500 C 790.006 773.409, 800.150 780.912, 805.345 775.171 C 808.092 772.136, 807.271 769.912, 801.250 764.074 C 796.644 759.610, 794.934 757.014, 792.659 751.034 C 780.302 718.567, 779.601 651.196, 791.058 597 C 792.162 591.775, 798.699 565.450, 805.585 538.500 C 819.516 483.971, 823.258 467.898, 825.541 452.786 C 827.806 437.784, 828.480 418.064, 827.083 407.635 C 825.779 397.902, 821.468 383, 819.956 383 C 819.430 383, 819 382.150, 819 381.110 C 819 380.071, 817.055 376.583, 814.678 373.360 C 806.883 362.789, 798.333 356.607, 785.684 352.395 C 779.012 350.173, 775.851 349.716, 767.073 349.708 C 733.335 349.675, 715.518 366.413, 701.572 411.241 C 691.417 443.883, 685.136 480.563, 682.007 525.500 C 681.432 533.750, 680.498 544.893, 679.930 550.262 C 679.362 555.631, 679.172 560.469, 679.507 561.012 C 679.843 561.555, 679.460 562, 678.656 562 C 676.024 562, 673.602 551.699, 661.493 489 C 657.307 467.329, 655.737 463.656, 649.472 460.885 C 644.881 458.854, 630.369 455.600, 620.852 454.467 C 615.924 453.881, 614.937 454.063, 613.102 455.898 C 609.036 459.964, 611.199 463.310, 618.700 464.554 L 623.500 465.351 618 466.113 C 584.771 470.718, 431.463 470.663, 405 466.037 C 401.177 465.369, 400.979 465.232, 403.685 465.125 C 409.833 464.884, 412 463.418, 412 459.500 C 412 454.273, 409.227 453.538, 397.121 455.552 C 385.220 457.533, 376.456 459.713, 372.804 461.601 C 366.761 464.726, 362.915 476.629, 354.419 518.500 C 348.790 546.242, 345.326 562.007, 344.727 562.607 C 344.470 562.863, 343.953 556.644, 343.578 548.787 C 341.693 509.272, 335.258 459.762, 328.416 432.118 C 323.467 412.126, 318.777 398.442, 312.264 385 C 307.373 374.907, 305.702 372.521, 298.596 365.500 C 293.615 360.578, 288.384 356.479, 285 354.846 C 276.260 350.628, 263.112 348.831, 250 350.062 M 247.645 360.584 C 238.358 362.832, 228.612 368.509, 222.563 375.193 C 211.567 387.344, 207.600 400.526, 207.573 425 C 207.547 448.403, 207.329 447.367, 236.985 564.600 C 246.932 603.921, 250.111 624.089, 251.587 657.250 C 251.973 665.913, 252.561 672.991, 252.894 672.980 C 253.227 672.969, 254.850 670.685, 256.500 667.905 C 262.490 657.810, 274.428 647.784, 286.502 642.707 C 297.613 638.035, 306.529 636.822, 329.359 636.877 C 356.691 636.944, 367.468 638.111, 376.410 641.976 C 382.017 644.399, 390.745 653.885, 396.533 663.848 L 401.355 672.147 405.982 658.823 C 411.050 644.231, 411.541 643.169, 417.122 634.725 L 420.939 628.951 414.219 629.725 C 410.524 630.151, 378.925 630.500, 344 630.500 C 274.882 630.500, 276.028 630.586, 267.427 624.736 C 259.165 619.118, 258.596 617.465, 241.580 549.749 C 219.015 459.949, 217 449.571, 217 423.127 C 217 390.449, 225.988 374.509, 249.056 366.278 C 255.576 363.952, 258.080 363.615, 269.232 363.561 L 281.964 363.500 276.232 361.302 C 269.391 358.678, 256.822 358.362, 247.645 360.584 M 750 360.362 C 740.784 362.876, 741.507 363.585, 753.247 363.546 C 766.174 363.503, 772.541 364.819, 782.738 369.641 C 796.535 376.165, 804.557 386.958, 807.038 402.333 C 809.445 417.259, 807.351 449.873, 802.498 473.039 C 800.872 480.801, 790.551 521.939, 786.952 535 C 784.480 543.975, 782.114 552.967, 774.123 583.768 C 766.051 614.877, 762.013 622.892, 751.786 628.109 C 744.670 631.740, 738.764 632.065, 680.500 632.037 C 628.955 632.013, 612.664 631.460, 604.710 629.463 C 602.149 628.821, 602.260 629.148, 607.921 638.947 C 611.146 644.529, 615.479 653.687, 617.550 659.298 C 619.621 664.909, 621.661 669.894, 622.082 670.375 C 622.504 670.856, 624.499 667.974, 626.515 663.970 C 631.604 653.864, 641.460 643.988, 649.334 641.103 C 659.452 637.396, 696.928 635.710, 718.552 637.989 C 741.449 640.402, 757 650.404, 768.322 670 L 771.500 675.500 772.199 662 C 774.324 621.004, 778.738 595.467, 791.646 549.500 C 797.332 529.253, 811.226 472.743, 813.633 460.074 C 815.561 449.926, 816.341 441.957, 816.725 428.500 C 817.328 407.346, 816.011 398.137, 810.850 387.400 C 806.823 379.025, 797.682 369.393, 790.126 365.564 C 778.541 359.693, 760.858 357.401, 750 360.362 M 421.323 360.736 C 417.163 361.469, 416.793 363.093, 417.214 378.714 C 417.553 391.235, 417.949 394.238, 419.800 398.317 C 422.828 404.988, 431.975 414.313, 438.059 416.930 L 443 419.056 443 432.028 C 443 439.163, 443.022 445.324, 443.049 445.720 C 443.077 446.115, 440.923 446.929, 438.264 447.528 C 431.825 448.978, 431 449.604, 431 453.033 C 431 457.541, 435.341 459.311, 447.611 459.807 C 456.213 460.155, 458.414 459.910, 462.361 458.165 C 469.771 454.887, 468.144 450.317, 458.724 447.950 L 453.948 446.749 454.224 432.256 L 454.500 417.762 459.500 415.861 C 465.863 413.441, 472.314 406.618, 476.386 398 C 479.274 391.887, 479.480 390.662, 479.835 377.428 C 480.165 365.167, 479.993 363.136, 478.505 361.647 C 476.968 360.111, 474.118 359.960, 450.148 360.146 C 435.492 360.260, 422.520 360.525, 421.323 360.736 M 545.414 361.439 C 543.716 362.681, 543.515 364.065, 543.634 373.694 C 543.778 385.266, 545.562 394.262, 549.085 401.167 C 552.216 407.305, 560.219 414.640, 566.038 416.707 L 571 418.469 571 432.667 C 571 448.260, 571.510 447.046, 564.354 448.482 C 560.600 449.235, 557.693 452.145, 558.165 454.676 C 558.877 458.487, 564.640 460.137, 576 459.781 C 588.299 459.396, 593 457.495, 593 452.907 C 593 449.514, 591.439 448.254, 586.200 447.416 L 582 446.744 581.993 439.622 C 581.989 435.705, 581.711 429.575, 581.374 426 L 580.763 419.500 585.518 417.197 C 595.630 412.299, 601.469 405.764, 605.060 395.327 C 606.600 390.850, 607 386.946, 607 376.400 C 607 363.841, 606.879 363.029, 604.798 361.571 C 601.682 359.388, 548.380 359.270, 545.414 361.439 M 428 375.452 L 428 379.905 434.250 380.202 C 437.688 380.366, 446.913 380.364, 454.750 380.199 L 469 379.897 469 375.449 L 469 371 448.500 371 L 428 371 428 375.452 M 555 375.500 L 555 380 575.500 380 L 596 380 596 375.500 L 596 371 575.500 371 L 555 371 555 375.500 M 258 383 C 256.900 384.100, 256 385.900, 256 387 C 256 389.714, 259.475 393, 262.345 393 C 267.562 393, 270.019 385.527, 265.777 382.557 C 262.786 380.462, 260.403 380.597, 258 383 M 757.003 383.995 C 755.365 387.055, 756.128 390.023, 759.125 392.252 C 761.248 393.830, 762.153 393.989, 763.852 393.079 C 769.673 389.964, 768.316 382.736, 761.808 382.194 C 758.905 381.952, 757.893 382.331, 757.003 383.995 M 433 390.991 C 430.715 392.454, 435.419 400.625, 440.963 404.825 C 444.782 407.718, 445.996 408.130, 449.376 407.676 C 454.390 407.004, 457.658 404.598, 461.750 398.565 C 466.385 391.732, 466.137 390, 460.526 390 C 456.576 390, 455.871 390.348, 454.515 392.970 C 451.410 398.975, 447.263 398.987, 443.001 393.002 C 441.386 390.734, 440.086 390.004, 437.682 390.015 C 435.932 390.024, 433.825 390.463, 433 390.991 M 559.359 391.227 C 557.886 393.612, 564.575 404.212, 568.997 406.499 C 573.768 408.966, 578.321 408.399, 583.118 404.741 C 587.519 401.384, 592.710 392.958, 591.542 391.067 C 591.179 390.480, 588.932 390, 586.549 390 C 582.768 390, 582.137 390.316, 581.593 392.487 C 581.249 393.855, 579.850 395.707, 578.484 396.602 C 576.180 398.112, 575.810 398.105, 573.380 396.513 C 571.939 395.569, 570.540 393.957, 570.272 392.931 C 570.004 391.906, 568.992 390.815, 568.023 390.507 C 565.674 389.762, 559.972 390.236, 559.359 391.227 M 510.643 392.065 C 504.609 393.795, 501.486 398.580, 500.458 407.669 C 499.192 418.856, 504.621 430.008, 511.327 429.996 C 515.268 429.989, 520.034 426.178, 522.187 421.310 C 524.831 415.333, 524.413 403.105, 521.388 397.925 C 518.743 393.396, 514.352 391.001, 510.643 392.065 M 231 400.694 C 226.504 402.301, 225.760 407.879, 229.635 410.927 C 232.994 413.569, 233.557 413.533, 236.608 410.483 C 239.458 407.633, 239.185 404.675, 235.802 401.750 C 233.667 399.903, 233.385 399.841, 231 400.694 M 299.333 402.615 C 297.812 404.937, 297.781 405.516, 299.059 407.766 C 301.365 411.825, 303.397 412.625, 306.399 410.658 C 311.115 407.568, 308.840 400, 303.194 400 C 301.981 400, 300.300 401.138, 299.333 402.615 M 741.243 401.106 C 736.841 402.734, 737.141 409.832, 741.699 411.909 C 746.889 414.273, 752.306 407.206, 748.516 403.017 C 746.429 400.712, 744.020 400.079, 741.243 401.106 M 788.862 402.018 C 784.242 404.715, 786.535 413, 791.901 413 C 797.218 413, 799.430 407.339, 795.608 403.517 C 792.914 400.823, 791.460 400.500, 788.862 402.018 M 272.571 413.571 C 269.094 417.049, 271.976 423, 277.138 423 C 282.097 423, 285.043 417.934, 282.333 414.065 C 280.569 411.547, 274.883 411.260, 272.571 413.571 M 251.655 433.829 C 247.857 438.026, 251.711 445.410, 256.992 444.054 C 259.912 443.304, 262.204 439.355, 261.377 436.500 C 260.088 432.047, 254.626 430.546, 251.655 433.829 M 287 435 C 284.335 437.665, 284.473 441.156, 287.349 443.858 C 289.306 445.696, 290.144 445.896, 292.367 445.051 C 297.371 443.148, 297.994 435.709, 293.298 433.923 C 289.893 432.629, 289.264 432.736, 287 435 M 744.557 436.223 C 742.470 439.202, 742.596 441.189, 745.039 443.811 C 747.702 446.670, 750.509 446.582, 753.545 443.545 C 756.523 440.568, 756.639 438.639, 754 436 C 751.282 433.282, 746.538 433.394, 744.557 436.223 M 786.381 437.541 C 784.328 440.675, 785.665 444.434, 789.444 446.157 C 792.935 447.747, 797 445.043, 797 441.132 C 797 435.254, 789.534 432.729, 786.381 437.541 M 242.655 472.829 C 240.375 475.349, 240.584 478.534, 243.189 480.961 C 246.053 483.630, 247.558 483.533, 250.608 480.483 C 252.443 478.648, 252.945 477.362, 252.461 475.733 C 251.072 471.054, 245.701 469.463, 242.655 472.829 M 718 472.294 C 714.393 474.119, 714.497 479.535, 718.193 482.295 C 720.739 484.196, 721.024 484.214, 723.427 482.640 C 724.825 481.724, 726.269 479.778, 726.636 478.316 C 727.168 476.194, 726.756 475.187, 724.596 473.329 C 721.465 470.636, 721.323 470.613, 718 472.294 M 772.381 474.541 C 770.351 477.640, 771.700 481.580, 775.242 482.899 C 780.324 484.791, 784.555 479.709, 782.200 474.540 C 780.552 470.923, 774.752 470.923, 772.381 474.541 M 379.230 475.260 C 377.370 477.568, 371.209 495.440, 368.633 506 C 364.984 520.954, 355.766 560.995, 355.237 564.184 C 354.835 566.613, 355.205 566.988, 359.146 568.143 C 361.767 568.911, 368.875 569.404, 377 569.380 C 388.730 569.346, 391.583 568.997, 398.760 566.720 C 413.001 562.202, 412.395 562.779, 413.182 552.989 C 413.557 548.320, 414.316 536.930, 414.868 527.679 C 415.469 517.635, 416.351 510.282, 417.059 509.429 C 417.711 508.643, 419.260 508, 420.500 508 C 425.023 508, 425.213 509.317, 424.058 532.684 C 423.466 544.683, 422.736 556.525, 422.436 559 L 421.892 563.500 428.110 565.895 C 438.083 569.737, 445.271 569.745, 461 565.932 C 472.459 563.154, 476.390 562.653, 487 562.617 C 493.887 562.594, 501.271 563.107, 503.444 563.760 C 505.613 564.412, 507.541 564.793, 507.728 564.606 C 507.915 564.418, 508.051 549.623, 508.029 531.727 C 508.008 513.831, 508.266 498.471, 508.602 497.594 C 508.991 496.582, 510.416 496, 512.509 496 C 515.294 496, 515.972 496.480, 516.883 499.094 C 517.476 500.796, 518.672 515.051, 519.541 530.772 C 520.410 546.494, 521.530 560.122, 522.030 561.057 C 522.787 562.471, 525 562.836, 535.220 563.233 C 543.858 563.568, 550.911 564.533, 559 566.485 C 574.458 570.217, 583.510 570.287, 591.269 566.734 L 597.023 564.100 596.508 557.300 C 596.224 553.560, 595.527 543.300, 594.957 534.500 C 594.388 525.700, 593.674 516.913, 593.369 514.974 C 592.959 512.362, 593.328 510.817, 594.791 509.010 C 596.519 506.876, 597.079 506.715, 599.289 507.722 C 602.338 509.111, 602.287 508.883, 605.499 535.500 C 606.893 547.050, 608.430 557.432, 608.914 558.570 C 610.229 561.665, 632.381 568.455, 645.008 569.635 C 651.065 570.200, 660.977 568.917, 663.636 567.223 C 664.459 566.699, 664.018 562.516, 662.031 552 C 660.523 544.025, 658.074 530.476, 656.588 521.891 C 653.615 504.716, 647.385 475.052, 646.583 474.249 C 646.303 473.969, 640.095 474.475, 632.787 475.374 C 586.679 481.041, 498.038 482.377, 427.500 478.467 C 403.800 477.153, 387.970 475.762, 382.364 474.500 C 381.190 474.236, 379.779 474.577, 379.230 475.260 M 294.400 477.765 C 290.778 480.183, 291.046 485.884, 294.878 487.935 C 297.860 489.531, 299.701 489.238, 301.967 486.805 C 306.221 482.239, 299.580 474.306, 294.400 477.765 M 250.655 509.829 C 248.430 512.288, 248.568 515.568, 251 518 C 253.407 520.407, 254.840 520.501, 257.777 518.443 C 262.034 515.462, 259.568 508, 254.326 508 C 253.217 508, 251.565 508.823, 250.655 509.829 M 708.390 512.519 C 705.726 515.183, 705.516 516.227, 707.061 519.114 C 710.060 524.719, 718 522.894, 718 516.599 C 718 512.997, 716.868 511.625, 713.140 510.709 C 711.462 510.297, 710.088 510.821, 708.390 512.519 M 764.536 511.960 C 760.981 515.889, 765.213 521.916, 770.580 520.569 C 771.897 520.239, 773.707 518.850, 774.602 517.484 C 776.107 515.188, 776.106 514.810, 774.592 512.500 C 772.522 509.341, 767.167 509.053, 764.536 511.960 M 310.280 512.020 C 307.319 513.211, 306.349 517.358, 308.325 520.374 C 310.481 523.664, 313.478 524.199, 316.488 521.831 C 319.532 519.436, 319.746 515.746, 317 513 C 314.825 510.825, 313.669 510.656, 310.280 512.020 M 285.061 543.939 C 280.092 548.908, 284.629 556.639, 290.973 554.011 C 294.856 552.403, 295.602 549.717, 293.275 545.723 C 291.011 541.834, 287.852 541.148, 285.061 543.939 M 732.223 546.557 C 729.383 548.546, 729.367 552.333, 732.189 554.961 C 734.811 557.404, 736.798 557.530, 739.777 555.443 C 744.101 552.415, 741.418 545, 736 545 C 735.145 545, 733.445 545.701, 732.223 546.557 M 706.991 579.240 C 703.457 583.034, 706.295 589, 711.634 589 C 713.907 589, 717 585.675, 717 583.232 C 717 581.427, 712.443 577, 710.584 577 C 709.756 577, 708.139 578.008, 706.991 579.240 M 742.571 579.571 C 737.853 584.290, 745.138 592.900, 750.072 588.435 C 753.967 584.910, 751.602 578, 746.500 578 C 745.204 578, 743.436 578.707, 742.571 579.571 M 271.035 580.934 C 268.294 586.056, 270.624 591, 275.779 591 C 280.215 591, 282.715 583.857, 279.429 580.571 C 277.199 578.342, 272.310 578.553, 271.035 580.934 M 313 581 C 311.900 582.100, 311 583.900, 311 585 C 311 587.714, 314.475 591, 317.345 591 C 322.314 591, 324.894 584.024, 321.171 580.655 C 318.712 578.430, 315.432 578.568, 313 581 M 507.673 585.470 C 506.439 586.704, 506.126 594.114, 505.722 631.720 C 505.204 679.810, 504.557 687.411, 499.449 705.443 C 493.843 725.228, 487.391 731.251, 466.173 736.509 C 447.246 741.198, 442 744.289, 442 750.753 C 442 755.688, 443.341 757.470, 448.831 759.832 C 467.194 767.732, 539.650 769.257, 568.500 762.351 C 583.292 758.810, 586.790 748.015, 575.081 742.041 C 572.998 740.979, 566.715 738.949, 561.119 737.530 C 535.723 731.092, 529.674 725.801, 522.951 704.139 C 518.401 689.476, 517.692 680.221, 517.505 633 C 517.408 608.525, 517.254 587.982, 517.164 587.348 C 517.019 586.328, 511.984 584, 509.922 584 C 509.494 584, 508.481 584.661, 507.673 585.470 M 432.579 611.015 C 427.017 613.187, 425.726 614.619, 427.069 617.128 C 428.623 620.033, 431.725 620.312, 436.544 617.979 C 441.353 615.651, 443.362 613.106, 442.389 610.572 C 441.600 608.516, 438.636 608.650, 432.579 611.015 M 580 611.396 C 580 612.888, 581.335 614.965, 583.535 616.896 C 589.495 622.129, 599.828 620.707, 596.315 615.138 C 595.240 613.433, 584.746 609, 581.786 609 C 580.568 609, 580 609.762, 580 611.396 M 324.500 614 L 301.500 614.500 301.163 616.887 C 300.977 618.200, 301.427 619.655, 302.163 620.122 C 302.898 620.588, 325.647 620.976, 352.715 620.985 C 401.818 621, 401.932 620.995, 403.062 618.883 C 405.438 614.445, 403.556 614.109, 374.500 613.793 C 359.650 613.632, 337.150 613.725, 324.500 614 M 614.309 617.636 C 613.964 618.536, 614.140 619.998, 614.700 620.886 C 615.616 622.338, 621.021 622.500, 668.609 622.500 L 721.500 622.500 721.803 619.886 C 722.062 617.655, 721.640 617.178, 718.928 616.636 C 717.180 616.286, 693.067 616, 665.344 616 C 619.599 616, 614.879 616.151, 614.309 617.636 M 704.500 646.719 C 703.400 646.987, 701.663 647.948, 700.640 648.853 C 698.175 651.035, 692.630 662.140, 690.612 668.933 C 688.820 674.968, 688.461 688.453, 689.986 692.462 L 690.971 695.055 694.936 693.033 C 709.081 685.816, 731.879 683.160, 754.897 686.046 C 759.486 686.622, 763.403 686.930, 763.601 686.732 C 764.120 686.214, 758.474 675.550, 755.035 670.551 C 747.196 659.157, 733.169 650.437, 718.072 647.573 C 709.600 645.966, 708.004 645.866, 704.500 646.719 M 308.315 647.973 C 287.874 651.098, 275.763 658.860, 265.515 675.403 C 259.812 684.609, 258.517 688.783, 261.748 687.543 C 267.156 685.468, 274.993 684.546, 287 684.574 C 302.727 684.610, 314.028 686.986, 325.379 692.645 C 329.163 694.531, 332.538 695.795, 332.879 695.454 C 333.221 695.113, 333.500 689.520, 333.500 683.027 L 333.500 671.220 328.696 661.734 C 321.675 647.868, 319.335 646.288, 308.315 647.973 M 335 647.711 C 335 648.205, 336.257 650.609, 337.794 653.054 C 340.371 657.154, 345 666.385, 345 667.424 C 345 667.669, 345.476 669.123, 346.059 670.655 C 347.108 673.414, 347.157 673.367, 351.309 665.684 C 353.614 661.418, 357.478 655.910, 359.896 653.443 C 362.314 650.977, 364.114 648.798, 363.896 648.601 C 362.952 647.749, 335 646.888, 335 647.711 M 660.250 647.706 C 657.187 648.296, 657.421 649.096, 661.460 651.847 C 665.416 654.541, 671.998 662.759, 674.596 668.250 C 675.572 670.313, 676.684 672, 677.066 672 C 677.449 672, 678.268 669.992, 678.886 667.539 C 679.504 665.085, 681.807 659.664, 684.005 655.491 C 686.202 651.319, 688 647.701, 688 647.452 C 688 646.888, 663.324 647.114, 660.250 647.706 M 508.020 712.718 C 503.424 728.336, 498.063 735.921, 488.044 740.978 C 483.649 743.196, 462.817 750, 460.420 750 C 460.124 750, 460.123 750.391, 460.419 750.868 C 460.889 751.629, 469.357 752.890, 485.243 754.567 C 499.136 756.032, 553.905 754.256, 561.604 752.090 L 564.500 751.276 562 750.218 C 560.625 749.637, 555.509 747.968, 550.630 746.511 C 528.441 739.881, 521.746 733.556, 514.688 712.559 C 513.404 708.742, 511.895 705.465, 511.332 705.277 C 510.770 705.090, 509.280 708.438, 508.020 712.718 M 374.907 714.687 C 372.753 720.235, 375.915 751.923, 380.121 766.948 C 384.334 781.997, 391.665 792.333, 398.125 792.333 C 401.140 792.333, 405 789.264, 405 786.867 C 405 786.366, 402.589 783.603, 399.643 780.728 C 393.973 775.195, 391.234 769.503, 388.489 757.550 C 386.790 750.154, 385.005 733.135, 384.985 724.144 C 384.966 715.663, 383.492 712.601, 379.227 712.187 C 376.480 711.920, 375.836 712.293, 374.907 714.687 M 640.571 713.571 C 639.376 714.766, 639 717.291, 639 724.111 C 639 750.905, 632.060 777.082, 623.640 782.050 C 619.343 784.585, 618.509 786.602, 620.500 789.641 C 622.847 793.222, 627.964 792.846, 632.641 788.750 C 641.813 780.717, 648.929 753.498, 648.980 726.250 C 648.997 717.318, 648.743 715.743, 647 714 C 644.592 711.592, 642.678 711.465, 640.571 713.571" stroke="none" fill="black" fill-rule="evenodd"/>
</svg>