<svg xmlns="http://www.w3.org/2000/svg" width="2048" height="2048" viewBox="0 0 2048 2048" version="1.1">
	<path d="M 1005 296.888 C 996.082 299.314, 990.747 301.820, 981.091 308.118 C 974.437 312.458, 971.103 315.630, 963.872 324.500 C 958.457 331.143, 953.285 338.795, 950.815 343.818 C 946.970 351.635, 946.794 352.370, 947.891 356.031 C 949.358 360.928, 952.268 363, 957.675 363 C 965.457 363, 966.131 362.371, 977.500 344.500 C 983.656 334.823, 988.113 329.902, 994.428 325.811 C 1014.269 312.956, 1038.374 316.276, 1054.368 334.064 C 1065.771 346.747, 1068.543 353.527, 1067.756 366.811 C 1067.159 376.887, 1064.576 383.636, 1057.545 393.489 C 1049.557 404.683, 1043.036 409.440, 1025.095 417.161 C 1019.979 419.363, 1016.388 422.106, 1013 426.402 C 1011.753 427.983, 1011.416 434.300, 1011 463.798 L 1010.500 499.292 995.984 506.896 C 988 511.078, 974.050 518.064, 964.984 522.420 C 955.918 526.775, 941.257 533.826, 932.404 538.087 C 923.552 542.349, 912.527 547.622, 907.904 549.806 C 897.342 554.794, 844.704 580.234, 815 594.705 C 802.625 600.733, 790.829 606.430, 788.786 607.363 C 785.004 609.091, 782 612.373, 782 614.777 C 782 615.510, 782.916 618.223, 784.036 620.805 C 788.995 632.238, 790.500 633.446, 795.777 630.234 C 801.082 627.005, 896.278 580, 897.513 580 C 897.655 580, 905.360 576.352, 914.635 571.892 C 934.485 562.350, 948.007 555.933, 957 551.789 C 966.477 547.423, 1011.731 524.672, 1017 521.626 C 1019.475 520.195, 1022.528 519.019, 1023.785 519.012 C 1025.041 519.005, 1029.766 521.102, 1034.285 523.672 C 1041.261 527.639, 1105.626 559.615, 1126 569.236 C 1129.575 570.924, 1159.682 585.758, 1192.904 602.200 C 1226.127 618.643, 1253.877 631.877, 1254.572 631.611 C 1256.365 630.923, 1264.006 617.774, 1263.968 615.442 C 1263.951 614.374, 1263.330 612.701, 1262.589 611.724 C 1261.427 610.193, 1209.084 583.616, 1175.500 567.506 C 1145.297 553.017, 1063.757 512.541, 1043 501.733 L 1034.500 497.307 1034.235 467.869 L 1033.971 438.431 1045.235 432.736 C 1062.230 424.144, 1073.453 413.161, 1082.774 396 C 1089.720 383.213, 1092.007 370.377, 1090.072 355.046 C 1088.614 343.495, 1085.655 336.431, 1077.993 326.214 C 1071.093 317.012, 1058.371 305.880, 1049.744 301.495 C 1036.716 294.871, 1019.088 293.056, 1005 296.888 M 1021.283 549.705 C 1020.063 549.939, 1003.638 557.887, 984.783 567.366 C 965.927 576.846, 947.350 586.019, 943.500 587.750 C 939.650 589.481, 930.515 593.621, 923.201 596.949 C 915.886 600.277, 909.752 603, 909.570 603 C 909.388 603, 903.448 605.751, 896.369 609.112 C 889.291 612.474, 879.802 616.938, 875.282 619.033 C 870.761 621.128, 853.274 629.740, 836.420 638.171 C 815.116 648.828, 805.466 654.167, 804.756 655.687 C 803.937 657.443, 804.288 658.823, 806.534 662.687 C 810.730 669.904, 814.061 674, 815.735 674 C 816.558 674, 827.192 668.992, 839.366 662.871 C 891.309 636.755, 892.344 636.250, 917 625.011 C 923.325 622.128, 934.072 617.121, 940.882 613.884 C 947.692 610.648, 953.420 608, 953.613 608 C 953.805 608, 969.332 600.350, 988.117 591 C 1006.902 581.650, 1023.305 574, 1024.568 574 C 1025.831 574, 1033.758 577.619, 1042.182 582.043 C 1057.827 590.257, 1119.513 621, 1120.352 621 C 1122.051 621, 1215.888 667.522, 1223.283 672.031 C 1228.873 675.440, 1231.019 674.680, 1235.345 667.757 C 1240.034 660.253, 1240.921 656.135, 1238.342 653.831 C 1235.444 651.243, 1164.291 615.928, 1125.500 597.826 C 1116.150 593.463, 1094.325 582.651, 1077 573.799 C 1059.675 564.947, 1042.125 556.038, 1038 554.001 C 1030.391 550.244, 1025.294 548.934, 1021.283 549.705 M 750.392 611.445 C 732.517 617.476, 702.300 630.557, 674.807 644.167 C 623.595 669.518, 608.464 682.898, 599.337 710.909 C 595.962 721.268, 595.100 739.668, 597.380 752.724 C 600.537 770.803, 610.574 796.238, 620.114 810.338 C 646.879 849.893, 692.512 875.217, 752 883.527 C 766.803 885.594, 770.301 886.661, 773.612 890.117 C 777.944 894.638, 796.605 931.484, 804.194 950.500 C 814.901 977.328, 823.714 1007.166, 827.485 1029.352 C 829.403 1040.634, 831.366 1070.204, 830.509 1074.910 C 830.113 1077.088, 824.756 1086.204, 816.891 1098.085 C 809.760 1108.857, 802.030 1120.650, 799.713 1124.292 C 797.396 1127.934, 790.261 1139.146, 783.857 1149.207 C 760.027 1186.646, 731.943 1234.213, 712.538 1270 C 700.978 1291.320, 674.399 1346.304, 668.859 1360.359 C 667.779 1363.098, 666.060 1367.175, 665.038 1369.419 C 660.786 1378.757, 642.360 1425.633, 637.293 1440 C 627.356 1468.179, 623.057 1482.009, 616.156 1508 C 605.627 1547.655, 601.514 1568.696, 596.511 1608.513 C 593.486 1632.582, 593.373 1637.143, 595.750 1639.218 C 598.507 1641.624, 606.201 1642.935, 624 1644.028 C 666.981 1646.670, 698.850 1652.588, 721 1662.043 C 728.527 1665.256, 746.024 1674.936, 753.500 1680.023 C 767.784 1689.743, 790.499 1700.898, 805.016 1705.322 C 833.534 1714.012, 855.579 1712.683, 887.794 1700.331 C 899.442 1695.865, 902.756 1695.264, 906.044 1697.023 C 907.095 1697.586, 913.567 1702.267, 920.426 1707.425 C 927.285 1712.583, 936.841 1719.186, 941.663 1722.098 C 969.194 1738.728, 1007.975 1748.891, 1032.948 1746.021 C 1062.329 1742.645, 1094.183 1730.776, 1114.649 1715.581 C 1116.931 1713.886, 1120.051 1711.600, 1121.582 1710.500 C 1123.114 1709.400, 1127.531 1705.927, 1131.398 1702.782 C 1135.265 1699.638, 1139.647 1696.797, 1141.135 1696.470 C 1142.841 1696.096, 1146.460 1696.823, 1150.921 1698.438 C 1154.814 1699.847, 1161.037 1702.100, 1164.750 1703.445 C 1183.116 1710.097, 1206.081 1712.518, 1223 1709.586 C 1246.102 1705.584, 1269.773 1695.915, 1293 1680.995 C 1333.479 1654.992, 1357.939 1647.921, 1421 1643.992 C 1440.383 1642.785, 1446.024 1641.736, 1448.633 1638.853 C 1450.253 1637.063, 1450.297 1635.883, 1449.209 1623.706 C 1445.195 1578.809, 1437.748 1540.272, 1423.273 1489.500 C 1416.516 1465.797, 1396.862 1410.857, 1387.499 1389.500 C 1386.776 1387.850, 1383.866 1380.931, 1381.032 1374.124 C 1374.659 1358.812, 1369.169 1346.577, 1360.613 1328.620 C 1356.976 1320.986, 1354 1314.563, 1354 1314.346 C 1354 1313.762, 1338.594 1283.031, 1333.861 1274.173 C 1322.672 1253.236, 1299.002 1212.211, 1281.500 1183.423 C 1280.400 1181.613, 1277.170 1176.298, 1274.322 1171.610 C 1264.858 1156.034, 1242.685 1121.198, 1228.250 1099.226 L 1214 1077.535 1214.032 1062.518 C 1214.085 1037.338, 1218.468 1013.737, 1229.146 981.131 C 1236.521 958.608, 1246.650 933.430, 1253.538 920.500 C 1255.002 917.750, 1258.473 911.225, 1261.250 906 C 1267.940 893.411, 1271.526 888.288, 1274.797 886.646 C 1276.284 885.899, 1282.675 884.514, 1289 883.567 C 1319.034 879.071, 1336.131 874.458, 1356.279 865.415 C 1381.411 854.135, 1408.979 831.971, 1422.238 812.387 C 1433.407 795.891, 1444.804 767.401, 1447.093 750.257 C 1448.720 738.068, 1447.745 719.347, 1445.034 710.723 C 1440.936 697.690, 1431.380 682.886, 1422.056 675.126 C 1411.387 666.247, 1388.505 652.797, 1362 639.825 C 1322.688 620.586, 1286.994 606.743, 1280.834 608.350 C 1277.338 609.261, 1268.996 615.966, 1265.545 620.639 C 1263.870 622.906, 1259.917 629.427, 1256.760 635.130 C 1237.603 669.738, 1232.905 676.990, 1215.919 698.168 C 1202.054 715.454, 1178.289 740.285, 1159.833 756.769 C 1141.404 773.229, 1110.148 795.551, 1087.500 808.428 C 1080.900 812.180, 1074.150 816.020, 1072.500 816.960 C 1070.850 817.901, 1061.850 822.628, 1052.500 827.465 C 1043.150 832.302, 1033.195 837.551, 1030.378 839.130 C 1027.561 840.708, 1024.484 842, 1023.540 842 C 1022.595 842, 1017.475 839.918, 1012.161 837.373 C 995.171 829.235, 968.783 816.064, 967.623 815.141 C 967.005 814.651, 963.350 812.547, 959.500 810.468 C 942.578 801.327, 910.914 779.706, 895.920 767.053 C 892.301 763.999, 887.052 759.580, 884.256 757.234 C 871.011 746.121, 837.250 710.005, 827.784 696.823 C 826.077 694.446, 824.414 692.275, 824.090 692 C 822.986 691.065, 811.472 675.518, 808.667 671.176 C 807.131 668.798, 803.356 662.498, 800.279 657.176 C 797.202 651.854, 793.384 645.250, 791.794 642.500 C 790.205 639.750, 786.950 633.450, 784.561 628.500 C 782.173 623.550, 778.932 618.308, 777.359 616.851 C 773.082 612.888, 764.886 607.998, 762.554 608.017 C 761.424 608.027, 755.951 609.569, 750.392 611.445 M 749.500 632.908 C 744 635.024, 733.875 639.329, 727 642.476 C 720.125 645.623, 711.125 649.664, 707 651.456 C 662.931 670.603, 638.888 684.641, 629.251 696.850 C 622.333 705.616, 618.522 713.702, 616.360 724.204 C 614.785 731.855, 614.733 733.817, 615.889 741.985 C 618.096 757.575, 623.676 775.020, 630.067 786.310 C 630.631 787.305, 632.668 791.039, 634.594 794.607 C 647.703 818.885, 672.750 839.098, 705.302 851.670 C 723.819 858.821, 738.592 862.200, 765.613 865.462 C 782.372 867.486, 783.378 867.721, 786.304 870.311 C 787.664 871.515, 793.762 881.950, 799.855 893.500 C 828.077 947.001, 844.118 996.150, 847.996 1041 C 848.543 1047.325, 849.330 1055.875, 849.745 1060 L 850.500 1067.500 1021.439 1067.753 C 1149.848 1067.943, 1192.556 1067.718, 1193.092 1066.851 C 1193.485 1066.216, 1194.103 1061.152, 1194.466 1055.598 C 1195.899 1033.676, 1199.401 1012.002, 1204.580 993 C 1208.523 978.533, 1217.682 951.903, 1223.324 938.500 C 1229.033 924.937, 1250.524 882.135, 1255.245 874.922 C 1259.505 868.416, 1263.864 866.530, 1278 865.077 C 1291.676 863.671, 1310.227 860.153, 1322.010 856.731 C 1354.072 847.418, 1385.097 828.048, 1401.162 807.314 C 1412.692 792.432, 1423.384 767.840, 1426.961 747.972 C 1429.537 733.669, 1429.523 728.476, 1426.888 719.608 C 1422.471 704.748, 1414.457 693.581, 1401.499 684.234 C 1391.706 677.170, 1366.763 663.815, 1344.500 653.715 C 1339 651.220, 1328.875 646.623, 1322 643.499 C 1305.345 635.931, 1286.466 628.765, 1284.272 629.178 C 1283.297 629.362, 1282.054 630.634, 1281.510 632.006 C 1278.836 638.741, 1269.450 655.902, 1261.824 668 C 1240.957 701.105, 1221.619 725.877, 1197.811 750 C 1154.974 793.404, 1119.333 817.848, 1047.500 853.091 C 1022.585 865.315, 1022.836 865.280, 1009 858.459 C 999.841 853.945, 991.764 850.128, 978 843.808 C 955.395 833.429, 926.827 816.831, 906.017 801.985 C 873.818 779.015, 836.806 742.747, 810.614 708.500 C 793.970 686.737, 774.497 656.020, 765.763 637.750 C 763.462 632.938, 761.112 629.014, 760.540 629.031 C 759.968 629.048, 755 630.793, 749.500 632.908 M 1298.723 673.834 C 1297.934 674.750, 1295.076 678.875, 1292.372 683 C 1276.931 706.561, 1262.478 726.940, 1254.084 736.986 C 1222.365 774.949, 1197.947 798.646, 1166.558 821.926 C 1153.646 831.502, 1121.272 852.661, 1109.500 859.216 C 1092.097 868.908, 1072.029 878.663, 1056.500 884.980 C 1034.617 893.881, 1025.815 897, 1022.578 897 C 1020.586 897, 1013.776 894.975, 1007.446 892.500 C 1001.116 890.025, 995.690 888, 995.388 888 C 993.618 888, 959.886 872.514, 945.500 865.097 C 894.138 838.615, 850.615 804.701, 808.343 758.223 C 793.519 741.925, 783.115 729.054, 775.017 717 C 772.615 713.425, 770.391 710.275, 770.075 710 C 769.054 709.112, 761.532 697.816, 753.595 685.250 C 749.222 678.327, 745.194 673, 744.333 673 C 741.796 673, 715.678 684.766, 695.500 694.998 C 675.724 705.026, 658.427 715.258, 652.156 720.636 C 648.544 723.735, 648.501 723.862, 648.578 731.136 C 648.667 739.607, 652.399 755.005, 657.439 767.698 C 665.484 787.960, 679.421 804.841, 694.641 812.754 C 711.107 821.317, 726.238 825.181, 775.540 833.413 C 787.112 835.346, 798.174 837.593, 800.122 838.407 C 805.792 840.776, 812.258 848.864, 821.779 865.500 C 836.301 890.875, 856.586 935.068, 866.532 963 C 873.390 982.259, 879.658 1009.396, 880.911 1025.258 C 881.335 1030.624, 882.016 1035.349, 882.424 1035.758 C 882.833 1036.166, 946.017 1036.500, 1022.833 1036.500 L 1162.500 1036.500 1163.236 1028 C 1164.989 1007.770, 1168.941 990.172, 1177.455 964.688 C 1183.846 945.561, 1200.557 907.561, 1211.181 888 C 1213.422 883.875, 1217.532 876.225, 1220.315 871 C 1229.979 852.858, 1238.265 841.466, 1243.926 838.538 C 1246.715 837.096, 1256.443 835.064, 1287.500 829.436 C 1332.392 821.302, 1349.757 814.731, 1365.339 799.980 C 1377.572 788.400, 1389.221 767.424, 1392.815 750.500 C 1396.757 731.940, 1396.733 726.961, 1392.672 721.637 C 1387.123 714.362, 1358.972 698.132, 1327.500 684.063 C 1318.700 680.129, 1310.600 676.501, 1309.500 676 C 1301.562 672.387, 1300.205 672.114, 1298.723 673.834 M 562.898 965.270 C 553.159 971.776, 554.068 986.950, 564.500 992 C 569.758 994.545, 574.034 994.533, 579.079 991.960 C 584.215 989.339, 586.992 984.793, 586.995 979 C 586.999 969.476, 580.728 963, 571.500 963 C 567.754 963, 565.344 963.636, 562.898 965.270 M 1465.801 965.190 C 1461.153 967.885, 1457.599 975.345, 1458.549 980.410 C 1460.153 988.960, 1465.531 993.467, 1474.130 993.467 C 1480.362 993.467, 1483.550 991.824, 1487.438 986.612 C 1490.169 982.951, 1490.176 974.691, 1487.451 970.049 C 1483.444 963.224, 1473.170 960.918, 1465.801 965.190 M 1013.976 975.250 C 998.354 983.154, 998.640 1003.776, 1014.485 1011.945 C 1028.440 1019.140, 1046.932 1004.731, 1042.951 989.766 C 1041.849 985.626, 1038.182 979.816, 1035.041 977.233 C 1029.433 972.623, 1020.780 971.808, 1013.976 975.250 M 491.450 1018.407 C 487.439 1020.154, 483.229 1025.256, 482.479 1029.279 C 480.907 1037.717, 487.940 1046.031, 497.240 1046.728 C 504.111 1047.244, 508.633 1044.812, 511.808 1038.895 C 514.719 1033.469, 514.313 1026.026, 510.907 1022.401 C 506.132 1017.319, 497.852 1015.618, 491.450 1018.407 M 640.778 1017.823 C 637.826 1018.995, 632.026 1025.048, 631.376 1027.637 C 629.067 1036.839, 637.107 1047, 646.698 1047 C 655.864 1047, 662 1040.878, 662 1031.732 C 662 1027.129, 661.527 1025.592, 659.297 1022.941 C 655.014 1017.851, 646.583 1015.521, 640.778 1017.823 M 1396 1017.820 C 1386.261 1022.233, 1383.326 1032.494, 1389.490 1040.576 C 1398.477 1052.359, 1417.084 1046.721, 1417.304 1032.149 C 1417.400 1025.807, 1415.954 1023.066, 1410.724 1019.674 C 1406.618 1017.012, 1399.705 1016.141, 1396 1017.820 M 1543.500 1018.412 C 1531.671 1023.669, 1531.420 1039.512, 1543.069 1045.536 C 1550.147 1049.196, 1561.090 1045.545, 1564.484 1038.393 C 1570.408 1025.909, 1556.477 1012.644, 1543.500 1018.412 M 542.077 1020.589 C 539.202 1023.007, 539.001 1023.616, 539.022 1029.839 C 539.052 1038.846, 540.743 1041.013, 548.617 1042.141 C 555.468 1043.123, 585.799 1043.066, 594.396 1042.055 C 602.629 1041.088, 605 1038.288, 605 1029.533 C 605 1023.664, 604.765 1022.980, 601.923 1020.589 L 598.847 1018 572 1018 L 545.153 1018 542.077 1020.589 M 1447 1019.268 C 1441.907 1021.891, 1440.726 1033.418, 1444.979 1039 L 1446.883 1041.500 1475.443 1041.794 L 1504.003 1042.088 1506.502 1039.589 C 1508.681 1037.410, 1509 1036.215, 1509 1030.220 C 1509 1024.128, 1508.708 1023.074, 1506.421 1020.924 L 1503.842 1018.500 1476.671 1018.240 C 1456.050 1018.043, 1448.897 1018.291, 1447 1019.268 M 562.803 1074.910 C 557.430 1078.318, 555.523 1082.680, 556.223 1089.964 C 557.057 1098.650, 564.285 1104.611, 572.968 1103.777 C 581.478 1102.959, 587 1096.777, 587 1088.067 C 587 1074.635, 574.206 1067.678, 562.803 1074.910 M 1467.032 1073.790 C 1460.515 1077.385, 1457.553 1084.089, 1458.997 1091.982 C 1461.376 1104.995, 1480.215 1108.351, 1487.730 1097.102 C 1490.388 1093.124, 1490.780 1085.802, 1488.613 1080.617 C 1485.544 1073.271, 1474.376 1069.739, 1467.032 1073.790 M 846.253 1089.775 C 845.289 1090.754, 839.775 1098.864, 834 1107.797 C 828.225 1116.730, 818.917 1131.117, 813.316 1139.769 C 807.715 1148.421, 800.783 1159.325, 797.913 1164 C 795.042 1168.675, 791.262 1174.750, 789.512 1177.500 C 783.250 1187.340, 775.675 1199.552, 774.003 1202.500 C 773.068 1204.150, 770.955 1207.750, 769.309 1210.500 C 753.641 1236.672, 741.035 1259.676, 719.168 1302 C 707.500 1324.582, 690.528 1361.213, 683.491 1379 C 681.642 1383.675, 677.348 1394.250, 673.949 1402.500 C 646.058 1470.198, 622.974 1550.618, 617.116 1600.500 C 615.314 1615.841, 615.028 1620.457, 615.800 1621.692 C 616.718 1623.158, 627.482 1624.982, 635.274 1624.992 C 642.203 1625.002, 663.040 1627.426, 675.500 1629.672 C 686.587 1631.671, 714.216 1638.349, 723 1641.152 C 736.611 1645.495, 755.094 1655.092, 768 1664.517 C 777.302 1671.309, 791.877 1679.139, 805.500 1684.661 C 821.530 1691.159, 842.557 1692.902, 858.500 1689.056 C 868.008 1686.762, 881.434 1681.460, 891.782 1675.913 C 900.779 1671.090, 901.854 1671.206, 911.500 1678.048 C 964.036 1715.310, 989.084 1726.006, 1023.785 1725.997 C 1047.678 1725.990, 1062.525 1721.734, 1092 1706.439 C 1097.687 1703.488, 1114.132 1692.657, 1124.167 1685.252 C 1136.157 1676.405, 1142.029 1673, 1145.294 1673 C 1146.734 1673, 1150.069 1674.263, 1152.706 1675.807 C 1163.049 1681.864, 1176.178 1687.107, 1187.391 1689.657 C 1192.702 1690.865, 1197.780 1691.121, 1208.920 1690.743 C 1221.466 1690.317, 1224.895 1689.820, 1233.500 1687.187 C 1244.956 1683.681, 1261.642 1675.678, 1274 1667.761 C 1309.097 1645.279, 1314.775 1642.715, 1346.500 1635.023 C 1355.850 1632.757, 1365.075 1630.512, 1367 1630.036 C 1376.121 1627.779, 1398.059 1625.189, 1413.919 1624.495 C 1421.300 1624.173, 1427.713 1623.678, 1428.169 1623.395 C 1429.424 1622.620, 1429.171 1613.854, 1427.492 1599.970 C 1426.090 1588.369, 1425.324 1583.691, 1421.361 1562.500 C 1418.981 1549.774, 1410.341 1516.023, 1404.989 1498.544 C 1398.303 1476.707, 1385.860 1440.473, 1382.997 1434.500 C 1382.470 1433.400, 1380.616 1428.675, 1378.878 1424 C 1372.192 1406.017, 1370.974 1403.001, 1363.649 1386.313 C 1359.499 1376.859, 1353.549 1363.134, 1350.426 1355.813 C 1344.346 1341.562, 1320.641 1292.993, 1311.715 1276.500 C 1298.943 1252.900, 1290.961 1238.574, 1285.571 1229.576 C 1283.239 1225.684, 1277.404 1215.750, 1272.602 1207.500 C 1267.801 1199.250, 1261.503 1188.675, 1258.608 1184 C 1255.712 1179.325, 1250.456 1170.775, 1246.928 1165 C 1243.399 1159.225, 1238.259 1151.032, 1235.506 1146.792 C 1232.753 1142.553, 1226 1132.049, 1220.500 1123.449 C 1215 1114.850, 1207.548 1103.468, 1203.940 1098.157 L 1197.380 1088.500 1022.693 1088.247 C 856.320 1088.006, 847.922 1088.079, 846.253 1089.775 M 862.410 1125.173 C 861.506 1126.922, 857.522 1133.336, 853.557 1139.426 C 839.773 1160.598, 831.476 1173.403, 827.500 1179.643 C 776.717 1259.331, 742.044 1324.858, 709.842 1402 C 687.846 1454.692, 668.230 1517.850, 653.530 1583.312 C 650.862 1595.191, 650.624 1594.800, 660.543 1594.800 C 670.154 1594.800, 675.258 1595.638, 699.500 1601.195 C 728.816 1607.915, 740.889 1612.759, 767 1628.276 C 802.545 1649.401, 825.402 1659, 840.155 1659 C 850.127 1659, 865.933 1653.976, 885.508 1644.586 C 903.690 1635.864, 907.054 1635.894, 917.864 1644.875 C 929.993 1654.950, 956.590 1672.327, 970.500 1679.263 C 988.227 1688.104, 1011.260 1695.008, 1022.948 1694.985 C 1035.711 1694.960, 1056.734 1688.676, 1076.500 1678.978 C 1089.973 1672.367, 1114.658 1656.505, 1126 1647.170 C 1140.200 1635.483, 1142.358 1635.348, 1161.295 1644.967 C 1180.380 1654.662, 1191.028 1658.179, 1203.050 1658.757 C 1214.081 1659.288, 1221.554 1657.586, 1237.697 1650.867 C 1251.111 1645.285, 1258.161 1641.626, 1279.179 1629.341 C 1307.912 1612.546, 1317.539 1608.379, 1342.500 1601.935 C 1363.106 1596.616, 1371.864 1595.074, 1383.248 1594.765 L 1392.996 1594.500 1392.998 1591.564 C 1392.999 1589.949, 1392.360 1585.899, 1391.579 1582.564 C 1390.797 1579.229, 1389.185 1572.225, 1387.997 1567 C 1382.581 1543.191, 1371.698 1504.521, 1362.810 1477.500 C 1356.175 1457.330, 1335.584 1405.738, 1322.498 1376.500 C 1321.021 1373.200, 1318.919 1368.475, 1317.826 1366 C 1312.107 1353.046, 1307.239 1342.871, 1293.904 1316 C 1285.853 1299.775, 1276.800 1282, 1273.788 1276.500 C 1262.387 1255.683, 1260.488 1252.275, 1255.682 1244 C 1250.391 1234.890, 1249.216 1232.913, 1241.500 1220.136 C 1238.750 1215.582, 1236.050 1211.087, 1235.500 1210.147 C 1233.836 1207.302, 1217.390 1180.731, 1204.154 1159.500 C 1197.296 1148.500, 1189.320 1135.675, 1186.429 1131 L 1181.173 1122.500 1022.614 1122.247 L 864.055 1121.994 862.410 1125.173 M 1016.030 1256.113 C 1007.965 1259.331, 1003 1266.661, 1003 1275.347 C 1003 1285.871, 1012.382 1295, 1023.197 1295 C 1034.204 1295, 1044.006 1285.476, 1043.996 1274.790 C 1043.990 1268.065, 1037.796 1259.222, 1031.128 1256.418 C 1027.290 1254.804, 1019.693 1254.651, 1016.030 1256.113 M 1014.227 1343.116 C 1005.739 1347.318, 1000.783 1356.767, 1002.915 1364.683 C 1005.195 1373.153, 1011.720 1379.101, 1020.324 1380.555 C 1032.445 1382.603, 1045.750 1370.140, 1043.611 1358.740 C 1042.647 1353.603, 1037.348 1346.288, 1032.554 1343.479 C 1027.143 1340.308, 1020.180 1340.170, 1014.227 1343.116 M 1013.907 1429.307 C 1011.166 1430.742, 1008.235 1433.482, 1006.153 1436.557 C 1003.076 1441.102, 1002.838 1442, 1003.198 1447.713 C 1003.672 1455.226, 1006.965 1460.003, 1014.582 1464.227 C 1024.266 1469.596, 1034.584 1466.455, 1041.119 1456.151 C 1046.446 1447.751, 1044.679 1439.365, 1035.886 1431.317 C 1030.494 1426.382, 1021.131 1425.526, 1013.907 1429.307 M 1013.595 1511.266 C 1007.322 1514.855, 1003.742 1520.068, 1003.219 1526.378 C 1002.600 1533.834, 1004.320 1538.231, 1009.710 1542.976 C 1017.090 1549.472, 1024.415 1550.380, 1033.217 1545.889 C 1037.546 1543.681, 1042.530 1537.362, 1043.923 1532.316 C 1045.817 1525.456, 1040.815 1515.906, 1032.752 1510.990 C 1028.100 1508.154, 1018.803 1508.288, 1013.595 1511.266" stroke="none" fill="black" fill-rule="evenodd"/>
</svg>