<svg xmlns="http://www.w3.org/2000/svg" width="2048" height="2048" viewBox="0 0 2048 2048" version="1.1">
	<path d="M 1567 747 C 1565.625 747.440, 1562.864 747.845, 1560.864 747.900 C 1553.272 748.108, 1548.294 751.937, 1516.534 782 C 1491.594 805.606, 1460.339 828.489, 1434.500 842.061 C 1427.900 845.527, 1420.458 849.564, 1417.961 851.031 C 1411.014 855.115, 1362.720 878.688, 1352 883.228 C 1346.775 885.441, 1340.669 888.069, 1338.431 889.068 C 1336.193 890.068, 1332.593 891.527, 1330.431 892.311 C 1328.269 893.095, 1318.400 896.755, 1308.500 900.444 C 1276.527 912.360, 1244.145 922.543, 1225.244 926.624 C 1168.750 938.822, 1160.477 940.096, 1122.081 942.503 C 1073.451 945.552, 1006.851 945.338, 967.667 942.008 C 927.943 938.632, 894.842 934.777, 873 930.983 C 866.675 929.884, 854.300 927.846, 845.500 926.455 C 836.700 925.063, 823.200 922.611, 815.500 921.006 C 807.800 919.401, 791.375 916.025, 779 913.504 C 740.991 905.760, 732.061 903.420, 674 885.986 C 663.275 882.765, 650.675 879.147, 646 877.944 C 638.250 875.950, 625.197 872.195, 612.628 868.343 C 609.948 867.522, 604.250 865.309, 599.966 863.425 C 595.681 861.541, 591.574 860, 590.838 860.001 C 589.440 860.002, 582.522 857.878, 542 845.006 C 528.525 840.725, 516.150 836.965, 514.500 836.650 C 512.850 836.334, 504.750 834.660, 496.500 832.929 C 475.008 828.420, 464.924 827.191, 453.058 827.637 C 444.679 827.951, 441.617 828.501, 437.558 830.417 C 427.095 835.358, 421.272 843.813, 418.907 857.500 C 417.758 864.151, 418 897.657, 419.492 938.500 C 419.753 945.650, 420.199 959.107, 420.483 968.403 C 420.767 977.700, 421.868 991.425, 422.929 998.903 C 423.990 1006.382, 425.590 1018.575, 426.486 1026 C 429.031 1047.115, 434.149 1073.650, 438.635 1089 C 449.787 1127.159, 460.382 1155.516, 470.937 1175.456 C 485.112 1202.236, 488.395 1207.551, 503.967 1228.944 C 511.147 1238.808, 512.483 1241.957, 510.587 1244.551 C 509.148 1246.518, 503.085 1250.236, 496 1253.496 C 492.975 1254.888, 489.681 1256.495, 488.679 1257.066 C 486.886 1258.090, 476.208 1261.645, 462.500 1265.784 C 430.379 1275.481, 374.865 1277.935, 346.500 1270.912 C 322.079 1264.866, 287.085 1249.163, 279.179 1240.704 C 277.903 1239.338, 274.875 1237.665, 272.450 1236.986 C 268.695 1235.935, 267.536 1235.993, 264.620 1237.376 C 262.738 1238.269, 260.787 1239, 260.284 1239 C 259.782 1239, 258.612 1240.590, 257.685 1242.534 C 254.250 1249.738, 256.130 1258.086, 262.790 1265.206 C 266.612 1269.293, 270.621 1271.740, 285.956 1279.347 C 305.265 1288.925, 309.495 1290.855, 317 1293.510 C 324.505 1296.164, 340.968 1299.819, 350.500 1300.947 C 355.450 1301.533, 364.225 1302.675, 370 1303.484 C 394.237 1306.883, 443.118 1303.859, 468.500 1297.392 C 484.862 1293.222, 505.900 1283.323, 525.186 1270.719 C 538.396 1262.086, 555.764 1254.144, 569 1250.685 C 592.251 1244.609, 601.238 1243.682, 618 1245.627 C 624.875 1246.424, 633.650 1247.304, 637.500 1247.582 C 651.880 1248.619, 660.046 1250.338, 696.500 1260.004 C 711.222 1263.908, 722.407 1268.379, 736.927 1276.167 C 749.432 1282.874, 760.939 1288.939, 774.500 1295.972 C 788.585 1303.277, 789.121 1304.736, 779.323 1309.095 C 775.571 1310.765, 770.592 1313.002, 768.261 1314.066 C 765.929 1315.130, 763.786 1316, 763.498 1316 C 763.210 1316, 757.243 1318.407, 750.237 1321.350 C 728.963 1330.285, 702.658 1338.365, 689.538 1339.995 C 677.124 1341.538, 658.707 1341.326, 648.500 1339.524 C 643.550 1338.650, 634.100 1336.175, 627.500 1334.024 C 620.900 1331.874, 612.575 1329.658, 609 1329.102 C 599.573 1327.634, 574.744 1327.046, 565.839 1328.080 C 557.453 1329.053, 541.584 1332.856, 535.900 1335.254 C 533.920 1336.089, 527.463 1337.984, 521.552 1339.464 C 508.551 1342.719, 502.497 1345.204, 501.070 1347.869 C 499.426 1350.942, 499.792 1355.673, 502.013 1360.025 C 506.066 1367.970, 511.013 1369.032, 527.500 1365.494 C 534.100 1364.078, 542.200 1362.464, 545.500 1361.907 C 548.800 1361.350, 555.100 1359.924, 559.500 1358.738 C 572.450 1355.247, 598 1355.675, 616.500 1359.694 C 620.350 1360.531, 625.300 1361.597, 627.500 1362.063 C 629.700 1362.530, 634.200 1363.653, 637.500 1364.559 C 655.407 1369.477, 660.329 1370.194, 675.872 1370.149 C 694.042 1370.097, 707.924 1368.679, 717.293 1365.918 C 731.392 1361.763, 782.392 1340.744, 801.694 1331.133 C 817.214 1323.406, 826.816 1320.771, 845.631 1319.078 C 860.999 1317.695, 895.720 1319.342, 906.500 1321.965 C 921.995 1325.735, 928.153 1327, 931.017 1327 C 935.967 1327, 954.683 1334.311, 974.500 1343.985 C 984.950 1349.086, 998.649 1355.472, 1004.943 1358.175 C 1011.236 1360.878, 1017.761 1363.726, 1019.443 1364.505 C 1021.124 1365.283, 1025.865 1367.257, 1029.977 1368.891 C 1035.900 1371.244, 1037.638 1372.413, 1038.339 1374.518 C 1038.835 1376.006, 1038.845 1377.517, 1038.362 1377.953 C 1037.888 1378.381, 1033.900 1380.109, 1029.500 1381.793 C 1020.730 1385.150, 1011.339 1389.159, 994.451 1396.757 C 988.374 1399.492, 974.437 1404.762, 963.480 1408.469 C 945.134 1414.676, 942.449 1415.315, 929.534 1416.544 C 914.800 1417.947, 904.233 1417.570, 870.976 1414.454 C 833.756 1410.967, 795.963 1413.834, 779.443 1421.398 C 770.229 1425.616, 750.829 1437.674, 737.500 1447.468 C 730.350 1452.721, 720.991 1459.113, 716.702 1461.672 C 708.052 1466.834, 705.035 1470.273, 704.312 1475.797 C 703.708 1480.418, 706.958 1485.686, 712.020 1488.290 C 720.090 1492.441, 730.039 1487.951, 753.500 1469.571 C 766.375 1459.484, 786.032 1448.962, 797.768 1445.876 C 804.514 1444.101, 808.452 1443.850, 828.651 1443.901 C 858.110 1443.976, 877.265 1445.394, 885.275 1448.093 C 888.630 1449.223, 896.163 1450.777, 902.016 1451.546 C 913.915 1453.109, 930.223 1458.827, 944.423 1466.415 C 948.865 1468.789, 953.604 1471.076, 954.953 1471.498 C 956.302 1471.919, 964.472 1475.742, 973.109 1479.993 C 991.948 1489.266, 1013.007 1496.747, 1037.500 1502.870 C 1048.395 1505.593, 1068.724 1508.638, 1082 1509.534 C 1086.675 1509.850, 1095.055 1510.520, 1100.622 1511.024 C 1113.638 1512.201, 1125.637 1510.975, 1140 1507 C 1141.925 1506.467, 1145.380 1505.566, 1147.677 1504.997 C 1153.164 1503.638, 1158 1497.426, 1158 1491.737 C 1158 1486.674, 1156.850 1484.709, 1152.276 1481.955 C 1148.602 1479.743, 1147.702 1479.675, 1119 1479.450 C 1090.125 1479.224, 1078.085 1478.340, 1065 1475.482 C 1029.115 1467.646, 1012.703 1463.030, 994 1455.510 C 971.764 1446.569, 961 1441.704, 961.032 1440.607 C 961.105 1438.056, 963.986 1436.035, 969.564 1434.622 C 989.794 1429.496, 997.174 1427.088, 1011.500 1420.937 C 1029.166 1413.353, 1060.785 1401.510, 1067.317 1400.031 C 1069.618 1399.511, 1074.183 1398.157, 1077.463 1397.023 C 1088.899 1393.069, 1123.820 1390.640, 1160.500 1391.247 C 1187.995 1391.702, 1188.698 1391.766, 1199.500 1394.774 C 1220.945 1400.747, 1227.904 1403.553, 1246.899 1413.888 C 1276.557 1430.025, 1311.397 1441.604, 1341.842 1445.444 C 1357.664 1447.439, 1380.161 1447.430, 1396.030 1445.422 C 1406.599 1444.085, 1410.362 1444.029, 1420.714 1445.056 C 1438.879 1446.857, 1444.161 1445.525, 1447.898 1438.200 C 1449.484 1435.091, 1449.665 1433.591, 1448.930 1429.656 C 1447.728 1423.223, 1445.344 1418.455, 1442.345 1416.491 C 1435.381 1411.928, 1413.930 1411.005, 1385.500 1414.045 C 1357.823 1417.004, 1320.693 1411.785, 1295.183 1401.349 C 1290.407 1399.395, 1284.925 1397.347, 1283 1396.797 C 1278.136 1395.408, 1262.218 1388.771, 1251.713 1383.751 C 1245.377 1380.723, 1242.770 1378.933, 1242.369 1377.333 C 1241.691 1374.633, 1242.576 1373, 1244.716 1373 C 1245.594 1373, 1260.755 1365.837, 1278.407 1357.083 C 1296.058 1348.329, 1312.300 1340.417, 1314.500 1339.502 C 1324.369 1335.395, 1337.949 1330.829, 1344.129 1329.540 C 1347.836 1328.767, 1354.386 1326.597, 1358.685 1324.717 C 1368.509 1320.421, 1379.240 1319.272, 1408 1319.438 C 1426.340 1319.544, 1429.290 1319.798, 1436 1321.855 C 1447.880 1325.495, 1459.427 1331.012, 1490.500 1347.896 C 1525.238 1366.771, 1536.096 1371.577, 1555 1376.447 C 1571.293 1380.645, 1583.182 1383.027, 1605.500 1386.564 C 1619.712 1388.816, 1651.657 1390.150, 1662.860 1388.959 C 1672.747 1387.908, 1682.908 1385.277, 1688.866 1382.225 C 1694.547 1379.314, 1696.909 1368.696, 1692.984 1363.707 C 1689.501 1359.279, 1685.300 1358.566, 1664.500 1358.867 C 1634.480 1359.303, 1608.445 1357.014, 1581 1351.528 C 1579.625 1351.253, 1576.025 1350.526, 1573 1349.912 C 1553.828 1346.023, 1520.786 1331.893, 1496.564 1317.227 C 1491.649 1314.251, 1483.099 1309.809, 1477.564 1307.356 C 1472.029 1304.903, 1467.222 1302.581, 1466.882 1302.198 C 1466.542 1301.814, 1466.011 1300.137, 1465.701 1298.470 C 1465.167 1295.596, 1465.663 1295.046, 1475.319 1287.793 C 1480.919 1283.586, 1489.271 1276.731, 1493.880 1272.559 C 1498.490 1268.386, 1503.440 1264.746, 1504.880 1264.469 C 1506.321 1264.192, 1509.525 1263.325, 1512 1262.543 C 1514.475 1261.761, 1519.122 1261.126, 1522.326 1261.132 C 1525.531 1261.138, 1530.931 1260.851, 1534.326 1260.495 C 1544.516 1259.427, 1562.294 1265.137, 1596.198 1280.369 C 1600.692 1282.388, 1617.733 1287.777, 1628 1290.427 C 1637.437 1292.863, 1646.087 1294.543, 1659.500 1296.545 C 1668.300 1297.859, 1681.800 1300.128, 1689.500 1301.588 C 1702.135 1303.983, 1705.654 1304.234, 1725.599 1304.157 C 1745.200 1304.082, 1749.156 1303.779, 1760.599 1301.477 C 1779.452 1297.683, 1787.465 1293.582, 1790.587 1286.128 C 1792.315 1282.004, 1792.350 1280.088, 1790.786 1275.080 C 1789.823 1271.992, 1788.684 1270.759, 1785.260 1269.095 C 1779.590 1266.341, 1777.085 1266.433, 1758.337 1270.085 C 1744.759 1272.730, 1740.289 1273.166, 1727 1273.146 C 1710.438 1273.122, 1688.996 1270.856, 1660.451 1266.115 C 1653.878 1265.023, 1644.412 1263.465, 1639.415 1262.653 C 1625.491 1260.389, 1602.379 1252.728, 1595.915 1248.234 C 1585.945 1241.301, 1561.740 1232.954, 1549.500 1232.228 C 1545.100 1231.967, 1540.807 1231.393, 1539.960 1230.953 C 1538.264 1230.073, 1537.399 1223.489, 1538.861 1222.586 C 1539.363 1222.276, 1541.904 1217.854, 1544.508 1212.761 C 1547.111 1207.667, 1551.282 1200.350, 1553.777 1196.500 C 1556.271 1192.650, 1561.344 1183.425, 1565.049 1176 C 1568.755 1168.575, 1572.924 1160.845, 1574.314 1158.823 C 1575.704 1156.800, 1578.479 1150.950, 1580.481 1145.823 C 1582.484 1140.695, 1585.416 1133.575, 1586.999 1130 C 1593.316 1115.729, 1599.377 1095.582, 1601.564 1081.583 C 1601.901 1079.429, 1602.634 1076.504, 1603.194 1075.083 C 1604.429 1071.950, 1610.699 1033.024, 1611.985 1020.500 C 1612.494 1015.550, 1613.426 1005.875, 1614.056 999 C 1614.687 992.125, 1615.579 982.900, 1616.039 978.500 C 1616.498 974.100, 1616.900 956.325, 1616.932 939 C 1616.985 910.374, 1616.720 905.128, 1614.028 881.500 C 1612.398 867.200, 1609.916 848.975, 1608.513 841 C 1607.110 833.025, 1604.403 817.500, 1602.499 806.500 C 1595.328 765.070, 1594.951 763.756, 1587.674 754.854 C 1581.586 747.405, 1574.336 744.651, 1567 747 M 1557.377 799.300 C 1555.245 801.666, 1550.609 807.403, 1547.075 812.050 C 1531.609 832.389, 1464.973 894.638, 1439 913.009 C 1434.875 915.927, 1429.573 920.001, 1427.217 922.062 C 1424.861 924.124, 1419.911 927.670, 1416.217 929.943 C 1412.523 932.216, 1404.325 937.691, 1398 942.110 C 1391.675 946.530, 1385.563 950.523, 1384.418 950.984 C 1383.274 951.445, 1379.190 953.858, 1375.345 956.346 C 1368.309 960.897, 1366.953 961.669, 1350.500 970.478 C 1339.017 976.627, 1323.277 985.684, 1319.846 988.117 C 1318.386 989.153, 1316.768 990, 1316.251 990 C 1315.733 990, 1314.552 990.838, 1313.625 991.861 C 1312.699 992.885, 1310.042 994.528, 1307.720 995.511 C 1305.399 996.495, 1301.700 998.096, 1299.500 999.070 C 1289.834 1003.349, 1264.145 1013.851, 1260.500 1015.013 C 1258.300 1015.715, 1252.900 1017.973, 1248.500 1020.030 C 1237.114 1025.353, 1230.896 1028, 1229.774 1028 C 1229.240 1028, 1227.384 1028.610, 1225.651 1029.355 C 1221.257 1031.246, 1171.125 1047.462, 1162 1049.944 C 1157.875 1051.067, 1150.450 1053.147, 1145.500 1054.567 C 1117.104 1062.715, 1073.316 1072.401, 1053 1075.029 C 1048.325 1075.634, 1040.450 1076.980, 1035.500 1078.019 C 1014.663 1082.395, 977.117 1086.950, 941 1089.483 C 928.625 1090.351, 912.425 1091.607, 905 1092.275 C 887.906 1093.811, 850.690 1093.737, 823.500 1092.113 C 800.232 1090.723, 770.886 1086.797, 743.500 1081.412 C 716.837 1076.169, 712.237 1075.137, 704 1072.554 C 699.875 1071.261, 694.931 1069.873, 693.012 1069.469 C 691.094 1069.066, 687.044 1067.696, 684.012 1066.424 C 678.466 1064.097, 673.080 1062.051, 656.500 1055.973 C 644.318 1051.506, 620.512 1039.866, 603.500 1030.058 C 595.800 1025.619, 586.438 1020.302, 582.695 1018.243 C 572.675 1012.731, 546.114 994.984, 533.500 985.373 C 497.990 958.317, 485.745 946.347, 463.504 916.950 C 459.142 911.185, 458.149 910.400, 455.216 910.400 L 451.884 910.400 452.414 916.450 C 452.705 919.778, 453.204 932.625, 453.521 945 C 454.124 968.495, 455.395 989.260, 457.010 1002 C 457.533 1006.125, 458.668 1015.350, 459.532 1022.500 C 461.123 1035.667, 465.022 1056.115, 469.483 1074.686 C 475.294 1098.872, 485.455 1125.750, 500.474 1156.663 C 510.270 1176.825, 512.865 1181.147, 521.993 1192.500 C 525.089 1196.350, 530.069 1203.088, 533.061 1207.473 C 540.121 1217.822, 545.277 1223, 548.523 1223 C 549.911 1223, 556.323 1221.458, 562.773 1219.573 C 569.223 1217.688, 577.736 1215.663, 581.692 1215.073 C 592.012 1213.533, 623.624 1213.792, 635.500 1215.512 C 641 1216.309, 647.750 1216.972, 650.500 1216.985 C 656.933 1217.015, 679.995 1221.821, 695.979 1226.462 C 710.577 1230.701, 719.623 1234.573, 745.500 1247.656 C 792.945 1271.645, 816.839 1283.407, 821.959 1285.293 C 826.974 1287.141, 830.065 1287.353, 854.500 1287.519 C 870.264 1287.626, 889.144 1288.402, 899.869 1289.383 C 909.971 1290.308, 923.471 1291.129, 929.869 1291.209 C 941.526 1291.353, 944.398 1290.747, 954.500 1286.006 C 955.600 1285.490, 966.568 1281.421, 978.874 1276.963 C 991.180 1272.505, 1006.930 1266.579, 1013.874 1263.794 C 1020.818 1261.008, 1029.425 1257.720, 1033 1256.487 C 1036.575 1255.253, 1047.150 1251.103, 1056.500 1247.264 C 1071.959 1240.917, 1086.330 1236.157, 1099.376 1233.064 C 1107.992 1231.021, 1135.137 1230.635, 1148.500 1232.365 C 1164.150 1234.391, 1186.288 1241.081, 1199.660 1247.826 C 1202.872 1249.446, 1209.526 1252.192, 1214.448 1253.927 C 1219.369 1255.663, 1223.934 1257.530, 1224.592 1258.076 C 1226.446 1259.615, 1237.940 1265.056, 1243.500 1267.027 C 1246.250 1268.002, 1251.999 1270.414, 1256.276 1272.386 C 1260.552 1274.359, 1269.612 1277.540, 1276.408 1279.455 C 1283.204 1281.370, 1290.973 1283.807, 1293.673 1284.871 C 1296.372 1285.935, 1303.963 1288.040, 1310.541 1289.549 C 1327.502 1293.440, 1346.356 1293.972, 1365.630 1291.103 C 1373.401 1289.946, 1383.526 1288.991, 1388.130 1288.980 C 1397.799 1288.957, 1411.695 1285.743, 1419.652 1281.690 C 1433.006 1274.888, 1448.190 1265.836, 1455 1260.617 C 1463.831 1253.850, 1495.337 1222.915, 1501.459 1215 C 1519.468 1191.716, 1539.124 1158.025, 1549.300 1133 C 1559.607 1107.654, 1571.080 1063.745, 1575.951 1031 C 1580.071 1003.308, 1580.924 993.575, 1582.130 960.444 C 1583.364 926.545, 1582.781 904.878, 1580.069 883.847 C 1579.548 879.806, 1578.610 872, 1577.985 866.500 C 1577.359 861, 1576.447 854.700, 1575.957 852.500 C 1574.020 843.798, 1567 803.175, 1567 800.667 C 1567 798.939, 1566.461 798, 1565.469 798 C 1564.626 798, 1563.678 797.325, 1563.362 796.500 C 1562.484 794.212, 1561.586 794.632, 1557.377 799.300 M 466.766 863.750 C 465.687 864.972, 465.488 866.103, 466.104 867.500 C 468.214 872.281, 475.899 883.317, 480.517 888.198 C 483.277 891.114, 486.818 895.075, 488.387 897 C 498.267 909.124, 533.431 944.447, 541 949.851 C 549.429 955.869, 562.913 965.696, 570.500 971.348 C 581.401 979.469, 610.883 996, 614.467 996 C 618.557 996, 626.502 993.058, 632 989.507 C 639.568 984.620, 653.555 977.924, 668.741 971.918 C 675.758 969.142, 684.650 965.586, 688.500 964.015 C 695.271 961.252, 727.772 949.455, 735.103 947.100 C 739.430 945.709, 744.063 941.290, 741.900 940.616 C 739.624 939.906, 699.777 929.419, 682.986 925.111 C 674.453 922.921, 666.128 920.616, 664.486 919.989 C 661.686 918.919, 653.700 916.504, 621.196 906.896 C 613.880 904.734, 603.980 901.603, 599.196 899.939 C 594.413 898.275, 586.450 895.785, 581.500 894.406 C 571.068 891.500, 558.209 887.640, 538.500 881.497 C 514.731 874.090, 501.906 870.259, 491.500 867.458 C 486 865.977, 479.507 864.144, 477.072 863.383 C 471.196 861.548, 468.628 861.639, 466.766 863.750 M 1407 895.509 C 1404.525 896.839, 1399.125 899.261, 1395 900.891 C 1386.868 904.104, 1363.813 914.974, 1363 915.978 C 1362.725 916.318, 1361.037 917.618, 1359.250 918.866 C 1357.463 920.115, 1356 921.540, 1356 922.033 C 1356 923.988, 1359.647 924.868, 1363.565 923.859 C 1365.729 923.302, 1368.571 922.881, 1369.879 922.923 C 1372.761 923.015, 1381.765 918.124, 1399 907.105 C 1406.104 902.563, 1413.339 896.295, 1413.610 894.449 C 1413.907 892.430, 1412.227 892.699, 1407 895.509 M 1281.500 947.636 C 1265.757 953.511, 1248.558 958.597, 1232.500 962.128 C 1212.281 966.574, 1189.236 975.251, 1172.079 984.880 C 1167.361 987.528, 1157.200 992.759, 1149.500 996.505 C 1141.800 1000.251, 1124.174 1008.821, 1110.331 1015.550 C 1088.842 1025.996, 1084.928 1028.239, 1083.556 1030.892 C 1081.985 1033.930, 1082 1034, 1084.224 1033.988 C 1085.476 1033.982, 1088.975 1033.294, 1092 1032.460 C 1095.025 1031.626, 1102.768 1029.848, 1109.206 1028.509 C 1125.401 1025.140, 1137.014 1021.645, 1141.611 1018.757 C 1143.750 1017.413, 1153.375 1013.712, 1163 1010.533 C 1172.625 1007.353, 1184.100 1003.288, 1188.500 1001.500 C 1192.900 999.713, 1203.700 995.736, 1212.500 992.664 C 1240.418 982.917, 1257.391 974.756, 1275.934 962.162 C 1287.930 954.014, 1291.710 950.989, 1289.934 950.958 C 1287.611 950.919, 1287.671 950.766, 1291.250 947.602 C 1294.848 944.422, 1295.851 942.910, 1294.250 943.079 C 1293.838 943.123, 1288.100 945.173, 1281.500 947.636 M 790 956.187 C 784.775 958.368, 775.100 962.114, 768.500 964.512 C 716.271 983.486, 653.008 1011.002, 652.222 1015.087 C 651.891 1016.805, 666.185 1022.889, 676.626 1025.474 L 682.753 1026.991 691.626 1023.647 C 696.507 1021.808, 710.850 1015.994, 723.500 1010.725 C 759.633 995.677, 769.420 992.013, 822 973.842 C 843.701 966.343, 845.839 965.424, 850.343 961.655 L 853.186 959.277 845.843 958.588 C 837.151 957.773, 829.070 956.523, 815.642 953.915 C 810.220 952.862, 804.370 952.050, 802.642 952.111 C 800.914 952.172, 795.225 954.006, 790 956.187 M 903 973.346 C 897.775 975.175, 890.125 978.292, 886 980.274 C 877.285 984.461, 872.255 986.452, 834.500 1000.663 C 819.100 1006.459, 797.050 1014.928, 785.500 1019.484 C 773.950 1024.039, 760.675 1029.208, 756 1030.970 C 748.466 1033.810, 738.736 1040.118, 740.023 1041.328 C 740.286 1041.575, 743.650 1042.080, 747.500 1042.452 C 751.350 1042.824, 759.225 1043.769, 765 1044.554 C 791.470 1048.148, 835.406 1051.062, 879.500 1052.148 C 947.443 1053.821, 967.460 1052.304, 999.460 1043.058 C 1009.768 1040.079, 1024.890 1033.463, 1055 1018.759 C 1062.975 1014.864, 1075.575 1008.874, 1083 1005.448 C 1115.474 990.463, 1121.368 987.311, 1126 982.456 L 1130.500 977.739 1127 978.396 C 1101.648 983.156, 1066.681 985.033, 1039 983.121 C 1018.092 981.678, 991.836 979.237, 984.500 978.056 C 981.200 977.525, 972.875 976.593, 966 975.985 C 959.125 975.377, 944.950 973.783, 934.500 972.443 C 924.050 971.103, 914.825 970.009, 914 970.013 C 913.175 970.017, 908.225 971.517, 903 973.346 M 1099 1260.382 C 1097.075 1261.094, 1092.575 1262.930, 1089 1264.463 C 1085.425 1265.996, 1077.306 1268.977, 1070.958 1271.088 C 1055.882 1276.101, 1049.022 1279.191, 1042.686 1283.821 C 1039.254 1286.329, 1033.610 1288.885, 1026 1291.376 C 1013.419 1295.494, 988.560 1306.235, 985.706 1308.786 C 984.719 1309.668, 984.044 1311.130, 984.206 1312.035 C 984.893 1315.878, 1049.482 1346.495, 1064.500 1350.096 C 1067.250 1350.756, 1071.075 1352.067, 1073 1353.010 C 1074.925 1353.953, 1081 1355.474, 1086.500 1356.391 C 1092 1357.307, 1098.975 1358.475, 1102 1358.986 C 1110.280 1360.383, 1149.538 1360.134, 1175.500 1358.518 C 1195.650 1357.264, 1199.739 1356.716, 1208.500 1354.092 C 1227.845 1348.299, 1233.094 1346.053, 1267.841 1328.705 C 1281.770 1321.751, 1286.518 1318.899, 1287.577 1316.851 L 1288.972 1314.154 1282.736 1312.209 C 1279.306 1311.140, 1273.851 1309.488, 1270.613 1308.538 C 1267.375 1307.588, 1258.770 1303.695, 1251.490 1299.886 C 1239.884 1293.813, 1231.503 1290.499, 1209 1283.080 C 1205.975 1282.083, 1199.450 1279.673, 1194.500 1277.724 C 1189.550 1275.776, 1181 1272.807, 1175.500 1271.127 C 1170 1269.448, 1160.133 1266.437, 1153.574 1264.436 C 1147.015 1262.435, 1138.915 1260.403, 1135.574 1259.919 C 1126.290 1258.576, 1103.092 1258.869, 1099 1260.382" stroke="none" fill="black" fill-rule="evenodd"/>
</svg>