<svg xmlns="http://www.w3.org/2000/svg" width="2048" height="2048" viewBox="0 0 2048 2048" version="1.1">
	<path d="M 1020.388 425.636 C 1017.152 426.351, 1012.941 431.339, 1011.944 435.638 C 1011.451 437.762, 1011.037 446.337, 1011.024 454.694 C 1010.990 476.102, 1012.507 474.834, 986.248 475.402 C 968.006 475.796, 965.666 476.043, 962.670 477.895 C 958.647 480.381, 956.999 483.698, 957.004 489.297 C 957.008 494.631, 960.056 499.719, 964.272 501.431 C 967.517 502.749, 983.789 503.973, 998.295 503.991 C 1005.232 503.999, 1006.361 504.270, 1008.545 506.455 C 1010.937 508.846, 1011 509.302, 1011.006 524.205 C 1011.012 542.090, 1011.800 545.739, 1016.559 549.918 C 1019.606 552.593, 1020.824 553, 1025.785 552.996 C 1032.084 552.992, 1036.935 550.750, 1039.186 546.804 C 1040.079 545.238, 1040.662 538.658, 1041.004 526.274 C 1041.674 502.053, 1039.831 503.826, 1064.796 503.382 C 1075.223 503.196, 1084.884 502.614, 1086.264 502.090 C 1096.959 498.024, 1097.872 482.694, 1087.741 477.324 C 1085.012 475.878, 1081.445 475.598, 1065.164 475.553 L 1045.828 475.500 1043.414 472.694 C 1041.073 469.974, 1041 469.389, 1041 453.412 C 1041 435.578, 1040.329 432.410, 1035.637 428.083 C 1033.670 426.269, 1031.703 425.604, 1027.758 425.418 C 1024.866 425.281, 1021.549 425.380, 1020.388 425.636 M 1018.741 474.372 C 1013.564 476.298, 1012.364 477.480, 1010.421 482.567 C 1005.877 494.465, 1013.260 505.002, 1026.136 504.998 C 1033.515 504.996, 1037.957 502.577, 1040.750 497.038 C 1045.017 488.576, 1042.893 479.517, 1035.794 475.895 C 1030.617 473.254, 1023.463 472.615, 1018.741 474.372 M 1245.271 507.312 C 1239.937 510.926, 1239 514.857, 1239 533.616 C 1239 548.634, 1238.811 550.457, 1236.983 553.023 L 1234.967 555.856 1214.233 556.178 C 1195.845 556.464, 1193.183 556.715, 1190.699 558.398 C 1182.679 563.834, 1183.287 577.840, 1191.725 582.036 C 1193.670 583.003, 1200.432 583.578, 1214.340 583.958 L 1234.179 584.500 1236.590 587.306 C 1238.926 590.026, 1239.001 590.622, 1239.022 606.806 C 1239.049 627.180, 1240.045 630.391, 1247.451 633.976 C 1255.066 637.662, 1262.063 635.429, 1266.500 627.895 C 1268.253 624.919, 1268.540 622.341, 1268.825 607 C 1269.143 589.878, 1269.204 589.443, 1271.666 586.850 L 1274.183 584.199 1294.842 583.837 C 1313.273 583.513, 1315.811 583.265, 1318.386 581.533 C 1321.965 579.126, 1324 574.440, 1324 568.609 C 1324 563.073, 1320.532 558.520, 1315.186 557.035 C 1313.159 556.472, 1303.123 556.009, 1292.885 556.006 C 1275.571 556, 1274.085 555.855, 1271.635 553.927 L 1269 551.855 1268.978 534.677 C 1268.953 515.095, 1267.809 510.683, 1261.808 507.024 C 1257.267 504.256, 1249.585 504.389, 1245.271 507.312 M 785.875 525.004 C 780.015 528.100, 779 532.063, 779 551.829 C 779 564.735, 778.672 569.067, 777.583 570.559 C 776.286 572.336, 774.444 572.547, 755.833 573.060 C 742.706 573.422, 734.608 574.061, 732.982 574.865 C 728.691 576.986, 726 581.981, 726 587.827 C 726 592.304, 726.453 593.523, 729.250 596.568 C 733.568 601.269, 737.067 601.947, 757.139 601.976 C 779.797 602.009, 778.350 600.604, 779 623.205 C 779.551 642.374, 780.083 644.187, 786.304 648.111 C 792.334 651.913, 804.922 648.956, 807.645 643.098 C 808.054 642.219, 808.638 633.773, 808.944 624.328 C 809.704 600.861, 808.572 602, 831.125 602 C 851.870 602, 856.861 601.062, 860.962 596.390 C 863.533 593.462, 864 592.112, 864 587.600 C 864 583.646, 863.440 581.558, 861.832 579.514 C 858.159 574.844, 854.663 574.074, 834.314 573.450 C 823.966 573.133, 814.565 572.687, 813.421 572.461 C 809.760 571.734, 809 567.906, 809 550.187 C 809 535.903, 808.733 532.961, 807.165 529.984 C 803.680 523.365, 793.488 520.981, 785.875 525.004 M 1460.602 538.524 C 1457.247 540.274, 1453.173 543.805, 1439.976 556.406 C 1434.738 561.408, 1425.519 570, 1419.490 575.500 C 1413.461 581, 1405.359 588.425, 1401.487 592 C 1397.616 595.575, 1389.734 602.799, 1383.974 608.054 C 1378.213 613.309, 1368.100 622.563, 1361.500 628.619 C 1354.900 634.675, 1334.200 653.507, 1315.500 670.470 C 1296.800 687.432, 1277 705.436, 1271.500 710.479 C 1249.205 730.923, 1246.593 733.167, 1242.912 735.045 C 1239.134 736.972, 1234.840 737, 941.990 737 C 681.208 737, 644.550 737.181, 642.029 738.485 C 634.099 742.586, 632.366 752.616, 638.383 759.583 L 641.765 763.500 660.465 764 C 681.979 764.575, 681.320 764.275, 682.422 774.014 C 683.193 780.826, 694.363 823.068, 698.890 836.289 C 704.668 853.162, 717.247 884.249, 723.052 896 C 743.726 937.846, 779.162 975.207, 828.616 1007.299 C 838.650 1013.810, 860.764 1025.362, 873.008 1030.489 C 876.579 1031.984, 881.300 1034.009, 883.500 1034.990 C 901.847 1043.167, 937.406 1052.210, 962.215 1055.008 C 971.409 1056.044, 979.846 1057.383, 980.965 1057.981 L 983 1059.070 983 1259.024 C 983 1452.377, 982.938 1459.142, 981.118 1463.931 C 976.039 1477.300, 959.144 1490.660, 943.201 1493.917 C 940.271 1494.516, 927.231 1495, 914.039 1495 C 881.424 1495, 872.565 1496.848, 857.520 1506.792 C 848.747 1512.590, 832.770 1528.405, 827.006 1536.997 C 821.382 1545.380, 815.026 1558.802, 810.948 1570.906 L 807.715 1580.500 809.608 1584.465 C 812.224 1589.946, 816.733 1592.714, 824.285 1593.474 C 827.703 1593.818, 921.175 1593.964, 1032 1593.799 L 1233.500 1593.500 1237.500 1591.345 C 1245.472 1587.051, 1246.997 1581.070, 1242.967 1569.909 C 1235.784 1550.017, 1226.640 1534.560, 1214.684 1522.096 C 1204.185 1511.152, 1186.125 1499.994, 1174 1496.961 C 1171.525 1496.342, 1156 1495.494, 1139.500 1495.077 C 1107.285 1494.263, 1105.126 1493.937, 1094.252 1488.246 C 1086.663 1484.275, 1077.572 1474.907, 1073.727 1467.097 L 1070.500 1460.542 1070.500 1260.060 L 1070.500 1059.577 1073 1058.367 C 1074.375 1057.702, 1083.600 1055.946, 1093.500 1054.465 C 1115.256 1051.211, 1122.864 1049.427, 1142.948 1042.870 C 1200.470 1024.090, 1236.970 1001.063, 1283.831 953.991 C 1313.221 924.469, 1335.339 889.802, 1349.541 851 C 1351.051 846.875, 1353.620 839.900, 1355.249 835.500 C 1361.848 817.686, 1370.228 788.520, 1373.342 772.528 C 1374.944 764.307, 1375.666 764.033, 1395.816 764.015 C 1415.127 763.997, 1417.358 763.251, 1420.420 755.785 C 1422.927 749.670, 1420.846 743.250, 1415.131 739.468 L 1411.181 736.854 1348.257 737.177 C 1292.850 737.461, 1285.332 737.321, 1285.323 736 C 1285.313 734.297, 1294.919 724.802, 1316 705.679 C 1323.975 698.444, 1335.900 687.551, 1342.500 681.471 C 1349.100 675.391, 1372.275 654.250, 1394 634.491 C 1469.884 565.472, 1477.040 558.824, 1478.515 555.972 C 1481.611 549.984, 1479.743 543.577, 1473.774 539.707 C 1469.084 536.666, 1464.887 536.289, 1460.602 538.524 M 1249.123 555.099 C 1237.985 557.410, 1232.799 569.803, 1239.366 578.413 C 1244.753 585.477, 1251.115 587.485, 1260.152 584.975 C 1264.731 583.703, 1270.960 577.034, 1271.106 573.247 C 1271.415 565.237, 1268.941 559.644, 1263.893 556.943 C 1260.820 555.298, 1252.916 554.311, 1249.123 555.099 M 787.500 573.466 C 773.771 578.405, 774.162 598.031, 788.069 602.020 C 797.376 604.689, 804.861 602.265, 809.815 594.976 C 814.140 588.613, 811.531 578.922, 804.395 574.846 C 800.114 572.401, 792.247 571.758, 787.500 573.466 M 710.166 764.876 C 708.716 765.795, 708.867 767.518, 711.495 780 C 720.166 821.198, 739.614 874.240, 756.367 902.383 C 767.634 921.311, 791.344 947.779, 811 963.373 C 815.675 967.082, 820.400 970.858, 821.500 971.764 C 822.600 972.671, 828.900 977.036, 835.500 981.465 C 874.176 1007.417, 929.430 1027.224, 980.817 1033.558 C 998.888 1035.786, 1005.197 1039.428, 1008.433 1049.500 C 1009.890 1054.036, 1010.014 1073.440, 1009.770 1258.500 C 1009.511 1454.412, 1009.426 1462.718, 1007.638 1468 C 1004.729 1476.595, 1001.207 1482.950, 995.446 1490 C 989.672 1497.065, 988.535 1498.132, 979.365 1505.091 C 971.979 1510.695, 963.922 1514.650, 954.500 1517.295 C 948.654 1518.936, 942.720 1519.383, 918.500 1520.002 C 896.525 1520.565, 888.518 1521.111, 885.447 1522.258 C 872.048 1527.264, 861.088 1535.633, 851.230 1548.386 C 840.334 1562.484, 837.024 1571, 842.441 1571 C 843.784 1571, 845.160 1570.550, 845.500 1570 C 845.908 1569.339, 908.350 1569, 1029.578 1569 L 1213.038 1569 1212.366 1566.250 C 1211.485 1562.647, 1209.526 1559.038, 1203.737 1550.343 C 1195.102 1537.377, 1181.951 1527.330, 1167.728 1522.835 C 1162.506 1521.184, 1156.977 1520.730, 1133.500 1520.027 C 1102.670 1519.102, 1097.919 1518.361, 1085.731 1512.577 C 1071.089 1505.629, 1057.981 1493.105, 1050.549 1478.961 C 1043.576 1465.691, 1044.031 1481.288, 1044.015 1255.200 C 1044.001 1069.266, 1044.145 1050.613, 1045.612 1047.700 C 1049.715 1039.555, 1058.024 1034.641, 1069.771 1033.414 C 1081.328 1032.207, 1119.865 1023.909, 1132.500 1019.906 C 1139.650 1017.641, 1150.861 1013.552, 1157.412 1010.820 C 1169.546 1005.759, 1195.199 993.245, 1199.904 990.093 C 1201.332 989.136, 1205.875 986.151, 1210 983.458 C 1222.001 975.625, 1229.551 969.690, 1243.158 957.395 C 1279.652 924.419, 1305.459 890.310, 1318.595 857.688 C 1321.072 851.534, 1323.511 845.600, 1324.015 844.500 C 1327.039 837.888, 1337.900 803.492, 1341.396 789.454 C 1345.653 772.360, 1346.427 767.220, 1345.006 765.507 C 1343.926 764.206, 1337.716 764, 1299.503 764 C 1275.164 764, 1253.822 764.286, 1252.077 764.635 C 1249.160 765.218, 1245.088 768.461, 1231 781.422 C 1228.525 783.699, 1219.075 792.258, 1210 800.440 C 1185.512 822.520, 1179.023 828.809, 1178.028 831.426 L 1177.131 833.786 1196.315 834.379 C 1231.464 835.464, 1250.353 835.641, 1266.500 835.039 C 1277.004 834.646, 1282.752 834.795, 1283.235 835.471 C 1285.981 839.318, 1282.402 846.988, 1267.771 868.607 C 1254.917 887.602, 1244.005 900.756, 1228.858 915.520 C 1202.960 940.763, 1179.876 956.148, 1147.175 969.961 C 1100.160 989.821, 1048.038 999.738, 1010 996.060 C 978.941 993.057, 934.333 981.329, 904.731 968.383 C 860.306 948.953, 824.641 921.136, 796.790 884.193 C 788.664 873.414, 775.144 851.285, 772.576 844.559 C 770.929 840.246, 770.921 839.769, 772.464 837.415 C 774.491 834.321, 776.744 833.362, 778.882 834.683 C 779.945 835.340, 840.528 835.651, 955.500 835.591 L 1130.500 835.500 1133.791 833.386 C 1137.949 830.715, 1185.937 787.162, 1196.260 776.690 C 1202.257 770.607, 1204.769 766.102, 1202.844 764.883 C 1201.093 763.773, 711.917 763.766, 710.166 764.876 M 1253.962 1107.250 C 1247.151 1110.684, 1246.348 1113.300, 1245.772 1133.929 L 1245.285 1151.358 1242.587 1153.679 C 1240.007 1155.898, 1239.156 1156.004, 1223.194 1156.082 C 1214.012 1156.127, 1205.173 1156.380, 1203.551 1156.643 C 1191.145 1158.657, 1187.826 1173.755, 1198.170 1181.121 C 1201.138 1183.234, 1202.821 1183.455, 1221.435 1184.172 C 1247.830 1185.189, 1246 1183.365, 1246 1208.651 C 1246 1229.387, 1246.492 1231.276, 1252.929 1235.261 C 1259.879 1239.564, 1269.111 1237.430, 1273.922 1230.409 C 1276.078 1227.262, 1276.281 1225.795, 1276.640 1210.754 C 1276.854 1201.814, 1277.022 1192.864, 1277.014 1190.864 C 1276.991 1184.886, 1280.168 1184, 1301.651 1183.998 C 1321.791 1183.997, 1324.589 1183.276, 1328.819 1177 C 1333.577 1169.941, 1329.844 1159.754, 1321.488 1156.996 C 1319.738 1156.419, 1309.873 1155.790, 1299.565 1155.599 C 1283.757 1155.305, 1280.562 1154.991, 1279.161 1153.593 C 1277.781 1152.216, 1277.414 1148.941, 1276.993 1134.218 C 1276.415 1114.038, 1275.542 1111.287, 1268.444 1107.267 C 1263.428 1104.426, 1259.571 1104.421, 1253.962 1107.250 M 756.207 1107.669 C 754.395 1108.561, 751.808 1111.178, 750.457 1113.484 C 748.116 1117.478, 748 1118.454, 748 1134.227 C 748 1157.035, 749.872 1155.343, 723.841 1156.060 C 700.808 1156.694, 699.071 1157.157, 696.015 1163.470 C 693.392 1168.888, 693.467 1172.907, 696.270 1177.102 C 700.172 1182.944, 703.640 1183.985, 719.500 1184.083 C 737.748 1184.195, 744.864 1185.093, 746.630 1187.508 C 747.670 1188.931, 748 1193.716, 748 1207.375 C 748 1223.400, 748.220 1225.813, 750.015 1229.434 C 753.057 1235.575, 756.339 1237.509, 763.574 1237.428 C 770.773 1237.346, 773.848 1235.496, 776.927 1229.390 C 778.795 1225.688, 779 1223.503, 779 1207.329 C 779 1190.645, 779.144 1189.223, 781.039 1187.189 C 783.478 1184.570, 781.395 1184.823, 803.817 1184.428 C 819.273 1184.156, 822.615 1183.824, 825.212 1182.303 C 832.205 1178.208, 834.934 1169.405, 831.103 1163.304 C 827.628 1157.773, 825.079 1156.799, 811.713 1155.900 C 804.996 1155.449, 796.125 1155.336, 792 1155.650 C 785.305 1156.160, 784.205 1155.987, 781.750 1154.038 L 779 1151.855 779 1134.888 C 779 1119.856, 778.770 1117.470, 776.987 1113.974 C 773.401 1106.946, 763.666 1103.992, 756.207 1107.669 M 1254.836 1154.983 C 1246.845 1156.453, 1243 1161.640, 1243 1170.950 C 1243 1175.495, 1243.399 1176.376, 1247.250 1180.354 C 1250.718 1183.936, 1252.392 1184.873, 1256.349 1185.448 C 1266.583 1186.935, 1276.157 1182.009, 1277.559 1174.535 C 1279.339 1165.048, 1274.791 1156.681, 1267.211 1155.496 C 1260.070 1154.380, 1258.473 1154.314, 1254.836 1154.983 M 754.328 1156.938 C 749.155 1159.287, 747.088 1162.337, 746.409 1168.624 C 745.762 1174.619, 747.982 1179.446, 752.898 1182.730 C 760.173 1187.590, 774.974 1184.818, 778.537 1177.928 C 780.613 1173.914, 780.609 1166.078, 778.529 1162.055 C 775.199 1155.616, 762.946 1153.025, 754.328 1156.938" stroke="none" fill="black" fill-rule="evenodd"/>
</svg>