<svg xmlns="http://www.w3.org/2000/svg" width="1024" height="1024" viewBox="0 0 1024 1024" version="1.1">
	<path d="M 238.516 120.975 C 237.708 122.282, 240.009 123.391, 241.154 122.246 C 241.794 121.606, 241.602 121.061, 240.599 120.676 C 239.755 120.352, 238.817 120.487, 238.516 120.975 M 239.189 124.677 C 240.117 124.923, 241.035 125.883, 241.229 126.811 C 241.502 128.123, 241.718 127.998, 242.197 126.250 C 242.728 124.310, 242.446 124.016, 240.156 124.116 C 238.578 124.185, 238.185 124.413, 239.189 124.677 M 245.079 133.583 C 245.127 134.748, 245.364 134.985, 245.683 134.188 C 245.972 133.466, 245.936 132.603, 245.604 132.271 C 245.272 131.939, 245.036 132.529, 245.079 133.583 M 490.352 144.025 C 464.023 146.798, 434.785 157.524, 414.502 171.851 C 407.066 177.104, 384 199.181, 384 201.046 C 384 203.421, 377.444 208.248, 369 212.088 C 331.343 229.218, 311.370 241.220, 295.326 256.361 C 282.616 268.355, 273.773 280.436, 265.211 297.500 C 258.360 311.155, 251.016 333.988, 238.999 379 C 233.744 398.683, 229.882 412.490, 227.530 420 C 225.110 427.730, 215.297 463.943, 214.659 467.500 C 214.462 468.600, 214.026 470.175, 213.691 471 C 213.355 471.825, 209.880 484.650, 205.967 499.500 C 202.055 514.350, 198.475 527.400, 198.013 528.500 C 197.223 530.377, 192.269 548.728, 186.403 571.500 C 184.987 577, 182.981 584.650, 181.945 588.500 C 176.012 610.563, 171.966 627.711, 172.345 629.185 C 172.584 630.112, 172.154 631.111, 171.389 631.404 C 170.625 631.697, 170 632.696, 170 633.624 C 170 635.211, 165 654.702, 157.333 683 C 142.003 739.579, 138.752 752.155, 138.273 756.721 C 137.762 761.603, 137.930 762.132, 140.862 764.871 C 144.266 768.051, 161.844 777.027, 174.262 781.926 C 205.855 794.391, 251.208 804.120, 284.500 805.573 C 296.268 806.087, 306.234 807, 306.922 807.626 C 307.154 807.838, 306.802 812.846, 306.140 818.755 C 305.477 824.665, 304.761 831.300, 304.547 833.500 C 304.333 835.700, 303.425 843.076, 302.528 849.890 C 300.503 865.281, 300.280 872.878, 301.775 875.620 C 302.411 876.785, 304.634 878.565, 306.715 879.573 C 310.390 881.354, 321.868 881.832, 351 881.416 C 360.243 881.285, 534.396 880.957, 552 881.039 C 561.075 881.081, 601.350 881.202, 641.500 881.307 C 713.479 881.497, 714.549 881.471, 718 879.449 C 724.341 875.733, 724.704 871.373, 720.741 846.500 C 720.127 842.650, 719.706 839.038, 719.805 838.474 C 719.904 837.910, 719.122 830.725, 718.067 822.507 C 717.013 814.290, 716.307 807.313, 716.498 807.003 C 716.689 806.694, 721.493 806.347, 727.173 806.234 C 749.329 805.790, 778.417 802.123, 799.500 797.115 C 803.900 796.070, 809.975 794.654, 813 793.969 C 816.025 793.283, 819.625 792.262, 821 791.700 C 822.375 791.137, 823.795 790.736, 824.156 790.807 C 825.224 791.019, 840.648 785.520, 852.893 780.562 C 866.361 775.108, 879.686 768.028, 882.882 764.626 C 885.491 761.849, 885.967 755.510, 883.942 750.500 C 883.276 748.850, 882.599 746.600, 882.439 745.500 C 881.981 742.349, 871.160 700.420, 868.373 691 C 865.485 681.236, 861.800 667.391, 853.066 633.500 C 849.664 620.300, 846.062 606.575, 845.062 603 C 844.061 599.425, 842.240 592.675, 841.014 588 C 839.788 583.325, 838.136 577.405, 837.343 574.844 C 836.550 572.283, 835.678 568.957, 835.406 567.454 C 835.133 565.950, 832.218 554.770, 828.927 542.610 C 825.636 530.449, 821.413 514.650, 819.543 507.500 C 809.998 471, 807.781 462.617, 804.998 452.500 C 803.334 446.450, 800.372 435.425, 798.416 428 C 794.758 414.117, 786.113 383.825, 779.011 360 C 776.797 352.575, 774.049 343.125, 772.903 339 C 770.548 330.522, 765.413 314.518, 764.079 311.500 C 763.593 310.400, 762.231 307.025, 761.053 304 C 751.966 280.664, 730.759 255.629, 706.148 239.182 C 694.414 231.341, 669.488 218, 666.571 218 C 665.707 218, 665 217.641, 665 217.203 C 665 216.765, 660.258 214.459, 654.462 212.079 C 644.048 207.802, 643.860 207.665, 638.373 200.374 C 623.926 181.178, 595.949 161.159, 572.428 153.184 C 547.347 144.682, 516.643 141.255, 490.352 144.025 M 509.490 154.016 C 509.144 154.575, 508.443 154.774, 507.931 154.457 C 507.419 154.141, 507 154.324, 507 154.864 C 507 155.405, 504.413 155.823, 501.250 155.793 C 493.197 155.718, 478.583 158.653, 471.696 161.729 C 465.049 164.698, 464.269 165.986, 460.328 180.500 C 457.180 192.096, 456.027 199, 457.240 199 C 457.757 199, 463.202 197.686, 469.340 196.079 C 475.478 194.473, 483.200 192.852, 486.500 192.479 C 498.655 191.102, 524.609 190.829, 533.998 191.979 C 541.838 192.939, 558.503 196.721, 563.728 198.726 C 564.499 199.022, 565 198.417, 565 197.188 C 565 194.769, 562.267 183.330, 561.012 180.500 C 560.525 179.400, 559.819 177.375, 559.443 176 C 557.808 170.008, 553.702 162.897, 551.099 161.551 C 545.386 158.597, 532.479 156.086, 521.500 155.793 C 513.355 155.576, 510.565 155.176, 510.750 154.250 C 511.052 152.742, 510.357 152.613, 509.490 154.016 M 809 163.059 C 809 163.641, 809.450 163.840, 810 163.500 C 810.550 163.160, 811 162.684, 811 162.441 C 811 162.198, 810.550 162, 810 162 C 809.450 162, 809 162.477, 809 163.059 M 813.736 163.598 C 812.834 164.499, 814.075 167.071, 815.105 166.435 C 815.597 166.131, 816 165.234, 816 164.441 C 816 162.968, 814.809 162.525, 813.736 163.598 M 198.658 165.450 C 198.311 166.354, 198.761 166.614, 200.075 166.270 C 202.373 165.669, 202.461 165.391, 200.583 164.670 C 199.803 164.371, 198.937 164.722, 198.658 165.450 M 801.813 165.683 C 802.534 165.972, 803.397 165.936, 803.729 165.604 C 804.061 165.272, 803.471 165.036, 802.417 165.079 C 801.252 165.127, 801.015 165.364, 801.813 165.683 M 446.875 166.500 C 446.806 166.775, 446.694 167.412, 446.625 167.917 C 446.556 168.421, 446.090 169.208, 445.590 169.667 C 445.061 170.151, 444.981 169.976, 445.399 169.250 C 445.794 168.563, 445.651 168, 445.080 168 C 443.364 168, 431.487 174.803, 431.666 175.684 C 431.758 176.133, 430.840 176.559, 429.626 176.631 C 424.474 176.937, 403.383 195.427, 393.821 208.021 C 378.187 228.610, 370.801 253.915, 373.903 276.261 C 376.232 293.032, 380.507 308.068, 387.108 322.699 C 393.180 336.160, 394.587 339.169, 398.568 347.205 C 402.316 354.770, 406.105 361.404, 410.764 368.558 C 411.460 369.626, 412.516 371.737, 413.112 373.249 C 413.707 374.761, 414.526 375.793, 414.931 375.543 C 415.336 375.293, 415.667 375.648, 415.667 376.333 C 415.667 377.482, 421.492 388.166, 425 393.453 C 431.467 403.199, 434.022 407.278, 436.928 412.500 C 438.765 415.800, 441.557 420.140, 443.134 422.144 C 444.710 424.148, 446 426.329, 446 426.990 C 446 428.156, 448.486 433.112, 450.446 435.851 C 450.977 436.594, 451.508 437.719, 451.625 438.351 C 451.742 438.983, 454.125 443.754, 456.919 448.952 C 459.714 454.151, 462 458.790, 462 459.261 C 462 459.733, 462.520 459.797, 463.155 459.405 C 463.853 458.973, 464.038 459.129, 463.623 459.801 C 463.245 460.412, 463.672 462.619, 464.571 464.706 C 465.470 466.793, 467.745 472.325, 469.627 477 C 471.509 481.675, 473.450 486.400, 473.940 487.500 C 475.935 491.980, 483 514.244, 483 516.054 C 483 517.124, 483.377 518, 483.838 518 C 484.299 518, 485.272 513.500, 486 508 C 486.728 502.500, 487.588 497.998, 487.912 497.995 C 488.235 497.992, 488.616 495.855, 488.757 493.245 C 488.898 490.635, 489.410 487.375, 489.895 486 C 490.380 484.625, 491.786 479, 493.019 473.500 C 494.253 468, 495.848 461.925, 496.563 460 C 499.252 452.769, 505.738 426.460, 505.069 425.500 C 504.685 424.950, 503.085 421.350, 501.511 417.500 C 499.938 413.650, 496.669 406.225, 494.247 401 C 491.824 395.775, 489.481 390.600, 489.039 389.500 C 488.598 388.400, 486.869 384.350, 485.196 380.500 C 483.524 376.650, 480.953 370.575, 479.483 367 C 478.012 363.425, 476.192 359.150, 475.438 357.500 C 474.684 355.850, 472.541 350, 470.676 344.500 C 468.811 339, 465.828 330.675, 464.045 326 C 460.167 315.825, 458.861 311.531, 454.467 294.500 C 452.622 287.350, 451.050 281.500, 450.973 281.500 C 450.896 281.500, 450.717 280.600, 450.575 279.500 C 450.433 278.400, 449.954 275.475, 449.510 273 C 449.067 270.525, 448.577 267.600, 448.421 266.500 C 448.266 265.400, 447.680 262.195, 447.119 259.377 C 446.559 256.560, 445.386 247.560, 444.513 239.377 C 443.639 231.195, 442.748 223.981, 442.531 223.348 C 442.315 222.714, 442.441 221.893, 442.811 221.522 C 443.182 221.152, 443.372 216.495, 443.233 211.174 C 442.966 200.896, 444.748 186.388, 447.491 176.500 C 450.362 166.155, 450.378 166, 448.617 166 C 447.727 166, 446.944 166.225, 446.875 166.500 M 570 166.941 C 570 167.459, 570.450 168.160, 571 168.500 C 571.550 168.840, 572 170.190, 572 171.500 C 572 172.810, 572.398 174.128, 572.885 174.429 C 573.371 174.729, 573.999 176.219, 574.279 177.738 C 574.560 179.257, 575.546 184.100, 576.472 188.500 C 579.253 201.719, 579.387 202.961, 579.600 217.500 C 579.799 231.145, 577.937 254.623, 576.080 261.885 C 575.571 263.873, 574.890 267.300, 574.566 269.500 C 574.242 271.700, 573.578 275.300, 573.091 277.500 C 572.603 279.700, 571.209 286, 569.993 291.500 C 568.776 297, 567.404 302.400, 566.943 303.500 C 566.481 304.600, 564.912 310, 563.455 315.500 C 560.630 326.167, 554.229 345.840, 553.044 347.500 C 552.651 348.050, 551.080 352.100, 549.552 356.500 C 546.647 364.869, 534.196 394.369, 528.384 406.654 C 526.523 410.589, 525 414.078, 525 414.409 C 525 414.739, 523.875 417.342, 522.500 420.192 C 521.125 423.042, 520 425.933, 520 426.616 C 520 427.299, 519.416 428.452, 518.702 429.179 C 517.989 429.905, 517.384 431.400, 517.359 432.500 C 517.321 434.209, 511.228 457.591, 504.982 480 C 503.986 483.575, 502.638 489.875, 501.987 494 C 501.336 498.125, 500.426 502.400, 499.965 503.500 C 499.503 504.600, 498.879 507.750, 498.576 510.500 C 497.723 518.267, 497.004 523.108, 495.977 528 C 494.079 537.047, 491.747 561.358, 491.758 572 C 491.761 575.575, 491.312 579.063, 490.759 579.750 C 490.066 580.613, 490.126 581, 490.953 581 C 491.704 581, 492.029 582.211, 491.825 584.250 C 491.506 587.443, 491.579 587.506, 495.984 587.819 C 498.450 587.994, 500.805 588.669, 501.218 589.319 C 501.783 590.206, 501.973 590.189, 501.985 589.250 C 501.993 588.537, 503.262 588, 504.938 588 C 506.903 588, 511.048 585.849, 517.463 581.500 C 522.735 577.925, 527.687 575, 528.466 575 C 530.479 575, 530.995 573.796, 531.553 567.797 C 532.116 561.734, 533.238 554.915, 536.124 540 C 537.242 534.225, 538.341 528.150, 538.568 526.500 C 538.794 524.850, 539.382 522.600, 539.873 521.500 C 540.364 520.400, 541.539 515.982, 542.484 511.683 C 546.445 493.662, 557.495 465.280, 569.225 443 C 576.480 429.221, 581.167 421.269, 600.603 389.770 C 615.785 365.164, 620.381 357.247, 626.323 345.460 C 638.765 320.780, 647.116 297.296, 649.007 281.674 C 650.634 268.234, 650.288 254.567, 648.124 246.750 C 647.096 243.037, 646.535 239.993, 646.877 239.985 C 647.220 239.976, 647.028 239.639, 646.451 239.235 C 645.875 238.831, 644.875 236.692, 644.231 234.482 C 641.613 225.506, 627.147 203.351, 622.865 201.758 C 621.769 201.351, 621.110 200.631, 621.402 200.159 C 622.236 198.809, 605.199 183.795, 598 179.536 C 594.425 177.420, 590.375 174.941, 589 174.026 C 584.532 171.053, 573.728 166, 571.840 166 C 570.828 166, 570 166.423, 570 166.941 M 232.813 175.683 C 233.534 175.972, 234.397 175.936, 234.729 175.604 C 235.061 175.272, 234.471 175.036, 233.417 175.079 C 232.252 175.127, 232.015 175.364, 232.813 175.683 M 246.079 198.583 C 246.127 199.748, 246.364 199.985, 246.683 199.188 C 246.972 198.466, 246.936 197.603, 246.604 197.271 C 246.272 196.939, 246.036 197.529, 246.079 198.583 M 358.500 230 C 354.100 232.193, 349.461 233.990, 348.191 233.994 C 346.921 233.997, 346.135 234.409, 346.444 234.909 C 346.753 235.409, 344.867 236.841, 342.253 238.090 C 339.639 239.340, 337.275 240.622, 337 240.940 C 336.178 241.891, 328.094 247, 327.411 247 C 326.465 247, 313.051 256.819, 308.710 260.689 C 306.625 262.547, 304.418 263.758, 303.805 263.379 C 303.192 263.001, 302.968 263.139, 303.307 263.687 C 303.645 264.235, 302.332 266.217, 300.388 268.092 C 295.654 272.658, 284.970 287.075, 280.817 294.500 C 273.256 308.020, 265.130 329.327, 259.649 350 C 256.875 360.461, 256.549 361.579, 255.417 364.500 C 254.990 365.600, 254.558 367.175, 254.457 368 C 254.355 368.825, 252.817 374.450, 251.038 380.500 C 249.260 386.550, 247.375 393.300, 246.850 395.500 C 246.325 397.700, 242.714 410.525, 238.825 424 C 234.936 437.475, 230.961 451.425, 229.992 455 C 229.023 458.575, 226.121 469.150, 223.543 478.500 C 220.966 487.850, 217.506 500.675, 215.855 507 C 214.204 513.325, 210.133 528.400, 206.807 540.500 C 203.481 552.600, 198.157 572.625, 194.976 585 C 172.672 671.761, 170.240 681.060, 167.912 688.486 C 166.874 691.794, 166.020 694.869, 166.013 695.320 C 165.993 696.580, 185.741 705.604, 197.232 709.586 C 202.879 711.543, 208.400 713.545, 209.500 714.036 C 214.283 716.172, 240.626 723.027, 253 725.357 C 271.771 728.890, 282.928 730.120, 301.602 730.714 L 317.705 731.226 318.352 727.988 C 318.709 726.207, 319 723.064, 319 721.004 L 319 717.257 307.750 716.535 C 289.205 715.346, 277.972 713.321, 263.276 708.521 C 253.282 705.257, 249.802 702.656, 250.195 698.743 C 250.703 693.678, 252.674 693.359, 262.082 696.815 C 266.712 698.516, 273.200 700.458, 276.500 701.130 C 279.800 701.802, 283.175 702.494, 284 702.667 C 288.025 703.512, 304.477 704.920, 312.370 705.095 L 321.240 705.291 324.030 694.395 C 327.553 680.637, 329.202 676.119, 333.515 668.407 C 338.488 659.514, 343.185 654.291, 352.076 647.765 L 359.896 642.025 359.853 614.868 L 359.810 587.712 351.655 579.097 C 347.170 574.359, 341.421 567.561, 338.880 563.991 C 332.836 555.499, 326.821 542.710, 326.642 537.971 C 326.564 535.900, 326.231 534.369, 325.901 534.568 C 324.787 535.243, 319.633 508.403, 320.582 506.867 C 320.877 506.390, 320.729 506, 320.254 506 C 319.779 506, 318.815 502.512, 318.111 498.250 C 316.673 489.534, 309.507 460.572, 308.029 457.500 C 306.467 454.255, 299.402 427.368, 297.023 415.613 C 294.037 400.862, 295.395 394.878, 301.387 396.382 C 304.279 397.108, 305.215 399.499, 308.480 414.500 C 309.797 420.550, 313.190 433.375, 316.020 443 C 323.150 467.248, 327.505 484.756, 331.068 503.500 C 336.969 534.548, 337.936 538.056, 343.831 549.824 C 347.390 556.929, 349.672 559.856, 366.409 578.782 L 374.317 587.726 384.786 588.403 C 390.543 588.775, 395.482 588.852, 395.760 588.574 C 396.038 588.295, 393.606 585.015, 390.355 581.284 C 374.012 562.527, 362.907 543.011, 357.871 524.196 C 356.632 519.564, 356.004 515.122, 356.378 513.631 C 357.166 510.491, 360.371 508.549, 362.655 509.827 C 363.550 510.328, 366.398 516.534, 368.982 523.619 C 371.567 530.704, 374.684 538.455, 375.909 540.844 C 383.152 554.968, 395.075 570.948, 406.802 582.250 L 413.806 589 426.153 588.985 C 432.944 588.976, 438.035 588.639, 437.467 588.235 C 434.775 586.320, 421 565.670, 421 563.550 C 421 562.789, 420.626 562.017, 420.170 561.833 C 417.561 560.786, 409.023 537.556, 407.167 526.456 C 405.230 514.874, 406.549 510, 411.620 510 C 414.435 510, 415.414 511.729, 417.002 519.500 C 418.415 526.415, 422.618 541.557, 423.941 544.500 C 428.549 554.748, 432.473 562.366, 435.449 566.837 C 437.402 569.773, 439 572.315, 439 572.487 C 439 572.659, 440.462 574.315, 442.250 576.166 C 444.038 578.017, 447.405 581.683, 449.733 584.311 L 453.965 589.090 466.483 588.938 L 479 588.787 479 572.835 C 479 556.550, 478.207 548.283, 475.370 535 C 467.641 498.814, 450.954 459.556, 425.080 416.692 C 421.160 410.198, 418.215 404.461, 418.536 403.942 C 418.856 403.424, 418.655 403, 418.090 403 C 417.127 403, 410 392.714, 410 391.325 C 410 390.975, 408.961 389.296, 407.692 387.594 C 393.898 369.101, 365 306.897, 365 295.699 C 365 294.434, 364.610 292.972, 364.134 292.450 C 362.957 291.158, 360.952 277.824, 360.584 268.843 C 360.068 256.229, 362.834 240.019, 367.642 227.490 C 368.488 225.286, 367.307 225.610, 358.500 230 M 655.433 227.576 C 663.281 246.917, 664.831 263.090, 660.992 285.549 C 659.195 296.058, 654.316 312.889, 650.604 321.387 C 649.856 323.099, 647.137 329.492, 644.562 335.593 C 637.537 352.241, 613.108 395.823, 611.091 395.306 C 610.674 395.199, 610.320 395.649, 610.303 396.306 C 610.287 396.962, 606.988 402.675, 602.972 409 C 578.262 447.918, 562.640 482.190, 552.842 518.973 C 551.153 525.313, 549.358 532.750, 548.852 535.500 C 547.362 543.613, 545.219 558.030, 544.505 564.750 C 543.862 570.810, 543.912 571.001, 546.171 571.045 C 556.855 571.251, 562.852 572.969, 566.341 576.825 C 568.551 579.267, 570.303 586, 568.728 586 C 568.144 586, 567.928 586.261, 568.247 586.580 C 569.343 587.676, 573.640 584.001, 578.816 577.542 C 581.667 573.984, 584 570.836, 584 570.545 C 584 570.255, 585.531 568.012, 587.402 565.560 C 591.924 559.637, 601.946 539.162, 607.001 525.521 C 609.239 519.482, 611.740 513.520, 612.558 512.271 C 614.403 509.455, 618.537 509.267, 619.965 511.934 C 621.220 514.280, 621.327 518, 620.139 518 C 619.665 518, 619.479 519.055, 619.725 520.344 C 621.061 527.329, 604.983 561.804, 592.919 577.825 C 589.114 582.879, 586 587.393, 586 587.857 C 586 588.321, 592.475 588.655, 600.389 588.600 L 614.779 588.500 620.525 583 C 623.685 579.975, 628.626 575.250, 631.505 572.500 C 640.428 563.975, 651.021 548.885, 655.623 538.143 C 656.482 536.139, 658.637 529.325, 660.412 523 C 663.483 512.061, 663.777 511.484, 666.442 511.172 C 670.518 510.694, 671.285 512.077, 671.236 519.822 C 671.192 526.820, 667.032 543.244, 664.983 544.511 C 664.442 544.845, 663.991 545.879, 663.980 546.809 C 663.932 551.008, 651.613 568.319, 640.375 579.980 C 636.410 584.095, 633.414 587.861, 633.717 588.351 C 634.020 588.841, 637.862 589.033, 642.255 588.779 C 648.785 588.401, 650.437 587.968, 651.302 586.408 C 651.884 585.359, 654.192 582.676, 656.430 580.446 C 665.299 571.612, 676.243 559.055, 679.554 553.916 C 686.813 542.649, 690.618 528.625, 695.541 495 C 697.553 481.257, 704.521 452.110, 710.243 433.500 C 717.165 410.991, 721.974 397.419, 723.332 396.562 C 724.323 395.937, 725.734 396.013, 727.422 396.783 C 729.720 397.830, 729.999 398.529, 729.989 403.229 C 729.983 406.128, 729.283 410.750, 728.433 413.500 C 725.151 424.124, 714.216 462.675, 713.542 466 C 713.151 467.925, 711.995 473.100, 710.971 477.500 C 709.948 481.900, 707.483 495.400, 705.494 507.500 C 701.305 532.977, 695.305 554, 692.222 554 C 691.485 554, 691.146 554.427, 691.468 554.948 C 692.242 556.201, 686.872 563.913, 685.191 563.962 C 684.471 563.983, 684.172 564.469, 684.526 565.043 C 685.242 566.200, 681.013 571.661, 672.480 580.599 C 669.382 583.844, 666.319 587.226, 665.673 588.113 C 664.815 589.292, 664.634 596.727, 665 615.773 L 665.500 641.821 671.651 645.927 C 686.001 655.506, 695.358 669.717, 699.118 687.641 C 702.722 704.828, 702.725 704.835, 705.771 705.186 C 716.158 706.382, 749.415 701.407, 761.067 696.914 L 769.216 693.771 771.239 695.795 C 773.980 698.536, 772.909 702.472, 768.723 705.039 C 759.800 710.511, 744.261 714.017, 719.786 716.080 L 705.071 717.320 705.286 724.619 C 705.404 728.633, 705.651 731.484, 705.835 730.953 C 706.020 730.422, 706.538 730.214, 706.986 730.491 C 707.978 731.105, 727.321 731.187, 731.500 730.596 C 733.150 730.363, 737.875 729.879, 742 729.521 C 770.546 727.045, 813.570 715.479, 845.724 701.638 C 858.993 695.927, 858.140 696.755, 856.422 691.242 C 854.258 684.299, 852.335 677.386, 845.645 652.500 C 844.314 647.550, 842.236 639.900, 841.026 635.500 C 838.955 627.965, 836.224 617.189, 832.480 601.778 C 831.582 598.081, 831.109 594.632, 831.430 594.114 C 831.750 593.595, 831.612 593.020, 831.122 592.835 C 830.633 592.651, 828.814 587.325, 827.081 581 C 825.348 574.675, 823.078 566.575, 822.037 563 C 820.996 559.425, 818.049 548.400, 815.488 538.500 C 812.927 528.600, 809.478 515.550, 807.823 509.500 C 806.168 503.450, 803.329 492.875, 801.513 486 C 799.697 479.125, 795.253 462.699, 791.637 449.497 C 788.021 436.295, 784.923 424.595, 784.752 423.497 C 784.582 422.399, 784.187 421.050, 783.875 420.500 C 783.563 419.950, 782.726 417.250, 782.015 414.500 C 778.791 402.032, 761.690 342.941, 759.902 338.090 C 758.806 335.115, 758.129 332.107, 758.398 331.405 C 758.667 330.703, 758.575 329.988, 758.194 329.815 C 757.812 329.642, 756.439 326.350, 755.141 322.500 C 753.844 318.650, 751.031 311.797, 748.891 307.270 C 746.751 302.744, 745 298.619, 745 298.104 C 745 297.588, 744.646 297.017, 744.213 296.833 C 743.780 296.650, 742.131 294.250, 740.549 291.500 C 736.584 284.608, 730.553 276.871, 721.861 267.527 C 717.812 263.174, 715.063 259.952, 715.750 260.366 C 716.465 260.796, 717 260.619, 717 259.952 C 717 259.300, 716.303 259.053, 715.418 259.393 C 714.453 259.763, 712.212 258.693, 709.668 256.646 C 702.506 250.882, 690.932 243.521, 679.500 237.457 C 673.450 234.248, 668.275 231.370, 668 231.061 C 667.725 230.753, 665.475 229.759, 663 228.853 C 660.525 227.947, 657.634 226.856, 656.576 226.429 C 654.961 225.777, 654.778 225.961, 655.433 227.576 M 494.500 260 C 494.840 260.550, 495.316 261, 495.559 261 C 495.802 261, 496 260.550, 496 260 C 496 259.450, 495.523 259, 494.941 259 C 494.359 259, 494.160 259.450, 494.500 260 M 547 266 C 547 266.550, 547.477 267, 548.059 267 C 548.641 267, 548.840 266.550, 548.500 266 C 548.160 265.450, 547.684 265, 547.441 265 C 547.198 265, 547 265.450, 547 266 M 363 282 C 363 282.550, 363.477 283, 364.059 283 C 364.641 283, 364.840 282.550, 364.500 282 C 364.160 281.450, 363.684 281, 363.441 281 C 363.198 281, 363 281.450, 363 282 M 841.768 354.168 C 842.350 354.750, 843.415 355.028, 844.137 354.788 C 844.886 354.538, 844.432 354.085, 843.080 353.731 C 841.417 353.296, 841.026 353.426, 841.768 354.168 M 725.293 524.186 C 724.712 524.909, 721.670 531.554, 718.534 538.954 C 715.399 546.353, 710.909 555.353, 708.558 558.954 C 700.632 571.089, 686.552 585.314, 677.500 590.334 C 673.513 592.544, 673.500 592.571, 673.560 598.526 C 673.611 603.734, 675.148 617.558, 676.334 623.500 C 676.554 624.600, 677.307 628.600, 678.007 632.390 C 679.441 640.157, 681.570 643, 685.950 643 C 689.739 643, 690.900 640.852, 689.931 635.641 C 689.507 633.364, 688.433 625.875, 687.545 619 C 686.656 612.125, 685.672 604.874, 685.358 602.886 C 684.800 599.351, 684.954 599.147, 692.354 593.578 C 696.515 590.446, 702.021 585.547, 704.590 582.692 C 714.211 571.996, 725 556.166, 725 552.745 C 725 551.877, 725.457 551.014, 726.017 550.828 C 727.434 550.355, 732.061 536.446, 732.613 531 C 732.864 528.525, 732.711 525.973, 732.274 525.329 C 730.993 523.441, 726.487 522.703, 725.293 524.186 M 296.243 525.157 C 294.883 526.517, 294.509 534, 295.800 534 C 296.240 534, 296.609 535.462, 296.620 537.250 C 296.645 541.492, 305.454 559.435, 313.114 570.848 C 318.605 579.031, 326.081 587.059, 336.559 596.026 L 340.617 599.500 338.210 615.500 C 336.886 624.300, 335.734 633.750, 335.651 636.500 L 335.500 641.500 339.051 641.799 C 341.487 642.003, 343.111 641.532, 344.223 640.299 C 345.907 638.429, 351.388 611.975, 352.585 599.940 C 353.278 592.967, 351.969 590.011, 348.179 589.991 C 345.724 589.978, 332.631 578.381, 327.891 572.021 C 322.053 564.190, 315.099 551.997, 310.198 541 C 303.195 525.289, 302.732 524.527, 299.993 524.207 C 298.614 524.046, 296.927 524.473, 296.243 525.157 M 541 582.993 C 540.175 583.455, 537.925 584.564, 536 585.457 C 518.936 593.372, 500.149 612.235, 493.629 628 C 492.606 630.475, 490.409 635.425, 488.747 639 C 485.096 646.854, 484.098 650.058, 483.402 656.162 C 482.953 660.097, 483.159 660.916, 484.723 661.412 C 487.326 662.238, 498 661.895, 498 660.985 C 498 660.572, 498.921 659.992, 500.046 659.698 C 503.783 658.721, 514.965 651.523, 514.983 650.083 C 514.992 649.304, 515.310 648.977, 515.689 649.356 C 516.595 650.261, 525.073 641.926, 524.382 640.810 C 524.090 640.337, 524.262 640.074, 524.765 640.225 C 526.635 640.788, 538.613 624.350, 545.069 612.361 C 547.398 608.038, 550.445 602.700, 551.841 600.500 C 553.519 597.856, 554.520 594.627, 554.794 590.975 C 555.170 585.961, 554.990 585.343, 552.854 584.302 C 549.615 582.724, 542.818 581.974, 541 582.993 M 372.220 618.101 L 372.150 635.703 412.325 635.601 L 452.500 635.500 455.463 633 C 457.092 631.625, 459.718 629.259, 461.297 627.743 C 462.876 626.227, 464.513 625.199, 464.935 625.460 C 465.357 625.721, 468.494 624.528, 471.906 622.810 C 476.317 620.589, 477.733 619.432, 476.805 618.806 C 476.020 618.277, 477.060 618.196, 479.411 618.604 C 482.769 619.187, 483.234 619.053, 482.697 617.654 C 482.348 616.743, 482.536 616.129, 483.124 616.262 C 483.702 616.393, 484.925 615.150, 485.841 613.500 C 486.757 611.850, 488.274 609.414, 489.211 608.087 C 490.149 606.760, 490.715 605.349, 490.470 604.951 C 490.224 604.553, 490.917 603.993, 492.011 603.707 C 493.105 603.421, 494 602.742, 494 602.199 C 494 600.990, 485.634 600.032, 485.165 601.188 C 484.980 601.641, 484.439 601.771, 483.961 601.476 C 483.484 601.181, 458.163 600.841, 427.692 600.720 L 372.291 600.500 372.220 618.101 M 590.213 600.785 C 582.497 600.999, 580.097 601.374, 580.610 602.285 C 581.114 603.181, 580.940 603.172, 579.947 602.250 C 579.204 601.561, 576.101 601, 573.030 601 L 567.460 601 563.338 607.750 C 559.450 614.118, 555 622.431, 555 623.327 C 555 623.551, 556.766 624.903, 558.924 626.331 C 561.083 627.760, 564.533 630.407, 566.592 632.214 L 570.335 635.500 611.667 635.510 C 634.400 635.516, 653 635.433, 653 635.326 C 653 635.218, 652.551 633.950, 652.003 632.508 C 651.455 631.066, 651.382 630.118, 651.841 630.402 C 652.301 630.686, 652.684 624.187, 652.693 615.959 L 652.709 601 647.855 600.944 C 639.187 600.845, 630.018 600.886, 629.250 601.026 C 627.402 601.365, 616.314 600.848, 614.625 600.345 C 613.279 599.944, 612.972 600.146, 613.539 601.063 C 614.121 602.005, 613.826 602.146, 612.414 601.599 C 610.004 600.665, 603.338 600.421, 590.213 600.785 M 468.490 638.548 C 457.111 644.815, 445.069 661.084, 431.888 688 C 422.054 708.079, 415.721 723.010, 409.832 740 C 407.067 747.975, 403.724 757.165, 402.403 760.422 C 401.081 763.680, 400 766.935, 400 767.655 C 400 770.155, 427.375 782.036, 436.025 783.290 L 439.551 783.801 442.025 775.714 C 443.386 771.265, 444.500 767.147, 444.500 766.563 C 444.500 765.978, 444.757 765.275, 445.071 765 C 445.385 764.725, 447.124 758.425, 448.936 751 C 450.747 743.575, 452.822 735.475, 453.547 733 C 458.202 717.099, 460.763 709.443, 464.083 701.500 C 466.153 696.550, 469.675 688, 471.909 682.500 L 475.972 672.500 473.079 668.466 C 471.488 666.247, 470.053 663.097, 469.891 661.466 C 469.476 657.284, 470.909 649.638, 473.588 641.750 C 474.849 638.038, 475.570 635.054, 475.190 635.119 C 474.811 635.185, 471.796 636.728, 468.490 638.548 M 544.200 636.200 C 543.540 636.860, 543 637.926, 543 638.570 C 543 639.722, 537.087 646.993, 533.829 649.846 C 532.274 651.208, 532.272 651.491, 533.805 653.905 C 534.712 655.332, 535.742 656.725, 536.094 657 C 536.446 657.275, 538.383 660.087, 540.398 663.250 C 542.413 666.413, 544.436 669, 544.893 669 C 545.351 669, 545.601 670.125, 545.451 671.500 C 545.300 672.875, 545.500 674, 545.896 674 C 546.731 674, 550 681.085, 550 682.895 C 550 683.568, 550.520 683.797, 551.155 683.405 C 551.851 682.974, 552.038 683.129, 551.627 683.794 C 551.252 684.401, 552.083 687.254, 553.473 690.136 C 554.863 693.017, 556 696.430, 556 697.719 C 556 699.009, 556.705 701.737, 557.566 703.782 C 558.427 705.827, 559.515 709.300, 559.983 711.500 C 560.450 713.700, 561.080 716.400, 561.381 717.500 C 561.683 718.600, 563.287 724.450, 564.947 730.500 C 566.606 736.550, 567.972 742.539, 567.982 743.809 C 567.993 745.240, 568.421 745.858, 569.107 745.434 C 569.847 744.977, 569.998 745.432, 569.562 746.805 C 569.203 747.936, 569.666 751.705, 570.591 755.181 C 571.517 758.656, 572.617 763.075, 573.037 765 C 573.998 769.400, 578.073 784.407, 578.396 784.729 C 578.528 784.862, 583.331 783.474, 589.068 781.646 C 600.011 778.160, 613.694 771.865, 616.978 768.806 C 618.887 767.028, 618.878 766.916, 616.332 760.252 C 614.913 756.538, 612.150 748.775, 610.192 743 C 608.234 737.225, 606.054 731.150, 605.346 729.500 C 603.288 724.700, 595.252 703.717, 594.522 701.235 C 594.147 699.959, 593.384 699.263, 592.773 699.640 C 592.131 700.037, 591.979 699.843, 592.400 699.162 C 593.835 696.839, 580.344 669.775, 571.133 656.500 C 566.314 649.554, 558.362 641.460, 552.912 637.953 C 547.916 634.737, 546.040 634.360, 544.200 636.200 M 424.543 647.758 C 410.917 648.110, 412.558 647.190, 403.309 659.664 C 397.389 667.649, 393.757 675.118, 390.306 686.407 C 388.189 693.331, 386.263 695.014, 382.659 693.085 C 379.497 691.393, 378.918 688.186, 380.500 681.138 C 382.416 672.599, 385.127 666.346, 390.897 657.152 C 393.779 652.560, 395.945 648.612, 395.711 648.378 C 395.231 647.898, 386.098 658.157, 380.886 665.032 C 375.720 671.845, 369.616 684.213, 365.433 696.341 C 361.212 708.579, 359.194 710.668, 354.541 707.619 C 351.209 705.436, 351.288 702.921, 355.038 691.728 C 359.008 679.877, 367.856 663.252, 374.798 654.595 L 380.336 647.691 376.038 648.378 C 370.054 649.335, 358.601 656.402, 351.888 663.280 C 344.257 671.099, 338.802 681.850, 336.404 693.799 C 336.151 695.063, 335.331 697.988, 334.582 700.299 C 333.834 702.609, 332.930 706.750, 332.574 709.500 C 332.218 712.250, 331.251 719.883, 330.424 726.462 C 329.598 733.041, 328.721 739.791, 328.475 741.462 C 327.903 745.353, 324.256 772.941, 323.447 779.500 C 323.108 782.250, 322.579 785.175, 322.272 786 C 321.964 786.825, 321.778 788.625, 321.857 790 C 321.936 791.375, 320.618 802.175, 318.930 814 C 313.159 854.404, 311.860 867.192, 313.369 868.755 C 314.321 869.740, 331.993 870.010, 395.874 870.012 C 440.585 870.014, 477.584 869.757, 478.094 869.442 C 478.604 869.126, 478.975 867.661, 478.917 866.184 C 478.860 864.708, 478.858 827.541, 478.913 783.590 C 478.968 739.640, 478.812 703.479, 478.565 703.232 C 477.466 702.133, 469.915 724.309, 463.491 747.500 C 459.651 761.364, 452.596 784.967, 451.236 788.500 C 449.083 794.091, 446.199 797, 442.807 797 C 438.020 797, 421.276 792.074, 410.500 787.496 C 399.319 782.746, 395.591 780.664, 391.485 776.879 C 386.096 771.912, 385.808 769.417, 389.527 759.940 C 390.917 756.398, 393.662 748.775, 395.628 743 C 406.542 710.939, 425.045 671.488, 438.192 652.250 C 439.789 649.913, 440.661 648, 440.130 648 C 439.598 648, 438.564 647.876, 437.832 647.725 C 437.099 647.573, 431.119 647.588, 424.543 647.758 M 580.999 648.305 C 580.999 648.748, 582.823 651.794, 585.051 655.076 C 587.280 658.357, 591.258 665.195, 593.893 670.271 C 600.173 682.371, 610.254 706.779, 609.486 708.023 C 609.154 708.561, 609.300 709, 609.810 709 C 610.321 709, 612.780 714.513, 615.276 721.250 C 632.213 766.974, 632.765 769.035, 629.369 773.883 C 624.658 780.609, 602.134 791.401, 583.247 795.981 C 574.525 798.097, 573.847 798.130, 571.452 796.560 C 568.609 794.698, 567.639 792.615, 564.899 782.500 C 563.856 778.650, 562.469 773.778, 561.816 771.674 C 560.834 768.507, 560.877 767.691, 562.065 766.939 C 563.267 766.178, 563.235 766.028, 561.872 766.015 C 560.805 766.005, 559.853 764.533, 559.112 761.750 C 553.894 742.142, 551.946 733.583, 552.421 732.346 C 552.731 731.537, 552.540 731.166, 551.989 731.507 C 551.445 731.843, 551 731.550, 551 730.855 C 551 728.413, 546.608 715, 545.809 715 C 545.364 715, 544.996 716.350, 544.992 718 C 544.987 719.650, 544.984 747.325, 544.984 779.500 C 544.984 811.675, 544.987 845.200, 544.992 854 L 545 870 628 870 L 711 870 710.992 866.250 C 710.985 863.022, 709.754 851.989, 707.505 835 C 705.331 818.578, 705.314 818.090, 706.933 817.654 C 708.204 817.312, 708.169 817.210, 706.750 817.116 C 705.502 817.033, 704.955 816.068, 704.843 813.750 C 704.588 808.453, 704.316 806.180, 702.180 791.500 C 701.059 783.800, 699.840 775.025, 699.470 772 C 698.255 762.057, 698.065 760.637, 695.986 746 C 694.853 738.025, 693.705 729.700, 693.433 727.500 C 688.302 685.899, 686.437 678.568, 678.235 667.755 C 672.956 660.795, 655.042 647.625, 653.268 649.399 C 652.967 649.700, 653.874 651.457, 655.284 653.305 C 663.049 663.486, 669.195 679.129, 671.483 694.538 C 672.968 704.539, 672.961 705.386, 671.382 707.130 C 670.387 708.230, 668.344 709, 666.423 709 C 662.616 709, 661.887 707.410, 660.004 695 C 658.406 684.466, 652.924 670.745, 645.949 659.819 C 642.676 654.694, 639.600 649.860, 639.113 649.077 C 638.236 647.669, 630.527 646.410, 631.213 647.787 C 631.409 648.179, 633.402 652.169, 635.643 656.654 C 637.883 661.139, 640.057 665.864, 640.474 667.154 C 640.890 668.444, 641.330 669.725, 641.452 670 C 642.605 672.611, 643.115 674.505, 644.421 681.031 C 646.168 689.767, 645.676 692.793, 642.298 694.077 C 639.076 695.302, 636.200 693.697, 635.387 690.221 C 632.014 675.800, 628.690 667.251, 622 655.793 L 617.500 648.087 599.249 647.793 C 589.211 647.632, 580.998 647.862, 580.999 648.305 M 517.525 664.124 C 515.338 665.767, 513.208 667.649, 512.790 668.306 C 512.372 668.963, 512.024 669.156, 512.015 668.736 C 512.007 668.315, 509.351 669.308, 506.114 670.943 C 502.876 672.577, 498.224 674.418, 495.775 675.035 L 491.322 676.156 491.316 697.924 C 491.312 709.896, 490.988 720.211, 490.595 720.846 C 490.203 721.481, 490.168 722.463, 490.518 723.029 C 491.135 724.028, 491.248 736.938, 491.218 803 C 491.199 844.502, 491.195 844.385, 492.432 845.235 C 493.176 845.746, 493.160 845.974, 492.380 845.985 C 491.613 845.995, 491.298 849.617, 491.380 857.499 L 491.500 868.999 512.002 868.999 L 532.504 869 532.653 799.065 C 532.735 760.600, 533.129 728.600, 533.529 727.953 C 533.929 727.306, 533.856 726.489, 533.367 726.138 C 532.878 725.787, 532.362 714.597, 532.222 701.271 C 531.977 678.094, 531.866 676.856, 529.652 672.771 C 526.591 667.123, 522.625 661.078, 522 661.111 C 521.725 661.125, 519.711 662.481, 517.525 664.124 M 667.500 704 C 667.160 704.550, 667.359 705, 667.941 705 C 668.523 705, 669 704.550, 669 704 C 669 703.450, 668.802 703, 668.559 703 C 668.316 703, 667.840 703.450, 667.500 704 M 747.500 709 C 747.160 709.550, 747.359 710, 747.941 710 C 748.523 710, 749 709.550, 749 709 C 749 708.450, 748.802 708, 748.559 708 C 748.316 708, 747.840 708.450, 747.500 709 M 162.182 713.750 C 161.544 716.362, 159.026 726.137, 156.588 735.470 C 154.149 744.804, 152.371 752.791, 152.636 753.220 C 152.901 753.649, 152.641 754, 152.059 754 C 151.477 754, 151 754.628, 151 755.396 C 151 757.076, 158.267 761.825, 166.500 765.525 C 169.800 767.009, 174.410 769.134, 176.745 770.248 C 179.080 771.361, 181.780 772.344, 182.745 772.431 C 183.710 772.518, 186.150 773.318, 188.166 774.209 C 192.714 776.217, 207.213 780.572, 212.250 781.443 C 214.313 781.799, 216 782.502, 216 783.005 C 216 783.508, 217.238 783.890, 218.750 783.853 C 222.212 783.770, 227.804 784.651, 235.500 786.493 C 243.356 788.373, 267.807 791.849, 275.744 792.213 C 279.178 792.371, 281.992 792.725, 281.998 793 C 282.015 793.817, 299 793.567, 299 792.750 C 299 792.337, 299.788 792.036, 300.750 792.079 C 301.806 792.127, 302.002 792.359, 301.244 792.664 C 300.553 792.943, 300.260 793.612, 300.593 794.151 C 300.947 794.724, 302.059 794.377, 303.271 793.315 C 304.453 792.280, 304.985 792.110, 304.508 792.920 C 303.875 793.994, 304.097 794.177, 305.418 793.670 C 306.378 793.301, 307.527 793, 307.970 793 C 308.819 793, 309.922 788.223, 310.626 781.500 C 310.856 779.300, 311.453 774.350, 311.953 770.500 C 312.453 766.650, 312.855 762.825, 312.848 762 C 312.840 761.175, 313.545 756.675, 314.415 752 C 315.285 747.325, 315.998 743.408, 315.999 743.296 C 315.999 743.184, 309.587 743.094, 301.750 743.098 C 293.913 743.101, 284.350 742.668, 280.500 742.136 C 239.698 736.499, 209.423 728.344, 174.602 713.611 C 168.609 711.075, 163.623 709, 163.524 709 C 163.425 709, 162.821 711.138, 162.182 713.750 M 857.656 710.133 C 856.642 710.722, 855.292 711.282, 854.656 711.376 C 851.869 711.788, 847.073 714.310, 847.565 715.105 C 847.861 715.584, 847.494 715.743, 846.749 715.457 C 846.004 715.171, 843.711 715.641, 841.653 716.500 C 839.595 717.360, 837.520 717.822, 837.041 717.526 C 836.563 717.230, 836.006 717.481, 835.805 718.084 C 834.732 721.305, 781.772 736.567, 763.500 738.921 C 758.550 739.558, 752.434 740.535, 749.909 741.092 C 745.313 742.104, 730.362 742.927, 715.683 742.975 C 708.172 742.999, 707.892 743.083, 708.540 745.125 C 708.963 746.458, 708.708 747.570, 707.857 748.110 C 706.859 748.742, 706.830 748.973, 707.750 748.985 C 708.540 748.994, 709 750.478, 709 753.014 C 709 755.221, 709.420 757.809, 709.933 758.764 C 710.445 759.719, 711.631 767.475, 712.568 776 C 713.504 784.525, 714.599 791.867, 715.002 792.317 C 715.771 793.175, 736.943 793.351, 745.500 792.570 C 748.250 792.319, 753.813 791.805, 757.862 791.429 C 763.577 790.897, 765.444 791.052, 766.206 792.122 C 766.993 793.225, 767.087 793.180, 766.682 791.897 C 766.260 790.561, 767.957 790.004, 776.838 788.560 C 800.816 784.663, 830.451 776.473, 847.500 769.033 C 849.700 768.073, 852.756 766.985, 854.291 766.614 C 855.826 766.244, 856.815 765.510, 856.489 764.982 C 856.163 764.455, 856.533 764.267, 857.311 764.566 C 858.090 764.865, 860.926 763.820, 863.613 762.244 C 866.301 760.668, 869.288 759.083, 870.250 758.721 C 871.212 758.359, 872 757.626, 872 757.092 C 872 755.631, 866.495 733.872, 863.222 722.394 C 861.637 716.836, 860.449 711.548, 860.582 710.644 C 860.860 708.746, 860.230 708.636, 857.656 710.133 M 537 734 C 537 734.550, 537.477 735, 538.059 735 C 538.641 735, 538.840 734.550, 538.500 734 C 538.160 733.450, 537.684 733, 537.441 733 C 537.198 733, 537 733.450, 537 734 M 313.500 778 C 313.160 778.550, 313.359 779, 313.941 779 C 314.523 779, 315 778.550, 315 778 C 315 777.450, 314.802 777, 314.559 777 C 314.316 777, 313.840 777.450, 313.500 778" stroke="none" fill="black" fill-rule="evenodd"/>
</svg>