<svg xmlns="http://www.w3.org/2000/svg" width="1024" height="1024" viewBox="0 0 1024 1024" version="1.1">
	<path d="M 509.949 145.095 C 509.332 146.248, 508.922 149.510, 509.038 152.345 C 509.154 155.180, 509.192 163.688, 509.124 171.250 L 509 185 505.719 185 C 502.621 185, 502.227 184.569, 498.635 177.250 C 492.897 165.558, 492.291 164.774, 489.966 166.018 C 487.167 167.516, 487.446 168.936, 492.522 179.043 C 496.384 186.733, 496.807 188.137, 495.421 188.669 C 494.528 189.011, 493.506 188.853, 493.149 188.317 C 489.941 183.500, 484.447 177.998, 483.290 178.442 C 482.523 178.736, 482.171 178.532, 482.507 177.989 C 483.674 176.100, 481.989 174.941, 479.689 176.052 C 477.582 177.071, 477.572 177.053, 479.431 175.562 C 481.327 174.043, 481.319 173.968, 479.007 171.507 C 476.304 168.630, 474.766 168.372, 473 170.500 C 471.960 171.754, 473.041 173.604, 479.571 181.750 C 483.870 187.113, 487.787 192.041, 488.276 192.702 C 488.765 193.363, 488.854 194.885, 488.473 196.084 C 488.048 197.424, 487.516 197.835, 487.093 197.151 C 486.034 195.437, 448.778 177.148, 447.413 177.672 C 444.902 178.635, 447.523 183.441, 451.879 185.861 L 456.129 188.221 456.681 186.111 C 456.985 184.950, 457.679 184, 458.224 184 C 458.768 184, 458.955 184.675, 458.638 185.500 C 458.288 186.414, 458.637 187, 459.531 187 C 460.339 187, 461 187.450, 461 188 C 461 188.550, 460.212 189.006, 459.250 189.014 C 457.309 189.029, 474.613 198.270, 477 198.493 C 477.825 198.570, 479.653 199.676, 481.061 200.951 C 483.498 203.156, 483.566 203.493, 482.453 207.884 L 481.284 212.500 473.142 212.790 C 467.801 212.981, 465 213.480, 465 214.240 C 465 215.097, 464.687 215.087, 463.800 214.200 C 462.354 212.754, 454 212.583, 454 214 C 454 214.550, 453.523 215, 452.941 215 C 452.359 215, 452.160 214.550, 452.500 214 C 452.872 213.398, 451.546 213, 449.166 213 C 445.076 213, 443.510 214.560, 444.641 217.506 C 445.127 218.775, 447.974 218.994, 462.666 218.896 C 472.262 218.832, 480.396 219.063, 480.742 219.409 C 481.088 219.754, 481.923 221.643, 482.598 223.606 C 483.688 226.777, 483.607 227.393, 481.876 229.124 C 480.804 230.196, 479.495 230.806, 478.968 230.480 C 478.440 230.154, 470.581 233.510, 461.504 237.939 C 448.205 244.427, 445 246.386, 445 248.026 C 445 250.682, 447.251 251.482, 450.172 249.865 C 451.452 249.155, 452.876 248.684, 453.336 248.816 C 453.796 248.949, 454.421 248.106, 454.725 246.944 C 455.102 245.501, 455.516 245.216, 456.028 246.045 C 456.581 246.940, 458.649 246.397, 463.889 243.982 C 467.800 242.179, 471 240.294, 471 239.793 C 471 239.292, 471.408 239.134, 471.907 239.443 C 472.406 239.751, 475.668 238.653, 479.157 237.002 C 491.339 231.239, 492.193 233.518, 482.344 245.500 C 472.544 257.422, 471.679 258.720, 472.359 260.492 C 473.441 263.313, 476.734 262.030, 480.630 257.272 C 482.758 254.671, 484.521 251.859, 484.547 251.022 C 484.572 250.185, 485.109 249.604, 485.739 249.731 C 487.273 250.040, 491 245.198, 491 242.897 C 491 241.677, 491.503 241.256, 492.500 241.638 C 493.325 241.955, 494 241.716, 494 241.107 C 494 240.498, 493.475 240, 492.833 240 C 492.192 240, 491.923 239.744, 492.236 239.431 C 492.549 239.118, 493.862 239.455, 495.153 240.181 C 496.444 240.906, 497.662 241.587, 497.860 241.694 C 498.058 241.800, 497.192 244.756, 495.934 248.263 C 493.622 254.710, 493.764 258, 496.355 258 C 497.728 258, 499.098 255.655, 502.384 247.678 C 503.644 244.619, 504.412 243.920, 506.229 244.178 C 508.473 244.496, 508.503 244.696, 508.765 261 C 508.984 274.674, 509.300 277.702, 510.612 278.681 C 513.705 280.990, 515 279.159, 515 272.476 C 515 268.364, 514.565 265.991, 513.750 265.662 C 512.750 265.259, 512.750 265.142, 513.750 265.079 C 514.660 265.021, 515 262.315, 515 255.117 L 515 245.233 517.750 244.694 C 521.302 243.997, 521.851 244.616, 524.385 252.185 C 526.497 258.491, 528.852 260.548, 531.233 258.167 C 532.559 256.841, 531.298 251.698, 529.864 252.584 C 529.157 253.021, 529.013 252.535, 529.444 251.175 C 529.818 249.997, 529.432 247.802, 528.552 246.100 C 526.602 242.331, 526.606 242.281, 528.906 241.051 C 530.543 240.174, 531.260 240.730, 534.007 245.011 C 535.765 247.751, 537.603 249.746, 538.090 249.444 C 538.578 249.143, 538.719 249.570, 538.403 250.393 C 537.852 251.829, 542.863 260.180, 545.109 261.567 C 545.705 261.935, 546.911 261.517, 547.791 260.638 C 549.561 258.868, 549.247 258.126, 540.827 244.148 C 538.722 240.654, 537 237.152, 537 236.366 C 537 234.147, 539.876 233.578, 541.889 235.399 C 542.886 236.302, 549.957 239.891, 557.601 243.374 C 565.246 246.857, 572.709 250.282, 574.186 250.985 C 577.450 252.538, 580 251.735, 580 249.154 C 580 246.710, 579.545 246.410, 567 240.559 C 561.225 237.866, 553.270 234.140, 549.322 232.280 L 542.144 228.898 543.917 224.937 C 544.892 222.759, 545.972 220.695, 546.316 220.351 C 546.660 220.007, 554.042 219.538, 562.721 219.310 C 571.399 219.081, 578.940 218.456, 579.478 217.920 C 580.114 217.285, 580.077 216.344, 579.370 215.222 C 578.427 213.725, 576.126 213.464, 561.794 213.227 L 545.302 212.953 544.111 208.977 C 543.456 206.789, 542.289 205, 541.519 205 C 540.748 205, 539.793 204.474, 539.395 203.830 C 538.909 203.043, 539.217 202.869, 540.336 203.299 C 543.155 204.380, 542.297 200.659, 539 197.500 C 535.346 193.999, 535.259 192.134, 538.513 186.980 C 539.894 184.791, 540.708 183, 540.321 183 C 539.934 183, 540.347 182.438, 541.238 181.750 C 542.129 181.063, 545.125 177.179, 547.895 173.121 C 551.958 167.170, 552.739 165.380, 551.931 163.871 C 551.380 162.842, 550.281 162, 549.488 162 C 548.695 162, 544.240 167.709, 539.588 174.688 C 531.867 186.271, 531.277 187.495, 532.815 188.756 C 534.308 189.979, 534.158 190.063, 531.500 189.497 C 529.850 189.146, 528.135 188.503, 527.690 188.069 C 527.244 187.635, 528.103 183.504, 529.597 178.890 C 533.104 168.061, 533.306 163.615, 530.312 163.189 C 528.351 162.909, 527.806 163.907, 525.062 172.799 C 523.378 178.257, 522 183.234, 522 183.861 C 522 184.487, 520.650 185, 519 185 C 516.005 185, 516 184.991, 516 179.083 C 516 175.287, 515.552 172.985, 514.750 172.659 C 513.755 172.256, 513.754 171.973, 514.743 171.272 C 516.233 170.215, 516.336 147.516, 514.862 144.750 C 513.601 142.383, 511.315 142.544, 509.949 145.095 M 645.409 161.507 C 645.063 162.885, 645.086 165.646, 645.461 167.642 C 646.200 171.581, 646.654 171.436, 640.012 169.387 C 636.839 168.407, 636.158 171.856, 639.087 174.066 C 641.233 175.685, 641.303 175.947, 639.743 176.545 C 638.785 176.913, 638 178.117, 638 179.221 C 638 181.032, 638.438 181.161, 642.500 180.552 L 647 179.877 647 185.814 C 647 191.479, 647.114 191.750, 649.500 191.750 C 651.905 191.750, 652 191.508, 652 185.375 C 652 179.440, 652.155 178.998, 654.250 178.968 C 657.361 178.924, 660.247 176.518, 659.820 174.326 C 659.549 172.937, 658.511 172.486, 655.482 172.440 L 651.500 172.379 651.190 166.970 C 651.020 163.995, 650.402 160.984, 649.818 160.280 C 648.117 158.231, 646.090 158.795, 645.409 161.507 M 371.701 163.632 C 371.316 164.018, 371 166.016, 371 168.073 L 371 171.813 367.427 170.716 C 364.534 169.828, 363.680 169.894, 362.942 171.060 C 361.596 173.187, 361.784 173.797, 364 174.500 C 366.351 175.246, 366.648 177.538, 364.500 178.362 C 363.675 178.678, 363 179.688, 363 180.605 C 363 182.002, 363.719 182.173, 367.446 181.662 L 371.893 181.053 372.196 185.776 C 372.451 189.732, 372.825 190.500, 374.500 190.500 C 376.182 190.500, 376.549 189.731, 376.808 185.665 C 377.069 181.575, 377.377 180.938, 378.808 181.529 C 382.824 183.186, 383.735 183.120, 384.254 181.139 C 384.877 178.754, 384.310 178, 381.892 178 C 378.852 178, 378.766 176.106, 381.692 173.571 C 383.974 171.595, 384.261 170.897, 383.225 169.845 C 382.210 168.814, 381.550 168.800, 379.989 169.775 C 376.890 171.710, 376.142 171.260, 375.810 167.258 C 375.514 163.689, 373.458 161.875, 371.701 163.632 M 565.798 181.168 C 560.462 183.983, 556.187 186.785, 556.298 187.393 C 556.409 188.002, 555.308 188.545, 553.850 188.600 C 549.552 188.761, 544.458 192.303, 544.753 194.924 C 544.916 196.371, 544.561 197.006, 543.753 196.709 C 543.064 196.457, 542.612 195.744, 542.750 195.125 C 543.073 193.674, 541.721 193.679, 540.264 195.136 C 539.018 196.382, 540.862 199, 542.988 199 C 543.609 199, 543.847 199.438, 543.516 199.973 C 543.186 200.509, 545.972 199.233, 549.707 197.139 C 553.443 195.044, 561.557 190.671, 567.737 187.419 C 579.163 181.410, 580.927 179.821, 578.895 177.373 C 577.209 175.343, 576.389 175.580, 565.798 181.168 M 502.500 193 C 502.840 193.550, 503.541 194, 504.059 194 C 504.577 194, 505 193.550, 505 193 C 505 192.450, 504.298 192, 503.441 192 C 502.584 192, 502.160 192.450, 502.500 193 M 549.813 193.683 C 550.534 193.972, 551.397 193.936, 551.729 193.604 C 552.061 193.272, 551.471 193.036, 550.417 193.079 C 549.252 193.127, 549.015 193.364, 549.813 193.683 M 506.114 194.929 C 505.255 195.461, 505.152 195.976, 505.824 196.391 C 506.395 196.744, 507.163 196.545, 507.531 195.950 C 508.449 194.464, 507.719 193.938, 506.114 194.929 M 527 195.571 C 527 196.318, 529.688 199, 530.437 199 C 530.756 199, 530.455 198.100, 529.768 197 C 528.596 195.123, 527 194.299, 527 195.571 M 728.701 196.632 C 728.316 197.018, 728 199.283, 728 201.667 C 728 206.533, 727.884 206.625, 724.509 204.414 C 723.177 203.541, 721.607 203.125, 721.019 203.488 C 720.431 203.851, 720.074 203.579, 720.225 202.884 C 720.376 202.188, 719.712 201.447, 718.750 201.236 C 716.092 200.655, 716.558 204.236, 719.500 207 C 720.875 208.292, 722 209.684, 722 210.094 C 722 210.504, 719.862 210.676, 717.250 210.477 C 711.131 210.011, 709 210.675, 709 213.048 C 709 215.438, 712.526 216.426, 718.603 215.741 C 723.031 215.242, 723.068 215.263, 721.530 217.368 C 718.018 222.174, 718.237 223.481, 722.382 222.440 C 723.822 222.079, 725 221.157, 725 220.392 C 725 219.626, 725.425 219, 725.945 219 C 726.465 219, 727.028 221.137, 727.195 223.750 C 727.451 227.732, 727.823 228.500, 729.500 228.500 C 731.151 228.500, 731.587 227.667, 732 223.725 C 732.515 218.811, 732.894 218.539, 736.777 220.308 C 739.960 221.758, 741.742 219.924, 740.276 216.707 C 739.426 214.842, 739.530 214.155, 740.782 213.366 C 742.922 212.016, 741.636 209, 738.921 209 C 736.780 209, 736.780 208.999, 739.056 207.156 C 740.513 205.976, 741.105 204.715, 740.698 203.656 C 739.843 201.426, 737.701 201.568, 735.500 204 C 732.842 206.937, 732.367 206.515, 732.437 201.279 C 732.484 197.783, 732.098 196.476, 730.951 196.244 C 730.099 196.072, 729.087 196.246, 728.701 196.632 M 481.500 198 C 481.840 198.550, 482.316 199, 482.559 199 C 482.802 199, 483 198.550, 483 198 C 483 197.450, 482.523 197, 481.941 197 C 481.359 197, 481.160 197.450, 481.500 198 M 281.356 200.515 C 280.786 202, 281.093 203.856, 282.455 207.150 C 283.004 208.477, 282.325 208.938, 278.999 209.500 C 271.962 210.689, 272.614 215.500, 279.812 215.500 C 282.595 215.500, 283.405 215.868, 283.113 217 C 281.646 222.693, 281.707 223, 284.316 223 C 285.987 223, 287.084 222.311, 287.500 221 C 288.409 218.137, 289.640 218.529, 290.876 222.073 C 291.711 224.469, 292.449 225.075, 294.223 224.823 C 296.612 224.484, 296.919 222.554, 295.485 216.905 C 294.855 214.425, 295.062 214.270, 300.152 213.405 C 304.150 212.726, 305.568 212.031, 305.838 210.620 C 306.357 207.902, 304.123 206.914, 299.098 207.638 C 294.811 208.256, 294.715 208.210, 295.435 205.886 C 296.754 201.634, 296.558 199.574, 294.803 199.218 C 293.641 198.982, 292.409 200.236, 290.902 203.187 L 288.698 207.500 286.890 203.250 C 285.062 198.953, 282.451 197.662, 281.356 200.515 M 520 201 C 520 201.550, 520.450 202, 521 202 C 521.550 202, 522 201.550, 522 201 C 522 200.450, 521.550 200, 521 200 C 520.450 200, 520 200.450, 520 201 M 535.560 201.904 C 535.128 202.602, 535.268 203.668, 535.870 204.270 C 537.346 205.746, 537.906 204.934, 537.047 202.566 C 536.528 201.138, 536.140 200.965, 535.560 201.904 M 503 209 C 503 209.550, 503.450 210, 504 210 C 504.550 210, 505 209.550, 505 209 C 505 208.450, 504.550 208, 504 208 C 503.450 208, 503 208.450, 503 209 M 457 215 C 457 215.550, 457.450 216, 458 216 C 458.550 216, 459 215.550, 459 215 C 459 214.450, 458.550 214, 458 214 C 457.450 214, 457 214.450, 457 215 M 472.500 215 C 472.160 215.550, 472.359 216, 472.941 216 C 473.523 216, 474 215.550, 474 215 C 474 214.450, 473.802 214, 473.559 214 C 473.316 214, 472.840 214.450, 472.500 215 M 516 220.059 C 516 220.641, 516.450 220.840, 517 220.500 C 517.550 220.160, 518 219.684, 518 219.441 C 518 219.198, 517.550 219, 517 219 C 516.450 219, 516 219.477, 516 220.059 M 503 227 C 503 227.550, 503.450 228, 504 228 C 504.550 228, 505 227.550, 505 227 C 505 226.450, 504.550 226, 504 226 C 503.450 226, 503 226.450, 503 227 M 524.500 228 C 524.840 228.550, 525.316 229, 525.559 229 C 525.802 229, 526 228.550, 526 228 C 526 227.450, 525.523 227, 524.941 227 C 524.359 227, 524.160 227.450, 524.500 228 M 480 233 C 480 233.550, 480.450 234, 481 234 C 481.550 234, 482 233.550, 482 233 C 482 232.450, 481.550 232, 481 232 C 480.450 232, 480 232.450, 480 233 M 512 233 C 512 233.550, 512.477 234, 513.059 234 C 513.641 234, 513.840 233.550, 513.500 233 C 513.160 232.450, 512.684 232, 512.441 232 C 512.198 232, 512 232.450, 512 233 M 474 234 C 474 234.550, 474.450 235, 475 235 C 475.550 235, 476 234.550, 476 234 C 476 233.450, 475.550 233, 475 233 C 474.450 233, 474 233.450, 474 234 M 525 235.059 C 525 235.641, 525.450 235.840, 526 235.500 C 526.550 235.160, 527 234.684, 527 234.441 C 527 234.198, 526.550 234, 526 234 C 525.450 234, 525 234.477, 525 235.059 M 662.050 236.969 C 661.353 237.400, 660.548 239.833, 660.261 242.376 C 659.811 246.373, 659.987 247, 661.561 247 C 663.290 247, 663.293 247.065, 661.625 248.285 C 660.653 248.995, 659.614 251.455, 659.302 253.785 C 658.991 256.103, 658.366 258, 657.913 258 C 657.460 258, 655.415 256.864, 653.368 255.475 C 651.322 254.087, 649.165 253.112, 648.574 253.308 C 646.097 254.133, 646.990 257.279, 650.581 260.384 L 654.336 263.630 650.418 265.657 C 646.247 267.815, 644.734 271.300, 647.505 272.364 C 648.391 272.703, 650.872 272.086, 653.018 270.991 C 655.164 269.896, 657.362 269, 657.902 269 C 658.507 269, 658.658 271.689, 658.297 276 C 657.838 281.467, 658.003 283, 659.046 283 C 659.886 283, 659.662 283.545, 658.441 284.468 C 656.591 285.867, 656.641 285.943, 659.500 286.068 C 662.451 286.197, 662.459 286.212, 660 287 L 657.500 287.801 660.250 287.900 C 661.782 287.956, 663.051 287.446, 663.115 286.750 C 663.179 286.063, 663.335 285.050, 663.463 284.500 C 663.591 283.950, 663.764 280.913, 663.848 277.750 C 663.931 274.587, 664.387 272, 664.860 272 C 665.334 272, 667.379 273.125, 669.405 274.500 C 674.120 277.700, 676 277.702, 676 274.509 C 676 272.763, 674.958 271.343, 672.512 269.759 C 668.993 267.479, 667.757 264, 670.466 264 C 673.473 264, 679 260.621, 679 258.783 C 679 255.925, 676.582 255.649, 671.446 257.921 C 665.364 260.611, 664.939 260.555, 665.621 257.144 C 666.034 255.079, 665.750 254.118, 664.596 253.675 C 663.718 253.338, 663 252.288, 663 251.340 C 663 249.810, 663.163 249.834, 664.468 251.559 C 665.798 253.318, 665.939 252.735, 665.968 245.357 C 666 237.095, 665.070 235.103, 662.050 236.969 M 366.250 239.703 C 365.378 240.026, 365 242.864, 365 249.083 C 365 253.988, 364.650 258, 364.223 258 C 363.795 258, 362.444 257.299, 361.221 256.442 C 359.997 255.585, 358.478 255.205, 357.844 255.597 C 357.077 256.070, 356.965 255.865, 357.510 254.985 C 358.112 254.010, 357.866 253.837, 356.582 254.330 C 355.622 254.699, 354.648 255, 354.418 255 C 354.188 255, 354 255.910, 354 257.021 C 354 258.207, 355.033 259.514, 356.500 260.182 C 359.793 261.682, 359.647 263.124, 355.994 265.203 C 352.848 266.994, 352.041 269.695, 354.383 270.594 C 355.144 270.886, 357.449 270.421, 359.505 269.562 C 361.562 268.703, 363.527 267.999, 363.872 267.999 C 364.217 267.998, 364.500 271.818, 364.500 276.487 C 364.500 281.156, 364.900 284.943, 365.388 284.902 C 365.877 284.862, 366.614 285.375, 367.026 286.043 C 368.812 288.933, 370 285.497, 370 277.441 C 370 267.921, 370.337 267.601, 376.853 270.925 C 379.039 272.040, 381.166 272.515, 381.911 272.055 C 384.160 270.665, 382.600 267.563, 378.737 265.744 C 376.681 264.776, 375 263.547, 375 263.012 C 375 262.478, 376.800 261.122, 379 260 C 381.664 258.641, 383 257.288, 383 255.948 C 383 252.955, 380.683 252.611, 376.137 254.930 C 373.905 256.069, 371.724 256.998, 371.290 256.996 C 370.855 256.994, 370.357 253.507, 370.182 249.246 C 369.869 241.616, 368.706 238.793, 366.250 239.703 M 447.636 247.494 C 447.952 248.316, 448.620 248.735, 449.121 248.425 C 450.170 247.777, 449.328 246, 447.972 246 C 447.472 246, 447.321 246.672, 447.636 247.494 M 576.500 247 C 576.840 247.550, 577.316 248, 577.559 248 C 577.802 248, 578 247.550, 578 247 C 578 246.450, 577.523 246, 576.941 246 C 576.359 246, 576.160 246.450, 576.500 247 M 371.500 259 C 371.160 259.550, 371.359 260, 371.941 260 C 372.523 260, 373 259.550, 373 259 C 373 258.450, 372.802 258, 372.559 258 C 372.316 258, 371.840 258.450, 371.500 259 M 375.015 266.750 C 375.024 267.163, 375.467 268.175, 376 269 C 376.784 270.213, 376.972 270.069, 376.985 268.250 C 376.993 267.012, 376.550 266, 376 266 C 375.450 266, 375.007 266.337, 375.015 266.750 M 668 271 C 668 271.550, 668.450 272, 669 272 C 669.550 272, 670 271.550, 670 271 C 670 270.450, 669.550 270, 669 270 C 668.450 270, 668 270.450, 668 271 M 366.510 283.016 C 366.856 283.575, 367.557 283.774, 368.069 283.457 C 369.456 282.600, 369.198 282, 367.441 282 C 366.584 282, 366.165 282.457, 366.510 283.016 M 284.324 304.779 C 283.678 305.190, 283.003 307.320, 282.824 309.513 C 282.539 313.024, 282.171 313.538, 279.750 313.816 C 276.832 314.152, 274.676 316.857, 275.833 318.729 C 276.214 319.346, 278.316 319.997, 280.505 320.176 C 283.582 320.427, 284.551 320.953, 284.781 322.500 C 285.653 328.372, 286.074 329.129, 288.285 328.815 C 290.244 328.536, 290.481 327.951, 290.338 323.750 C 290.193 319.502, 290.405 318.999, 292.338 318.986 C 296.899 318.958, 299 317.821, 299 315.383 C 299 313.203, 298.591 313, 294.192 313 L 289.384 313 288.442 308.818 C 287.476 304.531, 286.391 303.466, 284.324 304.779 M 735.852 308.750 C 735.771 309.712, 735.658 311.400, 735.602 312.500 C 735.531 313.890, 734.687 314.594, 732.835 314.808 C 727.478 315.428, 728.637 321, 734.122 321 C 736.499 321, 737 321.421, 737 323.418 C 737 327.380, 738.069 329, 740.683 329 C 742.967 329, 743.130 328.682, 742.849 324.786 C 742.555 320.725, 742.665 320.548, 745.902 319.886 C 748.955 319.262, 750.945 317.655, 750.985 315.781 C 750.993 315.386, 750.383 315.300, 749.629 315.589 C 748.875 315.878, 747.982 315.396, 747.645 314.517 C 747.244 313.473, 746.074 313.020, 744.266 313.210 C 741.804 313.468, 741.466 313.142, 741.187 310.250 C 740.927 307.558, 740.455 307, 738.437 307 C 736.839 307, 735.949 307.603, 735.852 308.750 M 539.425 309.465 C 535.534 310.172, 528.334 312.425, 523.425 314.471 C 518.516 316.518, 513.825 318.193, 513 318.194 C 512.175 318.195, 508.435 317.025, 504.690 315.593 C 495.856 312.216, 482.940 309.999, 472.119 310.003 C 462.719 310.007, 445.701 312.578, 445.165 314.076 C 444.980 314.591, 444.427 314.764, 443.936 314.461 C 442.740 313.722, 429.624 319.522, 424 323.276 C 414.584 329.563, 403.087 342.820, 401.472 349.254 C 401.044 350.960, 400.303 351.635, 399.170 351.348 C 397.245 350.861, 389.227 357.205, 384.760 362.751 C 380.551 367.975, 376.120 377.620, 375.385 383.154 C 374.772 387.773, 374.735 387.813, 370.305 388.477 C 365.928 389.133, 333.890 389.182, 327 388.543 C 322.994 388.171, 303.629 385.179, 300.551 384.457 C 299.423 384.192, 297.150 383.815, 295.500 383.619 C 293.850 383.423, 291.825 382.992, 291 382.660 C 290.175 382.328, 284.100 380.902, 277.500 379.492 C 270.900 378.081, 264.712 376.490, 263.750 375.955 C 262.598 375.315, 262 375.327, 262 375.992 C 262 376.546, 261.550 377, 261 377 C 260.450 377, 260 376.407, 260 375.683 C 260 374.483, 250.285 370.696, 248.329 371.132 C 247.873 371.234, 246.740 370.983, 245.811 370.575 C 243.343 369.491, 233.636 371.768, 229.899 374.308 C 225.148 377.537, 222.592 383.245, 222.163 391.579 C 221.710 400.372, 223.594 409.930, 230.531 434.040 C 233.464 444.237, 236.673 456.508, 237.662 461.309 C 238.926 467.449, 239.835 469.893, 240.729 469.550 C 241.428 469.282, 242 469.499, 242 470.031 C 242 470.564, 241.559 471, 241.020 471 C 240.480 471, 240.238 472.462, 240.481 474.250 C 242.091 486.083, 242.099 500.049, 240.511 524.610 C 238.521 555.397, 238.671 559.700, 242.466 580.500 C 244.807 593.326, 245.115 597.094, 244.596 606.500 C 243.862 619.805, 243.584 622.247, 242.623 623.800 C 242.216 624.460, 242.191 625.500, 242.569 626.112 C 242.947 626.723, 242.780 627.518, 242.198 627.878 C 240.957 628.645, 230.493 663.945, 226.155 682 C 221.594 700.983, 220.707 706.451, 221.207 712.487 C 221.773 719.302, 225.453 724.328, 232.556 727.983 C 236.796 730.165, 238.585 730.459, 246.949 730.348 C 259.307 730.184, 271.805 727.428, 284.500 722.066 C 293.363 718.322, 324.119 712.003, 323.954 713.959 C 323.929 714.257, 319.092 717.510, 313.204 721.188 C 300.753 728.967, 286.217 741.382, 280.148 749.420 C 276.122 754.753, 269.885 766.506, 268.723 770.953 C 268.027 773.614, 266.984 773.563, 250.408 770.064 C 228.699 765.482, 216 764.937, 216 768.588 C 216 769.365, 215.523 770, 214.941 770 C 214.359 770, 214.160 769.550, 214.500 769 C 216.197 766.255, 209.354 769.922, 205.804 773.661 C 204.321 775.222, 202.071 778.750, 200.804 781.500 C 198.564 786.361, 198.497 787.360, 198.399 817.500 C 198.340 835.642, 197.815 851.561, 197.134 855.880 C 196.264 861.396, 196.258 863.605, 197.108 864.630 C 198.528 866.341, 201.424 866.402, 202.785 864.750 C 204.563 862.593, 206.096 852.018, 206.711 837.667 L 207.303 823.834 210.402 824.367 C 212.106 824.659, 215.750 825.194, 218.500 825.554 C 224.635 826.357, 237 829.732, 255.317 835.602 C 285.450 845.258, 304.356 849, 323.008 849 C 335.259 849, 357.438 846.592, 361.926 844.774 C 363.342 844.201, 365.850 843.560, 367.500 843.351 C 377.975 842.020, 418.656 828.133, 418.194 826.046 C 417.968 825.028, 418.233 824.940, 419.194 825.713 C 420.148 826.481, 424.007 825.444, 433.500 821.870 C 449.700 815.770, 471.842 807.211, 474.500 806.021 C 475.600 805.529, 477.625 804.822, 479 804.452 C 480.375 804.081, 488.303 801.375, 496.617 798.438 C 537.010 784.169, 559.012 780.152, 590.452 781.306 C 612.344 782.110, 614.488 782.504, 675 796.832 C 686.825 799.632, 698.075 802.110, 700 802.339 C 701.925 802.568, 705.636 803.313, 708.246 803.995 C 710.856 804.677, 713.872 805.005, 714.948 804.724 C 716.024 804.443, 717.076 804.727, 717.285 805.356 C 717.731 806.692, 748.046 806.668, 756.972 805.324 C 768.469 803.593, 792.268 806.355, 802.596 810.620 C 805.689 811.897, 805.692 811.908, 806.325 821.699 C 806.949 831.342, 812.050 859.286, 814.013 863.816 C 814.775 865.572, 815.679 866.055, 817.758 865.816 C 821.640 865.369, 821.663 862.974, 817.967 844.351 C 815.202 830.422, 814.857 826.863, 815.120 815 C 815.728 787.572, 815.548 779.681, 814.306 779.268 C 813.650 779.050, 813.369 778.202, 813.683 777.384 C 813.997 776.566, 812.626 772.604, 810.637 768.579 C 807.894 763.031, 805.627 760.107, 801.260 756.488 C 794.582 750.953, 786.070 746.847, 780.853 746.643 C 778.847 746.564, 777.370 746.229, 777.571 745.897 C 778.195 744.867, 761.959 742.997, 752.398 742.999 C 743.643 743, 743.177 742.886, 740.148 739.991 C 738.417 738.337, 736.979 736.649, 736.953 736.241 C 736.813 734.047, 711.249 717, 708.099 717 C 707.494 717, 707 716.550, 707 716 C 707 714.698, 710.426 714.733, 717.114 716.105 C 720.076 716.712, 723.175 717.325, 724 717.466 C 724.825 717.607, 726.175 717.970, 727 718.272 C 732.280 720.207, 756.278 727.475, 760 728.267 C 767.544 729.871, 781.046 730.247, 785.577 728.978 C 791.229 727.396, 795.995 723.279, 799.011 717.375 C 801.153 713.180, 801.497 711.175, 801.479 703 C 801.462 695.129, 800.727 690.646, 797.191 676.853 C 794.844 667.698, 790.710 654.087, 788.003 646.608 C 777.872 618.609, 776.847 603.360, 783.088 573.500 C 785.136 563.700, 785.513 548.260, 783.992 536.500 C 782.606 525.795, 781.511 504.897, 781.607 491 C 781.754 469.591, 784.566 453.969, 794.476 419.500 C 797.378 409.405, 798.318 404.153, 798.680 396 C 799.106 386.441, 798.939 385.102, 796.824 381.058 C 793.506 374.715, 788.223 370.824, 782.138 370.239 C 778.097 369.851, 774.767 370.599, 763.849 374.345 C 756.507 376.865, 748.549 379.232, 746.164 379.605 C 743.780 379.978, 741.590 380.906, 741.298 381.667 C 740.921 382.647, 740.404 382.750, 739.524 382.020 C 738.663 381.305, 735.860 381.446, 730.391 382.478 C 710.399 386.250, 667.568 388.206, 645.601 386.349 C 637.915 385.699, 637.898 385.691, 636.405 382.099 C 635.583 380.120, 633.595 376.857, 631.987 374.849 C 627.276 368.963, 623.630 362.158, 619.608 351.745 C 613.086 334.858, 605.960 326.334, 591.904 318.610 C 574.836 309.231, 557.422 306.197, 539.425 309.465 M 567.500 313 C 567.160 313.550, 567.359 314, 567.941 314 C 568.523 314, 569 313.550, 569 313 C 569 312.450, 568.802 312, 568.559 312 C 568.316 312, 567.840 312.450, 567.500 313 M 286.813 323.683 C 287.534 323.972, 288.397 323.936, 288.729 323.604 C 289.061 323.272, 288.471 323.036, 287.417 323.079 C 286.252 323.127, 286.015 323.364, 286.813 323.683 M 579.500 330 C 579.840 330.550, 580.316 331, 580.559 331 C 580.802 331, 581 330.550, 581 330 C 581 329.450, 580.523 329, 579.941 329 C 579.359 329, 579.160 329.450, 579.500 330 M 448 343 C 448 343.550, 448.450 344, 449 344 C 449.550 344, 450 343.550, 450 343 C 450 342.450, 449.550 342, 449 342 C 448.450 342, 448 342.450, 448 343 M 438.079 349.583 C 438.127 350.748, 438.364 350.985, 438.683 350.188 C 438.972 349.466, 438.936 348.603, 438.604 348.271 C 438.272 347.939, 438.036 348.529, 438.079 349.583 M 431 366 C 431 366.550, 431.450 367, 432 367 C 432.550 367, 433 366.550, 433 366 C 433 365.450, 432.550 365, 432 365 C 431.450 365, 431 365.450, 431 366 M 435.500 370 C 435.840 370.550, 436.316 371, 436.559 371 C 436.802 371, 437 370.550, 437 370 C 437 369.450, 436.523 369, 435.941 369 C 435.359 369, 435.160 369.450, 435.500 370 M 621.500 374 C 621.840 374.550, 622.316 375, 622.559 375 C 622.802 375, 623 374.550, 623 374 C 623 373.450, 622.523 373, 621.941 373 C 621.359 373, 621.160 373.450, 621.500 374 M 528 377.059 C 528 377.641, 528.450 377.840, 529 377.500 C 529.550 377.160, 530 376.684, 530 376.441 C 530 376.198, 529.550 376, 529 376 C 528.450 376, 528 376.477, 528 377.059 M 235.722 380.135 C 229.816 384.541, 228.719 390.891, 231.567 404.185 C 232.429 408.208, 233.270 412.400, 233.435 413.500 C 233.600 414.600, 233.991 416.175, 234.304 417 C 236.678 423.267, 245.442 456.459, 247.207 465.868 C 249.875 480.087, 250.189 503.169, 248.134 534 C 246.689 555.682, 246.861 558.278, 251.484 584.500 C 253.369 595.196, 253.354 611.372, 251.449 620.593 C 250.596 624.722, 246.966 637.866, 243.383 649.801 C 235.533 675.946, 229.025 702.803, 229.011 709.115 C 228.990 718.114, 234.804 722.009, 248.218 721.985 C 258.138 721.968, 263.373 720.778, 285 713.627 C 307.473 706.196, 316.144 705.108, 335.500 707.291 C 337.150 707.477, 339.741 707.024, 341.257 706.285 C 347.730 703.130, 370.086 697.934, 385.333 696.040 C 401.732 694.004, 412.054 691.679, 422 687.784 C 429.713 684.764, 433.803 682.025, 439.021 676.386 C 443.654 671.378, 449.931 660.598, 448.846 659.512 C 448.512 659.179, 445.373 660.466, 441.870 662.373 C 428.379 669.716, 408.788 673.788, 395.166 672.080 C 378.996 670.052, 366.176 663.960, 354.251 652.635 C 342.388 641.370, 334.358 627.999, 331.571 614.869 C 329.268 604.026, 330.933 584, 334.137 584 C 334.676 584, 334.849 583.565, 334.521 583.034 C 333.583 581.517, 337.403 574.881, 342.435 569.283 C 344.963 566.471, 351.535 561.201, 357.039 557.572 C 369.310 549.480, 370.909 547.177, 370.373 538.369 C 369.901 530.609, 368.721 527.582, 362.165 517.319 C 354.779 505.758, 353.212 502.137, 355.037 500.847 C 356.271 499.973, 356.246 499.892, 354.874 500.327 C 352.805 500.982, 351.716 498.606, 349.480 488.555 C 347.415 479.274, 347.877 470.145, 350.838 461.722 C 353.075 455.356, 358.656 447, 360.670 447 C 361.401 447, 362 446.434, 362 445.743 C 362 445.052, 364.668 442.239, 367.929 439.493 C 371.191 436.747, 374.880 432.629, 376.129 430.342 C 378.372 426.233, 378.382 426.055, 376.963 415.342 C 376.173 409.379, 375.521 402.416, 375.513 399.870 C 375.500 395.329, 375.452 395.259, 373 396.254 C 368.725 397.989, 329.017 397.625, 316.500 395.736 C 302.604 393.640, 286.278 390.112, 269 385.473 C 247.679 379.748, 240.761 377.998, 239.590 378.032 C 238.991 378.049, 237.250 378.996, 235.722 380.135 M 775.500 379.169 C 773.850 379.724, 771.129 380.792, 769.453 381.540 C 765.094 383.487, 748.549 387.674, 738.277 389.429 C 707.621 394.666, 683.318 396.538, 658.750 395.552 L 642 394.880 642.008 397.690 C 642.028 404.607, 644.193 418.435, 646.007 423.237 C 647.283 426.616, 650.860 431.824, 655.997 437.783 C 664.241 447.346, 667.557 452.839, 670.316 461.500 C 675.917 479.086, 673.555 496.121, 663.107 513.500 C 656.065 525.213, 654.704 529.465, 655.153 538.350 C 655.428 543.804, 656.025 546.370, 657.363 547.849 C 658.371 548.963, 658.919 550.321, 658.582 550.868 C 658.244 551.415, 658.425 552.144, 658.984 552.490 C 659.543 552.835, 660 552.632, 660 552.038 C 660 550.319, 674.888 562.528, 678.598 567.290 C 680.451 569.668, 683.159 574.738, 684.616 578.557 C 686.938 584.640, 687.279 587.048, 687.374 598 C 687.464 608.494, 687.107 611.703, 685.145 618 C 678.866 638.159, 666.302 654.763, 651.263 662.779 C 643.168 667.094, 628.401 670.975, 617.500 671.653 C 602.474 672.588, 589.147 668.151, 578.258 658.587 C 575.421 656.096, 573.879 655.220, 574.307 656.343 C 574.693 657.356, 575.294 659.381, 575.642 660.843 C 575.991 662.304, 576.714 664.057, 577.250 664.737 C 577.785 665.418, 577.954 666.679, 577.623 667.539 C 577.293 668.400, 577.435 668.849, 577.939 668.537 C 578.444 668.226, 579.170 668.990, 579.555 670.235 C 580.859 674.466, 587.015 681.802, 591.766 684.788 C 594.370 686.425, 599.425 688.881, 603 690.246 C 606.575 691.611, 610.400 693.077, 611.500 693.503 C 612.600 693.929, 614.175 694.390, 615 694.526 C 644.290 699.378, 685.425 707.094, 691.750 708.921 C 693.538 709.438, 695 709.487, 695 709.031 C 695 707.769, 704.389 707.231, 705.235 708.445 C 705.719 709.140, 705.975 709.074, 705.985 708.250 C 706.003 706.717, 713.520 706.609, 720 708.048 C 731.749 710.658, 749 716.380, 749 717.668 C 749 718.586, 749.742 718.856, 751.250 718.485 C 752.487 718.180, 757.059 718.847, 761.410 719.966 C 771.463 722.551, 780.361 722.621, 785.016 720.151 C 792.567 716.142, 795.284 705.157, 792.102 691.500 C 788.858 677.579, 783.711 659.529, 778.983 645.500 C 776.203 637.250, 773.226 626.225, 772.368 621 C 770.252 608.121, 771.019 591.414, 774.527 574 C 777.035 561.551, 777.197 559.316, 776.612 545.292 C 776.263 536.928, 775.253 523.878, 774.367 516.292 C 772.135 497.177, 773.676 460.391, 776.808 458.023 C 777.189 457.735, 777.588 455.250, 777.696 452.500 C 777.880 447.798, 778.866 443.996, 787.031 416.500 C 791.342 401.985, 792.181 388.196, 789.057 383.225 C 786.004 378.367, 781.701 377.080, 775.500 379.169 M 263 382.059 C 263 382.641, 263.450 382.840, 264 382.500 C 264.550 382.160, 265 381.684, 265 381.441 C 265 381.198, 264.550 381, 264 381 C 263.450 381, 263 381.477, 263 382.059 M 510.620 393.802 C 507.085 399.621, 497.481 409.603, 493.229 411.878 C 491.980 412.546, 490.448 412.777, 489.825 412.392 C 489.127 411.960, 488.967 412.138, 489.410 412.854 C 490.365 414.399, 482.879 417.569, 472 420.226 C 466.177 421.647, 458.511 422.490, 447.662 422.901 L 431.824 423.500 430.405 426.882 L 428.986 430.264 432.243 429.684 C 434.034 429.365, 438.650 428.414, 442.500 427.570 C 452.807 425.310, 573.413 425.263, 586.619 427.514 C 595.823 429.083, 607.416 433.924, 611.816 438.036 C 613.090 439.227, 614.363 439.971, 614.644 439.689 C 614.926 439.407, 614.784 434.526, 614.328 428.841 L 613.500 418.504 606 419.002 C 592.544 419.895, 574.648 419.460, 567.500 418.065 C 559.098 416.425, 542.848 410.961, 535.682 407.364 C 528.492 403.756, 522.962 399.049, 518.929 393.106 C 517.043 390.326, 515.195 388.040, 514.822 388.026 C 514.450 388.012, 512.559 390.611, 510.620 393.802 M 728 389.059 C 728 389.641, 728.450 389.840, 729 389.500 C 729.550 389.160, 730 388.684, 730 388.441 C 730 388.198, 729.550 388, 729 388 C 728.450 388, 728 388.477, 728 389.059 M 534 393 C 534 393.550, 534.477 394, 535.059 394 C 535.641 394, 535.840 393.550, 535.500 393 C 535.160 392.450, 534.684 392, 534.441 392 C 534.198 392, 534 392.450, 534 393 M 641.500 425 C 641.840 425.550, 642.316 426, 642.559 426 C 642.802 426, 643 425.550, 643 425 C 643 424.450, 642.523 424, 641.941 424 C 641.359 424, 641.160 424.450, 641.500 425 M 232 430.059 C 232 430.641, 232.450 430.840, 233 430.500 C 233.550 430.160, 234 429.684, 234 429.441 C 234 429.198, 233.550 429, 233 429 C 232.450 429, 232 429.477, 232 430.059 M 448.315 434.981 C 434.882 437.014, 423.889 442.046, 417.056 449.292 C 408.103 458.787, 404.558 467.710, 404.658 480.500 C 404.889 510.224, 434.954 530.367, 466.777 522.118 C 471.299 520.946, 479.162 518.127, 484.250 515.855 C 514.183 502.485, 524.050 502.044, 549.916 512.924 C 565.713 519.568, 572.191 521.341, 581 521.427 C 599.128 521.604, 613.499 511.647, 619.932 494.452 C 622.460 487.695, 622.745 472.645, 620.456 466.750 C 619.655 464.688, 618.435 461.538, 617.746 459.750 C 617.056 457.962, 614.974 454.312, 613.120 451.637 C 610.429 447.755, 610.026 446.598, 611.124 445.902 C 612.145 445.256, 612.177 444.994, 611.250 444.890 C 610.563 444.813, 609.639 444.694, 609.198 444.625 C 608.757 444.556, 605.491 443.026, 601.940 441.223 C 588.521 434.412, 591.336 434.644, 519 434.409 C 482.975 434.292, 451.167 434.550, 448.315 434.981 M 412 447 C 412 447.550, 412.450 448, 413 448 C 413.550 448, 414 447.550, 414 447 C 414 446.450, 413.550 446, 413 446 C 412.450 446, 412 446.450, 412 447 M 485.069 466.199 C 484.462 466.915, 482.629 469.400, 480.996 471.723 C 473.305 482.661, 457.225 482.931, 448.115 472.273 C 444.702 468.280, 444.039 467.909, 442.138 468.926 C 440.962 469.555, 440 470.527, 440 471.085 C 440 475.289, 448.438 483.960, 454.619 486.107 C 460.250 488.062, 471.712 487.778, 476 485.576 C 483.443 481.755, 491.982 471.002, 490.546 467.260 C 490.220 466.410, 489.667 465.999, 489.318 466.348 C 488.970 466.697, 488.119 466.514, 487.429 465.941 C 486.542 465.205, 485.849 465.281, 485.069 466.199 M 537.667 465.667 C 534.159 469.174, 542.943 481.998, 551.218 485.449 C 556.617 487.701, 567.431 487.439, 573 484.921 C 581.560 481.051, 590.977 469, 585.441 469 C 584.584 469, 584.160 468.550, 584.500 468 C 584.840 467.450, 584.304 467.017, 583.309 467.038 C 582.314 467.059, 580.279 468.841, 578.788 470.998 C 575.008 476.464, 569.002 479.400, 561.500 479.449 C 553.947 479.498, 549.434 476.909, 544.982 469.972 C 542.062 465.422, 539.449 463.884, 537.667 465.667 M 444 474 C 444 474.550, 444.450 475, 445 475 C 445.550 475, 446 474.550, 446 474 C 446 473.450, 445.550 473, 445 473 C 444.450 473, 444 473.450, 444 474 M 399 476 C 399 476.550, 399.450 477, 400 477 C 400.550 477, 401 476.550, 401 476 C 401 475.450, 400.550 475, 400 475 C 399.450 475, 399 475.450, 399 476 M 775.500 480 C 775.840 480.550, 776.316 481, 776.559 481 C 776.802 481, 777 480.550, 777 480 C 777 479.450, 776.523 479, 775.941 479 C 775.359 479, 775.160 479.450, 775.500 480 M 358.500 490 C 358.840 490.550, 359.316 491, 359.559 491 C 359.802 491, 360 490.550, 360 490 C 360 489.450, 359.523 489, 358.941 489 C 358.359 489, 358.160 489.450, 358.500 490 M 382 491 C 382 491.550, 382.450 492, 383 492 C 383.550 492, 384 491.550, 384 491 C 384 490.450, 383.550 490, 383 490 C 382.450 490, 382 490.450, 382 491 M 301.250 509.706 C 299.723 510, 299 510.852, 299 512.359 C 299 515.247, 309.829 521.874, 311.149 519.793 C 311.774 518.808, 311.973 518.880, 311.985 520.096 C 311.998 521.471, 333.125 533.909, 345.717 539.955 C 349.996 542.010, 349.825 543, 345.190 543 C 335.880 543, 311.949 551.112, 312.741 554 C 313.073 555.210, 312.969 555.239, 312.203 554.147 C 310.750 552.074, 302 556.157, 302 558.909 C 302 561.061, 305.394 563.493, 307.007 562.496 C 308.233 561.738, 323.063 556.248, 329 554.354 C 331.475 553.565, 338.565 552.060, 344.755 551.011 C 350.946 549.962, 357.246 548.514, 358.755 547.793 C 361.432 546.514, 363.235 542, 361.070 542 C 360.481 542, 360 541.399, 360 540.664 C 360 539.929, 353.945 535.874, 346.544 531.653 C 332.342 523.553, 304.610 508.905, 303.912 509.136 C 303.685 509.211, 302.488 509.467, 301.250 509.706 M 711.500 513.615 C 707.650 515.597, 699.550 519.938, 693.500 523.263 C 664.523 539.186, 662.217 540.796, 663.523 544.199 C 664.457 546.634, 667.884 548.003, 680.631 551.031 C 687.559 552.677, 698.775 555.857, 705.555 558.096 C 712.335 560.336, 718.697 562.015, 719.691 561.826 C 722.228 561.345, 722.686 556.429, 720.310 555.192 C 717.062 553.501, 694.705 546.201, 686 543.990 C 681.325 542.803, 677.371 541.702, 677.212 541.544 C 676.922 541.256, 692.161 532.701, 712.500 521.734 C 723.841 515.619, 724.959 514.725, 724.985 511.750 C 725.010 508.838, 719.229 509.638, 711.500 513.615 M 242 514 C 242 514.550, 242.450 515, 243 515 C 243.550 515, 244 514.550, 244 514 C 244 513.450, 243.550 513, 243 513 C 242.450 513, 242 513.450, 242 514 M 511.330 514.482 C 507.937 515.230, 498.937 518.542, 491.330 521.842 C 472.134 530.170, 467.091 531.403, 452 531.456 C 441.465 531.493, 438.360 531.127, 432.250 529.125 C 426.463 527.229, 425 526.346, 425 524.752 C 425 523.197, 424.704 523.001, 423.661 523.866 C 422.633 524.720, 420.837 523.942, 415.911 520.512 C 412.385 518.056, 409.337 516.525, 409.138 517.111 C 408.393 519.295, 411.246 537.446, 412.677 539.630 C 413.495 540.878, 415.655 542.391, 417.478 542.993 C 420.549 544.006, 420.990 544.726, 423.485 552.793 C 430.473 575.383, 432.933 581.539, 438.753 591 C 448.577 606.968, 459.261 619.139, 472.692 629.659 C 502.564 653.057, 532.771 650.794, 560.607 623.074 C 577.800 605.952, 589.116 586.320, 597.515 559.043 C 601.474 546.185, 601.795 545.551, 604.715 544.794 C 608.855 543.721, 610.901 539.089, 611.676 529.039 C 612.017 524.618, 612.051 521, 611.752 521 C 611.453 521, 607.782 522.627, 603.595 524.615 C 598.821 526.882, 595.066 528.055, 593.522 527.759 C 592.168 527.501, 591.284 527.651, 591.558 528.094 C 592.420 529.488, 585.022 530.299, 577.111 529.677 C 568.575 529.007, 561.610 526.923, 546.701 520.580 C 541.091 518.192, 534.974 515.911, 533.108 515.509 L 529.717 514.779 530.322 520.639 C 530.654 523.863, 531.221 530.602, 531.582 535.616 L 532.237 544.732 528.520 548.846 C 522.586 555.414, 513.480 556.834, 504.402 552.606 C 498.953 550.069, 497.221 547.644, 499.176 545.288 C 500.532 543.654, 503.173 543.942, 509.940 546.466 C 514.984 548.346, 518.436 547.845, 521.750 544.752 C 524.382 542.295, 524.592 537.218, 522.673 522.500 C 521.324 512.152, 521.463 512.250, 511.330 514.482 M 412 515 C 412 515.550, 412.450 516, 413 516 C 413.550 516, 414 515.550, 414 515 C 414 514.450, 413.550 514, 413 514 C 412.450 514, 412 514.450, 412 515 M 643 516 C 643 516.550, 643.450 517, 644 517 C 644.550 517, 645 516.550, 645 516 C 645 515.450, 644.550 515, 644 515 C 643.450 515, 643 515.450, 643 516 M 316.500 520 C 316.840 520.550, 317.316 521, 317.559 521 C 317.802 521, 318 520.550, 318 520 C 318 519.450, 317.523 519, 316.941 519 C 316.359 519, 316.160 519.450, 316.500 520 M 623.500 549 C 623.840 549.550, 624.316 550, 624.559 550 C 624.802 550, 625 549.550, 625 549 C 625 548.450, 624.523 548, 623.941 548 C 623.359 548, 623.160 548.450, 623.500 549 M 410 560 C 410 560.550, 410.477 561, 411.059 561 C 411.641 561, 411.840 560.550, 411.500 560 C 411.160 559.450, 410.684 559, 410.441 559 C 410.198 559, 410 559.450, 410 560 M 610.500 560 C 610.160 560.550, 610.359 561, 610.941 561 C 611.523 561, 612 560.550, 612 560 C 612 559.450, 611.802 559, 611.559 559 C 611.316 559, 610.840 559.450, 610.500 560 M 495.750 572.220 C 493.688 573.415, 492 574.929, 492 575.583 C 492 576.793, 488.831 577.706, 481.321 578.660 C 477.248 579.177, 475.302 581.062, 476.628 583.207 C 477.517 584.645, 490.861 590.613, 497.512 592.547 C 501.631 593.744, 505.814 594.047, 513.778 593.723 C 522.940 593.352, 525.697 592.811, 532.727 590.012 C 537.472 588.122, 540.687 586.303, 540.323 585.713 C 539.952 585.114, 540.187 584.997, 540.889 585.432 C 542.579 586.476, 547 583.330, 547 581.084 C 547 579.117, 545.148 578, 541.885 578 C 540.812 578, 537.698 576.867, 534.967 575.483 C 532.235 574.099, 530 573.199, 530 573.483 C 530 573.767, 529.100 573.100, 528 572 C 525.295 569.295, 521.040 569.484, 516.583 572.508 L 512.888 575.016 509.599 572.508 C 505.511 569.390, 500.801 569.292, 495.750 572.220 M 532.500 578 C 532.840 578.550, 533.541 579, 534.059 579 C 534.577 579, 535 578.550, 535 578 C 535 577.450, 534.298 577, 533.441 577 C 532.584 577, 532.160 577.450, 532.500 578 M 382.500 582 C 382.840 582.550, 383.316 583, 383.559 583 C 383.802 583, 384 582.550, 384 582 C 384 581.450, 383.523 581, 382.941 581 C 382.359 581, 382.160 581.450, 382.500 582 M 489.510 582.016 C 489.856 582.575, 490.557 582.774, 491.069 582.457 C 492.456 581.600, 492.198 581, 490.441 581 C 489.584 581, 489.165 581.457, 489.510 582.016 M 377.500 584 C 377.840 584.550, 378.316 585, 378.559 585 C 378.802 585, 379 584.550, 379 584 C 379 583.450, 378.523 583, 377.941 583 C 377.359 583, 377.160 583.450, 377.500 584 M 496.500 585 C 496.840 585.550, 497.316 586, 497.559 586 C 497.802 586, 498 585.550, 498 585 C 498 584.450, 497.523 584, 496.941 584 C 496.359 584, 496.160 584.450, 496.500 585 M 628 589 C 628 589.550, 628.450 590, 629 590 C 629.550 590, 630 589.550, 630 589 C 630 588.450, 629.550 588, 629 588 C 628.450 588, 628 588.450, 628 589 M 375 590.059 C 375 590.641, 375.450 590.840, 376 590.500 C 376.550 590.160, 377 589.684, 377 589.441 C 377 589.198, 376.550 589, 376 589 C 375.450 589, 375 589.477, 375 590.059 M 340 591 C 340 591.550, 340.477 592, 341.059 592 C 341.641 592, 341.840 591.550, 341.500 591 C 341.160 590.450, 340.684 590, 340.441 590 C 340.198 590, 340 590.450, 340 591 M 344 594 C 344 594.550, 344.477 595, 345.059 595 C 345.641 595, 345.840 594.550, 345.500 594 C 345.160 593.450, 344.684 593, 344.441 593 C 344.198 593, 344 593.450, 344 594 M 386.500 594 C 386.160 594.550, 386.332 595, 386.882 595 C 387.432 595, 388.160 594.550, 388.500 594 C 388.840 593.450, 388.668 593, 388.118 593 C 387.568 593, 386.840 593.450, 386.500 594 M 373.500 597 C 373.160 597.550, 373.835 598, 375 598 C 376.165 598, 376.840 597.550, 376.500 597 C 376.160 596.450, 375.485 596, 375 596 C 374.515 596, 373.840 596.450, 373.500 597 M 682 599 C 682 599.550, 682.450 600, 683 600 C 683.550 600, 684 599.550, 684 599 C 684 598.450, 683.550 598, 683 598 C 682.450 598, 682 598.450, 682 599 M 581.500 605 C 581.840 605.550, 582.316 606, 582.559 606 C 582.802 606, 583 605.550, 583 605 C 583 604.450, 582.523 604, 581.941 604 C 581.359 604, 581.160 604.450, 581.500 605 M 647.500 607 C 647.160 607.550, 647.359 608, 647.941 608 C 648.523 608, 649 607.550, 649 607 C 649 606.450, 648.802 606, 648.559 606 C 648.316 606, 647.840 606.450, 647.500 607 M 389.500 609 C 389.160 609.550, 389.359 610, 389.941 610 C 390.523 610, 391 609.550, 391 609 C 391 608.450, 390.802 608, 390.559 608 C 390.316 608, 389.840 608.450, 389.500 609 M 390 613.441 C 390 614.298, 390.450 615, 391 615 C 391.550 615, 392 614.577, 392 614.059 C 392 613.541, 391.550 612.840, 391 612.500 C 390.450 612.160, 390 612.584, 390 613.441 M 387 616.500 C 386.282 617.365, 386.185 618, 386.771 618 C 387.329 618, 388.045 617.325, 388.362 616.500 C 388.678 615.675, 388.781 615, 388.591 615 C 388.401 615, 387.685 615.675, 387 616.500 M 424.500 623 C 424.160 623.550, 424.359 624, 424.941 624 C 425.523 624, 426 623.550, 426 623 C 426 622.450, 425.802 622, 425.559 622 C 425.316 622, 424.840 622.450, 424.500 623 M 774.813 626.683 C 775.534 626.972, 776.397 626.936, 776.729 626.604 C 777.061 626.272, 776.471 626.036, 775.417 626.079 C 774.252 626.127, 774.015 626.364, 774.813 626.683 M 343.500 628 C 343.840 628.550, 344.316 629, 344.559 629 C 344.802 629, 345 628.550, 345 628 C 345 627.450, 344.523 627, 343.941 627 C 343.359 627, 343.160 627.450, 343.500 628 M 368 629 C 368 629.550, 368.450 630, 369 630 C 369.550 630, 370 629.550, 370 629 C 370 628.450, 369.550 628, 369 628 C 368.450 628, 368 628.450, 368 629 M 457.804 642.512 C 458.028 652.434, 457.685 657.685, 456.517 662.264 C 450.760 684.823, 428.548 699.465, 393.924 703.527 C 386.541 704.393, 375.684 705.973, 369.798 707.038 C 363.912 708.103, 358.399 708.707, 357.548 708.380 C 356.697 708.053, 356 708.247, 356 708.810 C 356 709.374, 353.863 710.613, 351.250 711.565 C 326.645 720.528, 301.676 736.843, 289.497 751.918 C 286.444 755.696, 282.788 761.648, 281.373 765.144 C 279.958 768.640, 278.331 772.073, 277.758 772.774 C 277.184 773.475, 276.952 774.285, 277.241 774.574 C 278.033 775.366, 308.483 775.437, 309.757 774.650 C 310.365 774.275, 311.174 774.473, 311.556 775.090 C 311.938 775.708, 312.531 775.814, 312.875 775.326 C 313.700 774.155, 336.777 769.744, 338.029 770.518 C 338.563 770.848, 339 770.677, 339 770.138 C 339 769.600, 340.462 768.852, 342.250 768.478 C 347.023 767.477, 354.202 765.218, 399.500 750.463 C 466.115 728.764, 483.600 723.946, 512 719.461 C 523.315 717.675, 575.455 716.144, 578.710 717.503 C 579.694 717.914, 582.525 718.173, 585 718.079 C 592.496 717.794, 615.874 721.604, 647.250 728.223 C 670.194 733.064, 677.003 734.843, 677.015 736 C 677.027 737.182, 677.207 737.222, 677.862 736.189 C 678.534 735.129, 682.113 735.449, 696.597 737.864 C 715.420 741.002, 730.029 742.479, 729.957 741.237 C 729.830 739.032, 713.209 728.404, 699.956 722.054 C 692.642 718.549, 676.935 713.692, 669 712.481 C 650.458 709.652, 612.905 702.623, 607.500 700.969 C 586.397 694.514, 576.131 685.612, 569.600 668.104 C 565.943 658.300, 563.445 641.653, 565.148 638.436 C 565.420 637.921, 565.386 636.305, 565.072 634.845 L 564.500 632.190 556.594 638.104 C 540.291 650.298, 527.315 654.623, 509.635 653.754 C 494.150 652.993, 480.076 646.828, 465.399 634.378 C 461.913 631.420, 458.709 628.999, 458.280 628.998 C 457.851 628.997, 457.637 635.079, 457.804 642.512 M 229.500 676 C 229.840 676.550, 230.316 677, 230.559 677 C 230.802 677, 231 676.550, 231 676 C 231 675.450, 230.523 675, 229.941 675 C 229.359 675, 229.160 675.450, 229.500 676 M 444 677 C 444 678.253, 445.061 678.253, 447 677 C 448.213 676.216, 448.069 676.028, 446.250 676.015 C 445.012 676.007, 444 676.450, 444 677 M 407 696 C 407 696.550, 407.450 697, 408 697 C 408.550 697, 409 696.550, 409 696 C 409 695.450, 408.550 695, 408 695 C 407.450 695, 407 695.450, 407 696 M 360.020 703.476 C 359.231 704.426, 359.155 705, 359.819 705 C 361.027 705, 362.436 703.103, 361.743 702.409 C 361.491 702.158, 360.716 702.638, 360.020 703.476 M 640.500 703 C 640.160 703.550, 640.359 704, 640.941 704 C 641.523 704, 642 703.550, 642 703 C 642 702.450, 641.802 702, 641.559 702 C 641.316 702, 640.840 702.450, 640.500 703 M 664 707 C 664 707.550, 664.477 708, 665.059 708 C 665.641 708, 665.840 707.550, 665.500 707 C 665.160 706.450, 664.684 706, 664.441 706 C 664.198 706, 664 706.450, 664 707 M 797 716.559 C 797 717.416, 797.450 717.840, 798 717.500 C 798.550 717.160, 799 716.459, 799 715.941 C 799 715.423, 798.550 715, 798 715 C 797.450 715, 797 715.702, 797 716.559 M 697 718.059 C 697 718.641, 697.450 718.840, 698 718.500 C 698.550 718.160, 699 717.684, 699 717.441 C 699 717.198, 698.550 717, 698 717 C 697.450 717, 697 717.477, 697 718.059 M 543 721 C 543 721.550, 543.477 722, 544.059 722 C 544.641 722, 544.840 721.550, 544.500 721 C 544.160 720.450, 543.684 720, 543.441 720 C 543.198 720, 543 720.450, 543 721 M 570.500 721 C 570.840 721.550, 571.316 722, 571.559 722 C 571.802 722, 572 721.550, 572 721 C 572 720.450, 571.523 720, 570.941 720 C 570.359 720, 570.160 720.450, 570.500 721 M 529 725.973 C 523.225 726.430, 512.650 727.827, 505.500 729.077 C 498.350 730.327, 491.375 731.369, 490 731.391 C 488.625 731.414, 487.270 731.751, 486.989 732.138 C 486.708 732.526, 481.793 734.032, 476.065 735.483 C 462.643 738.886, 446.645 743.882, 397.500 760.019 C 355.526 773.801, 337.532 778.894, 321.951 781.402 C 314.675 782.574, 312.389 782.642, 311.782 781.707 C 311.194 780.800, 310.760 780.873, 310.033 782 C 309.228 783.247, 306.272 783.468, 292.492 783.312 C 273.998 783.103, 265.185 782.047, 250.500 778.284 C 243.842 776.577, 236.824 775.579, 229.500 775.297 C 219.639 774.917, 218.157 775.089, 215.183 776.963 C 208.683 781.057, 204.916 795.049, 206.451 809.389 L 207.135 815.777 214.774 816.913 C 218.975 817.538, 222.657 818.376, 222.956 818.775 C 223.255 819.174, 225.444 819.588, 227.821 819.696 C 230.197 819.804, 239.422 822.145, 248.321 824.897 C 289.603 837.665, 301.734 840.171, 322.500 840.225 C 338.771 840.267, 353.068 838.495, 369.173 834.440 C 374.494 833.100, 379.556 832.276, 380.423 832.609 C 381.291 832.942, 382 832.757, 382 832.199 C 382 831.640, 384.786 830.243, 388.192 829.093 C 393.007 827.466, 394.559 827.279, 395.176 828.251 C 395.756 829.164, 395.973 829.065, 395.985 827.882 C 395.995 826.758, 398.360 825.481, 403.750 823.692 C 408.012 822.276, 422.525 816.987, 436 811.938 C 513.256 782.990, 528.817 778.027, 553 774.623 C 583.380 770.348, 606.515 771.871, 642.860 780.541 C 685.199 790.639, 696 793.515, 696 794.689 C 696 795.371, 697.013 796.461, 698.250 797.110 C 700.488 798.285, 700.490 798.280, 698.595 796.146 C 696.722 794.036, 696.722 794.001, 698.595 794.042 C 702.252 794.124, 711.488 796.663, 710 797.178 C 709.175 797.464, 710.750 797.699, 713.500 797.699 C 716.250 797.700, 724.125 797.795, 731 797.909 C 737.875 798.023, 749.485 797.627, 756.799 797.029 C 775.302 795.517, 792.966 797.523, 805.357 802.544 C 807.118 803.257, 807.195 802.653, 806.857 790.898 C 806.535 779.731, 806.221 777.932, 803.689 772.776 C 798.787 762.794, 789.495 756.618, 774.868 753.619 C 770.816 752.789, 757.150 751.615, 744.500 751.012 C 710.819 749.405, 691.923 746.620, 642.318 735.951 C 605.706 728.077, 589.666 725.983, 562.500 725.528 C 549.850 725.316, 534.775 725.516, 529 725.973 M 726 735.059 C 726 735.641, 726.450 735.840, 727 735.500 C 727.550 735.160, 728 734.684, 728 734.441 C 728 734.198, 727.550 734, 727 734 C 726.450 734, 726 734.477, 726 735.059 M 733.020 736.476 C 732.231 737.426, 732.155 738, 732.819 738 C 734.027 738, 735.436 736.103, 734.743 735.409 C 734.491 735.158, 733.716 735.638, 733.020 736.476 M 416 748 C 416 748.550, 416.450 749, 417 749 C 417.550 749, 418 748.550, 418 748 C 418 747.450, 417.550 747, 417 747 C 416.450 747, 416 747.450, 416 748 M 279 756 C 279 756.550, 279.450 757, 280 757 C 280.550 757, 281 756.550, 281 756 C 281 755.450, 280.550 755, 280 755 C 279.450 755, 279 755.450, 279 756 M 375 763 C 375 763.550, 375.450 764, 376 764 C 376.550 764, 377 763.550, 377 763 C 377 762.450, 376.550 762, 376 762 C 375.450 762, 375 762.450, 375 763 M 234.500 769 C 234.160 769.550, 234.584 770, 235.441 770 C 236.298 770, 237 769.550, 237 769 C 237 768.450, 236.577 768, 236.059 768 C 235.541 768, 234.840 768.450, 234.500 769 M 208 776.559 C 208 777.416, 208.457 777.835, 209.016 777.490 C 209.575 777.144, 209.774 776.443, 209.457 775.931 C 208.600 774.544, 208 774.802, 208 776.559 M 305 777 C 305 777.550, 305.450 778, 306 778 C 306.550 778, 307 777.550, 307 777 C 307 776.450, 306.550 776, 306 776 C 305.450 776, 305 776.450, 305 777 M 745 800 C 745 800.550, 745.477 801, 746.059 801 C 746.641 801, 746.840 800.550, 746.500 800 C 746.160 799.450, 745.684 799, 745.441 799 C 745.198 799, 745 799.450, 745 800 M 226 821 C 226 821.550, 226.450 822, 227 822 C 227.550 822, 228 821.550, 228 821 C 228 820.450, 227.550 820, 227 820 C 226.450 820, 226 820.450, 226 821 M 199.500 852 C 199.840 852.550, 200.316 853, 200.559 853 C 200.802 853, 201 852.550, 201 852 C 201 851.450, 200.523 851, 199.941 851 C 199.359 851, 199.160 851.450, 199.500 852" stroke="none" fill="black" fill-rule="evenodd"/>
</svg>