<svg xmlns="http://www.w3.org/2000/svg" width="2048" height="2048" viewBox="0 0 2048 2048" version="1.1">
	<path d="M 1021.500 312.479 C 995.994 316.067, 964.826 327.068, 926.500 346.007 C 884.131 366.945, 860.582 383.113, 827.206 414.177 C 795.093 444.065, 771.871 475.417, 754.608 512.192 C 738.299 546.932, 732.305 570.399, 731.282 603.500 L 730.727 621.500 741.520 610 C 774.396 574.973, 798.836 553.395, 843 520.405 C 888.601 486.341, 925.266 461.661, 984 425.495 C 1045.872 387.398, 1086.334 367.138, 1119.500 357.648 C 1131.046 354.345, 1147.560 351.041, 1152.926 350.962 C 1155.341 350.926, 1155.179 350.625, 1150.300 346.072 C 1136.891 333.561, 1114.920 322.350, 1092.284 316.469 C 1072.455 311.317, 1041.970 309.598, 1021.500 312.479 M 1148.408 370.020 C 1121.721 372.835, 1084.121 387.590, 1039 412.954 C 958.626 458.135, 850.089 532.077, 802.564 574.030 C 767.052 605.378, 744.839 631.561, 727.509 662.500 C 707.585 698.071, 700.536 725.203, 699.298 771.089 C 698.407 804.152, 700.651 822.805, 709.512 856 C 717.733 886.794, 717.960 902.231, 710.539 925.671 C 704.983 943.217, 687.104 972.067, 673.089 986.100 C 661.774 997.429, 653.862 1001.367, 630.082 1007.508 C 603.412 1014.396, 587.407 1022.726, 571.643 1037.925 C 555.187 1053.790, 547.851 1067.848, 544.464 1090 C 541.968 1106.327, 543.278 1126.011, 547.990 1143 C 551.056 1154.052, 558.996 1169.333, 566.620 1178.856 C 590.106 1208.189, 623.930 1219.789, 671.517 1214.828 C 686.425 1213.274, 687.073 1213.569, 694.606 1225.312 C 701.409 1235.917, 713.677 1248.783, 722.881 1254.966 C 742.167 1267.921, 763.565 1273.654, 796.571 1274.709 C 828.281 1275.723, 845.551 1273.065, 871.500 1263.177 C 878.650 1260.453, 886.403 1257.910, 888.729 1257.527 C 894.959 1256.502, 899.862 1258.426, 901.597 1262.577 C 903.420 1266.940, 903.535 1284.358, 901.750 1285.683 C 901.063 1286.194, 893.975 1288.102, 886 1289.924 C 829.509 1302.829, 769.965 1332.894, 738.361 1364.468 C 723.667 1379.148, 715.430 1393.612, 710.899 1412.687 C 709.750 1417.528, 708.384 1422.282, 707.865 1423.253 C 707.345 1424.224, 703.226 1426.871, 698.710 1429.136 C 661.862 1447.620, 617.727 1477.514, 586 1505.478 C 576.868 1513.527, 553.168 1536.971, 544.531 1546.500 C 529.104 1563.519, 513.415 1585.386, 502.101 1605.635 C 482.277 1641.116, 471.965 1676.295, 466.499 1727.091 C 464.516 1745.519, 465.385 1748.377, 473.364 1749.672 C 476.350 1750.156, 477.360 1749.794, 479.788 1747.366 C 482.474 1744.680, 482.751 1743.644, 483.905 1731.993 C 488.350 1687.086, 499.316 1648.266, 516.670 1616 C 541.463 1569.906, 587.671 1522.062, 646.748 1481.316 C 667.368 1467.094, 696.514 1450.124, 704.672 1447.589 C 706.689 1446.963, 706.965 1447.473, 708.526 1454.707 C 714.912 1484.312, 720.802 1503.547, 732.496 1533 C 747.921 1571.846, 759.437 1597.513, 784.767 1649.500 C 806.196 1693.481, 815.356 1713.082, 823.406 1732.172 C 826.576 1739.692, 829.976 1746.573, 830.961 1747.465 C 831.946 1748.356, 834.362 1749.347, 836.330 1749.666 C 839.410 1750.166, 840.348 1749.806, 843.078 1747.076 C 845.892 1744.262, 846.191 1743.431, 845.727 1739.702 C 845.394 1737.023, 833.538 1711.040, 813.008 1668 C 795.299 1630.875, 776.536 1591.050, 771.311 1579.500 C 734.783 1498.746, 723.625 1461.669, 725.265 1426.500 C 726.096 1408.703, 731.308 1397.281, 745.462 1382.242 C 759.109 1367.742, 773.418 1357.149, 798.337 1343.100 C 831.636 1324.327, 872.236 1308.563, 897.750 1304.501 L 902 1303.824 902 1315.952 C 902 1347.422, 896.357 1369.918, 885.517 1381.665 C 880.348 1387.266, 879.500 1386.852, 878.419 1378.196 C 877.954 1374.478, 878.267 1371.010, 879.457 1366.687 C 882.348 1356.187, 882.490 1352.490, 880.093 1350.093 C 875.147 1345.147, 867.606 1349.201, 863.917 1358.792 C 862.120 1363.463, 861.729 1366.498, 861.766 1375.500 C 861.817 1387.880, 864.072 1398.232, 870.479 1415.500 C 880.211 1441.731, 916.676 1510.616, 946.839 1559.750 C 959.365 1580.155, 965.878 1591.802, 980.532 1620 C 988.106 1634.575, 997.852 1653.335, 1002.191 1661.688 C 1011.816 1680.220, 1012.368 1683.076, 1008.533 1694.500 C 1007.056 1698.900, 1001.614 1711.275, 996.440 1722 C 986.445 1742.716, 986.123 1744.121, 990.312 1748.750 C 991.739 1750.326, 993.479 1751, 996.123 1751 C 999.220 1751, 1000.351 1750.406, 1002.419 1747.695 C 1005.935 1743.085, 1022.534 1708.696, 1037.025 1676 C 1059.864 1624.465, 1073.727 1597.421, 1108.018 1537.500 C 1153.370 1458.252, 1170.423 1423.356, 1177.654 1395 C 1182.868 1374.556, 1179.519 1355.060, 1169.431 1347.125 C 1165.873 1344.325, 1162.471 1344.438, 1159.455 1347.455 C 1156.354 1350.555, 1156.365 1353.432, 1159.513 1363.288 C 1162.017 1371.130, 1162.937 1383.303, 1161.111 1384.431 C 1158.556 1386.011, 1149.797 1369.265, 1147.502 1358.412 C 1145.302 1348.007, 1143.825 1331.595, 1144.182 1321.521 C 1144.492 1312.758, 1144.566 1312.520, 1147.233 1311.584 C 1154.312 1309.102, 1204.657 1326.276, 1235.193 1341.590 C 1277.356 1362.736, 1303.774 1384.281, 1313.561 1405.500 C 1318.089 1415.318, 1319.344 1422.459, 1319.275 1438 C 1319.174 1460.715, 1314.266 1479.171, 1297.485 1519.927 C 1277.113 1569.408, 1255.933 1616.611, 1236.428 1656 C 1220.798 1687.564, 1210.666 1704.948, 1193.877 1729.008 C 1190.234 1734.229, 1186.945 1739.501, 1186.568 1740.724 C 1185.639 1743.734, 1188.467 1749.436, 1191.595 1750.861 C 1198.017 1753.788, 1200.624 1751.750, 1211.523 1735.287 C 1236.779 1697.134, 1253.281 1665.407, 1284.578 1594.834 C 1317.559 1520.462, 1331.626 1482.485, 1336.095 1455.750 C 1336.807 1451.487, 1337.877 1448, 1338.473 1448 C 1342.020 1448, 1363.985 1460.241, 1387.500 1475.323 C 1443.888 1511.489, 1482.638 1546.566, 1509.213 1585.500 C 1537.672 1627.195, 1549.981 1661.160, 1562.425 1732.335 C 1565.119 1747.748, 1566.306 1750, 1571.732 1750 C 1575.983 1750, 1581 1745.429, 1581 1741.555 C 1581 1738.144, 1575.722 1708.394, 1572.008 1690.874 C 1564.047 1653.317, 1551.705 1620.756, 1534.446 1591.773 C 1500.233 1534.319, 1456.654 1495.189, 1367.152 1441.559 C 1355.410 1434.523, 1344.320 1427.464, 1342.507 1425.872 C 1340.168 1423.818, 1337.994 1419.950, 1335.017 1412.543 C 1322.512 1381.429, 1307.049 1363.955, 1273.256 1342.751 C 1243.216 1323.902, 1207.235 1308.718, 1155.242 1292.951 C 1148.195 1290.814, 1144.655 1289.224, 1143.932 1287.873 C 1143.353 1286.791, 1142.823 1281.292, 1142.754 1275.653 C 1142.642 1266.527, 1142.897 1264.916, 1145.067 1260.981 C 1150.133 1251.798, 1161.591 1249.267, 1169.539 1255.576 C 1186.838 1269.309, 1194.433 1273.730, 1209.500 1278.837 C 1226.300 1284.533, 1237.540 1286.308, 1257 1286.339 C 1288.698 1286.390, 1310.647 1280.243, 1330.170 1265.848 C 1338.345 1259.819, 1352.253 1245.352, 1358.617 1236.256 C 1369.275 1221.024, 1369.519 1220.906, 1392.500 1219.890 C 1402.400 1219.452, 1413.875 1218.388, 1418 1217.526 C 1450.774 1210.675, 1475.283 1192.646, 1489.405 1165 C 1499.084 1146.052, 1503.232 1130.133, 1503.217 1112 C 1503.177 1065.613, 1479.884 1031.041, 1438.065 1015.300 C 1434.487 1013.953, 1425.769 1011.537, 1418.692 1009.930 C 1386.951 1002.724, 1373.439 992.306, 1354.142 960.161 C 1341.105 938.445, 1335.034 922.777, 1332.291 903.770 C 1330.172 889.092, 1331.353 877.593, 1337.402 854 C 1346.173 819.794, 1348.645 793.572, 1345.981 763 C 1343.259 731.757, 1336.367 707.872, 1321.021 676.500 C 1296.972 627.335, 1264.980 589.225, 1225.606 562.839 C 1210.680 552.836, 1195.381 545.409, 1177.850 539.656 C 1161.471 534.282, 1160.436 533.763, 1157.950 529.686 C 1155.379 525.470, 1155.493 523.756, 1158.589 520.077 C 1162.074 515.934, 1165.067 516.065, 1179.334 520.985 C 1217.653 534.198, 1248.299 553.876, 1277.222 583.841 C 1288.441 595.464, 1300.791 610.419, 1309.412 622.820 L 1314.500 630.140 1314.784 618.941 C 1315.882 575.627, 1299.322 532.664, 1262.333 482.867 C 1256.368 474.837, 1254.289 472.805, 1249.839 470.653 C 1237.632 464.752, 1217.857 464.558, 1188.676 470.051 C 1149.019 477.517, 1098.649 498.833, 1050.440 528.553 C 1021.695 546.273, 930.681 607.322, 918.566 617.009 C 898.155 633.328, 846.004 679.560, 822.131 702.498 C 788.175 735.122, 772.749 765.747, 764.794 816.323 C 762.818 828.886, 762.562 834.314, 762.545 864 C 762.528 893.848, 762.776 899.190, 764.824 913 C 767.616 931.834, 771.084 948.568, 775.030 962.248 C 779.108 976.383, 778.867 981.395, 773.986 984.007 C 766.640 987.939, 758.114 970.309, 751.494 937.500 C 745.502 907.808, 743.031 872.618, 744.817 842.417 C 748.606 778.342, 763.002 739.151, 795.257 705.109 C 815.426 683.824, 892.069 615.080, 913.464 599.085 C 923.533 591.558, 1013.936 531.117, 1035 517.829 C 1084.430 486.648, 1134.718 463.204, 1172.976 453.506 C 1199.491 446.785, 1231.242 444.530, 1246.312 448.297 C 1250.059 449.234, 1253.254 450, 1253.413 450 C 1253.909 450, 1252.199 440.325, 1250.599 434.079 C 1245.865 415.601, 1231.476 395.663, 1215.522 385.477 C 1201.911 376.787, 1187.963 371.886, 1171.666 370.069 C 1161.222 368.905, 1159.024 368.900, 1148.408 370.020 M 1463.750 520.662 C 1464.438 520.940, 1465.563 520.940, 1466.250 520.662 C 1466.938 520.385, 1466.375 520.158, 1465 520.158 C 1463.625 520.158, 1463.063 520.385, 1463.750 520.662 M 1460.028 522.466 C 1459.359 523.273, 1458.966 524.383, 1459.155 524.934 C 1459.345 525.484, 1460.020 524.824, 1460.656 523.467 C 1461.974 520.654, 1461.783 520.351, 1460.028 522.466 M 562.035 528.934 C 561.466 529.998, 561.056 532.361, 561.125 534.184 C 561.246 537.397, 561.271 537.376, 561.910 533.500 C 562.273 531.300, 562.918 528.938, 563.344 528.250 C 563.770 527.563, 563.882 527, 563.594 527 C 563.306 527, 562.605 527.870, 562.035 528.934 M 1458.355 535.500 C 1458.352 540.450, 1458.521 542.601, 1458.731 540.280 C 1458.940 537.959, 1458.943 533.909, 1458.736 531.280 C 1458.530 528.651, 1458.358 530.550, 1458.355 535.500 M 574.252 534.500 C 574.263 536.700, 574.468 537.482, 574.707 536.238 C 574.946 534.994, 574.937 533.194, 574.687 532.238 C 574.437 531.282, 574.241 532.300, 574.252 534.500 M 1473.116 539.191 C 1473.052 542.321, 1473.338 545.091, 1473.750 545.346 C 1474.162 545.600, 1474.366 543.715, 1474.201 541.155 C 1473.732 533.852, 1473.243 532.966, 1473.116 539.191 M 1456.144 548.750 C 1455.053 551.300, 1455.078 551.359, 1456.484 549.559 C 1457.318 548.491, 1458 547.254, 1458 546.809 C 1458 545.289, 1457.322 545.999, 1456.144 548.750 M 1461.459 547.067 C 1460.433 548.727, 1461.354 548.957, 1462.789 547.399 C 1463.499 546.630, 1463.638 546, 1463.098 546 C 1462.559 546, 1461.821 546.480, 1461.459 547.067 M 1466.195 549.500 C 1466.215 551.150, 1466.439 551.704, 1466.693 550.731 C 1466.947 549.758, 1466.930 548.408, 1466.656 547.731 C 1466.382 547.054, 1466.175 547.850, 1466.195 549.500 M 557 549 C 556.099 549.582, 555.975 549.975, 556.691 549.985 C 557.346 549.993, 558.160 549.550, 558.500 549 C 559.267 547.758, 558.921 547.758, 557 549 M 575.733 549.124 C 576.412 549.808, 577.219 550.115, 577.526 549.807 C 577.834 549.499, 577.279 548.940, 576.293 548.564 C 574.868 548.022, 574.753 548.136, 575.733 549.124 M 1501.573 552.906 L 1498.645 556.500 1502.021 553.282 C 1503.878 551.512, 1505.196 549.895, 1504.949 549.688 C 1504.702 549.481, 1503.183 550.929, 1501.573 552.906 M 541.241 550.830 C 540.549 551.269, 542.799 551.461, 546.241 551.257 C 555.314 550.717, 556.466 550.247, 549 550.131 C 545.425 550.076, 541.934 550.390, 541.241 550.830 M 580.500 550.593 C 585.072 551.326, 597.769 551.474, 596.680 550.781 C 596.031 550.368, 591.675 550.085, 587 550.151 C 582.325 550.218, 579.400 550.417, 580.500 550.593 M 1451.924 554.750 L 1449.500 557.500 1452.250 555.076 C 1454.820 552.810, 1455.459 552, 1454.674 552 C 1454.495 552, 1453.258 553.237, 1451.924 554.750 M 538.374 554.467 C 538.065 555.274, 538.004 556.511, 538.240 557.217 C 538.476 557.923, 538.906 557.263, 539.196 555.750 C 539.762 552.797, 539.295 552.068, 538.374 554.467 M 1062.455 557.455 C 1057.173 562.736, 1060.059 567.517, 1072.500 574.095 C 1104.165 590.838, 1132.164 610.144, 1159.147 633.842 C 1191.594 662.339, 1229.225 711.435, 1251.550 754.397 C 1265.495 781.234, 1277.797 813.265, 1284.042 839 C 1287.356 852.659, 1292.656 857.205, 1299.234 852.031 C 1303.209 848.904, 1303.257 845.439, 1299.534 830.303 C 1285.165 771.886, 1253.793 712.476, 1209.131 659.103 C 1177.257 621.012, 1130.019 584.081, 1083.027 560.514 C 1070.436 554.199, 1066.322 553.587, 1062.455 557.455 M 597.544 559.860 C 597.193 560.966, 596.140 562.073, 595.203 562.320 C 593.609 562.739, 593.610 562.775, 595.215 562.884 C 596.875 562.996, 599.664 559.330, 598.672 558.339 C 598.403 558.070, 597.895 558.754, 597.544 559.860 M 1492.872 559.750 C 1491.629 561.336, 1491.664 561.371, 1493.250 560.128 C 1494.213 559.373, 1495 558.585, 1495 558.378 C 1495 557.555, 1494.179 558.084, 1492.872 559.750 M 541.500 561.953 C 543.420 562.823, 548.776 563.390, 547.917 562.633 C 547.688 562.431, 545.700 561.991, 543.500 561.656 C 540.712 561.232, 540.106 561.322, 541.500 561.953 M 1440.405 564.250 L 1438.500 566.500 1440.750 564.595 C 1442.864 562.805, 1443.455 562, 1442.655 562 C 1442.465 562, 1441.453 563.013, 1440.405 564.250 M 552.813 563.683 C 553.534 563.972, 554.397 563.936, 554.729 563.604 C 555.061 563.272, 554.471 563.036, 553.417 563.079 C 552.252 563.127, 552.015 563.364, 552.813 563.683 M 580.750 563.706 C 581.987 563.944, 584.013 563.944, 585.250 563.706 C 586.487 563.467, 585.475 563.272, 583 563.272 C 580.525 563.272, 579.513 563.467, 580.750 563.706 M 574.980 565.524 C 573.142 567.739, 574.188 567.994, 576.250 565.833 C 577.212 564.825, 577.605 564, 577.122 564 C 576.640 564, 575.676 564.686, 574.980 565.524 M 559.564 567.293 C 559.940 568.279, 560.499 568.834, 560.807 568.526 C 561.115 568.219, 560.808 567.412, 560.124 566.733 C 559.136 565.753, 559.022 565.868, 559.564 567.293 M 1435.405 568.250 L 1433.500 570.500 1435.750 568.595 C 1437.864 566.805, 1438.455 566, 1437.655 566 C 1437.465 566, 1436.453 567.013, 1435.405 568.250 M 1488 567.430 C 1488 567.705, 1488.900 568.411, 1490 569 C 1491.100 569.589, 1492 569.845, 1492 569.570 C 1492 569.295, 1491.100 568.589, 1490 568 C 1488.900 567.411, 1488 567.155, 1488 567.430 M 561.300 575 C 561.300 578.025, 561.487 579.263, 561.716 577.750 C 561.945 576.237, 561.945 573.763, 561.716 572.250 C 561.487 570.737, 561.300 571.975, 561.300 575 M 1429.667 574.667 C 1429.300 575.033, 1429 576.576, 1429 578.094 C 1429 580.805, 1432.884 585.005, 1435.385 584.996 C 1435.998 584.994, 1434.991 584.072, 1433.146 582.948 C 1430.198 581.150, 1429.841 580.486, 1430.195 577.452 C 1430.635 573.689, 1430.636 573.697, 1429.667 574.667 M 1447.385 578.171 C 1443.322 581.229, 1442.157 582.433, 1444.500 581.151 C 1447.101 579.728, 1451.679 576.051, 1450.885 576.022 C 1450.547 576.010, 1448.972 576.977, 1447.385 578.171 M 1476 576.696 C 1476.825 576.992, 1480.200 579.769, 1483.500 582.867 L 1489.500 588.500 1483.531 582.250 C 1480.249 578.813, 1476.874 576.036, 1476.031 576.079 C 1474.692 576.148, 1474.688 576.225, 1476 576.696 M 1499.500 578 C 1500.495 579.100, 1501.535 580, 1501.810 580 C 1502.085 580, 1501.495 579.100, 1500.500 578 C 1499.505 576.900, 1498.465 576, 1498.190 576 C 1497.915 576, 1498.505 576.900, 1499.500 578 M 573.079 578.583 C 573.127 579.748, 573.364 579.985, 573.683 579.188 C 573.972 578.466, 573.936 577.603, 573.604 577.271 C 573.272 576.939, 573.036 577.529, 573.079 578.583 M 1440 583 C 1439.099 583.582, 1438.975 583.975, 1439.691 583.985 C 1440.346 583.993, 1441.160 583.550, 1441.500 583 C 1442.267 581.758, 1441.921 581.758, 1440 583 M 565.813 583.683 C 566.534 583.972, 567.397 583.936, 567.729 583.604 C 568.061 583.272, 567.471 583.036, 566.417 583.079 C 565.252 583.127, 565.015 583.364, 565.813 583.683 M 1473.328 595.500 C 1473.333 599.350, 1473.513 600.802, 1473.730 598.728 C 1473.946 596.653, 1473.943 593.503, 1473.722 591.728 C 1473.501 589.952, 1473.324 591.650, 1473.328 595.500 M 1492.314 591.250 C 1493.370 592.219, 1495.623 592.949, 1497.361 592.885 C 1500.460 592.771, 1500.453 592.761, 1496.802 592.051 C 1494.769 591.655, 1492.498 590.920, 1491.755 590.416 C 1491.013 589.912, 1491.264 590.288, 1492.314 591.250 M 1501.872 590.750 C 1500.629 592.336, 1500.664 592.371, 1502.250 591.128 C 1503.213 590.373, 1504 589.585, 1504 589.378 C 1504 588.555, 1503.179 589.084, 1501.872 590.750 M 1459.015 601.095 C 1458.991 603.695, 1462.400 606, 1466.270 606 C 1468.256 606, 1470.092 605.663, 1470.348 605.250 C 1470.604 604.837, 1468.735 604.500, 1466.195 604.500 C 1462.274 604.500, 1461.384 604.122, 1460.303 602 C 1459.505 600.434, 1459.024 600.096, 1459.015 601.095 M 1014.455 636.455 C 1013.105 637.805, 1012 639.873, 1012 641.052 C 1012 644.172, 1019.634 665.345, 1023.699 673.500 C 1038.612 703.412, 1066.895 721.734, 1102.500 724.544 C 1112.383 725.325, 1141.951 722.594, 1145.936 720.533 C 1152.588 717.093, 1150.864 707.259, 1143.276 705.354 C 1141.808 704.986, 1133.083 705.267, 1123.887 705.980 C 1099.791 707.846, 1085.540 705.891, 1071.514 698.794 C 1052.239 689.042, 1041.259 675.248, 1032.458 649.731 C 1029.693 641.716, 1027.990 638.328, 1025.795 636.481 C 1021.977 633.268, 1017.651 633.258, 1014.455 636.455 M 927.061 678.087 C 907.456 680.624, 888.157 690.998, 878.390 704.249 C 871.273 713.904, 867.303 722.720, 859.824 745.472 C 856.032 757.006, 851.741 768.481, 850.288 770.972 C 848.834 773.462, 843.900 779.401, 839.323 784.168 C 830.116 793.757, 829.206 796.297, 833.455 800.545 C 838.183 805.274, 845.560 802.625, 855.588 792.597 C 863.044 785.142, 867.380 776.515, 875.494 753 C 883.868 728.730, 888.842 718.948, 896.891 710.916 C 908.019 699.813, 919.804 695.510, 939 695.538 C 947.910 695.552, 952.204 696.056, 958.064 697.778 C 967.339 700.503, 970.577 700.555, 974.689 698.048 C 978.649 695.633, 980.578 689.945, 978.719 686.161 C 976.210 681.053, 973.505 680.118, 956.589 678.511 C 939.316 676.871, 936.746 676.834, 927.061 678.087 M 995.261 706.529 C 988.684 711.136, 991.253 727.243, 1001.481 745.532 C 1008.347 757.809, 1028.376 776.681, 1041.571 783.306 C 1052.099 788.592, 1057.521 789.330, 1079 788.399 C 1112.946 786.929, 1124.470 787.737, 1140.500 792.712 C 1151.199 796.033, 1170.047 805.843, 1178.581 812.534 C 1188.981 820.686, 1193.633 823.273, 1197.898 823.273 C 1205.037 823.273, 1210.779 816.967, 1209.560 810.468 C 1208.704 805.908, 1203.083 800.611, 1189.094 791.186 C 1162.629 773.353, 1146.327 768.594, 1101.249 765.538 C 1088.488 764.673, 1074.549 763.251, 1070.273 762.377 C 1054.072 759.067, 1039.674 751.810, 1029.164 741.656 C 1021.755 734.497, 1018.296 729.197, 1014.828 719.682 C 1013.188 715.182, 1011.094 710.666, 1010.175 709.648 C 1006.115 705.146, 999.278 703.716, 995.261 706.529 M 520.872 708.750 C 519.629 710.336, 519.664 710.371, 521.250 709.128 C 522.916 707.821, 523.445 707, 522.622 707 C 522.415 707, 521.627 707.788, 520.872 708.750 M 518.320 720 C 518.320 723.575, 518.502 725.038, 518.723 723.250 C 518.945 721.462, 518.945 718.538, 518.723 716.750 C 518.502 714.962, 518.320 716.425, 518.320 720 M 534.374 725.500 C 534.376 731.550, 534.541 733.896, 534.740 730.713 C 534.939 727.531, 534.937 722.581, 534.736 719.713 C 534.535 716.846, 534.372 719.450, 534.374 725.500 M 953.910 725.198 C 941.153 731.563, 934.776 741.006, 929.057 762 C 924.087 780.241, 921.115 788.721, 915.561 800.500 C 900.158 833.168, 881.720 849.257, 851.206 856.656 C 840.662 859.212, 840.285 859.233, 826.314 858.002 C 805.566 856.176, 802.034 857.187, 797.793 866.172 C 791.515 879.474, 789.493 895.338, 789.529 931 C 789.560 961.441, 790.360 971.696, 794.990 1001 C 796.598 1011.175, 799.303 1030.075, 801.002 1043 C 807.974 1096.039, 815.657 1122.791, 834.683 1160.265 C 846.615 1183.768, 858.580 1199.724, 879.104 1219.500 C 885.383 1225.550, 894.790 1233.684, 900.010 1237.576 C 954.316 1278.066, 961.315 1282.481, 982.349 1289.517 C 1007.587 1297.960, 1038.940 1298.289, 1063.500 1290.369 C 1074.923 1286.685, 1090.131 1278.943, 1100 1271.788 C 1114.170 1261.514, 1129.196 1250.853, 1139.105 1244.043 C 1150.167 1236.439, 1184.237 1202.969, 1193.305 1190.795 C 1207.705 1171.464, 1222.565 1139.968, 1232.008 1108.764 C 1242.890 1072.806, 1251.383 1014.070, 1252.651 966 C 1254.021 914.049, 1247.909 872.389, 1234.951 845.359 C 1230.061 835.158, 1226.567 832, 1220.173 832.001 C 1216.467 832.001, 1214.155 832.831, 1209 836.012 C 1199.113 842.113, 1192.621 844.313, 1184.500 844.318 C 1174.784 844.323, 1170.379 842.082, 1158.604 831.148 C 1144.028 817.611, 1134.298 811.746, 1120 807.879 C 1115.327 806.615, 1104.441 806.427, 1070.500 807.023 C 1052.514 807.339, 1049.727 807.160, 1042.825 805.247 C 1022.373 799.579, 1004.934 786.338, 992.454 767 C 986.938 758.453, 983.687 751.908, 978.316 738.533 C 975.879 732.465, 972.701 726.263, 971.255 724.750 C 967.572 720.898, 962.252 721.036, 953.910 725.198 M 1520 728.378 C 1520 728.585, 1520.787 729.373, 1521.750 730.128 C 1523.336 731.371, 1523.371 731.336, 1522.128 729.750 C 1520.821 728.084, 1520 727.555, 1520 728.378 M 517.272 733 C 517.272 735.475, 517.467 736.487, 517.706 735.250 C 517.944 734.013, 517.944 731.987, 517.706 730.750 C 517.467 729.513, 517.272 730.525, 517.272 733 M 457.454 732.429 C 454.010 737.686, 455.307 739.706, 474.665 759.230 C 484.655 769.306, 492.447 776.864, 491.979 776.025 C 491.511 775.186, 483.450 766.855, 474.064 757.511 C 459.450 742.961, 457 740.086, 457 737.484 C 457 735.812, 457.701 733.445, 458.557 732.223 C 459.413 731, 459.873 730, 459.580 730 C 459.286 730, 458.330 731.093, 457.454 732.429 M 1508.035 731.934 C 1507.389 733.141, 1507.081 742.447, 1507.214 756.684 L 1507.429 779.500 1507.964 756 C 1508.259 743.075, 1508.864 731.938, 1509.309 731.250 C 1509.754 730.563, 1509.882 730, 1509.594 730 C 1509.306 730, 1508.605 730.870, 1508.035 731.934 M 585.643 731.768 C 585.382 732.191, 586.930 732.369, 589.084 732.163 C 591.238 731.958, 593 731.612, 593 731.395 C 593 730.650, 586.118 730.999, 585.643 731.768 M 1571.417 734.400 C 1569.262 736.270, 1567.754 738.062, 1568.065 738.382 C 1568.376 738.702, 1570.380 737.172, 1572.518 734.982 C 1577.279 730.105, 1576.710 729.805, 1571.417 734.400 M 594 732.378 C 594 732.585, 594.788 733.373, 595.750 734.128 C 597.336 735.371, 597.371 735.336, 596.128 733.750 C 594.821 732.084, 594 731.555, 594 732.378 M 1523.409 748.500 C 1523.408 757.850, 1523.558 761.810, 1523.743 757.299 C 1523.928 752.789, 1523.929 745.139, 1523.745 740.299 C 1523.562 735.460, 1523.410 739.150, 1523.409 748.500 M 578.462 738.250 L 573.500 743.500 578.750 738.538 C 581.638 735.808, 584 733.446, 584 733.288 C 584 732.541, 583.074 733.372, 578.462 738.250 M 1586.320 739.750 C 1585.284 743.071, 1585.313 743.278, 1586.575 741.559 C 1587.769 739.933, 1588.596 736, 1587.745 736 C 1587.604 736, 1586.963 737.688, 1586.320 739.750 M 479.500 739 C 480.495 740.100, 481.535 741, 481.810 741 C 482.085 741, 481.495 740.100, 480.500 739 C 479.505 737.900, 478.465 737, 478.190 737 C 477.915 737, 478.505 737.900, 479.500 739 M 535.079 741.583 C 535.127 742.748, 535.364 742.985, 535.683 742.188 C 535.972 741.466, 535.936 740.603, 535.604 740.271 C 535.272 739.939, 535.036 740.529, 535.079 741.583 M 1554.984 751.750 L 1543.500 763.500 1555.250 752.016 C 1561.713 745.700, 1567 740.413, 1567 740.266 C 1567 739.546, 1565.650 740.836, 1554.984 751.750 M 484.500 743 C 485.495 744.100, 486.535 745, 486.810 745 C 487.085 745, 486.495 744.100, 485.500 743 C 484.505 741.900, 483.465 741, 483.190 741 C 482.915 741, 483.505 741.900, 484.500 743 M 513.405 743.250 L 511.500 745.500 513.750 743.595 C 515.864 741.805, 516.455 741, 515.655 741 C 515.465 741, 514.453 742.013, 513.405 743.250 M 570.872 744.750 C 569.629 746.336, 569.664 746.371, 571.250 745.128 C 572.916 743.821, 573.445 743, 572.622 743 C 572.415 743, 571.627 743.788, 570.872 744.750 M 1463.923 745.923 C 1460.716 749.130, 1460.199 752.560, 1462.470 755.559 C 1463.803 757.319, 1463.832 757.204, 1462.777 754.320 C 1461.230 750.089, 1462.921 746.372, 1467.251 744.491 C 1469.284 743.607, 1469.816 743.064, 1468.673 743.039 C 1467.668 743.018, 1465.531 744.315, 1463.923 745.923 M 592.453 748.250 L 588.500 752.500 592.750 748.547 C 595.087 746.373, 597 744.460, 597 744.297 C 597 743.540, 596.129 744.298, 592.453 748.250 M 904.738 745.087 C 902.366 746.468, 899.193 752.945, 891.988 771.112 C 885.002 788.727, 881.671 794.926, 875.500 801.789 C 863.993 814.587, 843.106 822.857, 822 822.971 C 812.887 823.020, 808.021 824.266, 805.291 827.248 C 800.217 832.792, 801.640 838.933, 808.617 841.598 C 812.165 842.953, 815.125 843.174, 823.763 842.729 C 850.313 841.361, 877.189 827.166, 893.200 806.054 C 899.640 797.562, 904.534 787.226, 911.368 767.682 C 915.923 754.656, 916.724 751.405, 915.910 749.264 C 914.102 744.507, 909.006 742.602, 904.738 745.087 M 505.500 748.055 C 503.300 749.096, 502.085 749.959, 502.800 749.974 C 504.255 750.003, 510 747.211, 510 746.474 C 510 745.889, 510.296 745.785, 505.500 748.055 M 497.813 750.683 C 498.534 750.972, 499.397 750.936, 499.729 750.604 C 500.061 750.272, 499.471 750.036, 498.417 750.079 C 497.252 750.127, 497.015 750.364, 497.813 750.683 M 553.750 751.662 C 554.438 751.940, 555.563 751.940, 556.250 751.662 C 556.938 751.385, 556.375 751.158, 555 751.158 C 553.625 751.158, 553.063 751.385, 553.750 751.662 M 1478 751.378 C 1478 751.585, 1478.787 752.373, 1479.750 753.128 C 1481.336 754.371, 1481.371 754.336, 1480.128 752.750 C 1478.821 751.084, 1478 750.555, 1478 751.378 M 547.813 752.683 C 548.534 752.972, 549.397 752.936, 549.729 752.604 C 550.061 752.272, 549.471 752.036, 548.417 752.079 C 547.252 752.127, 547.015 752.364, 547.813 752.683 M 584 755.284 C 582.075 757.061, 579.150 759.548, 577.500 760.812 C 575.850 762.076, 575.449 762.654, 576.608 762.096 C 578.728 761.076, 588.934 752.090, 588 752.067 C 587.725 752.060, 585.925 753.508, 584 755.284 M 1569.469 759.250 L 1563.500 765.500 1569.750 759.531 C 1573.188 756.249, 1576 753.436, 1576 753.281 C 1576 752.542, 1575.013 753.444, 1569.469 759.250 M 515.589 758.856 C 515.298 759.326, 516.157 759.501, 517.497 759.245 C 519.985 758.770, 523.306 761.395, 527.304 767 C 528.996 769.372, 528.995 769.328, 527.294 766.148 C 524.114 760.206, 517.357 755.996, 515.589 758.856 M 1483 758.378 C 1483 758.585, 1483.787 759.373, 1484.750 760.128 C 1486.336 761.371, 1486.371 761.336, 1485.128 759.750 C 1483.821 758.084, 1483 757.555, 1483 758.378 M 511.405 762.250 L 509.500 764.500 511.750 762.595 C 512.987 761.547, 514 760.535, 514 760.345 C 514 759.545, 513.195 760.136, 511.405 762.250 M 1467 763 C 1467.589 764.100, 1468.295 765, 1468.570 765 C 1468.845 765, 1468.589 764.100, 1468 763 C 1467.411 761.900, 1466.705 761, 1466.430 761 C 1466.155 761, 1466.411 761.900, 1467 763 M 1488 765 C 1489.175 766.650, 1490.361 768, 1490.636 768 C 1490.911 768, 1490.175 766.650, 1489 765 C 1487.825 763.350, 1486.639 762, 1486.364 762 C 1486.089 762, 1486.825 763.350, 1488 765 M 567 766 C 566.175 766.533, 565.950 766.969, 566.500 766.969 C 567.050 766.969, 568.175 766.533, 569 766 C 569.825 765.467, 570.050 765.031, 569.500 765.031 C 568.950 765.031, 567.825 765.467, 567 766 M 1535.838 771.520 C 1532.724 774.534, 1530.489 777, 1530.872 777 C 1531.255 777, 1534.013 774.525, 1537 771.500 C 1544.022 764.390, 1543.191 764.404, 1535.838 771.520 M 1557 772.500 C 1554.571 774.975, 1552.809 777, 1553.084 777 C 1553.359 777, 1555.571 774.975, 1558 772.500 C 1560.429 770.025, 1562.191 768, 1561.916 768 C 1561.641 768, 1559.429 770.025, 1557 772.500 M 1491 769.378 C 1491 769.585, 1491.787 770.373, 1492.750 771.128 C 1494.336 772.371, 1494.371 772.336, 1493.128 770.750 C 1491.821 769.084, 1491 768.555, 1491 769.378 M 1473.978 772.970 C 1475.142 774.603, 1476.604 776.255, 1477.228 776.641 C 1477.852 777.027, 1477.103 775.690, 1475.563 773.671 C 1472.220 769.289, 1470.960 768.731, 1473.978 772.970 M 552.507 771.989 C 552.157 772.555, 552.558 772.723, 553.448 772.382 C 555.180 771.717, 555.497 771, 554.059 771 C 553.541 771, 552.843 771.445, 552.507 771.989 M 530.872 773.500 C 531.412 774.600, 532.586 776.400, 533.482 777.500 L 535.110 779.500 534.128 777.500 C 533.588 776.400, 532.414 774.600, 531.518 773.500 L 529.890 771.500 530.872 773.500 M 549.345 774.543 C 549.019 775.392, 548.976 776.310, 549.249 776.583 C 549.523 776.856, 549.986 776.161, 550.279 775.040 C 550.903 772.657, 550.210 772.289, 549.345 774.543 M 1496 775.500 C 1497.292 776.875, 1498.574 778, 1498.849 778 C 1499.124 778, 1498.292 776.875, 1497 775.500 C 1495.708 774.125, 1494.426 773, 1494.151 773 C 1493.876 773, 1494.708 774.125, 1496 775.500 M 505.336 783 C 505.336 787.125, 505.513 788.813, 505.728 786.750 C 505.944 784.688, 505.944 781.313, 505.728 779.250 C 505.513 777.188, 505.336 778.875, 505.336 783 M 1481.997 782.997 C 1484.298 785.745, 1486.703 788.314, 1487.341 788.706 C 1487.978 789.098, 1486.308 786.849, 1483.629 783.709 C 1480.949 780.569, 1478.545 778, 1478.285 778 C 1478.026 778, 1479.696 780.249, 1481.997 782.997 M 492.921 782.249 C 492.623 784.399, 492.776 785.624, 493.279 785.121 C 493.762 784.638, 493.995 782.951, 493.798 781.372 C 493.468 778.728, 493.399 778.798, 492.921 782.249 M 1501.441 780.445 C 1502.509 781.300, 1503.821 782, 1504.358 782 C 1505.628 782, 1505.061 781.538, 1502 780.080 C 1499.643 778.958, 1499.611 778.978, 1501.441 780.445 M 1547.946 782.750 L 1544.500 786.500 1548.250 783.054 C 1551.740 779.846, 1552.460 779, 1551.696 779 C 1551.529 779, 1549.842 780.688, 1547.946 782.750 M 535 780.378 C 535 780.585, 535.788 781.373, 536.750 782.128 C 538.336 783.371, 538.371 783.336, 537.128 781.750 C 535.821 780.084, 535 779.555, 535 780.378 M 538 784.378 C 538 784.585, 538.788 785.373, 539.750 786.128 C 541.336 787.371, 541.371 787.336, 540.128 785.750 C 538.821 784.084, 538 783.555, 538 784.378 M 557 786.378 C 557 786.585, 557.788 787.373, 558.750 788.128 C 560.336 789.371, 560.371 789.336, 559.128 787.750 C 557.821 786.084, 557 785.555, 557 786.378 M 488.437 790.250 L 485.500 793.500 488.750 790.563 C 491.779 787.825, 492.460 787, 491.687 787 C 491.515 787, 490.052 788.462, 488.437 790.250 M 541 788.378 C 541 788.585, 541.788 789.373, 542.750 790.128 C 544.336 791.371, 544.371 791.336, 543.128 789.750 C 541.821 788.084, 541 787.555, 541 788.378 M 1542.063 791.076 C 1541.997 792.717, 1545.955 797, 1547.537 797 C 1548.036 797, 1547.413 796.277, 1546.151 795.393 C 1544.889 794.509, 1543.467 792.822, 1542.992 791.643 C 1542.414 790.211, 1542.106 790.023, 1542.063 791.076 M 567.733 795.124 C 568.412 795.808, 569.219 796.115, 569.526 795.807 C 569.834 795.499, 569.279 794.940, 568.293 794.564 C 566.868 794.022, 566.753 794.136, 567.733 795.124 M 475.750 796.662 C 476.438 796.940, 477.563 796.940, 478.250 796.662 C 478.938 796.385, 478.375 796.158, 477 796.158 C 475.625 796.158, 475.063 796.385, 475.750 796.662 M 572.269 796.693 C 573.242 796.947, 574.592 796.930, 575.269 796.656 C 575.946 796.382, 575.150 796.175, 573.500 796.195 C 571.850 796.215, 571.296 796.439, 572.269 796.693 M 446.750 797.745 C 451.837 797.927, 460.162 797.927, 465.250 797.745 C 470.337 797.564, 466.175 797.415, 456 797.415 C 445.825 797.415, 441.662 797.564, 446.750 797.745 M 583.250 797.742 C 586.962 797.934, 593.038 797.934, 596.750 797.742 C 600.462 797.549, 597.425 797.392, 590 797.392 C 582.575 797.392, 579.538 797.549, 583.250 797.742 M 612.750 797.662 C 613.438 797.940, 614.563 797.940, 615.250 797.662 C 615.938 797.385, 615.375 797.158, 614 797.158 C 612.625 797.158, 612.063 797.385, 612.750 797.662 M 501.158 800 C 501.158 801.375, 501.385 801.938, 501.662 801.250 C 501.940 800.563, 501.940 799.438, 501.662 798.750 C 501.385 798.063, 501.158 798.625, 501.158 800 M 1554 798.981 C 1556.469 799.791, 1564.723 800.338, 1563.917 799.639 C 1563.688 799.440, 1560.800 799.027, 1557.500 798.720 C 1553.773 798.373, 1552.447 798.472, 1554 798.981 M 432.922 800.593 C 430.730 803.235, 431.270 808.991, 433.911 811.129 C 435.182 812.158, 436.734 812.970, 437.361 812.932 C 437.987 812.895, 437.539 812.399, 436.364 811.830 C 432.889 810.148, 431.759 806.512, 433.452 802.460 C 435.046 798.646, 434.917 798.191, 432.922 800.593 M 549.417 799.757 C 549.807 800.448, 549.258 802.248, 548.198 803.757 C 546.073 806.778, 542.353 813.867, 543.410 812.880 C 543.775 812.538, 545.646 809.649, 547.567 806.459 C 550.202 802.082, 550.771 800.394, 549.883 799.580 C 549.023 798.791, 548.898 798.838, 549.417 799.757 M 619.618 799.966 C 620.040 800.772, 620.697 803.022, 621.078 804.966 C 621.766 808.481, 621.771 808.484, 621.885 805.441 C 621.948 803.759, 621.292 801.509, 620.426 800.441 C 619.560 799.374, 619.197 799.160, 619.618 799.966 M 1483.813 799.683 C 1484.534 799.972, 1485.397 799.936, 1485.729 799.604 C 1486.061 799.272, 1485.471 799.036, 1484.417 799.079 C 1483.252 799.127, 1483.015 799.364, 1483.813 799.683 M 1450.304 800.747 C 1456.247 800.924, 1465.697 800.923, 1471.304 800.745 C 1476.912 800.567, 1472.050 800.422, 1460.500 800.423 C 1448.950 800.424, 1444.362 800.570, 1450.304 800.747 M 1572.280 800.736 C 1574.909 800.943, 1578.959 800.940, 1581.280 800.731 C 1583.601 800.521, 1581.450 800.352, 1576.500 800.355 C 1571.550 800.358, 1569.651 800.530, 1572.280 800.736 M 1592.813 800.683 C 1593.534 800.972, 1594.397 800.936, 1594.729 800.604 C 1595.061 800.272, 1594.471 800.036, 1593.417 800.079 C 1592.252 800.127, 1592.015 800.364, 1592.813 800.683 M 1437.239 801.666 C 1436.545 801.946, 1435.507 803.148, 1434.933 804.337 C 1434.039 806.190, 1434.084 806.285, 1435.241 805 C 1435.984 804.175, 1437.223 802.938, 1437.996 802.250 C 1439.469 800.939, 1439.323 800.826, 1437.239 801.666 M 1597.500 803 C 1598.495 804.100, 1599.535 805, 1599.810 805 C 1600.085 805, 1599.495 804.100, 1598.500 803 C 1597.505 801.900, 1596.465 801, 1596.190 801 C 1595.915 801, 1596.505 801.900, 1597.500 803 M 499.564 804.707 C 499.022 806.132, 499.136 806.247, 500.124 805.267 C 500.808 804.588, 501.115 803.781, 500.807 803.474 C 500.499 803.166, 499.940 803.721, 499.564 804.707 M 1433.158 809 C 1433.158 810.375, 1433.385 810.938, 1433.662 810.250 C 1433.940 809.563, 1433.940 808.438, 1433.662 807.750 C 1433.385 807.063, 1433.158 807.625, 1433.158 809 M 1434 812.941 C 1434 813.459, 1434.445 814.157, 1434.989 814.493 C 1435.555 814.843, 1435.723 814.442, 1435.382 813.552 C 1434.717 811.820, 1434 811.503, 1434 812.941 M 447.299 813.745 C 452.139 813.929, 459.789 813.928, 464.299 813.743 C 468.810 813.558, 464.850 813.408, 455.500 813.409 C 446.150 813.410, 442.460 813.562, 447.299 813.745 M 582.750 813.747 C 588.938 813.922, 599.063 813.922, 605.250 813.747 C 611.438 813.571, 606.375 813.428, 594 813.428 C 581.625 813.428, 576.563 813.571, 582.750 813.747 M 473.813 814.683 C 474.534 814.972, 475.397 814.936, 475.729 814.604 C 476.061 814.272, 475.471 814.036, 474.417 814.079 C 473.252 814.127, 473.015 814.364, 473.813 814.683 M 565.269 814.693 C 566.242 814.947, 567.592 814.930, 568.269 814.656 C 568.946 814.382, 568.150 814.175, 566.500 814.195 C 564.850 814.215, 564.296 814.439, 565.269 814.693 M 1597.586 814.750 C 1597.175 815.163, 1588.213 815.744, 1577.670 816.042 L 1558.500 816.585 1577.059 816.792 C 1592.067 816.960, 1595.989 816.719, 1597.559 815.532 C 1598.626 814.724, 1599.237 814.049, 1598.917 814.032 C 1598.596 814.014, 1597.997 814.337, 1597.586 814.750 M 539.953 818.088 C 539.338 819.237, 537.203 822.050, 535.209 824.338 L 531.584 828.500 535.059 825.280 C 538.332 822.247, 542.730 816, 541.592 816 C 541.305 816, 540.567 816.940, 539.953 818.088 M 1447.199 816.744 C 1451.984 816.927, 1460.084 816.928, 1465.199 816.746 C 1470.315 816.564, 1466.400 816.414, 1456.500 816.413 C 1446.600 816.412, 1442.415 816.561, 1447.199 816.744 M 1480.269 817.693 C 1481.242 817.947, 1482.592 817.930, 1483.269 817.656 C 1483.946 817.382, 1483.150 817.175, 1481.500 817.195 C 1479.850 817.215, 1479.296 817.439, 1480.269 817.693 M 1554.750 817.662 C 1555.438 817.940, 1556.563 817.940, 1557.250 817.662 C 1557.938 817.385, 1557.375 817.158, 1556 817.158 C 1554.625 817.158, 1554.063 817.385, 1554.750 817.662 M 1486.813 818.683 C 1487.534 818.972, 1488.397 818.936, 1488.729 818.604 C 1489.061 818.272, 1488.471 818.036, 1487.417 818.079 C 1486.252 818.127, 1486.015 818.364, 1486.813 818.683 M 490 823.500 C 491.866 825.425, 493.617 827, 493.892 827 C 494.167 827, 492.866 825.425, 491 823.500 C 489.134 821.575, 487.383 820, 487.108 820 C 486.833 820, 488.134 821.575, 490 823.500 M 554.079 822.021 C 554.036 822.857, 558.163 827.582, 563.250 832.521 L 572.500 841.500 563.864 832.500 C 559.114 827.550, 554.987 822.825, 554.693 822 C 554.222 820.681, 554.148 820.684, 554.079 822.021 M 506.320 828 C 506.320 831.575, 506.502 833.038, 506.723 831.250 C 506.945 829.462, 506.945 826.538, 506.723 824.750 C 506.502 822.962, 506.320 824.425, 506.320 828 M 1476.028 841.213 C 1468.313 850.681, 1462.007 859.118, 1462.016 859.963 C 1462.025 860.808, 1463.038 859.818, 1464.266 857.763 C 1465.495 855.708, 1472.015 847.271, 1478.757 839.013 C 1485.498 830.756, 1490.798 824, 1490.534 824 C 1490.271 824, 1483.743 831.746, 1476.028 841.213 M 528.872 829.750 C 527.629 831.336, 527.664 831.371, 529.250 830.128 C 530.916 828.821, 531.445 828, 530.622 828 C 530.415 828, 529.627 828.788, 528.872 829.750 M 1546 831.378 C 1546 831.585, 1546.787 832.373, 1547.750 833.128 C 1549.336 834.371, 1549.371 834.336, 1548.128 832.750 C 1546.821 831.084, 1546 830.555, 1546 831.378 M 1550.500 837 C 1551.495 838.100, 1552.535 839, 1552.810 839 C 1553.085 839, 1552.495 838.100, 1551.500 837 C 1550.505 835.900, 1549.465 835, 1549.190 835 C 1548.915 835, 1549.505 835.900, 1550.500 837 M 493 837.776 C 493 838.387, 490.435 841.724, 487.299 845.193 C 483.052 849.892, 482.691 850.480, 485.883 847.500 C 490.957 842.763, 494.460 838.127, 493.609 837.276 C 493.274 836.941, 493 837.166, 493 837.776 M 514 838 C 513.175 838.533, 512.950 838.969, 513.500 838.969 C 514.050 838.969, 515.175 838.533, 516 838 C 516.825 837.467, 517.050 837.031, 516.500 837.031 C 515.950 837.031, 514.825 837.467, 514 838 M 1526.813 838.683 C 1527.534 838.972, 1528.397 838.936, 1528.729 838.604 C 1529.061 838.272, 1528.471 838.036, 1527.417 838.079 C 1526.252 838.127, 1526.015 838.364, 1526.813 838.683 M 1500.652 839.754 C 1500.396 840.169, 1501.607 840.506, 1503.343 840.504 L 1506.500 840.500 1507.034 859 L 1507.568 877.500 1507.784 859.450 C 1507.939 846.492, 1507.661 841.061, 1506.800 840.200 C 1505.470 838.870, 1501.381 838.574, 1500.652 839.754 M 1530 839.378 C 1530 839.585, 1530.787 840.373, 1531.750 841.128 C 1533.336 842.371, 1533.371 842.336, 1532.128 840.750 C 1530.821 839.084, 1530 838.555, 1530 839.378 M 1494.946 844.750 L 1491.500 848.500 1495.250 845.054 C 1498.740 841.846, 1499.460 841, 1498.696 841 C 1498.529 841, 1496.842 842.688, 1494.946 844.750 M 1554 841.378 C 1554 841.585, 1554.787 842.373, 1555.750 843.128 C 1557.336 844.371, 1557.371 844.336, 1556.128 842.750 C 1554.821 841.084, 1554 840.555, 1554 841.378 M 539.872 843.750 C 538.629 845.336, 538.664 845.371, 540.250 844.128 C 541.916 842.821, 542.445 842, 541.622 842 C 541.415 842, 540.627 842.788, 539.872 843.750 M 1524.232 845 C 1524.232 846.925, 1524.438 847.712, 1524.689 846.750 C 1524.941 845.788, 1524.941 844.212, 1524.689 843.250 C 1524.438 842.288, 1524.232 843.075, 1524.232 845 M 576.959 845.808 C 578.202 847.627, 579.483 848.851, 579.806 848.527 C 580.129 848.204, 579.113 846.716, 577.547 845.220 L 574.700 842.500 576.959 845.808 M 1534 843.313 C 1534 843.485, 1535.463 844.948, 1537.250 846.563 L 1540.500 849.500 1537.563 846.250 C 1534.825 843.221, 1534 842.540, 1534 843.313 M 551.500 845.653 C 552.050 846.174, 554.750 848.337, 557.500 850.459 C 560.250 852.581, 565.649 857.284, 569.497 860.909 L 576.494 867.500 570.997 861.672 C 565.898 856.266, 555.482 847.410, 552 845.521 C 551.044 845.002, 550.863 845.050, 551.500 845.653 M 1560.500 849 C 1561.495 850.100, 1562.535 851, 1562.810 851 C 1563.085 851, 1562.495 850.100, 1561.500 849 C 1560.505 847.900, 1559.465 847, 1559.190 847 C 1558.915 847, 1559.505 847.900, 1560.500 849 M 1489.405 851.250 L 1487.500 853.500 1489.750 851.595 C 1491.864 849.805, 1492.455 849, 1491.655 849 C 1491.465 849, 1490.453 850.013, 1489.405 851.250 M 585.500 855 C 588.209 857.750, 590.650 860, 590.925 860 C 591.200 860, 589.209 857.750, 586.500 855 C 583.791 852.250, 581.350 850, 581.075 850 C 580.800 850, 582.791 852.250, 585.500 855 M 476 855.084 L 471.500 859.163 476.250 855.461 C 480.414 852.216, 481.648 850.993, 480.750 851.003 C 480.613 851.004, 478.475 852.841, 476 855.084 M 1543 853.500 C 1544.292 854.875, 1545.574 856, 1545.849 856 C 1546.124 856, 1545.292 854.875, 1544 853.500 C 1542.708 852.125, 1541.426 851, 1541.151 851 C 1540.876 851, 1541.708 852.125, 1543 853.500 M 1563 852.313 C 1563 852.485, 1564.463 853.948, 1566.250 855.563 L 1569.500 858.500 1566.563 855.250 C 1563.825 852.221, 1563 851.540, 1563 852.313 M 535.320 859 C 535.320 862.575, 535.502 864.038, 535.723 862.250 C 535.945 860.462, 535.945 857.538, 535.723 855.750 C 535.502 853.962, 535.320 855.425, 535.320 859 M 1485.872 855.750 C 1484.629 857.336, 1484.664 857.371, 1486.250 856.128 C 1487.916 854.821, 1488.445 854, 1487.622 854 C 1487.415 854, 1486.627 854.788, 1485.872 855.750 M 506.750 855.662 C 507.438 855.940, 508.563 855.940, 509.250 855.662 C 509.938 855.385, 509.375 855.158, 508 855.158 C 506.625 855.158, 506.063 855.385, 506.750 855.662 M 1523.343 862.500 C 1523.346 866.900, 1523.522 868.576, 1523.733 866.224 C 1523.945 863.872, 1523.942 860.272, 1523.727 858.224 C 1523.512 856.176, 1523.339 858.100, 1523.343 862.500 M 513 858.500 C 514.292 859.875, 515.574 861, 515.849 861 C 516.124 861, 515.292 859.875, 514 858.500 C 512.708 857.125, 511.426 856, 511.151 856 C 510.876 856, 511.708 857.125, 513 858.500 M 1548 859.500 C 1549.292 860.875, 1550.574 862, 1550.849 862 C 1551.124 862, 1550.292 860.875, 1549 859.500 C 1547.708 858.125, 1546.426 857, 1546.151 857 C 1545.876 857, 1546.708 858.125, 1548 859.500 M 468.872 860.750 C 467.629 862.336, 467.664 862.371, 469.250 861.128 C 470.916 859.821, 471.445 859, 470.622 859 C 470.415 859, 469.627 859.788, 468.872 860.750 M 497 862.122 C 493.515 865.177, 493.514 865.181, 496.720 863.049 C 498.491 861.871, 500.205 860.478, 500.529 859.953 C 501.493 858.393, 500.693 858.884, 497 862.122 M 1479.437 863.250 L 1476.500 866.500 1479.750 863.563 C 1482.779 860.825, 1483.460 860, 1482.687 860 C 1482.515 860, 1481.052 861.462, 1479.437 863.250 M 1553 865.500 C 1554.292 866.875, 1555.574 868, 1555.849 868 C 1556.124 868, 1555.292 866.875, 1554 865.500 C 1552.708 864.125, 1551.426 863, 1551.151 863 C 1550.876 863, 1551.708 864.125, 1553 865.500 M 464.035 865.934 C 463.466 866.998, 463.052 869.136, 463.115 870.684 C 463.219 873.223, 463.298 873.152, 463.922 869.966 C 464.303 868.022, 464.953 865.885, 465.366 865.216 C 465.780 864.547, 465.882 864, 465.594 864 C 465.306 864, 464.605 864.870, 464.035 865.934 M 517.719 871.500 C 518.286 881.895, 518.840 883.364, 518.851 874.500 C 518.856 870.650, 518.505 866.600, 518.071 865.500 C 517.634 864.392, 517.477 867.067, 517.719 871.500 M 885.345 865.071 C 864.152 867.010, 834.466 878.018, 824.605 887.595 C 818.409 893.613, 820.434 901, 828.280 901 C 829.839 901, 836.602 898.586, 843.308 895.635 C 870.937 883.478, 891.427 879.968, 914.714 883.404 C 927.423 885.279, 947.332 891.322, 959.840 897.101 C 969.142 901.398, 972.737 901.881, 975.847 899.250 C 978.895 896.671, 979.368 893.024, 977.125 889.396 C 973.034 882.776, 941.924 869.817, 922.500 866.641 C 910.323 864.650, 896.385 864.061, 885.345 865.071 M 1132.001 865.056 C 1111.399 867.637, 1080.908 879.136, 1071.750 887.779 C 1066.302 892.920, 1068.957 901, 1076.094 901 C 1077.550 901, 1083.188 899.040, 1088.621 896.643 C 1114.516 885.224, 1136.728 880.828, 1157.853 882.942 C 1174.620 884.620, 1189.616 889.211, 1210 898.907 C 1217.922 902.675, 1220.924 902.776, 1224.923 899.411 C 1228.231 896.628, 1228.995 892.618, 1226.750 889.830 C 1223.412 885.686, 1205.952 876.211, 1193.234 871.642 C 1176.593 865.663, 1149.991 862.802, 1132.001 865.056 M 1462.032 864.693 C 1461.980 866.629, 1466.206 869.009, 1469.473 868.885 C 1472.293 868.778, 1472.241 868.720, 1468.722 868.038 C 1466.644 867.635, 1464.296 866.449, 1463.504 865.403 C 1462.712 864.356, 1462.049 864.037, 1462.032 864.693 M 490.441 866.555 C 488.577 868.049, 488.589 868.067, 490.750 867.020 C 491.988 866.420, 493 865.720, 493 865.465 C 493 864.700, 492.481 864.921, 490.441 866.555 M 1474 867 C 1473.099 867.582, 1472.975 867.975, 1473.691 867.985 C 1474.346 867.993, 1475.160 867.550, 1475.500 867 C 1476.267 865.758, 1475.921 865.758, 1474 867 M 484.861 870.059 L 482.500 872.119 485.250 870.444 C 486.762 869.523, 488 868.597, 488 868.385 C 488 867.604, 487.165 868.050, 484.861 870.059 M 578 871 C 579.175 872.650, 580.361 874, 580.636 874 C 580.911 874, 580.175 872.650, 579 871 C 577.825 869.350, 576.639 868, 576.364 868 C 576.089 868, 576.825 869.350, 578 871 M 595.158 870 C 595.158 871.375, 595.385 871.938, 595.662 871.250 C 595.940 870.563, 595.940 869.438, 595.662 868.750 C 595.385 868.063, 595.158 868.625, 595.158 870 M 1557.500 871 C 1558.495 872.100, 1559.535 873, 1559.810 873 C 1560.085 873, 1559.495 872.100, 1558.500 871 C 1557.505 869.900, 1556.465 869, 1556.190 869 C 1555.915 869, 1556.505 869.900, 1557.500 871 M 464 874.378 C 464 874.585, 464.788 875.373, 465.750 876.128 C 467.336 877.371, 467.371 877.336, 466.128 875.750 C 464.821 874.084, 464 873.555, 464 874.378 M 1564.250 874.689 C 1565.213 874.941, 1566.787 874.941, 1567.750 874.689 C 1568.713 874.438, 1567.925 874.232, 1566 874.232 C 1564.075 874.232, 1563.287 874.438, 1564.250 874.689 M 582.559 876.468 C 583.626 877.276, 584.924 877.951, 585.441 877.968 C 585.959 877.986, 585.509 877.339, 584.441 876.532 C 583.374 875.724, 582.076 875.049, 581.559 875.032 C 581.041 875.014, 581.491 875.661, 582.559 876.468 M 469.750 877.662 C 470.438 877.940, 471.563 877.940, 472.250 877.662 C 472.938 877.385, 472.375 877.158, 471 877.158 C 469.625 877.158, 469.063 877.385, 469.750 877.662 M 535.320 885 C 535.320 888.575, 535.502 890.038, 535.723 888.250 C 535.945 886.462, 535.945 883.538, 535.723 881.750 C 535.502 879.962, 535.320 881.425, 535.320 885 M 1506.152 887.139 C 1506.041 891.274, 1506.467 893.287, 1507.750 894.686 C 1508.713 895.736, 1509.050 895.942, 1508.500 895.146 C 1507.950 894.349, 1507.231 890.953, 1506.902 887.599 L 1506.305 881.500 1506.152 887.139 M 519.079 892.179 C 519.036 893.102, 519.707 894.564, 520.571 895.429 C 522.711 897.568, 523.681 897.426, 521.785 895.250 C 520.947 894.288, 520.013 892.825, 519.709 892 C 519.259 890.775, 519.143 890.808, 519.079 892.179 M 532.606 894.848 L 530.712 897.500 533.050 895.278 C 534.337 894.056, 535.189 892.862, 534.944 892.626 C 534.700 892.389, 533.648 893.389, 532.606 894.848 M 525.269 897.693 C 526.242 897.947, 527.592 897.930, 528.269 897.656 C 528.946 897.382, 528.150 897.175, 526.500 897.195 C 524.850 897.215, 524.296 897.439, 525.269 897.693 M 850.304 953.956 C 846.320 956.386, 844.939 961.732, 847.347 965.407 C 850.610 970.387, 871.918 981.339, 885.500 985.018 C 895.349 987.685, 914.873 988.750, 924.186 987.128 C 933.526 985.502, 942.172 982.536, 952.870 977.288 C 964.373 971.646, 970 966.659, 970 962.107 C 970 958.132, 965.900 954, 961.955 954 C 960.440 954, 953.212 956.915, 945.892 960.478 C 929.014 968.694, 921.614 970.443, 906.603 969.764 C 893.145 969.156, 882.468 965.898, 866.507 957.527 C 860.711 954.487, 855.413 952.002, 854.734 952.004 C 854.055 952.006, 852.062 952.884, 850.304 953.956 M 1184.500 957.123 C 1156.411 973.526, 1131.537 974.378, 1103.388 959.900 C 1097.078 956.655, 1090.625 954, 1089.047 954 C 1085.534 954, 1081 958.929, 1081 962.748 C 1081 968.936, 1098.659 980.101, 1116.500 985.192 C 1123.414 987.165, 1126.740 987.469, 1141 987.432 C 1156.086 987.393, 1158.271 987.154, 1166.500 984.638 C 1180.530 980.349, 1197.751 971.049, 1201.456 965.760 C 1203.749 962.486, 1203.403 957.727, 1200.686 955.174 C 1197.140 951.843, 1192.606 952.389, 1184.500 957.123 M 1005.471 980.032 C 1004.197 981.439, 1002.617 987.516, 1000.333 999.782 C 998.519 1009.527, 997.027 1018.893, 997.017 1020.595 C 996.995 1024.622, 1000.079 1027.400, 1004.572 1027.400 C 1010.694 1027.400, 1011.607 1025.480, 1014.970 1005.519 C 1018.508 984.521, 1018.631 981.881, 1016.171 979.655 C 1013.586 977.315, 1007.743 977.521, 1005.471 980.032 M 1613.813 978.683 C 1614.534 978.972, 1615.397 978.936, 1615.729 978.604 C 1616.061 978.272, 1615.471 978.036, 1614.417 978.079 C 1613.252 978.127, 1613.015 978.364, 1613.813 978.683 M 1609.035 980.934 C 1607.705 983.420, 1607.707 986.701, 1609.040 987.525 C 1609.710 987.939, 1609.858 987.281, 1609.455 985.677 C 1609.111 984.307, 1609.334 982.244, 1609.950 981.093 C 1610.566 979.942, 1610.845 979, 1610.570 979 C 1610.295 979, 1609.605 979.870, 1609.035 980.934 M 1617 979.313 C 1617 979.485, 1618.463 980.948, 1620.250 982.563 L 1623.500 985.500 1620.563 982.250 C 1617.825 979.221, 1617 978.540, 1617 979.313 M 1642.159 980.500 C 1643.071 981.600, 1644.022 983.625, 1644.273 985 L 1644.728 987.500 1644.864 984.905 C 1644.947 983.321, 1644.123 981.568, 1642.750 980.405 C 1640.518 978.515, 1640.513 978.516, 1642.159 980.500 M 746.390 985.456 C 741.894 987.378, 738.264 991.712, 735.884 998 C 734.090 1002.738, 733.869 1005.023, 734.287 1014.500 C 734.706 1024.007, 735.544 1028.215, 740.456 1045.500 C 752.790 1088.895, 753.998 1091.945, 762.338 1100.763 C 768.366 1107.138, 773.784 1110.520, 782.125 1113.116 C 790.447 1115.706, 794.568 1115.589, 796.454 1112.710 C 797.632 1110.912, 797.736 1109.629, 796.939 1106.741 C 795.320 1100.877, 791.391 1097.164, 782.423 1093.021 C 772.761 1088.557, 769.661 1085.011, 765.559 1073.730 C 761.971 1063.862, 761.801 1060.601, 764.852 1060.168 C 770.133 1059.418, 771.866 1060.778, 775.930 1068.861 C 778.094 1073.164, 781.121 1078.179, 782.659 1080.006 L 785.453 1083.327 786.092 1080.203 C 786.987 1075.828, 785.432 1060.471, 782.469 1044.431 C 779.093 1026.151, 778.470 1024.808, 772.641 1023.249 C 765.194 1021.257, 763.661 1021.594, 760.120 1026 C 755.551 1031.686, 750.951 1031.102, 748.602 1024.537 C 747.405 1021.192, 749.092 1007.108, 750.967 1004.792 L 752.666 1002.694 757.583 1005.376 C 760.287 1006.851, 765.404 1010.520, 768.954 1013.529 C 772.503 1016.538, 775.805 1019, 776.291 1019 C 777.474 1019, 776.236 1011.792, 773.894 1005.034 C 770.996 996.672, 760.010 986.460, 752 984.682 C 750.625 984.376, 748.100 984.725, 746.390 985.456 M 1630.405 986.250 L 1628.500 988.500 1630.750 986.595 C 1632.864 984.805, 1633.455 984, 1632.655 984 C 1632.465 984, 1631.453 985.013, 1630.405 986.250 M 1286.261 987.557 C 1280.532 990.412, 1275.124 995.877, 1272.034 1001.933 C 1270.041 1005.841, 1266.553 1019.886, 1267.372 1020.705 C 1267.596 1020.930, 1271.092 1018.140, 1275.140 1014.506 C 1284.919 1005.728, 1290.259 1002.533, 1292.841 1003.915 C 1295.248 1005.203, 1296.698 1009.206, 1297.579 1016.995 C 1298.935 1028.983, 1293.484 1033.597, 1287.453 1025.567 C 1286.382 1024.141, 1284.524 1023, 1283.273 1023 C 1279.543 1023, 1267.974 1028.110, 1266.454 1030.429 C 1262.947 1035.783, 1257.852 1083, 1260.782 1083 C 1262.387 1083, 1265.472 1078.262, 1269.301 1069.917 C 1273.535 1060.691, 1275.997 1058.263, 1279.780 1059.586 C 1283.808 1060.994, 1283.897 1065.984, 1280.060 1075.202 C 1275.741 1085.576, 1272.561 1088.981, 1262.608 1093.889 C 1253.431 1098.415, 1251.124 1100.961, 1249.014 1108.893 C 1247.503 1114.575, 1248.439 1115.232, 1257.259 1114.685 C 1266.189 1114.131, 1274.941 1109.842, 1282.438 1102.345 C 1291.788 1092.994, 1294.857 1085.071, 1305.993 1041.525 C 1310.136 1025.328, 1311.109 1019.927, 1311.143 1012.972 C 1311.189 1003.152, 1309.837 997.125, 1306.476 992.180 C 1301.355 984.644, 1295.017 983.194, 1286.261 987.557 M 1630.985 1000.750 L 1618.500 1013.500 1631.250 1001.015 C 1638.263 994.148, 1644 988.411, 1644 988.265 C 1644 987.547, 1642.582 988.907, 1630.985 1000.750 M 1614.250 993.555 C 1615.763 995.235, 1617 996.962, 1617 997.393 C 1617 997.825, 1614.975 1000.492, 1612.500 1003.321 C 1609.671 1006.555, 1608 1009.419, 1608 1011.033 C 1608 1013.695, 1609.627 1016.022, 1611.450 1015.970 C 1612.027 1015.953, 1611.713 1015.481, 1610.750 1014.920 C 1609.787 1014.359, 1609 1012.865, 1609 1011.600 C 1609 1009.291, 1613.218 1002.693, 1616.333 1000.128 C 1618.743 998.144, 1618.412 996.746, 1614.750 993.437 L 1611.500 990.500 1614.250 993.555 M 1616 1015 C 1615.099 1015.582, 1614.975 1015.975, 1615.691 1015.985 C 1616.346 1015.993, 1617.160 1015.550, 1617.500 1015 C 1618.267 1013.758, 1617.921 1013.758, 1616 1015 M 871.776 1025.733 C 874.128 1025.945, 877.728 1025.942, 879.776 1025.727 C 881.824 1025.512, 879.900 1025.339, 875.500 1025.343 C 871.100 1025.346, 869.424 1025.522, 871.776 1025.733 M 1168.776 1025.733 C 1171.128 1025.945, 1174.728 1025.942, 1176.776 1025.727 C 1178.824 1025.512, 1176.900 1025.339, 1172.500 1025.343 C 1168.100 1025.346, 1166.424 1025.522, 1168.776 1025.733 M 897 1030.430 C 897 1030.705, 897.900 1031.411, 899 1032 C 900.100 1032.589, 901 1032.845, 901 1032.570 C 901 1032.295, 900.100 1031.589, 899 1031 C 897.900 1030.411, 897 1030.155, 897 1030.430 M 848.872 1033.750 C 847.629 1035.336, 847.664 1035.371, 849.250 1034.128 C 850.916 1032.821, 851.445 1032, 850.622 1032 C 850.415 1032, 849.627 1032.787, 848.872 1033.750 M 906 1037.500 C 907.866 1039.425, 909.617 1041, 909.892 1041 C 910.167 1041, 908.866 1039.425, 907 1037.500 C 905.134 1035.575, 903.383 1034, 903.108 1034 C 902.833 1034, 904.134 1035.575, 906 1037.500 M 1200 1034.378 C 1200 1034.585, 1200.787 1035.373, 1201.750 1036.128 C 1203.336 1037.371, 1203.371 1037.336, 1202.128 1035.750 C 1200.821 1034.084, 1200 1033.555, 1200 1034.378 M 1140.198 1039.401 C 1136.087 1043.861, 1132.795 1049.451, 1131.600 1054 C 1131.239 1055.375, 1132.260 1053.727, 1133.870 1050.338 C 1135.480 1046.949, 1138.700 1042.111, 1141.026 1039.588 C 1143.352 1037.065, 1145.030 1035, 1144.755 1035 C 1144.480 1035, 1142.429 1036.980, 1140.198 1039.401 M 843.405 1038.250 L 841.500 1040.500 843.750 1038.595 C 845.864 1036.805, 846.455 1036, 845.655 1036 C 845.465 1036, 844.453 1037.013, 843.405 1038.250 M 1205.676 1040.030 C 1206.872 1041.389, 1209.004 1044.525, 1210.414 1047 C 1211.823 1049.475, 1212.981 1051.026, 1212.988 1050.446 C 1213.006 1048.850, 1207.604 1040.701, 1205.421 1039.030 C 1203.899 1037.866, 1203.952 1038.074, 1205.676 1040.030 M 839.783 1042.750 C 838.268 1044.487, 835.199 1049.982, 836.307 1048.974 C 837.207 1048.155, 841.979 1041, 841.625 1041 C 841.452 1041, 840.623 1041.787, 839.783 1042.750 M 1375.242 1049.496 C 1371.109 1051.290, 1369.440 1055.233, 1371.108 1059.261 C 1372.865 1063.502, 1375.737 1064.933, 1387.725 1067.540 C 1425.912 1075.845, 1440.933 1087.856, 1442.700 1111.500 C 1444.150 1130.902, 1435.557 1146.356, 1418.513 1155 C 1411.437 1158.589, 1408.195 1158.985, 1394.756 1157.902 C 1387.781 1157.340, 1382.475 1163.903, 1384.992 1169.981 C 1386.534 1173.704, 1391.707 1176.127, 1399.444 1176.748 C 1413.842 1177.903, 1428.762 1171.358, 1442.020 1158.071 C 1446.723 1153.357, 1451.803 1147.171, 1453.308 1144.325 C 1462.079 1127.733, 1462.078 1101.939, 1453.306 1085.821 C 1444.604 1069.833, 1428.728 1060.175, 1398.622 1052.556 C 1380.929 1048.078, 1379.069 1047.834, 1375.242 1049.496 M 834.624 1051.539 C 833.659 1054.053, 833.943 1054.702, 835.122 1052.675 C 835.706 1051.671, 835.973 1050.639, 835.715 1050.382 C 835.458 1050.124, 834.966 1050.645, 834.624 1051.539 M 1214.079 1055.583 C 1214.127 1056.748, 1214.364 1056.985, 1214.683 1056.188 C 1214.972 1055.466, 1214.936 1054.603, 1214.604 1054.271 C 1214.272 1053.939, 1214.036 1054.529, 1214.079 1055.583 M 833.079 1056.583 C 833.127 1057.748, 833.364 1057.985, 833.683 1057.188 C 833.972 1056.466, 833.936 1055.603, 833.604 1055.271 C 833.272 1054.939, 833.036 1055.529, 833.079 1056.583 M 1130.158 1059 C 1130.158 1060.375, 1130.385 1060.938, 1130.662 1060.250 C 1130.940 1059.563, 1130.940 1058.438, 1130.662 1057.750 C 1130.385 1057.063, 1130.158 1057.625, 1130.158 1059 M 832.195 1061.500 C 832.215 1063.150, 832.439 1063.704, 832.693 1062.731 C 832.947 1061.758, 832.930 1060.408, 832.656 1059.731 C 832.382 1059.054, 832.175 1059.850, 832.195 1061.500 M 918.195 1061.500 C 918.215 1063.150, 918.439 1063.704, 918.693 1062.731 C 918.947 1061.758, 918.930 1060.408, 918.656 1059.731 C 918.382 1059.054, 918.175 1059.850, 918.195 1061.500 M 638 1065.693 C 620.821 1075.374, 610.045 1092.832, 610.012 1111.040 C 609.978 1129.804, 620.655 1145.233, 640.279 1154.778 C 650.308 1159.656, 653.672 1159.989, 657.805 1156.511 C 663.823 1151.447, 662.170 1144.285, 654.349 1141.538 C 640.824 1136.787, 633.817 1131.413, 629.414 1122.413 C 627.099 1117.682, 626.835 1116.118, 627.198 1109.271 C 627.890 1096.230, 634.781 1085.961, 646.663 1080.264 C 651.504 1077.943, 652.565 1076.954, 653.283 1074.094 C 654.334 1069.908, 653.573 1066.573, 650.975 1063.975 C 648.160 1061.160, 645.395 1061.527, 638 1065.693 M 995.357 1062.992 C 992.400 1064.185, 990 1067.893, 990 1071.268 C 990 1075.223, 993.570 1078.397, 1002.713 1082.574 C 1012.663 1087.119, 1022.120 1089.345, 1027.990 1088.525 C 1037.553 1087.189, 1051.975 1081.116, 1056.621 1076.470 C 1061.608 1071.483, 1058.246 1063, 1051.282 1063 C 1049.582 1063, 1044.284 1064.875, 1039.509 1067.167 C 1027.387 1072.983, 1022.988 1072.907, 1009.394 1066.651 C 998.584 1061.676, 998.605 1061.681, 995.357 1062.992 M 1129.328 1068.500 C 1129.333 1072.350, 1129.513 1073.802, 1129.730 1071.728 C 1129.946 1069.653, 1129.943 1066.503, 1129.722 1064.728 C 1129.501 1062.952, 1129.324 1064.650, 1129.328 1068.500 M 1216.286 1069.500 C 1216.294 1072.250, 1216.488 1073.256, 1216.718 1071.736 C 1216.947 1070.216, 1216.941 1067.966, 1216.704 1066.736 C 1216.467 1065.506, 1216.279 1066.750, 1216.286 1069.500 M 831.158 1069 C 831.158 1070.375, 831.385 1070.938, 831.662 1070.250 C 831.940 1069.563, 831.940 1068.438, 831.662 1067.750 C 831.385 1067.063, 831.158 1067.625, 831.158 1069 M 918.195 1075.500 C 918.215 1077.150, 918.439 1077.704, 918.693 1076.731 C 918.947 1075.758, 918.930 1074.408, 918.656 1073.731 C 918.382 1073.054, 918.175 1073.850, 918.195 1075.500 M 832.158 1076 C 832.158 1077.375, 832.385 1077.938, 832.662 1077.250 C 832.940 1076.563, 832.940 1075.438, 832.662 1074.750 C 832.385 1074.063, 832.158 1074.625, 832.158 1076 M 1130.079 1078.583 C 1130.127 1079.748, 1130.364 1079.985, 1130.683 1079.188 C 1130.972 1078.466, 1130.936 1077.603, 1130.604 1077.271 C 1130.272 1076.939, 1130.036 1077.529, 1130.079 1078.583 M 833.079 1080.583 C 833.127 1081.748, 833.364 1081.985, 833.683 1081.188 C 833.972 1080.466, 833.936 1079.603, 833.604 1079.271 C 833.272 1078.939, 833.036 1079.529, 833.079 1080.583 M 834.031 1083.500 C 834.031 1084.050, 834.467 1085.175, 835 1086 C 835.533 1086.825, 835.969 1087.050, 835.969 1086.500 C 835.969 1085.950, 835.533 1084.825, 835 1084 C 834.467 1083.175, 834.031 1082.950, 834.031 1083.500 M 915.624 1084.539 C 914.659 1087.053, 914.943 1087.702, 916.122 1085.675 C 916.706 1084.671, 916.973 1083.639, 916.715 1083.382 C 916.458 1083.124, 915.966 1083.645, 915.624 1084.539 M 1132 1084.383 C 1132 1085.456, 1134.975 1091, 1135.551 1091 C 1135.826 1091, 1135.308 1089.537, 1134.399 1087.750 C 1132.542 1084.100, 1132 1083.339, 1132 1084.383 M 838.785 1092.511 C 839.351 1093.617, 840.869 1095.414, 842.157 1096.504 C 844.417 1098.416, 844.412 1098.380, 842.015 1095.493 C 838.033 1090.697, 837.697 1090.387, 838.785 1092.511 M 1209 1093 C 1208.411 1094.100, 1208.155 1095, 1208.430 1095 C 1208.705 1095, 1209.411 1094.100, 1210 1093 C 1210.589 1091.900, 1210.845 1091, 1210.570 1091 C 1210.295 1091, 1209.589 1091.900, 1209 1093 M 1141.500 1099 C 1143.648 1101.200, 1145.631 1103, 1145.906 1103 C 1146.181 1103, 1144.648 1101.200, 1142.500 1099 C 1140.352 1096.800, 1138.369 1095, 1138.094 1095 C 1137.819 1095, 1139.352 1096.800, 1141.500 1099 M 905.872 1099.750 C 904.629 1101.336, 904.664 1101.371, 906.250 1100.128 C 907.916 1098.821, 908.445 1098, 907.622 1098 C 907.415 1098, 906.627 1098.787, 905.872 1099.750 M 1201.962 1101.072 L 1198.500 1104.144 1202.250 1101.453 C 1205.564 1099.076, 1206.642 1098, 1205.712 1098 C 1205.554 1098, 1203.866 1099.382, 1201.962 1101.072 M 846.500 1101 C 847.495 1102.100, 848.535 1103, 848.810 1103 C 849.085 1103, 848.495 1102.100, 847.500 1101 C 846.505 1099.900, 845.465 1099, 845.190 1099 C 844.915 1099, 845.505 1099.900, 846.500 1101 M 901.872 1102.750 C 900.629 1104.336, 900.664 1104.371, 902.250 1103.128 C 903.212 1102.373, 904 1101.585, 904 1101.378 C 904 1100.555, 903.179 1101.084, 901.872 1102.750 M 850 1103.430 C 850 1103.705, 850.900 1104.411, 852 1105 C 853.100 1105.589, 854 1105.845, 854 1105.570 C 854 1105.295, 853.100 1104.589, 852 1104 C 850.900 1103.411, 850 1103.155, 850 1103.430 M 1194 1106 C 1192.075 1107.054, 1190.860 1107.935, 1191.300 1107.958 C 1192.359 1108.014, 1198 1105.081, 1198 1104.474 C 1198 1103.820, 1197.941 1103.842, 1194 1106 M 408.575 1108.918 C 407.569 1110.028, 407.026 1111.816, 407.283 1113.168 L 407.728 1115.500 407.864 1113.079 C 407.939 1111.747, 408.745 1109.835, 409.655 1108.829 C 410.565 1107.823, 411.085 1107, 410.810 1107 C 410.535 1107, 409.529 1107.863, 408.575 1108.918 M 416.286 1109.301 C 417.504 1110.566, 418.685 1111.469, 418.911 1111.307 C 419.494 1110.888, 415.856 1107, 414.881 1107 C 414.436 1107, 415.068 1108.035, 416.286 1109.301 M 1155 1108 C 1155.825 1108.533, 1156.950 1108.969, 1157.500 1108.969 C 1158.050 1108.969, 1157.825 1108.533, 1157 1108 C 1156.175 1107.467, 1155.050 1107.031, 1154.500 1107.031 C 1153.950 1107.031, 1154.175 1107.467, 1155 1108 M 868.750 1110.706 C 869.987 1110.944, 872.013 1110.944, 873.250 1110.706 C 874.487 1110.467, 873.475 1110.272, 871 1110.272 C 868.525 1110.272, 867.513 1110.467, 868.750 1110.706 M 878.762 1110.707 C 880.006 1110.946, 881.806 1110.937, 882.762 1110.687 C 883.718 1110.437, 882.700 1110.241, 880.500 1110.252 C 878.300 1110.263, 877.518 1110.468, 878.762 1110.707 M 1165.269 1110.693 C 1166.242 1110.947, 1167.592 1110.930, 1168.269 1110.656 C 1168.946 1110.382, 1168.150 1110.175, 1166.500 1110.195 C 1164.850 1110.215, 1164.296 1110.439, 1165.269 1110.693 M 1178.250 1110.689 C 1179.213 1110.941, 1180.787 1110.941, 1181.750 1110.689 C 1182.713 1110.438, 1181.925 1110.232, 1180 1110.232 C 1178.075 1110.232, 1177.287 1110.438, 1178.250 1110.689 M 423.813 1112.683 C 424.534 1112.972, 425.397 1112.936, 425.729 1112.604 C 426.061 1112.272, 425.471 1112.036, 424.417 1112.079 C 423.252 1112.127, 423.015 1112.364, 423.813 1112.683 M 429 1115.378 C 429 1115.585, 429.788 1116.373, 430.750 1117.128 C 432.336 1118.371, 432.371 1118.336, 431.128 1116.750 C 429.821 1115.084, 429 1114.555, 429 1115.378 M 410.377 1122.091 C 410.469 1124.038, 410.935 1124.568, 412.250 1124.224 C 414.343 1123.677, 414.595 1122, 412.583 1122 C 411.804 1122, 410.961 1121.438, 410.710 1120.750 C 410.459 1120.063, 410.309 1120.666, 410.377 1122.091 M 430.100 1124.295 C 428.835 1126.402, 428.857 1126.423, 430.579 1124.774 C 431.570 1123.824, 432.166 1122.832, 431.903 1122.569 C 431.640 1122.306, 430.829 1123.083, 430.100 1124.295 M 413.200 1126.200 C 411.420 1127.980, 411.662 1131.067, 413.526 1130.352 C 414.696 1129.903, 414.786 1129.447, 413.911 1128.393 C 413.014 1127.312, 413.275 1126.818, 415.136 1126.073 C 416.510 1125.523, 416.851 1125.100, 415.950 1125.063 C 415.097 1125.029, 413.860 1125.540, 413.200 1126.200 M 432 1129.101 C 433.375 1129.637, 435.063 1130.820, 435.750 1131.729 C 436.438 1132.638, 437 1132.872, 437 1132.248 C 437 1130.781, 433.004 1127.981, 431.027 1128.063 C 430.187 1128.098, 430.625 1128.565, 432 1129.101 M 408.667 1129.667 C 408.300 1130.033, 408 1130.798, 408 1131.367 C 408 1131.993, 408.466 1131.934, 409.183 1131.217 C 409.834 1130.566, 410.134 1129.801, 409.850 1129.517 C 409.566 1129.233, 409.033 1129.300, 408.667 1129.667 M 998.768 1129.725 C 1000.565 1129.947, 1003.265 1129.943, 1004.768 1129.715 C 1006.271 1129.486, 1004.800 1129.304, 1001.500 1129.310 C 998.200 1129.315, 996.971 1129.502, 998.768 1129.725 M 1046.264 1129.718 C 1047.784 1129.947, 1050.034 1129.941, 1051.264 1129.704 C 1052.494 1129.467, 1051.250 1129.279, 1048.500 1129.286 C 1045.750 1129.294, 1044.744 1129.488, 1046.264 1129.718 M 1010.813 1130.683 C 1011.534 1130.972, 1012.397 1130.936, 1012.729 1130.604 C 1013.061 1130.272, 1012.471 1130.036, 1011.417 1130.079 C 1010.252 1130.127, 1010.015 1130.364, 1010.813 1130.683 M 1038.813 1130.683 C 1039.534 1130.972, 1040.397 1130.936, 1040.729 1130.604 C 1041.061 1130.272, 1040.471 1130.036, 1039.417 1130.079 C 1038.252 1130.127, 1038.015 1130.364, 1038.813 1130.683 M 1105.250 1135.689 C 1106.213 1135.941, 1107.787 1135.941, 1108.750 1135.689 C 1109.713 1135.438, 1108.925 1135.232, 1107 1135.232 C 1105.075 1135.232, 1104.287 1135.438, 1105.250 1135.689 M 399.872 1137.750 C 398.629 1139.336, 398.664 1139.371, 400.250 1138.128 C 401.916 1136.821, 402.445 1136, 401.622 1136 C 401.415 1136, 400.627 1136.787, 399.872 1137.750 M 939.872 1137.750 C 938.629 1139.336, 938.664 1139.371, 940.250 1138.128 C 941.212 1137.373, 942 1136.585, 942 1136.378 C 942 1135.555, 941.179 1136.084, 939.872 1137.750 M 1100.813 1136.683 C 1101.534 1136.972, 1102.397 1136.936, 1102.729 1136.604 C 1103.061 1136.272, 1102.471 1136.036, 1101.417 1136.079 C 1100.252 1136.127, 1100.015 1136.364, 1100.813 1136.683 M 1111 1136.378 C 1111 1136.585, 1111.787 1137.373, 1112.750 1138.128 C 1114.336 1139.371, 1114.371 1139.336, 1113.128 1137.750 C 1111.821 1136.084, 1111 1135.555, 1111 1136.378 M 951.813 1137.683 C 952.534 1137.972, 953.397 1137.936, 953.729 1137.604 C 954.061 1137.272, 953.471 1137.036, 952.417 1137.079 C 951.252 1137.127, 951.015 1137.364, 951.813 1137.683 M 1073.813 1137.683 C 1074.534 1137.972, 1075.397 1137.936, 1075.729 1137.604 C 1076.061 1137.272, 1075.471 1137.036, 1074.417 1137.079 C 1073.252 1137.127, 1073.015 1137.364, 1073.813 1137.683 M 1096.813 1137.683 C 1097.534 1137.972, 1098.397 1137.936, 1098.729 1137.604 C 1099.061 1137.272, 1098.471 1137.036, 1097.417 1137.079 C 1096.252 1137.127, 1096.015 1137.364, 1096.813 1137.683 M 419.589 1138.856 C 419.298 1139.326, 420.172 1139.499, 421.530 1139.239 C 422.889 1138.979, 424 1138.594, 424 1138.383 C 424 1137.610, 420.101 1138.027, 419.589 1138.856 M 958.269 1138.693 C 959.242 1138.947, 960.592 1138.930, 961.269 1138.656 C 961.946 1138.382, 961.150 1138.175, 959.500 1138.195 C 957.850 1138.215, 957.296 1138.439, 958.269 1138.693 M 970.269 1138.693 C 971.242 1138.947, 972.592 1138.930, 973.269 1138.656 C 973.946 1138.382, 973.150 1138.175, 971.500 1138.195 C 969.850 1138.215, 969.296 1138.439, 970.269 1138.693 M 1079.269 1138.693 C 1080.242 1138.947, 1081.592 1138.930, 1082.269 1138.656 C 1082.946 1138.382, 1082.150 1138.175, 1080.500 1138.195 C 1078.850 1138.215, 1078.296 1138.439, 1079.269 1138.693 M 1090.269 1138.693 C 1091.242 1138.947, 1092.592 1138.930, 1093.269 1138.656 C 1093.946 1138.382, 1093.150 1138.175, 1091.500 1138.195 C 1089.850 1138.215, 1089.296 1138.439, 1090.269 1138.693 M 431.500 1140 L 428.500 1140.763 431.191 1140.882 C 432.671 1140.947, 434.160 1140.550, 434.500 1140 C 434.840 1139.450, 434.979 1139.053, 434.809 1139.118 C 434.639 1139.183, 433.150 1139.580, 431.500 1140 M 398.086 1141.559 C 398.039 1142.691, 398.708 1144.491, 399.574 1145.559 C 400.440 1146.626, 400.842 1146.902, 400.467 1146.172 C 400.092 1145.441, 399.422 1143.641, 398.979 1142.172 C 398.331 1140.028, 398.155 1139.907, 398.086 1141.559 M 414.437 1143.250 L 411.500 1146.500 414.750 1143.563 C 417.779 1140.825, 418.460 1140, 417.687 1140 C 417.515 1140, 416.052 1141.463, 414.437 1143.250 M 937.079 1144.583 C 937.127 1145.748, 937.364 1145.985, 937.683 1145.188 C 937.972 1144.466, 937.936 1143.603, 937.604 1143.271 C 937.272 1142.939, 937.036 1143.529, 937.079 1144.583 M 1105.750 1152.566 C 1103.138 1153.926, 1101 1155.262, 1101 1155.536 C 1101 1155.810, 1103.250 1154.894, 1106 1153.500 C 1108.750 1152.106, 1111 1150.749, 1111 1150.483 C 1111 1149.822, 1111.090 1149.786, 1105.750 1152.566 M 958 1160.794 C 960.475 1163.060, 962.853 1164.934, 963.285 1164.957 C 963.716 1164.981, 962.591 1163.751, 960.785 1162.225 C 955.087 1157.413, 953.312 1156.500, 958 1160.794 M 1093.405 1160.250 L 1091.500 1162.500 1093.750 1160.595 C 1095.864 1158.805, 1096.455 1158, 1095.655 1158 C 1095.465 1158, 1094.453 1159.013, 1093.405 1160.250 M 1086.946 1165.750 L 1083.500 1169.500 1087.250 1166.054 C 1090.740 1162.846, 1091.460 1162, 1090.696 1162 C 1090.529 1162, 1088.842 1163.688, 1086.946 1165.750 M 973.500 1175 C 976.209 1177.750, 978.650 1180, 978.925 1180 C 979.200 1180, 977.209 1177.750, 974.500 1175 C 971.791 1172.250, 969.350 1170, 969.075 1170 C 968.800 1170, 970.791 1172.250, 973.500 1175 M 752.174 1178.314 C 750.485 1180.113, 750.005 1181.840, 750.022 1186.064 C 750.090 1202.874, 768.846 1218.743, 777.548 1209.354 C 782.112 1204.429, 780.078 1196.379, 773.784 1194.460 C 769.565 1193.173, 768 1190.957, 768 1186.268 C 768 1182.714, 767.426 1181.272, 765.077 1178.923 C 761.279 1175.125, 755.430 1174.849, 752.174 1178.314 M 1072.405 1180.250 L 1070.500 1182.500 1072.750 1180.595 C 1074.864 1178.805, 1075.455 1178, 1074.655 1178 C 1074.465 1178, 1073.453 1179.013, 1072.405 1180.250 M 980 1180.378 C 980 1180.585, 980.788 1181.373, 981.750 1182.128 C 983.336 1183.371, 983.371 1183.336, 982.128 1181.750 C 980.821 1180.084, 980 1179.555, 980 1180.378 M 1063 1186 C 1062.099 1186.582, 1061.975 1186.975, 1062.691 1186.985 C 1063.346 1186.993, 1064.160 1186.550, 1064.500 1186 C 1065.267 1184.758, 1064.921 1184.758, 1063 1186 M 991 1187.383 C 991 1187.594, 991.901 1188.002, 993.001 1188.290 C 994.102 1188.578, 994.751 1188.405, 994.442 1187.907 C 993.904 1187.036, 991 1186.594, 991 1187.383 M 1222.075 1190.145 C 1215.639 1196.141, 1225.580 1213.896, 1241.374 1224.612 C 1246.227 1227.905, 1256.189 1232, 1259.345 1232 C 1262.872 1232, 1266.834 1228.402, 1267.558 1224.542 C 1268.657 1218.682, 1266.514 1216.148, 1257.046 1212.107 C 1248.211 1208.338, 1246.194 1206.425, 1240 1195.946 C 1235.487 1188.312, 1226.993 1185.562, 1222.075 1190.145 M 1003.750 1191.662 C 1004.438 1191.940, 1005.563 1191.940, 1006.250 1191.662 C 1006.938 1191.385, 1006.375 1191.158, 1005 1191.158 C 1003.625 1191.158, 1003.063 1191.385, 1003.750 1191.662 M 1046.813 1191.683 C 1047.534 1191.972, 1048.397 1191.936, 1048.729 1191.604 C 1049.061 1191.272, 1048.471 1191.036, 1047.417 1191.079 C 1046.252 1191.127, 1046.015 1191.364, 1046.813 1191.683 M 1010.269 1192.693 C 1011.242 1192.947, 1012.592 1192.930, 1013.269 1192.656 C 1013.946 1192.382, 1013.150 1192.175, 1011.500 1192.195 C 1009.850 1192.215, 1009.296 1192.439, 1010.269 1192.693 M 1039.269 1192.693 C 1040.242 1192.947, 1041.592 1192.930, 1042.269 1192.656 C 1042.946 1192.382, 1042.150 1192.175, 1040.500 1192.195 C 1038.850 1192.215, 1038.296 1192.439, 1039.269 1192.693 M 1021.776 1193.733 C 1024.128 1193.945, 1027.728 1193.942, 1029.776 1193.727 C 1031.824 1193.512, 1029.900 1193.339, 1025.500 1193.343 C 1021.100 1193.346, 1019.424 1193.522, 1021.776 1193.733 M 919.622 1281.331 C 919.335 1284.724, 918.636 1300.100, 918.068 1315.500 C 917.500 1330.900, 916.364 1347.576, 915.544 1352.558 C 912.112 1373.411, 904.466 1391.126, 892.896 1405.029 L 887.910 1411.020 892.597 1422.125 C 904.330 1449.922, 923.329 1484.832, 963.007 1551.500 C 977.216 1575.376, 986.100 1591.334, 995.296 1609.500 C 1006.435 1631.507, 1018.764 1654.194, 1020.542 1655.959 C 1021.942 1657.348, 1022.286 1657.254, 1024.030 1655 C 1025.094 1653.625, 1032.664 1639.450, 1040.853 1623.500 C 1056.677 1592.677, 1070.026 1568.475, 1106.211 1505 C 1135.584 1453.475, 1143.415 1438.916, 1148.657 1426.088 C 1155.126 1410.256, 1155.123 1410.393, 1149.037 1402.452 C 1138.668 1388.924, 1131.456 1370.855, 1128.442 1350.852 C 1127.224 1342.776, 1125.129 1302.324, 1125.004 1284.500 C 1124.944 1275.929, 1124.606 1275.950, 1110.689 1285.391 C 1085.377 1302.563, 1064.204 1310.278, 1034.901 1313.005 C 1026.703 1313.768, 1020.113 1313.765, 1011.956 1312.996 C 982.621 1310.229, 961.918 1302.578, 933.749 1284.091 L 920.142 1275.161 919.622 1281.331 M 1541.035 1292.934 C 1540.409 1294.105, 1540.082 1301.902, 1540.207 1312.684 L 1540.413 1330.500 1540.957 1312 C 1541.255 1301.825, 1541.864 1292.938, 1542.309 1292.250 C 1542.754 1291.563, 1542.882 1291, 1542.594 1291 C 1542.306 1291, 1541.605 1291.870, 1541.035 1292.934 M 1552.668 1292.004 C 1553.311 1292.831, 1554.026 1295.081, 1554.258 1297.004 L 1554.680 1300.500 1554.840 1296.872 C 1554.946 1294.462, 1554.413 1292.784, 1553.250 1291.872 C 1551.726 1290.677, 1551.651 1290.694, 1552.668 1292.004 M 1500.557 1309.223 C 1497.863 1313.069, 1498.616 1316.237, 1503.250 1320.547 L 1507.500 1324.500 1503.750 1320.458 C 1499.665 1316.055, 1499.124 1313.267, 1501.615 1309.465 C 1503.625 1306.397, 1502.686 1306.182, 1500.557 1309.223 M 1573.383 1309.765 C 1572.769 1310.169, 1570.617 1313.088, 1568.602 1316.251 C 1566.586 1319.414, 1563.520 1323.689, 1561.787 1325.751 C 1558.998 1329.069, 1558.958 1329.197, 1561.434 1326.861 C 1562.973 1325.410, 1566.323 1321.139, 1568.879 1317.369 C 1572.397 1312.180, 1574.252 1310.360, 1576.513 1309.876 C 1579.211 1309.298, 1579.258 1309.227, 1577 1309.134 C 1575.625 1309.077, 1573.997 1309.361, 1573.383 1309.765 M 1580 1310.378 C 1580 1310.585, 1580.787 1311.373, 1581.750 1312.128 C 1583.336 1313.371, 1583.371 1313.336, 1582.128 1311.750 C 1580.821 1310.084, 1580 1309.555, 1580 1310.378 M 485.861 1313.911 C 483.707 1315.654, 483.487 1316.641, 483.357 1325.161 L 483.215 1334.500 483.874 1325.500 C 484.236 1320.550, 484.885 1315.945, 485.316 1315.266 C 485.746 1314.587, 487.539 1313.615, 489.299 1313.106 C 491.613 1312.437, 491.907 1312.155, 490.361 1312.090 C 489.184 1312.041, 487.159 1312.860, 485.861 1313.911 M 493.697 1314.038 C 494.355 1314.884, 495.056 1318.484, 495.254 1322.038 L 495.615 1328.500 495.807 1321.872 C 495.961 1316.595, 495.643 1314.965, 494.250 1313.872 C 492.716 1312.669, 492.648 1312.690, 493.697 1314.038 M 1520 1317.313 C 1520 1317.485, 1521.463 1318.948, 1523.250 1320.563 L 1526.500 1323.500 1523.563 1320.250 C 1520.825 1317.221, 1520 1316.540, 1520 1317.313 M 1582.564 1320.707 C 1582.022 1322.132, 1582.136 1322.247, 1583.124 1321.267 C 1583.808 1320.588, 1584.115 1319.781, 1583.807 1319.474 C 1583.499 1319.166, 1582.940 1319.721, 1582.564 1320.707 M 511.813 1322.683 C 512.534 1322.972, 513.397 1322.936, 513.729 1322.604 C 514.061 1322.272, 513.471 1322.036, 512.417 1322.079 C 511.252 1322.127, 511.015 1322.364, 511.813 1322.683 M 459.655 1324.829 C 458.745 1325.835, 458 1327.060, 458 1327.551 C 458 1328.043, 458.731 1327.402, 459.624 1326.127 C 460.836 1324.396, 461.962 1323.914, 464.071 1324.224 C 465.624 1324.452, 466.667 1324.270, 466.388 1323.819 C 465.475 1322.342, 461.345 1322.961, 459.655 1324.829 M 1579.872 1324.750 C 1578.629 1326.336, 1578.664 1326.371, 1580.250 1325.128 C 1581.916 1323.821, 1582.445 1323, 1581.622 1323 C 1581.415 1323, 1580.627 1323.787, 1579.872 1324.750 M 1530 1326.500 C 1531.292 1327.875, 1532.574 1329, 1532.849 1329 C 1533.124 1329, 1532.292 1327.875, 1531 1326.500 C 1529.708 1325.125, 1528.426 1324, 1528.151 1324 C 1527.876 1324, 1528.708 1325.125, 1530 1326.500 M 503.437 1328.250 L 500.500 1331.500 503.750 1328.563 C 506.779 1325.825, 507.460 1325, 506.687 1325 C 506.515 1325, 505.052 1326.463, 503.437 1328.250 M 471.004 1328.342 C 472.377 1329.905, 474.400 1331.647, 475.500 1332.214 C 477.605 1333.299, 477.544 1333.234, 472.004 1328.492 L 468.507 1325.500 471.004 1328.342 M 1516 1332.500 C 1519.543 1336.075, 1522.667 1339, 1522.942 1339 C 1523.217 1339, 1520.543 1336.075, 1517 1332.500 C 1513.457 1328.925, 1510.333 1326, 1510.058 1326 C 1509.783 1326, 1512.457 1328.925, 1516 1332.500 M 1577.278 1328.250 C 1575.779 1330.188, 1574.836 1332, 1575.326 1332 C 1575.570 1332, 1576.507 1330.875, 1577.408 1329.500 C 1579.094 1326.927, 1579 1326.024, 1577.278 1328.250 M 457.782 1330.500 C 458.362 1331.600, 460.545 1334.075, 462.633 1336 C 466.242 1339.327, 466.213 1339.252, 462.045 1334.500 C 459.633 1331.750, 457.450 1329.275, 457.194 1329 C 456.938 1328.725, 457.203 1329.400, 457.782 1330.500 M 478.733 1334.124 C 479.412 1334.808, 480.219 1335.115, 480.526 1334.807 C 480.834 1334.499, 480.279 1333.940, 479.293 1333.564 C 477.868 1333.022, 477.753 1333.136, 478.733 1334.124 M 1570.624 1339.539 C 1569.659 1342.053, 1569.943 1342.702, 1571.122 1340.675 C 1571.706 1339.671, 1571.973 1338.639, 1571.715 1338.382 C 1571.458 1338.124, 1570.966 1338.645, 1570.624 1339.539 M 1527.500 1343 C 1528.495 1344.100, 1529.535 1345, 1529.810 1345 C 1530.085 1345, 1529.495 1344.100, 1528.500 1343 C 1527.505 1341.900, 1526.465 1341, 1526.190 1341 C 1525.915 1341, 1526.505 1341.900, 1527.500 1343 M 1579.776 1344.733 C 1582.128 1344.945, 1585.728 1344.942, 1587.776 1344.727 C 1589.824 1344.512, 1587.900 1344.339, 1583.500 1344.343 C 1579.100 1344.346, 1577.424 1344.522, 1579.776 1344.733 M 1596.750 1345.723 C 1598.537 1345.945, 1601.463 1345.945, 1603.250 1345.723 C 1605.037 1345.502, 1603.575 1345.320, 1600 1345.320 C 1596.425 1345.320, 1594.963 1345.502, 1596.750 1345.723 M 459.813 1346.683 C 460.534 1346.972, 461.397 1346.936, 461.729 1346.604 C 462.061 1346.272, 461.471 1346.036, 460.417 1346.079 C 459.252 1346.127, 459.015 1346.364, 459.813 1346.683 M 467.813 1346.683 C 468.534 1346.972, 469.397 1346.936, 469.729 1346.604 C 470.061 1346.272, 469.471 1346.036, 468.417 1346.079 C 467.252 1346.127, 467.015 1346.364, 467.813 1346.683 M 512.250 1346.728 C 514.313 1346.944, 517.688 1346.944, 519.750 1346.728 C 521.813 1346.513, 520.125 1346.336, 516 1346.336 C 511.875 1346.336, 510.188 1346.513, 512.250 1346.728 M 1607 1346.378 C 1607 1346.585, 1607.787 1347.373, 1608.750 1348.128 C 1610.336 1349.371, 1610.371 1349.336, 1609.128 1347.750 C 1607.821 1346.084, 1607 1345.555, 1607 1346.378 M 448.376 1349.250 C 447.334 1352.337, 447.854 1355.213, 449.777 1357 C 451.236 1358.356, 451.264 1358.332, 450.065 1356.740 C 449.225 1355.626, 448.935 1353.519, 449.274 1350.990 C 449.872 1346.537, 449.521 1345.857, 448.376 1349.250 M 1529.015 1354.720 C 1525.515 1358.697, 1509.150 1382.185, 1506.524 1387 C 1504.330 1391.025, 1508.522 1385.293, 1516.787 1372.970 C 1521.778 1365.528, 1527.730 1357.316, 1530.015 1354.720 C 1532.300 1352.124, 1533.945 1350, 1533.670 1350 C 1533.395 1350, 1531.300 1352.124, 1529.015 1354.720 M 1610 1352.777 C 1610 1354.305, 1609.289 1356.668, 1608.420 1358.027 L 1606.840 1360.500 1608.920 1358.139 C 1610.725 1356.091, 1611.907 1350, 1610.500 1350 C 1610.225 1350, 1610 1351.250, 1610 1352.777 M 529.405 1357.250 L 527.500 1359.500 529.750 1357.595 C 531.864 1355.805, 532.455 1355, 531.655 1355 C 531.465 1355, 530.453 1356.013, 529.405 1357.250 M 452.813 1358.683 C 453.534 1358.972, 454.397 1358.936, 454.729 1358.604 C 455.061 1358.272, 454.471 1358.036, 453.417 1358.079 C 452.252 1358.127, 452.015 1358.364, 452.813 1358.683 M 461.762 1359.707 C 463.006 1359.946, 464.806 1359.937, 465.762 1359.687 C 466.718 1359.437, 465.700 1359.241, 463.500 1359.252 C 461.300 1359.263, 460.518 1359.468, 461.762 1359.707 M 516.250 1359.728 C 518.313 1359.944, 521.688 1359.944, 523.750 1359.728 C 525.813 1359.513, 524.125 1359.336, 520 1359.336 C 515.875 1359.336, 514.188 1359.513, 516.250 1359.728 M 469.750 1361.833 C 470.712 1362.842, 471.677 1363.528, 471.893 1363.357 C 472.483 1362.892, 469.886 1360, 468.878 1360 C 468.395 1360, 468.788 1360.825, 469.750 1361.833 M 508.507 1360.989 C 508.157 1361.555, 508.558 1361.723, 509.448 1361.382 C 511.180 1360.717, 511.497 1360, 510.059 1360 C 509.541 1360, 508.843 1360.445, 508.507 1360.989 M 1586.292 1360.742 C 1590.027 1360.935, 1595.877 1360.934, 1599.292 1360.739 C 1602.706 1360.545, 1599.650 1360.387, 1592.500 1360.389 C 1585.350 1360.390, 1582.556 1360.550, 1586.292 1360.742 M 464.523 1371.977 C 461.827 1374.714, 459.818 1377.132, 460.060 1377.349 C 460.302 1377.566, 462.679 1375.327, 465.343 1372.372 C 471.422 1365.630, 470.983 1365.418, 464.523 1371.977 M 513.500 1372 C 516.209 1374.750, 518.650 1377, 518.925 1377 C 519.200 1377, 517.209 1374.750, 514.500 1372 C 511.791 1369.250, 509.350 1367, 509.075 1367 C 508.800 1367, 510.791 1369.250, 513.500 1372 M 1533.732 1373.250 C 1529.037 1379.116, 1524.300 1385.820, 1526.136 1384 C 1528.325 1381.831, 1538.117 1369, 1537.584 1369 C 1537.336 1369, 1535.603 1370.912, 1533.732 1373.250 M 1565.500 1375 C 1568.766 1378.300, 1571.662 1381, 1571.937 1381 C 1572.212 1381, 1569.766 1378.300, 1566.500 1375 C 1563.234 1371.700, 1560.338 1369, 1560.063 1369 C 1559.788 1369, 1562.234 1371.700, 1565.500 1375 M 498 1370.378 C 498 1370.585, 498.788 1371.373, 499.750 1372.128 C 501.336 1373.371, 501.371 1373.336, 500.128 1371.750 C 498.821 1370.084, 498 1369.555, 498 1370.378 M 1540 1392.046 C 1540.382 1408.765, 1540.823 1414.211, 1541.872 1415.203 C 1543.027 1416.295, 1543.067 1416.154, 1542.122 1414.316 C 1541.400 1412.910, 1541 1404.823, 1541 1391.625 C 1541 1380.346, 1540.662 1370.909, 1540.250 1370.653 C 1539.838 1370.397, 1539.725 1380.024, 1540 1392.046 M 496.079 1373.583 C 496.127 1374.748, 496.364 1374.985, 496.683 1374.188 C 496.972 1373.466, 496.936 1372.603, 496.604 1372.271 C 496.272 1371.939, 496.036 1372.529, 496.079 1373.583 M 1584 1372.378 C 1584 1372.585, 1584.787 1373.373, 1585.750 1374.128 C 1587.336 1375.371, 1587.371 1375.336, 1586.128 1373.750 C 1584.821 1372.084, 1584 1371.555, 1584 1372.378 M 482.195 1376.500 C 482.215 1378.150, 482.439 1378.704, 482.693 1377.731 C 482.947 1376.758, 482.930 1375.408, 482.656 1374.731 C 482.382 1374.054, 482.175 1374.850, 482.195 1376.500 M 474.437 1378.250 L 471.500 1381.500 474.750 1378.563 C 476.538 1376.948, 478 1375.485, 478 1375.313 C 478 1374.540, 477.175 1375.221, 474.437 1378.250 M 1588.500 1378 C 1589.495 1379.100, 1590.535 1380, 1590.810 1380 C 1591.085 1380, 1590.495 1379.100, 1589.500 1378 C 1588.505 1376.900, 1587.465 1376, 1587.190 1376 C 1586.915 1376, 1587.505 1376.900, 1588.500 1378 M 505.500 1379 C 506.495 1380.100, 507.535 1381, 507.810 1381 C 508.085 1381, 507.495 1380.100, 506.500 1379 C 505.505 1377.900, 504.465 1377, 504.190 1377 C 503.915 1377, 504.505 1377.900, 505.500 1379 M 522 1380.500 C 523.292 1381.875, 524.574 1383, 524.849 1383 C 525.124 1383, 524.292 1381.875, 523 1380.500 C 521.708 1379.125, 520.426 1378, 520.151 1378 C 519.876 1378, 520.708 1379.125, 522 1380.500 M 456.073 1381.635 C 453.424 1385.002, 453.356 1389.585, 455.934 1390.965 C 459.776 1393.021, 462.472 1392.119, 467.042 1387.250 L 471.500 1382.500 466.962 1386.750 C 462.329 1391.089, 458.558 1392.158, 456.200 1389.800 C 454.390 1387.990, 454.755 1384.582, 457.073 1381.635 C 458.212 1380.186, 458.920 1379, 458.645 1379 C 458.370 1379, 457.212 1380.186, 456.073 1381.635 M 510.500 1385 C 511.495 1386.100, 512.535 1387, 512.810 1387 C 513.085 1387, 512.495 1386.100, 511.500 1385 C 510.505 1383.900, 509.465 1383, 509.190 1383 C 508.915 1383, 509.505 1383.900, 510.500 1385 M 1593.158 1386 C 1593.158 1387.375, 1593.385 1387.938, 1593.662 1387.250 C 1593.940 1386.563, 1593.940 1385.438, 1593.662 1384.750 C 1593.385 1384.063, 1593.158 1384.625, 1593.158 1386 M 1523.278 1387.250 C 1521.779 1389.188, 1520.836 1391, 1521.326 1391 C 1521.570 1391, 1522.507 1389.875, 1523.408 1388.500 C 1525.094 1385.927, 1525 1385.024, 1523.278 1387.250 M 1580.689 1389.750 C 1582.907 1391.946, 1584.867 1392.967, 1586.735 1392.898 C 1589.356 1392.801, 1589.327 1392.754, 1586.169 1392.007 C 1584.337 1391.574, 1581.617 1390.158, 1580.123 1388.860 C 1578.629 1387.562, 1578.884 1387.963, 1580.689 1389.750 M 1590.872 1390.750 C 1589.629 1392.336, 1589.664 1392.371, 1591.250 1391.128 C 1592.916 1389.821, 1593.445 1389, 1592.622 1389 C 1592.415 1389, 1591.627 1389.787, 1590.872 1390.750 M 516.768 1391.168 C 517.350 1391.750, 518.415 1392.028, 519.137 1391.788 C 519.886 1391.538, 519.432 1391.085, 518.080 1390.731 C 516.417 1390.296, 516.026 1390.426, 516.768 1391.168 M 483.320 1397 C 483.320 1400.575, 483.502 1402.037, 483.723 1400.250 C 483.945 1398.463, 483.945 1395.537, 483.723 1393.750 C 483.502 1391.963, 483.320 1393.425, 483.320 1397 M 1504.102 1393.059 C 1504.046 1394.466, 1504.708 1396.491, 1505.574 1397.559 C 1506.440 1398.626, 1506.818 1398.864, 1506.415 1398.087 C 1506.011 1397.310, 1505.349 1395.285, 1504.943 1393.587 C 1504.264 1390.749, 1504.196 1390.706, 1504.102 1393.059 M 1515.694 1397.532 C 1514.151 1398.889, 1513.285 1400, 1513.770 1400 C 1514.255 1400, 1515.708 1398.875, 1517 1397.500 C 1519.989 1394.319, 1519.328 1394.335, 1515.694 1397.532 M 494.487 1403.250 C 493.314 1405.925, 487.789 1406.856, 485.185 1404.818 C 483.672 1403.635, 483.640 1403.679, 484.872 1405.250 C 487.618 1408.750, 496 1406.625, 496 1402.429 C 496 1400.439, 495.633 1400.639, 494.487 1403.250" stroke="none" fill="black" fill-rule="evenodd"/>
</svg>