<svg xmlns="http://www.w3.org/2000/svg" width="2048" height="2048" viewBox="0 0 2048 2048" version="1.1">
	<path d="M 1019 654.041 C 1006.376 655.985, 998.195 660.685, 987.956 671.876 C 980.300 680.244, 977.798 685.434, 975.392 697.944 C 974.604 702.038, 973.258 706.162, 972.401 707.109 C 971.544 708.057, 968.468 709.796, 965.565 710.974 C 960.968 712.839, 959.988 713.755, 957.964 718.078 C 956.019 722.229, 955.628 724.740, 955.570 733.447 C 955.510 742.398, 955.206 744.249, 953.396 746.677 C 951.490 749.234, 950.548 749.559, 943.396 750.126 C 939.053 750.471, 924.250 751.048, 910.500 751.410 C 887.137 752.023, 867.153 753.263, 859 754.603 C 857.075 754.920, 848.300 756.924, 839.500 759.058 C 820.179 763.742, 805.808 769.538, 790.943 778.642 C 782.297 783.938, 765 804.723, 765 809.817 C 765 810.558, 762.334 817.540, 759.075 825.332 C 755.816 833.124, 752.249 842.946, 751.149 847.157 C 750.048 851.369, 748.423 856.215, 747.538 857.927 C 746.652 859.639, 744.630 864.968, 743.044 869.770 C 739.258 881.229, 733.671 896.368, 731.150 902 C 730.042 904.475, 728.184 910.100, 727.019 914.500 C 723.947 926.111, 719.790 934.540, 716.229 936.382 C 712.965 938.069, 699.481 939.562, 679 940.503 C 666.553 941.075, 641.919 943.693, 627.500 945.976 C 624.200 946.499, 611.375 948.067, 599 949.460 C 586.625 950.854, 567.050 953.349, 555.500 955.005 C 543.950 956.661, 527.985 958.724, 520.022 959.590 C 512.058 960.456, 505.281 961.326, 504.960 961.525 C 504.640 961.723, 496.980 963.040, 487.939 964.451 C 467.973 967.569, 436.521 975.005, 430.891 977.940 C 428.629 979.119, 424.467 980.701, 421.640 981.457 C 414.240 983.434, 402.321 988.574, 398.987 991.224 C 397.413 992.476, 393.959 995.062, 391.312 996.972 C 383.669 1002.487, 377.304 1008.973, 375.694 1012.887 C 369.204 1028.664, 368.183 1032.014, 367.581 1039.500 C 366.232 1056.287, 371.003 1073.677, 379.336 1082.350 C 386.025 1089.311, 386 1089.147, 386 1126.903 C 386 1146.663, 385.590 1161.948, 385.020 1163.447 C 383.452 1167.571, 380.227 1168.455, 374.972 1166.201 C 372.512 1165.146, 368.812 1163.136, 366.749 1161.735 C 364.504 1160.211, 362.195 1159.398, 360.999 1159.711 C 358.650 1160.325, 358.809 1159.791, 358.536 1168 C 358.396 1172.209, 357.524 1176.262, 356.063 1179.500 C 350.096 1192.725, 354.338 1220.615, 363.788 1230.296 C 372.942 1239.674, 383.004 1244.203, 404.500 1248.621 C 411.100 1249.978, 418.525 1251.713, 421 1252.476 C 423.475 1253.240, 429.550 1254.370, 434.500 1254.987 C 439.450 1255.604, 446.200 1256.931, 449.500 1257.935 C 452.800 1258.940, 457.975 1260.079, 461 1260.467 C 464.025 1260.856, 471.900 1262.597, 478.500 1264.337 C 489.063 1267.121, 492.056 1267.497, 503.500 1267.476 C 513.689 1267.458, 517.351 1267.073, 520.438 1265.699 C 529.444 1261.688, 538.614 1254.045, 545.291 1244.983 C 550.465 1237.961, 555.533 1218.252, 557.944 1195.782 C 559.629 1180.084, 568.751 1154.250, 575.938 1144.830 C 577.897 1142.261, 581.300 1137.551, 583.500 1134.363 C 585.700 1131.175, 592 1124.122, 597.500 1118.690 C 626.451 1090.095, 642.746 1082.962, 679.144 1082.952 C 706.126 1082.945, 719.414 1087.420, 740 1103.446 C 745.190 1107.487, 763.350 1126.600, 767.071 1131.939 C 772.860 1140.242, 777.646 1150.737, 783.516 1168 C 786.415 1176.525, 789.588 1185.525, 790.567 1188 C 791.949 1191.493, 792.476 1196.639, 792.924 1211 C 793.485 1229.026, 793.569 1229.597, 796.183 1233.291 C 797.659 1235.377, 799.643 1239.427, 800.591 1242.291 C 801.851 1246.098, 804.090 1249.343, 808.908 1254.344 C 816.886 1262.628, 822.542 1266.582, 828.796 1268.247 C 832.505 1269.235, 886.369 1269.500, 1083.500 1269.500 C 1323.358 1269.500, 1333.723 1269.426, 1339 1267.665 C 1345.585 1265.467, 1351.999 1260.698, 1357.681 1253.776 C 1362.765 1247.582, 1364.622 1240.762, 1365.925 1223.500 C 1366.909 1210.460, 1373.877 1180.607, 1378.082 1171.418 C 1381.112 1164.798, 1388.375 1154.580, 1391.754 1152.184 C 1400.309 1146.118, 1426.914 1134.011, 1439.479 1130.465 C 1451.973 1126.940, 1497.682 1126.156, 1521.704 1129.055 C 1536.350 1130.822, 1559.244 1139.824, 1567.785 1147.173 C 1569.591 1148.728, 1571.650 1150, 1572.360 1150 C 1574.628 1150, 1577.606 1154.310, 1579.963 1161 C 1581.222 1164.575, 1583.293 1169.300, 1584.565 1171.500 C 1588.855 1178.920, 1590.118 1187.826, 1589.034 1203 C 1588.504 1210.425, 1587.942 1217.793, 1587.785 1219.372 C 1587.569 1221.546, 1588.187 1222.762, 1590.323 1224.372 C 1593.114 1226.475, 1593.732 1226.501, 1643.823 1226.561 C 1705.159 1226.636, 1703.031 1226.964, 1714.443 1215.682 C 1723.171 1207.053, 1726.148 1200.497, 1726.228 1189.725 C 1726.272 1183.852, 1725.791 1181.987, 1722.619 1175.725 C 1717.284 1165.191, 1705.863 1155.956, 1696.310 1154.451 C 1688.326 1153.193, 1688.870 1158.664, 1688.967 1080.556 C 1689.048 1016.415, 1688.919 1010.671, 1687.337 1007.993 C 1686.392 1006.393, 1684.340 1004.555, 1682.776 1003.907 C 1681.213 1003.260, 1677.570 1001.328, 1674.681 999.615 C 1671.791 997.902, 1665.844 994.849, 1661.464 992.831 C 1652.997 988.930, 1623.544 979.007, 1620.383 978.990 C 1619.347 978.985, 1616.223 977.920, 1613.440 976.624 C 1606.132 973.221, 1574.818 967.403, 1551 965.022 C 1531.741 963.097, 1495.718 960.902, 1454.500 959.142 C 1443.671 958.679, 1435.604 957.887, 1434.250 957.151 C 1430.829 955.294, 1429.244 952.223, 1426.657 942.443 C 1423.747 931.441, 1398.502 863.169, 1396.664 861.331 C 1396.299 860.966, 1396 860.111, 1396 859.432 C 1396 858.753, 1391.759 849.491, 1386.575 838.849 C 1374.851 814.780, 1366.558 803.124, 1351.831 790.015 C 1341.424 780.751, 1332.555 774.444, 1321.500 768.446 C 1314.705 764.759, 1292.547 758.771, 1277.343 756.513 C 1254.738 753.157, 1186.617 750.026, 1135.815 750.010 C 1117.936 750.004, 1104.040 749.585, 1102.517 749.006 C 1098.550 747.498, 1097 742.556, 1097 731.418 C 1097 718.739, 1095.458 715.806, 1086.254 710.980 C 1078.122 706.716, 1076.254 704.267, 1074.948 696.157 C 1074.388 692.682, 1073.082 687.606, 1072.046 684.879 C 1069.686 678.669, 1060.205 666.974, 1053.307 661.767 C 1044.706 655.273, 1031.015 652.190, 1019 654.041 M 1518.996 663.015 C 1517.790 667.495, 1518.528 673.364, 1520.505 675.004 C 1521.348 675.704, 1523.496 675.798, 1526.650 675.272 C 1531.110 674.530, 1531.524 674.220, 1531.799 671.426 C 1532.241 666.935, 1530.466 663.255, 1526.775 661.004 C 1521.821 657.984, 1520.241 658.393, 1518.996 663.015 M 1017.718 667.092 C 1009.445 669.040, 999.544 675.919, 995.144 682.776 C 992.162 687.423, 989 697.168, 989 701.710 C 989 702.970, 989.900 704.900, 991 706 C 992.919 707.919, 994.333 708, 1026.045 708 L 1059.091 708 1061.498 705.593 C 1063.478 703.613, 1063.806 702.506, 1063.351 699.343 C 1061.566 686.960, 1057.141 679.549, 1047.562 672.901 C 1038.210 666.409, 1028.578 664.534, 1017.718 667.092 M 1496.200 685.200 C 1495.540 685.860, 1495 687.896, 1495 689.725 C 1495 693.756, 1497.466 695, 1505.458 695 C 1511.313 695, 1512 694.321, 1512 688.525 C 1512 686.428, 1511.420 684.991, 1510.418 684.607 C 1507.624 683.535, 1497.440 683.960, 1496.200 685.200 M 1540.200 685.200 C 1539.540 685.860, 1539 688.020, 1539 690 C 1539 694.865, 1540.457 696, 1546.700 696 C 1550.667 696, 1552.503 695.497, 1554 694 C 1556.654 691.346, 1556.552 687.500, 1553.777 685.557 C 1551.128 683.701, 1541.940 683.460, 1540.200 685.200 M 1518.922 707.146 C 1517.560 709.690, 1518.230 717.368, 1520 719.499 C 1521.303 721.071, 1526.649 721.510, 1528.687 720.214 C 1530.228 719.235, 1532 714.538, 1532 711.435 C 1532 707.704, 1528.654 705, 1524.035 705 C 1521.004 705, 1519.800 705.505, 1518.922 707.146 M 970.888 722.112 C 968.961 724.039, 968.811 725.090, 969.174 734.120 C 969.520 742.737, 969.861 744.306, 971.813 746.258 L 974.056 748.500 1026 748.500 L 1077.944 748.500 1080.222 746.225 C 1082.245 744.204, 1082.538 742.788, 1082.838 733.593 C 1083.160 723.719, 1083.068 723.161, 1080.865 721.618 C 1078.808 720.177, 1072.784 720, 1025.777 720 C 973.402 720, 972.984 720.016, 970.888 722.112 M 529.035 726.934 C 527.454 729.889, 527.729 740.530, 529.422 741.936 C 530.218 742.596, 532.971 742.980, 535.672 742.808 L 540.500 742.500 540.804 737.204 C 541.084 732.315, 540.842 731.642, 537.654 728.454 C 533.794 724.594, 530.590 724.029, 529.035 726.934 M 506.557 753.223 C 504.421 756.272, 504.594 757.685, 507.455 760.545 C 509.385 762.476, 510.943 763, 514.755 763 C 520.542 763, 522 761.792, 522 757 C 522 752.072, 520.546 751, 513.857 751 C 509.055 751, 507.858 751.365, 506.557 753.223 M 552 752.235 C 548.268 754.192, 547.940 760.259, 551.441 762.554 C 554.912 764.828, 562.360 763.731, 565.626 760.465 C 568.463 757.628, 568.539 756.861, 566.250 754.145 C 564.005 751.479, 555.591 750.352, 552 752.235 M 528.973 773.051 C 527.532 775.743, 528.169 784.294, 529.972 786.467 C 530.672 787.310, 532.739 788, 534.566 788 C 538.777 788, 541 785.040, 541 779.432 C 541 774.561, 539.113 772.468, 533.836 771.489 C 530.689 770.906, 530.003 771.126, 528.973 773.051 M 804.435 784.900 C 796.346 788.879, 793.485 790.897, 789.863 795.176 C 784.501 801.509, 775.797 817.745, 773.468 825.757 C 772.554 828.901, 771.111 832.819, 770.260 834.463 C 769.410 836.108, 768.143 839.714, 767.445 842.477 C 766.748 845.239, 764.605 851.775, 762.685 857 C 760.764 862.225, 757.592 870.886, 755.634 876.246 C 753.677 881.606, 750.741 889.033, 749.109 892.751 C 745.716 900.481, 742 913.207, 742 917.095 C 742 920.834, 745.497 924.832, 749.293 925.434 C 751.057 925.713, 759.102 926.858, 767.170 927.977 C 775.628 929.150, 785.580 931.254, 790.670 932.946 C 802.153 936.762, 822.833 941.717, 830.704 942.538 C 837.586 943.256, 843.474 941.860, 844.902 939.170 C 845.389 938.251, 847.234 932.100, 849.001 925.500 C 850.767 918.900, 854.837 906.525, 858.045 898 C 861.252 889.475, 867.751 871.700, 872.487 858.500 C 877.222 845.300, 883.406 828.875, 886.227 822 C 896.627 796.660, 897.759 791.506, 893.984 786.707 C 892.876 785.298, 890.513 783.701, 888.734 783.158 C 886.955 782.615, 874.025 781.911, 860 781.592 C 845.975 781.274, 830 780.774, 824.500 780.481 L 814.500 779.949 804.435 784.900 M 952.357 790.975 C 946.772 793.272, 947 789.732, 947 874.223 C 947 950.749, 947.032 952.032, 949.006 954.006 C 950.984 955.984, 952.093 956.009, 1025.649 955.756 L 1100.284 955.500 1102.270 952.841 C 1104.214 950.237, 1104.251 948.585, 1104.068 873.414 C 1103.954 826.471, 1103.507 795.947, 1102.918 794.846 C 1100.585 790.488, 1100.951 790.510, 1026 790.297 C 986.493 790.184, 953.541 790.488, 952.357 790.975 M 1125.856 791.804 C 1123.760 791.979, 1121.424 792.979, 1120.356 794.159 C 1118.586 796.114, 1118.487 799.848, 1118.223 874.355 L 1117.945 952.500 1120.084 954.250 C 1122.078 955.882, 1127.284 956, 1197.420 956 C 1260.788 956, 1272.923 955.777, 1274.559 954.581 C 1276.452 953.196, 1276.500 951.219, 1276.500 875.185 C 1276.500 800.165, 1276.428 797.131, 1274.613 795.124 C 1273.575 793.978, 1271.325 792.813, 1269.613 792.536 C 1266.234 791.989, 1131.833 791.305, 1125.856 791.804 M 918.375 793.772 C 915.033 796.490, 913.479 799.593, 908.495 813.500 C 905.932 820.650, 901.604 832.440, 898.876 839.701 C 896.148 846.962, 891.505 860.012, 888.558 868.701 C 885.611 877.390, 879.542 895.300, 875.070 908.500 C 865.313 937.305, 862.758 946.579, 863.563 950.267 C 864.736 955.644, 866.956 956, 899.340 956 C 926.842 956, 928.934 955.874, 931.139 954.087 L 933.500 952.174 933.683 878.337 C 933.784 837.727, 933.611 802.527, 933.300 800.116 C 932.988 797.705, 931.893 794.893, 930.866 793.866 C 928.443 791.443, 921.306 791.389, 918.375 793.772 M 1294.306 800.413 L 1291.500 802.826 1291.231 877.279 C 1290.979 947.248, 1291.069 951.860, 1292.731 953.853 C 1294.477 955.945, 1295.019 955.974, 1334.500 956.061 C 1356.500 956.109, 1375.256 955.854, 1376.180 955.494 C 1378.649 954.532, 1380.053 949.465, 1379.467 943.627 C 1378.429 933.279, 1377.899 930.244, 1374.904 917.500 C 1363.195 867.685, 1355.040 844.876, 1343.416 829.432 C 1331.717 813.887, 1321.060 805.159, 1307.653 800.143 C 1300.301 797.392, 1297.758 797.444, 1294.306 800.413 M 726.500 971.627 C 704.074 972.065, 643.963 974.031, 638.500 974.505 C 635.750 974.744, 623.600 975.827, 611.500 976.914 C 599.400 978, 583.040 979.373, 575.145 979.965 C 551.688 981.725, 509.311 993.152, 497.329 1000.949 C 490.208 1005.583, 482 1014.172, 482 1016.989 C 482 1021.509, 484.851 1026.040, 488.709 1027.652 C 492.266 1029.138, 492.965 1029.098, 500.495 1026.984 C 504.898 1025.747, 510.300 1023.731, 512.500 1022.503 C 514.700 1021.275, 518.975 1019.704, 522 1019.011 C 525.025 1018.318, 531.325 1016.509, 536 1014.991 C 543.209 1012.651, 547.463 1012.054, 564 1011.062 C 577.366 1010.261, 586.925 1009.123, 594.389 1007.445 C 611.457 1003.609, 639.004 1002.176, 739 999.923 C 801.355 998.518, 1493.169 999.284, 1549.500 1000.820 C 1569.850 1001.376, 1595.950 1002.123, 1607.500 1002.482 C 1629.570 1003.167, 1632.501 1002.758, 1630.454 999.278 C 1628.279 995.582, 1616.912 991.180, 1601.500 988.066 C 1555.470 978.765, 1540.170 976.736, 1507 975.534 C 1475.328 974.386, 1463.150 973.813, 1449.500 972.829 C 1437.109 971.936, 767.647 970.823, 726.500 971.627 M 389.655 1016.250 C 383.106 1022.419, 381.491 1027.066, 380.431 1042.797 C 379.563 1055.674, 380.957 1062.839, 385.656 1069.662 C 390.668 1076.939, 392.234 1078.159, 397.294 1078.730 C 402.930 1079.365, 407.173 1077.206, 410.667 1071.926 C 412.875 1068.590, 413.477 1066.178, 414.216 1057.704 C 415.525 1042.695, 415.357 1029.121, 413.799 1024.032 C 412.771 1020.674, 411.125 1018.500, 407.178 1015.282 C 399.776 1009.248, 396.920 1009.406, 389.655 1016.250 M 466.711 1027.898 C 461.760 1033.379, 460.612 1039.412, 461.248 1056.629 C 461.635 1067.137, 462.298 1072.186, 463.983 1077.453 C 468.417 1091.320, 477.787 1095.246, 483.585 1085.665 C 485.299 1082.832, 485.495 1080.508, 485.448 1063.500 C 485.408 1048.977, 484.988 1042.863, 483.667 1037.554 C 480.245 1023.807, 473.749 1020.108, 466.711 1027.898 M 1046.357 1025.992 C 1043.839 1027.008, 1041 1030.758, 1041 1033.068 C 1041 1033.960, 1040.177 1035.435, 1039.171 1036.345 C 1037.483 1037.873, 1022.999 1038, 851.122 1038 C 646.606 1038, 662.107 1037.519, 656.619 1044.041 C 653.300 1047.985, 653.271 1051.980, 656.533 1055.857 C 660.196 1060.210, 664.763 1061.390, 674.922 1060.608 C 679.640 1060.245, 762.512 1059.966, 859.083 1059.987 L 1034.665 1060.026 1042.583 1057.440 C 1050.393 1054.890, 1050.837 1054.860, 1075.500 1055.221 C 1097.828 1055.549, 1100.927 1055.797, 1104.500 1057.544 C 1108.393 1059.448, 1111.315 1059.500, 1213.500 1059.500 L 1318.500 1059.500 1322.710 1057.250 C 1326.784 1055.073, 1327.802 1055.001, 1354.210 1055.022 C 1380.395 1055.043, 1381.682 1055.134, 1386 1057.272 L 1390.500 1059.500 1502.500 1060 C 1564.100 1060.275, 1615.934 1060.149, 1617.686 1059.721 C 1621.543 1058.777, 1626 1053.767, 1626 1050.374 C 1626 1046.548, 1623.295 1042.208, 1619.733 1040.319 C 1616.746 1038.735, 1608.055 1038.581, 1505.500 1038.292 C 1444.450 1038.120, 1393.492 1037.751, 1392.259 1037.473 C 1390.547 1037.086, 1389.867 1036.019, 1389.376 1032.951 C 1388.965 1030.380, 1387.835 1028.228, 1386.232 1026.968 C 1383.889 1025.125, 1382.078 1025, 1357.615 1025.004 C 1333.484 1025.007, 1331.257 1025.156, 1328.301 1026.958 C 1326.074 1028.316, 1324.774 1030.125, 1324.024 1032.912 C 1323.431 1035.114, 1322.537 1037.168, 1322.039 1037.476 C 1321.540 1037.784, 1273.552 1038.031, 1215.400 1038.023 C 1098.681 1038.008, 1106.922 1038.473, 1105.461 1031.824 C 1105.058 1029.988, 1103.605 1028.120, 1101.655 1026.931 C 1098.756 1025.164, 1096.470 1025.012, 1073.500 1025.067 C 1059.750 1025.100, 1047.536 1025.516, 1046.357 1025.992 M 1648.379 1026.597 C 1640.892 1029.160, 1638.663 1036.070, 1643.478 1041.792 C 1647.803 1046.931, 1658.331 1046.759, 1663.628 1041.463 C 1671.092 1033.998, 1659.571 1022.766, 1648.379 1026.597 M 432.413 1040.943 C 430.715 1041.349, 428.814 1041.997, 428.190 1042.383 C 426.574 1043.381, 425.202 1049.235, 424.412 1058.500 C 423.677 1067.114, 422.339 1070.645, 417.861 1075.785 C 412.460 1081.986, 414.831 1085.763, 425.816 1088.455 C 429.721 1089.412, 433.468 1090.859, 434.142 1091.671 C 434.815 1092.482, 437.077 1094.019, 439.168 1095.086 C 446.355 1098.752, 448.231 1106, 441.995 1106 C 437.948 1106, 428.029 1103.576, 417.562 1100.029 C 406.364 1096.234, 402.621 1096.122, 400.397 1099.518 C 399.122 1101.463, 398.903 1103.225, 399.433 1107.268 C 400.644 1116.502, 400.904 1116.657, 416.186 1117.263 C 435.422 1118.027, 445.512 1121.765, 444.805 1127.866 C 444.504 1130.463, 444.402 1130.496, 437.500 1130.211 C 433.650 1130.052, 426.450 1129.266, 421.500 1128.465 C 407.704 1126.232, 403.398 1126.463, 401.378 1129.545 C 399.964 1131.703, 399.890 1132.690, 400.891 1136.029 C 402.323 1140.812, 403.656 1141.581, 412 1142.441 C 420.807 1143.348, 428.179 1144.772, 436.299 1147.135 C 441.832 1148.746, 443.461 1149.709, 445.046 1152.307 C 448.827 1158.508, 447.144 1162, 440.377 1162 C 437.302 1162, 435.324 1161.302, 433.104 1159.434 C 429.480 1156.385, 422.571 1153.872, 411.102 1151.433 L 402.704 1149.647 400.852 1151.934 C 397.791 1155.715, 399.002 1165.882, 402.938 1169.444 C 405.020 1171.328, 415.008 1173.787, 435.500 1177.462 C 442.650 1178.744, 453.283 1181.061, 459.130 1182.612 C 468.052 1184.978, 470.181 1185.239, 472.380 1184.237 C 475.591 1182.774, 475.816 1179.519, 473.077 1174.150 C 466.415 1161.092, 466.405 1137.788, 473.056 1125 C 478.914 1113.736, 478.392 1110.241, 470.232 1106.106 C 467.080 1104.508, 463.525 1102.143, 462.333 1100.850 C 456.594 1094.624, 449.008 1069.225, 449.003 1056.218 C 448.997 1042.028, 444.643 1038.019, 432.413 1040.943 M 529.500 1043.929 C 521.832 1045.779, 519.899 1048.995, 521.982 1056.434 C 523.472 1061.758, 527.582 1066.890, 534.370 1071.903 C 541.988 1077.529, 545.599 1079.111, 550.916 1079.153 C 563.166 1079.247, 577.961 1064.631, 577.990 1052.405 C 578.004 1046.812, 575.759 1045.032, 567.324 1043.945 C 559.251 1042.904, 533.790 1042.893, 529.500 1043.929 M 1470.724 1086.069 C 1464.248 1086.462, 1455.923 1087.346, 1452.224 1088.033 C 1443.779 1089.603, 1427.845 1096.571, 1420.837 1101.760 C 1410.215 1109.623, 1402.188 1120.630, 1403.440 1125.616 C 1403.960 1127.687, 1404.630 1128, 1408.549 1128 C 1411.146 1128, 1415.658 1126.907, 1419.181 1125.424 C 1427.900 1121.754, 1445.977 1117.349, 1458.111 1115.938 C 1464.877 1115.151, 1475.650 1114.932, 1489 1115.310 C 1523.437 1116.286, 1540.011 1119.816, 1567.794 1132.095 C 1573.734 1134.719, 1576.290 1134.095, 1576.780 1129.899 C 1577.456 1124.103, 1563.808 1107.337, 1551.722 1099.115 C 1546.311 1095.435, 1537.660 1091.403, 1531 1089.458 C 1519.784 1086.183, 1493.359 1084.697, 1470.724 1086.069 M 488.970 1125.282 C 486.783 1127.023, 482.382 1137.619, 481.403 1143.500 C 479.698 1153.744, 480.306 1162.017, 483.313 1169.500 C 484.860 1173.350, 486.859 1177.063, 487.754 1177.750 C 490.903 1180.167, 494.565 1179.224, 498.366 1175.016 C 502.459 1170.486, 508 1159.026, 508 1155.092 C 508 1150.609, 504.223 1138.555, 500.486 1131.107 C 497.167 1124.494, 496.696 1124.002, 493.709 1124.032 C 491.944 1124.049, 489.811 1124.612, 488.970 1125.282 M 666 1128.980 C 649.280 1132.564, 639.405 1135.287, 637.053 1136.962 C 635.518 1138.056, 633.190 1139.358, 631.881 1139.856 C 622.598 1143.390, 604.938 1159.308, 594.998 1173.101 C 592.858 1176.070, 589.915 1179.960, 588.459 1181.745 C 587.003 1183.530, 584.890 1187.580, 583.765 1190.745 C 582.639 1193.910, 580.880 1197.697, 579.856 1199.159 C 578.831 1200.622, 576.138 1208.008, 573.870 1215.573 C 569.784 1229.201, 569.751 1229.443, 570.217 1241.914 C 570.652 1253.533, 571.020 1255.457, 575.009 1266.961 C 581.401 1285.400, 584.468 1290.849, 597.177 1306.354 C 608.668 1320.372, 611.342 1323.156, 617 1326.991 C 623.764 1331.575, 637.941 1338.395, 644 1339.979 C 646.475 1340.626, 653 1342.579, 658.500 1344.320 C 667.456 1347.154, 669.752 1347.481, 680.500 1347.454 C 691.784 1347.425, 693.305 1347.170, 706 1343.179 C 732.126 1334.967, 748.535 1325.246, 757.791 1312.500 C 759.788 1309.750, 763.773 1304.868, 766.647 1301.650 C 769.521 1298.433, 773.286 1293.033, 775.015 1289.650 C 776.743 1286.268, 778.766 1282.824, 779.509 1281.998 C 781.576 1279.702, 782.914 1275.550, 785.633 1263 C 787.707 1253.425, 788.025 1249.910, 787.532 1242 C 786.579 1226.733, 785.912 1221.053, 783.950 1211.500 C 779.577 1190.208, 773.456 1178.309, 758.896 1162.794 C 748.301 1151.503, 739.593 1144.937, 725.500 1137.611 C 712.400 1130.801, 679.659 1126.052, 666 1128.980 M 670.500 1140.612 C 660.505 1142.113, 650.092 1144.540, 647.501 1145.972 C 645.850 1146.884, 642.516 1148.414, 640.091 1149.371 C 637.666 1150.328, 634.516 1152.003, 633.091 1153.094 C 631.666 1154.185, 628.025 1156.857, 625 1159.031 C 611.576 1168.682, 600.372 1183.524, 591.172 1203.846 C 585.640 1216.066, 582 1231.144, 582 1241.844 C 582 1253.158, 591.101 1278.327, 599.577 1290.452 C 605.308 1298.650, 619.678 1313.028, 627.343 1318.233 C 633.946 1322.717, 651.656 1329.848, 664.043 1333.011 C 678.310 1336.654, 685.589 1335.823, 712 1327.540 C 727.764 1322.596, 735.812 1317.417, 750.005 1303.085 C 757.725 1295.291, 760.296 1291.891, 763.688 1284.993 C 777.265 1257.390, 779.405 1232.895, 770.611 1205.779 C 766.303 1192.496, 761.685 1182.631, 757.137 1177 C 751.626 1170.175, 740.053 1159.078, 736.583 1157.291 C 734.887 1156.418, 732.134 1154.666, 730.465 1153.397 C 725.893 1149.922, 713.546 1145.045, 704 1142.942 C 695.578 1141.086, 676.279 1139.744, 670.500 1140.612 M 1456 1147.507 C 1443.183 1150.538, 1439.734 1151.870, 1429.500 1157.740 C 1412.240 1167.641, 1399.542 1179.777, 1391.642 1193.921 C 1381.995 1211.192, 1378.061 1225.806, 1378.020 1244.526 C 1377.979 1263.323, 1381.005 1275.707, 1389.799 1292.729 C 1394.013 1300.885, 1409.035 1316.865, 1420.783 1325.687 C 1428.266 1331.307, 1445.322 1338.418, 1456.555 1340.601 C 1468.015 1342.829, 1484.884 1342.849, 1496.193 1340.649 C 1506.828 1338.579, 1524.533 1330.942, 1532.051 1325.182 C 1535.048 1322.886, 1539.750 1319.270, 1542.500 1317.147 C 1549.699 1311.589, 1558.708 1301.086, 1561.156 1295.397 C 1561.842 1293.803, 1563.148 1291.375, 1564.060 1290 C 1566.953 1285.636, 1571.894 1271.823, 1573.982 1262.261 C 1576.733 1249.664, 1576.612 1238.466, 1573.596 1226.581 C 1570.838 1215.712, 1569.402 1212.102, 1562.678 1199.127 C 1556.437 1187.086, 1552.788 1182.122, 1543.803 1173.454 C 1524.668 1154.991, 1504.050 1146.127, 1478.500 1145.377 C 1468.384 1145.080, 1464.852 1145.414, 1456 1147.507 M 1455 1161.572 C 1436.583 1166.373, 1421.169 1176.192, 1409.772 1190.385 C 1404.736 1196.657, 1396.828 1211.877, 1395.163 1218.500 C 1391.924 1231.396, 1391.573 1246.886, 1394.133 1264 C 1395.375 1272.297, 1401.985 1288.849, 1406.528 1295.039 C 1418.011 1310.681, 1440.093 1324.572, 1458.899 1327.982 C 1468.017 1329.635, 1486.227 1329.386, 1495.500 1327.482 C 1526.517 1321.111, 1551.112 1297.738, 1559.506 1266.658 C 1566.022 1242.529, 1560.867 1215.430, 1545.791 1194.563 C 1540.312 1186.979, 1529.471 1176.511, 1524.115 1173.632 C 1523.227 1173.155, 1520.883 1171.680, 1518.908 1170.355 C 1513.780 1166.917, 1500.737 1162.070, 1492.162 1160.416 C 1480.673 1158.199, 1466.211 1158.649, 1455 1161.572 M 1675.500 1168.873 C 1665.227 1170.797, 1656 1180.547, 1656 1189.479 C 1656 1194.030, 1660.976 1203.960, 1664.918 1207.277 C 1668.642 1210.411, 1675.683 1212.002, 1685.799 1211.994 C 1695.420 1211.987, 1700.122 1210.710, 1704.423 1206.934 C 1716.603 1196.239, 1713.438 1176.675, 1698.518 1170.443 C 1694.060 1168.580, 1681.601 1167.731, 1675.500 1168.873 M 375.500 1181.260 C 368.020 1184.351, 366.115 1188.038, 366.044 1199.568 C 365.964 1212.461, 369.374 1219.088, 379 1224.742 C 386.855 1229.356, 396.737 1233.812, 400.500 1234.437 C 402.700 1234.803, 413.500 1237.314, 424.500 1240.017 C 435.500 1242.720, 449.450 1245.824, 455.500 1246.915 C 461.550 1248.006, 471.900 1250.066, 478.500 1251.492 C 498.714 1255.860, 501.296 1256.221, 507.414 1255.531 C 514.291 1254.755, 522.812 1250.668, 528.212 1245.556 C 537.427 1236.833, 544 1215.728, 539.502 1209.306 C 537.505 1206.455, 530.844 1205.099, 513.277 1203.967 C 493.023 1202.663, 458.963 1197.241, 444 1192.939 C 440.425 1191.911, 432.775 1190.422, 427 1189.630 C 421.225 1188.838, 411.150 1186.562, 404.611 1184.571 C 391.418 1180.554, 380.276 1179.287, 375.500 1181.260 M 662.911 1181.786 C 644.590 1186.706, 628.471 1204.518, 623.033 1225.855 C 619.141 1241.127, 620.968 1254.114, 629.016 1268.374 C 632.662 1274.835, 641.630 1283.345, 649.340 1287.661 C 656.766 1291.817, 676.403 1298.008, 682.042 1297.970 C 688.328 1297.928, 704.307 1292.264, 712.001 1287.350 C 724.587 1279.313, 733.658 1266.876, 735.913 1254.566 C 738.492 1240.486, 736.381 1221.311, 731.061 1210.500 C 725.247 1198.685, 712.623 1187.639, 699.389 1182.787 C 691.182 1179.778, 672.316 1179.260, 662.911 1181.786 M 1461.378 1189.934 C 1436.368 1195.996, 1418.813 1220.512, 1420.277 1247.336 C 1420.705 1255.183, 1421.218 1257.087, 1424.861 1264.336 C 1431.493 1277.535, 1441.655 1287.198, 1455.751 1293.711 C 1469.504 1300.065, 1480.968 1300.352, 1495.500 1294.704 C 1514.593 1287.283, 1524.764 1274.950, 1530.536 1252.221 C 1533.356 1241.112, 1533.331 1240.506, 1529.490 1227.740 C 1526.976 1219.383, 1522.819 1212.806, 1514.585 1204.160 C 1506.990 1196.183, 1500.752 1192.578, 1490.301 1190.124 C 1479.627 1187.618, 1471.162 1187.563, 1461.378 1189.934 M 666.500 1193.401 C 653.763 1197.436, 643.208 1207.102, 638.092 1219.417 C 631.959 1234.179, 631.782 1245.292, 637.482 1257.742 C 640.390 1264.093, 649.981 1275.542, 653.268 1276.585 C 654.477 1276.969, 658.848 1278.887, 662.983 1280.849 C 670.087 1284.219, 671.077 1284.418, 681 1284.458 L 691.500 1284.500 701.318 1279.125 C 708.963 1274.939, 712.206 1272.463, 715.973 1267.937 C 723.307 1259.124, 725.373 1252.863, 725.355 1239.500 C 725.345 1232.171, 724.793 1226.719, 723.699 1223.164 C 719.122 1208.291, 707.311 1196.935, 692.879 1193.533 C 685.199 1191.723, 672.006 1191.657, 666.500 1193.401 M 1467.500 1200.984 C 1455.087 1203.009, 1439.318 1216.874, 1436.281 1228.433 C 1432.989 1240.962, 1433.771 1252.723, 1438.511 1261.967 C 1443.047 1270.814, 1457.164 1281.998, 1466.403 1284.066 C 1469.427 1284.742, 1475.338 1285.064, 1479.901 1284.800 C 1495.192 1283.914, 1507.987 1274.989, 1515.251 1260.141 C 1518.331 1253.845, 1518.497 1252.929, 1518.451 1242.500 C 1518.404 1231.925, 1518.261 1231.207, 1514.736 1223.919 C 1507.927 1209.841, 1495.812 1201.611, 1480.500 1200.664 C 1476.100 1200.391, 1470.250 1200.535, 1467.500 1200.984 M 673.028 1221.800 C 666.683 1226.202, 664.201 1229.939, 663.150 1236.675 C 661.650 1246.292, 665.683 1254.168, 674.309 1258.467 C 680.638 1261.621, 681.819 1261.617, 688.565 1258.426 C 704.800 1250.746, 704.549 1231.796, 688.078 1221.629 C 684.844 1219.633, 681.366 1218.001, 680.349 1218.002 C 679.332 1218.003, 676.038 1219.712, 673.028 1221.800 M 816.500 1228.192 C 813.686 1229.792, 813.033 1231.028, 813.015 1234.782 C 812.982 1242.018, 819.230 1249.665, 829 1254.345 L 833.500 1256.500 1082 1256.403 L 1330.500 1256.306 1336.238 1254.085 C 1341.814 1251.928, 1346.778 1247.277, 1349.868 1241.316 C 1351.767 1237.652, 1351.269 1231.553, 1348.895 1229.405 C 1346.838 1227.543, 1340.830 1227.495, 1082.645 1227.277 C 886.770 1227.112, 817.983 1227.348, 816.500 1228.192 M 679.011 1229.892 C 677.642 1230.273, 675.505 1232.095, 674.261 1233.940 C 668.873 1241.937, 674.102 1251.454, 682.830 1249.537 C 688.183 1248.362, 690.826 1243.217, 689.556 1236.446 C 689.083 1233.927, 687.969 1232.342, 685.696 1230.956 C 683.938 1229.884, 682.275 1229.051, 682 1229.103 C 681.725 1229.156, 680.380 1229.511, 679.011 1229.892 M 401.603 1357.879 C 393.682 1358.592, 391.175 1360.602, 394.301 1363.731 C 395.897 1365.329, 399.332 1365.555, 429.784 1366.072 C 448.328 1366.387, 507.825 1366.436, 562 1366.181 C 616.175 1365.927, 669.950 1365.758, 681.500 1365.805 C 693.050 1365.853, 865.625 1365.953, 1065 1366.027 C 1264.375 1366.102, 1463.050 1366.237, 1506.500 1366.329 C 1601.236 1366.528, 1660.846 1366.093, 1666.294 1365.163 C 1671.214 1364.323, 1673.378 1361.536, 1670.673 1359.525 C 1667.352 1357.056, 1652.556 1356.739, 1576.147 1357.494 C 1534.541 1357.906, 1485.650 1358.076, 1467.500 1357.871 C 1422.614 1357.366, 744.523 1357.398, 694.500 1357.907 C 672.500 1358.131, 599.150 1358.077, 531.500 1357.787 C 463.850 1357.496, 405.396 1357.538, 401.603 1357.879" stroke="none" fill="black" fill-rule="evenodd"/>
</svg>