<svg xmlns="http://www.w3.org/2000/svg" width="2048" height="2048" viewBox="0 0 2048 2048" version="1.1">
	<path d="M 1128.041 363.619 C 1126.329 365.060, 1124.290 367.473, 1123.510 368.981 C 1122.087 371.733, 1113.982 441.959, 1113.809 453.032 C 1113.756 456.420, 1114.377 459.828, 1115.410 461.826 C 1120.365 471.407, 1135.628 471.388, 1140.615 461.794 C 1141.848 459.422, 1143.537 447.584, 1146.650 419.500 C 1151.455 376.147, 1151.629 373.117, 1149.536 369.069 C 1146.748 363.678, 1142.422 361, 1136.500 361 C 1132.191 361, 1130.549 361.508, 1128.041 363.619 M 1009.020 367.752 C 1004.274 370.136, 1001.002 375.289, 1000.990 380.398 C 1000.976 386.063, 1015.764 457.516, 1018.028 462.723 C 1020.326 468.010, 1024.959 470.991, 1030.882 470.996 C 1039.380 471.004, 1045 464.881, 1045 455.616 C 1045 449.261, 1030.321 378.299, 1028.117 374 C 1026.045 369.958, 1019.852 366.040, 1015.500 366.018 C 1013.850 366.010, 1010.934 366.790, 1009.020 367.752 M 1251.500 397.871 C 1249.850 398.895, 1247.550 400.806, 1246.389 402.117 C 1245.227 403.428, 1235.665 421.185, 1225.139 441.579 C 1205.017 480.561, 1204.221 482.681, 1207.405 488.800 C 1208.178 490.285, 1210.014 492.625, 1211.486 494 C 1213.763 496.128, 1215.114 496.500, 1220.564 496.500 C 1226.549 496.500, 1227.195 496.272, 1230.463 493 C 1233.503 489.957, 1254.090 451.832, 1268.801 422 C 1274.723 409.992, 1273.463 402.103, 1264.929 397.752 C 1260.485 395.486, 1255.266 395.532, 1251.500 397.871 M 1347.500 468.970 C 1345.041 470.154, 1331.678 482.568, 1312.808 501.198 C 1278.291 535.277, 1278.051 535.608, 1281.467 544.552 C 1283.383 549.570, 1287.120 552.544, 1292.873 553.631 C 1299.590 554.900, 1303.351 552.069, 1333.559 523 C 1349.277 507.875, 1363.344 493.925, 1364.819 492 C 1367.109 489.010, 1367.500 487.528, 1367.500 481.831 C 1367.500 476.106, 1367.146 474.777, 1365 472.452 C 1362.186 469.402, 1357.201 466.989, 1353.782 467.022 C 1352.527 467.034, 1349.700 467.911, 1347.500 468.970 M 1051.500 533.963 C 1002.092 542.310, 993.335 544.427, 973.032 552.936 C 961.419 557.804, 941.462 568.498, 931 575.461 C 895.810 598.881, 853.582 647.222, 827.012 694.500 C 823.612 700.550, 815.045 717.200, 807.974 731.500 C 787.783 772.334, 778.799 796.483, 768.926 836.456 C 755.061 892.593, 753.677 930.659, 762.578 1011 C 767.117 1051.967, 771.383 1076.659, 777.564 1097.744 C 798.126 1167.884, 800.798 1209.009, 788.003 1258.446 C 780.202 1288.589, 772.346 1304.181, 751.396 1331.096 C 738.993 1347.032, 705.349 1398.222, 686.723 1429.500 C 681.352 1438.519, 655.470 1483.299, 650.295 1492.527 C 636.460 1517.194, 617.850 1556.549, 611.767 1574 C 608.859 1582.343, 608.825 1582.667, 609.968 1591.500 C 612.873 1613.948, 618.015 1625.068, 631.965 1639.071 C 646.483 1653.643, 658.989 1661.464, 677.389 1667.480 C 691.396 1672.060, 700.775 1673.391, 714.261 1672.714 C 739.554 1671.444, 759.514 1660.646, 768.811 1643.203 C 773.403 1634.587, 796.105 1571.329, 822.357 1494 C 831.786 1466.226, 845.465 1418.016, 856.043 1375.279 C 866.876 1331.514, 871.324 1318.856, 881.968 1301.500 C 906.558 1261.406, 943.462 1233.860, 1022 1196.975 C 1063.486 1177.491, 1070.285 1173.622, 1110.494 1146.622 C 1136.897 1128.892, 1154.756 1115.755, 1168.500 1103.955 C 1180.645 1093.527, 1204.773 1068.683, 1214.189 1056.909 C 1240.806 1023.627, 1272.298 963.670, 1294.493 904.020 C 1302.123 883.512, 1307.958 859.382, 1312.181 830.874 C 1314.192 817.298, 1314.459 811.640, 1314.467 782.500 C 1314.479 739.085, 1312.819 727.397, 1302.181 696 C 1283.218 640.032, 1251.794 600.277, 1201.829 569.043 C 1173.522 551.348, 1144.389 540.459, 1112 535.466 C 1100.086 533.629, 1059.450 532.620, 1051.500 533.963 M 1413 571.458 C 1405.442 574.304, 1345.352 602.116, 1343 603.858 C 1336.830 608.426, 1334.670 618.381, 1338.675 623.788 C 1343.600 630.437, 1349.896 632.374, 1357.624 629.618 C 1368.109 625.878, 1426.866 598.477, 1429.373 596.158 C 1432.538 593.231, 1435 588.281, 1435 584.848 C 1435 583.629, 1434.073 580.716, 1432.940 578.376 C 1429.510 571.290, 1421.151 568.390, 1413 571.458 M 1053 572.017 C 1042.201 573.235, 1024.043 576.799, 1014.500 579.573 C 1004.234 582.557, 976.156 594.747, 965 601.064 C 916.307 628.634, 877.971 675.331, 839.036 754.500 C 818.509 796.239, 808.269 824.908, 801.152 860.567 C 796.478 883.984, 795.558 892.957, 795.569 915 C 795.577 931.943, 795.964 937.537, 797.796 947.242 C 803.530 977.602, 817.677 1007.575, 838.980 1034.500 C 847.996 1045.895, 872.078 1069.493, 881.500 1076.166 C 928.129 1109.188, 978.808 1122.781, 1032.006 1116.533 C 1048.966 1114.541, 1058.496 1112.659, 1078.500 1107.352 C 1097.617 1102.281, 1106.033 1099.054, 1117.223 1092.503 C 1157.931 1068.674, 1198.654 1019.055, 1230.484 954.500 C 1238.853 937.526, 1254.039 902.341, 1260.604 884.711 C 1270.437 858.305, 1275.050 834.906, 1277.069 801.184 C 1279.005 768.862, 1275.687 741.104, 1266.596 713.568 C 1252.828 671.864, 1232.447 641.055, 1201.500 615.166 C 1181.234 598.213, 1158.137 586.427, 1130 578.682 C 1106.017 572.081, 1075.700 569.457, 1053 572.017 M 1044.914 640.956 C 1038.993 642.750, 1036.882 645.256, 1031.049 657.415 C 1014.683 691.528, 1012.552 698.498, 1016.300 705.653 C 1021.135 714.885, 1036.652 715.566, 1042.397 706.798 C 1043.225 705.534, 1048.048 694.600, 1053.115 682.500 C 1064.004 656.500, 1064.998 651.528, 1060.402 646.066 C 1056.045 640.888, 1050.822 639.165, 1044.914 640.956 M 1105.218 659.606 C 1099.489 662.529, 1097.046 667.189, 1083.141 701.709 C 1074.084 724.192, 1073.351 728.236, 1077.270 734.102 C 1083.833 743.926, 1097.524 742.880, 1103.310 732.113 C 1106.474 726.225, 1125.551 678.559, 1126.467 674.253 C 1127.380 669.958, 1125.638 664.986, 1121.999 661.499 C 1118.255 657.912, 1110.298 657.015, 1105.218 659.606 M 960.793 666.046 C 956.291 668.423, 953.268 673.426, 938.616 702.741 C 930.104 719.772, 928.001 724.826, 928.004 728.241 C 928.011 736.570, 934.580 742.989, 943.102 742.996 C 951.858 743.003, 952.912 741.662, 968.442 710.739 C 980.657 686.417, 982.385 682.374, 982.385 678.107 C 982.385 666.828, 971.172 660.565, 960.793 666.046 M 1443 685.052 C 1439.975 685.520, 1424.332 687.716, 1408.238 689.932 C 1392.143 692.148, 1377.743 694.602, 1376.238 695.386 C 1370.771 698.230, 1366.999 703.865, 1367.002 709.184 C 1367.005 717.002, 1373.813 724, 1381.414 724 C 1383.679 724, 1401.420 721.767, 1420.839 719.037 C 1459.312 713.628, 1461.323 713.053, 1464.394 706.583 C 1467.701 699.614, 1465.524 690.694, 1459.644 687.121 C 1455.628 684.682, 1449.958 683.977, 1443 685.052 M 1164.914 690.925 C 1157.558 693.242, 1155.665 696.211, 1141.914 727 C 1135.124 742.203, 1133.644 746.413, 1133.611 750.625 C 1133.492 765.996, 1151.790 771.555, 1160.938 758.927 C 1162.622 756.602, 1164 754.320, 1164 753.856 C 1164 753.392, 1168.308 743.460, 1173.573 731.786 C 1184.129 708.382, 1185.330 703.678, 1182.202 698 C 1179.059 692.295, 1171.013 689.002, 1164.914 690.925 M 1001.384 728.857 C 994.645 732.009, 988.426 742.270, 987.357 752 C 985.887 765.373, 1000.707 774.288, 1012.398 767.063 C 1016.602 764.465, 1022.376 753.636, 1024.171 744.983 C 1025.161 740.208, 1025.076 738.962, 1023.534 735.713 C 1019.839 727.926, 1009.931 724.859, 1001.384 728.857 M 1062.637 754.465 C 1057.083 756.445, 1053.227 760.517, 1049.376 768.472 C 1045.435 776.610, 1045.032 782.183, 1047.969 787.939 C 1053.336 798.460, 1069.577 799.134, 1076.362 789.118 C 1079.422 784.600, 1084 771.878, 1084 767.891 C 1084 762.085, 1079.365 756.237, 1073.101 754.139 C 1068.834 752.709, 1067.440 752.753, 1062.637 754.465 M 916.007 758.593 C 911.257 760.653, 908.233 763.652, 905.514 769 C 899.699 780.434, 899.714 788.647, 905.559 794.492 C 912.349 801.282, 922.190 801.259, 928.623 794.439 C 933.027 789.769, 938 777.416, 938 771.146 C 938 760.372, 926.734 753.941, 916.007 758.593 M 1202.500 770.968 C 1194.754 772.735, 1192.429 775.653, 1182.894 795.564 C 1168.078 826.503, 1165.692 834.637, 1169.354 841.718 C 1172.241 847.301, 1180.155 850.624, 1186.434 848.891 C 1194.071 846.782, 1195.281 844.870, 1211.096 809.914 C 1222.662 784.348, 1223.109 779.900, 1214.737 773.675 C 1211.024 770.915, 1206.816 769.984, 1202.500 770.968 M 1121.728 781.327 C 1112.487 784.201, 1105 795.338, 1105 806.209 C 1105 812.768, 1106.648 816.791, 1110.611 819.908 C 1116.888 824.847, 1125.741 824.613, 1132.004 819.343 C 1137.831 814.440, 1143.704 799.272, 1142.422 792.437 C 1141.516 787.608, 1136.746 782.302, 1132.168 781.030 C 1127.711 779.792, 1126.557 779.825, 1121.728 781.327 M 974.384 782.913 C 963.720 787.756, 956.213 807.848, 961.619 817.079 C 964.854 822.604, 968.356 824.500, 975.323 824.500 C 983.705 824.500, 986.894 822.139, 991.434 812.571 C 996.323 802.268, 997.563 796.824, 996.119 792.002 C 994.757 787.457, 990.410 783.486, 985.219 782.044 C 980.216 780.654, 979.174 780.738, 974.384 782.913 M 1033.500 811.410 C 1030.750 812.816, 1027.463 815.500, 1026.195 817.375 C 1015.115 833.762, 1019.635 851.503, 1035.209 852.753 C 1039.562 853.103, 1041.116 852.759, 1043.976 850.815 C 1052.934 844.726, 1059.722 825.164, 1055.625 817.242 C 1051.695 809.643, 1041.973 807.080, 1033.500 811.410 M 894.500 812.960 C 886.283 814.892, 881.293 819.896, 877.861 829.645 C 873.956 840.739, 876.680 849.756, 885.260 854.133 C 890.293 856.700, 896.193 856.280, 901.543 852.973 C 906.583 849.859, 912.036 838.515, 912.713 829.740 C 913.128 824.364, 912.869 823.023, 910.844 820.054 C 907.005 814.427, 900.419 811.568, 894.500 812.960 M 1095.500 838.207 C 1089.861 840.178, 1085.821 844.117, 1082.953 850.443 C 1077.940 861.499, 1077.884 868.331, 1082.757 874.123 C 1088.467 880.909, 1097.259 882.438, 1104.607 877.923 C 1109.579 874.868, 1117 858.777, 1117 851.053 C 1117 846.712, 1113.600 841.714, 1108.987 839.275 C 1104.387 836.842, 1100.324 836.520, 1095.500 838.207 M 946.896 842.851 C 943.185 845.204, 941.819 846.992, 939.063 853.101 C 934.560 863.083, 934.341 869.999, 938.346 875.777 C 945.144 885.587, 959.368 885.053, 965.399 874.762 C 971.971 863.548, 973.958 851.559, 970.135 846.190 C 965.362 839.487, 954.632 837.945, 946.896 842.851 M 1156.637 865.465 C 1151.141 867.424, 1147.164 871.554, 1143.864 878.728 C 1138.708 889.941, 1140.475 899.850, 1148.468 904.534 C 1155.805 908.834, 1163.836 907.367, 1169.732 900.652 C 1173.884 895.924, 1178.524 881.609, 1177.564 876.492 C 1176.679 871.774, 1171.705 866.290, 1167.168 865.030 C 1162.504 863.735, 1161.358 863.782, 1156.637 865.465 M 1008 869.121 C 1001.857 871.563, 994.555 882.670, 993.360 891.388 C 991.245 906.817, 1008.963 916.475, 1020.922 906.412 C 1025.725 902.370, 1030.388 891.830, 1030.829 884.014 C 1031.170 877.990, 1030.959 877.105, 1028.483 874.162 C 1026.986 872.383, 1024.488 870.269, 1022.931 869.464 C 1019.732 867.810, 1011.758 867.627, 1008 869.121 M 865.500 870.569 C 858.963 873.962, 853.646 881.815, 850.878 892.167 C 846.975 906.758, 861.366 918.068, 874.500 910.734 C 879.989 907.668, 887.001 893.851, 887.741 884.642 C 888.196 878.969, 888.004 878.158, 885.500 875.183 C 883.994 873.393, 881.488 871.269, 879.931 870.464 C 876.239 868.555, 869.283 868.606, 865.500 870.569 M 1068.500 894.503 C 1060.099 897.474, 1053 909.331, 1053 920.390 C 1053 932.923, 1065.127 940.506, 1076.425 935.037 C 1082.032 932.322, 1084.559 928.889, 1087.628 919.821 C 1092.014 906.855, 1090.093 898.761, 1081.729 894.964 C 1076.724 892.692, 1073.898 892.593, 1068.500 894.503 M 923.637 897.465 C 921.513 898.222, 918.414 900.115, 916.752 901.671 C 912.780 905.388, 907.942 916.056, 907.338 922.428 C 906.083 935.669, 918.926 944.160, 930.939 938.031 C 935.388 935.761, 937.956 932.012, 941.488 922.629 C 946.125 910.308, 944.134 901.779, 935.729 897.964 C 930.739 895.699, 928.814 895.619, 923.637 897.465 M 1125.500 921.573 C 1123.850 922.431, 1121.424 924.115, 1120.108 925.316 C 1117.334 927.850, 1112.478 937.936, 1111.485 943.227 C 1110.057 950.840, 1115.809 960.064, 1123.230 962.062 C 1134.271 965.035, 1142.792 957.816, 1148.043 941.038 C 1150.177 934.221, 1149.964 930.401, 1147.216 926.207 C 1143.590 920.672, 1131.990 918.197, 1125.500 921.573 M 980.394 925.947 C 972.735 930.340, 965.976 942.058, 966.016 950.876 C 966.054 959.216, 973.741 967.013, 981.898 966.984 C 990.061 966.954, 993.734 963.943, 999.459 952.583 C 1003.501 944.564, 1004.429 941.762, 1004.429 937.568 C 1004.429 931.135, 1001.658 926.880, 995.993 924.614 C 990.173 922.285, 986.185 922.626, 980.394 925.947 M 1040.500 949.408 C 1029.309 954.368, 1021.287 976.196, 1027.562 984.611 C 1031.095 989.349, 1034.580 991.305, 1040.209 991.706 C 1048.760 992.316, 1052.478 989.554, 1057.979 978.500 C 1061.921 970.578, 1062.460 968.701, 1062.479 962.833 C 1062.497 957.087, 1062.155 955.797, 1060 953.488 C 1058.625 952.015, 1056.285 950.178, 1054.800 949.405 C 1051.430 947.652, 1044.459 947.653, 1040.500 949.408 M 894.421 953.896 C 889.578 956.096, 886.936 959.241, 883.052 967.428 C 877.889 978.314, 876.700 983.171, 878.008 988.030 C 881.244 1000.049, 895.967 1003.617, 904.592 994.472 C 908.346 990.490, 916.127 973.200, 916.706 967.549 C 917.286 961.897, 914.481 957.079, 908.964 954.250 C 903.661 951.531, 899.834 951.438, 894.421 953.896 M 1099.871 978.006 C 1094.755 980.709, 1091.622 984.813, 1086.263 995.829 C 1080.417 1007.846, 1079.554 1014.617, 1083.181 1020 C 1087.759 1026.793, 1097.201 1029.003, 1103.982 1024.870 C 1108.740 1021.969, 1109.288 1021.182, 1116.055 1007.500 C 1120.985 997.533, 1121.991 994.624, 1121.995 990.327 C 1121.999 986.201, 1121.470 984.523, 1119.381 982.041 C 1114.176 975.855, 1106.820 974.334, 1099.871 978.006 M 957.275 979.996 C 949.737 981.729, 946.284 985.887, 938.587 1002.500 C 932.333 1015.999, 931.454 1021.953, 934.886 1027.580 C 938.926 1034.206, 948.636 1035.904, 955.881 1031.250 C 959.630 1028.842, 961.042 1026.739, 967.242 1014.326 C 975.398 997.998, 976.660 991.964, 973.100 986.299 C 969.922 981.241, 963.312 978.608, 957.275 979.996 M 1013.500 1008.357 C 1009.064 1010.409, 1006.497 1013.656, 1002.706 1022.007 C 995.588 1037.684, 994.736 1043.614, 998.725 1049.704 C 1000.691 1052.704, 1007.001 1056.007, 1010.710 1055.978 C 1014.973 1055.944, 1021.445 1052.588, 1023.903 1049.136 C 1025.116 1047.433, 1028.220 1041.643, 1030.801 1036.270 C 1034.707 1028.138, 1035.494 1025.538, 1035.497 1020.767 C 1035.500 1015.487, 1035.207 1014.741, 1031.801 1011.334 C 1028.519 1008.052, 1027.448 1007.597, 1022.301 1007.302 C 1018.776 1007.099, 1015.323 1007.513, 1013.500 1008.357 M 807 1061.033 C 807 1062.151, 810.141 1075.089, 813.980 1089.783 C 828.894 1146.875, 832.289 1167.045, 832.275 1198.500 C 832.262 1228.732, 828.981 1250.281, 819.865 1280 C 817.587 1287.425, 815.673 1294.360, 815.612 1295.412 C 815.524 1296.909, 817.652 1298.267, 825.405 1301.662 C 830.853 1304.048, 835.686 1306, 836.146 1306 C 836.606 1306, 839.292 1301.388, 842.115 1295.750 C 851.768 1276.478, 862.782 1261.358, 880.463 1243.107 C 899.506 1223.450, 913.806 1212.574, 944 1194.779 C 959.178 1185.833, 983.680 1173.265, 1001.190 1165.442 C 1010.853 1161.125, 1014.970 1158.603, 1013.940 1157.632 C 1013.698 1157.404, 1006.075 1156.716, 997 1156.104 C 957.876 1153.465, 926.861 1145.203, 894.886 1128.901 C 869.865 1116.145, 849.560 1100.814, 824.651 1075.872 C 815.383 1066.592, 807.621 1059, 807.401 1059 C 807.180 1059, 807 1059.915, 807 1061.033 M 794.979 1334.256 C 792.132 1337.223, 742.922 1410.475, 726.291 1436.500 C 718.978 1447.945, 707.686 1466.823, 689.804 1497.500 C 674.287 1524.118, 671.749 1528.902, 672.332 1530.422 C 672.622 1531.179, 674.579 1532.355, 676.680 1533.034 C 678.781 1533.714, 689.826 1538.709, 701.225 1544.135 C 712.624 1549.561, 722.165 1554, 722.426 1554 C 722.688 1554, 730.404 1557.177, 739.573 1561.060 C 748.741 1564.944, 756.794 1567.909, 757.468 1567.651 C 758.141 1567.392, 760.374 1561.853, 762.429 1555.340 C 764.484 1548.828, 772.185 1524.825, 779.542 1502 C 794.559 1455.410, 796.769 1447.865, 810.887 1395 C 816.395 1374.375, 821.594 1355.250, 822.440 1352.500 C 825.062 1343.978, 825.065 1343.982, 814.250 1338.589 C 797.564 1330.267, 798.585 1330.496, 794.979 1334.256 M 654.500 1570.573 C 649.441 1573.204, 647.201 1575.992, 645.947 1581.221 C 643.127 1592.975, 646.934 1602.883, 658.484 1613.855 C 667.247 1622.178, 680.110 1628.860, 694.500 1632.564 C 702.804 1634.701, 706.196 1635.075, 714.500 1634.768 C 725.718 1634.353, 728.522 1633.302, 734.374 1627.317 C 738.521 1623.075, 744.017 1612.502, 743.969 1608.857 C 743.910 1604.358, 734.266 1598.634, 710 1588.695 C 702.575 1585.654, 689.308 1579.979, 680.517 1576.083 C 663.708 1568.634, 659.813 1567.809, 654.500 1570.573" stroke="none" fill="black" fill-rule="evenodd"/>
</svg>