<svg width="933" height="393" viewBox="0 0 933 393" fill="none" xmlns="http://www.w3.org/2000/svg">
<path d="M9.29357 370.922C9.29357 370.922 9.6341 368.8 10.1914 365.571C10.7641 362.299 11.6155 358.01 12.4978 353.735C13.411 349.431 14.3862 345.185 15.1292 341.987C15.9032 338.729 16.4295 336.651 16.4295 336.651C16.4295 336.651 19.4015 338.596 22.3116 340.483C25.2836 342.355 28.2711 344.272 28.2711 344.272C28.2711 344.272 29.6178 344.316 31.9861 344.36C34.3699 344.345 37.7134 344.389 41.707 344.463C43.7193 344.507 45.9174 344.581 48.2547 344.64C50.5302 344.728 52.9449 344.758 55.4835 344.861C58.0066 344.935 60.5762 345.038 63.2386 345.126C65.8546 345.274 68.5635 345.362 71.1949 345.451C73.8883 345.628 76.5972 345.731 79.2286 345.878C81.8601 346.026 84.4142 346.188 86.9373 346.306C89.414 346.512 91.8597 346.615 94.1351 346.792C96.3951 346.94 98.6086 347.087 100.605 347.249C104.568 347.529 107.912 347.78 110.264 347.971C112.602 348.178 113.918 348.281 113.918 348.281C113.918 348.281 110.605 346.792 105.59 344.537C103.144 343.372 100.249 342.075 97.1845 340.586C94.0577 339.142 90.7607 337.55 87.5255 335.987C84.2284 334.381 80.9159 332.818 77.8974 331.285C74.8016 329.782 71.9689 328.381 69.5077 327.158C64.6627 324.637 61.3656 322.986 61.3656 322.986C61.3656 322.986 59.7093 322.868 57.2327 322.632C54.6941 322.47 51.3351 322.161 47.9916 321.895C44.679 321.645 41.3046 321.483 38.735 321.262C36.2583 321.07 34.5556 320.967 34.5556 320.967C34.5556 320.967 31.0264 321.276 27.4662 321.615C23.875 321.851 20.2993 322.205 20.2993 322.205C20.2993 322.205 20.9339 320.127 21.8936 316.987C22.8534 313.803 24.1846 309.631 25.5622 305.489C26.9553 301.273 28.4259 297.146 29.5558 294.065C30.7013 290.985 31.4443 288.862 31.4443 288.862C31.4443 288.862 34.1686 291.117 36.893 293.373C39.6173 295.569 42.3417 297.721 42.3417 297.721C42.3417 297.721 43.6729 297.883 46.0102 298.193C48.3321 298.443 51.7066 298.885 55.7157 299.372C57.6971 299.637 59.8487 299.932 62.1241 300.227C64.4305 300.566 66.8143 300.846 69.291 301.215C71.7986 301.598 74.3836 301.937 76.9996 302.32C79.6001 302.718 82.2316 303.116 84.9095 303.499C87.5564 303.927 90.1879 304.339 92.7575 304.782C95.358 305.194 97.8966 305.607 100.404 306.02C102.865 306.462 105.265 306.845 107.525 307.243C109.738 307.656 111.859 308.039 113.84 308.393C117.772 309.13 121.069 309.72 123.391 310.147C125.635 310.589 126.967 310.855 126.967 310.855C126.967 310.855 125.852 310.177 123.871 309.012C121.812 307.848 118.995 306.153 115.651 304.118C113.933 303.101 112.091 301.966 110.203 300.787C108.268 299.593 106.193 298.37 104.119 297.028C101.999 295.76 99.8315 294.36 97.6334 293.019C95.4818 291.604 93.2373 290.174 91.0238 288.773C88.7948 287.329 86.5658 285.943 84.4142 284.469C82.2006 283.039 80.1109 281.654 78.0212 280.357C75.9316 278.912 73.9502 277.571 72.0463 276.318C70.1733 275.08 68.4241 273.856 66.7369 272.751C63.4708 270.51 60.7929 268.653 58.8425 267.297C56.9386 265.985 55.8705 265.218 55.8705 265.218C55.8705 265.218 52.5734 264.496 49.2918 263.626C46.0257 262.83 42.7751 262.034 42.7751 262.034L48.3476 250.345C48.3476 250.345 50.5302 253.426 52.6818 256.507C54.9108 259.587 57.1398 262.609 57.1398 262.609C57.1398 262.609 58.1614 263.376 60.0189 264.717C61.861 265.999 64.5079 267.813 67.7121 270.083C69.291 271.173 71.0246 272.353 72.8822 273.576C74.7087 274.814 76.6591 276.185 78.6714 277.482C80.6837 278.883 82.7579 280.268 84.894 281.639C87.0302 283.054 89.1663 284.484 91.3488 285.884C93.485 287.314 95.6676 288.685 97.7882 290.085C99.9398 291.427 102.06 292.798 104.119 294.095C106.162 295.392 108.144 296.63 110.001 297.78C111.905 298.974 113.639 300.094 115.326 301.082C118.639 303.116 121.379 304.811 123.267 305.961C125.233 307.125 126.363 307.774 126.363 307.774L135.031 308.496C135.031 308.496 134.443 309.838 133.607 311.901C132.756 313.95 131.61 316.663 130.511 319.419C129.397 322.19 128.437 324.947 127.648 327.025C126.889 329.103 126.425 330.489 126.425 330.489C126.425 330.489 122.772 330.003 117.385 329.236C114.661 328.868 111.503 328.44 108.128 327.983C104.676 327.585 101.07 327.114 97.4786 326.686C93.841 326.244 90.2034 325.831 86.7825 325.463C83.3925 325.079 80.1729 324.799 77.4021 324.446C71.9534 323.959 68.2848 323.576 68.2848 323.576C68.2848 323.576 71.1175 325.035 75.2814 327.143C77.4021 328.175 79.8168 329.398 82.4019 330.725C85.0333 332.007 87.8196 333.393 90.6523 334.779C93.4385 336.091 96.2712 337.476 98.8872 338.744C101.565 339.967 104.011 341.132 106.131 342.164C110.388 344.095 113.206 345.377 113.206 345.377L121.626 345.215C121.626 345.215 121.084 346.881 120.388 349.313C119.676 351.774 118.793 355.061 117.911 358.363C117.122 361.665 116.239 365.026 115.713 367.502C115.171 369.979 114.831 371.645 114.831 371.645L107.029 367.62C107.029 367.62 105.76 367.561 103.407 367.502C101.178 367.429 97.8966 367.399 94.0113 367.281C92.0609 367.237 89.9248 367.222 87.6803 367.178C85.4203 367.178 83.0675 367.149 80.6218 367.105C78.176 367.149 75.622 367.09 73.0524 367.119C70.4829 367.09 67.8669 367.119 65.2045 367.105C62.6349 367.134 59.988 367.208 57.4184 367.222C54.8644 367.237 52.3103 367.326 49.8646 367.326C47.4034 367.385 45.0041 367.444 42.7751 367.517C40.5151 367.576 38.3635 367.635 36.4131 367.724C32.4814 367.797 29.1689 367.974 26.9244 368.018C24.587 368.166 23.3177 368.166 23.3177 368.166C23.3177 368.166 19.773 368.859 16.2902 369.522C12.7919 370.2 9.29357 370.922 9.29357 370.922ZM83.5938 244.95C85.9621 240.734 88.7793 237.418 92.0145 235.074C95.2961 232.73 98.9646 231.241 103.051 230.725C105.094 230.475 107.231 230.49 109.429 230.696C111.611 230.902 113.809 231.374 116.147 232.023C118.484 232.671 120.899 233.6 123.329 234.735C125.852 235.84 128.375 237.226 131.038 238.744C131.038 238.744 129.877 240.439 128.313 242.99C126.703 245.554 124.583 248.974 122.447 252.468C120.403 255.887 118.391 259.41 116.967 262.049C115.512 264.688 114.552 266.456 114.552 266.456C116.75 267.518 119.49 268.682 122.756 269.832C126.069 270.938 129.381 271.704 132.663 272.131C135.96 272.529 139.009 272.412 141.827 271.748C144.721 271.041 146.873 269.405 148.359 266.81C149.334 265.292 149.922 263.449 150.232 261.297C150.603 259.042 150.278 256.477 149.396 253.558L150.479 251.863C152.275 254.266 153.42 256.801 153.962 259.425C154.427 262.034 154.535 264.54 154.318 267.002C154.055 269.331 153.513 271.616 152.662 273.812C151.888 275.935 151.099 277.807 150.185 279.384C148.699 281.978 146.703 284.204 144.025 286.091C141.393 287.889 138.096 289.172 134.226 289.938C132.229 290.321 130.233 290.483 127.973 290.542C125.821 290.572 123.484 290.454 121.007 290.174C118.437 289.864 115.868 289.289 113.144 288.479C110.373 287.712 107.463 286.68 104.537 285.413C101.643 284.233 99.0885 282.966 96.6892 281.683C94.3673 280.416 92.2931 278.971 90.3582 277.556C88.4852 276.126 86.8444 274.578 85.4668 273.045C84.0891 271.468 82.9591 269.832 82.0459 268.152C80.2503 264.702 79.4763 261.047 79.6775 257.185C79.9716 253.234 81.2409 249.166 83.5938 244.95ZM117.664 255.961C114.088 254.089 110.543 252.364 107.045 250.581C103.516 248.871 100.327 247.471 97.4322 246.424C94.4602 245.23 91.968 244.567 89.77 244.434C87.6803 244.125 86.2407 244.596 85.5906 245.908C84.894 247.058 85.2655 248.488 86.5967 250.08C88.0208 251.568 90.0796 253.19 92.6646 254.944C95.3115 256.654 98.3764 258.452 101.859 260.236C105.373 261.961 108.902 263.67 112.432 265.395L117.664 255.961ZM100.126 186.077C103.005 188.052 105.218 190.292 106.642 192.68C108.237 195.053 109.104 197.441 109.444 199.947C109.8 202.335 109.599 204.709 108.933 207.17C108.268 209.455 107.215 211.637 105.837 213.715L103.949 212.536C105.373 210.487 106.162 208.114 106.224 205.416C106.302 202.704 105.621 200.036 104.32 197.353C103.98 198.798 103.237 200.301 102.091 202.011C99.9863 204.989 97.4786 206.861 94.5221 207.642C91.5656 208.335 88.7174 207.863 85.8847 206.138C82.9901 204.428 81.3493 202.085 80.9313 199.255C80.5289 196.306 81.4112 193.196 83.5783 190.027C85.8383 186.976 88.5162 185.089 91.5191 184.426C94.5376 183.689 97.3703 184.204 100.126 186.077ZM176.376 237.889C176.376 237.889 174.256 235.236 172.166 232.568C170.076 229.915 168.002 227.202 168.002 227.202C168.002 227.202 166.222 225.994 163.637 224.166C161.083 222.338 157.646 219.935 154.163 217.488C150.743 215.056 147.275 212.654 144.69 210.826C142.074 208.998 140.402 207.775 140.402 207.775L129.335 204.443C129.335 204.443 129.536 202.601 129.83 199.785C130.264 196.999 130.774 193.27 131.332 189.511C131.889 185.738 132.57 181.993 133.096 179.178C133.607 176.333 133.994 174.461 133.994 174.461L143.374 181.861C142.229 178.323 141.796 174.653 142.059 170.894C142.368 166.929 143.746 163.627 146.223 161.047C147.476 159.721 148.699 158.674 149.922 157.937C149.922 157.937 150.65 159.529 151.702 161.814C152.817 164.113 154.272 167.209 155.789 170.26C157.259 173.297 158.776 176.348 159.937 178.574C161.098 180.844 161.903 182.332 161.903 182.332C158.157 179.458 155.139 177.778 152.848 177.35C150.557 176.834 148.808 177.306 147.384 178.78C146.594 179.738 145.929 181.256 145.294 183.379C145.294 183.379 147.538 185.148 150.851 187.772C152.523 189.098 154.473 190.646 156.547 192.282C158.683 193.933 160.897 195.702 163.11 197.441C165.339 199.21 167.568 200.95 169.643 202.615C171.732 204.252 173.698 205.785 175.355 207.111C178.698 209.735 180.927 211.489 180.927 211.489C180.927 211.489 184.162 212.757 187.382 214.069C190.617 215.351 193.79 216.663 193.79 216.663C193.79 216.663 192.676 217.96 190.958 219.876C189.27 221.837 187.072 224.476 184.781 227.099C182.692 229.767 180.571 232.465 178.884 234.47C177.382 236.504 176.376 237.889 176.376 237.889ZM167.754 138.922C171.361 135.664 175.138 133.379 178.977 132.082C182.862 130.814 186.825 130.593 190.865 131.257C192.908 131.684 194.889 132.288 196.933 133.143C198.914 134.013 200.911 135.104 202.892 136.431C204.873 137.772 206.824 139.349 208.836 141.147C210.802 142.946 212.799 145.01 214.78 147.265C214.78 147.265 213.186 148.547 210.786 150.478C208.418 152.424 205.245 155.033 202.149 157.716C199.069 160.399 196.019 163.111 193.713 165.16C191.499 167.238 190.013 168.639 190.013 168.639C191.732 170.304 193.914 172.176 196.685 174.284C199.44 176.333 202.335 178.043 205.384 179.458C208.325 180.814 211.189 181.581 214.176 181.831C217.071 181.979 219.671 181.094 222.024 179.075C223.356 177.896 224.532 176.333 225.538 174.417C226.653 172.368 227.21 169.847 227.318 166.811L228.928 165.528C229.81 168.329 230.12 171.1 229.717 173.753C229.331 176.363 228.603 178.78 227.566 181.05C226.482 183.187 225.244 185.163 223.696 187.005C222.318 188.789 220.941 190.337 219.501 191.545C217.334 193.594 214.734 195.112 211.56 196.115C208.418 197.014 204.873 197.25 200.911 196.822C198.976 196.542 196.933 196.13 194.827 195.525C192.722 194.891 190.54 194.11 188.295 193.093C186.051 192.032 183.729 190.72 181.36 189.157C178.992 187.565 176.655 185.737 174.178 183.659C171.887 181.64 169.875 179.694 168.048 177.778C166.268 175.802 164.689 173.886 163.405 171.955C162.089 170.009 161.005 168.093 160.2 166.206C159.442 164.305 158.9 162.418 158.637 160.516C158.002 156.713 158.498 152.999 159.984 149.387C161.485 145.776 164.101 142.268 167.754 138.922ZM196.437 159.632C193.666 156.802 190.896 154.031 188.125 151.333C185.323 148.636 182.707 146.41 180.339 144.523C177.924 142.474 175.772 141.103 173.776 140.278C171.841 139.393 170.324 139.482 169.24 140.44C168.234 141.398 168.11 142.798 168.9 144.729C169.767 146.587 171.129 148.709 173.048 151.171C174.937 153.603 177.289 156.183 179.967 158.925C182.769 161.637 185.555 164.334 188.342 167.017L196.437 159.632ZM227.55 123.164C225.12 120.039 223 116.899 221.188 113.774C219.315 110.649 217.799 107.524 216.576 104.399C215.337 101.216 214.424 98.1053 213.836 95.1129C213.263 92.1206 212.969 89.1578 213 86.3129C213.093 83.4237 213.48 80.623 214.238 77.9698C214.981 75.3165 216.034 72.7958 217.458 70.3194C218.913 67.902 220.724 65.6025 222.814 63.5388C224.934 61.5488 227.38 59.7505 230.089 58.188C232.999 56.4929 236.018 55.2989 239.051 54.6208C242.085 53.928 245.135 53.648 248.231 53.9722C251.311 54.2081 254.453 55.0335 257.534 56.3602C260.645 57.6868 263.787 59.5884 266.899 61.9763C266.899 61.9763 265.676 63.1408 263.865 64.8949C262.038 66.5901 259.685 68.9486 257.317 71.3218C254.995 73.695 252.689 76.024 250.986 77.8076C249.283 79.6502 248.153 80.8441 248.153 80.8441L244.206 71.3955C243.092 69.5382 241.729 67.902 240.042 66.4869C238.37 64.9981 236.652 63.9663 234.949 63.3177C233.216 62.4922 231.621 62.0942 230.151 62.0942C228.572 62.0353 227.442 62.3596 226.575 63.1408C224.733 65.1603 224.795 69.0518 226.823 74.9185C227.86 77.7929 229.284 80.9621 231.126 84.3966C232.101 86.1507 233.138 87.9343 234.299 89.8211C235.414 91.6489 236.652 93.5799 238.045 95.5994C239.392 97.6336 240.801 99.6088 242.178 101.481C243.556 103.338 244.887 105.063 246.28 106.773C247.673 108.497 249.02 110.089 250.351 111.593C251.713 113.096 253.029 114.541 254.376 115.882C257.054 118.521 259.763 120.894 262.286 122.958C264.793 124.992 267.239 126.746 269.592 128.22C271.867 129.635 274.05 130.77 276.155 131.625C278.214 132.524 280.211 133.114 282.053 133.423C285.814 134.057 288.987 133.659 291.572 132.333C292.408 131.846 293.213 131.109 293.941 130.166C294.544 129.075 295.055 127.955 295.473 126.805C295.907 125.523 296.185 124.24 296.541 123.061C296.866 121.734 297.114 120.585 297.362 119.641C297.362 119.641 295.04 118.211 291.572 116.089C289.792 115.042 287.718 113.819 285.551 112.521C283.337 111.269 280.969 109.912 278.57 108.556C276.14 107.244 273.725 105.918 271.449 104.68C269.189 103.486 267.022 102.351 265.18 101.407C261.481 99.5204 258.989 98.2822 258.989 98.2822C258.989 98.2822 260.382 97.4567 262.518 96.3217C264.623 95.1719 267.487 93.6389 270.35 92.0911C273.183 90.6024 276.093 89.143 278.26 88.0523C280.412 87.0057 281.913 86.2981 281.913 86.2981C281.913 86.2981 282.997 88.3176 284.622 91.3541C285.396 92.8871 286.356 94.6412 287.347 96.5575C288.415 98.4443 289.452 100.464 290.582 102.513C291.619 104.532 292.718 106.537 293.678 108.453C294.761 110.355 295.721 112.123 296.448 113.642C298.105 116.678 299.204 118.742 299.204 118.742C299.126 121.705 298.801 124.461 298.136 126.967C297.547 129.532 296.588 131.832 295.427 133.88C294.25 135.9 292.888 137.787 291.201 139.393C289.56 141.059 287.641 142.504 285.443 143.727C283.879 144.538 282.254 145.275 280.335 145.761C278.446 146.292 276.372 146.631 274.127 146.867C271.914 147.073 269.499 147.014 267.131 146.778C264.716 146.528 262.193 146.041 259.577 145.334C256.945 144.612 254.329 143.653 251.652 142.43C248.927 141.206 246.156 139.718 243.386 137.964C240.599 136.239 237.86 134.116 235.228 131.699C232.566 129.208 230.043 126.422 227.55 123.164ZM303.739 54.5029C308.352 52.7046 312.655 51.8791 316.834 52.0265C320.921 52.2181 324.729 53.3384 328.227 55.4168C329.899 56.4634 331.571 57.7163 333.088 59.1756C334.651 60.7086 336.106 62.4333 337.437 64.3495C338.753 66.2658 340.007 68.4327 341.183 70.8059C342.329 73.1791 343.381 75.7587 344.387 78.5594C344.387 78.5594 342.406 79.1932 339.419 80.1513C336.478 81.1537 332.546 82.5098 328.645 83.9102C324.744 85.34 320.859 86.814 317.949 87.9491C315.023 89.1136 313.135 89.8801 313.135 89.8801C314.048 92.0174 315.472 94.5675 317.16 97.4125C318.986 100.316 321.045 102.925 323.274 105.254C325.472 107.524 327.964 109.323 330.596 110.531C333.258 111.725 336.075 111.784 338.985 110.738C340.688 110.089 342.344 109.043 344.062 107.554C345.843 106.065 347.329 103.898 348.582 101.098L350.564 100.449C350.332 103.382 349.558 106.036 348.18 108.394C346.787 110.694 345.146 112.669 343.335 114.393C341.617 116.089 339.682 117.518 337.561 118.698C335.533 119.862 333.66 120.806 331.927 121.484C329.079 122.56 326.06 123.105 322.732 122.958C319.45 122.692 316.014 121.646 312.562 119.892C310.844 119.007 309.095 117.872 307.392 116.575C305.674 115.307 303.909 113.789 302.222 112.079C300.519 110.296 298.848 108.276 297.253 106.006C295.643 103.707 294.173 101.186 292.656 98.3706C291.34 95.7615 290.164 93.2262 289.235 90.7792C288.275 88.3323 287.563 86.0181 287.052 83.748C286.619 81.4927 286.371 79.3701 286.325 77.2917C286.309 75.228 286.542 73.3118 287.006 71.4692C287.904 67.7104 289.715 64.4085 292.532 61.5488C295.303 58.6745 299.064 56.316 303.739 54.5029ZM322.515 83.6891C321.076 80.1366 319.528 76.5399 317.98 73.1201C316.417 69.6266 314.884 66.6196 313.352 64.0547C311.85 61.313 310.364 59.2935 308.863 57.8637C307.392 56.3307 305.968 55.859 304.59 56.4634C303.29 56.9498 302.625 58.2028 302.625 60.3106C302.656 62.3006 303.166 64.777 304.002 67.7104C304.838 70.6585 306.03 73.8572 307.47 77.3801C309.079 80.8589 310.643 84.3229 312.191 87.8017L322.515 83.6891ZM335.735 46.263C335.735 46.263 336.957 44.5088 338.877 41.9145C340.812 39.3202 343.428 35.8709 346.137 32.4364C348.846 29.0313 351.632 25.6263 353.752 23.0909C355.888 20.5703 357.344 18.8899 357.344 18.8899C357.344 18.8899 358.535 23.3268 359.743 27.7931C360.935 32.2005 362.142 36.6816 362.142 36.6816C362.142 36.6816 365.842 35.8119 369.557 34.957C373.256 34.102 376.987 33.3355 376.987 33.3355L377.467 35.3992C377.467 35.3992 373.752 36.2099 370.052 37.0207C366.383 37.8903 362.699 38.7453 362.699 38.7453C362.699 38.7453 363.489 41.6492 364.665 46.0418C365.253 48.2382 365.935 50.7735 366.647 53.4416C367.421 56.2275 368.179 59.1314 368.999 62.0648C369.773 64.9834 370.563 67.8725 371.29 70.57C372.033 73.3412 372.73 75.8913 373.303 78.0287C374.495 82.4361 375.269 85.3253 375.269 85.3253C375.826 87.3594 376.491 89.0546 377.327 90.3812C378.21 91.7521 379.045 92.7987 379.912 93.5505C380.872 94.258 381.832 94.8181 382.745 95.0835C383.674 95.3635 384.51 95.4225 385.237 95.2456C386.212 95.0245 386.94 94.5381 387.389 93.7421C387.961 92.8577 388.085 91.7668 387.776 90.4844L389.819 90.057C390.299 92.1501 390.283 94.1401 389.788 95.9679C389.386 97.7957 388.55 99.4614 387.327 100.876C386.197 102.321 384.742 103.53 382.962 104.532C381.182 105.505 379.231 106.316 377.049 106.861C374.17 107.613 371.6 107.657 369.324 107.274C367.018 106.773 364.897 105.785 363.024 104.34C361.198 102.822 359.557 100.95 358.056 98.6654C356.755 96.3217 355.625 93.7716 354.697 90.9856C354.697 90.9856 353.691 88.0965 352.282 83.7628C351.585 81.6696 350.734 79.1195 349.852 76.481C348.954 73.7835 348.01 70.9238 347.05 68.0494C346.106 65.1898 345.084 62.2711 344.248 59.6326C343.319 56.9351 342.499 54.3702 341.802 52.2771C340.363 47.9729 339.419 45.1132 339.419 45.1132L335.735 46.263ZM377.668 35.3108C377.668 35.3108 379.107 33.7188 381.29 31.3456C383.488 28.9429 386.491 25.7737 389.509 22.5897C392.59 19.4647 395.717 16.3545 398.069 14.0108C400.469 11.6965 402.109 10.1782 402.109 10.1782C402.109 10.1782 402.837 14.733 403.564 19.2731C404.292 23.8279 405.02 28.368 405.02 28.368C405.02 28.368 408.781 27.8226 412.573 27.3362C416.335 26.8202 420.112 26.3633 420.112 26.3633L420.39 28.5007C420.39 28.5007 416.598 28.9281 412.852 29.3998C409.075 29.9157 405.329 30.4317 405.329 30.4317C405.329 30.4317 405.84 33.4387 406.552 37.8904C406.862 40.0867 407.31 42.681 407.744 45.4965C408.193 48.2824 408.688 51.26 409.168 54.2376C409.648 57.1709 410.128 60.1927 410.561 62.9492C411.025 65.7646 411.428 68.3295 411.799 70.5995C412.511 75.0216 412.991 78.0287 412.991 78.0287C413.316 80.0629 413.827 81.817 414.477 83.1731C415.236 84.6619 415.932 85.7528 416.753 86.5782C417.635 87.4774 418.502 87.9933 419.415 88.3913C420.313 88.7745 421.118 88.9219 421.83 88.804C422.852 88.7008 423.626 88.2734 424.167 87.5069C424.771 86.6667 425.05 85.6201 424.879 84.3229L426.954 84.0428C427.217 86.1802 427.016 88.1997 426.303 89.9833C425.7 91.7669 424.678 93.2557 423.331 94.6265C422.062 95.9384 420.483 96.9997 418.61 97.8105C416.737 98.577 414.694 99.2108 412.465 99.5498C409.57 100.066 407.001 99.9331 404.772 99.2845C402.512 98.5327 400.515 97.3682 398.766 95.7026C397.125 94.0664 395.701 92.0469 394.509 89.6737C393.41 87.1531 392.497 84.485 391.893 81.6106C391.893 81.6106 391.259 78.7068 390.283 74.2699C389.803 72.0883 389.2 69.494 388.627 66.767C388.008 63.9663 387.358 61.0624 386.708 58.0996C386.058 55.181 385.407 52.2329 384.788 49.4174C384.2 46.7199 383.627 44.1403 383.132 41.8998C382.172 37.5218 381.507 34.559 381.507 34.559L377.668 35.3108ZM432.433 83.4974C432.433 83.4974 432.232 81.4632 431.876 78.3825C431.566 75.3607 431.102 71.2923 430.684 67.2387C430.235 63.1703 429.802 59.1019 429.461 56.0506C429.136 52.9846 428.919 50.921 428.919 50.921L424.059 40.9269C424.059 40.9269 425.638 39.8361 428.022 38.1852C430.452 36.5637 433.703 34.3674 436.984 32.289C440.266 30.1958 443.625 28.0879 446.21 26.5844C448.748 25.0661 450.482 24.049 450.482 24.049C450.482 24.049 450.652 27.6605 450.915 33.0702C451.055 35.8119 451.194 38.9812 451.38 42.3715C451.55 45.7765 451.736 49.4027 451.922 53.0289C452.092 56.596 452.278 60.2517 452.417 63.642C452.587 67.0176 452.773 70.231 452.881 72.9285C453.175 78.3825 453.346 81.9939 453.346 81.9939C453.346 81.9939 454.553 85.1336 455.729 88.2733C456.859 91.3689 458.02 94.4791 458.02 94.4791C458.02 94.4791 456.256 94.597 453.609 94.7002C450.962 94.8771 447.386 95.0393 443.888 95.3193C440.343 95.5846 436.829 95.85 434.198 96.13C431.551 96.3217 429.802 96.587 429.802 96.587C429.802 96.587 430.421 93.2409 431.087 90.0422C431.752 86.7551 432.433 83.4974 432.433 83.4974ZM423.889 12.3009C423.548 9.26432 424.523 6.4931 426.938 4.09041C429.337 1.70245 432.418 0.361062 436.21 0.0367718C439.987 -0.199076 443.253 0.700098 445.993 2.71954C448.671 4.72424 450.157 7.33332 450.281 10.3993C450.451 13.5538 449.306 16.2513 446.906 18.5213C444.523 20.8503 441.566 22.118 437.959 22.3539C434.368 22.6192 431.21 21.7643 428.532 19.8333C425.793 17.9465 424.229 15.4406 423.889 12.3009ZM461.147 94.3907C461.147 94.3907 462.091 91.2657 463.067 88.0523C463.995 84.8388 465.017 81.6401 465.017 81.6401C465.017 81.6401 464.97 79.606 464.924 76.5105C464.862 73.4739 464.8 69.3613 464.723 65.3077C464.661 61.2098 464.584 57.1267 464.537 54.0607C464.491 50.9504 464.429 48.9457 464.429 48.9457L460.512 38.5537C460.512 38.5537 462.2 37.5661 464.707 36.1215C467.292 34.7064 470.713 32.8196 474.181 30.9623C477.679 29.1935 481.208 27.3509 483.886 26.0685C486.549 24.7713 488.375 23.8721 488.375 23.8721L487.88 35.1928C490.155 32.0973 492.957 29.4293 496.3 27.2477C499.768 24.9335 503.39 23.9901 507.074 24.2849C509.674 24.4618 511.981 25.1841 513.993 26.378C516.083 27.513 517.755 29.3409 519.101 31.7878C520.448 34.0578 521.299 37.1386 521.671 40.8679C521.841 42.7105 521.857 44.7152 521.826 46.9263C521.733 49.1521 521.547 51.6285 521.206 54.2376C521.206 54.2376 520.974 56.0654 520.587 58.9103C520.247 61.711 519.736 65.4403 519.256 69.1697C518.792 72.9138 518.296 76.6579 517.925 79.4733C517.569 82.274 517.337 84.1608 517.337 84.1608C517.337 84.1608 517.956 87.4774 518.56 90.735C519.086 94.0664 519.69 97.3977 519.69 97.3977C519.69 97.3977 517.925 97.2208 515.278 96.8671C512.662 96.6017 509.148 96.189 505.619 95.8647C502.074 95.5257 498.576 95.2456 495.929 95.1424C493.282 94.9803 491.502 94.8771 491.502 94.8771C491.502 94.8771 492.709 91.7521 493.917 88.5977C495.186 85.5021 496.44 82.3772 496.44 82.3772C496.44 82.3772 496.579 80.5493 496.78 77.7044C496.966 74.948 497.229 71.2333 497.492 67.504C497.756 63.7304 498.019 60.0306 498.22 57.2594C498.421 54.4292 498.545 52.5719 498.545 52.5719C498.746 49.8302 498.762 47.4422 498.622 45.3933C498.468 43.4475 498.158 41.8555 497.663 40.6173C496.78 38.2441 495.186 36.9617 492.864 36.8438C491.409 36.7848 489.706 37.1238 487.756 37.8904C487.756 37.8904 487.679 40.6174 487.477 44.7152C487.415 46.7936 487.307 49.1963 487.214 51.8054C487.09 54.385 486.997 57.1414 486.858 59.8242C486.734 62.5807 486.641 65.3814 486.549 67.961C486.409 70.5111 486.347 72.9432 486.239 74.9922C486.084 79.1048 485.96 81.8612 485.96 81.8612C485.96 81.8612 486.874 85.1042 487.771 88.3028C488.638 91.5457 489.474 94.7444 489.474 94.7444C489.474 94.7444 487.71 94.7002 485.063 94.5676C482.416 94.5086 478.886 94.3759 475.342 94.3612C471.797 94.3464 468.252 94.3022 465.59 94.3317C462.958 94.3759 461.147 94.3907 461.147 94.3907ZM517.817 119.612C518.08 117.725 518.668 116.074 519.55 114.644C520.556 113.317 521.733 112.182 523.095 111.327C524.442 110.458 525.897 109.868 527.46 109.544C529.085 109.19 530.711 109.19 532.259 109.441C530.664 108.777 529.178 108.011 527.739 107.112C526.253 106.227 525.03 105.21 523.962 104.016C522.971 102.793 522.259 101.407 521.779 99.8594C521.284 98.3559 521.175 96.5723 521.454 94.4938C522.042 90.6024 523.73 87.5216 526.609 85.34C529.627 83.0995 533.048 82.2887 536.856 82.9226L537.831 83.07C536.562 81.6106 535.478 79.9302 534.581 78.0729C533.652 76.2156 532.94 74.152 532.382 71.8819C531.872 69.6119 531.609 67.1945 531.562 64.6296C531.516 62.0795 531.732 59.382 532.181 56.5223C532.537 54.326 533.002 52.2771 533.59 50.3166C534.194 48.3709 534.921 46.5725 535.772 44.8626C537.46 41.5018 539.58 38.7453 542.134 36.5342C544.688 34.3232 547.583 32.8638 550.787 31.9794C554.146 31.1097 557.706 31.0802 561.437 31.8025C564.935 32.5396 567.923 33.7925 570.508 35.6203C573 37.4776 575.059 39.8656 576.638 42.8284C576.638 42.8284 580.12 41.944 583.665 41.0596C587.194 40.2193 590.755 39.4381 590.755 39.4381C590.755 39.4381 589.857 42.4452 588.928 45.5554C588.015 48.6214 587.101 51.6875 587.101 51.6875L578.727 49.5206C579.207 51.8791 579.377 54.3555 579.176 57.053C578.975 59.7652 578.449 62.6102 577.613 65.6025C577.009 67.7693 576.282 69.7593 575.446 71.6019C574.641 73.5476 573.712 75.3165 572.706 76.9232C570.724 80.1808 568.449 82.7899 565.941 84.7946C563.434 86.8288 560.756 88.2439 557.861 88.9957C554.936 89.8359 551.933 89.939 548.744 89.2757C546.639 88.863 544.719 88.1554 543.017 87.2268C541.298 86.3571 539.766 85.1631 538.435 83.748C537.398 84.6325 536.763 85.6348 536.577 86.7403C536.345 87.9638 536.546 88.9662 537.15 89.6884C537.862 90.5139 538.713 91.192 539.72 91.7669C540.772 92.2091 541.794 92.5923 542.862 92.9019C544.023 93.1819 544.983 93.3588 545.679 93.5062C548.636 94.1401 551.67 95.1867 554.703 96.6312C557.753 97.9873 560.353 99.8004 562.443 102.056C564.672 104.267 566.205 106.861 567.118 109.809C568 112.802 567.892 116.118 566.808 119.715C565.663 123.518 563.852 126.554 561.391 128.677C558.976 131.05 556.282 132.716 553.248 133.851C550.307 135.104 547.196 135.738 543.899 135.929C540.71 136.136 537.692 135.915 534.844 135.384C533.095 135.06 531.144 134.514 528.977 133.733C526.887 132.996 524.999 132.053 523.219 130.8C521.454 129.591 519.984 128.058 518.869 126.186C517.786 124.417 517.43 122.176 517.817 119.612ZM560.926 84.7504C562.381 85.1041 563.418 84.7504 564.007 83.748C564.579 82.7162 564.92 81.8465 565.09 81.2569C565.554 79.5028 565.787 77.6602 565.756 75.685C565.895 73.7982 565.818 71.8672 565.601 69.9657C565.384 67.9757 565.028 66.0742 564.548 64.379C564.177 62.507 563.697 60.8413 563.109 59.3967C562.536 57.8932 561.669 56.0359 560.524 53.7659C559.487 51.4074 558.171 49.1079 556.638 46.8821C555.23 44.612 553.666 42.6368 551.979 40.9122C550.276 39.217 548.636 38.2146 547.072 37.9346C545.602 37.684 544.611 38.1115 544.1 39.158C543.59 40.1014 543.311 40.8384 543.218 41.3249C542.924 42.9906 543.017 45.1427 543.435 47.9286C543.884 50.6261 544.534 53.5153 545.4 56.6108C546.329 59.721 547.382 62.9345 548.543 66.1479C549.766 69.3613 551.05 72.2947 552.351 74.9479C553.744 77.5718 555.152 79.7976 556.561 81.6401C558.109 83.4237 559.564 84.4703 560.926 84.7504ZM547.274 130.829C550.88 131.684 553.62 131.787 555.508 131.183C557.459 130.593 558.774 129.311 559.425 127.35C559.935 125.537 559.843 123.931 559.161 122.589C558.449 121.322 557.443 120.201 556.097 119.155C554.765 118.226 553.295 117.401 551.701 116.678C550.153 116.044 548.821 115.44 547.722 114.968C545.044 113.833 542.645 112.89 540.509 112.05C538.419 111.401 536.175 110.708 533.745 109.986C532.8 110.782 532.042 111.563 531.454 112.345C530.958 113.111 530.602 114.069 530.417 115.16C529.999 117.297 530.277 119.228 531.16 120.909C532.027 122.545 533.28 124.034 534.921 125.257C536.5 126.643 538.373 127.763 540.54 128.707C542.785 129.65 545.029 130.357 547.274 130.829ZM625.382 20.2018C625.382 20.2018 627.208 20.7472 630.01 21.7053C632.734 22.7076 636.387 24.0048 640.056 25.2872C643.662 26.6876 647.285 28.0437 650.009 29.105C652.687 30.2106 654.482 30.9328 654.482 30.9328C654.482 30.9328 654.266 32.3627 653.817 34.9865C653.399 37.5808 652.78 41.2217 652.021 45.6733C651.634 47.8844 651.17 50.2724 650.675 52.7783C650.257 55.3284 649.761 57.9522 649.22 60.7381C648.693 63.4798 648.12 66.3248 647.532 69.1697C646.96 72.0441 646.325 74.9479 645.721 77.8666C645.071 80.7852 644.436 83.7186 643.786 86.5782C643.136 89.4231 642.486 92.2238 641.851 94.9213C641.217 97.6483 640.582 100.257 639.978 102.734C639.344 105.225 638.756 107.583 638.167 109.721C637.099 114.054 636.171 117.592 635.49 120.157C634.824 122.619 634.421 124.093 634.421 124.093C634.421 124.093 635.319 122.899 636.883 120.806C638.508 118.698 640.752 115.72 643.508 112.197C644.885 110.443 646.387 108.527 647.966 106.493C649.591 104.429 651.263 102.336 653.012 100.154C654.761 97.9579 656.588 95.6878 658.445 93.4031C660.318 91.0888 662.222 88.7745 664.126 86.4308C666.03 84.1165 667.965 81.8465 669.869 79.5617C671.742 77.2917 673.63 75.0511 675.503 72.8843C677.345 70.7469 679.11 68.698 680.813 66.708C682.515 64.7475 684.11 62.8902 685.596 61.2393C688.599 57.8342 691.122 54.9746 692.855 53.0436C694.636 51.0241 695.657 49.8891 695.657 49.8891C695.657 49.8891 697.375 50.862 699.976 52.2329C702.576 53.6332 705.997 55.52 709.418 57.4215C712.839 59.3525 716.245 61.254 718.752 62.787C721.275 64.3348 722.962 65.3371 722.962 65.3371C722.962 65.3371 720.052 67.3713 717.173 69.3908C714.31 71.4397 711.477 73.5181 711.477 73.5181C711.477 73.5181 708.954 77.3949 705.115 83.2911C703.227 86.2097 700.998 89.6295 698.629 93.2851C697.453 95.113 696.214 96.9997 694.945 98.9602C693.722 100.876 692.422 102.852 691.168 104.753C689.883 106.758 688.614 108.718 687.376 110.635C686.106 112.551 684.884 114.423 683.707 116.266C681.308 119.965 679.11 123.326 677.175 126.304C673.367 132.171 670.828 136.091 670.828 136.091C670.828 136.091 669.946 139.305 669.002 142.533C668.089 145.688 667.191 148.916 667.191 148.916C667.191 148.916 665.643 148.046 663.383 146.69C661.108 145.29 658.058 143.535 654.978 141.84C651.913 140.101 648.786 138.421 646.433 137.197C644.065 136.003 642.548 135.119 642.548 135.119C642.548 135.119 645.009 132.863 647.532 130.549C650.071 128.235 652.64 125.921 652.64 125.921C652.64 125.921 654.962 121.823 658.445 115.779C659.312 114.246 660.256 112.61 661.262 110.871C662.269 109.116 663.352 107.244 664.42 105.372C665.504 103.471 666.634 101.51 667.779 99.5056C668.94 97.4862 670.101 95.4667 671.262 93.462C672.423 91.4278 673.599 89.3936 674.745 87.4037C675.875 85.3547 677.02 83.3795 678.104 81.537C679.172 79.6207 680.224 77.7634 681.246 76.0387C682.252 74.2994 683.181 72.5895 684.063 71.1302C687.562 65.0129 689.883 60.9592 689.883 60.9592C689.883 60.9592 688.955 62.0205 687.283 63.8484C685.658 65.7204 683.336 68.359 680.534 71.5576C679.125 73.1496 677.639 74.8743 676.03 76.6873C674.466 78.5299 672.825 80.4756 671.092 82.5098C669.389 84.4703 667.624 86.6077 665.86 88.7156C664.08 90.8529 662.284 93.0051 660.504 95.1572C658.708 97.3388 656.913 99.4761 655.164 101.672C653.445 103.825 651.743 105.888 650.102 107.937C648.446 110.016 646.867 112.05 645.365 113.937C643.895 115.823 642.486 117.622 641.186 119.273C638.632 122.589 636.496 125.346 635.01 127.277C633.524 129.237 632.688 130.387 632.688 130.387C632.688 130.387 627.951 128.132 623.199 126.024C618.385 123.945 613.571 122.014 613.571 122.014C613.571 122.014 613.865 120.673 614.345 118.373C614.84 116.059 615.537 112.757 616.342 108.807C616.744 106.802 617.162 104.665 617.611 102.395C618.044 100.125 618.493 97.722 618.958 95.2309C619.391 92.7103 619.871 90.1454 620.335 87.5216C620.8 84.8683 621.249 82.215 621.682 79.5912C622.115 76.9084 622.564 74.2109 622.982 71.5871C623.385 68.9781 623.787 66.3395 624.143 63.8631C624.499 61.3425 624.855 58.9103 625.165 56.596C625.474 54.2965 625.784 52.1002 626.016 50.066C626.573 46.0566 626.991 42.6957 627.27 40.3225C627.533 37.9641 627.688 36.5932 627.688 36.5932C627.688 36.5932 626.094 40.7942 623.663 47.1032C622.456 50.2576 621.032 53.9428 619.5 57.8637C618.756 59.8537 617.967 61.8879 617.162 63.9368C616.388 66.0005 615.552 68.1084 614.732 70.231C613.958 72.3094 613.137 74.432 612.317 76.4515C611.543 78.5741 610.769 80.6083 609.995 82.5688C608.463 86.475 607.07 90.1749 605.847 93.3146C603.432 99.6383 601.822 103.825 601.822 103.825C601.822 103.825 601.59 107.112 601.358 110.487C601.095 113.73 600.831 117.106 600.831 117.106L591.095 113.686C591.095 113.686 593.154 110.959 595.228 108.35C597.318 105.667 599.438 103.014 599.438 103.014C599.438 103.014 601.079 98.7096 603.556 92.2238C604.779 88.9809 606.203 85.1484 607.751 81.1095C608.525 79.09 609.314 76.9969 610.135 74.8448C610.939 72.7516 611.775 70.5995 612.596 68.4326C613.416 66.2216 614.221 64.0695 615.041 61.9321C615.862 59.8242 616.651 57.7311 617.441 55.6821C618.973 51.6433 620.397 47.8402 621.651 44.612C624.081 38.0967 625.722 33.7778 625.722 33.7778C625.722 33.7778 625.66 30.4169 625.583 26.9676C625.505 23.6216 625.382 20.2018 625.382 20.2018ZM676.262 138.656C677.701 136.534 679.481 134.809 681.494 133.512C683.614 132.082 685.89 131.065 688.258 130.461C690.75 129.753 693.32 129.444 696.013 129.488C698.722 129.517 701.431 129.974 704.109 130.755C704.109 130.755 707.793 131.802 711.461 132.849C715.161 133.998 718.876 135.207 718.876 135.207C718.876 135.207 719.836 134.013 721.291 132.215C722.73 130.461 724.681 128.043 726.6 125.685C728.52 123.312 730.47 120.909 731.91 119.14C733.365 117.327 734.309 116.162 734.309 116.162C735.532 114.674 735.919 113.229 735.547 111.902C735.16 110.502 734.433 109.485 733.395 108.748C732.111 107.76 730.671 107.51 729.092 107.79C727.684 108.085 726.105 108.777 724.402 109.971C722.746 111.165 720.997 112.698 719.17 114.511C717.436 116.516 715.687 118.639 713.985 120.879C713.985 120.879 711.787 116.339 709.573 111.755C707.22 107.244 704.836 102.734 704.836 102.734C707.576 101.348 710.362 100.626 713.319 100.464C716.26 100.272 719.139 100.567 721.894 101.289C724.789 101.938 727.622 103.029 730.3 104.429C733.086 105.829 735.733 107.421 738.148 109.131C740.547 110.929 742.668 113.037 744.494 115.484C746.414 117.931 747.621 120.702 747.961 123.842C748.426 126.952 747.961 130.313 746.584 134.057C745.918 135.944 744.912 137.89 743.596 139.865C742.265 141.914 740.609 144.022 738.627 146.203C738.627 146.203 737.358 147.604 735.423 149.726C733.442 151.908 730.872 154.738 728.272 157.598C725.702 160.413 723.102 163.288 721.151 165.44C719.201 167.577 717.916 168.992 717.916 168.992C717.916 168.992 716.492 172.088 715.053 175.169C713.613 178.19 712.143 181.212 712.143 181.212C712.143 181.212 711.013 180.328 709.279 178.883C707.545 177.512 705.254 175.596 702.917 173.753C700.579 171.926 698.211 170.113 696.416 168.756C694.636 167.43 693.428 166.575 693.428 166.575C693.428 166.575 695.363 164.157 697.283 161.814C699.233 159.426 701.152 157.038 701.152 157.038C697.298 158.63 693.568 159.721 689.914 160.31C686.354 160.841 682.995 160.001 679.76 157.863C678.599 157.038 677.485 156.05 676.417 154.753C675.38 153.471 674.528 152.041 673.955 150.449C673.414 148.872 673.274 147.103 673.553 145.098C673.893 143.02 674.745 140.912 676.262 138.656ZM695.549 155.092C696.447 155.696 697.484 156.035 698.691 155.962C700.053 155.873 701.322 155.682 702.545 155.343C702.545 155.343 706.26 150.758 710.022 146.115C713.768 141.501 717.498 136.887 717.498 136.887C715.502 136.342 713.567 136.268 711.616 136.534C709.697 136.784 707.793 137.344 705.92 138.126C704.186 138.966 702.515 140.086 700.967 141.324C699.481 142.636 698.149 144.051 696.988 145.584C696.57 146.115 696.091 146.823 695.518 147.663C695.115 148.532 694.698 149.461 694.357 150.36C694.125 151.274 694.063 152.188 694.187 153.058C694.372 153.869 694.837 154.547 695.549 155.092ZM714.464 183.232C714.464 183.232 717.452 181.492 720.455 179.841C723.458 178.117 726.492 176.495 726.492 176.495C726.492 176.495 727.947 174.977 730.114 172.722C732.327 170.452 735.206 167.43 738.132 164.423C741.042 161.416 743.921 158.438 746.119 156.183C748.302 153.898 749.741 152.439 749.741 152.439L754.432 142.312C754.432 142.312 756.32 142.681 759.23 143.285C762.094 143.992 765.948 144.862 769.787 145.835C773.626 146.808 777.48 147.825 780.421 148.577C783.316 149.387 785.204 149.962 785.204 149.962L776.505 158.011C780.282 157.347 784.183 157.259 788.13 157.937C792.185 158.718 795.467 160.384 797.944 162.949C799.136 164.29 800.095 165.587 800.715 166.84C800.715 166.84 799.012 167.341 796.489 168.108C793.966 168.919 790.607 169.98 787.279 171.041C783.935 172.147 780.592 173.238 778.13 174.063C775.623 174.962 774.028 175.508 774.028 175.508C777.356 172.353 779.415 169.67 780.158 167.533C780.979 165.455 780.684 163.641 779.229 162.212C778.363 161.342 776.83 160.517 774.663 159.721C774.663 159.721 772.589 161.637 769.493 164.496C767.914 165.956 766.118 167.607 764.184 169.42C762.233 171.218 760.159 173.134 758.1 175.036C756.026 176.967 753.952 178.883 752.001 180.681C750.067 182.48 748.255 184.146 746.692 185.605C743.581 188.479 741.538 190.366 741.538 190.366C741.538 190.366 739.835 193.344 738.163 196.247C736.476 199.137 734.742 202.026 734.742 202.026C734.742 202.026 733.519 200.817 731.693 198.974C729.835 197.161 727.312 194.818 724.789 192.444C722.235 190.115 719.634 187.801 717.746 186.047C715.765 184.381 714.464 183.232 714.464 183.232ZM743.596 211.298C743.596 211.298 746.8 209.941 750.02 208.556C753.193 207.229 756.444 205.858 756.444 205.858C756.444 205.858 758.023 204.546 760.453 202.512C762.899 200.537 766.15 197.869 769.447 195.171C772.651 192.518 775.886 189.85 778.332 187.845C780.793 185.811 782.387 184.514 782.387 184.514L788.238 174.962C788.238 174.962 790.096 175.537 792.913 176.466C795.637 177.453 799.368 178.765 803.114 180.077C806.798 181.507 810.513 182.907 813.268 184.028C816.054 185.163 817.912 185.929 817.912 185.929L808.268 193.005C812.138 192.651 816.024 193.078 819.816 194.199C823.794 195.348 826.874 197.368 828.995 200.227C830.048 201.642 830.822 202.999 831.301 204.34C831.301 204.34 829.552 204.65 826.952 205.151C824.382 205.637 820.884 206.374 817.432 207.082C813.965 207.789 810.59 208.526 808.021 209.101C805.42 209.706 803.718 210.104 803.718 210.104C807.433 207.273 809.785 204.841 810.807 202.763C811.86 200.817 811.782 199.004 810.497 197.412C809.739 196.439 808.33 195.481 806.256 194.479C806.256 194.479 803.981 196.115 800.575 198.65C798.873 199.888 796.829 201.392 794.678 202.954C792.557 204.532 790.251 206.227 787.96 207.834C785.684 209.588 783.424 211.239 781.242 212.845C779.137 214.393 777.109 215.882 775.406 217.135C771.97 219.641 769.694 221.336 769.694 221.336C769.694 221.336 767.636 224.063 765.639 226.79C763.58 229.502 761.552 232.185 761.552 232.185C761.552 232.185 760.453 230.858 758.843 228.853C757.203 226.804 755.004 224.21 752.791 221.586C750.546 218.963 748.271 216.383 746.537 214.467C744.788 212.536 743.596 211.298 743.596 211.298ZM782.619 238.317C782.619 238.317 784.399 237.167 787.046 235.442C789.693 233.718 793.269 231.403 796.798 229.119C800.343 226.819 803.872 224.52 806.535 222.78C809.197 221.056 810.993 219.891 810.993 219.891L817.912 211.062C817.912 211.062 819.677 211.858 822.339 213.096C825.001 214.334 828.515 216.029 832.045 217.783C835.574 219.567 839.103 221.38 841.719 222.78C844.366 224.122 846.084 225.154 846.084 225.154C846.084 225.154 842.834 227.04 837.942 229.841C835.527 231.197 832.695 232.819 829.583 234.646C826.534 236.401 823.283 238.228 820.017 240.145C816.735 242.002 813.485 243.874 810.451 245.643C807.371 247.397 804.523 249.033 802.077 250.448C797.216 253.249 793.919 255.136 793.919 255.136C793.919 255.136 791.597 257.597 789.26 260.074C786.954 262.535 784.539 265.027 784.539 265.027C784.539 265.027 783.641 263.567 782.294 261.371C780.932 259.219 779.059 256.374 777.155 253.514C775.236 250.684 773.285 247.869 771.784 245.79C770.282 243.712 769.276 242.326 769.276 242.326C769.276 242.326 772.558 241.28 775.948 240.263C779.245 239.304 782.619 238.317 782.619 238.317ZM844.273 197.324C846.951 195.569 849.985 195.039 853.328 195.923C856.672 196.808 859.381 198.753 861.44 201.79C863.452 204.782 864.21 207.981 863.684 211.253C863.065 214.481 861.362 216.928 858.607 218.52C855.759 220.142 852.771 220.407 849.505 219.537C846.223 218.638 843.608 216.707 841.704 213.877C839.753 211.003 839.041 207.951 839.506 204.782C840.016 201.525 841.564 199.063 844.273 197.324ZM865.062 256.772C867.213 261.061 868.39 265.145 868.467 269.065C868.529 272.972 867.631 276.627 865.665 280.106C864.659 281.831 863.436 283.437 861.981 285.015C860.511 286.562 858.808 288.037 856.889 289.422C854.923 290.837 852.756 292.149 850.372 293.402C847.957 294.64 845.295 295.834 842.431 296.94C842.431 296.94 841.642 295.097 840.434 292.326C839.196 289.599 837.524 285.958 835.821 282.317C834.057 278.706 832.323 275.08 830.93 272.412C829.506 269.758 828.562 267.96 828.562 267.96C826.364 269.021 823.794 270.495 820.915 272.294C818.02 274.21 815.404 276.318 813.052 278.603C810.807 280.858 809.135 283.305 808.036 285.899C806.953 288.523 807.061 291.191 808.361 293.874C809.135 295.466 810.343 296.999 812.03 298.473C813.717 300.079 816.101 301.377 819.104 302.379L819.909 304.222C816.782 304.192 813.934 303.632 811.395 302.438C808.95 301.273 806.767 299.888 804.739 298.281C802.913 296.719 801.303 294.979 799.925 293.034C798.594 291.176 797.464 289.466 796.628 287.845C795.297 285.251 794.662 282.347 794.585 279.192C794.585 276.067 795.452 272.751 797.077 269.346C797.866 267.591 798.934 265.955 800.188 264.231C801.442 262.506 802.928 260.752 804.6 259.027C806.411 257.258 808.377 255.593 810.668 253.927C812.943 252.261 815.528 250.655 818.33 249.107C821.008 247.633 823.608 246.35 826.101 245.304C828.608 244.257 830.992 243.447 833.314 242.813C835.636 242.238 837.88 241.855 840.078 241.678C842.183 241.56 844.242 241.648 846.208 241.958C850.186 242.577 853.762 244.11 856.935 246.571C860.093 249.063 862.802 252.482 865.062 256.772ZM835.636 276.524C839.304 274.858 842.911 273.208 846.487 271.498C850.016 269.788 853.065 268.137 855.681 266.53C858.375 264.953 860.433 263.405 861.888 261.843C863.312 260.398 863.715 259.012 863.049 257.715C862.43 256.521 861.037 255.976 858.885 256.094C856.78 256.3 854.211 256.905 851.239 257.877C848.22 258.895 844.877 260.221 841.301 261.828C837.803 263.508 834.227 265.248 830.698 266.958L835.636 276.524ZM843.236 299.18C846.131 298.075 848.917 297.176 851.595 296.483C854.273 295.805 856.811 295.348 859.35 295.097C861.749 294.95 864.117 294.876 866.3 294.979C868.421 295.112 870.464 295.363 872.306 295.79C876.036 296.719 879.117 298.09 881.531 299.873C883.993 301.745 885.633 303.824 886.5 306.079C887.352 308.629 886.934 311.518 885.216 314.746C883.59 317.886 881.377 320.996 878.591 324.018C878.591 324.018 884.132 322.441 889.658 320.834C895.169 319.257 900.695 317.665 900.695 317.665L909.998 310.958C909.998 310.958 911.484 312.358 913.682 314.496C915.864 316.648 918.775 319.581 921.716 322.515C924.564 325.492 927.412 328.543 929.502 330.813C931.669 333.128 933 334.705 933 334.705C933 334.705 931.514 335.059 928.913 335.634C926.313 336.253 922.598 337.093 918.14 338.11C915.895 338.626 913.465 339.186 910.911 339.776C908.342 340.336 905.633 340.984 902.846 341.618C900.045 342.267 897.196 342.915 894.224 343.579C891.283 344.271 888.327 344.95 885.324 345.642C882.398 346.306 879.364 346.998 876.454 347.677C873.529 348.34 870.634 349.003 867.832 349.652C865.046 350.286 862.337 350.905 859.799 351.494C857.229 352.084 854.814 352.629 852.57 353.145C848.081 354.177 844.366 355.017 841.765 355.622C839.165 356.226 837.648 356.565 837.648 356.565C837.648 356.565 834.66 358.275 831.642 359.97C828.624 361.636 825.605 363.287 825.605 363.287C825.605 363.287 825.234 361.886 824.738 359.779C824.166 357.685 823.454 354.855 822.664 352.084C821.906 349.269 821.101 346.497 820.482 344.404C819.831 342.34 819.367 340.955 819.367 340.955C819.367 340.955 822.416 340.085 825.435 339.23C828.5 338.346 831.534 337.476 831.534 337.476C830.218 337.388 828.778 337.167 826.967 336.857C825.28 336.533 823.593 336.017 821.937 335.339C820.28 334.734 818.748 333.953 817.386 332.907C816.07 331.904 815.157 330.651 814.646 329.207C813.934 327.084 813.903 324.77 814.615 322.249C815.451 319.67 816.983 317.046 819.305 314.348C820.497 313.022 821.828 311.71 823.423 310.398C825.001 309.071 826.72 307.774 828.701 306.447C830.682 305.106 832.896 303.838 835.357 302.6C837.741 301.406 840.403 300.242 843.236 299.18ZM851.037 319.051C846.889 320.377 843.298 321.645 840.357 322.839C837.447 324.003 835.032 325.094 833.329 326.141C829.908 328.234 828.531 330.297 829.243 332.317C829.645 333.599 831.085 335.103 833.639 336.886C833.639 336.886 836.301 336.12 840.279 334.985C842.276 334.41 844.614 333.732 847.121 333.01C849.629 332.302 852.276 331.536 854.954 330.784C857.647 329.988 860.294 329.251 862.802 328.499C865.294 327.821 867.631 327.158 869.69 326.553C873.637 325.433 876.3 324.681 876.3 324.681C876.733 323.399 877.027 322.22 877.213 321.099C877.368 320.023 877.29 319.051 876.996 318.196C876.733 317.193 876.052 316.427 874.999 315.808C873.931 315.174 872.368 314.894 870.294 314.908C868.297 314.923 865.712 315.233 862.446 315.852C859.35 316.53 855.557 317.606 851.037 319.051ZM928.155 346.261C928.155 346.261 929.502 352.32 930.802 358.393C931.963 364.481 932.954 370.613 932.954 370.613C932.954 370.613 928.279 370.613 921.205 370.642C917.706 370.657 913.635 370.716 909.193 370.79C906.979 370.834 904.75 370.834 902.397 370.893C900.091 370.967 897.738 370.996 895.401 371.07C893.064 371.099 890.695 371.188 888.389 371.247C886.082 371.32 883.838 371.379 881.609 371.453C877.228 371.615 873.111 371.762 869.597 371.91C862.585 372.19 857.91 372.426 857.91 372.426L857.523 370.524C857.523 370.524 861.997 369.094 868.637 366.942C871.95 365.866 875.835 364.584 879.984 363.213C882.089 362.52 884.256 361.783 886.392 361.061C888.59 360.309 890.773 359.572 893.002 358.791C895.2 358.069 897.413 357.287 899.58 356.536C901.732 355.784 903.884 355.017 905.942 354.31C910.06 352.85 913.899 351.465 917.227 350.286C923.774 347.883 928.155 346.261 928.155 346.261ZM836.673 365.159C839.985 364.466 842.787 364.805 845.109 366.176C847.586 367.606 849.072 369.876 849.691 372.898C850.264 375.949 849.706 378.514 847.957 380.622C846.332 382.788 843.855 384.1 840.527 384.587C837.184 385.088 834.366 384.631 831.967 383.157C829.723 381.771 828.33 379.678 827.772 376.804C827.2 373.959 827.679 371.468 829.289 369.316C830.93 367.222 833.391 365.837 836.673 365.159Z" fill="#101C26"/>
<path d="M-3.26673e-06 366.752C-3.26673e-06 366.752 0.370749 364.635 0.973955 361.415C1.59327 358.151 2.50569 353.874 3.44884 349.612C4.42337 345.321 5.45896 341.091 6.24748 337.903C7.06779 334.656 7.62366 332.586 7.62366 332.586C7.62366 332.586 10.5676 334.574 13.4505 336.502C16.3956 338.416 19.3554 340.375 19.3554 340.375C19.3554 340.375 20.7013 340.438 23.0688 340.516C25.4526 340.535 28.7951 340.627 32.7873 340.758C34.7987 340.831 36.9955 340.936 39.3318 341.028C41.6058 341.149 44.0198 341.213 46.5567 341.352C49.0785 341.462 51.6463 341.601 54.3072 341.728C56.9208 341.913 59.6282 342.04 62.2581 342.166C64.9487 342.381 67.6558 342.523 70.2849 342.707C72.914 342.892 75.4655 343.091 77.9867 343.245C80.4602 343.486 82.9041 343.624 85.1768 343.834C87.4345 344.013 89.6457 344.192 91.64 344.383C95.5983 344.719 98.9379 345.018 101.288 345.243C103.622 345.482 104.936 345.604 104.936 345.604C104.936 345.604 101.645 344.068 96.6624 341.742C94.2336 340.543 91.3577 339.204 88.3144 337.672C85.2085 336.183 81.9345 334.544 78.7219 332.936C75.4481 331.282 72.1581 329.673 69.1618 328.097C66.0877 326.549 63.2753 325.109 60.8318 323.85C56.0232 321.261 52.75 319.563 52.75 319.563C52.75 319.563 51.0956 319.422 48.6225 319.151C46.0865 318.952 42.7323 318.595 39.3929 318.282C36.0842 317.984 32.7124 317.774 30.1463 317.516C27.6726 317.289 25.9715 317.162 25.9715 317.162C25.9715 317.162 22.4382 317.421 18.8735 317.709C15.2793 317.894 11.699 318.197 11.699 318.197C11.699 318.197 12.3632 316.128 13.3675 313.002C14.3725 309.832 15.7631 305.68 17.1996 301.558C18.6527 297.362 20.1819 293.256 21.3557 290.192C22.5449 287.128 23.3181 285.016 23.3181 285.016C23.3181 285.016 26.01 287.31 28.7019 289.604C31.3947 291.839 34.0881 294.029 34.0881 294.029C34.0881 294.029 35.4168 294.21 37.7495 294.553C40.0676 294.837 43.4355 295.327 47.4372 295.871C49.4146 296.164 51.5618 296.49 53.8328 296.817C56.1341 297.189 58.5137 297.503 60.9849 297.907C63.4868 298.326 66.0667 298.701 68.677 299.122C71.2715 299.557 73.8971 299.992 76.5692 300.414C79.2098 300.879 81.8351 301.329 84.3981 301.808C86.9925 302.258 89.5249 302.707 92.0264 303.155C94.4811 303.632 96.8746 304.05 99.1287 304.48C101.336 304.924 103.451 305.338 105.427 305.719C109.348 306.512 112.636 307.149 114.952 307.61C117.19 308.084 118.517 308.368 118.517 308.368C118.517 308.368 117.412 307.674 115.448 306.481C113.406 305.288 110.613 303.553 107.299 301.471C105.595 300.43 103.77 299.268 101.898 298.062C99.9806 296.841 97.9241 295.588 95.8692 294.217C93.7668 292.919 91.6199 291.488 89.4412 290.116C87.31 288.67 85.0861 287.208 82.8928 285.777C80.6846 284.3 78.4756 282.883 76.3452 281.379C74.1522 279.917 72.0825 278.502 70.0115 277.175C67.9426 275.701 65.9806 274.332 64.0947 273.052C62.2396 271.787 60.508 270.539 58.8367 269.409C55.6029 267.122 52.9517 265.227 51.0209 263.843C49.1358 262.504 48.0788 261.723 48.0788 261.723C48.0788 261.723 44.7924 260.953 41.5235 260.037C38.2691 259.195 35.0301 258.352 35.0301 258.352L40.7686 246.744C40.7686 246.744 42.9071 249.855 45.0146 252.967C47.1994 256.079 49.3851 259.132 49.3851 259.132C49.3851 259.132 50.3957 259.913 52.2339 261.281C54.0575 262.589 56.6783 264.44 59.8499 266.755C61.413 267.869 63.1297 269.072 64.9696 270.322C66.7783 271.586 68.709 272.985 70.7026 274.311C72.6947 275.739 74.7489 277.154 76.8653 278.556C78.9811 280.001 81.0966 281.461 83.259 282.892C85.3745 284.353 87.5373 285.754 89.6378 287.185C91.7701 288.557 93.871 289.958 95.911 291.284C97.9356 292.61 99.899 293.877 101.74 295.053C103.627 296.274 105.344 297.419 107.017 298.43C110.3 300.511 113.016 302.245 114.888 303.422C116.837 304.614 117.957 305.279 117.957 305.279L126.615 306.125C126.615 306.125 126.007 307.458 125.142 309.509C124.262 311.546 123.078 314.241 121.939 316.982C120.786 319.737 119.787 322.479 118.968 324.546C118.18 326.614 117.696 327.993 117.696 327.993C117.696 327.993 114.05 327.454 108.674 326.611C105.956 326.204 102.804 325.731 99.4367 325.226C95.9909 324.779 92.3913 324.256 88.8066 323.777C85.1756 323.283 81.5443 322.819 78.129 322.402C74.7448 321.97 71.5295 321.644 68.764 321.251C63.3228 320.687 59.6601 320.251 59.6601 320.251C59.6601 320.251 62.4717 321.751 66.6051 323.918C68.7109 324.98 71.1079 326.238 73.6738 327.601C76.2867 328.921 79.0529 330.346 81.8656 331.772C84.6329 333.123 87.4455 334.549 90.0432 335.854C92.7034 337.115 95.1322 338.315 97.238 339.377C101.467 341.368 104.265 342.691 104.265 342.691L112.688 342.648C112.688 342.648 112.122 344.306 111.391 346.728C110.644 349.18 109.715 352.454 108.786 355.743C107.949 359.033 107.019 362.381 106.457 364.85C105.88 367.318 105.516 368.979 105.516 368.979L97.7729 364.844C97.7729 364.844 96.5045 364.767 94.1528 364.674C91.925 364.569 88.6442 364.492 84.761 364.319C82.8114 364.247 80.6757 364.202 78.4321 364.126C76.1724 364.094 73.8202 364.031 71.3754 363.951C68.9293 363.961 66.3763 363.865 63.8066 363.858C61.2377 363.792 58.6216 363.784 55.9596 363.732C53.3899 363.725 50.7422 363.761 48.1727 363.739C45.6187 363.717 43.0636 363.769 40.6181 363.734C38.1564 363.758 35.7565 363.783 33.5267 363.825C31.2661 363.851 29.1138 363.88 27.1624 363.94C23.23 363.958 19.9153 364.088 17.6704 364.1C15.3312 364.214 14.062 364.196 14.062 364.196C14.062 364.196 10.5078 364.838 7.01584 365.452C3.50823 366.08 -3.26673e-06 366.752 -3.26673e-06 366.752ZM76.0881 241.852C78.5163 237.67 81.3805 234.394 84.6487 232.097C87.9634 229.8 91.6528 228.364 95.7463 227.906C97.7929 227.685 99.9286 227.73 102.123 227.967C104.303 228.205 106.494 228.708 108.822 229.39C111.15 230.071 113.551 231.034 115.965 232.204C118.472 233.345 120.975 234.767 123.616 236.323C123.616 236.323 122.431 238.001 120.831 240.529C119.185 243.07 117.016 246.46 114.83 249.922C112.738 253.313 110.676 256.807 109.214 259.425C107.722 262.042 106.737 263.797 106.737 263.797C108.92 264.89 111.643 266.093 114.892 267.289C118.188 268.442 121.49 269.256 124.765 269.73C128.056 270.175 131.107 270.1 133.933 269.477C136.837 268.811 139.012 267.206 140.535 264.633C141.532 263.129 142.146 261.295 142.486 259.147C142.89 256.897 142.601 254.328 141.761 251.397L142.868 249.718C144.63 252.146 145.739 254.697 146.243 257.328C146.67 259.944 146.743 262.451 146.491 264.909C146.195 267.234 145.621 269.511 144.738 271.695C143.934 273.807 143.118 275.667 142.182 277.231C140.659 279.804 138.631 282.001 135.926 283.85C133.27 285.61 129.955 286.846 126.074 287.557C124.072 287.912 122.073 288.045 119.813 288.072C117.661 288.071 115.325 287.92 112.853 287.604C110.288 287.258 107.727 286.647 105.015 285.797C102.255 284.991 99.3599 283.918 96.4526 282.609C93.5751 281.388 91.0394 280.084 88.6586 278.768C86.3551 277.467 84.3017 275.993 82.3871 274.551C80.5347 273.094 78.9161 271.523 77.5605 269.971C76.2054 268.374 75.0989 266.722 74.2097 265.029C72.4634 261.554 71.7416 257.888 71.9979 254.029C72.3483 250.083 73.6754 246.034 76.0881 241.852ZM109.997 253.347C106.449 251.425 102.929 249.65 99.4565 247.816C95.952 246.056 92.7835 244.611 89.9041 243.523C86.9494 242.287 84.467 241.588 82.2711 241.424C80.186 241.085 78.7399 241.536 78.0711 242.838C77.3582 243.978 77.7093 245.413 79.0177 247.024C80.4204 248.533 82.4558 250.183 85.0156 251.974C87.6379 253.722 90.6768 255.563 94.1339 257.396C97.6227 259.171 101.127 260.931 104.632 262.706L109.997 253.347ZM93.4574 183.22C96.3081 185.236 98.4894 187.508 99.8793 189.916C101.44 192.311 102.272 194.712 102.577 197.222C102.899 199.615 102.664 201.985 101.963 204.437C101.265 206.712 100.182 208.878 98.7747 210.937L96.9032 209.731C98.3564 207.702 99.1796 205.341 99.2799 202.644C99.396 199.933 98.7529 197.256 97.4911 194.555C97.13 195.995 96.3656 197.487 95.1959 199.181C93.0485 202.128 90.5145 203.964 87.5471 204.703C84.581 205.354 81.7398 204.841 78.932 203.077C76.062 201.326 74.4548 198.959 74.0773 196.123C73.7169 193.169 74.6434 190.072 76.8555 186.934C79.1587 183.915 81.8632 182.067 84.8753 181.446C87.904 180.752 90.729 181.309 93.4574 183.22ZM168.962 236.114C168.962 236.114 166.879 233.431 164.828 230.733C162.776 228.051 160.741 225.309 160.741 225.309C160.741 225.309 158.978 224.075 156.419 222.211C153.891 220.347 150.49 217.895 147.042 215.399C143.656 212.918 140.223 210.466 137.665 208.602C135.075 206.737 133.421 205.49 133.421 205.49L122.402 202.001C122.402 202.001 122.629 200.161 122.964 197.35C123.437 194.571 124.001 190.849 124.611 187.099C125.222 183.334 125.957 179.6 126.523 176.792C127.074 173.955 127.488 172.088 127.488 172.088L136.762 179.621C135.667 176.067 135.286 172.391 135.603 168.636C135.969 164.676 137.393 161.394 139.907 158.85C141.179 157.541 142.417 156.512 143.65 155.793C143.65 155.793 144.355 157.395 145.375 159.695C146.456 162.01 147.867 165.126 149.34 168.198C150.767 171.255 152.241 174.328 153.37 176.57C154.498 178.857 155.282 180.357 155.282 180.357C151.577 177.429 148.583 175.706 146.299 175.246C144.015 174.697 142.26 175.144 140.815 176.598C140.012 177.544 139.324 179.053 138.66 181.166C138.66 181.166 140.879 182.967 144.153 185.638C145.806 186.988 147.734 188.564 149.785 190.229C151.897 191.91 154.085 193.711 156.274 195.481C158.477 197.282 160.681 199.053 162.732 200.748C164.798 202.414 166.742 203.974 168.379 205.325C171.685 207.996 173.888 209.782 173.888 209.782C173.888 209.782 177.105 211.095 180.306 212.453C183.522 213.781 186.677 215.138 186.677 215.138C186.677 215.138 185.544 216.419 183.798 218.311C182.083 220.247 179.848 222.854 177.52 225.445C175.392 228.083 173.233 230.75 171.518 232.73C169.988 234.743 168.962 236.114 168.962 236.114ZM161.751 137.034C165.404 133.828 169.213 131.597 173.07 130.355C176.973 129.143 180.938 128.978 184.969 129.699C187.006 130.155 188.978 130.788 191.009 131.672C192.978 132.57 194.959 133.689 196.921 135.044C198.883 136.413 200.811 138.018 202.797 139.845C204.737 141.671 206.704 143.763 208.653 146.046C208.653 146.046 207.041 147.306 204.614 149.202C202.219 151.114 199.008 153.678 195.875 156.316C192.756 158.955 189.669 161.623 187.333 163.639C185.09 165.686 183.585 167.065 183.585 167.065C185.279 168.755 187.434 170.658 190.175 172.805C192.901 174.893 195.771 176.644 198.8 178.102C201.721 179.5 204.573 180.307 207.557 180.601C210.449 180.789 213.062 179.942 215.444 177.956C216.791 176.796 217.99 175.25 219.023 173.349C220.167 171.316 220.76 168.804 220.912 165.769L222.54 164.509C223.382 167.322 223.652 170.098 223.212 172.745C222.788 175.348 222.026 177.755 220.956 180.01C219.843 182.132 218.576 184.089 217.002 185.91C215.599 187.673 214.2 189.201 212.743 190.389C210.547 192.407 207.925 193.888 204.738 194.845C201.583 195.7 198.035 195.885 194.079 195.401C192.148 195.093 190.111 194.652 188.015 194.017C185.919 193.354 183.748 192.541 181.518 191.492C179.289 190.399 176.986 189.054 174.64 187.458C172.295 185.833 169.984 183.972 167.537 181.858C165.275 179.806 163.291 177.832 161.491 175.89C159.74 173.889 158.188 171.951 156.931 170.002C155.643 168.037 154.587 166.106 153.809 164.208C153.078 162.296 152.563 160.401 152.327 158.496C151.747 154.685 152.295 150.977 153.832 147.388C155.385 143.798 158.051 140.327 161.751 137.034ZM190.136 158.151C187.406 155.281 184.675 152.471 181.943 149.734C179.18 146.997 176.596 144.734 174.255 142.814C171.869 140.731 169.738 139.329 167.753 138.475C165.831 137.564 164.313 137.63 163.215 138.573C162.196 139.517 162.052 140.915 162.814 142.857C163.654 144.727 164.986 146.868 166.87 149.357C168.724 151.816 171.039 154.429 173.678 157.209C176.441 159.96 179.188 162.697 181.936 165.42L190.136 158.151ZM221.766 122.13C219.381 118.971 217.305 115.801 215.538 112.651C213.71 109.499 212.238 106.353 211.06 103.211C209.867 100.01 208.998 96.8866 208.453 93.8862C207.923 90.886 207.671 87.9193 207.742 85.0751C207.876 82.1876 208.303 79.3927 209.099 76.7504C209.88 74.108 210.969 71.6027 212.428 69.1468C213.917 66.7503 215.761 64.4769 217.88 62.4432C220.028 60.4837 222.5 58.7204 225.23 57.1966C228.164 55.5431 231.199 54.3923 234.243 53.7575C237.286 53.1081 240.339 52.8715 243.43 53.2399C246.507 53.5196 249.637 54.3898 252.698 55.7602C255.79 57.131 258.905 59.0771 261.982 61.5092C261.982 61.5092 260.743 62.6562 258.907 64.3843C257.056 66.0532 254.67 68.3779 252.268 70.7172C249.913 73.0571 247.573 75.3529 245.846 77.1121C244.117 78.9302 242.97 80.1079 242.97 80.1079L239.158 70.604C238.07 68.731 236.731 67.0755 235.064 65.6366C233.414 64.1241 231.711 63.0679 230.017 62.3951C228.296 61.545 226.707 61.1243 225.237 61.1034C223.659 61.0219 222.524 61.3301 221.646 62.0989C219.776 64.0919 219.782 67.9838 221.726 73.8789C222.722 76.7677 224.101 79.9569 225.894 83.4174C226.844 85.1852 227.855 86.9834 228.989 88.8865C230.078 90.7301 231.288 92.6785 232.653 94.7176C233.97 96.7708 235.351 98.7659 236.701 100.657C238.052 102.534 239.359 104.278 240.728 106.007C242.096 107.751 243.42 109.362 244.729 110.885C246.07 112.408 247.365 113.871 248.692 115.231C251.333 117.908 254.007 120.319 256.501 122.419C258.979 124.488 261.4 126.277 263.731 127.785C265.986 129.232 268.152 130.398 270.245 131.283C272.291 132.211 274.279 132.829 276.116 133.165C279.869 133.853 283.047 133.5 285.651 132.21C286.493 131.736 287.309 131.01 288.05 130.077C288.669 128.995 289.196 127.882 289.63 126.739C290.082 125.462 290.378 124.184 290.751 123.01C291.095 121.688 291.359 120.542 291.62 119.602C291.62 119.602 289.319 118.14 285.882 115.968C284.117 114.896 282.061 113.643 279.912 112.315C277.717 111.031 275.368 109.641 272.988 108.251C270.577 106.904 268.182 105.543 265.924 104.273C263.681 103.047 261.531 101.881 259.702 100.912C256.03 98.9722 253.556 97.6986 253.556 97.6986C253.556 97.6986 254.96 96.8931 257.113 95.7886C259.234 94.669 262.119 93.177 265.004 91.6702C267.858 90.2219 270.789 88.8042 272.971 87.7444C275.137 86.7286 276.649 86.0426 276.649 86.0426C276.649 86.0426 277.704 88.0772 279.285 91.1366C280.037 92.6805 280.972 94.4481 281.935 96.3783C282.976 98.2801 283.985 100.314 285.085 102.379C286.093 104.413 287.164 106.433 288.096 108.363C289.152 110.28 290.087 112.062 290.793 113.591C292.406 116.65 293.475 118.73 293.475 118.73C293.355 121.691 292.991 124.443 292.29 126.939C291.665 129.495 290.673 131.78 289.483 133.813C288.278 135.815 286.889 137.682 285.179 139.265C283.514 140.907 281.574 142.324 279.359 143.516C277.784 144.304 276.149 145.018 274.223 145.477C272.327 145.981 270.248 146.29 268 146.494C265.784 146.669 263.37 146.576 261.006 146.306C258.595 146.021 256.079 145.499 253.473 144.754C250.852 143.994 248.25 142.999 245.59 141.737C242.883 140.475 240.134 138.947 237.389 137.154C234.627 135.389 231.918 133.228 229.321 130.773C226.695 128.244 224.211 125.423 221.766 122.13ZM298.925 54.5616C303.563 52.8292 307.878 52.0652 312.055 52.2721C316.138 52.522 319.93 53.6964 323.398 55.8245C325.055 56.8948 326.708 58.1714 328.205 59.6522C329.746 61.2073 331.176 62.9525 332.48 64.8876C333.768 66.8224 334.991 69.0069 336.134 71.3966C337.245 73.7859 338.261 76.3803 339.227 79.195C339.227 79.195 337.237 79.8006 334.236 80.716C331.281 81.6763 327.33 82.9763 323.41 84.3209C319.489 85.695 315.583 87.1135 312.657 88.2069C309.715 89.3296 307.816 90.0691 307.816 90.0691C308.699 92.2193 310.087 94.7895 311.733 97.6581C313.518 100.588 315.539 103.226 317.735 105.586C319.9 107.888 322.367 109.721 324.981 110.967C327.626 112.199 330.442 112.298 333.367 111.293C335.078 110.669 336.749 109.646 338.489 108.182C340.29 106.719 341.807 104.573 343.1 101.791L345.091 101.17C344.817 104.1 344.005 106.742 342.594 109.081C341.168 111.36 339.499 113.312 337.664 115.011C335.922 116.681 333.966 118.083 331.829 119.232C329.785 120.367 327.899 121.284 326.156 121.937C323.292 122.973 320.266 123.475 316.941 123.28C313.663 122.968 310.242 121.873 306.816 120.07C305.11 119.161 303.378 118.001 301.694 116.68C299.994 115.388 298.251 113.844 296.588 112.111C294.911 110.303 293.268 108.26 291.706 105.967C290.129 103.645 288.695 101.104 287.218 98.2669C285.94 95.6394 284.8 93.0875 283.906 90.6276C282.981 88.1672 282.302 85.843 281.824 83.566C281.423 81.3047 281.205 79.1788 281.188 77.0999C281.202 75.0362 281.462 73.1235 281.952 71.2877C282.904 67.5421 284.762 64.2663 287.619 61.4471C290.431 58.6125 294.225 56.3079 298.925 54.5616ZM317.284 84.0125C315.895 80.4398 314.399 76.8215 312.9 73.3799C311.386 69.8645 309.897 66.8359 308.401 64.2495C306.939 61.4867 305.482 59.4462 304.001 57.9951C302.552 56.4413 301.135 55.9494 299.749 56.534C298.442 57.0019 297.758 58.2452 297.728 60.3529C297.731 62.3431 298.206 64.8265 299 67.7715C299.794 70.7312 300.94 73.9466 302.33 77.4897C303.89 80.9911 305.404 84.477 306.902 87.9775L317.284 84.0125ZM331.035 46.7786C331.035 46.7786 332.283 45.042 334.239 42.4753C336.211 39.9089 338.876 36.4972 341.633 33.1016C344.39 29.7355 347.225 26.3705 349.381 23.8657C351.553 21.3757 353.032 19.7162 353.032 19.7162C353.032 19.7162 354.161 24.1697 355.304 28.6528C356.433 33.0767 357.577 37.5746 357.577 37.5746C357.577 37.5746 361.288 36.7577 365.015 35.9558C368.726 35.1537 372.467 34.4404 372.467 34.4404L372.918 36.5107C372.918 36.5107 369.192 37.2684 365.481 38.0263C361.8 38.8436 358.104 39.646 358.104 39.646C358.104 39.646 358.852 42.5608 359.966 46.9698C360.523 49.1743 361.168 51.7191 361.842 54.397C362.576 57.1937 363.293 60.1081 364.071 63.0529C364.804 65.9822 365.552 68.8823 366.241 71.5899C366.944 74.3714 367.604 76.9312 368.147 79.0765C369.276 83.5005 370.008 86.4004 370.008 86.4004C370.537 88.4423 371.178 90.1468 371.995 91.4852C372.858 92.8685 373.678 93.9269 374.534 94.6909C375.484 95.4121 376.436 95.9858 377.345 96.2641C378.27 96.5574 379.105 96.6283 379.835 96.4618C380.813 96.2546 381.547 95.7786 382.007 94.9891C382.593 94.1129 382.732 93.024 382.441 91.7373L384.49 91.339C384.94 93.4388 384.896 95.4283 384.375 97.2489C383.946 99.0708 383.087 100.724 381.844 102.122C380.693 103.55 379.221 104.738 377.427 105.715C375.633 106.662 373.671 107.445 371.481 107.959C368.592 108.67 366.022 108.678 363.752 108.262C361.453 107.728 359.347 106.71 357.495 105.239C355.69 103.695 354.076 101.8 352.607 99.4938C351.34 97.1318 350.247 94.5658 349.358 91.7669C349.358 91.7669 348.393 88.8638 347.046 84.5104C346.38 82.4076 345.565 79.8456 344.72 77.1947C343.861 74.4847 342.958 71.6119 342.039 68.7241C341.135 65.8512 340.156 62.9184 339.357 60.2682C338.467 57.5577 337.683 54.9814 337.017 52.8785C335.639 48.5542 334.735 45.6814 334.735 45.6814L331.035 46.7786ZM373.12 36.4251C373.12 36.4251 374.582 34.8539 376.799 32.512C379.031 30.1409 382.078 27.0148 385.142 23.8742C388.267 20.7934 391.437 17.728 393.823 15.4181C396.255 13.1383 397.918 11.6435 397.918 11.6435C397.918 11.6435 398.58 16.2082 399.243 20.7582C399.905 25.3229 400.568 29.8729 400.568 29.8729C400.568 29.8729 404.337 29.3812 408.136 28.9489C411.904 28.4866 415.687 28.0835 415.687 28.0835L415.936 30.2247C415.936 30.2247 412.137 30.598 408.385 31.0163C404.601 31.4783 400.848 31.9408 400.848 31.9408C400.848 31.9408 401.316 34.9548 401.965 39.4162C402.243 41.6167 402.655 44.2171 403.048 47.0385C403.457 49.8305 403.91 52.8149 404.348 55.799C404.786 58.7389 405.222 61.7672 405.616 64.5296C406.04 67.3514 406.406 69.9217 406.745 72.1968C407.394 76.6286 407.831 79.6422 407.831 79.6422C408.127 81.6808 408.613 83.4421 409.244 84.8073C409.981 86.3068 410.662 87.4074 411.471 88.2445C412.34 89.1561 413.199 89.6843 414.107 90.0953C414.999 90.4913 415.802 90.6502 416.516 90.5424C417.539 90.4538 418.319 90.0374 418.871 89.2787C419.487 88.4472 419.78 87.4047 419.628 86.1052L421.706 85.8547C421.939 87.9956 421.709 90.012 420.972 91.7853C420.343 93.5601 419.3 95.0342 417.934 96.3857C416.646 97.6794 415.052 98.7181 413.168 99.5021C411.284 100.242 409.232 100.846 406.998 101.154C404.097 101.628 401.529 101.459 399.31 100.779C397.061 99.9948 395.081 98.802 393.356 97.1115C391.738 95.4521 390.343 93.4126 389.185 91.0226C388.122 88.4866 387.247 85.8058 386.684 82.9231C386.684 82.9231 386.091 80.0105 385.179 75.5601C384.731 73.3719 384.164 70.7692 383.63 68.0344C383.051 65.2251 382.442 62.3123 381.834 59.3405C381.226 56.4129 380.618 53.4558 380.039 50.6319C379.489 47.9262 378.953 45.3387 378.49 43.0914C377.593 38.7002 376.969 35.7282 376.969 35.7282L373.12 36.4251ZM427.193 85.3875C427.193 85.3875 427.021 83.3506 426.709 80.2651C426.443 77.2392 426.036 73.1646 425.676 69.1055C425.285 65.0311 424.91 60.957 424.613 57.9011C424.331 54.8308 424.144 52.7642 424.144 52.7642L419.427 42.7019C419.427 42.7019 421.021 41.6337 423.428 40.0169C425.881 38.4303 429.163 36.2805 432.474 34.2491C435.785 32.2029 439.173 30.1431 441.78 28.6766C444.34 27.1947 446.088 26.2024 446.088 26.2024C446.088 26.2024 446.206 29.8159 446.392 35.2288C446.493 37.9723 446.587 41.1431 446.724 44.5357C446.846 47.9429 446.98 51.5713 447.114 55.1998C447.233 58.769 447.367 62.4269 447.458 65.8189C447.58 69.1966 447.72 72.4123 447.79 75.1111C448.006 80.5687 448.125 84.1822 448.125 84.1822C448.125 84.1822 449.288 87.3388 450.419 90.495C451.505 93.6063 452.621 96.7327 452.621 96.7327C452.621 96.7327 450.855 96.8255 448.207 96.8909C445.558 97.0301 441.98 97.1413 438.478 97.3714C434.93 97.5862 431.413 97.8014 428.778 98.044C426.128 98.1978 424.376 98.4382 424.376 98.4382C424.376 98.4382 425.042 95.1013 425.753 91.9124C426.466 88.6351 427.193 85.3875 427.193 85.3875ZM419.664 14.0764C419.367 11.0353 420.382 8.27824 422.831 5.9102C425.264 3.55668 428.363 2.25934 432.159 1.98913C435.939 1.80714 439.192 2.75277 441.903 4.81106C444.552 6.85373 446.001 9.48372 446.081 12.5512C446.206 15.7078 445.022 18.3887 442.591 20.6243C440.174 22.9191 437.2 24.1445 433.59 24.3289C429.996 24.543 426.85 23.6431 424.2 21.6742C421.488 19.7485 419.96 17.2206 419.664 14.0764ZM455.749 96.6889C455.749 96.6889 456.738 93.5777 457.759 90.3785C458.733 87.1786 459.8 83.9948 459.8 83.9948C459.8 83.9948 459.783 81.9602 459.78 78.8643C459.762 75.8272 459.759 71.7141 459.739 67.6598C459.735 63.5615 459.716 59.4777 459.714 56.4113C459.711 53.3007 459.678 51.2953 459.678 51.2953L455.91 40.8485C455.91 40.8485 457.611 39.885 460.139 38.4764C462.744 37.0983 466.192 35.2604 469.685 33.4527C473.208 31.7339 476.764 29.9418 479.46 28.6977C482.14 27.4386 483.979 26.5656 483.979 26.5656L483.323 37.8781C485.642 34.8153 488.481 32.1875 491.856 30.0538C495.356 27.7892 498.991 26.8975 502.67 27.2448C505.268 27.4587 507.564 28.2138 509.559 29.4364C511.632 30.601 513.278 32.4525 514.59 34.9184C515.904 37.2074 516.711 40.3 517.03 44.0342C517.173 45.879 517.16 47.8838 517.098 50.0942C516.973 52.3184 516.752 54.7919 516.375 57.3959C516.375 57.3959 516.116 59.2202 515.689 62.0593C515.308 64.8549 514.745 68.5765 514.212 72.2987C513.694 76.0358 513.145 79.7724 512.734 82.5823C512.338 85.3776 512.079 87.2609 512.079 87.2609C512.079 87.2609 512.651 90.586 513.208 93.8519C513.687 97.1904 514.243 100.53 514.243 100.53C514.243 100.53 512.481 100.328 509.839 99.9366C507.227 99.634 503.72 99.1712 500.195 98.7966C496.656 98.4071 493.162 98.0772 490.517 97.9363C487.872 97.7364 486.094 97.6079 486.094 97.6079C486.094 97.6079 487.346 94.5005 488.598 91.3635C489.911 88.2864 491.209 85.1796 491.209 85.1796C491.209 85.1796 491.375 83.354 491.616 80.5122C491.841 77.7587 492.158 74.0482 492.474 70.323C492.791 66.5535 493.107 62.8578 493.347 60.0897C493.589 57.2627 493.739 55.4074 493.739 55.4074C493.979 52.6688 494.029 50.2813 493.919 48.2306C493.792 46.2828 493.505 44.6866 493.027 43.4415C492.179 41.0559 490.603 39.7509 488.283 39.5999C486.829 39.5202 485.122 39.8349 483.16 40.5736C483.16 40.5736 483.044 43.2992 482.785 47.3937C482.693 49.4711 482.55 51.872 482.42 54.4794C482.26 57.057 482.128 59.8119 481.95 62.4924C481.787 65.2468 481.654 68.0459 481.525 70.6239C481.349 73.1718 481.252 75.6028 481.115 77.65C480.901 81.76 480.738 84.5144 480.738 84.5144C480.738 84.5144 481.605 87.77 482.457 90.9811C483.278 94.2361 484.068 97.4464 484.068 97.4464C484.068 97.4464 482.304 97.377 479.66 97.2066C477.014 97.1099 473.487 96.927 469.942 96.8617C466.398 96.7964 462.855 96.7017 460.192 96.6932C457.56 96.6999 455.749 96.6889 455.749 96.6889ZM512.053 122.715C512.343 120.832 512.955 119.19 513.858 117.773C514.883 116.46 516.075 115.342 517.449 114.507C518.808 113.657 520.271 113.088 521.839 112.786C523.47 112.455 525.095 112.478 526.639 112.751C525.054 112.065 523.579 111.277 522.153 110.358C520.679 109.452 519.471 108.418 518.42 107.209C517.447 105.971 516.755 104.576 516.297 103.021C515.823 101.511 515.74 99.7258 516.048 97.6516C516.692 93.7689 518.423 90.7125 521.333 88.5722C524.383 86.3749 527.815 85.613 531.614 86.301L532.587 86.4623C531.338 84.985 530.279 83.2894 529.408 81.4194C528.505 79.5491 527.823 77.4755 527.298 75.1977C526.82 72.9207 526.591 70.4997 526.581 67.9345C526.571 65.384 526.826 62.6898 527.316 59.8368C527.703 57.6458 528.196 55.6037 528.813 53.6518C529.444 51.7149 530.197 49.9271 531.073 48.2295C532.808 44.893 534.967 42.1671 537.553 39.9926C540.138 37.8182 543.053 36.4003 546.27 35.5616C549.641 34.7399 553.201 34.7611 556.921 35.5365C560.408 36.3233 563.377 37.6187 565.936 39.4832C568.402 41.3758 570.426 43.7929 571.963 46.7779C571.963 46.7779 575.458 45.9432 579.015 45.1094C582.556 44.3196 586.127 43.5892 586.127 43.5892C586.127 43.5892 585.186 46.5831 584.213 49.6798C583.256 52.7325 582.299 55.7852 582.299 55.7852L573.957 53.4992C574.403 55.8643 574.538 58.3429 574.298 61.0373C574.058 63.7464 573.492 66.5835 572.613 69.5636C571.979 71.7216 571.223 73.701 570.361 75.5315C569.528 77.4656 568.574 79.221 567.545 80.8132C565.518 84.0423 563.205 86.6187 560.669 88.5874C558.133 90.5857 555.435 91.9624 552.53 92.6729C549.593 93.4713 546.589 93.5317 543.41 92.823C541.311 92.3803 539.402 91.6454 537.712 90.6926C536.007 89.7985 534.491 88.5828 533.181 87.1489C532.131 88.0185 531.482 89.0117 531.281 90.1144C531.031 91.3345 531.218 92.3396 531.811 93.0704C532.511 93.9059 533.353 94.5961 534.351 95.1852C535.397 95.6424 536.413 96.0402 537.477 96.3649C538.634 96.6615 539.591 96.8521 540.285 97.0094C543.232 97.6853 546.251 98.775 549.264 100.263C552.294 101.662 554.868 103.512 556.925 105.797C559.123 108.04 560.618 110.655 561.489 113.616C562.329 116.621 562.173 119.936 561.039 123.516C559.839 127.303 557.985 130.313 555.494 132.401C553.045 134.739 550.328 136.366 547.279 137.458C544.32 138.669 541.2 139.258 537.9 139.403C534.709 139.564 531.694 139.3 528.854 138.728C527.11 138.379 525.167 137.806 523.011 136.994C520.932 136.227 519.058 135.257 517.295 133.979C515.548 132.745 514.1 131.191 513.012 129.304C511.954 127.519 511.63 125.274 512.053 122.715ZM555.655 88.4717C557.105 88.8462 558.147 88.5072 558.75 87.5134C559.337 86.4898 559.69 85.625 559.869 85.0379C560.358 83.2906 560.616 81.4515 560.614 79.4761C560.78 77.5915 560.73 75.6595 560.54 73.7551C560.352 71.7623 560.023 69.8559 559.567 68.1541C559.223 66.2769 558.767 64.6046 558.199 63.1518C557.648 61.6402 556.808 59.7707 555.695 57.4846C554.691 55.1116 553.408 52.7936 551.908 50.5461C550.532 48.2562 548.997 46.2589 547.334 44.5104C545.656 42.7912 544.029 41.7655 542.47 41.4632C541.003 41.1917 540.007 41.605 539.481 42.6442C538.957 43.5802 538.668 44.3132 538.568 44.7982C538.25 46.4595 538.312 48.6128 538.69 51.4044C539.101 54.108 539.71 57.0061 540.532 60.1137C541.417 63.2369 542.423 66.465 543.538 69.6946C544.715 72.9251 545.958 75.8765 547.22 78.5481C548.576 81.1915 549.953 83.4371 551.335 85.2996C552.857 87.105 554.297 88.1723 555.655 88.4717ZM541.347 134.351C544.941 135.257 547.68 135.4 549.576 134.822C551.535 134.261 552.869 132.997 553.547 131.046C554.083 129.24 554.013 127.633 553.352 126.282C552.658 125.004 551.668 123.869 550.336 122.804C549.018 121.856 547.559 121.01 545.976 120.265C544.437 119.609 543.114 118.986 542.022 118.498C539.361 117.325 536.975 116.348 534.851 115.477C532.771 114.799 530.537 114.074 528.117 113.317C527.161 114.1 526.392 114.87 525.793 115.643C525.286 116.402 524.917 117.355 524.715 118.443C524.267 120.575 524.518 122.509 525.377 124.202C526.22 125.851 527.452 127.357 529.076 128.604C530.635 130.012 532.491 131.159 534.645 132.133C536.876 133.108 539.11 133.848 541.347 134.351ZM621.024 24.8483C621.024 24.8483 622.843 25.4197 625.631 26.4177C628.34 27.4588 631.975 28.8079 635.625 30.1424C639.211 31.594 642.813 33.0017 645.522 34.1017C648.184 35.2453 649.969 35.9931 649.969 35.9931C649.969 35.9931 649.732 37.4197 649.246 40.0368C648.791 42.6249 648.12 46.2566 647.298 50.697C646.88 52.9023 646.381 55.2834 645.85 57.782C645.396 60.3259 644.863 62.9424 644.282 65.7203C643.717 68.4543 643.103 71.2907 642.475 74.127C641.861 76.9929 641.185 79.8875 640.54 82.7972C639.848 85.7062 639.172 88.6303 638.481 91.4804C637.79 94.3157 637.1 97.1069 636.427 99.795C635.754 102.513 635.082 105.112 634.443 107.58C633.773 110.062 633.151 112.412 632.533 114.54C631.403 118.859 630.424 122.383 629.706 124.938C629.006 127.389 628.582 128.858 628.582 128.858C628.582 128.858 629.497 127.677 631.09 125.606C632.745 123.521 635.032 120.576 637.837 117.093C639.24 115.358 640.769 113.464 642.376 111.452C644.031 109.412 645.732 107.343 647.512 105.186C649.293 103.015 651.151 100.772 653.041 98.5134C654.947 96.2261 656.884 93.9392 658.821 91.6229C660.757 89.336 662.725 87.0938 664.661 84.8363C666.566 82.5932 668.486 80.3798 670.39 78.2399C672.262 76.129 674.056 74.1054 675.787 72.1399C677.517 70.2039 679.138 68.3695 680.647 66.7399C683.699 63.378 686.262 60.5546 688.023 58.6485C689.832 56.6546 690.87 55.5343 690.87 55.5343C690.87 55.5343 692.574 56.5316 695.154 57.9394C697.735 59.3766 701.128 61.312 704.522 63.2621C707.915 65.2416 711.293 67.1915 713.778 68.7601C716.279 70.3437 717.952 71.37 717.952 71.37C717.952 71.37 715.013 73.3625 712.106 75.3407C709.213 77.3486 706.351 79.3864 706.351 79.3864C706.351 79.3864 703.773 83.2268 699.85 89.0677C697.921 91.9591 695.643 95.3468 693.223 98.9683C692.02 100.779 690.755 102.648 689.458 104.59C688.208 106.489 686.88 108.445 685.599 110.329C684.286 112.315 682.989 114.257 681.723 116.156C680.427 118.054 679.177 119.908 677.975 121.734C675.523 125.399 673.277 128.728 671.3 131.678C667.409 137.49 664.815 141.374 664.815 141.374C664.815 141.374 663.887 144.575 662.897 147.789C661.938 150.93 660.995 154.145 660.995 154.145C660.995 154.145 659.459 153.253 657.219 151.865C654.964 150.433 651.94 148.635 648.884 146.896C645.844 145.113 642.741 143.389 640.406 142.132C638.055 140.904 636.551 139.998 636.551 139.998C636.551 139.998 639.044 137.778 641.6 135.5C644.171 133.222 646.774 130.945 646.774 130.945C646.774 130.945 649.154 126.881 652.722 120.887C653.611 119.367 654.578 117.744 655.609 116.019C656.64 114.28 657.75 112.423 658.845 110.567C659.955 108.681 661.113 106.737 662.287 104.748C663.477 102.746 664.666 100.743 665.856 98.7551C667.046 96.7376 668.251 94.7204 669.425 92.747C670.584 90.7144 671.757 88.7557 672.867 86.9287C673.962 85.0279 675.041 83.1858 676.087 81.4759C677.118 79.751 678.071 78.0545 678.974 76.6079C682.559 70.5411 684.939 66.521 684.939 66.521C684.939 66.521 683.995 67.569 682.297 69.3728C680.645 71.2215 678.286 73.8267 675.439 76.9851C674.008 78.5568 672.497 80.2601 670.862 82.05C669.272 83.8701 667.604 85.7923 665.842 87.8016C664.111 89.7376 662.316 91.8496 660.522 93.9321C658.711 96.0439 656.885 98.1702 655.075 100.297C653.248 102.453 651.422 104.564 649.642 106.735C647.893 108.863 646.161 110.902 644.492 112.927C642.806 114.982 641.198 116.993 639.67 118.858C638.173 120.724 636.738 122.502 635.415 124.134C632.814 127.414 630.639 130.14 629.125 132.05C627.611 133.989 626.759 135.126 626.759 135.126C626.759 135.126 622.055 132.804 617.334 130.628C612.55 128.482 607.764 126.482 607.764 126.482C607.764 126.482 608.077 125.145 608.589 122.853C609.118 120.546 609.861 117.254 610.722 113.316C611.153 111.317 611.602 109.186 612.083 106.922C612.549 104.659 613.032 102.263 613.532 99.7783C614.001 97.2641 614.517 94.7063 615.019 92.0894C615.521 89.443 616.008 86.7964 616.479 84.179C616.95 81.5027 617.437 78.8119 617.893 76.1943C618.332 73.5912 618.772 70.9587 619.164 68.4876C619.556 65.9723 619.946 63.5454 620.289 61.2358C620.631 58.941 620.972 56.7493 621.233 54.7186C621.847 50.7175 622.313 47.363 622.626 44.994C622.922 42.6395 623.097 41.271 623.097 41.271C623.097 41.271 621.443 45.4489 618.923 51.7225C617.671 54.8594 616.194 58.5239 614.606 62.4226C613.835 64.4018 613.016 66.4245 612.182 68.4618C611.379 70.5142 610.513 72.61 609.662 74.7207C608.859 76.7879 608.008 78.8986 607.159 80.9061C606.355 83.0175 605.552 85.0405 604.751 86.9897C603.163 90.8737 601.717 94.5534 600.449 97.6753C597.945 103.964 596.275 108.127 596.275 108.127C596.275 108.127 595.996 111.41 595.716 114.782C595.407 118.021 595.095 121.393 595.095 121.393L585.409 117.834C585.409 117.834 587.506 115.137 589.617 112.558C591.745 109.905 593.903 107.282 593.903 107.282C593.903 107.282 595.605 103.002 598.174 96.552C599.443 93.3268 600.922 89.515 602.527 85.4986C603.33 83.4904 604.149 81.4087 605 79.2685C605.835 77.187 606.701 75.047 607.552 72.8921C608.404 70.6929 609.24 68.5525 610.09 66.427C610.941 64.3311 611.76 62.2494 612.578 60.2119C614.168 56.1953 615.647 52.4129 616.946 49.2029C619.469 42.7229 621.171 38.4278 621.171 38.4278C621.171 38.4278 621.157 35.0664 621.129 31.6164C621.099 28.2695 621.024 24.8483 621.024 24.8483ZM670.211 144.016C671.681 141.914 673.485 140.215 675.516 138.947C677.656 137.547 679.946 136.563 682.323 135.992C684.825 135.32 687.399 135.047 690.091 135.13C692.799 135.198 695.501 135.694 698.168 136.513C698.168 136.513 701.836 137.612 705.49 138.711C709.173 139.913 712.87 141.175 712.87 141.175C712.87 141.175 713.847 139.994 715.327 138.217C716.792 136.484 718.776 134.094 720.729 131.763C722.682 129.418 724.667 127.043 726.131 125.295C727.612 123.503 728.573 122.352 728.573 122.352C729.817 120.881 730.224 119.442 729.872 118.11C729.505 116.704 728.792 115.677 727.765 114.925C726.495 113.919 725.059 113.648 723.476 113.906C722.063 114.18 720.475 114.851 718.755 116.02C717.082 117.19 715.311 118.698 713.459 120.485C711.697 122.465 709.918 124.562 708.183 126.779C708.183 126.779 706.05 122.208 703.902 117.592C701.614 113.049 699.295 108.504 699.295 108.504C702.054 107.158 704.85 106.476 707.809 106.356C710.752 106.206 713.627 106.542 716.371 107.303C719.257 107.993 722.073 109.124 724.731 110.562C727.497 112.002 730.121 113.632 732.511 115.376C734.885 117.208 736.975 119.346 738.767 121.819C740.651 124.293 741.819 127.081 742.115 130.225C742.534 133.342 742.022 136.696 740.591 140.42C739.899 142.297 738.865 144.228 737.521 146.184C736.161 148.214 734.475 150.298 732.463 152.451C732.463 152.451 731.174 153.833 729.209 155.928C727.196 158.081 724.587 160.875 721.946 163.697C719.336 166.476 716.695 169.313 714.714 171.437C712.734 173.546 711.429 174.943 711.429 174.943C711.429 174.943 709.961 178.018 708.477 181.077C706.995 184.078 705.482 187.079 705.482 187.079C705.482 187.079 704.364 186.179 702.651 184.709C700.937 183.314 698.674 181.365 696.363 179.49C694.052 177.629 691.71 175.782 689.934 174.4C688.173 173.049 686.978 172.176 686.978 172.176C686.978 172.176 688.947 169.787 690.9 167.471C692.884 165.111 694.837 162.75 694.837 162.75C690.96 164.287 687.215 165.325 683.554 165.862C679.986 166.342 676.639 165.454 673.435 163.271C672.286 162.429 671.186 161.426 670.136 160.113C669.118 158.816 668.287 157.374 667.737 155.774C667.217 154.19 667.103 152.419 667.411 150.418C667.781 148.345 668.662 146.25 670.211 144.016ZM689.262 160.725C690.151 161.342 691.183 161.696 692.391 161.639C693.755 161.57 695.026 161.397 696.254 161.075C696.254 161.075 700.034 156.544 703.861 151.955C707.673 147.395 711.469 142.835 711.469 142.835C709.48 142.261 707.546 142.16 705.592 142.398C703.669 142.621 701.757 143.154 699.874 143.908C698.128 144.724 696.441 145.82 694.875 147.036C693.371 148.327 692.019 149.723 690.837 151.239C690.411 151.763 689.921 152.464 689.337 153.296C688.922 154.16 688.491 155.083 688.137 155.977C687.892 156.887 687.817 157.8 687.929 158.672C688.103 159.485 688.558 160.169 689.262 160.725ZM707.774 189.131C707.774 189.131 710.786 187.435 713.813 185.827C716.84 184.145 719.897 182.567 719.897 182.567C719.897 182.567 721.373 181.07 723.572 178.845C725.818 176.607 728.74 173.627 731.708 170.662C734.66 167.696 737.582 164.76 739.812 162.536C742.027 160.283 743.487 158.844 743.487 158.844L748.321 148.786C748.321 148.786 750.204 149.181 753.105 149.827C755.958 150.575 759.8 151.5 763.624 152.527C767.449 153.554 771.288 154.626 774.218 155.42C777.101 156.272 778.981 156.874 778.981 156.874L770.168 164.797C773.954 164.188 777.856 164.155 781.793 164.889C785.837 165.728 789.094 167.44 791.534 170.04C792.707 171.399 793.648 172.709 794.249 173.971C794.249 173.971 792.54 174.448 790.006 175.178C787.471 175.953 784.098 176.966 780.755 177.98C777.396 179.038 774.037 180.081 771.565 180.871C769.044 181.734 767.442 182.257 767.442 182.257C770.815 179.15 772.912 176.497 773.685 174.371C774.535 172.304 774.267 170.487 772.832 169.037C771.978 168.155 770.458 167.307 768.302 166.481C768.302 166.481 766.201 168.367 763.064 171.182C761.465 172.619 759.646 174.244 757.685 176.03C755.71 177.8 753.608 179.686 751.523 181.558C749.421 183.46 747.32 185.346 745.344 187.117C743.384 188.887 741.549 190.527 739.965 191.964C736.813 194.793 734.743 196.651 734.743 196.651C734.743 196.651 732.998 199.604 731.285 202.484C729.557 205.348 727.782 208.213 727.782 208.213C727.782 208.213 726.577 206.987 724.777 205.118C722.945 203.279 720.456 200.899 717.967 198.49C715.446 196.125 712.879 193.774 711.015 191.993C709.058 190.3 707.774 189.131 707.774 189.131ZM736.503 217.61C736.503 217.61 739.726 216.299 742.966 214.96C746.157 213.678 749.427 212.354 749.427 212.354C749.427 212.354 751.025 211.065 753.484 209.065C755.957 207.125 759.246 204.504 762.581 201.854C765.822 199.246 769.095 196.625 771.569 194.655C774.059 192.656 775.672 191.382 775.672 191.382L781.659 181.914C781.659 181.914 783.508 182.516 786.311 183.484C789.021 184.511 792.733 185.876 796.46 187.241C800.123 188.723 803.818 190.176 806.557 191.335C809.327 192.51 811.173 193.303 811.173 193.303L801.43 200.24C805.304 199.942 809.183 200.424 812.959 201.599C816.92 202.805 819.971 204.868 822.051 207.758C823.083 209.188 823.838 210.555 824.299 211.903C824.299 211.903 822.545 212.187 819.938 212.651C817.362 213.101 813.853 213.788 810.392 214.447C806.915 215.105 803.53 215.794 800.952 216.332C798.344 216.899 796.635 217.273 796.635 217.273C800.39 214.496 802.778 212.097 803.829 210.034C804.909 208.103 804.857 206.289 803.595 204.679C802.851 203.695 801.456 202.717 799.396 201.685C799.396 201.685 797.098 203.289 793.657 205.776C791.936 206.989 789.872 208.464 787.698 209.995C785.555 211.542 783.225 213.204 780.911 214.778C778.611 216.5 776.328 218.118 774.123 219.694C771.996 221.211 769.947 222.671 768.227 223.9C764.755 226.356 762.455 228.019 762.455 228.019C762.455 228.019 760.358 230.716 758.323 233.414C756.225 236.097 754.16 238.751 754.16 238.751C754.16 238.751 753.08 237.408 751.499 235.381C749.887 233.309 747.726 230.684 745.55 228.028C743.343 225.373 741.105 222.761 739.399 220.82C737.677 218.865 736.503 217.61 736.503 217.61ZM775.137 245.182C775.137 245.182 776.934 244.058 779.605 242.371C782.276 240.685 785.884 238.422 789.446 236.187C793.023 233.939 796.585 231.69 799.272 229.988C801.958 228.302 803.77 227.163 803.77 227.163L810.815 218.433C810.815 218.433 812.568 219.254 815.212 220.53C817.857 221.806 821.346 223.551 824.85 225.355C828.354 227.189 831.857 229.052 834.452 230.49C837.08 231.869 838.783 232.925 838.783 232.925C838.783 232.925 835.506 234.765 830.575 237.496C828.141 238.818 825.286 240.398 822.149 242.182C819.075 243.892 815.798 245.674 812.505 247.543C809.197 249.353 805.92 251.179 802.862 252.904C799.757 254.614 796.885 256.21 794.42 257.59C789.52 260.321 786.196 262.161 786.196 262.161C786.196 262.161 783.839 264.589 781.467 267.032C779.126 269.46 776.676 271.917 776.676 271.917C776.676 271.917 775.799 270.445 774.484 268.23C773.152 266.058 771.32 263.187 769.457 260.3C767.578 257.443 765.668 254.6 764.196 252.501C762.725 250.401 761.738 249.001 761.738 249.001C761.738 249.001 765.035 248.002 768.439 247.033C771.749 246.122 775.137 245.182 775.137 245.182ZM837.369 205.072C840.072 203.356 843.113 202.869 846.443 203.801C849.774 204.733 852.455 206.717 854.47 209.783C856.439 212.803 857.152 216.012 856.579 219.277C855.914 222.496 854.177 224.918 851.399 226.471C848.528 228.052 845.537 228.274 842.284 227.358C839.015 226.412 836.427 224.444 834.564 221.587C832.655 218.685 831.986 215.624 832.496 212.462C833.053 209.212 834.636 206.773 837.369 205.072ZM857.308 264.811C859.398 269.13 860.516 273.23 860.538 277.151C860.544 281.058 859.594 284.701 857.579 288.151C856.549 289.861 855.303 291.45 853.825 293.007C852.333 294.533 850.61 295.983 848.671 297.341C846.685 298.728 844.499 300.009 842.098 301.228C839.666 302.431 836.986 303.587 834.107 304.652C834.107 304.652 833.344 302.798 832.177 300.01C830.977 297.266 829.357 293.601 827.707 289.937C825.994 286.3 824.312 282.65 822.957 279.962C821.571 277.289 820.652 275.477 820.652 275.477C818.439 276.507 815.849 277.944 812.945 279.702C810.023 281.576 807.377 283.647 804.992 285.898C802.716 288.121 801.009 290.544 799.873 293.122C798.753 295.73 798.823 298.399 800.085 301.101C800.836 302.703 802.021 304.253 803.687 305.751C805.352 307.382 807.717 308.713 810.705 309.758L811.484 311.612C808.357 311.538 805.518 310.937 802.996 309.707C800.567 308.508 798.405 307.091 796.4 305.456C794.596 303.868 793.011 302.105 791.661 300.14C790.357 298.264 789.251 296.538 788.439 294.905C787.145 292.292 786.551 289.379 786.519 286.224C786.563 283.099 787.477 279.796 789.151 276.414C789.965 274.671 791.057 273.051 792.335 271.344C793.613 269.637 795.124 267.905 796.82 266.204C798.656 264.461 800.646 262.824 802.96 261.191C805.259 259.558 807.867 257.988 810.69 256.48C813.389 255.045 816.008 253.799 818.514 252.788C821.037 251.778 823.432 251.001 825.763 250.4C828.092 249.859 830.342 249.507 832.542 249.362C834.649 249.274 836.706 249.392 838.668 249.729C842.636 250.405 846.19 251.989 849.328 254.495C852.45 257.031 855.11 260.489 857.308 264.811ZM827.604 284.141C831.296 282.528 834.925 280.929 838.525 279.27C842.078 277.611 845.151 276.003 847.79 274.434C850.505 272.895 852.586 271.377 854.063 269.836C855.507 268.411 855.93 267.032 855.283 265.725C854.681 264.523 853.295 263.957 851.142 264.045C849.034 264.221 846.456 264.789 843.471 265.719C840.438 266.693 837.076 267.972 833.478 269.527C829.956 271.158 826.356 272.846 822.803 274.506L827.604 284.141ZM834.88 306.904C837.79 305.839 840.589 304.98 843.277 304.326C845.964 303.686 848.509 303.265 851.051 303.051C853.452 302.937 855.821 302.897 858.002 303.032C860.12 303.195 862.16 303.474 863.995 303.928C867.712 304.91 870.773 306.324 873.162 308.142C875.596 310.049 877.207 312.151 878.042 314.418C878.857 316.98 878.398 319.863 876.634 323.066C874.964 326.183 872.706 329.261 869.877 332.243C869.877 332.243 875.441 330.745 880.989 329.217C886.521 327.718 892.07 326.205 892.07 326.205L901.467 319.632C901.467 319.632 902.933 321.053 905.101 323.222C907.252 325.405 910.12 328.379 913.019 331.354C915.825 334.372 918.629 337.464 920.686 339.763C922.82 342.108 924.129 343.704 924.129 343.704C924.129 343.704 922.638 344.037 920.029 344.574C917.42 345.156 913.694 345.944 909.222 346.897C906.97 347.381 904.532 347.906 901.97 348.459C899.393 348.983 896.675 349.593 893.88 350.187C891.069 350.795 888.212 351.403 885.231 352.024C882.28 352.675 879.314 353.311 876.302 353.961C873.367 354.582 870.323 355.232 867.404 355.868C864.469 356.49 861.566 357.112 858.755 357.721C855.96 358.315 853.242 358.895 850.696 359.448C848.118 360.001 845.696 360.512 843.444 360.996C838.941 361.964 835.214 362.751 832.605 363.318C829.996 363.886 828.475 364.203 828.475 364.203C828.475 364.203 825.463 365.87 822.421 367.522C819.379 369.145 816.337 370.752 816.337 370.752C816.337 370.752 815.986 369.347 815.521 367.232C814.978 365.131 814.306 362.291 813.556 359.509C812.838 356.683 812.073 353.9 811.484 351.799C810.863 349.726 810.418 348.334 810.418 348.334C810.418 348.334 813.48 347.508 816.51 346.696C819.587 345.855 822.633 345.029 822.633 345.029C821.319 344.922 819.883 344.68 818.076 344.345C816.394 343.996 814.714 343.456 813.068 342.755C811.42 342.127 809.899 341.324 808.552 340.258C807.251 339.237 806.355 337.971 805.865 336.52C805.183 334.387 805.185 332.072 805.933 329.562C806.806 326.995 808.376 324.393 810.736 321.729C811.946 320.419 813.296 319.127 814.909 317.838C816.507 316.534 818.243 315.261 820.243 313.963C822.243 312.65 824.475 311.414 826.953 310.211C829.354 309.051 832.033 307.924 834.88 306.904ZM842.398 326.883C838.231 328.15 834.622 329.367 831.664 330.519C828.738 331.642 826.308 332.698 824.59 333.72C821.14 335.764 819.733 337.808 820.416 339.837C820.8 341.125 822.218 342.649 824.747 344.469C824.747 344.469 827.42 343.741 831.414 342.663C833.418 342.116 835.765 341.471 838.283 340.785C840.8 340.113 843.458 339.385 846.146 338.671C848.851 337.914 851.508 337.214 854.026 336.498C856.528 335.856 858.874 335.226 860.941 334.651C864.904 333.587 867.577 332.873 867.577 332.873C868.029 331.597 868.339 330.422 868.541 329.305C868.711 328.231 868.648 327.257 868.366 326.398C868.117 325.392 867.447 324.616 866.403 323.982C865.345 323.333 863.785 323.031 861.711 323.016C859.714 323.002 857.125 323.275 853.85 323.847C850.745 324.481 846.938 325.503 842.398 326.883ZM919.119 355.19C919.119 355.19 920.38 361.267 921.593 367.358C922.667 373.462 923.571 379.608 923.571 379.608C923.571 379.608 918.896 379.541 911.822 379.47C908.324 379.434 904.253 379.435 899.81 379.446C897.596 379.458 895.367 379.427 893.014 379.452C890.706 379.493 888.353 379.489 886.015 379.529C883.678 379.525 881.308 379.58 879.001 379.606C876.694 379.647 874.449 379.674 872.219 379.716C867.837 379.816 863.718 379.904 860.202 380.002C853.187 380.182 848.509 380.351 848.509 380.351L848.149 378.444C848.149 378.444 852.643 377.078 859.313 375.021C862.641 373.992 866.544 372.765 870.711 371.454C872.826 370.791 875.004 370.085 877.15 369.393C879.358 368.673 881.551 367.967 883.791 367.217C885.999 366.527 888.224 365.777 890.401 365.056C892.564 364.335 894.726 363.599 896.794 362.921C900.932 361.521 904.79 360.19 908.135 359.058C914.716 356.749 919.119 355.19 919.119 355.19ZM827.377 372.782C830.699 372.136 833.496 372.515 835.798 373.919C838.254 375.384 839.708 377.675 840.284 380.705C840.813 383.765 840.219 386.321 838.44 388.404C836.784 390.547 834.289 391.824 830.954 392.263C827.604 392.716 824.794 392.219 822.416 390.711C820.191 389.294 818.828 387.181 818.312 384.299C817.78 381.446 818.295 378.962 819.935 376.833C821.606 374.763 824.086 373.413 827.377 372.782Z" fill="#FEA88A"/>
</svg>
