<svg width="237" height="239" viewBox="0 0 237 239" fill="none" xmlns="http://www.w3.org/2000/svg">
<path d="M2.79636 204.669C3.50633 204.196 5.19251 203.042 6.58287 202.125C7.97324 201.208 10.1032 199.818 11.316 199.019C12.5289 198.22 14.008 197.303 14.5701 196.948C15.1321 196.593 16.0787 196.031 16.6408 195.676C17.2029 195.351 18.682 194.493 19.8948 193.812C21.1077 193.132 22.4981 192.363 23.001 192.097C23.5039 191.83 24.8942 190.973 26.1071 190.174C27.32 189.375 29.4499 187.985 30.8402 187.097C32.2306 186.18 33.9464 184.967 34.6859 184.405C35.4255 183.843 36.0467 183.37 36.0763 183.34C36.1354 183.34 36.0171 182.335 35.8396 181.122C35.6917 179.909 35.3663 177.306 35.1297 175.353C34.893 173.401 34.4197 169.673 34.1239 167.07C33.7985 164.467 33.3251 160.68 33.0589 158.639C32.7927 156.598 32.4081 153.817 32.1714 152.427C31.9348 151.037 31.5206 148.848 31.2544 147.546C30.9882 146.244 30.6036 144.765 30.3965 144.292C30.1894 143.819 29.4203 142.014 28.6807 140.298C27.9708 138.583 27.2904 136.778 27.1721 136.305C27.0537 135.831 26.6692 134.766 26.3142 133.997C25.7817 132.873 25.5155 132.577 24.9238 132.577C24.5097 132.577 23.8589 132.518 23.4447 132.43C23.0306 132.37 22.1727 132.163 21.5219 131.956C20.8711 131.779 20.0132 131.394 19.599 131.157C19.1849 130.891 17.9424 129.974 16.8183 129.057C15.6942 128.17 14.0376 126.572 13.1501 125.507C12.2626 124.442 10.9906 122.786 10.3398 121.81C9.65942 120.833 8.62404 118.97 8.0324 117.668C7.44076 116.366 6.7012 114.621 6.43496 113.822C6.13914 112.994 5.84332 111.16 5.75457 109.681C5.66583 107.817 5.75457 106.368 6.58287 102.581L4.77836 100.658C3.77257 99.5933 2.61887 98.055 2.2343 97.2563C1.82015 96.428 1.31725 95.0377 1.08059 94.1502C0.873518 93.2627 0.696025 91.547 0.666443 90.3637C0.666443 89.21 0.814354 87.5238 0.991847 86.6955C1.16934 85.8376 1.52433 84.6543 1.76098 84.0923C2.02722 83.5302 2.5597 82.4061 2.94427 81.5778C3.44717 80.5128 3.62466 79.5958 3.62466 78.2646C3.62466 76.9334 3.24009 75.0401 2.29346 71.8157C1.55391 69.3012 0.843936 66.1951 0.696025 64.9526C0.548114 63.6806 0.459368 61.0478 0.518532 59.0953C0.607279 56.4034 0.814354 54.8651 1.406 52.7352C1.82015 51.1969 2.94427 48.3866 3.8909 46.5229C4.83753 44.6593 5.78416 42.3223 5.99123 41.346C6.19831 40.3698 6.61246 38.7132 6.96744 37.6483C7.29285 36.5833 8.38739 34.4534 9.39318 32.9151C10.6356 30.9923 11.9372 29.454 13.5051 28.0341C14.7771 26.8804 16.2267 25.6971 16.7591 25.3421C17.262 25.0167 18.9482 24.0701 20.4865 23.2418C22.0248 22.4135 24.0955 21.4964 25.0717 21.2302C26.2846 20.8752 27.9412 20.7273 30.2486 20.7273C32.1123 20.6977 34.0351 20.7864 34.538 20.9048C35.3959 21.1119 35.4551 21.0527 36.6679 18.6565C37.3779 17.2958 38.6204 15.1363 39.4782 13.8346C40.3361 12.533 41.6969 10.7877 42.5252 9.98896C43.3239 9.16066 45.2172 7.71114 46.6667 6.76451C48.1162 5.7883 50.0686 4.69376 50.9561 4.27961C51.8436 3.89504 54.1806 3.1259 56.133 2.56384C58.0854 2.03136 60.5999 1.41014 61.7536 1.23264C62.9073 1.05515 64.4752 0.788911 65.3035 0.670583C66.1022 0.522672 68.6462 0.463508 70.9241 0.522672C74.4443 0.611418 75.5389 0.759329 78.1717 1.49888C79.8875 1.9722 82.1653 2.88924 83.2598 3.51047C84.3839 4.16128 86.4843 5.52206 87.9634 6.58701C89.4721 7.65197 91.6907 9.63398 92.9332 10.9948C94.649 12.8584 95.6252 13.6571 96.9564 14.2784C97.9326 14.7517 99.2638 15.225 99.9146 15.3137C100.565 15.4321 101.216 15.6392 101.394 15.7575C101.571 15.8758 102.104 16.0829 102.577 16.2012C103.05 16.3195 103.997 16.7633 104.648 17.207C105.299 17.6507 106.304 18.627 106.896 19.3369C107.488 20.0469 108.198 21.2302 108.434 21.9697C108.7 22.7093 109.144 24.7505 109.41 26.555C109.677 28.3891 110.091 30.1936 110.416 30.6965C110.712 31.1698 111.392 31.791 111.925 32.0573C112.487 32.3235 113.197 32.6489 113.522 32.7376C113.848 32.856 114.913 32.7968 115.889 32.6193C117.575 32.3235 117.753 32.2052 119.883 29.9569C121.51 28.2412 122.308 27.6199 122.841 27.6199C123.255 27.6199 123.935 27.9749 124.379 28.4186C125.03 29.0695 125.237 29.5723 125.385 31.1402C125.533 32.5601 125.444 33.5364 125.059 34.838C124.764 35.8142 124.349 37.0271 124.113 37.5004C123.847 37.9737 123.166 38.9795 122.575 39.6894C121.983 40.3994 120.859 41.3756 120.03 41.8194C119.113 42.3518 118.108 42.6772 117.368 42.6772C116.717 42.6772 115.297 42.411 114.203 42.0856C112.605 41.6123 111.836 41.1686 110.535 39.9557C109.588 39.0682 108.523 37.6779 108.05 36.7608C107.606 35.8733 107.014 34.3942 106.718 33.5068C106.423 32.6193 105.89 31.2881 105.506 30.5486C105.121 29.809 104.589 28.9215 104.293 28.5961C103.997 28.2412 103.317 27.7383 102.814 27.472C102.281 27.2058 101.63 26.9987 101.394 26.9987C101.157 26.9987 100.95 27.0579 100.95 27.1466C100.95 27.2354 101.571 27.8862 102.34 28.5961C103.139 29.3061 103.967 30.4007 104.263 31.0219C104.529 31.6727 105.032 32.9743 105.387 33.9505C105.742 34.9267 106.275 36.2579 106.571 36.9087C106.866 37.5595 107.783 38.8907 108.641 39.8669C109.499 40.8432 110.682 41.9377 111.274 42.2927C111.866 42.6477 112.931 43.121 113.67 43.3576C114.41 43.5647 116.007 43.8014 117.22 43.831C118.433 43.8901 119.764 44.0972 120.178 44.3043C120.593 44.5113 121.214 45.0142 121.569 45.3988C121.894 45.7538 122.545 46.8187 122.959 47.7062C123.462 48.7416 123.728 49.8065 123.728 50.6644C123.728 51.404 123.551 52.7943 123.314 53.7706C123.107 54.7468 122.575 56.3442 122.16 57.3204C121.717 58.2966 121.332 59.3616 121.332 59.687C121.332 60.0124 121.539 60.7519 122.16 62.3494L123.018 61.1957C123.492 60.5745 124.497 59.3024 125.237 58.3854C125.976 57.4683 127.574 55.8413 128.787 54.7468C130 53.6522 131.508 52.3802 132.159 51.8773C132.81 51.3744 134.496 50.1911 135.916 49.2741C137.336 48.3274 139.466 46.9962 140.649 46.3158C141.832 45.6355 143.726 44.6297 144.879 44.0676C146.033 43.5055 147.749 42.7364 148.725 42.3814C149.701 42.0264 151.151 41.5531 151.979 41.346C152.778 41.139 154.937 40.784 156.712 40.6065C159.345 40.2811 160.617 40.2811 163.368 40.6065C165.587 40.8432 167.835 40.9023 169.876 40.7544C171.592 40.6361 173.397 40.5177 173.87 40.5177C174.343 40.4882 175.941 40.5769 177.42 40.6952C178.899 40.8136 180.881 41.0502 181.857 41.1981C182.833 41.346 185.23 41.8785 187.182 42.3814C189.134 42.8843 191.797 43.683 193.098 44.1859C194.4 44.6592 195.731 45.1917 196.057 45.3101C196.382 45.458 197.506 45.9609 198.571 46.4638C199.636 46.9667 201.322 47.9429 202.328 48.6528C203.304 49.3628 204.842 50.5165 205.73 51.2265C206.588 51.9365 208.747 54.0664 210.493 55.9596C212.238 57.8529 213.983 59.8645 214.368 60.4265C214.753 60.9886 215.788 62.586 216.675 63.9764C217.592 65.3668 218.983 67.615 219.811 69.0054C220.61 70.3957 221.616 72.2594 222.03 73.1469C222.414 74.0343 222.976 75.4543 223.272 76.253C223.568 77.0813 224.367 79.0633 225.047 80.6903C225.727 82.3173 226.911 85.5122 227.65 87.79C228.39 90.0679 229.307 93.3219 229.662 95.0377C230.017 96.7534 230.342 98.41 230.372 98.7354C230.401 99.0608 230.461 99.3271 230.52 99.3271C230.549 99.3271 230.609 99.6525 230.668 100.067C230.697 100.481 230.934 101.605 231.141 102.581C231.437 103.853 231.555 106.752 231.555 112.787C231.526 121.04 231.526 121.277 230.727 124.176C230.283 125.803 229.928 127.578 229.928 128.111C229.928 128.613 229.78 129.116 229.632 129.205C229.484 129.294 229.248 130.122 229.159 131.069C229.041 131.986 228.863 132.903 228.715 133.051C228.597 133.199 228.39 134.204 228.301 135.269C228.153 136.719 228.272 137.666 228.686 139.115C229.011 140.18 229.455 141.511 229.662 142.073C229.869 142.635 230.194 143.523 230.401 143.996C230.579 144.469 231.141 145.741 231.644 146.806C232.147 147.871 232.798 149.528 233.153 150.504C233.478 151.48 233.892 152.812 234.04 153.462C234.218 154.113 234.543 155.385 234.809 156.273C235.075 157.16 235.549 159.468 235.845 161.361C236.17 163.284 236.466 166.005 236.495 167.455C236.525 168.875 236.407 170.886 236.288 171.951C236.14 173.016 236.022 173.933 235.993 174.022C235.963 174.111 235.785 174.969 235.578 175.945C235.371 176.921 235.016 178.311 234.809 179.051C234.602 179.791 234.158 181.003 233.803 181.802C233.448 182.571 233.034 183.252 232.886 183.34C232.738 183.429 232.591 183.755 232.591 184.08C232.591 184.405 231.614 185.737 230.372 187.038C229.159 188.34 228.005 189.405 227.857 189.405C227.709 189.405 227.207 189.641 226.733 189.937C226.29 190.233 225.077 190.706 224.012 190.973C222.947 191.268 221.408 191.505 220.61 191.535C219.781 191.564 218.598 191.475 217.947 191.357C217.297 191.239 216.675 191.091 216.527 191.002C216.409 190.943 215.906 191.032 215.433 191.18C214.96 191.328 214.545 191.564 214.545 191.712C214.545 191.83 214.25 191.978 213.895 192.067C213.51 192.126 212.09 192.185 210.7 192.185C208.57 192.156 207.919 192.038 206.558 191.387C205.671 190.943 204.517 190.322 204.044 190.026C203.57 189.73 203.008 189.523 202.86 189.582C202.713 189.612 201.233 189.937 199.606 190.292C197.979 190.647 196.323 190.884 195.169 190.647L195.406 195.41C195.554 198.812 195.731 200.321 196.027 200.646C196.264 200.883 197.003 201.356 197.713 201.652C198.423 201.977 200.819 203.072 203.008 204.107C205.197 205.172 207.327 206.089 207.742 206.178C208.156 206.267 210.079 206.947 212.031 207.657C213.983 208.367 216.054 209.166 216.616 209.402C217.178 209.639 217.977 210.023 218.391 210.231C218.805 210.438 219.929 210.881 220.906 211.177C221.882 211.473 225.195 212.982 233.922 217.36M107.014 231.116C107.31 231.352 107.606 231.441 107.636 231.264C107.695 231.116 108.848 229.577 110.18 227.862C111.54 226.146 113.227 224.193 113.966 223.543C114.706 222.892 115.978 221.827 116.776 221.146C117.605 220.496 119.291 219.401 120.563 218.721C121.805 218.04 123.048 217.567 123.284 217.656C123.521 217.744 123.699 217.656 123.669 217.508C123.61 217.33 124.497 216.798 125.651 216.295C126.805 215.822 128.994 214.964 130.532 214.431C132.07 213.899 133.609 213.307 133.934 213.159C134.259 212.982 135.62 212.301 136.981 211.621C138.312 210.97 139.555 210.408 139.703 210.408C139.85 210.408 139.998 210.615 139.998 210.852C139.998 211.088 139.407 211.621 138.667 212.035L137.336 212.775C138.371 214.461 139.407 215.703 140.294 216.62C141.241 217.537 143.341 219.076 145.175 220.17C146.95 221.235 148.666 222.241 149.021 222.418C149.346 222.596 150.618 223.069 151.831 223.513C153.044 223.927 154.849 224.43 155.825 224.608C156.801 224.785 157.748 225.022 157.896 225.11C158.073 225.199 157.925 225.465 157.6 225.672C157.126 225.968 156.653 225.968 155.085 225.613C154.02 225.406 152.689 225.11 152.127 224.962C151.565 224.815 150.234 224.341 149.169 223.898C148.104 223.454 146.625 222.714 145.856 222.241C145.057 221.738 144.377 221.353 144.288 221.353C144.199 221.353 143.312 220.762 142.306 220.052C141.27 219.342 139.91 218.188 139.259 217.449C138.608 216.709 137.75 215.496 137.336 214.757C136.685 213.573 136.508 213.396 135.857 213.573C135.443 213.662 134.526 214.047 133.786 214.402C133.047 214.757 131.124 215.496 129.497 216.029C127.87 216.561 125 217.774 123.137 218.721C121.273 219.667 118.818 221.146 117.664 222.004C116.54 222.862 114.706 224.489 113.611 225.643C112.517 226.797 111.126 228.453 110.535 229.341C109.913 230.228 109.055 231.559 108.641 232.299C108.198 233.038 107.665 234.31 107.428 235.109C107.192 235.937 107.044 236.825 107.073 237.121C107.162 237.564 107.695 237.624 113.315 237.653" stroke="#C7ACBE"/>
</svg>
