<svg width="212" height="85" viewBox="0 0 212 85" fill="none" xmlns="http://www.w3.org/2000/svg">
<path d="M38.0183 0.981085C39.0836 0.714762 40.7408 0.389255 41.7173 0.241297C42.6938 0.122931 43.8183 0.00456482 44.2325 0.00456482C44.6468 -0.0250267 45.8897 0.0933394 47.0437 0.241297C48.1978 0.359663 49.8549 0.803536 50.7427 1.18823C51.6304 1.57292 52.9325 2.43107 53.6427 3.08208C54.6192 3.94024 54.9151 4.4137 54.8263 4.97594C54.7671 5.53818 54.412 5.8045 53.258 6.24838C51.9559 6.72184 51.5712 6.75143 50.1509 6.45552C49.2631 6.24838 47.606 6.1596 46.4519 6.24838C45.2978 6.33715 43.1081 6.54429 41.5693 6.72184C40.0306 6.8698 37.4857 7.40245 35.9469 7.9055C34.4082 8.37897 32.1296 9.20753 30.9164 9.76977C29.7031 10.332 27.7501 11.4269 26.6256 12.1963C25.5011 12.9361 24.3766 13.5871 24.1991 13.5575C23.9919 13.5575 23.7552 13.3503 23.6664 13.1136C23.5777 12.8769 23.9624 11.9004 24.5246 10.983C25.0868 10.0361 26.5072 8.29019 27.7205 7.10653C28.9041 5.89328 30.6204 4.44329 31.5082 3.85146C32.3959 3.25963 33.7867 2.49025 34.6153 2.13515C35.4143 1.78006 36.953 1.277 38.0183 0.981085Z" fill="#8C3112"/>
<path d="M81.074 12.4922C81.873 12.1075 83.4117 11.6932 84.4474 11.5749C85.4831 11.4269 87.1994 11.4269 88.2943 11.5749C89.3596 11.7228 90.8984 12.1371 91.7269 12.5218C92.5259 12.8769 93.7984 13.7054 94.5381 14.3565C95.2779 15.0075 96.2249 16.1615 96.6687 16.9013C97.1422 17.6707 97.4973 18.4993 97.4973 18.736C97.4973 18.9727 97.2014 19.3278 96.8167 19.5054C96.2545 19.8013 96.0769 19.7125 95.2779 18.736C94.8045 18.1442 93.7096 16.9901 92.9106 16.1911C91.4606 14.7707 91.3718 14.7411 88.7678 14.3565C87.3178 14.1493 85.3648 14.0605 84.477 14.1493C83.5893 14.2677 81.9913 14.7411 80.926 15.2442C79.8607 15.7473 78.6179 16.5462 78.1444 17.0197C77.7006 17.4636 77.1383 18.1738 76.9312 18.588C76.724 19.0023 76.3394 19.4166 76.073 19.5646C75.7475 19.7125 75.5404 19.5942 75.422 19.2687C75.3037 18.9727 75.4812 18.2034 75.7771 17.5523C76.073 16.9013 77.0791 15.6585 77.9669 14.7707C78.8546 13.883 80.2454 12.8473 81.074 12.4922Z" fill="#8C3112"/>
<path d="M66.8405 16.2207C66.6333 15.4809 66.5446 14.7707 66.6333 14.6524C66.7221 14.534 66.9293 14.4452 67.0772 14.5044C67.2548 14.5636 67.6394 15.0667 67.965 15.6289C68.4088 16.4279 68.4976 17.0197 68.3792 18.2921C68.2905 19.1799 68.1425 21.0441 68.0241 22.4349C67.9354 23.8257 67.9945 25.69 68.1721 26.5778C68.3201 27.4655 68.5864 28.7971 68.7639 29.5369C68.9119 30.2767 69.5925 32.4665 70.2731 34.4195C70.9241 36.3726 71.7231 38.9766 72.0486 40.1899C72.3741 41.4031 73.0251 43.6817 73.5282 45.2204C74.0016 46.7592 74.4159 48.4755 74.4159 49.0081C74.4159 49.7479 74.3271 49.8959 73.972 49.7479C73.6761 49.6 72.9067 47.5877 72.019 44.7765C71.22 42.1725 69.77 37.645 68.7935 34.7154C67.8466 31.7859 66.8997 28.6788 66.7517 27.8502C66.5742 26.992 66.4262 25.1278 66.4262 23.7074C66.4262 22.2574 66.6037 20.3044 66.8109 19.3278C67.1364 17.8779 67.1364 17.286 66.8405 16.2207Z" fill="#8C3112"/>
<path d="M37.4265 16.4575C38.1663 16.1319 39.3499 15.6881 40.0897 15.4513C40.9183 15.2146 42.4866 15.0962 44.2325 15.1554C46.0968 15.2146 47.458 15.4218 48.2274 15.7768C48.8784 16.0728 49.7366 16.4575 50.1213 16.635C50.506 16.8126 51.3641 17.434 52.0151 17.9962C52.6661 18.5585 53.3763 19.387 53.5835 19.8605C53.8202 20.3044 53.9978 20.8074 53.9978 20.9554C53.9978 21.1033 53.7018 21.2513 53.3467 21.2513C52.9621 21.2513 52.2519 20.837 51.7784 20.3339C51.3049 19.8309 50.358 19.1503 49.707 18.7952C48.7305 18.2921 47.9315 18.1738 44.9723 18.1146C41.9244 18.085 41.155 18.1738 39.6459 18.736C38.6693 19.0911 37.0122 19.8309 35.9765 20.3931C34.9112 20.9554 33.7867 21.8135 33.4021 22.287C33.047 22.7605 32.4847 23.7074 32.1888 24.3584C31.8633 25.0094 31.3602 25.6308 31.0939 25.7788C30.798 25.8972 30.5021 25.8084 30.3245 25.5421C30.147 25.3053 30.0878 24.8023 30.147 24.4472C30.2358 24.0625 30.8572 22.9084 31.5674 21.8727C32.2776 20.8074 33.5796 19.2982 34.4673 18.4993C35.3551 17.7003 36.6867 16.783 37.4265 16.4575Z" fill="#8C3112"/>
<path d="M80.0383 18.2625C80.4526 17.7299 81.2515 17.1085 81.8138 16.9013C82.376 16.6942 83.3821 16.5462 84.0332 16.6054C84.7729 16.6646 85.6311 17.0197 86.3709 17.5523C87.0219 18.0554 87.7321 18.884 87.9392 19.387C88.1464 19.9197 88.3239 20.837 88.3239 21.3992C88.3239 21.9615 88.1168 22.938 87.88 23.5594C87.5545 24.388 87.1699 24.7727 86.1933 25.2165C85.4831 25.5125 84.5954 25.7492 84.1811 25.7492C83.7668 25.7788 82.7903 25.4237 81.9617 24.9798C81.1332 24.5359 80.2158 23.7962 79.8903 23.2339C79.5352 22.6421 79.3281 21.7247 79.2985 20.7482C79.2985 19.5646 79.4465 19.0023 80.0383 18.2625Z" fill="#8C3112"/>
<path d="M37.3673 22.79C37.8112 22.2574 38.6989 21.636 39.3499 21.3992C40.0601 21.1625 41.0663 21.0737 41.8652 21.1625C42.605 21.2513 43.5519 21.5176 44.0254 21.7247C44.4693 21.9615 45.0907 22.4941 45.4162 22.938C45.8601 23.5298 46.0376 24.2104 46.008 25.3053C46.008 26.6961 45.8897 26.992 44.9132 28.0277C44.1734 28.7675 43.3152 29.3002 42.4571 29.5369C41.7173 29.7145 40.7408 29.8032 40.2377 29.7145C39.7346 29.6257 38.9061 29.2706 38.403 28.9451C37.8704 28.6196 37.249 28.0573 37.0122 27.7022C36.7755 27.3175 36.5388 26.6961 36.5092 26.2818C36.4796 25.8676 36.4796 25.1278 36.5092 24.6543C36.5388 24.1808 36.9234 23.3227 37.3673 22.79Z" fill="#8C3112"/>
<path d="M114.956 26.9329C115.696 26.5186 116.88 25.9859 117.62 25.7788C118.359 25.5716 119.75 25.4533 120.727 25.4829C121.881 25.5421 123.005 25.8084 123.982 26.2818C124.81 26.6665 125.964 27.4655 126.615 28.0573C127.237 28.6196 128.065 29.6257 128.42 30.2767C128.805 30.9277 129.19 31.9338 129.308 32.4961C129.456 33.0583 129.515 34.094 129.486 34.7746C129.486 35.4848 129.249 36.5501 128.983 37.1419C128.746 37.7634 128.125 38.7103 127.592 39.2429C127.059 39.7756 126.171 40.3378 125.609 40.4858C125.047 40.6633 124.1 40.7817 123.538 40.7817C122.847 40.7817 122.029 40.4661 121.082 39.8348C120.105 39.1542 119.454 38.444 119.01 37.5266C118.685 36.7868 118.359 35.7215 118.271 35.1593C118.211 34.5971 118.359 33.4134 118.626 32.5552C118.981 31.3716 119.425 30.7502 120.52 29.8328C121.289 29.1522 122.088 28.6196 122.295 28.6492C122.473 28.6492 122.65 28.3532 122.65 27.9686C122.65 27.3175 122.621 27.3175 119.632 27.4951C117.738 27.6135 116.554 27.8206 116.525 28.0277C116.465 28.2053 116.258 28.3532 116.051 28.3532C115.844 28.3532 115.075 28.8563 114.394 29.4481C113.713 30.0696 112.914 30.9869 112.678 31.4604C112.411 31.9338 112.145 32.8808 112.027 33.5318C111.908 34.3307 111.672 34.745 111.317 34.7746C110.932 34.8338 110.754 34.5675 110.636 33.7389C110.518 33.0583 110.636 32.2002 110.932 31.4604C111.169 30.8093 111.879 29.6849 112.5 28.9747C113.122 28.2645 114.217 27.3471 114.956 26.9329Z" fill="#8C3112"/>
<path d="M154.491 28.8267C155.142 28.5012 156.148 28.1461 156.71 28.0277C157.272 27.9094 158.633 27.8206 159.787 27.791C161.001 27.7614 162.48 27.9686 163.338 28.2349C164.167 28.5012 164.966 28.8563 165.114 28.9747C165.262 29.1226 165.617 29.241 165.854 29.241C166.09 29.2706 167.008 29.8328 167.896 30.5134C169.168 31.49 169.73 32.2002 170.559 33.9756C171.476 35.8991 171.594 36.4909 171.624 38.4736C171.624 40.5154 171.535 40.8409 170.707 42.0245C170.233 42.7051 169.257 43.7113 168.547 44.1847C167.54 44.8949 166.889 45.1021 165.469 45.1908C163.96 45.2796 163.338 45.1612 161.948 44.5102C160.764 43.9776 159.995 43.3857 159.492 42.6164C159.107 42.0245 158.604 40.7817 158.426 39.8939C158.16 38.5327 158.16 37.9705 158.604 36.4909C158.959 35.2481 159.432 34.3899 160.231 33.5909C161.03 32.792 161.593 32.4961 162.273 32.4961C163.161 32.4961 163.19 32.4665 163.072 31.2236C162.954 29.9882 162.925 29.9808 161.384 29.6029L161.356 29.5961C160.379 29.3594 159.166 29.2706 158.16 29.389C157.272 29.5073 156.059 29.8032 155.497 30.0696C154.934 30.3063 153.958 30.9277 153.307 31.4308C152.686 31.9338 152.005 32.6144 151.857 32.9399C151.679 33.2654 151.324 34.3899 151.058 35.4552C150.673 36.994 150.466 37.3787 149.993 37.3787C149.49 37.3787 149.43 37.2011 149.49 35.8991C149.549 35.0705 149.756 33.8869 149.993 33.2359C150.259 32.5552 151.058 31.49 151.857 30.7502C152.626 30.0104 153.81 29.1522 154.491 28.8267Z" fill="#8C3112"/>
<path d="M0.229952 29.6553C-0.0659632 29.5665 -0.0659632 29.4185 0.170769 29.093C0.37791 28.8267 0.96974 28.6492 1.59116 28.6492C2.18299 28.6492 3.24829 28.9451 3.98808 29.3298C4.69827 29.6849 6.02989 30.7206 6.94723 31.6083C7.83497 32.4961 9.31455 34.3603 10.2319 35.7511C11.238 37.2603 12.1553 39.095 12.54 40.3378C12.8951 41.4919 13.1614 42.7051 13.1614 43.0602C13.1614 43.4449 13.0431 43.8 12.8655 43.8888C12.7176 43.9776 11.9482 43.8 11.1788 43.5337C10.3798 43.2674 9.28496 42.7643 8.72272 42.4388C8.16048 42.1133 7.30233 41.5215 6.79927 41.1368C6.32581 40.7225 5.76357 40.0419 5.58602 39.6276C5.40847 39.2133 5.17174 38.5623 5.05337 38.1776C4.90541 37.6746 4.99419 37.5266 5.46765 37.5266C5.85234 37.5266 6.23703 37.8817 6.59213 38.5623C6.88805 39.1838 7.71661 40.0419 8.57476 40.6041C9.40332 41.1368 10.4094 41.6694 11.6819 41.9654L11.09 40.397C10.7645 39.5684 10.0543 38.148 9.52169 37.2899C9.01863 36.4021 7.83497 34.8338 6.94723 33.7685C6.05948 32.7328 4.69827 31.4604 3.92889 30.9869C3.12992 30.5134 2.06463 30.04 1.56157 29.9512C1.02892 29.8624 0.407501 29.7145 0.229952 29.6553Z" fill="#8C3112"/>
<path d="M134.191 40.7817C134.339 40.3674 134.516 39.6572 134.635 39.2133C134.783 38.6511 134.99 38.4144 135.315 38.4736C135.67 38.5327 135.818 38.8582 135.789 39.4501C135.759 39.9531 135.582 41.196 135.404 42.2613C135.197 43.3266 134.635 45.5163 134.132 47.1439C133.629 48.7714 132.859 50.902 132.386 51.8785C131.942 52.855 131.38 54.1275 131.113 54.6897C130.877 55.2519 130.255 56.4652 129.752 57.3529C129.249 58.2407 128.657 59.1876 128.42 59.4244C128.213 59.6611 127.533 60.7856 126.97 61.9396C126.379 63.0937 125.905 64.2774 125.905 64.6029C125.905 65.0172 126.527 65.609 128.125 66.5855C129.9 67.7396 130.285 68.0947 130.048 68.4498C129.811 68.8049 129.575 68.8345 128.953 68.5681C128.48 68.3906 127.651 67.9763 127.089 67.6212C126.527 67.2661 125.816 66.8222 125.491 66.6743C125.195 66.5263 124.81 66.1712 124.633 65.9345C124.455 65.6386 124.514 64.958 124.84 63.8631C125.077 62.9753 125.905 61.1703 126.645 59.8682C127.414 58.5662 128.48 56.6428 129.012 55.5775C129.575 54.5122 130.433 52.5295 130.965 51.1387C131.468 49.7479 132.267 47.499 132.711 46.1082C133.155 44.7174 133.629 43.1194 133.747 42.5572C133.836 41.9949 134.043 41.196 134.191 40.7817Z" fill="#8C3112"/>
<path d="M203.465 48.5643C204.352 47.8837 206.246 46.7 207.667 45.9602C209.117 45.2204 210.507 44.6286 210.774 44.6286C211.04 44.6286 211.484 44.7765 211.721 44.9245C212.046 45.1316 212.076 45.3388 211.869 45.6939C211.721 45.9602 210.981 46.3449 210.241 46.5224C209.501 46.7296 207.785 47.6173 206.394 48.5051C205.003 49.3928 203.228 50.8724 202.458 51.7601C201.689 52.6479 200.801 53.802 200.535 54.3346C200.2 54.9856 200.131 55.4098 200.328 55.607C200.476 55.7846 201.038 55.8438 201.512 55.755C201.985 55.6662 202.725 55.3111 203.139 54.9856C203.553 54.6601 204.027 54.305 204.175 54.1571C204.323 54.0387 204.737 53.5356 205.063 53.0918C205.477 52.4703 205.802 52.2928 206.187 52.4408C206.453 52.5295 206.69 52.855 206.69 53.1214C206.69 53.4173 205.98 54.4234 205.063 55.3407C203.76 56.7315 203.169 57.1162 202.044 57.3825C200.89 57.6193 200.417 57.5897 199.529 57.2346C198.612 56.8499 198.404 56.6132 198.404 55.9326C198.404 55.4887 198.671 54.6009 198.967 53.9499C199.263 53.2989 200.032 52.0857 200.683 51.2867C201.334 50.4581 202.577 49.2449 203.465 48.5643Z" fill="#8C3112"/>
<path d="M73.1435 56.5836C73.7649 56.3172 75.1261 55.3407 76.1618 54.3642C77.1975 53.4173 78.2332 52.6183 78.4699 52.6183C78.6771 52.6183 78.8546 52.8254 78.8546 53.0622C78.8546 53.2989 78.0261 54.2458 76.9904 55.1632C75.9843 56.0805 74.8302 56.9979 74.4159 57.205C74.0016 57.4121 73.3506 57.6489 72.9659 57.6785C72.5812 57.7376 72.1965 57.6193 72.1374 57.4121C72.1078 57.2346 72.5516 56.8499 73.1435 56.5836Z" fill="#8C3112"/>
<path d="M124.218 82.0619C123.686 81.6476 123.508 81.2925 123.627 80.9374C123.745 80.6711 123.893 80.4343 123.982 80.4343C124.07 80.4343 124.426 80.6415 124.781 80.8782C125.165 81.1149 126.645 81.5884 128.125 81.9139C129.604 82.2394 132.386 82.5945 134.339 82.6833C136.617 82.8313 138.955 82.7425 140.849 82.5058C142.476 82.2986 144.518 81.9435 145.376 81.7068C146.264 81.47 147.152 81.3517 147.389 81.4404C147.625 81.5292 147.803 81.766 147.803 81.9139C147.803 82.0619 147.448 82.5353 146.974 82.9496C146.412 83.4823 145.347 83.8965 143.364 84.3404C141.204 84.8139 139.724 84.9619 137.002 84.9027C135.049 84.8731 132.386 84.6659 131.084 84.4292C129.782 84.1925 127.888 83.6894 126.852 83.3047C125.816 82.9496 124.633 82.3874 124.218 82.0619Z" fill="#8C3112"/>
</svg>
