<svg width="221" height="212" viewBox="0 0 221 212" fill="none" xmlns="http://www.w3.org/2000/svg">
<path fill-rule="evenodd" clip-rule="evenodd" d="M41.6026 0C41.9881 0 42.3143 0.118616 42.3143 0.296539C42.3143 0.474463 41.3357 1.30477 40.1792 2.19439C38.993 3.05436 37.7476 4.09224 37.3917 4.47774C37.0655 4.86325 36.3835 5.84183 35.8794 6.67214C35.4049 7.47279 34.6636 9.0148 34.2484 10.0823C33.8333 11.1499 33.3291 12.7512 33.1512 13.6408C32.9733 14.5304 32.7954 15.598 32.7657 16.0131C32.7064 16.4283 32.4988 16.7545 32.2319 16.7545C31.8761 16.7545 31.7871 16.369 31.8761 14.738C31.9057 13.5815 32.2616 11.8023 32.7064 10.4382C33.1216 9.19272 33.8629 7.41348 34.367 6.52387C34.8711 5.63425 35.7608 4.32947 36.3538 3.61778C36.9469 2.90609 38.222 1.80889 39.171 1.1565C40.1199 0.533771 41.2171 0 41.6026 0ZM50.7656 5.36736C50.7656 5.33771 51.507 5.57494 52.3966 5.87148C53.2862 6.19767 54.4427 6.64248 54.9172 6.87971C55.3917 7.1466 56.3999 7.9176 57.1116 8.6293C57.8233 9.34099 58.8908 10.6754 59.5136 11.565C60.1363 12.4547 61.0852 14.1153 61.6783 15.2718C62.2417 16.4283 63.072 18.4744 63.4872 19.8681C63.932 21.2619 64.2582 22.8039 64.2582 23.2783C64.2285 23.7528 64.3471 24.8203 64.4954 25.6507C64.6733 26.4513 64.9699 27.6671 65.1478 28.3195C65.3554 28.9719 65.7409 31.0773 66.0671 32.9752C66.3636 34.9027 66.8974 37.0674 67.2236 37.8088C67.5498 38.5501 67.8167 39.2322 67.8167 39.3508C67.787 39.499 68.3801 40.2997 69.0621 41.1597C69.7738 42.0493 71.0786 43.2947 71.9682 43.9768C72.8578 44.6292 74.5184 45.6078 75.6749 46.1415C76.8611 46.6753 78.6997 47.2091 79.9748 47.387C81.754 47.6539 82.6733 47.6242 84.5711 47.2684C85.8759 47.0015 87.2993 46.8829 87.7738 46.9718C88.2186 47.0608 89.0192 47.5649 89.553 48.069C90.0571 48.5732 90.9764 49.2255 91.5398 49.5221C92.1032 49.8186 93.3784 50.2931 94.3569 50.56C95.3355 50.8565 96.8775 51.0641 97.7671 51.0641C98.6567 51.0344 99.9912 50.8269 100.733 50.6193C101.652 50.3524 102.245 49.9076 102.66 49.2848C102.986 48.7807 103.55 48.247 103.935 48.069C104.291 47.8911 104.795 47.7428 105.032 47.7428C105.27 47.7428 105.655 48.1876 105.892 48.6918C106.13 49.2255 106.396 50.6786 106.515 51.8944C106.604 53.1102 106.871 55.186 107.108 56.4907C107.316 57.7955 107.612 59.1893 107.701 59.6044C107.82 60.0492 107.672 61.0575 107.316 62.125C106.99 63.1036 106.604 64.3491 106.218 65.8317L104.439 64.4084C103.461 63.6077 101.8 62.4512 100.733 61.8878C99.665 61.2947 98.3305 60.672 97.7671 60.494C97.2037 60.3161 95.5134 60.1678 94.0604 60.1975C92.6073 60.1975 90.5316 60.4347 89.464 60.672C88.3965 60.9388 86.2021 61.7988 84.5711 62.5402C82.9402 63.3112 81.1016 64.3787 80.5085 64.8828C79.8858 65.4166 79.3817 66.0986 79.3817 66.4248C79.3817 66.7807 79.6486 67.0772 80.0637 67.1958C80.4196 67.3144 82.0505 67.2551 83.6815 67.1365C85.3125 66.9882 89.0489 66.8696 91.9846 66.8696C95.5727 66.8696 98.034 67.0179 99.5167 67.3144C100.703 67.5517 101.741 67.8482 101.8 67.9668C101.859 68.1151 102.363 68.2041 102.897 68.2041C103.401 68.2041 104.35 68.3523 106.07 68.7971V70.4874C106.07 71.4363 106.13 72.6225 106.218 73.097C106.278 73.5714 106.426 75.8548 106.574 78.1381C106.693 80.4215 106.812 87.3012 106.812 93.4099C106.812 99.5186 106.723 105.716 106.574 107.199C106.456 108.682 106.218 110.876 106.041 112.092C105.892 113.308 105.625 115.057 105.477 115.947C105.329 116.837 105.121 118.112 105.032 118.764C104.943 119.416 104.588 121.433 104.261 123.212C103.935 124.991 103.52 127.037 103.312 127.72C103.016 128.817 102.897 128.935 102.512 128.579C102.275 128.342 101.148 127.66 99.9912 127.067C98.8347 126.474 96.9961 125.288 95.8396 124.398C94.6831 123.538 92.9039 122.471 91.8363 122.026C90.4723 121.463 89.1675 121.196 87.3883 121.077C85.4904 120.958 84.4229 121.047 83.0884 121.433C82.1098 121.7 80.5678 122.293 79.6782 122.767C78.7886 123.212 77.7507 123.953 77.3652 124.428C76.7721 125.169 76.5646 125.258 75.7343 125.051C75.2005 124.932 73.9254 124.754 72.8578 124.665C71.7903 124.547 70.1297 124.576 67.3718 124.873L67.3125 126.266C67.2829 127.215 66.8974 128.372 66.156 129.884C65.4147 131.337 64.4658 132.642 63.3982 133.68C62.479 134.57 60.8183 135.726 59.6618 136.289C58.5053 136.853 57.4081 137.298 57.2302 137.298C57.0226 137.298 56.8447 137.149 56.8447 137.001C56.8447 136.853 57.675 136.289 58.7129 135.785C59.7508 135.252 61.3521 134.065 62.3603 133.028C63.6058 131.782 64.5251 130.507 65.2664 128.995C65.8595 127.779 66.334 126.415 66.334 125.94C66.334 125.229 66.245 125.169 65.5333 125.347C65.0588 125.436 63.5761 126.148 62.1824 126.889C60.7887 127.66 58.5943 129.084 57.2895 130.092C55.9847 131.07 54.6503 132.197 54.3241 132.583C53.9979 132.968 53.5531 133.591 53.3752 133.947C53.1676 134.332 52.9897 134.866 52.9897 135.133C52.96 135.43 53.4048 135.993 53.9386 136.408C54.4724 136.823 55.273 137.327 55.7475 137.535C56.1923 137.743 57.0523 137.891 57.675 137.891C58.2681 137.891 59.5729 137.624 60.5514 137.327C61.53 137.031 62.5679 136.705 62.8645 136.586C63.2796 136.438 63.3686 136.556 63.3093 137.357C63.2796 137.891 63.4279 138.632 63.6058 138.988C63.8134 139.374 64.0803 139.67 64.2582 139.67C64.4361 139.67 64.5547 139.878 64.5547 140.115C64.5547 140.352 65.1181 140.797 65.8298 141.123C66.5119 141.42 68.1132 141.894 69.3883 142.161C70.7524 142.458 73.1247 142.635 75.3191 142.635C77.3059 142.635 79.7375 142.487 80.7161 142.309C81.6947 142.131 83.0884 141.805 83.8298 141.568C84.5711 141.301 85.6387 140.916 86.2021 140.649C86.7655 140.411 87.5069 140.056 87.8331 139.878C88.1593 139.7 89.4344 139.047 90.6502 138.395C91.866 137.743 93.1115 137.001 93.408 136.734C93.7935 136.408 93.9418 135.963 93.8528 135.281C93.7638 134.451 93.8528 134.332 94.3569 134.451C94.6831 134.54 95.4245 134.688 95.9879 134.777C96.8182 134.955 97.2037 134.836 98.7457 133.591L97.8857 132.257C97.4113 131.515 96.9665 130.863 96.8775 130.774C96.7589 130.685 96.2548 129.825 95.721 128.846C95.1872 127.868 94.861 126.949 95.0093 126.8C95.1279 126.682 95.4245 126.652 95.632 126.741C95.81 126.83 96.403 127.749 96.8775 128.757C97.5299 130.121 98.123 130.833 99.0422 131.456C99.7243 131.901 100.733 132.316 101.266 132.405C101.77 132.494 102.215 132.583 102.215 132.612C102.215 132.672 101.681 134.629 101.029 137.001C100.347 139.374 99.1312 143.051 98.2713 145.156C97.4409 147.261 95.81 150.879 94.6535 153.163C93.497 155.446 91.8067 158.233 90.9171 159.39C89.9978 160.546 88.7523 161.911 88.0999 162.444C87.4772 162.978 85.5497 164.135 83.8298 164.995C82.1098 165.884 79.9155 166.744 78.9369 166.952C77.9583 167.159 75.3488 167.337 73.1544 167.367C70.1 167.397 68.6766 167.278 67.0753 166.833C65.9188 166.537 64.8809 166.181 64.703 166.062C64.5251 165.943 63.932 165.706 63.3686 165.499C62.8051 165.321 60.5218 164.224 58.3274 163.037C56.133 161.881 53.5235 160.398 52.5449 159.746C51.5663 159.123 50.3208 158.233 49.7574 157.818C49.2236 157.373 47.9485 156.365 46.9403 155.565C45.9617 154.764 44.2714 153.37 43.2039 152.451C42.1364 151.561 39.6158 149.13 37.5697 147.084C35.5235 145.037 33.2402 142.458 32.4988 141.301C31.7278 140.145 30.3044 137.743 29.2962 135.963C28.288 134.184 26.3901 130.566 25.115 127.957C23.8399 125.347 22.2386 121.818 21.5862 120.098C20.9041 118.379 20.3704 116.659 20.3704 116.243C20.3704 115.532 20.2814 115.502 18.2946 115.413C17.1381 115.383 15.5368 115.087 14.6768 114.761C13.8169 114.464 12.5714 113.782 11.919 113.278C11.2666 112.774 9.87288 111.528 8.83499 110.52C7.7971 109.512 6.19579 107.673 5.27652 106.458C4.3869 105.242 3.05248 103.047 2.34078 101.565C1.62909 100.082 0.769123 97.8877 0.472584 96.6718C0.0574287 95.0409 -0.061187 93.7361 0.0277748 91.7789C0.116737 89.5252 0.265006 88.8728 1.00635 87.4791C1.48082 86.5895 2.42974 85.4033 3.11178 84.8696C4.17932 84.0689 4.59448 83.9206 5.98821 83.9206C6.90749 83.9206 8.03434 84.1282 8.59776 84.4248C9.10188 84.6917 10.0805 85.3144 10.7328 85.8185C11.3852 86.3226 12.3638 87.2122 12.9272 87.7757C13.4907 88.3391 14.7361 89.8218 15.7444 91.0672C16.7526 92.3127 17.7905 93.7658 18.087 94.2699C18.3539 94.774 18.8284 95.1891 19.1249 95.1891C19.5697 95.1891 19.629 94.7443 19.629 90.2073C19.629 87.4791 19.8069 83.1793 20.0145 80.6587C20.2221 78.1381 20.5483 75.4693 20.7559 74.7576C20.9634 74.0459 21.2896 73.3045 21.4972 73.1266C21.7048 72.9487 21.8827 72.5928 21.8827 72.3556C21.8827 72.1184 22.1793 71.2288 22.5944 70.4281C22.9799 69.5978 23.2468 68.8861 23.1875 68.7971C23.1282 68.7082 23.2765 67.7889 23.5433 66.7214C23.8695 65.3276 23.9881 63.2815 23.9585 59.4561C23.9585 56.5204 23.8399 53.1992 23.6916 52.0427C23.5433 50.8862 23.484 49.3738 23.5433 48.6325C23.573 47.8911 23.6916 46.705 23.7806 45.9636C23.8399 45.2223 23.9881 43.8878 24.1068 42.9982C24.1957 42.1086 24.5812 40.5073 24.9371 39.4397C25.2929 38.3722 25.886 36.9488 26.2418 36.2371C26.5977 35.5551 27.339 34.6951 27.8728 34.3393C28.3769 33.9834 29.5631 33.5979 30.4527 33.4793C31.3423 33.3607 32.4099 33.331 32.825 33.3607C33.2402 33.42 34.367 33.6276 35.3456 33.8351C36.8876 34.1317 37.3324 34.1317 38.6075 33.7165C39.4378 33.4496 40.9502 32.5897 41.9881 31.8187C43.026 31.0477 44.1528 30.2174 44.5087 29.9801C45.0721 29.5946 45.2797 29.6836 46.881 30.7215C48.4526 31.7594 48.8381 31.878 50.4395 31.8483C51.5663 31.8483 52.6338 31.6408 53.2862 31.2849C53.8497 30.9884 54.502 30.5732 54.7096 30.336C54.8875 30.1284 55.9847 29.7429 57.1412 29.5057C58.2977 29.2684 59.5729 29.1498 60.0473 29.2388C60.4921 29.3574 61.1742 29.6243 61.5893 29.8615C62.2417 30.2767 62.4493 30.247 63.3093 29.8319C64.0506 29.4464 64.2285 29.2091 64.1099 28.705C64.021 28.3195 63.6058 26.4217 63.1906 24.4645C62.7755 22.5073 62.1231 19.9274 61.7079 18.7413C61.3224 17.5848 60.2253 15.3607 59.306 13.878C58.3571 12.3657 57.1116 10.5865 56.5185 9.93407C55.8661 9.19272 54.591 8.36241 53.2566 7.73968C51.507 6.93902 50.825 6.7611 49.876 6.90937C49.2236 6.99833 48.0078 7.44314 47.1775 7.9176C46.0803 8.51068 45.2797 9.25203 44.4197 10.5271C43.5597 11.7726 42.7887 13.5222 41.8991 16.3097C41.1874 18.5041 40.5054 21.1729 40.3868 22.2405C40.2682 23.308 40.0902 24.2866 40.0013 24.4645C39.9123 24.6424 39.7344 24.4942 39.6158 24.168C39.4972 23.8418 39.3785 22.9818 39.3785 22.2405C39.3785 21.4991 39.5565 20.1054 39.8234 19.1268C40.0606 18.1482 40.624 16.28 41.0392 14.9752C41.4543 13.6705 42.166 11.8616 42.6108 10.972C43.0556 10.0823 43.7673 8.92583 44.1528 8.45137C44.568 7.97691 45.5169 7.20591 46.2583 6.7611C47.0293 6.28663 48.3637 5.81217 49.2236 5.6639C50.054 5.51563 50.7656 5.39702 50.7656 5.36736ZM91.6881 23.1301C91.777 23.1301 92.0736 23.219 92.3405 23.308C92.6667 23.4266 92.8446 23.7528 92.7853 24.1383C92.7556 24.4645 93.0521 25.621 93.4673 26.6885C93.9121 27.7561 94.4162 28.9422 94.5941 29.3574C94.8017 29.7726 95.3355 30.7808 95.8396 31.5814C96.3141 32.4118 97.3223 33.7165 98.0637 34.5172C98.805 35.3178 99.9912 36.3557 100.733 36.8302C101.474 37.275 102.927 37.957 103.994 38.2832C105.062 38.6391 106.426 38.8763 107.019 38.817C107.642 38.7577 108.146 38.7577 108.146 38.8467C108.146 38.9356 107.79 39.2322 107.405 39.5287C106.812 39.9439 106.337 40.0032 104.973 39.8252C103.994 39.7066 102.363 39.2025 101.177 38.6094C99.7243 37.9274 98.5678 37.0674 97.3816 35.7923C96.4327 34.7841 95.3652 33.3607 95.0093 32.649C94.6535 31.9373 94.268 31.3146 94.1493 31.2553C94.0011 31.1959 93.5859 30.4249 93.2004 29.5946C92.8149 28.7347 92.1922 27.1037 91.8363 25.9472C91.4805 24.7907 91.2729 23.6935 91.3619 23.5156C91.4508 23.308 91.5991 23.1301 91.6881 23.1301ZM87.3883 34.9916C87.7836 34.9916 87.9813 35.1893 87.9813 35.5847C87.9813 35.9109 88.0999 36.415 88.2482 36.7116C88.4261 36.9785 88.9303 38.0757 89.3751 39.1135C89.9385 40.3887 90.7391 41.4859 91.8363 42.5534C92.726 43.4134 94.3866 44.5699 95.5431 45.1333C96.9072 45.7857 98.5085 46.2898 100.139 46.527C101.533 46.7643 102.808 47.0015 102.957 47.0905C103.134 47.1498 103.046 47.3277 102.808 47.476C102.571 47.6242 101.622 47.7428 100.733 47.7428C99.8429 47.7428 98.2416 47.5056 97.174 47.2091C96.0768 46.9125 94.3569 46.1119 93.1708 45.3409C92.0143 44.5699 90.5019 43.2354 89.7606 42.3755C88.9599 41.3969 88.1296 39.9142 87.6255 38.5501C87.1807 37.3343 86.7952 36.0295 86.7952 35.6737C86.7952 35.1992 86.9731 34.9916 87.3883 34.9916ZM148.06 42.761C148.09 42.8203 147.912 43.7989 147.704 44.9257C147.437 46.1712 147.26 48.8104 147.26 51.4496C147.26 54.2964 147.437 56.8169 147.734 58.4183C148.001 59.812 148.416 61.8581 148.683 63.0146C148.95 64.1711 149.691 66.3655 150.344 67.9075C150.966 69.4495 152.39 72.4742 153.457 74.5796C154.554 76.6851 155.77 78.8498 156.215 79.3243C156.897 80.0953 157.283 80.2436 159.18 80.4511C160.396 80.5994 162.709 80.7477 164.34 80.8366C165.971 80.8959 168.077 81.1332 169.026 81.3407C170.419 81.6373 171.101 82.0228 172.732 83.4165C173.829 84.3655 175.253 85.4033 175.905 85.7295C176.558 86.0557 177.773 86.7081 178.574 87.1826C179.404 87.657 180.976 88.4281 182.133 88.8729C183.289 89.288 184.416 89.8218 184.653 90.0294C184.89 90.2369 185.839 90.741 186.729 91.1265C187.619 91.5417 189.279 92.1348 190.436 92.461C192.304 93.0244 192.63 93.232 193.698 94.6554C194.35 95.4857 195.684 96.998 196.663 98.0063C197.642 98.9848 198.857 100.052 199.332 100.379C199.806 100.705 200.488 101.12 200.815 101.328C201.141 101.535 201.882 101.921 202.445 102.187C203.009 102.454 204.225 102.751 205.114 102.84C206.152 102.929 207.131 102.84 207.783 102.603C208.347 102.365 209.562 101.683 210.452 101.061C211.549 100.319 212.557 99.8745 213.566 99.7558C214.811 99.5779 215.315 99.6669 216.768 100.319C218.251 101.031 218.577 101.328 219.348 102.84C219.852 103.759 220.356 104.975 220.475 105.538C220.594 106.072 220.742 106.576 220.831 106.606C220.92 106.665 220.95 107.673 220.89 108.889C220.861 110.075 220.534 111.973 220.179 113.13C219.823 114.286 219.289 115.68 218.963 116.243C218.637 116.807 217.895 118.023 217.302 118.912C216.709 119.772 215.048 121.729 213.566 123.212C211.549 125.288 210.393 126.178 208.821 126.949C207.012 127.838 206.389 127.957 203.928 128.075C201.497 128.164 200.933 128.105 199.866 127.542C199.154 127.215 198.531 126.741 198.472 126.563C198.383 126.266 198.235 126.266 197.819 126.504C197.404 126.741 197.286 127.097 197.345 127.838C197.404 128.579 196.96 129.825 195.506 132.701C194.469 134.807 192.689 138.039 191.622 139.818C190.525 141.598 188.805 144.177 187.796 145.542C186.818 146.906 185.187 148.981 184.238 150.138C183.259 151.324 182.044 152.599 181.569 153.014C181.065 153.429 180.502 153.904 180.353 154.082C180.205 154.289 178.722 155.565 177.091 156.899C175.46 158.263 173.592 159.746 172.94 160.191C172.287 160.606 170.479 161.673 168.937 162.533C167.395 163.393 165.378 164.49 164.488 164.906C163.599 165.35 161.671 166.21 160.189 166.803C158.706 167.396 156.512 168.227 155.296 168.642C154.08 169.027 151.797 169.621 150.255 169.947C148.713 170.273 146.4 170.51 145.154 170.51C143.879 170.51 141.477 170.243 139.816 169.917C138.126 169.591 136.021 169.057 135.131 168.701C134.241 168.375 133.026 167.812 132.462 167.456C131.899 167.13 130.446 166.062 129.289 165.113C128.103 164.164 127.125 163.304 127.125 163.186C127.125 163.037 126.887 162.682 126.591 162.355C126.294 162.029 125.316 160.665 124.426 159.36C123.536 158.026 122.35 156.158 121.757 155.209C121.164 154.23 120.215 152.451 119.622 151.235C119.059 150.019 118.11 147.736 117.487 146.194C116.894 144.652 116.182 142.784 115.975 142.042C115.737 141.301 115.263 139.522 114.937 138.039C114.611 136.556 114.077 133.769 113.751 131.812C113.424 129.855 113.098 127.512 113.009 126.622C112.92 125.733 112.831 120.988 112.831 116.095C112.831 111.202 112.92 105.805 113.009 104.085C113.128 102.365 113.276 100.438 113.335 99.7855C113.395 99.1331 113.691 95.2781 113.958 91.1859C114.344 84.9289 114.492 83.7131 114.907 83.4758C115.204 83.3276 116.212 82.8828 117.19 82.5269C118.169 82.2007 119.741 81.6076 120.69 81.2814C121.609 80.9256 123.536 80.4511 124.989 80.2139C126.413 79.9767 128.281 79.7691 129.141 79.7691C129.971 79.7691 131.098 79.5615 131.573 79.3243C132.047 79.0871 132.729 78.5236 133.026 78.0788C133.352 77.6044 133.975 76.2403 134.39 75.0245C134.835 73.8087 135.279 72.148 135.428 71.3177C135.576 70.5171 135.813 69.3606 135.991 68.7971C136.169 68.2337 136.643 66.5434 137.059 65.0904C137.444 63.6374 138.274 60.6127 138.838 58.4183C139.461 56.1053 140.35 53.555 141.003 52.3392C141.596 51.1827 142.456 49.6703 142.9 48.929C143.345 48.1876 144.176 47.0608 144.68 46.4084C145.213 45.7857 146.192 44.6588 146.815 43.9768C147.467 43.2651 148.001 42.7313 148.06 42.761ZM112.802 47.8911C113.009 48.2173 113.187 48.7807 113.187 49.1662C113.187 49.5221 112.891 50.3227 112.505 50.9455C112.12 51.5385 111.378 53.0509 110.845 54.2667C110.281 55.4825 109.718 56.6094 109.54 56.7873C109.362 56.985 109.312 56.9356 109.391 56.639C109.48 56.4018 109.421 55.8977 109.303 55.5418C109.125 55.0674 109.154 54.8005 109.421 54.6522C109.658 54.5039 110.192 53.8219 110.607 53.0805C111.022 52.3392 111.467 51.153 111.556 50.4117C111.675 49.6703 111.882 48.6621 112.06 48.1876C112.387 47.3277 112.416 47.3277 112.802 47.8911ZM165.259 57.2321C165.645 57.2321 166.09 58.3886 167.246 62.214C168.077 64.9421 169.263 68.2337 169.915 69.5385C170.538 70.8433 171.783 72.9783 172.614 74.2831C173.474 75.5879 174.66 77.545 175.253 78.6719C175.846 79.7691 176.35 80.8366 176.35 81.0442C176.35 81.2221 175.757 80.7477 175.045 79.9174C174.304 79.1167 173.681 78.2864 173.681 78.1381C173.652 77.9899 173.177 77.2485 172.643 76.5072C172.08 75.7658 171.042 74.1052 170.301 72.8004C169.589 71.4956 168.521 69.4199 167.958 68.2041C167.395 66.9882 166.564 64.9125 166.119 63.6077C165.704 62.3029 165.141 60.494 164.904 59.6044C164.666 58.7148 164.518 57.7955 164.607 57.6176C164.696 57.41 164.993 57.2321 165.259 57.2321ZM177.625 62.7774C177.951 63.0739 178.93 64.8532 179.79 66.7214C180.68 68.5896 181.569 70.4578 181.777 70.8729C181.984 71.2881 182.666 72.5335 183.319 73.69C183.941 74.8465 185.365 77.2485 186.521 79.0277C187.648 80.807 188.864 82.7641 189.19 83.3276C189.487 83.891 190.109 84.9585 190.525 85.6999C190.94 86.4412 191.859 87.7757 192.541 88.6653C193.253 89.5549 194.231 90.7707 194.706 91.3341C195.21 91.8976 196.574 93.4099 197.76 94.7147C198.946 95.9898 200.726 97.6208 201.704 98.3621C202.683 99.0738 203.928 99.7558 204.492 99.8745C205.025 99.9931 205.53 100.171 205.589 100.319C205.648 100.438 205.53 100.586 205.352 100.645C205.144 100.705 204.492 100.675 203.928 100.557C203.365 100.438 202.238 99.9338 201.408 99.4297C200.607 98.8959 198.976 97.5021 197.849 96.316C196.693 95.1298 195.002 93.2913 194.083 92.2237C193.164 91.1562 191.889 89.6439 191.266 88.8135C190.673 88.0129 188.894 85.2551 187.352 82.7345C185.81 80.2139 183.823 76.863 182.963 75.321C182.073 73.779 180.857 71.4363 180.235 70.1316C179.582 68.8268 178.544 66.6027 177.862 65.1794C177.18 63.7263 176.736 62.5105 176.854 62.4215C176.943 62.3326 177.299 62.5105 177.625 62.7774ZM108.087 80.1249C108.205 80.2139 108.709 81.0442 109.184 81.9635C109.658 82.8828 110.133 83.6241 110.222 83.6241C110.311 83.5945 110.963 84.3655 112.98 87.0343L112.742 91.0376C112.624 93.232 112.475 95.456 112.446 95.9305C112.387 96.405 112.268 97.947 112.179 99.3407C112.06 100.734 111.912 102.781 111.853 103.937C111.764 105.094 111.616 108.533 111.378 117.281L110.103 119.654C109.421 120.958 108.561 122.945 108.205 124.102C107.879 125.258 107.405 126.919 107.138 127.808C106.901 128.698 106.604 129.973 106.485 130.626C106.396 131.278 106.07 132.82 105.774 134.036C105.447 135.252 105.151 136.942 105.032 137.743C104.943 138.573 104.736 140.619 104.588 142.339C104.439 144.059 104.35 145.719 104.439 146.046C104.499 146.372 104.647 147.766 104.736 149.159C104.825 150.553 105.032 152.214 105.21 152.866C105.388 153.518 105.596 154.527 105.655 155.09C105.744 155.654 105.892 156.276 106.011 156.425C106.1 156.573 106.219 156.988 106.248 157.314C106.278 157.64 106.93 159.242 107.701 160.873C108.472 162.504 109.836 164.728 110.696 165.854C111.586 166.952 112.446 167.841 112.653 167.841C112.831 167.841 112.891 167.93 112.802 168.079C112.683 168.197 112.446 168.138 112.238 167.96C112.031 167.812 110.845 167.278 109.629 166.833C108.413 166.388 105.151 164.935 102.363 163.63C99.576 162.296 97.0258 161.08 96.6699 160.902C96.0175 160.576 95.9879 160.428 96.0472 156.869C96.0769 153.192 96.0768 153.133 97.263 150.79C97.8857 149.486 99.0719 146.757 99.8725 144.711C100.673 142.665 101.681 139.729 102.097 138.187C102.512 136.645 103.134 134.362 103.461 133.146C103.787 131.93 104.35 129.439 104.736 127.66C105.121 125.881 105.833 122.056 106.337 119.209C106.812 116.362 107.345 112.685 107.523 111.054C107.701 109.423 107.998 106.072 108.146 103.641C108.324 100.942 108.354 95.5153 108.235 89.8514C108.116 84.7213 107.968 80.3918 107.938 80.2436C107.879 80.0953 107.938 80.036 108.087 80.1249ZM202.505 92.2237C202.712 92.2237 203.216 92.6982 203.632 93.3209C204.047 93.9437 204.907 94.7147 205.559 95.0409C206.212 95.3967 208.228 95.9601 210.007 96.316C211.786 96.6718 214.011 97.0277 214.9 97.1166C216.324 97.2353 216.709 97.4132 217.955 98.5993C218.726 99.3407 219.348 99.9931 219.348 100.082C219.348 100.171 218.459 99.7262 217.361 99.1331C215.582 98.1842 215.019 98.0359 212.38 97.8283C210.749 97.7097 208.554 97.3835 207.487 97.1166C206.419 96.8498 205.174 96.3753 204.67 96.0788C204.195 95.7822 203.424 95.1298 202.979 94.6257C202.505 94.1216 202.149 93.3802 202.149 92.9651C202.149 92.5499 202.327 92.2237 202.534 92.2237H202.505ZM85.8759 125.436C86.3207 125.436 86.8248 126.118 87.9517 128.342C88.782 129.914 89.9385 131.782 90.5612 132.464C91.5991 133.621 91.6288 133.68 90.9171 133.532C90.5019 133.413 89.7309 132.998 89.1971 132.583C88.5448 132.079 87.6848 130.774 86.7359 128.935C85.9352 127.334 85.2828 125.881 85.2828 125.733C85.2828 125.584 85.5497 125.436 85.8759 125.436ZM26.4791 134.184C26.7163 134.659 27.1018 135.281 27.3094 135.518C27.517 135.756 28.199 136.883 28.7921 138.039C29.4148 139.196 30.2155 140.56 30.601 141.093C30.9865 141.598 31.3127 142.191 31.3127 142.339C31.3127 142.487 33.5367 144.889 36.2945 147.617C39.0227 150.345 41.9584 153.192 42.8481 153.904C43.708 154.645 44.6273 155.416 44.8349 155.624C45.0721 155.802 45.339 155.98 45.4872 155.98C45.6059 155.98 46.5844 156.78 47.7113 157.759C48.8085 158.738 49.7574 159.538 49.8464 159.538C49.9353 159.538 50.7063 160.102 51.5663 160.813C52.4559 161.495 54.1462 162.919 55.362 163.957C56.5778 165.024 58.4164 166.448 59.4839 167.13C60.5514 167.812 62.6272 168.968 64.0803 169.709C65.563 170.451 67.2236 171.251 67.787 171.489C68.3504 171.756 69.5662 172.171 70.4559 172.467C71.3455 172.764 72.413 173.06 72.8282 173.09C73.2433 173.12 75.1412 173.179 77.0687 173.179C78.9665 173.179 80.7161 173.09 80.9237 172.971C81.1016 172.853 81.5168 172.705 81.8133 172.675C82.0802 172.616 83.207 172.171 84.3339 171.637C85.4311 171.133 86.5876 170.451 86.9138 170.154C87.5069 169.621 87.5958 169.65 91.866 171.756C94.268 172.942 96.3141 173.831 96.4624 173.713C96.581 173.594 96.6106 172.734 96.492 171.785C96.3734 170.836 96.1658 168.197 96.0472 165.943C95.8693 162.83 95.8989 161.851 96.1658 161.94C96.3437 161.999 97.9747 162.8 103.046 165.321L103.075 166.744C103.075 167.841 102.749 168.79 101.474 171.34C100.584 173.09 99.1015 175.522 98.1526 176.767C97.174 178.013 95.4838 180.088 94.3866 181.363C93.2894 182.668 91.866 184.092 91.2729 184.536C90.6798 185.011 89.2565 185.93 88.0999 186.612C86.9731 187.265 84.749 188.362 83.207 189.044C81.665 189.726 79.6486 190.467 78.759 190.734C77.8693 191.001 76.0011 191.564 74.6074 191.95C73.2137 192.365 71.2269 192.84 70.1593 193.017C69.0918 193.166 67.3125 193.403 66.156 193.522C65.0292 193.611 62.7458 193.729 61.1149 193.788C59.4839 193.848 56.4889 193.7 54.4427 193.492C52.3966 193.284 49.876 192.869 48.8085 192.602C47.7409 192.335 46.0803 191.831 45.1017 191.505C44.1232 191.179 42.7887 190.675 42.1364 190.378C41.484 190.111 40.624 189.756 40.2088 189.637C39.7937 189.518 38.0738 188.688 36.3538 187.769C34.6339 186.879 32.6471 185.752 31.9057 185.278C31.1644 184.774 29.7114 183.38 28.6735 182.134C27.6356 180.859 26.3308 178.932 25.797 177.775C25.2336 176.619 24.6405 175.077 24.0475 172.912L26.657 171.133C28.0804 170.125 29.3852 169.324 29.5334 169.324C29.7114 169.324 29.83 169.591 29.83 169.917C29.83 170.243 30.0079 170.599 30.2155 170.688C30.3934 170.777 30.7196 170.718 30.8679 170.54C31.0754 170.303 30.9865 169.146 30.6603 167.011C30.3637 165.261 29.8003 161.169 29.3852 157.907C28.97 154.645 28.4659 150.375 28.199 148.418C27.9618 146.461 27.4873 143.199 27.1908 141.153C26.8646 139.107 26.4494 136.645 26.3012 135.667C26.1232 134.688 25.975 133.739 25.975 133.591C26.0046 133.443 26.2122 133.71 26.4791 134.184ZM79.6782 133.739C79.8265 133.739 80.3899 134.451 80.9237 135.311C81.4871 136.141 82.1098 137.001 82.3471 137.209C82.5843 137.387 83.0884 137.565 83.5036 137.624C83.9187 137.654 84.7787 137.535 85.4311 137.357C86.0835 137.149 86.7359 137.001 86.9138 137.001C87.0917 137.001 87.0917 137.09 86.9138 137.238C86.7359 137.387 85.8759 137.802 84.9863 138.128C84.0967 138.484 82.3471 138.988 81.1313 139.255C79.9155 139.492 76.6535 139.789 68.9435 140.056L70.2483 138.603C70.96 137.802 71.8199 136.705 72.1165 136.171C72.4427 135.637 72.7689 135.222 72.9171 135.222C73.0358 135.222 73.1247 135.518 73.1247 135.904C73.1247 136.26 73.3916 137.001 73.7178 137.535C74.044 138.039 74.5481 138.543 74.8446 138.632C75.1115 138.721 75.8529 138.632 76.5053 138.425C77.3356 138.128 77.81 137.713 78.3141 136.853C78.67 136.201 79.0555 135.222 79.1741 134.718C79.2927 134.184 79.53 133.739 79.6782 133.739ZM186.432 150.494C186.581 150.553 186.759 156.128 186.848 162.859C186.937 169.591 187.085 175.581 187.144 176.144C187.203 176.708 187.322 179.021 187.589 185.337L186.195 186.464C185.394 187.087 184.238 187.917 183.586 188.273C182.933 188.658 181.539 189.281 180.472 189.696C179.404 190.111 177.951 190.645 177.21 190.882C176.469 191.09 174.482 191.564 172.762 191.891C171.042 192.246 168.462 192.602 166.979 192.721C165.526 192.81 162.502 192.81 160.307 192.662C157.668 192.513 155.652 192.217 154.376 191.831C153.309 191.505 151.441 190.734 150.225 190.141C148.713 189.4 147.378 188.451 144.087 185.189L143.879 181.334C143.76 179.228 143.553 176.678 143.434 175.7C143.286 174.721 143.227 173.861 143.286 173.772C143.345 173.683 143.553 173.772 143.76 173.98C143.968 174.158 144.887 174.513 145.777 174.78C146.904 175.136 148.179 175.225 149.928 175.166C151.322 175.077 153.309 174.81 154.376 174.513C155.444 174.217 156.423 173.861 156.601 173.742C156.749 173.594 157.045 173.476 157.253 173.476C157.46 173.476 158.409 173.12 159.358 172.675C160.278 172.23 162.383 171.103 164.014 170.125C165.645 169.176 167.128 168.227 167.276 168.019C167.454 167.812 168.521 167.041 169.648 166.299C170.864 165.528 172.703 163.868 174.096 162.355C175.401 160.902 177.269 158.975 178.218 158.085C179.197 157.166 181.391 155.06 183.081 153.4C184.801 151.739 186.314 150.434 186.432 150.494ZM200.162 154.853C200.34 154.942 200.518 155.387 200.577 155.861C200.637 156.336 200.399 157.996 200.044 159.538C199.688 161.08 199.065 163.364 198.65 164.579C198.205 165.795 197.553 167.308 197.167 167.93C196.782 168.523 195.892 169.798 195.21 170.747C194.498 171.667 193.727 172.527 193.49 172.645C193.253 172.734 192.867 172.705 192.63 172.556C192.393 172.408 192.334 172.289 192.482 172.319C192.66 172.319 193.579 171.133 194.558 169.709C195.506 168.286 196.722 166.032 197.256 164.728C197.79 163.423 198.472 161.228 198.828 159.835C199.154 158.441 199.48 156.78 199.569 156.128C199.628 155.476 199.717 154.912 199.747 154.853C199.777 154.794 199.955 154.794 200.162 154.853ZM137.325 170.629C137.474 170.688 138.482 170.925 139.52 171.133C140.558 171.37 141.507 171.756 141.625 171.993C141.744 172.23 141.922 173.772 142.04 175.403C142.159 177.034 142.337 178.843 142.426 179.406C142.604 180.355 142.574 180.415 142.04 180.177C141.744 180.029 139.075 178.991 136.139 177.864C133.204 176.737 128.815 175.018 126.354 174.039C123.922 173.06 121.55 172.111 121.075 171.904C120.63 171.696 120.274 171.459 120.274 171.34C120.274 171.192 121.253 171.192 122.439 171.311C123.596 171.429 125.049 171.518 125.612 171.518C126.176 171.489 128.844 171.4 131.543 171.311C134.241 171.192 136.554 170.955 136.732 170.807C136.881 170.629 137.148 170.54 137.325 170.629ZM188.656 186.227C188.716 186.227 189.665 186.672 190.791 187.235C191.889 187.769 194.498 189.014 200.399 191.713L198.057 193.937C196.782 195.153 194.943 196.754 193.964 197.495C192.986 198.237 191.266 199.393 190.109 200.075C188.983 200.728 187.233 201.676 186.254 202.181C185.276 202.685 183.289 203.456 181.806 203.871C180.353 204.286 177.862 204.879 176.32 205.176C174.778 205.502 172.169 205.887 170.538 206.095C168.907 206.273 167.039 206.48 166.386 206.54C165.734 206.629 163.836 206.688 162.175 206.688C160.485 206.688 159.032 206.629 158.914 206.569C158.765 206.51 157.668 206.362 156.452 206.273C155.236 206.154 153.101 205.798 151.708 205.472C150.314 205.146 148.386 204.612 147.408 204.256C146.429 203.93 144.828 203.278 143.849 202.833C142.871 202.388 141.21 201.499 140.143 200.816C139.075 200.164 137.533 198.889 136.703 198.029C135.902 197.169 135.042 196.042 134.835 195.568C134.627 195.093 134.538 194.441 134.627 194.174C134.716 193.877 135.635 193.077 136.673 192.395C137.681 191.713 139.638 190.141 143.464 186.672L144.976 188.184C145.836 189.014 147.467 190.26 148.594 190.942C149.75 191.624 151.204 192.306 151.856 192.484C152.508 192.632 153.576 192.988 154.228 193.225C154.881 193.492 157.075 193.848 159.121 193.996C161.167 194.174 163.51 194.293 164.311 194.293C165.141 194.263 167.128 194.115 168.759 193.937C170.39 193.788 172.673 193.433 173.8 193.166C174.956 192.899 176.884 192.365 178.1 192.009C179.315 191.624 181.451 190.793 182.844 190.141C184.238 189.489 186.077 188.362 186.937 187.591C187.826 186.849 188.597 186.227 188.656 186.227ZM204.818 193.64C204.966 193.64 205.144 193.788 205.233 193.937C205.322 194.085 204.907 194.856 204.314 195.657C203.721 196.428 202.653 197.584 201.941 198.237C201.23 198.889 200.251 199.749 199.717 200.164C199.213 200.579 198.65 201.054 198.442 201.202C198.264 201.38 197.523 201.884 196.782 202.388C196.04 202.863 195.062 203.485 194.558 203.752C194.083 204.019 193.193 204.523 192.63 204.849C192.067 205.205 190.732 205.887 189.665 206.421C188.597 206.925 186.61 207.785 185.217 208.319C183.823 208.882 181.302 209.653 179.582 210.069C177.862 210.484 175.075 211.017 173.355 211.284C171.635 211.522 168.314 211.818 165.942 211.907C163.569 212.026 161.286 212.026 160.841 211.937C160.367 211.818 160.011 211.522 160.011 211.284C160.011 210.928 160.574 210.84 163.213 210.84C164.963 210.84 168.136 210.632 170.241 210.395C172.376 210.157 174.838 209.831 175.727 209.683C176.617 209.535 178.218 209.209 179.286 208.942C180.353 208.704 182.34 208.111 183.734 207.637C185.128 207.162 188.063 205.858 190.258 204.701C192.452 203.574 195.21 201.973 196.337 201.172C197.493 200.372 199.806 198.355 201.497 196.695C203.187 195.004 204.699 193.64 204.818 193.64Z" fill="#C7ACBE"/>
</svg>
