<svg width="1380" height="611" viewBox="0 0 1380 611" fill="none" xmlns="http://www.w3.org/2000/svg">
<path d="M690.001 0C734.073 0 772.004 54.6614 813.547 62.1005C856.535 69.8629 914.696 32.3446 954.433 46.8988C994.892 61.777 1006.09 125.171 1041.85 146.842C1077.98 168.512 1147.7 153.958 1178.41 181.127C1209.11 208.619 1192.5 271.042 1216.7 303.386C1240.54 335.406 1311.34 345.757 1328.32 381.658C1344.58 417.237 1303.04 468.987 1311.34 507.8C1319.13 542.947 1380 568.776 1380 611H0C6.802 574.652 60.8728 542.645 68.6566 507.8C77.3266 469.311 35.4219 417.237 51.678 381.658C68.2956 345.434 139.1 335.406 163.304 303.386C187.506 271.042 171.251 208.619 201.595 181.127C232.301 153.634 302.022 168.512 338.146 146.842C373.91 125.495 385.47 62.1005 425.568 46.8988C465.305 32.3444 523.104 69.5393 566.454 62.1005C608.358 54.6614 645.929 8.04544e-05 690.001 0Z" fill="#70270E"/>
</svg>
