<svg width="1379" height="615" viewBox="0 0 1379 615" fill="none" xmlns="http://www.w3.org/2000/svg">
<path d="M689.501 0.5C711.333 0.500178 731.69 14.1424 751.883 28.8496C761.956 36.1864 771.984 43.7827 782.085 50.0068C792.188 56.2322 802.402 61.11 812.868 62.998V62.999C823.692 64.9678 835.447 64.0613 847.583 61.8438C859.718 59.6265 872.276 56.0899 884.696 52.7764C897.129 49.4595 909.427 46.3653 921.09 45.0117C932.752 43.6584 943.742 44.0493 953.567 47.6738V47.6748C973.593 55.0923 986.417 74.6222 998.751 95.1982C1004.9 105.461 1010.93 115.975 1017.65 125.281C1024.38 134.59 1031.82 142.727 1040.84 148.229L1040.84 148.231C1049.94 153.731 1061.14 156.918 1073.25 159.044C1085.36 161.169 1098.44 162.24 1111.31 163.48C1124.19 164.722 1136.87 166.133 1148.24 168.937C1159.26 171.652 1169.01 175.665 1176.5 182.06L1177.22 182.686C1184.8 189.522 1189.48 198.545 1192.6 208.782C1195.72 219.025 1197.27 230.45 1198.62 242.068C1199.98 253.672 1201.13 265.475 1203.46 276.405C1205.79 287.338 1209.31 297.448 1215.42 305.668V305.669C1221.43 313.806 1230.39 320.541 1240.66 326.628C1250.93 332.715 1262.56 338.18 1273.94 343.749C1285.33 349.325 1296.48 355.007 1305.84 361.544C1315.19 368.08 1322.72 375.443 1326.91 384.362V384.363C1330.91 393.198 1331.37 403.063 1329.9 413.54C1328.43 424.021 1325.04 435.072 1321.38 446.265C1317.73 457.442 1313.82 468.765 1311.34 479.73C1308.86 490.698 1307.81 501.36 1309.91 511.229L1309.91 511.231C1311.88 520.192 1317.2 528.525 1324.01 536.625C1330.83 544.723 1339.19 552.642 1347.26 560.744C1363.33 576.87 1378.26 593.715 1378.49 614.5H0.607422C2.3756 605.662 6.91274 597.051 12.9023 588.555C19.0251 579.87 26.6391 571.339 34.3066 562.83C41.9661 554.33 49.6805 545.851 55.9639 537.303C62.2466 528.755 67.1283 520.1 69.0947 511.233C71.2838 501.444 70.2751 490.821 67.8145 479.868C65.3542 468.917 61.429 457.584 57.7559 446.386C54.0778 435.173 50.6504 424.091 49.1514 413.585C47.6529 403.082 48.0887 393.198 52.0957 384.364C56.1954 375.362 63.6521 367.957 72.9619 361.405C82.2716 354.854 93.3951 349.182 104.789 343.627C116.17 338.078 127.826 332.644 138.142 326.583C148.457 320.522 157.48 313.807 163.585 305.672L163.587 305.67C169.694 297.45 173.233 287.34 175.592 276.406C177.95 265.476 179.137 253.673 180.512 242.069C181.888 230.45 183.453 219.025 186.558 208.781C189.661 198.542 194.294 189.518 201.785 182.681C209.37 175.841 219.389 171.617 230.758 168.799C242.128 165.981 254.808 164.579 267.691 163.358C280.562 162.139 293.64 161.098 305.752 158.998C317.864 156.898 329.057 153.73 338.159 148.23C347.174 142.81 354.644 134.734 361.397 125.466C368.149 116.2 374.21 105.705 380.385 95.4424C392.764 74.8652 405.59 55.2522 425.438 47.6729L425.438 47.6719C435.262 44.0485 446.229 43.6381 457.861 44.9658C469.496 46.294 481.76 49.3579 494.17 52.6543C506.567 55.9474 519.114 59.4745 531.265 61.707C543.418 63.9399 555.216 64.8862 566.129 63L566.131 62.999C576.688 61.1113 586.948 56.2327 597.068 50.0068C607.186 43.7825 617.204 36.1865 627.255 28.8496C647.088 14.3719 667.036 0.926357 688.479 0.509766L689.501 0.5Z" fill="#101C26" stroke="black"/>
</svg>
