<svg width="923" height="385" viewBox="0 0 923 385" fill="none" xmlns="http://www.w3.org/2000/svg">
<path d="M0 370.639C0 370.639 0.340273 368.518 0.897099 365.292C1.46939 362.022 2.3201 357.736 3.20175 353.464C4.11432 349.163 5.08876 344.921 5.83119 341.725C6.60456 338.47 7.13046 336.393 7.13046 336.393C7.13046 336.393 10.1002 338.337 13.0081 340.223C15.9778 342.093 18.963 344.008 18.963 344.008C18.963 344.008 20.3087 344.052 22.6752 344.097C25.0571 344.082 28.3981 344.126 32.3887 344.2C34.3994 344.244 36.5958 344.317 38.9314 344.376C41.2051 344.465 43.618 344.494 46.1546 344.597C48.6758 344.671 51.2434 344.774 53.9038 344.862C56.5178 345.01 59.2246 345.098 61.854 345.187C64.5453 345.363 67.2521 345.466 69.8816 345.614C72.511 345.761 75.0632 345.923 77.5843 346.041C80.0591 346.247 82.5029 346.35 84.7766 346.527C87.0349 346.674 89.2467 346.821 91.242 346.983C95.2017 347.263 98.5426 347.514 100.894 347.705C103.229 347.911 104.544 348.015 104.544 348.015C104.544 348.015 101.234 346.527 96.2225 344.273C93.7787 343.11 90.8863 341.813 87.8237 340.326C84.6993 338.882 81.4048 337.292 78.1721 335.73C74.8775 334.125 71.5675 332.564 68.5514 331.032C65.4579 329.529 62.6274 328.13 60.1681 326.908C55.3268 324.389 52.0322 322.739 52.0322 322.739C52.0322 322.739 50.3772 322.621 47.9024 322.386C45.3658 322.224 42.0094 321.914 38.6684 321.649C35.3584 321.399 31.9865 321.237 29.4189 321.016C26.9442 320.824 25.2427 320.721 25.2427 320.721C25.2427 320.721 21.7162 321.031 18.1587 321.369C14.5703 321.605 10.9973 321.959 10.9973 321.959C10.9973 321.959 11.6315 319.882 12.5904 316.744C13.5494 313.563 14.8796 309.395 16.2562 305.256C17.6483 301.043 19.1177 296.919 20.2468 293.84C21.3914 290.762 22.1338 288.641 22.1338 288.641C22.1338 288.641 24.8561 290.895 27.5783 293.148C30.3006 295.343 33.0228 297.493 33.0228 297.493C33.0228 297.493 34.353 297.655 36.6886 297.965C39.0087 298.215 42.3806 298.657 46.3866 299.143C48.3665 299.408 50.5164 299.703 52.7901 299.997C55.0948 300.336 57.4767 300.616 59.9515 300.984C62.4572 301.367 65.0403 301.706 67.6543 302.089C70.2528 302.487 72.8822 302.884 75.5581 303.267C78.203 303.694 80.8325 304.107 83.4001 304.549C85.9986 304.961 88.5352 305.373 91.0409 305.786C93.5003 306.228 95.8977 306.611 98.1559 307.008C100.368 307.421 102.487 307.804 104.467 308.157C108.395 308.894 111.69 309.483 114.01 309.91C116.253 310.352 117.583 310.617 117.583 310.617C117.583 310.617 116.469 309.939 114.489 308.776C112.432 307.612 109.617 305.918 106.276 303.886C104.559 302.869 102.719 301.735 100.832 300.557C98.8984 299.364 96.8258 298.141 94.7531 296.801C92.6341 295.534 90.4687 294.135 88.2723 292.795C86.1223 291.381 83.8796 289.952 81.6677 288.553C79.4404 287.109 77.2131 285.725 75.0631 284.252C72.8513 282.823 70.7632 281.438 68.6751 280.142C66.587 278.699 64.6072 277.358 62.7047 276.106C60.8332 274.869 59.0854 273.647 57.3994 272.542C54.1358 270.303 51.4599 268.447 49.511 267.092C47.6086 265.781 46.5413 265.015 46.5413 265.015C46.5413 265.015 43.2468 264.294 39.9677 263.425C36.7041 262.629 33.4559 261.834 33.4559 261.834L39.0242 250.154C39.0242 250.154 41.2051 253.232 43.355 256.31C45.5823 259.389 47.8096 262.408 47.8096 262.408C47.8096 262.408 48.8305 263.174 50.6866 264.515C52.5272 265.796 55.1721 267.608 58.3739 269.876C59.9515 270.966 61.6839 272.144 63.5399 273.367C65.3651 274.604 67.314 275.974 69.3248 277.27C71.3355 278.669 73.4081 280.054 75.5426 281.424C77.6771 282.838 79.8116 284.266 81.9925 285.666C84.127 287.094 86.3079 288.464 88.427 289.864C90.5769 291.204 92.696 292.574 94.7531 293.87C96.7948 295.166 98.7746 296.403 100.631 297.552C102.533 298.745 104.266 299.865 105.951 300.852C109.261 302.884 111.999 304.578 113.886 305.727C115.851 306.891 116.98 307.539 116.98 307.539L125.641 308.26C125.641 308.26 125.054 309.601 124.218 311.663C123.368 313.71 122.223 316.42 121.125 319.175C120.011 321.944 119.052 324.698 118.264 326.775C117.506 328.852 117.042 330.236 117.042 330.236C117.042 330.236 113.391 329.75 108.009 328.984C105.286 328.616 102.131 328.189 98.7592 327.732C95.3099 327.335 91.706 326.863 88.1176 326.436C84.4828 325.994 80.8479 325.582 77.4297 325.214C74.0423 324.831 70.8251 324.551 68.0564 324.197C62.6119 323.711 58.9462 323.328 58.9462 323.328C58.9462 323.328 61.7767 324.786 65.9374 326.893C68.0564 327.924 70.4693 329.146 73.0524 330.472C75.6818 331.753 78.466 333.138 81.2965 334.523C84.0806 335.833 86.9112 337.218 89.5251 338.485C92.201 339.707 94.6448 340.871 96.7639 341.902C101.017 343.831 103.832 345.113 103.832 345.113L112.247 344.951C112.247 344.951 111.705 346.615 111.009 349.046C110.298 351.505 109.416 354.79 108.535 358.089C107.746 361.389 106.864 364.747 106.338 367.221C105.797 369.696 105.457 371.36 105.457 371.36L97.661 367.339C97.661 367.339 96.3927 367.28 94.0416 367.221C91.8143 367.148 88.5352 367.118 84.6529 367.001C82.704 366.956 80.5695 366.942 78.3268 366.897C76.0685 366.897 73.7175 366.868 71.2736 366.824C68.8298 366.868 66.2777 366.809 63.7101 366.839C61.1425 366.809 58.5285 366.839 55.8681 366.824C53.3006 366.853 50.6556 366.927 48.088 366.942C45.5359 366.956 42.9838 367.045 40.54 367.045C38.0807 367.104 35.6832 367.163 33.4559 367.236C31.1977 367.295 29.0477 367.354 27.0988 367.442C23.1701 367.516 19.8601 367.693 17.6173 367.737C15.2818 367.884 14.0134 367.884 14.0134 367.884C14.0134 367.884 10.4714 368.577 6.99125 369.239C3.49562 369.917 0 370.639 0 370.639ZM74.2434 244.763C76.6099 240.55 79.4249 237.236 82.6576 234.894C85.9367 232.552 89.6025 231.065 93.6859 230.549C95.7276 230.299 97.862 230.313 100.058 230.52C102.239 230.726 104.436 231.197 106.771 231.845C109.107 232.493 111.52 233.421 113.948 234.555C116.469 235.66 118.99 237.045 121.651 238.562C121.651 238.562 120.491 240.256 118.929 242.804C117.32 245.367 115.201 248.784 113.066 252.275C111.025 255.692 109.014 259.212 107.591 261.849C106.137 264.485 105.178 266.253 105.178 266.253C107.374 267.313 110.112 268.477 113.376 269.626C116.686 270.73 119.996 271.496 123.275 271.923C126.569 272.321 129.617 272.203 132.432 271.54C135.324 270.833 137.474 269.198 138.959 266.606C139.933 265.089 140.521 263.248 140.83 261.097C141.202 258.844 140.877 256.281 139.995 253.365L141.078 251.671C142.872 254.072 144.017 256.605 144.558 259.227C145.022 261.834 145.13 264.338 144.914 266.798C144.651 269.125 144.11 271.408 143.259 273.603C142.485 275.724 141.697 277.594 140.784 279.17C139.299 281.763 137.304 283.987 134.628 285.872C131.999 287.669 128.704 288.95 124.837 289.716C122.842 290.099 120.847 290.261 118.588 290.32C116.438 290.35 114.103 290.232 111.628 289.952C109.06 289.643 106.493 289.068 103.771 288.258C101.002 287.492 98.0941 286.461 95.1707 285.194C92.2783 284.016 89.7262 282.749 87.3288 281.468C85.0087 280.201 82.936 278.758 81.0026 277.344C79.1311 275.915 77.4915 274.368 76.1149 272.837C74.7383 271.261 73.6092 269.626 72.6966 267.947C70.9024 264.5 70.1291 260.847 70.3301 256.988C70.624 253.041 71.8923 248.975 74.2434 244.763ZM108.287 255.765C104.714 253.895 101.172 252.171 97.6764 250.389C94.1499 248.681 90.9636 247.281 88.0712 246.236C85.1015 245.043 82.6112 244.38 80.4149 244.247C78.3268 243.938 76.8883 244.409 76.2387 245.72C75.5426 246.869 75.9138 248.298 77.244 249.888C78.667 251.376 80.7242 252.996 83.3073 254.749C85.9522 256.458 89.0147 258.255 92.4949 260.037C96.006 261.76 99.5325 263.469 103.059 265.192L108.287 255.765ZM90.7625 185.934C93.6395 187.908 95.8513 190.147 97.2743 192.533C98.8674 194.904 99.7336 197.29 100.074 199.794C100.43 202.181 100.229 204.552 99.5635 207.012C98.8984 209.295 97.8466 211.475 96.47 213.551L94.583 212.373C96.006 210.326 96.7948 207.954 96.8567 205.259C96.934 202.549 96.2534 199.883 94.9542 197.202C94.6139 198.646 93.8715 200.148 92.7269 201.857C90.6233 204.832 88.1176 206.702 85.1633 207.483C82.2091 208.175 79.3631 207.704 76.5325 205.981C73.6401 204.272 72.0006 201.93 71.583 199.102C71.1808 196.156 72.0625 193.048 74.2279 189.882C76.4861 186.833 79.162 184.947 82.1627 184.285C85.1788 183.548 88.0093 184.064 90.7625 185.934ZM166.955 237.707C166.955 237.707 164.836 235.056 162.748 232.39C160.66 229.739 158.587 227.029 158.587 227.029C158.587 227.029 156.808 225.821 154.225 223.994C151.673 222.168 148.239 219.767 144.759 217.322C141.341 214.892 137.876 212.491 135.293 210.665C132.679 208.838 131.009 207.616 131.009 207.616L119.949 204.287C119.949 204.287 120.151 202.446 120.444 199.632C120.878 196.849 121.388 193.122 121.945 189.366C122.502 185.595 123.182 181.854 123.708 179.041C124.218 176.198 124.605 174.328 124.605 174.328L133.978 181.722C132.834 178.187 132.401 174.519 132.664 170.763C132.973 166.801 134.35 163.502 136.824 160.924C138.077 159.598 139.299 158.553 140.521 157.816C140.521 157.816 141.248 159.407 142.3 161.69C143.413 163.988 144.867 167.081 146.383 170.13C147.853 173.164 149.368 176.213 150.528 178.437C151.689 180.705 152.493 182.193 152.493 182.193C148.75 179.321 145.734 177.642 143.444 177.215C141.155 176.699 139.407 177.17 137.984 178.643C137.196 179.601 136.53 181.118 135.896 183.239C135.896 183.239 138.139 185.006 141.449 187.628C143.12 188.954 145.068 190.5 147.141 192.135C149.276 193.785 151.487 195.552 153.699 197.29C155.927 199.058 158.154 200.796 160.226 202.46C162.315 204.095 164.279 205.627 165.934 206.953C169.275 209.575 171.502 211.327 171.502 211.327C171.502 211.327 174.735 212.594 177.952 213.905C181.185 215.186 184.356 216.497 184.356 216.497C184.356 216.497 183.242 217.794 181.525 219.708C179.839 221.667 177.643 224.304 175.354 226.926C173.266 229.592 171.146 232.287 169.461 234.29C167.96 236.323 166.955 237.707 166.955 237.707ZM158.339 138.815C161.943 135.56 165.717 133.277 169.553 131.981C173.436 130.714 177.395 130.493 181.432 131.156C183.474 131.583 185.454 132.187 187.495 133.042C189.475 133.911 191.471 135.001 193.45 136.326C195.43 137.667 197.379 139.243 199.39 141.04C201.354 142.837 203.35 144.899 205.329 147.152C205.329 147.152 203.736 148.434 201.339 150.363C198.972 152.307 195.801 154.914 192.708 157.595C189.63 160.276 186.583 162.986 184.278 165.033C182.066 167.11 180.582 168.51 180.582 168.51C182.298 170.174 184.479 172.045 187.248 174.151C190.001 176.198 192.894 177.907 195.941 179.321C198.879 180.676 201.741 181.442 204.726 181.692C207.618 181.839 210.217 180.956 212.568 178.938C213.898 177.76 215.074 176.198 216.079 174.283C217.193 172.236 217.75 169.717 217.858 166.683L219.467 165.402C220.348 168.2 220.658 170.969 220.255 173.621C219.869 176.228 219.142 178.643 218.105 180.912C217.023 183.047 215.785 185.021 214.239 186.862C212.862 188.644 211.485 190.191 210.047 191.399C207.881 193.446 205.283 194.963 202.112 195.965C198.972 196.863 195.43 197.099 191.471 196.672C189.537 196.392 187.495 195.98 185.392 195.376C183.288 194.742 181.107 193.962 178.865 192.945C176.622 191.885 174.302 190.574 171.935 189.013C169.569 187.422 167.233 185.595 164.758 183.519C162.469 181.501 160.458 179.556 158.633 177.642C156.855 175.668 155.277 173.753 153.993 171.824C152.678 169.879 151.596 167.965 150.791 166.079C150.034 164.179 149.492 162.294 149.229 160.394C148.595 156.594 149.09 152.882 150.575 149.273C152.075 145.665 154.689 142.159 158.339 138.815ZM187.001 159.51C184.232 156.682 181.463 153.913 178.695 151.217C175.895 148.522 173.281 146.298 170.914 144.413C168.502 142.365 166.352 140.995 164.356 140.171C162.423 139.287 160.907 139.375 159.824 140.333C158.819 141.29 158.695 142.689 159.484 144.619C160.35 146.475 161.711 148.596 163.629 151.055C165.516 153.486 167.867 156.063 170.543 158.803C173.343 161.513 176.127 164.209 178.911 166.889L187.001 159.51ZM218.09 123.07C215.662 119.947 213.542 116.81 211.733 113.687C209.861 110.565 208.345 107.442 207.124 104.32C205.886 101.138 204.974 98.0302 204.386 95.0402C203.813 92.0502 203.52 89.0896 203.551 86.2469C203.643 83.3599 204.03 80.5614 204.788 77.9101C205.53 75.2589 206.582 72.7402 208.005 70.2657C209.459 67.8501 211.269 65.5523 213.357 63.4902C215.476 61.5018 217.92 59.7048 220.627 58.1435C223.534 56.4497 226.551 55.2566 229.582 54.579C232.614 53.8868 235.661 53.6069 238.754 53.931C241.832 54.1666 244.972 54.9915 248.05 56.3171C251.159 57.6427 254.299 59.5428 257.408 61.9289C257.408 61.9289 256.186 63.0925 254.376 64.8453C252.551 66.5392 250.2 68.8959 247.834 71.2672C245.514 73.6386 243.209 75.9659 241.507 77.7481C239.806 79.5892 238.677 80.7823 238.677 80.7823L234.733 71.3409C233.619 69.485 232.258 67.8501 230.572 66.4361C228.902 64.9484 227.185 63.9174 225.483 63.2693C223.751 62.4444 222.158 62.0467 220.688 62.0467C219.111 61.9878 217.982 62.3119 217.115 63.0925C215.275 65.1104 215.337 68.999 217.363 74.8612C218.399 77.7334 219.822 80.9002 221.663 84.3321C222.637 86.0848 223.674 87.8671 224.834 89.7524C225.947 91.5788 227.185 93.5084 228.577 95.5263C229.922 97.5589 231.33 99.5326 232.707 101.403C234.083 103.259 235.413 104.982 236.805 106.691C238.197 108.414 239.543 110.005 240.873 111.507C242.235 113.01 243.549 114.453 244.895 115.794C247.571 118.43 250.278 120.802 252.799 122.864C255.304 124.896 257.748 126.649 260.099 128.122C262.373 129.536 264.554 130.67 266.657 131.524C268.715 132.423 270.71 133.012 272.551 133.321C276.309 133.955 279.48 133.557 282.063 132.231C282.898 131.745 283.702 131.009 284.429 130.066C285.033 128.976 285.543 127.857 285.961 126.708C286.394 125.427 286.672 124.145 287.028 122.967C287.353 121.641 287.6 120.492 287.848 119.55C287.848 119.55 285.528 118.121 282.063 116C280.284 114.954 278.212 113.732 276.046 112.435C273.834 111.183 271.468 109.828 269.07 108.473C266.642 107.162 264.229 105.837 261.955 104.599C259.697 103.406 257.532 102.272 255.691 101.33C251.994 99.4442 249.504 98.207 249.504 98.207C249.504 98.207 250.896 97.3821 253.031 96.248C255.134 95.0991 257.996 93.5673 260.857 92.0207C263.688 90.5331 266.596 89.0749 268.761 87.9849C270.911 86.9391 272.411 86.2321 272.411 86.2321C272.411 86.2321 273.494 88.25 275.118 91.2843C275.891 92.8161 276.85 94.5689 277.84 96.4837C278.908 98.369 279.944 100.387 281.073 102.434C282.109 104.452 283.208 106.455 284.167 108.37C285.249 110.27 286.208 112.038 286.935 113.555C288.59 116.589 289.688 118.651 289.688 118.651C289.611 121.612 289.286 124.366 288.621 126.87C288.033 129.433 287.074 131.731 285.914 133.778C284.739 135.796 283.378 137.681 281.692 139.287C280.052 140.951 278.134 142.395 275.938 143.617C274.376 144.427 272.752 145.164 270.834 145.65C268.947 146.18 266.874 146.519 264.631 146.754C262.419 146.961 260.006 146.902 257.64 146.666C255.227 146.416 252.706 145.93 250.092 145.223C247.462 144.501 244.848 143.544 242.173 142.321C239.45 141.098 236.682 139.611 233.913 137.858C231.129 136.135 228.391 134.014 225.762 131.598C223.101 129.109 220.58 126.325 218.09 123.07ZM294.22 54.4612C298.83 52.6643 303.13 51.8394 307.306 51.9867C311.389 52.1782 315.194 53.2976 318.69 55.3744C320.36 56.4202 322.031 57.6722 323.546 59.1304C325.109 60.6622 326.563 62.3855 327.893 64.3003C329.207 66.2151 330.46 68.3803 331.636 70.7517C332.781 73.1231 333.832 75.7007 334.838 78.4993C334.838 78.4993 332.858 79.1326 329.873 80.09C326.934 81.0916 323.005 82.4467 319.107 83.846C315.21 85.2747 311.327 86.7477 308.419 87.8818C305.496 89.0454 303.609 89.8113 303.609 89.8113C304.522 91.9471 305.945 94.4952 307.631 97.338C309.456 100.24 311.513 102.847 313.74 105.174C315.936 107.442 318.427 109.239 321.056 110.447C323.717 111.64 326.532 111.699 329.44 110.653C331.141 110.005 332.796 108.959 334.513 107.472C336.292 105.984 337.776 103.819 339.029 101.02L341.009 100.372C340.777 103.303 340.004 105.955 338.627 108.311C337.235 110.609 335.596 112.583 333.786 114.306C332.069 116 330.136 117.429 328.017 118.607C325.99 119.771 324.119 120.713 322.386 121.391C319.54 122.466 316.524 123.011 313.199 122.864C309.92 122.599 306.486 121.553 303.037 119.8C301.32 118.916 299.572 117.782 297.871 116.486C296.154 115.219 294.39 113.702 292.705 111.994C291.003 110.211 289.333 108.193 287.74 105.925C286.131 103.627 284.661 101.109 283.146 98.2954C281.831 95.6883 280.655 93.1549 279.727 90.7098C278.768 88.2648 278.057 85.9523 277.546 83.684C277.113 81.4304 276.866 79.3094 276.82 77.2326C276.804 75.1705 277.036 73.2557 277.5 71.4145C278.397 67.6586 280.207 64.3592 283.022 61.5018C285.791 58.6296 289.549 56.2729 294.22 54.4612ZM312.982 83.6251C311.544 80.0753 309.997 76.4814 308.45 73.0642C306.888 69.5734 305.357 66.5686 303.826 64.0057C302.325 61.2661 300.84 59.2482 299.34 57.8195C297.871 56.2876 296.448 55.8163 295.071 56.4202C293.772 56.9063 293.107 58.1582 293.107 60.2645C293.138 62.253 293.648 64.7275 294.483 67.6586C295.319 70.6044 296.51 73.8007 297.948 77.321C299.557 80.797 301.119 84.2584 302.666 87.7345L312.982 83.6251ZM326.191 46.2276C326.191 46.2276 327.413 44.4748 329.331 41.8825C331.265 39.2901 333.879 35.8435 336.586 32.4116C339.292 29.0091 342.076 25.6067 344.195 23.0732C346.33 20.5545 347.784 18.8754 347.784 18.8754C347.784 18.8754 348.975 23.3089 350.181 27.7719C351.372 32.1759 352.579 36.6536 352.579 36.6536C352.579 36.6536 356.275 35.7846 359.988 34.9303C363.684 34.076 367.412 33.31 367.412 33.31L367.891 35.3721C367.891 35.3721 364.179 36.1822 360.483 36.9923C356.817 37.8614 353.136 38.7157 353.136 38.7157C353.136 38.7157 353.924 41.6173 355.1 46.0066C355.688 48.2013 356.368 50.7347 357.08 53.4007C357.853 56.1845 358.611 59.0862 359.431 62.0173C360.204 64.9337 360.993 67.8206 361.72 70.516C362.462 73.2851 363.158 75.8333 363.731 77.969C364.922 82.3731 365.695 85.26 365.695 85.26C366.252 87.2926 366.917 88.9865 367.752 90.3121C368.634 91.6819 369.469 92.7277 370.335 93.4789C371.294 94.1859 372.253 94.7456 373.166 95.0108C374.094 95.2906 374.929 95.3495 375.656 95.1728C376.63 94.9518 377.357 94.4658 377.806 93.6704C378.378 92.7866 378.502 91.6967 378.193 90.4152L380.234 89.9881C380.714 92.0796 380.698 94.0681 380.203 95.8945C379.801 97.7209 378.966 99.3853 377.744 100.799C376.615 102.243 375.161 103.451 373.382 104.452C371.604 105.424 369.655 106.234 367.474 106.779C364.597 107.531 362.029 107.575 359.756 107.192C357.451 106.691 355.332 105.704 353.46 104.261C351.635 102.744 349.996 100.873 348.495 98.59C347.196 96.248 346.067 93.6998 345.139 90.916C345.139 90.916 344.134 88.0291 342.726 83.6987C342.03 81.6072 341.179 79.059 340.298 76.4225C339.401 73.727 338.457 70.8696 337.498 67.9974C336.555 65.1399 335.534 62.2235 334.698 59.587C333.77 56.8915 332.951 54.3286 332.255 52.2371C330.816 47.9362 329.873 45.0787 329.873 45.0787L326.191 46.2276ZM368.092 35.2838C368.092 35.2838 369.531 33.693 371.712 31.3216C373.908 28.9207 376.909 25.754 379.925 22.5724C383.003 19.4499 386.127 16.342 388.479 14C390.876 11.6876 392.515 10.1704 392.515 10.1704C392.515 10.1704 393.242 14.7218 393.969 19.2584C394.696 23.8097 395.423 28.3463 395.423 28.3463C395.423 28.3463 399.182 27.8013 402.971 27.3153C406.73 26.7997 410.504 26.3431 410.504 26.3431L410.782 28.4789C410.782 28.4789 406.993 28.906 403.25 29.3773C399.476 29.8929 395.733 30.4084 395.733 30.4084C395.733 30.4084 396.243 33.4132 396.955 37.8614C397.264 40.056 397.712 42.6484 398.146 45.4617C398.594 48.2455 399.089 51.2208 399.569 54.1961C400.048 57.1272 400.528 60.1467 400.961 62.901C401.425 65.7143 401.827 68.2772 402.198 70.5455C402.91 74.9643 403.389 77.969 403.389 77.969C403.714 80.0017 404.224 81.7545 404.874 83.1095C405.632 84.5972 406.328 85.6872 407.148 86.512C408.029 87.4105 408.895 87.926 409.808 88.3237C410.705 88.7066 411.509 88.8539 412.221 88.7361C413.242 88.633 414.015 88.2059 414.557 87.4399C415.16 86.6004 415.438 85.5546 415.268 84.2584L417.341 83.9786C417.604 86.1143 417.402 88.1322 416.691 89.9144C416.088 91.6967 415.067 93.1843 413.721 94.5542C412.453 95.8651 410.875 96.9255 409.004 97.7357C407.132 98.5016 405.09 99.1349 402.863 99.4737C399.971 99.9892 397.403 99.8567 395.176 99.2086C392.918 98.4574 390.922 97.2938 389.175 95.6294C387.535 93.9944 386.112 91.9765 384.921 89.6051C383.823 87.0864 382.91 84.4204 382.307 81.5482C382.307 81.5482 381.673 78.6466 380.698 74.2131C380.219 72.0332 379.616 69.4408 379.043 66.7159C378.425 63.9174 377.775 61.0157 377.125 58.0551C376.476 55.1388 375.826 52.1929 375.208 49.3796C374.62 46.6842 374.047 44.1066 373.552 41.8677C372.594 37.4932 371.928 34.5326 371.928 34.5326L368.092 35.2838ZM422.816 83.4336C422.816 83.4336 422.615 81.4009 422.259 78.3225C421.95 75.3031 421.486 71.2378 421.068 67.1872C420.62 63.122 420.187 59.0567 419.846 56.0078C419.522 52.9441 419.305 50.882 419.305 50.882L414.448 40.8956C414.448 40.8956 416.026 39.8056 418.408 38.156C420.836 36.5358 424.084 34.3411 427.364 32.2643C430.643 30.1727 433.999 28.0664 436.582 26.5641C439.119 25.047 440.851 24.0306 440.851 24.0306C440.851 24.0306 441.021 27.6393 441.284 33.0449C441.423 35.7846 441.563 38.9513 441.748 42.3391C441.918 45.7415 442.104 49.3649 442.29 52.9883C442.46 56.5528 442.645 60.2056 442.784 63.5933C442.955 66.9663 443.14 70.1773 443.248 72.8727C443.542 78.3225 443.712 81.9312 443.712 81.9312C443.712 81.9312 444.919 85.0685 446.094 88.2058C447.224 91.299 448.384 94.4068 448.384 94.4068C448.384 94.4068 446.62 94.5247 443.975 94.6278C441.331 94.8045 437.758 94.9666 434.262 95.2464C430.72 95.5115 427.209 95.7767 424.579 96.0565C421.934 96.248 420.187 96.5131 420.187 96.5131C420.187 96.5131 420.805 93.1696 421.47 89.9734C422.135 86.6887 422.816 83.4336 422.816 83.4336ZM414.278 12.2915C413.938 9.25724 414.912 6.48814 417.325 4.08728C419.723 1.70115 422.801 0.360786 426.59 0.0367437C430.364 -0.198923 433.628 0.699562 436.365 2.71746C439.041 4.72063 440.526 7.32771 440.65 10.3914C440.82 13.5434 439.676 16.2389 437.278 18.5072C434.896 20.8344 431.942 22.1011 428.338 22.3368C424.749 22.6019 421.594 21.7476 418.918 19.8181C416.181 17.9327 414.618 15.4288 414.278 12.2915ZM451.508 94.3185C451.508 94.3185 452.452 91.1959 453.426 87.9849C454.354 84.774 455.375 81.5777 455.375 81.5777C455.375 81.5777 455.328 79.5451 455.282 76.4519C455.22 73.4177 455.158 69.3083 455.081 65.2577C455.019 61.163 454.942 57.083 454.895 54.0193C454.849 50.9115 454.787 48.9083 454.787 48.9083L450.874 38.5242C450.874 38.5242 452.56 37.5373 455.066 36.0939C457.649 34.6799 461.067 32.7945 464.532 30.9386C468.027 29.1711 471.554 27.33 474.23 26.0485C476.89 24.7524 478.715 23.8539 478.715 23.8539L478.22 35.1659C480.494 32.0728 483.293 29.4068 486.634 27.2269C490.099 24.9144 493.718 23.9717 497.4 24.2663C499.998 24.4431 502.303 25.1648 504.314 26.3579C506.402 27.492 508.072 29.3184 509.418 31.7635C510.764 34.0318 511.614 37.1102 511.985 40.8367C512.156 42.6778 512.171 44.681 512.14 46.8904C512.047 49.1145 511.862 51.589 511.521 54.1961C511.521 54.1961 511.289 56.0225 510.903 58.8652C510.562 61.6638 510.052 65.3903 509.573 69.1168C509.109 72.858 508.614 76.5992 508.242 79.4125C507.887 82.2111 507.655 84.0964 507.655 84.0964C507.655 84.0964 508.273 87.4105 508.877 90.6656C509.402 93.9944 510.006 97.3232 510.006 97.3232C510.006 97.3232 508.242 97.1465 505.597 96.793C502.983 96.5279 499.472 96.1154 495.946 95.7914C492.404 95.4526 488.908 95.1728 486.263 95.0697C483.618 94.9076 481.84 94.8045 481.84 94.8045C481.84 94.8045 483.046 91.6819 484.252 88.5299C485.521 85.4368 486.774 82.3142 486.774 82.3142C486.774 82.3142 486.913 80.4877 487.114 77.645C487.299 74.8906 487.562 71.1789 487.825 67.4524C488.088 63.6817 488.351 59.9847 488.552 57.2156C488.753 54.3876 488.877 52.5317 488.877 52.5317C489.078 49.7921 489.094 47.4059 488.955 45.3586C488.8 43.4143 488.49 41.8235 487.996 40.5863C487.114 38.2149 485.521 36.9334 483.201 36.8156C481.747 36.7567 480.045 37.0955 478.096 37.8614C478.096 37.8614 478.019 40.5863 477.818 44.681C477.756 46.7578 477.648 49.1587 477.555 51.7658C477.431 54.3434 477.339 57.0977 477.199 59.7785C477.076 62.5328 476.983 65.3314 476.89 67.909C476.751 70.4571 476.689 72.8875 476.581 74.9348C476.426 79.0443 476.302 81.7986 476.302 81.7986C476.302 81.7986 477.215 85.0391 478.112 88.2353C478.978 91.4757 479.813 94.672 479.813 94.672C479.813 94.672 478.05 94.6278 475.405 94.4952C472.76 94.4363 469.234 94.3038 465.692 94.289C462.15 94.2743 458.608 94.2301 455.947 94.2596C453.318 94.3037 451.508 94.3185 451.508 94.3185ZM508.134 119.52C508.397 117.635 508.985 115.985 509.866 114.556C510.872 113.231 512.047 112.097 513.408 111.242C514.754 110.373 516.208 109.784 517.77 109.46C519.394 109.107 521.018 109.107 522.565 109.357C520.972 108.694 519.487 107.928 518.049 107.03C516.564 106.146 515.342 105.13 514.275 103.937C513.285 102.714 512.573 101.33 512.094 99.783C511.599 98.2806 511.49 96.4984 511.769 94.4216C512.357 90.5331 514.043 87.4547 516.92 85.2747C519.936 83.0359 523.354 82.2258 527.159 82.8591L528.133 83.0064C526.865 81.5482 525.782 79.8691 524.885 78.0132C523.957 76.1573 523.246 74.0952 522.689 71.827C522.178 69.5587 521.915 67.1431 521.869 64.5802C521.823 62.032 522.039 59.3366 522.488 56.4791C522.844 54.2845 523.308 52.2371 523.895 50.2781C524.499 48.3339 525.225 46.5369 526.076 44.8283C527.762 41.47 529.881 38.7157 532.433 36.5063C534.985 34.2969 537.878 32.8387 541.08 31.955C544.436 31.0859 547.994 31.0565 551.721 31.7782C555.217 32.5147 558.202 33.7667 560.785 35.5931C563.275 37.449 565.332 39.8351 566.91 42.7957C566.91 42.7957 570.39 41.9119 573.932 41.0282C577.459 40.1886 581.016 39.4079 581.016 39.4079C581.016 39.4079 580.119 42.4127 579.191 45.5206C578.279 48.5842 577.366 51.6479 577.366 51.6479L568.998 49.4827C569.478 51.8394 569.648 54.3139 569.447 57.0094C569.246 59.7195 568.72 62.5623 567.884 65.5523C567.281 67.7175 566.554 69.706 565.719 71.5471C564.915 73.4914 563.987 75.2589 562.981 76.8644C561.002 80.1195 558.728 82.7266 556.222 84.7297C553.716 86.7624 551.041 88.1764 548.148 88.9276C545.225 89.7672 542.224 89.8702 539.038 89.2074C536.934 88.795 535.016 88.088 533.315 87.1601C531.598 86.2911 530.067 85.098 528.737 83.684C527.7 84.5677 527.066 85.5693 526.881 86.674C526.649 87.8965 526.85 88.8981 527.453 89.6198C528.164 90.4447 529.015 91.1222 530.02 91.6967C531.072 92.1386 532.093 92.5215 533.16 92.8308C534.32 93.1107 535.279 93.2874 535.975 93.4347C538.93 94.0681 541.961 95.1139 544.993 96.5573C548.04 97.9124 550.638 99.7241 552.726 101.978C554.954 104.187 556.485 106.779 557.398 109.725C558.279 112.715 558.171 116.029 557.088 119.623C555.944 123.423 554.134 126.458 551.675 128.579C549.262 130.95 546.57 132.614 543.539 133.749C540.6 135.001 537.491 135.634 534.197 135.825C531.01 136.032 527.994 135.811 525.148 135.28C523.4 134.956 521.451 134.411 519.286 133.631C517.198 132.894 515.311 131.952 513.532 130.7C511.769 129.492 510.299 127.96 509.186 126.089C508.103 124.322 507.747 122.083 508.134 119.52ZM551.211 84.6856C552.665 85.0391 553.701 84.6856 554.289 83.684C554.861 82.6529 555.201 81.7839 555.371 81.1947C555.835 79.442 556.067 77.6008 556.037 75.6271C556.176 73.7418 556.098 71.8122 555.882 69.9122C555.665 67.9237 555.31 66.0236 554.83 64.3298C554.459 62.4592 553.979 60.7948 553.392 59.3513C552.819 57.8489 551.953 55.9931 550.809 53.7248C549.772 51.3681 548.458 49.0703 546.926 46.8462C545.519 44.5779 543.956 42.6042 542.271 40.8809C540.569 39.187 538.93 38.1854 537.367 37.9056C535.898 37.6552 534.908 38.0823 534.398 39.1281C533.887 40.0708 533.609 40.8072 533.516 41.2933C533.222 42.9577 533.315 45.1082 533.733 47.892C534.181 50.5874 534.831 53.4744 535.697 56.5675C536.625 59.6754 537.677 62.8863 538.837 66.0973C540.059 69.3083 541.343 72.2394 542.642 74.8906C544.034 77.5124 545.441 79.7365 546.849 81.5777C548.396 83.3599 549.85 84.4057 551.211 84.6856ZM537.568 130.729C541.172 131.583 543.91 131.687 545.797 131.083C547.746 130.493 549.061 129.212 549.71 127.253C550.221 125.441 550.128 123.836 549.447 122.495C548.736 121.229 547.731 120.109 546.385 119.064C545.055 118.136 543.585 117.311 541.992 116.589C540.445 115.956 539.115 115.352 538.017 114.88C535.341 113.746 532.944 112.804 530.809 111.964C528.721 111.316 526.478 110.624 524.05 109.902C523.106 110.697 522.349 111.478 521.761 112.259C521.266 113.025 520.91 113.982 520.724 115.072C520.307 117.208 520.585 119.137 521.467 120.816C522.333 122.451 523.586 123.939 525.226 125.161C526.803 126.546 528.675 127.665 530.84 128.608C533.083 129.551 535.326 130.258 537.568 130.729ZM615.617 20.1863C615.617 20.1863 617.442 20.7313 620.242 21.6887C622.964 22.6903 626.614 23.9865 630.28 25.2679C633.884 26.6672 637.503 28.0223 640.225 29.0828C642.901 30.1875 644.695 30.9092 644.695 30.9092C644.695 30.9092 644.479 32.3379 644.03 34.9597C643.613 37.5521 642.994 41.1902 642.236 45.6384C641.849 47.8478 641.385 50.2339 640.891 52.7379C640.473 55.286 639.978 57.9079 639.437 60.6917C638.911 63.4313 638.338 66.274 637.751 69.1168C637.178 71.989 636.544 74.8906 635.941 77.807C635.291 80.7234 634.657 83.6545 634.007 86.512C633.358 89.3547 632.708 92.1533 632.074 94.8487C631.44 97.5736 630.806 100.181 630.203 102.655C629.568 105.144 628.981 107.501 628.393 109.637C627.326 113.967 626.398 117.502 625.717 120.065C625.052 122.525 624.65 123.998 624.65 123.998C624.65 123.998 625.547 122.805 627.109 120.713C628.733 118.607 630.976 115.632 633.729 112.111C635.106 110.359 636.606 108.444 638.184 106.411C639.808 104.349 641.478 102.258 643.226 100.078C644.974 97.883 646.799 95.6146 648.655 93.3316C650.527 91.0191 652.429 88.7066 654.332 86.3647C656.234 84.0522 658.168 81.7839 660.07 79.5009C661.942 77.2326 663.829 74.9937 665.7 72.8285C667.541 70.6928 669.304 68.6454 671.006 66.657C672.707 64.698 674.3 62.8421 675.785 61.1925C678.786 57.79 681.307 54.9325 683.039 53.003C684.818 50.9851 685.839 49.851 685.839 49.851C685.839 49.851 687.556 50.8231 690.154 52.1929C692.753 53.5922 696.171 55.4775 699.589 57.3776C703.007 59.3071 706.41 61.2072 708.916 62.739C711.437 64.2856 713.123 65.2872 713.123 65.2872C713.123 65.2872 710.215 67.3198 707.338 69.3377C704.477 71.3851 701.646 73.4619 701.646 73.4619C701.646 73.4619 699.125 77.3357 695.289 83.2274C693.402 86.1438 691.175 89.561 688.809 93.2138C687.633 95.0402 686.396 96.9255 685.127 98.8845C683.905 100.799 682.606 102.773 681.353 104.673C680.069 106.676 678.801 108.635 677.564 110.55C676.295 112.465 675.073 114.335 673.898 116.177C671.5 119.874 669.304 123.232 667.371 126.207C663.566 132.069 661.029 135.987 661.029 135.987C661.029 135.987 660.147 139.198 659.204 142.424C658.291 145.576 657.394 148.802 657.394 148.802C657.394 148.802 655.847 147.933 653.589 146.578C651.316 145.178 648.268 143.426 645.19 141.732C642.128 139.994 639.004 138.315 636.652 137.092C634.286 135.899 632.77 135.015 632.77 135.015C632.77 135.015 635.229 132.762 637.751 130.449C640.287 128.137 642.855 125.824 642.855 125.824C642.855 125.824 645.175 121.73 648.655 115.691C649.521 114.159 650.465 112.524 651.47 110.786C652.476 109.033 653.558 107.162 654.626 105.292C655.708 103.392 656.837 101.433 657.982 99.4295C659.142 97.4116 660.302 95.3937 661.462 93.3905C662.622 91.3579 663.798 89.3253 664.942 87.3368C666.071 85.2895 667.216 83.3157 668.299 81.4746C669.366 79.5598 670.418 77.7039 671.439 75.9806C672.444 74.2426 673.372 72.5339 674.254 71.0758C677.749 64.9631 680.069 60.9126 680.069 60.9126C680.069 60.9126 679.141 61.9731 677.471 63.7995C675.847 65.6701 673.527 68.3067 670.727 71.5029C669.32 73.0937 667.835 74.817 666.226 76.6287C664.664 78.4698 663.024 80.4141 661.292 82.4467C659.591 84.4057 657.827 86.5414 656.064 88.6477C654.285 90.7835 652.491 92.9339 650.712 95.0844C648.918 97.2643 647.124 99.4001 645.376 101.595C643.659 103.745 641.958 105.807 640.318 107.855C638.663 109.931 637.086 111.964 635.585 113.849C634.116 115.735 632.708 117.532 631.409 119.181C628.857 122.495 626.722 125.25 625.238 127.179C623.753 129.138 622.917 130.287 622.917 130.287C622.917 130.287 618.184 128.034 613.436 125.927C608.626 123.851 603.815 121.921 603.815 121.921C603.815 121.921 604.109 120.581 604.589 118.283C605.084 115.97 605.78 112.671 606.584 108.724C606.986 106.72 607.404 104.585 607.852 102.316C608.285 100.048 608.734 97.6473 609.198 95.158C609.631 92.6394 610.11 90.0765 610.574 87.4547C611.038 84.8034 611.487 82.1521 611.92 79.5303C612.353 76.8496 612.802 74.1542 613.219 71.5324C613.621 68.9253 614.024 66.2888 614.379 63.8143C614.735 61.2956 615.091 58.8652 615.4 56.5528C615.71 54.255 616.019 52.0603 616.251 50.0277C616.808 46.0214 617.225 42.6631 617.504 40.2917C617.767 37.935 617.922 36.5652 617.922 36.5652C617.922 36.5652 616.328 40.763 613.9 47.0671C612.694 50.2192 611.271 53.9015 609.739 57.8195C608.997 59.8079 608.208 61.8405 607.404 63.8879C606.63 65.95 605.795 68.0563 604.975 70.1773C604.202 72.2541 603.382 74.3751 602.562 76.393C601.789 78.514 601.016 80.5467 600.242 82.5056C598.711 86.4089 597.319 90.1059 596.097 93.2433C593.684 99.5621 592.076 103.745 592.076 103.745C592.076 103.745 591.843 107.03 591.611 110.403C591.348 113.643 591.086 117.016 591.086 117.016L581.357 113.599C581.357 113.599 583.414 110.874 585.486 108.267C587.574 105.586 589.694 102.935 589.694 102.935C589.694 102.935 591.333 98.6341 593.808 92.1533C595.03 88.9129 596.453 85.0832 597.999 81.0474C598.773 79.0295 599.562 76.938 600.381 74.7875C601.186 72.696 602.021 70.5455 602.841 68.3803C603.661 66.1709 604.465 64.0205 605.285 61.8847C606.104 59.7785 606.893 57.6869 607.682 55.6396C609.213 51.6038 610.636 47.8036 611.889 44.5779C614.318 38.0676 615.957 33.7519 615.957 33.7519C615.957 33.7519 615.895 30.3937 615.818 26.947C615.741 23.6035 615.617 20.1863 615.617 20.1863ZM666.458 138.55C667.896 136.429 669.675 134.706 671.686 133.41C673.805 131.981 676.079 130.965 678.445 130.361C680.936 129.654 683.503 129.345 686.195 129.389C688.901 129.418 691.608 129.875 694.284 130.655C694.284 130.655 697.965 131.701 701.631 132.747C705.328 133.896 709.04 135.104 709.04 135.104C709.04 135.104 709.999 133.911 711.453 132.114C712.891 130.361 714.84 127.945 716.758 125.589C718.676 123.217 720.625 120.816 722.063 119.049C723.517 117.237 724.461 116.074 724.461 116.074C725.683 114.586 726.069 113.142 725.698 111.817C725.311 110.418 724.584 109.401 723.548 108.665C722.264 107.678 720.826 107.427 719.248 107.707C717.841 108.002 716.263 108.694 714.562 109.887C712.907 111.08 711.159 112.612 709.334 114.424C707.601 116.427 705.853 118.548 704.152 120.787C704.152 120.787 701.956 116.25 699.744 111.669C697.393 107.162 695.011 102.655 695.011 102.655C697.749 101.271 700.533 100.549 703.487 100.387C706.426 100.195 709.303 100.49 712.056 101.212C714.948 101.86 717.779 102.95 720.455 104.349C723.239 105.748 725.884 107.339 728.297 109.048C730.694 110.845 732.813 112.951 734.638 115.396C736.556 117.841 737.763 120.61 738.103 123.747C738.567 126.855 738.103 130.214 736.726 133.955C736.061 135.84 735.056 137.784 733.741 139.758C732.411 141.805 730.756 143.912 728.776 146.092C728.776 146.092 727.508 147.491 725.574 149.612C723.594 151.792 721.027 154.62 718.428 157.477C715.861 160.291 713.262 163.163 711.313 165.313C709.365 167.449 708.081 168.863 708.081 168.863C708.081 168.863 706.658 171.956 705.219 175.035C703.781 178.054 702.311 181.074 702.311 181.074C702.311 181.074 701.182 180.19 699.45 178.746C697.718 177.377 695.428 175.462 693.093 173.621C690.757 171.794 688.391 169.982 686.597 168.627C684.818 167.302 683.611 166.447 683.611 166.447C683.611 166.447 685.545 164.032 687.463 161.69C689.412 159.304 691.33 156.918 691.33 156.918C687.478 158.508 683.751 159.598 680.1 160.188C676.543 160.718 673.186 159.878 669.954 157.742C668.794 156.918 667.68 155.931 666.613 154.635C665.577 153.353 664.726 151.924 664.153 150.334C663.612 148.758 663.473 146.99 663.751 144.987C664.092 142.91 664.942 140.804 666.458 138.55ZM685.73 154.973C686.627 155.577 687.664 155.916 688.87 155.842C690.231 155.754 691.5 155.563 692.722 155.224C692.722 155.224 696.434 150.643 700.192 146.003C703.935 141.393 707.663 136.783 707.663 136.783C705.668 136.238 703.735 136.164 701.786 136.429C699.868 136.68 697.965 137.239 696.094 138.02C694.361 138.86 692.691 139.979 691.144 141.216C689.659 142.527 688.329 143.941 687.169 145.473C686.751 146.003 686.272 146.71 685.699 147.55C685.297 148.419 684.88 149.347 684.539 150.245C684.307 151.159 684.246 152.072 684.369 152.941C684.555 153.751 685.019 154.428 685.73 154.973ZM704.632 183.091C704.632 183.091 707.617 181.353 710.617 179.704C713.618 177.98 716.65 176.36 716.65 176.36C716.65 176.36 718.104 174.843 720.269 172.59C722.481 170.321 725.358 167.302 728.281 164.297C731.189 161.292 734.066 158.317 736.262 156.063C738.443 153.78 739.882 152.322 739.882 152.322L744.568 142.203C744.568 142.203 746.455 142.571 749.363 143.175C752.225 143.882 756.076 144.751 759.912 145.723C763.748 146.696 767.599 147.712 770.538 148.463C773.43 149.273 775.317 149.848 775.317 149.848L766.625 157.89C770.399 157.227 774.297 157.139 778.241 157.816C782.293 158.597 785.572 160.261 788.047 162.824C789.238 164.164 790.197 165.461 790.816 166.713C790.816 166.713 789.114 167.213 786.593 167.979C784.072 168.789 780.716 169.85 777.39 170.91C774.049 172.015 770.708 173.105 768.249 173.93C765.743 174.828 764.15 175.373 764.15 175.373C767.475 172.221 769.533 169.541 770.275 167.405C771.095 165.328 770.801 163.516 769.347 162.088C768.481 161.219 766.95 160.394 764.784 159.598C764.784 159.598 762.711 161.513 759.618 164.371C758.04 165.829 756.246 167.479 754.313 169.29C752.364 171.087 750.291 173.002 748.234 174.902C746.161 176.832 744.089 178.746 742.14 180.543C740.206 182.34 738.397 184.005 736.835 185.463C733.726 188.335 731.684 190.22 731.684 190.22C731.684 190.22 729.983 193.196 728.312 196.097C726.626 198.984 724.894 201.871 724.894 201.871C724.894 201.871 723.672 200.663 721.847 198.822C719.991 197.011 717.469 194.669 714.948 192.297C712.396 189.97 709.798 187.658 707.911 185.905C705.931 184.24 704.632 183.091 704.632 183.091ZM733.741 211.136C733.741 211.136 736.943 209.781 740.16 208.396C743.331 207.071 746.579 205.701 746.579 205.701C746.579 205.701 748.157 204.39 750.585 202.357C753.029 200.384 756.277 197.718 759.572 195.022C762.773 192.371 766.006 189.705 768.45 187.702C770.909 185.669 772.502 184.373 772.502 184.373L778.349 174.828C778.349 174.828 780.205 175.403 783.02 176.331C785.742 177.318 789.47 178.629 793.213 179.939C796.894 181.368 800.607 182.767 803.36 183.887C806.144 185.021 808 185.787 808 185.787L798.364 192.857C802.231 192.503 806.113 192.931 809.902 194.05C813.878 195.199 816.956 197.217 819.075 200.074C820.126 201.488 820.9 202.843 821.379 204.184C821.379 204.184 819.631 204.493 817.033 204.994C814.465 205.48 810.97 206.216 807.521 206.923C804.056 207.63 800.684 208.367 798.116 208.941C795.518 209.545 793.816 209.943 793.816 209.943C797.529 207.115 799.88 204.685 800.9 202.608C801.952 200.663 801.875 198.852 800.591 197.261C799.833 196.289 798.426 195.331 796.353 194.33C796.353 194.33 794.079 195.965 790.677 198.498C788.975 199.735 786.933 201.238 784.783 202.799C782.664 204.375 780.36 206.069 778.07 207.675C775.797 209.427 773.539 211.077 771.358 212.682C769.254 214.229 767.228 215.717 765.527 216.969C762.093 219.473 759.819 221.166 759.819 221.166C759.819 221.166 757.762 223.891 755.767 226.616C753.71 229.327 751.683 232.007 751.683 232.007C751.683 232.007 750.585 230.682 748.976 228.678C747.337 226.631 745.141 224.039 742.929 221.417C740.686 218.795 738.412 216.217 736.68 214.303C734.932 212.373 733.741 211.136 733.741 211.136ZM772.734 238.135C772.734 238.135 774.513 236.986 777.158 235.262C779.803 233.539 783.376 231.227 786.902 228.943C790.445 226.646 793.971 224.348 796.631 222.61C799.292 220.887 801.086 219.723 801.086 219.723L808 210.9C808 210.9 809.763 211.696 812.424 212.933C815.084 214.17 818.595 215.864 822.122 217.617C825.648 219.399 829.175 221.211 831.789 222.61C834.434 223.95 836.151 224.981 836.151 224.981C836.151 224.981 832.902 226.867 828.015 229.665C825.602 231.02 822.771 232.641 819.662 234.467C816.615 236.22 813.367 238.046 810.103 239.961C806.824 241.817 803.576 243.687 800.545 245.455C797.467 247.208 794.621 248.843 792.177 250.257C787.32 253.055 784.026 254.941 784.026 254.941C784.026 254.941 781.705 257.4 779.37 259.875C777.065 262.335 774.652 264.824 774.652 264.824C774.652 264.824 773.755 263.366 772.41 261.171C771.048 259.021 769.177 256.178 767.274 253.32C765.356 250.492 763.408 247.679 761.907 245.602C760.407 243.525 759.402 242.141 759.402 242.141C759.402 242.141 762.681 241.095 766.068 240.079C769.363 239.121 772.734 238.135 772.734 238.135ZM834.341 197.173C837.017 195.42 840.048 194.89 843.389 195.773C846.73 196.657 849.437 198.601 851.494 201.636C853.505 204.626 854.263 207.822 853.737 211.092C853.118 214.317 851.417 216.762 848.664 218.353C845.818 219.973 842.833 220.239 839.569 219.37C836.29 218.471 833.676 216.542 831.773 213.714C829.824 210.841 829.113 207.792 829.577 204.626C830.087 201.37 831.634 198.911 834.341 197.173ZM855.114 256.576C857.264 260.862 858.439 264.942 858.516 268.86C858.578 272.763 857.681 276.416 855.717 279.892C854.711 281.615 853.49 283.221 852.036 284.797C850.566 286.343 848.865 287.816 846.947 289.201C844.982 290.615 842.817 291.926 840.435 293.178C838.022 294.415 835.362 295.608 832.5 296.713C832.5 296.713 831.712 294.872 830.505 292.102C829.268 289.378 827.597 285.739 825.896 282.101C824.133 278.493 822.4 274.869 821.008 272.203C819.585 269.552 818.642 267.755 818.642 267.755C816.445 268.816 813.878 270.288 811.001 272.085C808.108 274 805.494 276.106 803.143 278.389C800.9 280.643 799.23 283.088 798.132 285.68C797.049 288.302 797.157 290.968 798.457 293.649C799.23 295.24 800.436 296.772 802.122 298.244C803.808 299.85 806.19 301.146 809.191 302.148L809.995 303.989C806.871 303.959 804.025 303.4 801.488 302.207C799.044 301.043 796.863 299.658 794.837 298.053C793.012 296.492 791.404 294.754 790.027 292.809C788.697 290.954 787.568 289.245 786.732 287.625C785.402 285.032 784.768 282.131 784.691 278.979C784.691 275.856 785.557 272.542 787.181 269.14C787.97 267.387 789.037 265.752 790.29 264.028C791.543 262.305 793.028 260.552 794.698 258.829C796.508 257.062 798.472 255.397 800.761 253.733C803.035 252.068 805.618 250.463 808.418 248.916C811.094 247.443 813.692 246.162 816.182 245.116C818.688 244.07 821.07 243.26 823.39 242.627C825.71 242.053 827.953 241.67 830.149 241.493C832.253 241.375 834.31 241.463 836.274 241.773C840.25 242.391 843.823 243.923 846.993 246.383C850.149 248.872 852.855 252.289 855.114 256.576ZM825.71 276.313C829.376 274.648 832.98 272.999 836.553 271.29C840.079 269.581 843.126 267.932 845.74 266.326C848.432 264.75 850.489 263.204 851.943 261.642C853.366 260.199 853.768 258.814 853.103 257.518C852.484 256.325 851.092 255.78 848.942 255.898C846.839 256.104 844.271 256.708 841.301 257.68C838.285 258.697 834.944 260.022 831.371 261.628C827.876 263.307 824.303 265.045 820.776 266.753L825.71 276.313ZM833.305 298.951C836.197 297.847 838.981 296.948 841.657 296.256C844.333 295.578 846.87 295.122 849.406 294.871C851.804 294.724 854.17 294.651 856.351 294.754C858.47 294.886 860.512 295.137 862.352 295.564C866.08 296.492 869.158 297.862 871.571 299.644C874.03 301.514 875.67 303.591 876.536 305.845C877.387 308.393 876.969 311.28 875.252 314.506C873.628 317.643 871.416 320.751 868.632 323.77C868.632 323.77 874.169 322.194 879.691 320.589C885.198 319.013 890.719 317.422 890.719 317.422L900.015 310.72C900.015 310.72 901.5 312.119 903.697 314.255C905.877 316.406 908.785 319.337 911.724 322.268C914.57 325.243 917.416 328.292 919.504 330.56C921.67 332.873 923 334.449 923 334.449C923 334.449 921.515 334.802 918.916 335.377C916.318 335.996 912.606 336.835 908.151 337.851C905.908 338.367 903.48 338.927 900.928 339.516C898.36 340.076 895.654 340.724 892.869 341.357C890.07 342.005 887.224 342.653 884.254 343.316C881.315 344.008 878.361 344.686 875.36 345.378C872.437 346.041 869.405 346.733 866.498 347.411C863.574 348.073 860.682 348.736 857.882 349.384C855.098 350.018 852.391 350.636 849.855 351.226C847.287 351.815 844.874 352.36 842.631 352.875C838.146 353.906 834.434 354.746 831.835 355.35C829.237 355.954 827.721 356.292 827.721 356.292C827.721 356.292 824.736 358.001 821.72 359.695C818.703 361.359 815.687 363.009 815.687 363.009C815.687 363.009 815.316 361.61 814.821 359.503C814.249 357.412 813.537 354.584 812.748 351.815C811.991 349.001 811.186 346.232 810.568 344.141C809.918 342.079 809.454 340.694 809.454 340.694C809.454 340.694 812.501 339.825 815.517 338.971C818.58 338.087 821.611 337.218 821.611 337.218C820.297 337.13 818.858 336.909 817.048 336.599C815.362 336.275 813.676 335.76 812.021 335.082C810.366 334.478 808.835 333.698 807.474 332.652C806.159 331.65 805.247 330.398 804.736 328.955C804.025 326.834 803.994 324.521 804.705 322.003C805.541 319.425 807.072 316.803 809.392 314.108C810.583 312.782 811.913 311.471 813.506 310.16C815.084 308.835 816.801 307.539 818.781 306.213C820.761 304.873 822.972 303.606 825.432 302.369C827.814 301.176 830.474 300.012 833.305 298.951ZM841.1 318.806C836.955 320.132 833.366 321.399 830.428 322.592C827.52 323.756 825.107 324.845 823.405 325.891C819.987 327.983 818.611 330.045 819.322 332.063C819.724 333.344 821.163 334.847 823.715 336.629C823.715 336.629 826.375 335.863 830.35 334.729C832.346 334.154 834.681 333.477 837.187 332.755C839.693 332.048 842.338 331.282 845.013 330.531C847.705 329.736 850.35 328.999 852.855 328.248C855.346 327.57 857.681 326.908 859.738 326.304C863.683 325.184 866.343 324.433 866.343 324.433C866.776 323.152 867.07 321.973 867.255 320.854C867.41 319.779 867.333 318.806 867.039 317.952C866.776 316.951 866.096 316.185 865.044 315.566C863.976 314.933 862.414 314.653 860.341 314.668C858.346 314.682 855.763 314.992 852.5 315.61C849.406 316.288 845.617 317.363 841.1 318.806ZM918.159 345.997C918.159 345.997 919.504 352.05 920.804 358.119C921.964 364.202 922.954 370.329 922.954 370.329C922.954 370.329 918.282 370.329 911.214 370.359C907.718 370.374 903.65 370.432 899.211 370.506C896.999 370.55 894.772 370.55 892.421 370.609C890.116 370.683 887.765 370.712 885.43 370.786C883.094 370.815 880.728 370.904 878.423 370.963C876.118 371.036 873.875 371.095 871.648 371.169C867.271 371.331 863.157 371.478 859.646 371.625C852.639 371.905 847.968 372.141 847.968 372.141L847.581 370.241C847.581 370.241 852.051 368.812 858.687 366.662C861.997 365.587 865.879 364.305 870.024 362.935C872.128 362.243 874.293 361.506 876.428 360.785C878.624 360.034 880.805 359.297 883.032 358.516C885.229 357.795 887.44 357.014 889.606 356.263C891.756 355.512 893.906 354.746 895.963 354.039C900.077 352.581 903.913 351.196 907.239 350.018C913.781 347.617 918.159 345.997 918.159 345.997ZM826.747 364.879C830.057 364.187 832.856 364.526 835.176 365.896C837.651 367.325 839.136 369.593 839.755 372.612C840.327 375.661 839.77 378.224 838.022 380.33C836.398 382.496 833.923 383.807 830.598 384.293C827.257 384.793 824.442 384.337 822.044 382.864C819.802 381.479 818.41 379.388 817.853 376.516C817.28 373.673 817.76 371.184 819.368 369.033C821.008 366.942 823.467 365.557 826.747 364.879Z" fill="#101C26"/>
</svg>
