<svg width="924" height="391" viewBox="0 0 924 391" fill="none" xmlns="http://www.w3.org/2000/svg">
<path d="M-3.26627e-06 364.734C-3.26627e-06 364.734 0.370698 362.617 0.97382 359.398C1.59305 356.134 2.50534 351.858 3.44836 347.597C4.42275 343.307 5.4582 339.076 6.24661 335.889C7.06681 332.643 7.6226 330.573 7.6226 330.573C7.6226 330.573 10.5662 332.56 13.4487 334.488C16.3933 336.402 19.3527 338.36 19.3527 338.36C19.3527 338.36 20.6985 338.424 23.0656 338.502C25.449 338.521 28.7911 338.613 32.7827 338.743C34.7939 338.816 36.9904 338.921 39.3263 339.014C41.6 339.134 44.0137 339.198 46.5502 339.338C49.0717 339.447 51.6391 339.587 54.2997 339.713C56.9129 339.898 59.6199 340.025 62.2495 340.151C64.9397 340.366 67.6464 340.508 70.2751 340.693C72.9039 340.878 75.455 341.076 77.9758 341.23C80.449 341.472 82.8926 341.61 85.165 341.819C87.4223 341.999 89.6332 342.178 91.6272 342.368C95.585 342.705 98.9241 343.003 101.274 343.228C103.608 343.468 104.921 343.589 104.921 343.589C104.921 343.589 101.631 342.054 96.649 339.728C94.2205 338.528 91.345 337.19 88.3021 335.658C85.1967 334.169 81.9231 332.531 78.711 330.923C75.4376 329.269 72.1481 327.66 69.1522 326.084C66.0785 324.537 63.2665 323.097 60.8233 321.838C56.0154 319.249 52.7427 317.552 52.7427 317.552C52.7427 317.552 51.0885 317.41 48.6157 317.139C46.0801 316.941 42.7263 316.584 39.3874 316.271C36.0792 315.973 32.7079 315.763 30.1421 315.505C27.6687 315.278 25.9679 315.151 25.9679 315.151C25.9679 315.151 22.4351 315.41 18.8709 315.698C15.2772 315.883 11.6973 316.186 11.6973 316.186C11.6973 316.186 12.3614 314.117 13.3657 310.991C14.3705 307.822 15.7609 303.67 17.1972 299.549C18.6501 295.354 20.1791 291.249 21.3527 288.185C22.5418 285.121 23.3149 283.009 23.3149 283.009C23.3149 283.009 26.0064 285.303 28.6979 287.597C31.3903 289.831 34.0833 292.022 34.0833 292.022C34.0833 292.022 35.4119 292.203 37.7443 292.545C40.0621 292.829 43.4294 293.319 47.4306 293.863C49.4077 294.156 51.5546 294.482 53.8253 294.809C56.1263 295.181 58.5055 295.495 60.9764 295.898C63.4779 296.317 66.0575 296.693 68.6674 297.113C71.2616 297.548 73.8868 297.984 76.5586 298.405C79.1988 298.87 81.8237 299.32 84.3864 299.799C86.9804 300.249 89.5125 300.698 92.0136 301.146C94.4679 301.623 96.8612 302.041 99.1149 302.471C101.322 302.915 103.437 303.328 105.413 303.71C109.333 304.503 112.621 305.139 114.936 305.6C117.174 306.074 118.501 306.358 118.501 306.358C118.501 306.358 117.396 305.664 115.432 304.472C113.39 303.278 110.598 301.544 107.284 299.462C105.581 298.421 103.755 297.26 101.884 296.054C99.9667 294.833 97.9105 293.58 95.8559 292.209C93.7538 290.912 91.6072 289.481 89.4288 288.109C87.2979 286.663 85.0743 285.202 82.8813 283.77C80.6734 282.294 78.4646 280.877 76.3346 279.373C74.1419 277.912 72.0725 276.497 70.0018 275.17C67.9332 273.696 65.9714 272.327 64.0858 271.047C62.2309 269.782 60.4996 268.534 58.8286 267.405C55.5952 265.118 52.9444 263.223 51.0138 261.84C49.129 260.501 48.0721 259.719 48.0721 259.719C48.0721 259.719 44.7861 258.95 41.5177 258.034C38.2637 257.192 35.0252 256.35 35.0252 256.35L40.763 244.743C40.763 244.743 42.9011 247.854 45.0083 250.964C47.1929 254.076 49.3783 257.129 49.3783 257.129C49.3783 257.129 50.3887 257.91 52.2267 259.278C54.05 260.586 56.6705 262.436 59.8415 264.751C61.4045 265.864 63.1209 267.068 64.9606 268.318C66.769 269.582 68.6994 270.98 70.6927 272.306C72.6846 273.734 74.7385 275.149 76.8546 276.55C78.9701 277.995 81.0853 279.455 83.2474 280.886C85.3626 282.346 87.5252 283.748 89.6253 285.178C91.7573 286.55 93.8579 287.951 95.8977 289.277C97.922 290.603 99.8852 291.869 101.726 293.045C103.612 294.266 105.33 295.41 107.002 296.422C110.285 298.503 113 300.236 114.872 301.413C116.821 302.605 117.941 303.27 117.941 303.27L126.597 304.115C126.597 304.115 125.99 305.448 125.125 307.499C124.244 309.535 123.061 312.231 121.922 314.971C120.769 317.726 119.77 320.468 118.951 322.534C118.163 324.601 117.679 325.98 117.679 325.98C117.679 325.98 114.034 325.442 108.659 324.599C105.941 324.191 102.79 323.719 99.4229 323.214C95.9775 322.767 92.3784 322.244 88.7942 321.765C85.1638 321.272 81.5329 320.807 78.1181 320.39C74.7344 319.958 71.5195 319.633 68.7545 319.239C63.314 318.675 59.6518 318.24 59.6518 318.24C59.6518 318.24 62.463 319.739 66.5959 321.906C68.7013 322.968 71.0981 324.225 73.6636 325.589C76.2761 326.908 79.042 328.333 81.8542 329.759C84.6211 331.11 87.4334 332.536 90.0307 333.84C92.6905 335.102 95.119 336.301 97.2245 337.363C101.453 339.354 104.251 340.676 104.251 340.676L112.672 340.634C112.672 340.634 112.107 342.292 111.375 344.713C110.629 347.164 109.7 350.438 108.77 353.726C107.934 357.016 107.004 360.364 106.443 362.832C105.866 365.3 105.502 366.96 105.502 366.96L97.7593 362.826C97.7593 362.826 96.4911 362.749 94.1397 362.657C91.9123 362.551 88.6319 362.475 84.7492 362.302C82.7999 362.23 80.6645 362.184 78.4212 362.108C76.1618 362.076 73.8099 362.013 71.3654 361.934C68.9197 361.943 66.367 361.848 63.7977 361.841C61.2292 361.775 58.6134 361.767 55.9518 361.714C53.3825 361.707 50.7351 361.743 48.166 361.721C45.6123 361.7 43.0576 361.752 40.6125 361.717C38.1511 361.741 35.7515 361.765 33.522 361.807C31.2617 361.834 29.1098 361.862 27.1586 361.923C23.2268 361.941 19.9125 362.07 17.668 362.082C15.3291 362.197 14.0601 362.178 14.0601 362.178C14.0601 362.178 10.5063 362.821 7.01487 363.434C3.50774 364.062 -3.26627e-06 364.734 -3.26627e-06 364.734ZM76.0775 239.851C78.5054 235.67 81.3692 232.395 84.637 230.097C87.9512 227.801 91.6401 226.365 95.7329 225.907C97.7793 225.686 99.9147 225.731 102.109 225.969C104.288 226.206 106.479 226.709 108.807 227.391C111.134 228.073 113.535 229.035 115.949 230.205C118.455 231.346 120.958 232.767 123.598 234.323C123.598 234.323 122.414 236.001 120.814 238.529C119.168 241.07 116.999 244.459 114.814 247.921C112.722 251.311 110.66 254.804 109.199 257.422C107.707 260.039 106.722 261.794 106.722 261.794C108.904 262.886 111.627 264.089 114.876 265.285C118.172 266.438 121.473 267.251 124.747 267.725C128.038 268.17 131.088 268.096 133.914 267.473C136.818 266.807 138.993 265.202 140.515 262.629C141.512 261.125 142.126 259.291 142.467 257.144C142.87 254.895 142.582 252.326 141.741 249.395L142.849 247.716C144.61 250.144 145.719 252.695 146.223 255.326C146.65 257.941 146.723 260.448 146.471 262.906C146.175 265.23 145.6 267.507 144.718 269.691C143.914 271.802 143.098 273.662 142.162 275.226C140.64 277.798 138.612 279.995 135.908 281.843C133.251 283.604 129.937 284.839 126.057 285.55C124.055 285.905 122.056 286.038 119.796 286.065C117.645 286.064 115.309 285.913 112.837 285.597C110.273 285.251 107.712 284.64 105 283.791C102.241 282.985 99.346 281.912 96.4392 280.603C93.5621 279.382 91.0267 278.079 88.6463 276.762C86.3431 275.462 84.2899 273.988 82.3757 272.546C80.5235 271.09 78.9052 269.519 77.5497 267.967C76.1948 266.37 75.0885 264.718 74.1994 263.025C72.4534 259.551 71.7317 255.885 71.9879 252.027C72.3382 248.082 73.6652 244.032 76.0775 239.851ZM109.982 251.345C106.434 249.423 102.915 247.648 99.4427 245.815C95.9386 244.055 92.7706 242.61 89.8916 241.522C86.9373 240.286 84.4552 239.587 82.2596 239.423C80.1748 239.084 78.7289 239.535 78.0602 240.838C77.3475 241.977 77.6985 243.412 79.0067 245.022C80.4092 246.531 82.4443 248.182 85.0037 249.972C87.6257 251.719 90.6642 253.561 94.1208 255.394C97.6091 257.168 101.113 258.928 104.617 260.702L109.982 251.345ZM93.4444 181.227C96.2947 183.243 98.4757 185.515 99.8654 187.923C101.426 190.318 102.258 192.718 102.563 195.228C102.885 197.62 102.65 199.99 101.949 202.442C101.251 204.716 100.168 206.882 98.761 208.941L96.8898 207.735C98.3427 205.707 99.1658 203.345 99.2661 200.649C99.3821 197.939 98.7392 195.262 97.4775 192.561C97.1165 194 96.3522 195.493 95.1827 197.186C93.0356 200.133 90.5019 201.969 87.5349 202.708C84.5692 203.358 81.7285 202.846 78.921 201.082C76.0515 199.331 74.4445 196.964 74.067 194.129C73.7066 191.176 74.633 188.079 76.8448 184.941C79.1477 181.923 81.8518 180.075 84.8635 179.454C87.8917 178.76 90.7164 179.317 93.4444 181.227ZM168.938 234.115C168.938 234.115 166.856 231.432 164.805 228.734C162.753 226.052 160.718 223.311 160.718 223.311C160.718 223.311 158.956 222.077 156.397 220.213C153.87 218.349 150.469 215.898 147.022 213.402C143.636 210.922 140.204 208.47 137.646 206.606C135.056 204.741 133.402 203.494 133.402 203.494L122.385 200.006C122.385 200.006 122.612 198.167 122.946 195.356C123.419 192.577 123.983 188.856 124.594 185.106C125.205 181.341 125.939 177.608 126.505 174.8C127.057 171.964 127.47 170.097 127.47 170.097L136.743 177.629C135.648 174.076 135.267 170.4 135.584 166.646C135.95 162.686 137.374 159.405 139.887 156.861C141.159 155.553 142.397 154.524 143.63 153.804C143.63 153.804 144.335 155.406 145.354 157.705C146.436 160.02 147.846 163.136 149.32 166.208C150.747 169.265 152.22 172.337 153.349 174.579C154.477 176.865 155.26 178.365 155.26 178.365C151.556 175.438 148.563 173.715 146.278 173.255C143.995 172.706 142.24 173.153 140.795 174.606C139.992 175.553 139.305 177.061 138.64 179.174C138.64 179.174 140.859 180.975 144.133 183.645C145.786 184.995 147.714 186.57 149.764 188.236C151.876 189.917 154.064 191.717 156.252 193.487C158.455 195.287 160.659 197.058 162.709 198.753C164.775 200.419 166.718 201.979 168.355 203.329C171.661 206 173.864 207.785 173.864 207.785C173.864 207.785 177.081 209.099 180.281 210.456C183.497 211.785 186.651 213.141 186.651 213.141C186.651 213.141 185.518 214.422 183.773 216.314C182.058 218.25 179.823 220.856 177.495 223.447C175.368 226.084 173.209 228.751 171.494 230.731C169.964 232.744 168.938 234.115 168.938 234.115ZM161.729 135.048C165.381 131.842 169.19 129.612 173.046 128.37C176.948 127.158 180.913 126.993 184.943 127.714C186.98 128.17 188.952 128.803 190.982 129.687C192.951 130.584 194.932 131.703 196.894 133.058C198.855 134.427 200.783 136.032 202.769 137.859C204.709 139.684 206.676 141.776 208.624 144.059C208.624 144.059 207.012 145.318 204.586 147.215C202.19 149.126 198.981 151.69 195.847 154.328C192.73 156.966 189.642 159.634 187.307 161.649C185.065 163.696 183.559 165.075 183.559 165.075C185.253 166.764 187.408 168.667 190.148 170.814C192.874 172.902 195.743 174.652 198.772 176.111C201.693 177.508 204.545 178.315 207.528 178.609C210.42 178.797 213.033 177.95 215.414 175.965C216.761 174.805 217.96 173.259 218.993 171.358C220.136 169.325 220.729 166.813 220.881 163.779L222.509 162.52C223.351 165.332 223.621 168.107 223.181 170.754C222.757 173.357 221.995 175.764 220.926 178.018C219.812 180.14 218.546 182.097 216.972 183.917C215.569 185.68 214.17 187.208 212.713 188.396C210.518 190.414 207.896 191.894 204.709 192.851C201.555 193.706 198.008 193.891 194.052 193.407C192.122 193.099 190.085 192.658 187.989 192.023C185.893 191.36 183.722 190.548 181.493 189.499C179.264 188.406 176.961 187.061 174.616 185.465C172.271 183.84 169.96 181.979 167.514 179.866C165.252 177.814 163.268 175.84 161.469 173.899C159.718 171.898 158.166 169.96 156.909 168.011C155.622 166.047 154.566 164.116 153.788 162.218C153.057 160.306 152.542 158.412 152.306 156.507C151.726 152.696 152.274 148.99 153.811 145.4C155.364 141.811 158.029 138.341 161.729 135.048ZM190.11 156.162C187.38 153.293 184.649 150.483 181.918 147.747C179.155 145.01 176.571 142.747 174.23 140.827C171.846 138.744 169.714 137.343 167.729 136.489C165.808 135.578 164.29 135.644 163.193 136.587C162.173 137.53 162.029 138.929 162.791 140.87C163.631 142.74 164.963 144.881 166.847 147.37C168.7 149.828 171.016 152.441 173.654 155.22C176.416 157.971 179.163 160.708 181.911 163.43L190.11 156.162ZM221.735 120.146C219.35 116.987 217.275 113.818 215.508 110.668C213.68 107.517 212.208 104.371 211.03 101.23C209.838 98.0288 208.969 94.9062 208.424 91.9063C207.894 88.9065 207.642 85.9402 207.713 83.0964C207.847 80.2093 208.274 77.4148 209.07 74.7729C209.851 72.1309 210.939 69.6258 212.398 67.1703C213.887 64.7742 215.731 62.5011 217.849 60.4677C219.998 58.5084 222.469 56.7454 225.199 55.2218C228.133 53.5686 231.167 52.4179 234.21 51.7832C237.253 51.1338 240.306 50.8973 243.396 51.2656C246.473 51.5453 249.602 52.4153 252.663 53.7856C255.755 55.1562 258.869 57.1021 261.946 59.5338C261.946 59.5338 260.707 60.6806 258.871 62.4085C257.021 64.0772 254.635 66.4016 252.233 68.7405C249.878 71.08 247.539 73.3756 245.811 75.1345C244.083 76.9524 242.936 78.13 242.936 78.13L239.125 68.6273C238.037 66.7546 236.698 65.0994 235.032 63.6606C233.381 62.1483 231.678 61.0922 229.985 60.4196C228.264 59.5696 226.675 59.149 225.205 59.128C223.628 59.0466 222.493 59.3547 221.616 60.1234C219.745 62.1161 219.752 66.0075 221.695 71.9017C222.691 74.7902 224.07 77.979 225.862 81.4389C226.812 83.2065 227.824 85.0045 228.958 86.9073C230.046 88.7506 231.256 90.6988 232.62 92.7376C233.938 94.7905 235.318 96.7853 236.668 98.6765C238.019 100.553 239.326 102.296 240.694 104.026C242.062 105.77 243.386 107.38 244.695 108.903C246.036 110.425 247.331 111.888 248.658 113.248C251.298 115.924 253.972 118.336 256.465 120.435C258.943 122.504 261.363 124.293 263.694 125.8C265.949 127.247 268.115 128.413 270.208 129.298C272.253 130.226 274.241 130.844 276.078 131.18C279.83 131.867 283.008 131.514 285.611 130.225C286.454 129.75 287.269 129.025 288.01 128.092C288.629 127.01 289.155 125.898 289.59 124.754C290.041 123.478 290.338 122.2 290.711 121.026C291.055 119.704 291.319 118.559 291.58 117.619C291.58 117.619 289.279 116.156 285.843 113.985C284.078 112.913 282.022 111.66 279.873 110.333C277.678 109.048 275.33 107.659 272.95 106.269C270.54 104.923 268.144 103.562 265.887 102.292C263.645 101.066 261.494 99.9001 259.666 98.9306C255.994 96.9916 253.52 95.7182 253.52 95.7182C253.52 95.7182 254.925 94.9128 257.077 93.8085C259.198 92.689 262.083 91.1971 264.968 89.6906C267.821 88.2425 270.751 86.825 272.933 85.7654C275.099 84.7497 276.61 84.0637 276.61 84.0637C276.61 84.0637 277.665 86.0981 279.247 89.1571C279.998 90.7008 280.933 92.4682 281.896 94.3981C282.937 96.2996 283.945 98.3334 285.046 100.398C286.054 102.432 287.124 104.452 288.056 106.381C289.112 108.298 290.047 110.08 290.752 111.608C292.365 114.667 293.434 116.746 293.434 116.746C293.315 119.707 292.95 122.458 292.249 124.954C291.625 127.51 290.632 129.795 289.442 131.827C288.238 133.829 286.849 135.696 285.139 137.279C283.475 138.92 281.535 140.337 279.32 141.529C277.746 142.317 276.11 143.031 274.185 143.49C272.289 143.994 270.21 144.303 267.963 144.507C265.747 144.682 263.334 144.588 260.969 144.319C258.559 144.034 256.043 143.512 253.438 142.767C250.817 142.007 248.216 141.012 245.556 139.751C242.85 138.489 240.101 136.961 237.356 135.168C234.595 133.404 231.886 131.243 229.289 128.788C226.663 126.26 224.18 123.438 221.735 120.146ZM298.884 52.5872C303.521 50.855 307.835 50.0911 312.011 50.298C316.094 50.5478 319.885 51.7221 323.353 53.8499C325.01 54.92 326.663 56.1965 328.159 57.677C329.7 59.232 331.13 60.9769 332.434 62.9117C333.722 64.8462 334.945 67.0304 336.087 69.4199C337.198 71.8088 338.214 74.4028 339.18 77.2172C339.18 77.2172 337.19 77.8226 334.189 78.7379C331.235 79.6981 327.285 80.9979 323.365 82.3423C319.445 83.7162 315.539 85.1346 312.614 86.2278C309.672 87.3504 307.773 88.0898 307.773 88.0898C308.656 90.2396 310.043 92.8094 311.69 95.6777C313.474 98.6069 315.495 101.245 317.691 103.605C319.856 105.906 322.322 107.739 324.935 108.985C327.58 110.217 330.396 110.316 333.32 109.311C335.032 108.687 336.703 107.664 338.442 106.2C340.242 104.737 341.759 102.592 343.052 99.8097L345.043 99.1895C344.769 102.119 343.957 104.761 342.546 107.099C341.12 109.378 339.452 111.329 337.617 113.028C335.875 114.698 333.92 116.1 331.783 117.249C329.739 118.384 327.853 119.3 326.11 119.954C323.247 120.989 320.222 121.491 316.897 121.296C313.62 120.984 310.199 119.889 306.773 118.086C305.068 117.177 303.335 116.018 301.652 114.697C299.952 113.405 298.209 111.862 296.547 110.128C294.87 108.321 293.227 106.278 291.666 103.986C290.089 101.664 288.655 99.1228 287.178 96.2864C285.9 93.6592 284.76 91.1077 283.866 88.6481C282.942 86.1881 282.263 83.8643 281.785 81.5875C281.383 79.3266 281.166 77.2009 281.149 75.1223C281.163 73.0589 281.423 71.1464 281.913 69.3109C282.864 65.5658 284.722 62.2906 287.579 59.4717C290.39 56.6375 294.184 54.3332 298.884 52.5872ZM317.24 82.0339C315.851 78.4618 314.355 74.8439 312.856 71.4029C311.343 67.8879 309.854 64.8598 308.358 62.2737C306.896 59.5112 305.439 57.4711 303.958 56.0202C302.51 54.4666 301.093 53.9747 299.707 54.5593C298.4 55.0271 297.717 56.2703 297.687 58.3777C297.69 60.3676 298.165 62.8507 298.959 65.7952C299.753 68.7545 300.899 71.9694 302.288 75.5121C303.847 79.013 305.361 82.4984 306.859 85.9984L317.24 82.0339ZM330.989 44.8052C330.989 44.8052 332.237 43.0689 334.193 40.5026C336.164 37.9364 338.829 34.5253 341.586 31.1302C344.343 27.7645 347.177 24.4 349.333 21.8955C351.504 19.4059 352.983 17.7466 352.983 17.7466C352.983 17.7466 354.111 22.1994 355.255 26.6819C356.384 31.1053 357.527 35.6025 357.527 35.6025C357.527 35.6025 361.238 34.7858 364.964 33.984C368.675 33.1819 372.416 32.4688 372.416 32.4688L372.866 34.5388C372.866 34.5388 369.14 35.2964 365.43 36.0542C361.75 36.8714 358.055 37.6736 358.055 37.6736C358.055 37.6736 358.803 40.5881 359.916 44.9964C360.473 47.2006 361.118 49.7451 361.791 52.4226C362.526 55.2189 363.242 58.1329 364.021 61.0773C364.753 64.0062 365.501 66.9059 366.19 69.6131C366.893 72.3943 367.553 74.9537 368.096 77.0987C369.224 81.522 369.957 84.4215 369.957 84.4215C370.485 86.4631 371.126 88.1674 371.943 89.5056C372.806 90.8887 373.626 91.947 374.482 92.7109C375.432 93.4319 376.383 94.0056 377.292 94.2839C378.217 94.5771 379.052 94.648 379.782 94.4815C380.76 94.2744 381.494 93.7984 381.954 93.009C382.539 92.133 382.679 91.0442 382.388 89.7577L384.436 89.3594C384.886 91.4589 384.843 93.4482 384.321 95.2685C383.893 97.0901 383.033 98.7435 381.791 100.141C380.64 101.569 379.168 102.757 377.375 103.733C375.581 104.681 373.62 105.463 371.43 105.978C368.541 106.688 365.971 106.696 363.702 106.28C361.403 105.746 359.297 104.729 357.445 103.258C355.64 101.714 354.027 99.8188 352.558 97.5131C351.292 95.1514 350.198 92.5858 349.309 89.7873C349.309 89.7873 348.345 86.8845 346.998 82.5318C346.332 80.4292 345.517 77.8676 344.672 75.2171C343.813 72.5075 342.91 69.635 341.991 66.7477C341.088 63.8752 340.108 60.9428 339.31 58.2929C338.42 55.5828 337.636 53.0069 336.97 50.9043C335.592 46.5806 334.689 43.7082 334.689 43.7082L330.989 44.8052ZM373.068 34.4532C373.068 34.4532 374.53 32.8822 376.746 30.5406C378.978 28.1698 382.025 25.0442 385.088 21.904C388.213 18.8237 391.383 15.7587 393.769 13.4491C396.2 11.1696 397.862 9.67505 397.862 9.67505C397.862 9.67505 398.525 14.2391 399.187 18.7885C399.85 23.3526 400.512 27.9019 400.512 27.9019C400.512 27.9019 404.281 27.4103 408.079 26.978C411.847 26.5158 415.63 26.1128 415.63 26.1128L415.878 28.2536C415.878 28.2536 412.08 28.6269 408.328 29.0451C404.545 29.5071 400.793 29.9695 400.793 29.9695C400.793 29.9695 401.26 32.9831 401.909 37.4438C402.187 39.644 402.599 42.2441 402.992 45.0651C403.401 47.8568 403.854 50.8407 404.291 53.8244C404.729 56.7639 405.166 59.7918 405.56 62.5538C405.984 65.3751 406.35 67.9451 406.689 70.2199C407.338 74.6511 407.775 77.6643 407.775 77.6643C408.071 79.7026 408.556 81.4636 409.187 82.8287C409.924 84.3279 410.605 85.4284 411.413 86.2654C412.283 87.1769 413.142 87.705 414.049 88.1159C414.941 88.5119 415.744 88.6707 416.458 88.563C417.48 88.4744 418.26 88.058 418.813 87.2994C419.428 86.468 419.722 85.4257 419.57 84.1264L421.648 83.876C421.88 86.0166 421.651 88.0327 420.913 89.8057C420.284 91.5803 419.242 93.0541 417.876 94.4055C416.588 95.699 414.994 96.7375 413.11 97.5214C411.227 98.261 409.175 98.8656 406.942 99.1727C404.041 99.6473 401.473 99.478 399.254 98.7978C397.006 98.0141 395.026 96.8214 393.301 95.1312C391.684 93.472 390.289 91.4327 389.131 89.0431C388.068 86.5074 387.193 83.827 386.631 80.9447C386.631 80.9447 386.037 78.0325 385.126 73.5828C384.677 71.3949 384.11 68.7925 383.577 66.0581C382.998 63.2492 382.389 60.3368 381.781 57.3654C381.173 54.4382 380.565 51.4815 379.986 48.658C379.436 45.9527 378.901 43.3656 378.437 41.1185C377.54 36.728 376.917 33.7564 376.917 33.7564L373.068 34.4532ZM427.134 83.4088C427.134 83.4088 426.962 81.3722 426.65 78.2871C426.383 75.2616 425.977 71.1876 425.617 67.129C425.226 63.0552 424.851 58.9816 424.554 55.9262C424.272 52.8563 424.085 50.79 424.085 50.79L419.368 40.7291C419.368 40.7291 420.962 39.6611 423.369 38.0445C425.822 36.4581 429.103 34.3086 432.414 32.2775C435.724 30.2316 439.112 28.1721 441.718 26.7057C444.278 25.224 446.026 24.2319 446.026 24.2319C446.026 24.2319 446.144 27.8449 446.33 33.2571C446.431 36.0001 446.525 39.1706 446.662 42.5627C446.784 45.9694 446.918 49.5973 447.052 53.2252C447.171 56.794 447.305 60.4514 447.396 63.8429C447.518 67.2201 447.658 70.4354 447.728 73.1338C447.944 78.5906 448.063 82.2036 448.063 82.2036C448.063 82.2036 449.225 85.3598 450.356 88.5155C451.442 91.6264 452.558 94.7524 452.558 94.7524C452.558 94.7524 450.793 94.8452 448.145 94.9106C445.496 95.0497 441.919 95.1609 438.417 95.391C434.87 95.6058 431.353 95.821 428.718 96.0635C426.069 96.2173 424.317 96.4577 424.317 96.4577C424.317 96.4577 424.983 93.1212 425.694 89.9328C426.407 86.6559 427.134 83.4088 427.134 83.4088ZM419.606 12.1075C419.309 9.06688 420.323 6.31023 422.772 3.94252C425.204 1.58933 428.303 0.292167 432.099 0.0219998C435.879 -0.159966 439.131 0.785532 441.842 2.84354C444.49 4.88593 445.939 7.51554 446.019 10.5826C446.144 13.7387 444.961 16.4193 442.53 18.6546C440.113 20.949 437.139 22.1743 433.53 22.3587C429.936 22.5728 426.791 21.673 424.141 19.7043C421.429 17.7789 419.902 15.2514 419.606 12.1075ZM455.686 94.7086C455.686 94.7086 456.674 91.5978 457.695 88.3991C458.669 85.1996 459.736 82.0163 459.736 82.0163C459.736 82.0163 459.719 79.9819 459.717 76.8865C459.698 73.8498 459.695 69.7373 459.675 65.6835C459.672 61.5858 459.652 57.5025 459.65 54.4366C459.647 51.3264 459.614 49.3213 459.614 49.3213L455.847 38.876C455.847 38.876 457.548 37.9126 460.075 36.5042C462.68 35.1262 466.127 33.2887 469.62 31.4812C473.143 29.7627 476.697 27.9708 479.393 26.7269C482.073 25.468 483.912 24.595 483.912 24.595L483.255 35.906C485.574 32.8436 488.414 30.2162 491.787 28.0827C495.287 25.8185 498.922 24.9269 502.601 25.2742C505.198 25.4881 507.494 26.243 509.488 27.4654C511.561 28.6299 513.207 30.4811 514.518 32.9467C515.832 35.2353 516.639 38.3275 516.958 42.0612C517.102 43.9058 517.089 45.9102 517.026 48.1203C516.901 50.3443 516.68 52.8175 516.303 55.421C516.303 55.421 516.045 57.2451 515.617 60.0838C515.237 62.879 514.673 66.6002 514.14 70.3218C513.622 74.0583 513.074 77.7945 512.662 80.6039C512.267 83.3989 512.007 85.2819 512.007 85.2819C512.007 85.2819 512.579 88.6065 513.136 91.872C513.615 95.2101 514.171 98.5492 514.171 98.5492C514.171 98.5492 512.409 98.3472 509.768 97.9558C507.157 97.6533 503.65 97.1905 500.126 96.816C496.587 96.4266 493.093 96.0967 490.448 95.9558C487.804 95.756 486.026 95.6275 486.026 95.6275C486.026 95.6275 487.278 92.5205 488.53 89.384C489.843 86.3073 491.141 83.2009 491.141 83.2009C491.141 83.2009 491.306 81.3755 491.548 78.5342C491.773 75.781 492.089 72.071 492.405 68.3463C492.722 64.5774 493.038 60.8822 493.279 58.1145C493.52 55.2879 493.67 53.4328 493.67 53.4328C493.911 50.6946 493.96 48.3074 493.85 46.257C493.723 44.3095 493.436 42.7135 492.959 41.4686C492.11 39.0833 490.535 37.7785 488.215 37.6275C486.761 37.5478 485.054 37.8625 483.093 38.6011C483.093 38.6011 482.977 41.3263 482.717 45.4203C482.626 47.4973 482.483 49.8979 482.353 52.505C482.193 55.0822 482.061 57.8367 481.883 60.5168C481.72 63.2709 481.587 66.0696 481.458 68.6472C481.282 71.1947 481.185 73.6254 481.048 75.6723C480.835 79.7817 480.671 82.5358 480.671 82.5358C480.671 82.5358 481.538 85.7909 482.39 89.0016C483.211 92.2561 484.001 95.4659 484.001 95.4659C484.001 95.4659 482.237 95.3966 479.593 95.2262C476.947 95.1296 473.421 94.9466 469.877 94.8814C466.333 94.8161 462.79 94.7214 460.128 94.7129C457.497 94.7196 455.686 94.7086 455.686 94.7086ZM511.982 120.731C512.272 118.849 512.884 117.206 513.786 115.789C514.811 114.477 516.003 113.359 517.377 112.524C518.736 111.674 520.199 111.105 521.767 110.803C523.397 110.473 525.022 110.496 526.566 110.768C524.981 110.083 523.506 109.295 522.08 108.376C520.607 107.47 519.399 106.436 518.348 105.227C517.375 103.99 516.683 102.594 516.225 101.04C515.752 99.5298 515.669 97.7451 515.977 95.6712C516.62 91.789 518.351 88.733 521.261 86.593C524.31 84.396 527.742 83.6342 531.54 84.3222L532.513 84.4834C531.264 83.0064 530.205 81.3109 529.334 79.4413C528.432 77.5712 527.749 75.4979 527.225 73.2204C526.746 70.9437 526.518 68.5231 526.508 65.9582C526.498 63.408 526.753 60.7142 527.242 57.8617C527.63 55.6709 528.123 53.6291 528.739 51.6775C529.37 49.7408 530.123 47.9533 530.999 46.2559C532.734 42.9199 534.893 40.1943 537.478 38.0202C540.063 35.8461 542.978 34.4284 546.194 33.5898C549.564 32.7682 553.124 32.7894 556.843 33.5647C560.33 34.3514 563.299 35.6466 565.858 37.5109C568.323 39.4032 570.347 41.82 571.883 44.8046C571.883 44.8046 575.378 43.97 578.934 43.1363C582.475 42.3466 586.045 41.6163 586.045 41.6163C586.045 41.6163 585.105 44.6098 584.132 47.7061C583.175 50.7583 582.218 53.8106 582.218 53.8106L573.877 51.5249C574.323 53.8897 574.458 56.3679 574.218 59.0619C573.979 61.7707 573.412 64.6074 572.533 67.5871C571.899 69.7448 571.143 71.7239 570.281 73.5541C569.449 75.4879 568.495 77.2431 567.466 78.8351C565.439 82.0637 563.127 84.6398 560.592 86.6082C558.056 88.6062 555.358 89.9828 552.453 90.6931C549.517 91.4915 546.513 91.5518 543.334 90.8432C541.236 90.4006 539.327 89.6658 537.638 88.7131C535.932 87.8192 534.417 86.6036 533.106 85.1699C532.057 86.0394 531.408 87.0324 531.207 88.1351C530.957 89.3549 531.144 90.3599 531.737 91.0906C532.437 91.926 533.279 92.6161 534.277 93.2051C535.323 93.6622 536.339 94.06 537.402 94.3847C538.559 94.6812 539.516 94.8717 540.21 95.029C543.157 95.7048 546.175 96.7944 549.188 98.2819C552.217 99.6811 554.791 101.531 556.848 103.815C559.045 106.058 560.54 108.673 561.411 111.634C562.251 114.638 562.095 117.952 560.961 121.532C559.761 125.318 557.907 128.328 555.416 130.415C552.968 132.754 550.252 134.38 547.202 135.472C544.244 136.683 541.125 137.272 537.826 137.417C534.635 137.577 531.62 137.313 528.78 136.742C527.036 136.393 525.094 135.82 522.939 135.008C520.86 134.241 518.985 133.271 517.224 131.993C515.477 130.76 514.028 129.206 512.941 127.319C511.883 125.535 511.559 123.29 511.982 120.731ZM555.578 86.4926C557.028 86.867 558.07 86.5281 558.672 85.5344C559.259 84.5109 559.612 83.6463 559.791 83.0592C560.28 81.3122 560.538 79.4734 560.536 77.4982C560.702 75.6138 560.652 73.6822 560.462 71.778C560.274 69.7854 559.945 67.8793 559.49 66.1777C559.145 64.3008 558.689 62.6287 558.121 61.1761C557.57 59.6648 556.73 57.7956 555.617 55.5098C554.614 53.1371 553.331 50.8194 551.831 48.5722C550.455 46.2827 548.92 44.2856 547.258 42.5374C545.58 40.8184 543.954 39.7929 542.395 39.4906C540.928 39.2191 539.932 39.6324 539.406 40.6714C538.882 41.6073 538.593 42.3402 538.493 42.8251C538.175 44.4862 538.237 46.6392 538.616 49.4304C539.026 52.1337 539.635 55.0314 540.457 58.1385C541.341 61.2612 542.348 64.4889 543.463 67.7181C544.64 70.9481 545.882 73.8991 547.144 76.5703C548.5 79.2133 549.876 81.4587 551.258 83.3209C552.78 85.1261 554.22 86.1931 555.578 86.4926ZM541.272 132.366C544.866 133.272 547.603 133.414 549.5 132.837C551.458 132.275 552.792 131.012 553.47 129.061C554.006 127.256 553.936 125.648 553.275 124.297C552.581 123.02 551.591 121.885 550.259 120.82C548.942 119.872 547.483 119.026 545.9 118.281C544.361 117.626 543.039 117.002 541.947 116.515C539.286 115.342 536.9 114.365 534.777 113.494C532.697 112.816 530.463 112.092 528.043 111.335C527.088 112.117 526.319 112.887 525.72 113.66C525.213 114.419 524.844 115.372 524.643 116.46C524.194 118.591 524.445 120.525 525.303 122.218C526.147 123.866 527.379 125.373 529.002 126.619C530.561 128.027 532.417 129.174 534.57 130.148C536.801 131.123 539.035 131.862 541.272 132.366ZM620.938 22.878C620.938 22.878 622.756 23.4493 625.544 24.4471C628.253 25.4881 631.887 26.837 635.536 28.1714C639.122 29.6228 642.724 31.0302 645.432 32.1301C648.094 33.2735 649.879 34.0212 649.879 34.0212C649.879 34.0212 649.642 35.4476 649.156 38.0644C648.701 40.6522 648.03 44.2834 647.208 48.7231C646.79 50.9281 646.291 53.3089 645.761 55.8071C645.306 58.3507 644.774 60.9668 644.192 63.7443C643.627 66.4779 643.014 69.314 642.385 72.1498C641.772 75.0154 641.096 77.9095 640.451 80.8188C639.759 83.7275 639.083 86.6511 638.392 89.5008C637.702 92.3358 637.012 95.1265 636.339 97.8143C635.666 100.532 634.994 103.131 634.355 105.598C633.685 108.08 633.063 110.429 632.445 112.558C631.315 116.875 630.336 120.399 629.619 122.953C628.918 125.405 628.495 126.873 628.495 126.873C628.495 126.873 629.41 125.692 631.002 123.622C632.657 121.537 634.944 118.592 637.749 115.11C639.151 113.376 640.679 111.481 642.287 109.47C643.941 107.43 645.642 105.361 647.422 103.205C649.202 101.034 651.061 98.7906 652.95 96.5329C654.856 94.2459 656.792 91.9593 658.729 89.6433C660.666 87.3567 662.632 85.1148 664.568 82.8577C666.473 80.6149 668.393 78.4018 670.297 76.2622C672.169 74.1515 673.962 72.1283 675.693 70.163C677.423 68.2273 679.044 66.3932 680.553 64.7638C683.603 61.4024 686.167 58.5793 687.928 56.6735C689.736 54.6799 690.774 53.5597 690.774 53.5597C690.774 53.5597 692.477 54.5569 695.058 55.9644C697.638 57.4015 701.031 59.3366 704.424 61.2864C707.816 63.2657 711.194 65.2153 713.679 66.7837C716.18 68.367 717.852 69.3932 717.852 69.3932C717.852 69.3932 714.914 71.3854 712.007 73.3633C709.114 75.371 706.253 77.4085 706.253 77.4085C706.253 77.4085 703.675 81.2484 699.753 87.0884C697.823 89.9794 695.546 93.3666 693.126 96.9877C691.924 98.7983 690.659 100.667 689.362 102.609C688.112 104.507 686.784 106.463 685.504 108.347C684.191 110.333 682.894 112.275 681.628 114.173C680.332 116.07 679.083 117.925 677.881 119.75C675.429 123.415 673.184 126.743 671.207 129.693C667.316 135.504 664.722 139.388 664.722 139.388C664.722 139.388 663.794 142.588 662.804 145.802C661.846 148.942 660.903 152.157 660.903 152.157C660.903 152.157 659.368 151.265 657.128 149.877C654.873 148.445 651.849 146.648 648.794 144.909C645.754 143.126 642.652 141.402 640.317 140.145C637.967 138.918 636.462 138.012 636.462 138.012C636.462 138.012 638.955 135.792 641.511 133.514C644.082 131.237 646.684 128.96 646.684 128.96C646.684 128.96 649.063 124.896 652.631 118.904C653.52 117.383 654.487 115.761 655.518 114.036C656.549 112.297 657.659 110.441 658.753 108.584C659.864 106.699 661.021 104.755 662.195 102.767C663.384 100.765 664.574 98.7622 665.763 96.7745C666.953 94.7573 668.158 92.7404 669.331 90.7672C670.49 88.7349 671.664 86.7765 672.773 84.9498C673.868 83.0492 674.947 81.2074 675.993 79.4977C677.024 77.7731 677.977 76.0768 678.88 74.6304C682.464 68.5645 684.843 64.5449 684.843 64.5449C684.843 64.5449 683.9 65.5927 682.202 67.3963C680.551 69.2447 678.192 71.8495 675.345 75.0075C673.914 76.579 672.404 78.2821 670.769 80.0718C669.179 81.8916 667.511 83.8135 665.749 85.8225C664.019 87.7583 662.224 89.87 660.43 91.9522C658.62 94.0637 656.794 96.1897 654.984 98.3159C653.157 100.471 651.332 102.583 649.552 104.754C647.803 106.881 646.072 108.92 644.402 110.945C642.716 112.999 641.109 115.01 639.581 116.875C638.084 118.74 636.65 120.518 635.327 122.15C632.726 125.43 630.551 128.155 629.038 130.064C627.524 132.003 626.672 133.141 626.672 133.141C626.672 133.141 621.969 130.819 617.248 128.643C612.464 126.497 607.679 124.498 607.679 124.498C607.679 124.498 607.992 123.161 608.505 120.869C609.033 118.562 609.776 115.271 610.638 111.333C611.068 109.334 611.517 107.204 611.998 104.94C612.463 102.677 612.947 100.281 613.446 97.7975C613.916 95.2837 614.432 92.7263 614.933 90.1098C615.436 87.4637 615.922 84.8175 616.393 82.2005C616.864 79.5245 617.352 76.834 617.807 74.2168C618.246 71.6141 618.686 68.9819 619.078 66.5112C619.469 63.9963 619.86 61.5697 620.203 59.2605C620.545 56.9659 620.886 54.7745 621.147 52.7441C621.761 48.7436 622.227 45.3895 622.539 43.0209C622.836 40.6667 623.01 39.2984 623.01 39.2984C623.01 39.2984 621.356 43.4757 618.837 49.7485C617.585 52.885 616.108 56.5489 614.52 60.4471C613.749 62.426 612.931 64.4484 612.097 66.4854C611.294 68.5375 610.428 70.633 609.578 72.7435C608.774 74.8103 607.924 76.9208 607.075 78.928C606.271 81.0391 605.468 83.0618 604.666 85.0108C603.079 88.8942 601.633 92.5734 600.366 95.6949C597.862 101.983 596.193 106.145 596.193 106.145C596.193 106.145 595.913 109.428 595.633 112.799C595.324 116.038 595.013 119.409 595.013 119.409L585.327 115.851C585.327 115.851 587.425 113.154 589.535 110.575C591.663 107.923 593.821 105.3 593.821 105.3C593.821 105.3 595.523 101.021 598.091 94.5717C599.36 91.347 600.838 87.5357 602.443 83.5198C603.246 81.5119 604.065 79.4305 604.916 77.2906C605.75 75.2094 606.617 73.0697 607.468 70.9151C608.319 68.7162 609.155 66.5761 610.006 64.451C610.856 62.3553 611.675 60.2739 612.493 58.2367C614.083 54.2206 615.561 50.4388 616.86 47.2292C619.383 40.7501 621.085 36.4556 621.085 36.4556C621.085 36.4556 621.071 33.0947 621.043 29.6451C621.013 26.2988 620.938 22.878 620.938 22.878ZM670.118 142.029C671.587 139.928 673.391 138.229 675.422 136.961C677.562 135.561 679.852 134.577 682.228 134.006C684.73 133.335 687.303 133.062 689.995 133.144C692.703 133.212 695.405 133.708 698.071 134.527C698.071 134.527 701.739 135.626 705.392 136.724C709.074 137.927 712.771 139.188 712.771 139.188C712.771 139.188 713.747 138.008 715.228 136.231C716.692 134.498 718.676 132.109 720.629 129.778C722.582 127.433 724.566 125.058 726.03 123.311C727.511 121.519 728.471 120.368 728.471 120.368C729.715 118.897 730.123 117.458 729.77 116.127C729.403 114.721 728.69 113.694 727.664 112.942C726.394 111.936 724.958 111.665 723.375 111.923C721.963 112.198 720.374 112.868 718.655 114.037C716.982 115.207 715.212 116.715 713.36 118.502C711.598 120.481 709.819 122.578 708.085 124.794C708.085 124.794 705.952 120.224 703.804 115.609C701.516 111.066 699.197 106.522 699.197 106.522C701.956 105.176 704.752 104.494 707.71 104.374C710.653 104.224 713.528 104.56 716.272 105.321C719.157 106.011 721.973 107.142 724.63 108.58C727.396 110.02 730.02 111.649 732.409 113.393C734.782 115.225 736.873 117.363 738.664 119.835C740.548 122.309 741.716 125.097 742.011 128.24C742.431 131.356 741.919 134.71 740.488 138.433C739.796 140.31 738.762 142.241 737.419 144.197C736.059 146.227 734.373 148.31 732.361 150.463C732.361 150.463 731.072 151.845 729.107 153.94C727.095 156.093 724.486 158.885 721.845 161.707C719.236 164.486 716.596 167.322 714.615 169.446C712.635 171.555 711.33 172.951 711.33 172.951C711.33 172.951 709.862 176.026 708.379 179.085C706.897 182.086 705.383 185.086 705.383 185.086C705.383 185.086 704.266 184.186 702.554 182.717C700.84 181.322 698.577 179.373 696.266 177.498C693.956 175.637 691.614 173.791 689.838 172.409C688.077 171.058 686.882 170.186 686.882 170.186C686.882 170.186 688.851 167.796 690.803 165.481C692.787 163.121 694.74 160.761 694.74 160.761C690.864 162.298 687.119 163.335 683.459 163.872C679.892 164.352 676.545 163.464 673.342 161.281C672.193 160.439 671.092 159.436 670.043 158.124C669.025 156.827 668.194 155.386 667.644 153.786C667.125 152.201 667.011 150.431 667.318 148.431C667.688 146.358 668.569 144.262 670.118 142.029ZM689.166 158.736C690.055 159.353 691.087 159.707 692.295 159.65C693.658 159.581 694.93 159.408 696.157 159.086C696.157 159.086 699.937 154.556 703.763 149.967C707.574 145.408 711.37 140.848 711.37 140.848C709.381 140.275 707.448 140.173 705.494 140.411C703.571 140.634 701.66 141.167 699.776 141.921C698.031 142.737 696.344 143.833 694.779 145.049C693.274 146.339 691.923 147.735 690.741 149.251C690.315 149.776 689.825 150.476 689.241 151.308C688.826 152.172 688.395 153.094 688.042 153.988C687.797 154.899 687.722 155.811 687.833 156.683C688.007 157.496 688.462 158.18 689.166 158.736ZM707.676 187.138C707.676 187.138 710.687 185.442 713.713 183.834C716.74 182.153 719.796 180.575 719.796 180.575C719.796 180.575 721.273 179.078 723.471 176.854C725.717 174.616 728.638 171.636 731.606 168.671C734.558 165.706 737.479 162.77 739.709 160.547C741.923 158.294 743.383 156.855 743.383 156.855L748.217 146.798C748.217 146.798 750.099 147.193 753 147.839C755.853 148.587 759.694 149.512 763.518 150.539C767.342 151.566 771.181 152.638 774.111 153.432C776.993 154.283 778.873 154.885 778.873 154.885L770.061 162.807C773.847 162.198 777.748 162.165 781.684 162.899C785.728 163.738 788.985 165.45 791.424 168.05C792.597 169.408 793.538 170.718 794.139 171.98C794.139 171.98 792.429 172.457 789.896 173.187C787.362 173.962 783.989 174.975 780.646 175.988C777.288 177.046 773.93 178.089 771.457 178.879C768.937 179.742 767.336 180.265 767.336 180.265C770.708 177.159 772.804 174.506 773.578 172.38C774.427 170.313 774.159 168.496 772.725 167.046C771.871 166.164 770.35 165.317 768.195 164.491C768.195 164.491 766.094 166.377 762.958 169.192C761.359 170.628 759.54 172.253 757.58 174.038C755.604 175.808 753.503 177.695 751.418 179.566C749.317 181.467 747.216 183.354 745.24 185.124C743.28 186.894 741.446 188.533 739.862 189.97C736.711 192.799 734.641 194.657 734.641 194.657C734.641 194.657 732.896 197.609 731.183 200.489C729.455 203.353 727.681 206.217 727.681 206.217C727.681 206.217 726.476 204.991 724.676 203.123C722.845 201.284 720.355 198.905 717.867 196.496C715.346 194.131 712.78 191.78 710.917 190C708.959 188.306 707.676 187.138 707.676 187.138ZM736.401 215.612C736.401 215.612 739.624 214.302 742.862 212.963C746.054 211.682 749.323 210.358 749.323 210.358C749.323 210.358 750.92 209.069 753.379 207.069C755.852 205.13 759.14 202.509 762.475 199.859C765.716 197.252 768.988 194.63 771.462 192.661C773.952 190.662 775.564 189.388 775.564 189.388L781.55 179.922C781.55 179.922 783.399 180.523 786.202 181.492C788.912 182.518 792.623 183.883 796.349 185.248C800.012 186.73 803.706 188.183 806.445 189.342C809.214 190.516 811.06 191.309 811.06 191.309L801.318 198.246C805.192 197.947 809.07 198.43 812.846 199.604C816.807 200.81 819.857 202.873 821.937 205.762C822.969 207.192 823.723 208.559 824.184 209.906C824.184 209.906 822.431 210.191 819.824 210.655C817.248 211.105 813.74 211.792 810.279 212.45C806.802 213.108 803.418 213.797 800.841 214.335C798.233 214.902 796.525 215.276 796.525 215.276C800.279 212.499 802.666 210.101 803.717 208.038C804.797 206.107 804.745 204.294 803.484 202.684C802.739 201.7 801.345 200.722 799.285 199.691C799.285 199.691 796.987 201.294 793.546 203.78C791.826 204.994 789.762 206.468 787.589 207.999C785.446 209.546 783.116 211.208 780.803 212.782C778.503 214.503 776.22 216.121 774.015 217.696C771.888 219.214 769.84 220.673 768.12 221.902C764.648 224.358 762.349 226.02 762.349 226.02C762.349 226.02 760.252 228.717 758.217 231.415C756.12 234.097 754.055 236.751 754.055 236.751C754.055 236.751 752.975 235.409 751.394 233.381C749.783 231.31 747.622 228.685 745.447 226.03C743.24 223.375 741.002 220.763 739.296 218.823C737.575 216.867 736.401 215.612 736.401 215.612ZM775.029 243.181C775.029 243.181 776.825 242.057 779.496 240.371C782.167 238.684 785.775 236.422 789.336 234.188C792.913 231.939 796.474 229.691 799.16 227.99C801.847 226.303 803.659 225.165 803.659 225.165L810.702 216.436C810.702 216.436 812.455 217.257 815.099 218.533C817.743 219.808 821.232 221.553 824.735 223.357C828.238 225.191 831.741 227.054 834.336 228.491C836.963 229.87 838.667 230.926 838.667 230.926C838.667 230.926 835.39 232.766 830.46 235.496C828.026 236.817 825.171 238.398 822.034 240.181C818.961 241.891 815.685 243.672 812.392 245.542C809.085 247.352 805.808 249.177 802.75 250.902C799.645 252.612 796.775 254.207 794.309 255.587C789.41 258.318 786.087 260.157 786.087 260.157C786.087 260.157 783.73 262.585 781.358 265.028C779.017 267.456 776.568 269.912 776.568 269.912C776.568 269.912 775.691 268.44 774.376 266.225C773.045 264.054 771.213 261.183 769.35 258.297C767.471 255.44 765.562 252.598 764.09 250.499C762.619 248.399 761.632 247 761.632 247C761.632 247 764.928 246 768.332 245.032C771.642 244.121 775.029 243.181 775.029 243.181ZM837.252 203.077C839.955 201.361 842.996 200.874 846.326 201.806C849.656 202.738 852.336 204.721 854.351 207.787C856.32 210.807 857.033 214.016 856.46 217.28C855.795 220.498 854.058 222.92 851.281 224.473C848.41 226.053 845.42 226.276 842.167 225.36C838.899 224.414 836.311 222.446 834.448 219.59C832.539 216.688 831.87 213.627 832.38 210.466C832.937 207.216 834.519 204.777 837.252 203.077ZM857.189 262.807C859.279 267.126 860.397 271.225 860.418 275.146C860.425 279.052 859.475 282.694 857.46 286.144C856.429 287.854 855.184 289.443 853.707 290.999C852.214 292.525 850.491 293.975 848.553 295.333C846.567 296.72 844.382 298 841.981 299.219C839.549 300.422 836.87 301.578 833.991 302.643C833.991 302.643 833.228 300.789 832.061 298.002C830.862 295.258 829.242 291.594 827.592 287.929C825.879 284.294 824.197 280.644 822.843 277.956C821.457 275.284 820.538 273.472 820.538 273.472C818.326 274.502 815.736 275.939 812.832 277.696C809.91 279.57 807.265 281.64 804.88 283.891C802.604 286.114 800.898 288.536 799.762 291.114C798.642 293.722 798.712 296.391 799.974 299.092C800.725 300.694 801.91 302.244 803.576 303.742C805.24 305.372 807.604 306.703 810.592 307.748L811.371 309.602C808.245 309.528 805.406 308.927 802.885 307.697C800.456 306.498 798.294 305.082 796.289 303.447C794.486 301.858 792.901 300.096 791.551 298.132C790.247 296.256 789.142 294.53 788.329 292.897C787.035 290.285 786.442 287.372 786.409 284.217C786.454 281.093 787.368 277.79 789.041 274.409C789.856 272.666 790.947 271.046 792.225 269.339C793.503 267.633 795.014 265.9 796.71 264.2C798.545 262.457 800.535 260.82 802.849 259.188C805.147 257.555 807.755 255.985 810.578 254.478C813.276 253.042 815.894 251.797 818.401 250.786C820.923 249.776 823.317 248.999 825.648 248.399C827.977 247.857 830.227 247.506 832.427 247.36C834.533 247.272 836.59 247.39 838.551 247.728C842.519 248.403 846.072 249.987 849.21 252.493C852.331 255.029 854.991 258.486 857.189 262.807ZM827.489 282.135C831.18 280.522 834.809 278.923 838.408 277.264C841.961 275.605 845.033 273.998 847.672 272.429C850.387 270.891 852.467 269.373 853.944 267.831C855.388 266.407 855.811 265.028 855.164 263.721C854.562 262.519 853.177 261.954 851.024 262.041C848.916 262.217 846.339 262.785 843.353 263.715C840.321 264.689 836.96 265.968 833.362 267.523C829.841 269.153 826.241 270.841 822.688 272.5L827.489 282.135ZM834.764 304.894C837.674 303.83 840.472 302.971 843.159 302.316C845.846 301.677 848.391 301.256 850.932 301.042C853.333 300.928 855.702 300.888 857.882 301.023C860.001 301.186 862.04 301.465 863.875 301.919C867.592 302.9 870.652 304.315 873.041 306.132C875.474 308.039 877.085 310.14 877.92 312.408C878.735 314.969 878.276 317.852 876.512 321.055C874.842 324.17 872.585 327.248 869.756 330.23C869.756 330.23 875.319 328.732 880.866 327.204C886.398 325.706 891.946 324.193 891.946 324.193L901.342 317.62C901.342 317.62 902.808 319.042 904.975 321.21C907.126 323.392 909.994 326.367 912.892 329.341C915.697 332.359 918.501 335.45 920.558 337.749C922.692 340.094 924 341.689 924 341.689C924 341.689 922.51 342.022 919.901 342.56C917.293 343.141 913.567 343.929 909.095 344.882C906.844 345.366 904.406 345.891 901.844 346.444C899.268 346.968 896.55 347.577 893.755 348.171C890.945 348.78 888.088 349.388 885.108 350.008C882.157 350.659 879.192 351.295 876.18 351.945C873.246 352.566 870.202 353.216 867.283 353.852C864.349 354.474 861.446 355.095 858.635 355.704C855.841 356.298 853.124 356.878 850.577 357.432C848 357.984 845.578 358.495 843.327 358.979C838.824 359.947 835.098 360.734 832.49 361.301C829.881 361.868 828.36 362.185 828.36 362.185C828.36 362.185 825.349 363.852 822.307 365.504C819.265 367.126 816.224 368.734 816.224 368.734C816.224 368.734 815.873 367.329 815.407 365.214C814.865 363.113 814.193 360.274 813.443 357.492C812.725 354.666 811.96 351.884 811.371 349.783C810.75 347.71 810.306 346.318 810.306 346.318C810.306 346.318 813.367 345.492 816.397 344.681C819.473 343.84 822.519 343.014 822.519 343.014C821.205 342.907 819.769 342.665 817.962 342.33C816.28 341.982 814.601 341.442 812.955 340.74C811.307 340.112 809.786 339.31 808.439 338.244C807.138 337.223 806.243 335.957 805.753 334.506C805.071 332.374 805.073 330.059 805.821 327.55C806.694 324.983 808.263 322.381 810.623 319.717C811.833 318.408 813.183 317.115 814.796 315.827C816.393 314.523 818.129 313.25 820.129 311.952C822.129 310.639 824.36 309.404 826.838 308.201C829.239 307.041 831.917 305.915 834.764 304.894ZM842.28 324.871C838.114 326.138 834.506 327.354 831.548 328.506C828.623 329.629 826.193 330.685 824.476 331.707C821.026 333.751 819.619 335.794 820.302 337.823C820.686 339.111 822.104 340.635 824.632 342.454C824.632 342.454 827.305 341.726 831.298 340.648C833.303 340.102 835.649 339.457 838.166 338.771C840.684 338.099 843.341 337.371 846.029 336.657C848.733 335.9 851.39 335.201 853.907 334.485C856.409 333.842 858.755 333.212 860.822 332.638C864.784 331.574 867.456 330.86 867.456 330.86C867.908 329.584 868.219 328.41 868.42 327.292C868.59 326.219 868.527 325.245 868.245 324.386C867.996 323.38 867.326 322.604 866.283 321.97C865.224 321.321 863.665 321.019 861.591 321.004C859.594 320.99 857.006 321.263 853.732 321.835C850.627 322.469 846.82 323.491 842.28 324.871ZM918.992 353.174C918.992 353.174 920.252 359.25 921.465 365.34C922.539 371.443 923.442 377.588 923.442 377.588C923.442 377.588 918.768 377.521 911.696 377.45C908.198 377.415 904.127 377.416 899.685 377.426C897.471 377.439 895.243 377.407 892.889 377.432C890.583 377.473 888.23 377.469 885.892 377.51C883.555 377.506 881.186 377.56 878.879 377.587C876.572 377.627 874.327 377.654 872.098 377.696C867.716 377.796 863.598 377.885 860.082 377.982C853.068 378.162 848.391 378.331 848.391 378.331L848.031 376.425C848.031 376.425 852.524 375.059 859.194 373.002C862.521 371.973 866.423 370.747 870.59 369.435C872.705 368.772 874.882 368.067 877.028 367.375C879.236 366.655 881.429 365.949 883.668 365.2C885.876 364.509 888.1 363.759 890.278 363.039C892.439 362.318 894.601 361.582 896.67 360.904C900.807 359.504 904.665 358.173 908.009 357.042C914.589 354.733 918.992 353.174 918.992 353.174ZM827.262 370.763C830.584 370.118 833.38 370.497 835.682 371.9C838.138 373.365 839.591 375.656 840.167 378.686C840.696 381.744 840.102 384.301 838.324 386.383C836.668 388.526 834.173 389.802 830.839 390.241C827.489 390.695 824.679 390.198 822.301 388.69C820.077 387.273 818.714 385.16 818.198 382.278C817.666 379.426 818.181 376.942 819.821 374.814C821.491 372.745 823.972 371.394 827.262 370.763Z" fill="#FEA88A"/>
</svg>
