<svg width="1001" height="512" viewBox="0 0 1001 512" fill="none" xmlns="http://www.w3.org/2000/svg">
<path d="M501.87 0C533.734 0 561.159 45.8047 591.194 52.0384C622.275 58.543 664.325 27.1038 693.055 39.2998C722.307 51.7673 730.404 104.89 756.261 123.049C782.379 141.208 832.787 129.012 854.987 151.779C877.188 174.816 865.174 227.125 882.673 254.228C899.911 281.061 951.101 289.734 963.377 319.819C975.13 349.632 945.094 392.998 951.102 425.522C956.729 454.974 1000.74 476.618 1000.74 512H3C7.91784 481.542 47.011 454.721 52.6387 425.522C58.9071 393.269 28.61 349.632 40.3632 319.819C52.3777 289.463 103.569 281.061 121.068 254.228C138.567 227.125 126.814 174.816 148.753 151.779C170.953 128.741 221.362 141.208 247.48 123.049C273.337 105.161 281.695 52.0384 310.686 39.2998C339.416 27.1037 381.204 58.2719 412.546 52.0384C442.843 45.8047 470.006 6.74184e-05 501.87 0Z" fill="#101C26"/>
<path d="M495.049 5C526.67 5 553.884 50.3225 583.69 56.4906C614.532 62.9268 656.26 31.8185 684.77 43.8862C713.798 56.2224 721.833 108.786 747.492 126.754C773.41 144.722 823.432 132.654 845.462 155.181C867.492 177.976 855.571 229.734 872.936 256.552C890.042 283.102 940.84 291.684 953.022 321.452C964.685 350.952 934.879 393.861 940.84 426.042C946.425 455.185 990.098 476.601 990.098 511.611H0C4.88018 481.473 43.6739 454.934 49.2586 426.042C55.4789 394.129 25.4139 350.952 37.077 321.452C48.9995 291.416 99.7991 283.102 117.164 256.552C134.529 229.734 122.866 177.976 144.637 155.181C166.667 132.386 216.689 144.722 242.607 126.754C268.266 109.054 276.56 56.4906 305.329 43.8862C333.839 31.8184 375.308 62.6585 406.409 56.4906C436.474 50.3225 463.429 5.00007 495.049 5Z" fill="#70270E"/>
</svg>
