<svg width="140" height="140" viewBox="0 0 140 140" fill="none" xmlns="http://www.w3.org/2000/svg">
<path fill-rule="evenodd" clip-rule="evenodd" d="M28.6814 9.50961C28.9083 9.50961 29.1003 9.57909 29.1003 9.6833C29.1003 9.78752 28.5243 10.2739 27.8436 10.7949C27.1454 11.2986 26.4124 11.9066 26.2029 12.1324C26.0109 12.3582 25.6095 12.9314 25.3128 13.4177C25.0335 13.8867 24.5971 14.7899 24.3528 15.4152C24.1084 16.0404 23.8117 16.9784 23.707 17.4995C23.6023 18.0205 23.4975 18.6458 23.4801 18.889C23.4452 19.1322 23.323 19.3232 23.1659 19.3232C22.9564 19.3232 22.9041 19.0974 22.9564 18.1421C22.9739 17.4647 23.1833 16.4226 23.4452 15.6236C23.6895 14.8941 24.1259 13.8519 24.4226 13.3308C24.7193 12.8098 25.2429 12.0455 25.592 11.6287C25.9411 11.2118 26.6916 10.5691 27.2502 10.187C27.8087 9.82225 28.4545 9.50961 28.6814 9.50961ZM34.0747 12.6534C34.0747 12.6361 34.5111 12.775 35.0347 12.9487C35.5583 13.1398 36.239 13.4003 36.5183 13.5393C36.7976 13.6956 37.391 14.1472 37.8099 14.5641C38.2288 14.9809 38.8572 15.7625 39.2237 16.2836C39.5902 16.8047 40.1488 17.7774 40.4978 18.4548C40.8295 19.1322 41.3182 20.3307 41.5625 21.147C41.8244 21.9634 42.0164 22.8666 42.0164 23.1445C41.9989 23.4224 42.0687 24.0477 42.156 24.534C42.2607 25.003 42.4352 25.7151 42.54 26.0972C42.6622 26.4794 42.8891 27.7126 43.0811 28.8242C43.2556 29.9532 43.5698 31.2212 43.7618 31.6554C43.9538 32.0896 44.1108 32.4891 44.1108 32.5586C44.0934 32.6455 44.4425 33.1144 44.8439 33.6181C45.2628 34.1392 46.0308 34.8687 46.5544 35.2682C47.0781 35.6503 48.0555 36.2235 48.7362 36.5362C49.4344 36.8488 50.5165 37.1615 51.267 37.2657C52.3143 37.422 52.8554 37.4046 53.9724 37.1962C54.7404 37.0399 55.5782 36.9704 55.8575 37.0225C56.1193 37.0746 56.5905 37.3699 56.9047 37.6652C57.2014 37.9604 57.7425 38.3426 58.0742 38.5163C58.4058 38.69 59.1563 38.9679 59.7323 39.1242C60.3083 39.2979 61.2159 39.4195 61.7395 39.4195C62.2631 39.4021 63.0486 39.2805 63.4849 39.1589C64.026 39.0026 64.3751 38.7421 64.6195 38.3773C64.8114 38.082 65.1431 37.7694 65.37 37.6652C65.5794 37.561 65.8761 37.4741 66.0158 37.4741C66.1554 37.4741 66.3823 37.7346 66.522 38.0299C66.6616 38.3426 66.8187 39.1937 66.8885 39.9058C66.9408 40.6179 67.0979 41.8338 67.2376 42.598C67.3597 43.3623 67.5343 44.1786 67.5866 44.4218C67.6565 44.6823 67.5692 45.2729 67.3598 45.8982C67.1678 46.4714 66.9408 47.2009 66.7139 48.0694L65.6667 47.2356C65.0907 46.7667 64.1133 46.0893 63.4849 45.7592C62.8566 45.4119 62.0711 45.0471 61.7395 44.9429C61.4079 44.8387 60.413 44.7518 59.5577 44.7692C58.7025 44.7692 57.4807 44.9081 56.8524 45.0471C56.224 45.2034 54.9324 45.7071 53.9724 46.1414C53.0125 46.593 51.9303 47.2183 51.5812 47.5135C51.2147 47.8262 50.918 48.2257 50.918 48.4167C50.918 48.6252 51.075 48.7989 51.3194 48.8683C51.5289 48.9378 52.4888 48.9031 53.4488 48.8336C54.4088 48.7468 56.608 48.6773 58.336 48.6773C60.4479 48.6773 61.8966 48.7641 62.7693 48.9378C63.4675 49.0768 64.0784 49.2505 64.1133 49.3199C64.1482 49.4068 64.4449 49.4589 64.7591 49.4589C65.0558 49.4589 65.6143 49.5457 66.6267 49.8063V50.7963C66.6267 51.3521 66.6616 52.0469 66.7139 52.3248C66.7488 52.6027 66.8361 53.9402 66.9234 55.2776C66.9932 56.615 67.063 60.6447 67.063 64.2228C67.063 67.8008 67.0107 71.431 66.9234 72.2995C66.8536 73.1679 66.7139 74.4532 66.6092 75.1654C66.5219 75.8775 66.3649 76.9023 66.2776 77.4234C66.1903 77.9445 66.0681 78.6913 66.0158 79.0735C65.9634 79.4556 65.754 80.6367 65.562 81.6788C65.37 82.721 65.1256 83.9195 65.0034 84.319C64.8289 84.9616 64.7591 85.0311 64.5322 84.8227C64.3925 84.6837 63.7293 84.2842 63.0486 83.9369C62.3679 83.5895 61.2857 82.8947 60.605 82.3736C59.9243 81.8699 58.877 81.2446 58.2487 80.9841C57.4458 80.6541 56.6778 80.4977 55.6306 80.4283C54.5135 80.3588 53.8852 80.4109 53.0997 80.6367C52.5237 80.793 51.6161 81.1404 51.0925 81.4183C50.5689 81.6789 49.958 82.1131 49.7311 82.391C49.382 82.8252 49.2598 82.8773 48.7711 82.7558C48.4569 82.6863 47.7064 82.5821 47.0781 82.53C46.4497 82.4605 45.4723 82.4778 43.849 82.6515L43.8141 83.4679C43.7967 84.0237 43.5698 84.7011 43.1334 85.5869C42.6971 86.438 42.1385 87.2023 41.5102 87.8102C40.9691 88.3313 39.9917 89.0087 39.311 89.3387C38.6303 89.6687 37.9845 89.9292 37.8797 89.9292C37.7575 89.9292 37.6528 89.8424 37.6528 89.7556C37.6528 89.6687 38.1415 89.3387 38.7524 89.0434C39.3633 88.7308 40.3059 88.036 40.8993 87.4281C41.6324 86.6986 42.1734 85.9517 42.6098 85.0659C42.9589 84.3537 43.2381 83.5547 43.2381 83.2768C43.2381 82.86 43.1858 82.8252 42.7669 82.9294C42.4876 82.9816 41.6149 83.3984 40.7946 83.8326C39.9742 84.2842 38.6826 85.118 37.9146 85.7085C37.1467 86.2817 36.3612 86.9417 36.1692 87.1675C35.9772 87.3933 35.7154 87.7581 35.6107 87.9665C35.4885 88.1923 35.3838 88.505 35.3838 88.6613C35.3663 88.835 35.6281 89.165 35.9423 89.4082C36.2565 89.6513 36.7278 89.9466 37.007 90.0682C37.2688 90.1898 37.775 90.2766 38.1415 90.2766C38.4906 90.2766 39.2586 90.1203 39.8346 89.9466C40.4106 89.7729 41.0215 89.5819 41.196 89.5124C41.4404 89.4255 41.4927 89.495 41.4578 89.964C41.4404 90.2766 41.5276 90.7109 41.6324 90.9193C41.7545 91.1451 41.9116 91.3188 42.0164 91.3188C42.1211 91.3188 42.1909 91.4404 42.1909 91.5793C42.1909 91.7183 42.5225 91.9788 42.9414 92.1699C43.3429 92.3436 44.2854 92.6215 45.0359 92.7778C45.8388 92.9515 47.2351 93.0557 48.5267 93.0557C49.6962 93.0557 51.1274 92.9689 51.7034 92.8647C52.2794 92.7604 53.0997 92.5694 53.5361 92.4304C53.9724 92.2741 54.6008 92.0483 54.9324 91.892C55.264 91.753 55.7004 91.5446 55.8924 91.4404C56.0844 91.3362 56.8349 90.954 57.5505 90.5719C58.2661 90.1898 58.9992 89.7556 59.1738 89.5992C59.4007 89.4082 59.4879 89.1476 59.4356 88.7481C59.3832 88.2618 59.4356 88.1923 59.7323 88.2618C59.9243 88.3139 60.3606 88.4008 60.6923 88.4529C61.181 88.5571 61.4079 88.4876 62.3155 87.7581L61.8093 86.9765C61.5301 86.5422 61.2683 86.1601 61.2159 86.108C61.1461 86.0559 60.8494 85.5522 60.5352 84.979C60.221 84.4058 60.029 83.8674 60.1163 83.7805C60.1861 83.7111 60.3606 83.6937 60.4828 83.7458C60.5875 83.7979 60.9366 84.3363 61.2159 84.9269C61.5999 85.7259 61.949 86.1428 62.49 86.5075C62.8915 86.768 63.4849 87.0112 63.7991 87.0633C64.0958 87.1154 64.3576 87.1675 64.3576 87.1849C64.3576 87.2196 64.0435 88.366 63.6595 89.7556C63.258 91.1451 62.5424 93.2989 62.0362 94.5321C61.5475 95.7653 60.5875 97.8844 59.9068 99.2218C59.2261 100.559 58.2312 102.192 57.7076 102.869C57.1665 103.547 56.4335 104.346 56.0495 104.658C55.6829 104.971 54.5484 105.648 53.5361 106.152C52.5237 106.673 51.2321 107.177 50.6561 107.299C50.0802 107.42 48.5442 107.524 47.2526 107.542C45.4548 107.559 44.617 107.49 43.6745 107.229C42.9938 107.055 42.3829 106.847 42.2782 106.777C42.1734 106.708 41.8244 106.569 41.4927 106.447C41.1611 106.343 39.8171 105.701 38.5255 105.006C37.2339 104.328 35.698 103.46 35.122 103.078C34.546 102.713 33.8129 102.192 33.4813 101.949C33.1671 101.688 32.4166 101.098 31.8231 100.629C31.2472 100.16 30.2523 99.3434 29.6239 98.8049C28.9956 98.2839 27.512 96.8596 26.3076 95.6611C25.1033 94.4626 23.7593 92.9515 23.323 92.2741C22.8692 91.5967 22.0314 90.1898 21.4379 89.1476C20.8445 88.1055 19.7274 85.9864 18.9769 84.4579C18.2264 82.9294 17.2839 80.8625 16.8999 79.8551C16.4984 78.8477 16.1842 77.8403 16.1842 77.5971C16.1842 77.1802 16.1319 77.1628 14.9625 77.1107C14.2817 77.0934 13.3392 76.9197 12.8331 76.7286C12.3269 76.5549 11.5938 76.1554 11.2098 75.8602C10.8258 75.5649 10.0055 74.8354 9.39459 74.2448C8.7837 73.6543 7.84117 72.5774 7.30009 71.8652C6.77647 71.1531 5.99104 69.8678 5.57214 68.9993C5.15324 68.1308 4.64707 66.8455 4.47253 66.1334C4.22817 65.1781 4.15835 64.4138 4.21071 63.2675C4.26308 61.9474 4.35035 61.5653 4.7867 60.7489C5.06597 60.2278 5.6245 59.5331 6.02594 59.2204C6.65429 58.7514 6.89865 58.6646 7.71899 58.6646C8.26007 58.6646 8.92333 58.7862 9.25496 58.9599C9.55168 59.1162 10.1277 59.4809 10.5117 59.7762C10.8956 60.0715 11.4716 60.5926 11.8033 60.9226C12.1349 61.2526 12.868 62.1211 13.4614 62.8506C14.0548 63.5801 14.6657 64.4312 14.8403 64.7265C14.9974 65.0217 15.2766 65.2649 15.4512 65.2649C15.713 65.2649 15.7479 65.0044 15.7479 62.3469C15.7479 60.7489 15.8526 58.2304 15.9748 56.754C16.097 55.2776 16.289 53.7144 16.4111 53.2975C16.5333 52.8806 16.7253 52.4464 16.8475 52.3422C16.9697 52.238 17.0744 52.0295 17.0744 51.8906C17.0744 51.7516 17.2489 51.2306 17.4933 50.7616C17.7202 50.2752 17.8773 49.8584 17.8424 49.8063C17.8075 49.7542 17.8947 49.2157 18.0518 48.5904C18.2438 47.7741 18.3137 46.5756 18.2962 44.335C18.2962 42.6154 18.2264 40.67 18.1391 39.9926C18.0518 39.3152 18.0169 38.4294 18.0518 37.9952C18.0693 37.5609 18.1391 36.8662 18.1915 36.432C18.2264 35.9977 18.3136 35.2161 18.3835 34.695C18.4358 34.1739 18.6627 33.236 18.8722 32.6107C19.0816 31.9854 19.4307 31.1517 19.6402 30.7348C19.8496 30.3353 20.286 29.8316 20.6001 29.6232C20.8969 29.4148 21.595 29.189 22.1187 29.1195C22.6423 29.05 23.2706 29.0326 23.515 29.05C23.7593 29.0848 24.4226 29.2063 24.9986 29.3279C25.9062 29.5016 26.168 29.5016 26.9185 29.2584C27.4072 29.1021 28.2974 28.5984 28.9083 28.1468C29.5192 27.6952 30.1825 27.2089 30.3919 27.0699C30.7235 26.8441 30.8457 26.8962 31.7882 27.5042C32.7133 28.1121 32.9402 28.1816 33.8827 28.1642C34.546 28.1642 35.1743 28.0426 35.5583 27.8342C35.89 27.6605 36.2739 27.4173 36.3961 27.2784C36.5009 27.1568 37.1467 26.931 37.8274 26.792C38.5081 26.6531 39.2586 26.5836 39.5379 26.6357C39.7997 26.7052 40.2011 26.8615 40.4455 27.0004C40.8295 27.2436 40.9517 27.2262 41.4578 26.9831C41.8942 26.7573 41.9989 26.6183 41.9291 26.323C41.8767 26.0972 41.6324 24.9856 41.388 23.8392C41.1436 22.6929 40.7597 21.1817 40.5153 20.487C40.2884 19.8096 39.6426 18.5069 39.1015 17.6384C38.543 16.7526 37.8099 15.7104 37.4608 15.3283C37.0768 14.8941 36.3263 14.4077 35.5409 14.043C34.5111 13.574 34.1096 13.4698 33.5511 13.5566C33.1671 13.6088 32.4515 13.8693 31.9628 14.1472C31.317 14.4946 30.8457 14.9288 30.3395 15.6757C29.8334 16.4052 29.3796 17.43 28.8559 19.0627C28.437 20.348 28.0356 21.9113 27.9658 22.5365C27.896 23.1618 27.7912 23.735 27.7389 23.8392C27.6865 23.9435 27.5818 23.8566 27.512 23.6655C27.4422 23.4745 27.3723 22.9708 27.3723 22.5365C27.3723 22.1023 27.4771 21.286 27.6342 20.7128C27.7738 20.1396 28.1054 19.0453 28.3498 18.2811C28.5941 17.5168 29.013 16.4573 29.2748 15.9362C29.5367 15.4152 29.9556 14.7378 30.1825 14.4598C30.4268 14.1819 30.9853 13.7303 31.4217 13.4698C31.8755 13.1919 32.6609 12.914 33.1671 12.8271C33.6558 12.7403 34.0747 12.6708 34.0747 12.6534ZM58.1614 23.0576C58.2138 23.0576 58.3883 23.1097 58.5454 23.1618C58.7374 23.2313 58.8421 23.4224 58.8072 23.6482C58.7898 23.8392 58.9643 24.5166 59.2087 25.1419C59.4705 25.7672 59.7672 26.462 59.8719 26.7052C59.9941 26.9483 60.3083 27.5389 60.605 28.0079C60.8843 28.4942 61.4777 29.2584 61.9141 29.7274C62.3504 30.1964 63.0486 30.8043 63.4849 31.0822C63.9213 31.3428 64.7765 31.7423 65.4049 31.9333C66.0332 32.1417 66.8361 32.2807 67.1852 32.246C67.5517 32.2112 67.8485 32.2112 67.8485 32.2633C67.8485 32.3154 67.639 32.4891 67.4121 32.6628C67.063 32.906 66.7838 32.9407 65.9809 32.8365C65.4049 32.767 64.4449 32.4718 63.7467 32.1244C62.8915 31.7249 62.2108 31.2212 61.5126 30.4743C60.9541 29.8837 60.3257 29.05 60.1163 28.6332C59.9068 28.2163 59.6799 27.8515 59.6101 27.8168C59.5228 27.7821 59.2785 27.3305 59.0516 26.8441C58.8247 26.3404 58.4581 25.3851 58.2487 24.7077C58.0392 24.0303 57.9171 23.3876 57.9694 23.2834C58.0218 23.1618 58.1091 23.0576 58.1614 23.0576ZM55.6306 30.0053C55.8633 30.0053 55.9797 30.1211 55.9797 30.3527C55.9797 30.5438 56.0495 30.839 56.1367 31.0127C56.2415 31.1691 56.5382 31.8117 56.8 32.4197C57.1316 33.1665 57.6029 33.8092 58.2487 34.4345C58.7723 34.9382 59.7497 35.6156 60.4305 35.9456C61.2333 36.3277 62.1759 36.623 63.1358 36.762C63.9562 36.9009 64.7067 37.0399 64.794 37.092C64.8987 37.1267 64.8464 37.2309 64.7067 37.3178C64.5671 37.4046 64.0086 37.4741 63.4849 37.4741C62.9613 37.4741 62.0188 37.3352 61.3904 37.1615C60.7446 36.9878 59.7323 36.5188 59.0341 36.0672C58.3534 35.6156 57.4633 34.834 57.0269 34.3303C56.5556 33.7571 56.0669 32.8886 55.7702 32.0896C55.5084 31.3775 55.2815 30.6132 55.2815 30.4048C55.2815 30.1269 55.3862 30.0053 55.6306 30.0053ZM91.3417 34.5561C91.3592 34.5908 91.2544 35.164 91.1323 35.824C90.9752 36.5535 90.8705 38.0994 90.8705 39.6453C90.8705 41.3127 90.9752 42.7891 91.1497 43.727C91.3068 44.5434 91.5512 45.7419 91.7083 46.4193C91.8653 47.0967 92.3017 48.382 92.6857 49.2852C93.0522 50.1884 93.89 51.9601 94.5184 53.1933C95.1642 54.4265 95.8798 55.6945 96.1416 55.9724C96.5431 56.424 96.7699 56.5108 97.887 56.6324C98.6026 56.7192 99.9641 56.8061 100.924 56.8582C101.884 56.8929 103.123 57.0319 103.682 57.1535C104.502 57.3272 104.904 57.553 105.864 58.3693C106.509 58.9251 107.347 59.5331 107.731 59.7241C108.115 59.9152 108.831 60.2973 109.302 60.5752C109.791 60.8531 110.716 61.3047 111.397 61.5653C112.077 61.8084 112.74 62.1211 112.88 62.2427C113.02 62.3643 113.578 62.6595 114.102 62.8853C114.626 63.1285 115.603 63.4759 116.284 63.6669C117.383 63.997 117.575 64.1185 118.204 64.9523C118.588 65.4386 119.373 66.3244 119.949 66.915C120.525 67.4882 121.241 68.1135 121.52 68.3045C121.799 68.4956 122.201 68.7388 122.393 68.8603C122.585 68.9819 123.021 69.2077 123.353 69.3641C123.684 69.5204 124.4 69.6941 124.923 69.7462C125.534 69.7983 126.11 69.7462 126.494 69.6072C126.826 69.4683 127.542 69.0688 128.065 68.704C128.711 68.2698 129.304 68.0093 129.898 67.9398C130.631 67.8356 130.928 67.8877 131.783 68.2698C132.656 68.6867 132.848 68.8603 133.301 69.7462C133.598 70.2846 133.895 70.9968 133.965 71.3268C134.035 71.6394 134.122 71.9347 134.174 71.9521C134.227 71.9868 134.244 72.5774 134.209 73.2895C134.192 73.9843 134 75.0959 133.79 75.7733C133.581 76.4507 133.267 77.2671 133.075 77.5971C132.883 77.9271 132.446 78.6392 132.097 79.1603C131.748 79.664 130.771 80.8104 129.898 81.6788C128.711 82.8947 128.03 83.4158 127.105 83.8674C126.041 84.3885 125.674 84.4579 124.225 84.5274C122.794 84.5795 122.462 84.5448 121.834 84.2148C121.415 84.0237 121.049 83.7458 121.014 83.6416C120.961 83.4679 120.874 83.4679 120.63 83.6068C120.385 83.7458 120.316 83.9542 120.35 84.3885C120.385 84.8227 120.124 85.5522 119.268 87.237C118.657 88.4702 117.61 90.3635 116.982 91.4056C116.336 92.4478 115.324 93.9589 114.73 94.7579C114.154 95.5569 113.194 96.7727 112.636 97.4501C112.06 98.1449 111.344 98.8918 111.065 99.135C110.768 99.3781 110.437 99.656 110.349 99.7602C110.262 99.8818 109.389 100.629 108.429 101.41C107.469 102.209 106.37 103.078 105.986 103.338C105.602 103.581 104.537 104.207 103.629 104.71C102.722 105.214 101.535 105.857 101.011 106.1C100.488 106.361 99.3532 106.864 98.4805 107.212C97.6078 107.559 96.3161 108.045 95.6005 108.289C94.8849 108.514 93.5409 108.862 92.6333 109.053C91.7257 109.244 90.3643 109.383 89.6312 109.383C88.8807 109.383 87.4669 109.226 86.4895 109.035C85.4946 108.844 84.2553 108.532 83.7317 108.323C83.2081 108.132 82.4925 107.802 82.1608 107.594C81.8292 107.403 80.974 106.777 80.2933 106.222C79.5951 105.666 79.0191 105.162 79.0191 105.093C79.0191 105.006 78.8795 104.797 78.7049 104.606C78.5304 104.415 77.9544 103.616 77.4308 102.852C76.9071 102.07 76.209 100.976 75.8599 100.42C75.5108 99.8471 74.9523 98.8049 74.6032 98.0928C74.2716 97.3807 73.7131 96.0432 73.3465 95.14C72.9974 94.2368 72.5785 93.1426 72.4564 92.7083C72.3167 92.2741 72.0375 91.2319 71.8455 90.3635C71.6535 89.495 71.3393 87.8623 71.1473 86.7159C70.9553 85.5696 70.7633 84.1974 70.7109 83.6763C70.6586 83.1552 70.6062 80.3762 70.6062 77.5102C70.6062 74.6443 70.6586 71.4831 70.7109 70.4757C70.7808 69.4683 70.868 68.3393 70.9029 67.9571C70.9378 67.575 71.1124 65.317 71.2695 62.9201C71.4964 59.2551 71.5836 58.543 71.828 58.4041C72.0025 58.3172 72.596 58.0567 73.172 57.8482C73.748 57.6572 74.673 57.3098 75.2316 57.1187C75.7726 56.9103 76.9072 56.6324 77.7624 56.4934C78.6002 56.3545 79.6998 56.2329 80.206 56.2329C80.6947 56.2329 81.358 56.1113 81.6372 55.9724C81.9165 55.8334 82.3179 55.5034 82.4925 55.2428C82.6845 54.9649 83.051 54.166 83.2954 53.4538C83.5572 52.7417 83.819 51.769 83.9063 51.2827C83.9935 50.8137 84.1332 50.1363 84.2379 49.8063C84.3426 49.4763 84.6219 48.4862 84.8662 47.6351C85.0931 46.784 85.5818 45.0124 85.9135 43.727C86.28 42.3722 86.8036 40.8785 87.1876 40.1663C87.5367 39.4889 88.0429 38.6031 88.3047 38.1689C88.5665 37.7346 89.0552 37.0746 89.3519 36.6925C89.6661 36.3277 90.2421 35.6677 90.6086 35.2682C90.9926 34.8514 91.3068 34.5387 91.3417 34.5561ZM70.5888 37.561C70.7109 37.752 70.8157 38.082 70.8157 38.3078C70.8157 38.5163 70.6411 38.9852 70.4142 39.35C70.1873 39.6974 69.751 40.5832 69.4368 41.2953C69.1052 42.0075 68.7735 42.6675 68.6688 42.7717C68.5641 42.8875 68.535 42.8586 68.5815 42.6849C68.6339 42.5459 68.599 42.2507 68.5292 42.0422C68.4244 41.7643 68.4419 41.608 68.599 41.5211C68.7386 41.4343 69.0528 41.0348 69.2972 40.6006C69.5415 40.1663 69.8033 39.4716 69.8557 39.0373C69.9255 38.6031 70.0477 38.0126 70.1524 37.7346C70.3444 37.2309 70.3619 37.2309 70.5888 37.561ZM101.465 43.0323C101.692 43.0323 101.954 43.7097 102.635 45.9503C103.123 47.5483 103.821 49.4763 104.205 50.2405C104.572 51.0048 105.305 52.2553 105.794 53.0196C106.3 53.7838 106.998 54.9302 107.347 55.5902C107.696 56.2329 107.993 56.8582 107.993 56.9798C107.993 57.084 107.644 56.8061 107.225 56.3197C106.789 55.8508 106.422 55.3644 106.422 55.2776C106.405 55.1907 106.125 54.7565 105.811 54.3223C105.48 53.888 104.869 52.9154 104.432 52.1511C104.013 51.3869 103.385 50.171 103.053 49.4589C102.722 48.7468 102.233 47.5309 101.971 46.7667C101.727 46.0024 101.395 44.9429 101.256 44.4218C101.116 43.9007 101.029 43.3623 101.081 43.2581C101.133 43.1365 101.308 43.0323 101.465 43.0323ZM108.743 46.2803C108.935 46.454 109.511 47.4962 110.018 48.5904C110.541 49.6847 111.065 50.779 111.187 51.0221C111.309 51.2653 111.711 51.9948 112.095 52.6722C112.461 53.3496 113.299 54.7565 113.98 55.7987C114.643 56.8408 115.359 57.9872 115.551 58.3172C115.725 58.6472 116.092 59.2725 116.336 59.7068C116.58 60.141 117.121 60.9226 117.523 61.4437C117.942 61.9648 118.518 62.6769 118.797 63.0069C119.094 63.3369 119.897 64.2227 120.595 64.987C121.293 65.7339 122.34 66.6892 122.916 67.1234C123.492 67.5403 124.225 67.9398 124.557 68.0093C124.871 68.0787 125.168 68.1829 125.203 68.2698C125.238 68.3393 125.168 68.4261 125.063 68.4609C124.941 68.4956 124.557 68.4782 124.225 68.4087C123.894 68.3393 123.23 68.044 122.742 67.7487C122.27 67.4361 121.31 66.6197 120.647 65.9249C119.966 65.2302 118.972 64.1533 118.431 63.528C117.889 62.9027 117.139 62.0169 116.772 61.5305C116.423 61.0616 115.376 59.4462 114.468 57.9698C113.561 56.4934 112.391 54.5307 111.885 53.6275C111.362 52.7243 110.646 51.3521 110.279 50.5879C109.895 49.8236 109.285 48.5209 108.883 47.6872C108.482 46.8361 108.22 46.124 108.29 46.0719C108.342 46.0198 108.551 46.124 108.743 46.2803ZM67.8135 56.4413C67.8834 56.4934 68.1801 56.9798 68.4594 57.5182C68.7386 58.0567 69.0179 58.4909 69.0703 58.4909C69.1226 58.4735 69.5066 58.9251 70.6935 60.4884L70.5538 62.8332C70.484 64.1185 70.3968 65.4212 70.3793 65.6991C70.3444 65.9771 70.2746 66.8802 70.2222 67.6966C70.1524 68.513 70.0651 69.7114 70.0302 70.3888C69.9779 71.0662 69.8906 73.0811 69.751 78.205L69.0004 79.5945C68.599 80.3588 68.0928 81.5225 67.8834 82.1999C67.6914 82.8773 67.4121 83.85 67.255 84.3711C67.1154 84.8922 66.9408 85.639 66.871 86.0212C66.8187 86.4033 66.6267 87.3065 66.4521 88.0186C66.2601 88.7308 66.0856 89.7208 66.0158 90.1898C65.9634 90.6761 65.8412 91.8746 65.754 92.882C65.6667 93.8894 65.6143 94.8621 65.6667 95.0532C65.7016 95.2442 65.7889 96.0606 65.8412 96.877C65.8936 97.6933 66.0158 98.666 66.1205 99.0481C66.2252 99.4302 66.3474 100.021 66.3823 100.351C66.4347 100.681 66.5219 101.046 66.5918 101.132C66.6441 101.219 66.7139 101.462 66.7314 101.653C66.7489 101.845 67.1328 102.782 67.5866 103.738C68.0405 104.693 68.8433 105.996 69.3495 106.656C69.8731 107.298 70.3793 107.82 70.5015 107.82C70.6062 107.82 70.6411 107.872 70.5888 107.959C70.5189 108.028 70.3793 107.993 70.2571 107.889C70.1349 107.802 69.4368 107.49 68.7212 107.229C68.0056 106.968 66.0856 106.117 64.4449 105.353C62.8042 104.572 61.3032 103.859 61.0937 103.755C60.7097 103.564 60.6923 103.477 60.7272 101.393C60.7446 99.2392 60.7446 99.2044 61.4428 97.8323C61.8093 97.068 62.5075 95.47 62.9788 94.2716C63.45 93.0731 64.0435 91.3535 64.2878 90.4503C64.5322 89.5471 64.8987 88.2097 65.0907 87.4976C65.2827 86.7854 65.6143 85.3264 65.8412 84.2842C66.0681 83.2421 66.487 81.0015 66.7838 79.334C67.063 77.6666 67.3772 75.5128 67.4819 74.5575C67.5866 73.6022 67.7612 71.6394 67.8485 70.2151C67.9532 68.6345 67.9706 65.456 67.9008 62.1384C67.831 59.1336 67.7437 56.5977 67.7263 56.5108C67.6914 56.424 67.7263 56.3892 67.8135 56.4413ZM123.387 63.528C123.51 63.528 123.806 63.8059 124.051 64.1706C124.295 64.5354 124.801 64.987 125.185 65.1781C125.569 65.3865 126.756 65.7165 127.803 65.9249C128.851 66.1334 130.16 66.3418 130.683 66.3939C131.521 66.4634 131.748 66.5676 132.481 67.2624C132.935 67.6966 133.301 68.0787 133.301 68.1308C133.301 68.1829 132.778 67.9224 132.132 67.575C131.085 67.0192 130.753 66.9324 129.2 66.8108C128.24 66.7413 126.948 66.5502 126.32 66.3939C125.691 66.2376 124.958 65.9597 124.662 65.786C124.382 65.6123 123.929 65.2302 123.667 64.9349C123.388 64.6396 123.178 64.2054 123.178 63.9622C123.178 63.719 123.283 63.528 123.405 63.528H123.387ZM54.7404 82.9815C55.0022 82.9815 55.2989 83.381 55.9622 84.6837C56.4509 85.6043 57.1316 86.6986 57.4982 87.0981C58.1091 87.7755 58.1265 87.8102 57.7076 87.7233C57.4633 87.6539 57.0094 87.4107 56.6953 87.1675C56.3113 86.8723 55.8051 86.108 55.2466 85.0311C54.7753 84.0932 54.3913 83.2421 54.3913 83.1552C54.3913 83.0684 54.5484 82.9815 54.7404 82.9815ZM19.7798 88.1055C19.9194 88.3834 20.1463 88.7481 20.2685 88.8871C20.3907 89.026 20.7921 89.6861 21.1412 90.3635C21.5078 91.0409 21.979 91.8399 22.2059 92.1525C22.4328 92.4478 22.6248 92.7952 22.6248 92.882C22.6248 92.9689 23.9339 94.3758 25.5571 95.9737C27.1629 97.5717 28.8909 99.2392 29.4145 99.656C29.9206 100.09 30.4617 100.542 30.5839 100.663C30.7235 100.768 30.8806 100.872 30.9679 100.872C31.0377 100.872 31.6137 101.341 32.2769 101.914C32.9228 102.487 33.4813 102.956 33.5336 102.956C33.586 102.956 34.0398 103.286 34.546 103.703C35.0696 104.103 36.0645 104.936 36.7801 105.544C37.4957 106.17 38.5779 107.003 39.2062 107.403C39.8346 107.802 41.0564 108.48 41.9116 108.914C42.7843 109.348 43.7618 109.817 44.0934 109.956C44.425 110.112 45.1406 110.355 45.6643 110.529C46.1879 110.703 46.8162 110.877 47.0606 110.894C47.305 110.911 48.422 110.946 49.5565 110.946C50.6736 110.946 51.7034 110.894 51.8256 110.824C51.9303 110.755 52.1747 110.668 52.3492 110.651C52.5063 110.616 53.1695 110.355 53.8328 110.043C54.4786 109.748 55.1593 109.348 55.3513 109.174C55.7004 108.862 55.7528 108.879 58.2661 110.112C59.6799 110.807 60.8843 111.328 60.9715 111.259C61.0414 111.189 61.0588 110.686 60.989 110.13C60.9192 109.574 60.797 108.028 60.7272 106.708C60.6225 104.884 60.6399 104.311 60.797 104.363C60.9017 104.398 61.8617 104.867 64.8463 106.343L64.8638 107.177C64.8638 107.82 64.6718 108.375 63.9213 109.869C63.3977 110.894 62.525 112.318 61.9664 113.048C61.3904 113.777 60.3956 114.993 59.7497 115.74C59.1039 116.504 58.2661 117.338 57.9171 117.598C57.568 117.876 56.7302 118.415 56.0495 118.814C55.3862 119.196 54.0772 119.839 53.1695 120.239C52.2619 120.638 51.075 121.072 50.5514 121.229C50.0278 121.385 48.9282 121.715 48.1078 121.941C47.2875 122.184 46.1181 122.462 45.4897 122.566C44.8614 122.653 43.8141 122.792 43.1334 122.861C42.4702 122.913 41.1262 122.983 40.1662 123.018C39.2062 123.052 37.4434 122.966 36.239 122.844C35.0347 122.722 33.5511 122.479 32.9228 122.323C32.2944 122.167 31.317 121.871 30.741 121.68C30.165 121.489 29.3796 121.194 28.9956 121.02C28.6116 120.864 28.1054 120.655 27.8611 120.586C27.6167 120.517 26.6044 120.03 25.592 119.492C24.5797 118.971 23.4103 118.311 22.9739 118.033C22.5375 117.737 21.6823 116.921 21.0714 116.192C20.4605 115.445 19.6925 114.316 19.3784 113.638C19.0467 112.961 18.6976 112.058 18.3486 110.79L19.8845 109.748C20.7223 109.157 21.4903 108.688 21.5776 108.688C21.6823 108.688 21.7521 108.844 21.7521 109.035C21.7521 109.226 21.8568 109.435 21.979 109.487C22.0837 109.539 22.2757 109.504 22.363 109.4C22.4852 109.261 22.4328 108.584 22.2408 107.333C22.0663 106.308 21.7347 103.911 21.4903 102.001C21.2459 100.09 20.9492 97.5891 20.7921 96.4427C20.6525 95.2963 20.3732 93.3857 20.1987 92.1873C20.0067 90.9888 19.7623 89.5471 19.6751 88.9739C19.5703 88.4008 19.4831 87.8449 19.4831 87.7581C19.5005 87.6712 19.6227 87.8276 19.7798 88.1055ZM51.0925 87.8449C51.1798 87.8449 51.5114 88.2618 51.8256 88.7655C52.1572 89.2518 52.5237 89.7556 52.6634 89.8771C52.803 89.9814 53.0997 90.0856 53.3441 90.1203C53.5884 90.1377 54.0946 90.0682 54.4786 89.964C54.8626 89.8424 55.2466 89.7556 55.3513 89.7556C55.456 89.7556 55.456 89.8077 55.3513 89.8945C55.2466 89.9814 54.7404 90.2245 54.2168 90.4156C53.6932 90.624 52.6634 90.9193 51.9478 91.0756C51.2321 91.2146 49.3122 91.3883 44.7741 91.5446L45.5421 90.6935C45.961 90.2245 46.4672 89.5819 46.6417 89.2692C46.8337 88.9566 47.0257 88.7134 47.113 88.7134C47.1828 88.7134 47.2351 88.8871 47.2351 89.1129C47.2351 89.3213 47.3922 89.7556 47.5842 90.0682C47.7762 90.3635 48.0729 90.6588 48.2475 90.7109C48.4046 90.763 48.8409 90.7109 49.2249 90.5893C49.7136 90.4156 49.9929 90.1724 50.2896 89.6687C50.4991 89.2866 50.726 88.7134 50.7958 88.4181C50.8656 88.1055 51.0052 87.8449 51.0925 87.8449ZM113.927 97.6586C114.015 97.6933 114.119 100.959 114.172 104.902C114.224 108.844 114.311 112.353 114.346 112.683C114.381 113.013 114.451 114.368 114.608 118.067L113.788 118.727C113.316 119.092 112.636 119.579 112.252 119.787C111.868 120.013 111.047 120.378 110.419 120.621C109.791 120.864 108.935 121.177 108.499 121.315C108.063 121.437 106.893 121.715 105.881 121.906C104.869 122.114 103.35 122.323 102.477 122.392C101.622 122.444 99.8419 122.444 98.5503 122.358C96.9969 122.271 95.81 122.097 95.0594 121.871C94.4311 121.68 93.3315 121.229 92.6159 120.881C91.7257 120.447 90.9403 119.891 89.0029 117.981L88.8807 115.723C88.8109 114.489 88.6887 112.996 88.6189 112.422C88.5316 111.849 88.4967 111.346 88.5316 111.293C88.5665 111.241 88.6887 111.293 88.8109 111.415C88.9331 111.519 89.4741 111.728 89.9977 111.884C90.661 112.092 91.4115 112.145 92.4413 112.11C93.2617 112.058 94.4311 111.901 95.0594 111.728C95.6878 111.554 96.2638 111.346 96.3685 111.276C96.4558 111.189 96.6303 111.12 96.7525 111.12C96.8747 111.12 97.4332 110.911 97.9917 110.651C98.5328 110.39 99.7721 109.73 100.732 109.157C101.692 108.601 102.565 108.045 102.652 107.924C102.757 107.802 103.385 107.351 104.048 106.916C104.764 106.465 105.846 105.492 106.666 104.606C107.434 103.755 108.534 102.626 109.093 102.105C109.669 101.567 110.96 100.333 111.955 99.3607C112.967 98.3881 113.858 97.6238 113.927 97.6586ZM122.009 100.212C122.113 100.264 122.218 100.524 122.253 100.802C122.288 101.08 122.148 102.053 121.939 102.956C121.729 103.859 121.363 105.197 121.118 105.909C120.857 106.621 120.473 107.507 120.246 107.872C120.019 108.219 119.495 108.966 119.094 109.522C118.675 110.06 118.221 110.564 118.081 110.633C117.942 110.686 117.715 110.668 117.575 110.581C117.436 110.494 117.401 110.425 117.488 110.442C117.593 110.442 118.134 109.748 118.71 108.914C119.268 108.08 119.984 106.76 120.298 105.996C120.612 105.232 121.014 103.946 121.223 103.13C121.415 102.314 121.607 101.341 121.66 100.959C121.694 100.577 121.747 100.247 121.764 100.212C121.782 100.177 121.886 100.177 122.009 100.212ZM85.0233 109.452C85.1106 109.487 85.704 109.626 86.3149 109.748C86.9258 109.887 87.4843 110.112 87.5542 110.251C87.624 110.39 87.7287 111.293 87.7985 112.249C87.8683 113.204 87.9731 114.264 88.0254 114.594C88.1302 115.149 88.1127 115.184 87.7985 115.045C87.624 114.958 86.0531 114.35 84.3252 113.69C82.5972 113.03 80.014 112.023 78.5653 111.45C77.1341 110.877 75.7377 110.321 75.4585 110.199C75.1967 110.078 74.9872 109.939 74.9872 109.869C74.9872 109.782 75.5632 109.782 76.2614 109.852C76.9421 109.921 77.7973 109.973 78.1289 109.973C78.4606 109.956 80.0314 109.904 81.6198 109.852C83.2081 109.782 84.5695 109.643 84.6742 109.557C84.7615 109.452 84.9186 109.4 85.0233 109.452ZM115.236 118.589C115.271 118.589 115.83 118.849 116.493 119.179C117.139 119.492 118.675 120.221 122.148 121.802L120.769 123.105C120.019 123.817 118.937 124.755 118.361 125.189C117.785 125.623 116.772 126.3 116.092 126.7C115.428 127.082 114.399 127.638 113.823 127.933C113.247 128.228 112.077 128.68 111.205 128.923C110.349 129.166 108.883 129.514 107.976 129.687C107.068 129.879 105.532 130.104 104.572 130.226C103.612 130.33 102.512 130.452 102.128 130.486C101.744 130.539 100.627 130.573 99.6499 130.573C98.655 130.573 97.7997 130.539 97.7299 130.504C97.6427 130.469 96.9969 130.382 96.2812 130.33C95.5656 130.261 94.3089 130.052 93.4886 129.861C92.6682 129.67 91.5337 129.357 90.9577 129.149C90.3817 128.958 89.4392 128.576 88.8632 128.315C88.2872 128.055 87.3098 127.534 86.6815 127.134C86.0531 126.752 85.1455 126.005 84.6568 125.501C84.1855 124.998 83.6794 124.338 83.5572 124.06C83.435 123.782 83.3826 123.4 83.435 123.243C83.4874 123.07 84.0284 122.601 84.6393 122.201C85.2328 121.802 86.3847 120.881 88.6363 118.849L89.5265 119.735C90.0327 120.221 90.9926 120.951 91.6559 121.35C92.3366 121.75 93.1919 122.149 93.5758 122.253C93.9598 122.34 94.5882 122.549 94.9722 122.688C95.3562 122.844 96.6478 123.052 97.8521 123.139C99.0564 123.243 100.435 123.313 100.907 123.313C101.395 123.296 102.565 123.209 103.525 123.105C104.485 123.018 105.829 122.809 106.492 122.653C107.173 122.497 108.307 122.184 109.023 121.976C109.738 121.75 110.995 121.263 111.815 120.881C112.636 120.499 113.718 119.839 114.224 119.388C114.748 118.953 115.202 118.589 115.236 118.589ZM124.749 122.931C124.836 122.931 124.941 123.018 124.993 123.105C125.046 123.191 124.801 123.643 124.452 124.112C124.103 124.564 123.475 125.241 123.056 125.623C122.637 126.005 122.061 126.509 121.747 126.752C121.45 126.995 121.118 127.273 120.996 127.36C120.892 127.464 120.455 127.759 120.019 128.055C119.583 128.333 119.007 128.697 118.71 128.854C118.431 129.01 117.907 129.305 117.575 129.496C117.244 129.705 116.458 130.104 115.83 130.417C115.202 130.712 114.032 131.216 113.212 131.529C112.391 131.859 110.908 132.31 109.895 132.553C108.883 132.797 107.242 133.109 106.23 133.266C105.218 133.404 103.263 133.578 101.867 133.63C100.47 133.7 99.1263 133.7 98.8644 133.648C98.5852 133.578 98.3757 133.404 98.3757 133.266C98.3757 133.057 98.7074 133.005 100.261 133.005C101.291 133.005 103.158 132.883 104.397 132.744C105.654 132.606 107.103 132.414 107.626 132.328C108.15 132.241 109.093 132.05 109.721 131.893C110.349 131.754 111.519 131.407 112.339 131.129C113.159 130.851 114.887 130.087 116.179 129.41C117.471 128.75 119.094 127.812 119.757 127.343C120.438 126.874 121.799 125.693 122.794 124.72C123.789 123.73 124.679 122.931 124.749 122.931Z" fill="#C7ACBE"/>
<path d="M29.624 46.5929C30.2524 46.4365 31.2298 46.2455 31.8058 46.1586C32.3818 46.0892 33.045 46.0197 33.2894 46.0197C33.5337 46.0023 34.2668 46.0718 34.9475 46.1586C35.6282 46.2281 36.6057 46.4886 37.1293 46.7144C37.6529 46.9402 38.4209 47.444 38.8398 47.8261C39.4158 48.3298 39.5903 48.6077 39.538 48.9377C39.5031 49.2677 39.2936 49.4241 38.6129 49.6846C37.8449 49.9625 37.618 49.9799 36.7802 49.8062C36.2566 49.6846 35.2792 49.6325 34.5985 49.6846C33.9177 49.7367 32.6261 49.8583 31.7185 49.9625C30.8109 50.0493 29.3098 50.362 28.4022 50.6573C27.4946 50.9352 26.1507 51.4215 25.435 51.7515C24.7194 52.0815 23.5674 52.7242 22.9042 53.1758C22.2409 53.61 21.5777 53.9922 21.4729 53.9748C21.3508 53.9748 21.2111 53.8532 21.1588 53.7143C21.1064 53.5753 21.3333 53.0021 21.6649 52.4637C21.9966 51.9079 22.8344 50.8831 23.55 50.1883C24.2482 49.4762 25.2605 48.6251 25.7841 48.2777C26.3077 47.9303 27.1281 47.4787 27.6168 47.2703C28.0881 47.0618 28.9957 46.7666 29.624 46.5929Z" fill="#8C3112"/>
<path d="M55.0198 53.3495C55.491 53.1237 56.3987 52.8805 57.0096 52.8111C57.6204 52.7242 58.6328 52.7242 59.2786 52.8111C59.9069 52.8979 60.8146 53.1411 61.3033 53.3669C61.7745 53.5753 62.5251 54.0616 62.9614 54.4438C63.3978 54.8259 63.9563 55.5033 64.2181 55.9375C64.4974 56.3891 64.7068 56.8755 64.7068 57.0144C64.7068 57.1534 64.5323 57.3618 64.3054 57.466C63.9738 57.6397 63.869 57.5876 63.3978 57.0144C63.1185 56.667 62.4727 55.9896 62.0014 55.5207C61.1462 54.6869 61.0938 54.6696 59.5579 54.4438C58.7026 54.3222 57.5506 54.2701 57.027 54.3222C56.5034 54.3917 55.5609 54.6696 54.9325 54.9648C54.3042 55.2601 53.5711 55.7291 53.2918 56.007C53.03 56.2675 52.6984 56.6844 52.5762 56.9276C52.454 57.1707 52.2271 57.4139 52.07 57.5008C51.878 57.5876 51.7559 57.5181 51.686 57.3271C51.6162 57.1534 51.721 56.7018 51.8955 56.3196C52.07 55.9375 52.6635 55.208 53.1871 54.6869C53.7107 54.1659 54.5311 53.5579 55.0198 53.3495Z" fill="#8C3112"/>
<path d="M46.6243 55.538C46.5022 55.1038 46.4498 54.6869 46.5022 54.6175C46.5545 54.548 46.6767 54.4959 46.764 54.5306C46.8687 54.5654 47.0956 54.8606 47.2876 55.1906C47.5494 55.6596 47.6018 56.007 47.532 56.7539C47.4796 57.275 47.3923 58.3692 47.3225 59.1856C47.2702 60.0019 47.3051 61.0962 47.4098 61.6173C47.4971 62.1383 47.6541 62.92 47.7589 63.3542C47.8461 63.7884 48.2476 65.0738 48.649 66.2201C49.033 67.3665 49.5043 68.895 49.6963 69.6071C49.8883 70.3193 50.2723 71.6567 50.569 72.5599C50.8482 73.4631 51.0926 74.4705 51.0926 74.7832C51.0926 75.2174 51.0402 75.3042 50.8308 75.2174C50.6563 75.1305 50.2024 73.9494 49.6788 72.2994C49.2076 70.7709 48.3523 68.1134 47.7763 66.3938C47.2178 64.6743 46.6593 62.8505 46.572 62.3641C46.4673 61.8604 46.38 60.7662 46.38 59.9324C46.38 59.0814 46.4847 57.935 46.6069 57.3618C46.7989 56.5107 46.7989 56.1633 46.6243 55.538Z" fill="#8C3112"/>
<path d="M29.2749 55.677C29.7113 55.4859 30.4095 55.2254 30.8458 55.0864C31.3345 54.9475 32.2596 54.878 33.2894 54.9127C34.389 54.9475 35.1919 55.0691 35.6457 55.2775C36.0297 55.4512 36.5359 55.677 36.7628 55.7812C36.9897 55.8854 37.4958 56.2502 37.8798 56.5802C38.2638 56.9102 38.6827 57.3965 38.8049 57.6744C38.9445 57.935 39.0493 58.2303 39.0493 58.3171C39.0493 58.404 38.8747 58.4908 38.6653 58.4908C38.4384 58.4908 38.0195 58.2476 37.7402 57.9524C37.4609 57.6571 36.9024 57.2576 36.5184 57.0492C35.9424 56.7539 35.4712 56.6844 33.7257 56.6497C31.928 56.6323 31.4742 56.6844 30.584 57.0144C30.008 57.2228 29.0306 57.6571 28.4197 57.9871C27.7913 58.3171 27.1281 58.8208 26.9012 59.0987C26.6917 59.3766 26.3601 59.9324 26.1856 60.3146C25.9936 60.6967 25.6968 61.0615 25.5398 61.1483C25.3652 61.2178 25.1907 61.1657 25.0859 61.0093C24.9812 60.8704 24.9463 60.5751 24.9812 60.3667C25.0336 60.1409 25.4001 59.4635 25.819 58.8556C26.2379 58.2303 27.0059 57.3444 27.5295 56.8755C28.0532 56.4065 28.8386 55.868 29.2749 55.677Z" fill="#8C3112"/>
<path d="M54.4089 56.7365C54.6532 56.4239 55.1245 56.0591 55.4561 55.9375C55.7878 55.8159 56.3812 55.7291 56.7652 55.7638C57.2015 55.7986 57.7077 56.007 58.1441 56.3196C58.5281 56.6149 58.947 57.1013 59.0691 57.3965C59.1913 57.7092 59.296 58.2476 59.296 58.5776C59.296 58.9077 59.1739 59.4808 59.0342 59.8456C58.8422 60.3319 58.6153 60.5577 58.0394 60.8183C57.6205 60.992 57.0968 61.1309 56.8525 61.1309C56.6081 61.1483 56.0321 60.9399 55.5434 60.6793C55.0547 60.4188 54.5136 59.9846 54.3216 59.6545C54.1122 59.3072 53.99 58.7687 53.9725 58.1955C53.9725 57.5008 54.0598 57.1707 54.4089 56.7365Z" fill="#8C3112"/>
<path d="M29.24 59.394C29.5018 59.0814 30.0255 58.7166 30.4095 58.5776C30.8284 58.4387 31.4218 58.3866 31.8931 58.4387C32.3294 58.4908 32.8879 58.6471 33.1672 58.7687C33.429 58.9077 33.7956 59.2203 33.9876 59.4808C34.2494 59.8282 34.3541 60.2277 34.3366 60.8704C34.3366 61.6867 34.2668 61.8604 33.6908 62.4684C33.2545 62.9026 32.7483 63.2152 32.2421 63.3542C31.8058 63.4584 31.2298 63.5105 30.9331 63.4584C30.6364 63.4063 30.1476 63.1979 29.8509 63.0068C29.5368 62.8157 29.1702 62.4857 29.0306 62.2773C28.891 62.0515 28.7513 61.6867 28.7339 61.4436C28.7164 61.2004 28.7164 60.7662 28.7339 60.4883C28.7513 60.2104 28.9782 59.7066 29.24 59.394Z" fill="#8C3112"/>
<path d="M75.0048 61.8257C75.4411 61.5825 76.1393 61.2699 76.5756 61.1483C77.012 61.0267 77.8323 60.9572 78.4083 60.9746C79.089 61.0093 79.7523 61.1657 80.3283 61.4436C80.817 61.6694 81.4977 62.1383 81.8817 62.4857C82.2482 62.8157 82.7369 63.4063 82.9464 63.7884C83.1733 64.1705 83.4002 64.7611 83.47 65.0911C83.5573 65.4211 83.5922 66.0291 83.5747 66.4285C83.5747 66.8454 83.4351 67.4707 83.278 67.8181C83.1384 68.1828 82.7718 68.7387 82.4577 69.0513C82.1435 69.364 81.6199 69.694 81.2882 69.7808C80.9566 69.885 80.3981 69.9545 80.0665 69.9545C79.6592 69.9545 79.1763 69.7692 78.6178 69.3987C78.0418 68.9992 77.6578 68.5823 77.396 68.0439C77.204 67.6097 77.012 66.9844 76.9596 66.6543C76.9247 66.3243 77.012 65.6296 77.1691 65.1259C77.3785 64.4311 77.6403 64.0663 78.2861 63.5279C78.7399 63.1284 79.2112 62.8157 79.3334 62.8331C79.4381 62.8331 79.5428 62.6594 79.5428 62.4336C79.5428 62.0515 79.5254 62.0515 77.7625 62.1557C76.6454 62.2252 75.9473 62.3468 75.9298 62.4684C75.8949 62.5726 75.7727 62.6594 75.6506 62.6594C75.5284 62.6594 75.0746 62.9547 74.6731 63.3021C74.2717 63.6668 73.8004 64.2053 73.6608 64.4832C73.5037 64.7611 73.3466 65.3169 73.2768 65.699C73.207 66.168 73.0674 66.4112 72.8579 66.4285C72.631 66.4633 72.5263 66.307 72.4565 65.8206C72.3866 65.4211 72.4565 64.9174 72.631 64.4832C72.7706 64.1011 73.1895 63.441 73.5561 63.0242C73.9226 62.6073 74.5684 62.0689 75.0048 61.8257Z" fill="#8C3112"/>
<path d="M98.3235 62.9373C98.7075 62.7463 99.3009 62.5378 99.6325 62.4684C99.9642 62.3989 100.767 62.3468 101.448 62.3294C102.163 62.312 103.036 62.4336 103.542 62.5899C104.031 62.7463 104.502 62.9547 104.59 63.0242C104.677 63.111 104.886 63.1805 105.026 63.1805C105.165 63.1979 105.707 63.5279 106.23 63.9274C106.981 64.5006 107.312 64.9174 107.801 65.9596C108.342 67.0886 108.412 67.436 108.429 68.5997C108.429 69.7982 108.377 69.9893 107.888 70.684C107.609 71.0835 107.033 71.6741 106.614 71.952C106.021 72.3688 105.637 72.4904 104.799 72.5425C103.909 72.5946 103.542 72.5252 102.722 72.143C102.024 71.8304 101.57 71.483 101.273 71.0314C101.046 70.684 100.75 69.9545 100.645 69.4334C100.488 68.6344 100.488 68.3044 100.75 67.436C100.959 66.7065 101.238 66.2028 101.71 65.7338C102.181 65.2648 102.512 65.0911 102.914 65.0911C103.438 65.0911 103.455 65.0738 103.385 64.3442C103.316 63.6191 103.298 63.6148 102.389 63.3929L102.373 63.3889C101.797 63.25 101.081 63.1979 100.488 63.2673C99.9642 63.3368 99.2486 63.5105 98.9169 63.6668C98.5853 63.8058 98.0093 64.1705 97.6253 64.4658C97.2588 64.7611 96.8573 65.1606 96.7701 65.3517C96.6653 65.5427 96.4559 66.2028 96.2988 66.828C96.0719 67.7312 95.9497 67.957 95.6704 67.957C95.3737 67.957 95.3388 67.8528 95.3737 67.0886C95.4086 66.6022 95.5308 65.9075 95.6704 65.5254C95.8275 65.1259 96.2988 64.5006 96.7701 64.0663C97.2239 63.6321 97.922 63.1284 98.3235 62.9373Z" fill="#8C3112"/>
<path d="M7.3351 63.4237C7.16056 63.3716 7.16056 63.2847 7.30019 63.0937C7.42237 62.9373 7.77145 62.8331 8.13799 62.8331C8.48707 62.8331 9.11542 63.0068 9.55177 63.2326C9.97067 63.441 10.7561 64.049 11.2972 64.57C11.8208 65.0911 12.6935 66.1854 13.2346 67.0017C13.828 67.8876 14.3691 68.9645 14.596 69.694C14.8055 70.3714 14.9626 71.0835 14.9626 71.2919C14.9626 71.5177 14.8927 71.7262 14.788 71.7783C14.7007 71.8304 14.2469 71.7262 13.7931 71.5699C13.3219 71.4135 12.6761 71.1182 12.3444 70.9272C12.0128 70.7361 11.5066 70.3887 11.2099 70.1629C10.9307 69.9198 10.599 69.5203 10.4943 69.2771C10.3896 69.0339 10.2499 68.6518 10.1801 68.426C10.0929 68.1307 10.1452 68.0439 10.4245 68.0439C10.6514 68.0439 10.8783 68.2523 11.0877 68.6518C11.2623 69.0166 11.751 69.5203 12.2572 69.8503C12.7459 70.1629 13.3393 70.4756 14.0898 70.6493L13.7408 69.7287C13.5488 69.2424 13.1299 68.4086 12.8157 67.9049C12.519 67.3839 11.8208 66.4633 11.2972 65.838C10.7736 65.2301 9.97067 64.4832 9.51687 64.2053C9.0456 63.9274 8.41726 63.6495 8.12054 63.5974C7.80636 63.5453 7.43982 63.4584 7.3351 63.4237Z" fill="#8C3112"/>
<path d="M86.3499 69.9545C86.4372 69.7113 86.5419 69.2945 86.6118 69.0339C86.699 68.7039 86.8212 68.565 87.0132 68.5997C87.2227 68.6344 87.3099 68.8255 87.2925 69.1729C87.275 69.4682 87.1703 70.1977 87.0656 70.823C86.9434 71.4483 86.6118 72.7336 86.315 73.6889C86.0183 74.6442 85.5645 75.8948 85.2852 76.468C85.0234 77.0412 84.6918 77.788 84.5347 78.1181C84.3951 78.4481 84.0285 79.1602 83.7318 79.6813C83.4351 80.2024 83.086 80.7582 82.9464 80.8971C82.8242 81.0361 82.4228 81.6961 82.0911 82.3735C81.7421 83.0509 81.4628 83.7457 81.4628 83.9368C81.4628 84.1799 81.8293 84.5273 82.7718 85.1005C83.8191 85.7779 84.046 85.9863 83.9064 86.1948C83.7667 86.4032 83.6271 86.4206 83.2606 86.2642C82.9813 86.16 82.4926 85.9169 82.161 85.7084C81.8293 85.5 81.4104 85.2394 81.2184 85.1526C81.0439 85.0658 80.817 84.8573 80.7123 84.7184C80.6075 84.5447 80.6424 84.1452 80.8344 83.5025C80.9741 82.9815 81.4628 81.9219 81.8991 81.1577C82.3529 80.3934 82.9813 79.2644 83.2955 78.6391C83.6271 78.0138 84.1333 76.8501 84.4474 76.0337C84.7442 75.2174 85.2154 73.8973 85.4772 73.081C85.739 72.2646 86.0183 71.3267 86.0881 70.9967C86.1405 70.6667 86.2627 70.1977 86.3499 69.9545Z" fill="#8C3112"/>
<path d="M127.21 74.5226C127.734 74.1231 128.851 73.4284 129.689 72.9941C130.544 72.5599 131.364 72.2125 131.521 72.2125C131.678 72.2125 131.94 72.2994 132.08 72.3862C132.272 72.5078 132.289 72.6294 132.167 72.8378C132.08 72.9941 131.643 73.2199 131.207 73.3241C130.771 73.4457 129.758 73.9668 128.938 74.4879C128.118 75.009 127.07 75.8774 126.617 76.3985C126.163 76.9196 125.639 77.597 125.482 77.9096C125.284 78.2918 125.244 78.5407 125.36 78.6565C125.447 78.7607 125.779 78.7955 126.058 78.7434C126.337 78.6912 126.774 78.4828 127.018 78.2917C127.262 78.1007 127.542 77.8923 127.629 77.8054C127.716 77.7359 127.961 77.4407 128.153 77.1801C128.397 76.8154 128.589 76.7111 128.816 76.798C128.973 76.8501 129.113 77.0412 129.113 77.1975C129.113 77.3712 128.694 77.9617 128.153 78.5002C127.385 79.3165 127.036 79.5423 126.372 79.6987C125.692 79.8376 125.412 79.8202 124.889 79.6118C124.348 79.386 124.225 79.2471 124.225 78.8476C124.225 78.587 124.382 78.0659 124.557 77.6838C124.732 77.3017 125.185 76.5896 125.569 76.1206C125.953 75.6343 126.686 74.9221 127.21 74.5226Z" fill="#8C3112"/>
<path d="M50.3421 79.2297C50.7086 79.0734 51.5115 78.5002 52.1224 77.927C52.7333 77.3712 53.3442 76.9022 53.4838 76.9022C53.606 76.9022 53.7107 77.0238 53.7107 77.1627C53.7107 77.3017 53.222 77.8575 52.6111 78.396C52.0177 78.9344 51.337 79.4729 51.0926 79.5944C50.8482 79.716 50.4643 79.855 50.2374 79.8724C50.0105 79.9071 49.7835 79.8376 49.7486 79.716C49.7312 79.6118 49.993 79.386 50.3421 79.2297Z" fill="#8C3112"/>
<path d="M80.4679 94.1846C80.1537 93.9414 80.049 93.733 80.1188 93.5246C80.1886 93.3683 80.2759 93.2293 80.3283 93.2293C80.3806 93.2293 80.5901 93.3509 80.7995 93.4898C81.0264 93.6288 81.8991 93.9067 82.7718 94.0978C83.6446 94.2888 85.2852 94.4973 86.4372 94.5494C87.7812 94.6362 89.1601 94.5841 90.2771 94.4452C91.2371 94.3236 92.4414 94.1151 92.9476 93.9762C93.4712 93.8372 93.9949 93.7678 94.1345 93.8199C94.2741 93.872 94.3788 94.0109 94.3788 94.0978C94.3788 94.1846 94.1694 94.4625 93.8901 94.7057C93.5585 95.0183 92.9301 95.2615 91.7607 95.522C90.4866 95.8 89.6139 95.8868 88.0081 95.8521C86.8561 95.8347 85.2852 95.7131 84.5173 95.5742C83.7493 95.4352 82.6322 95.1399 82.0213 94.9141C81.4104 94.7057 80.7123 94.3757 80.4679 94.1846Z" fill="#8C3112"/>
<path d="M1.73228 120.256C2.15118 119.978 3.14606 119.301 3.96641 118.762C4.78675 118.224 6.04345 117.407 6.75907 116.938C7.47469 116.469 8.34739 115.931 8.67902 115.723C9.01065 115.514 9.56918 115.184 9.90081 114.976L9.96314 114.94C10.3321 114.727 11.1462 114.258 11.8208 113.881C12.5364 113.482 13.3567 113.03 13.6534 112.874C13.9502 112.718 14.7705 112.214 15.4861 111.745C16.2018 111.276 17.4584 110.46 18.2788 109.939C19.0991 109.4 20.1115 108.688 20.5478 108.358C20.9842 108.028 21.3507 107.75 21.3682 107.733C21.4031 107.733 21.3333 107.142 21.2285 106.43C21.1413 105.718 20.9493 104.189 20.8096 103.043C20.67 101.897 20.3907 99.7081 20.2162 98.1796L20.2161 98.1786C20.0241 96.6501 19.7449 94.4276 19.5879 93.2294C19.4308 92.0309 19.2039 90.3982 19.0642 89.5818C18.9246 88.7655 18.6802 87.4801 18.5232 86.7159C18.3661 85.9516 18.1392 85.0832 18.017 84.8053C17.8948 84.5273 17.441 83.4678 17.0046 82.4604C16.5857 81.453 16.1843 80.3935 16.1145 80.1156C16.0447 79.8376 15.8178 79.2124 15.6083 78.7608C15.2941 78.1007 15.137 77.927 14.788 77.927C14.5436 77.927 14.1596 77.8923 13.9153 77.8402C13.6709 77.8055 13.1647 77.6839 12.7807 77.5623C12.3968 77.4581 11.8906 77.2323 11.6462 77.0933C11.4019 76.937 10.6688 76.3985 10.0055 75.8601C9.34228 75.339 8.36485 74.4011 7.84122 73.7758C7.3176 73.1505 6.56707 72.1778 6.18308 71.6046C5.78163 71.0314 5.17074 69.9372 4.82166 69.1729C4.47257 68.4087 4.03622 67.3839 3.87913 66.9149C3.70459 66.4286 3.53005 65.3517 3.47769 64.4832C3.42533 63.389 3.47769 62.5379 3.96641 60.3146L2.9017 59.1856C2.30826 58.5603 1.62755 57.6571 1.40065 57.1881C1.15629 56.7018 0.85957 55.8854 0.719936 55.3644C0.597758 54.8433 0.493033 53.8359 0.475579 53.1411C0.475579 52.4637 0.562849 51.4737 0.667574 50.9873C0.772299 50.4836 0.981748 49.7888 1.12138 49.4588C1.27847 49.1288 1.59264 48.4688 1.81955 47.9824C2.11627 47.3571 2.22099 46.8187 2.22099 46.0371C2.22099 45.2555 1.99409 44.1438 1.43556 42.2506C0.999203 40.7742 0.580303 38.9504 0.493033 38.2209C0.405762 37.474 0.3534 35.9282 0.388308 34.7818C0.44067 33.2012 0.562849 32.298 0.911932 31.0474C1.15629 30.1442 1.81955 28.4941 2.37808 27.3999C2.93661 26.3056 3.49514 24.9334 3.61732 24.3603C3.7395 23.7871 3.98386 22.8144 4.19331 22.1891C4.3853 21.5638 5.03111 20.3132 5.62455 19.41C6.35762 18.281 7.1256 17.3778 8.05067 16.5441C8.8012 15.8667 9.65645 15.1719 9.97063 14.9635C10.2673 14.7724 11.2622 14.2166 12.1698 13.7303C13.0775 13.2439 14.2993 12.7055 14.8752 12.5492C15.5909 12.3407 16.5683 12.2539 17.9297 12.2539C19.0293 12.2365 20.1638 12.2886 20.4606 12.3581C20.9667 12.4797 21.0016 12.4449 21.7173 11.038C22.1362 10.2391 22.8692 8.9711 23.3754 8.20685C23.8816 7.4426 24.6845 6.41782 25.1732 5.94885C25.6444 5.46251 26.7615 4.61141 27.6168 4.0556C28.472 3.48241 29.624 2.83975 30.1476 2.59658C30.6712 2.37078 32.0501 1.91918 33.2021 1.58916C34.354 1.27652 35.8376 0.911763 36.5184 0.807548C37.1991 0.703332 38.1241 0.547009 38.6129 0.477532C39.0841 0.390686 40.5852 0.355947 41.9291 0.390686C44.0062 0.442793 44.652 0.52964 46.2054 0.963871C47.2177 1.24178 48.5617 1.78023 49.2075 2.14498C49.8708 2.5271 51.11 3.32609 51.9827 3.95138C52.8729 4.57668 54.1819 5.74042 54.915 6.5394C55.9274 7.63366 56.5033 8.10263 57.2888 8.46739C57.8648 8.7453 58.6502 9.0232 59.0342 9.07531C59.4182 9.14479 59.8022 9.26637 59.9069 9.33585C60.0116 9.40533 60.3258 9.52691 60.6051 9.59639C60.8843 9.66587 61.4429 9.92641 61.8269 10.1869C62.2108 10.4475 62.8043 11.0207 63.1534 11.4375C63.5025 11.8544 63.9214 12.5492 64.061 12.9834C64.2181 13.4176 64.4799 14.6161 64.637 15.6756C64.7941 16.7525 65.0384 17.812 65.2304 18.1073C65.4049 18.3852 65.8064 18.75 66.1206 18.9063C66.4522 19.0626 66.8711 19.2537 67.0631 19.3058C67.2551 19.3753 67.8834 19.3405 68.4594 19.2363C69.4543 19.0626 69.559 18.9932 70.8157 17.6731C71.7757 16.6657 72.247 16.3009 72.5611 16.3009C72.8055 16.3009 73.2069 16.5094 73.4688 16.7699C73.8527 17.152 73.9749 17.4473 74.0622 18.3679C74.1495 19.2016 74.0971 19.7748 73.8702 20.539C73.6957 21.1122 73.4513 21.8243 73.3117 22.1023C73.1546 22.3802 72.7531 22.9707 72.4041 23.3876C72.055 23.8044 71.3917 24.3776 70.903 24.6382C70.3619 24.9508 69.7685 25.1419 69.3321 25.1419C68.9481 25.1419 68.1103 24.9855 67.4645 24.7945C66.522 24.5166 66.0682 24.256 65.3002 23.5439C64.7417 23.0228 64.1133 22.2065 63.8341 21.668C63.5723 21.1469 63.2232 20.2785 63.0486 19.7574C62.8741 19.2363 62.5599 18.4547 62.333 18.0205C62.1061 17.5862 61.7919 17.0652 61.6174 16.8741C61.4429 16.6657 61.0414 16.3704 60.7447 16.2141C60.4305 16.0578 60.0465 15.9362 59.9069 15.9362C59.7673 15.9362 59.6451 15.9709 59.6451 16.023C59.6451 16.0751 60.0116 16.4572 60.4654 16.8741C60.9367 17.291 61.4254 17.9336 61.5999 18.2984C61.757 18.6805 62.0538 19.4448 62.2632 20.0179C62.4727 20.5911 62.7868 21.3727 62.9614 21.7549C63.1359 22.137 63.677 22.9186 64.1832 23.4918C64.6893 24.065 65.3875 24.7076 65.7366 24.9161C66.0857 25.1245 66.714 25.4024 67.1504 25.5414C67.5867 25.663 68.5292 25.8019 69.2449 25.8193C69.9605 25.854 70.7459 25.9756 70.9903 26.0972C71.2346 26.2188 71.6012 26.514 71.8106 26.7398C72.0026 26.9483 72.3866 27.5736 72.631 28.0946C72.9277 28.7026 73.0848 29.3279 73.0848 29.8316C73.0848 30.2658 72.98 31.0822 72.8404 31.6553C72.7182 32.2285 72.4041 33.1665 72.1597 33.7397C71.8979 34.3128 71.671 34.9381 71.671 35.1292C71.671 35.3203 71.7932 35.7545 72.1597 36.6924L72.6659 36.015C72.9451 35.6503 73.5386 34.9034 73.9749 34.3649C74.4113 33.8265 75.3538 32.8712 76.0694 32.2285C76.785 31.5859 77.6752 30.839 78.0592 30.5437C78.4432 30.2484 79.4381 29.5537 80.2759 29.0152C81.1137 28.4594 82.3704 27.6778 83.0685 27.2783C83.7667 26.8788 84.8838 26.2882 85.5645 25.9582C86.2452 25.6282 87.2575 25.1766 87.8335 24.9682C88.4095 24.7598 89.2647 24.4818 89.7535 24.3603C90.2247 24.2387 91.4989 24.0302 92.5461 23.926C94.0995 23.735 94.8501 23.735 96.4733 23.926C97.7824 24.065 99.1089 24.0997 100.313 24.0129C101.326 23.9434 102.39 23.8739 102.67 23.8739C102.949 23.8565 103.891 23.9087 104.764 23.9781C105.637 24.0476 106.806 24.1866 107.382 24.2734C107.958 24.3603 109.372 24.6729 110.524 24.9682C111.676 25.2635 113.247 25.7324 114.015 26.0277C114.783 26.3056 115.568 26.6183 115.76 26.6877C115.952 26.7746 116.615 27.0699 117.244 27.3651C117.872 27.6604 118.867 28.2336 119.46 28.6505C120.036 29.0673 120.944 29.7447 121.468 30.1616C121.974 30.5784 123.248 31.829 124.278 32.9407C125.308 34.0523 126.337 35.2334 126.564 35.5634C126.791 35.8934 127.402 36.8314 127.926 37.6477C128.467 38.4641 129.287 39.7842 129.776 40.6005C130.247 41.4169 130.84 42.5111 131.085 43.0322C131.312 43.5533 131.643 44.387 131.818 44.856C131.992 45.3423 132.464 46.5061 132.865 47.4614C133.267 48.4167 133.965 50.2926 134.401 51.63C134.837 52.9674 135.379 54.878 135.588 55.8854C135.797 56.8929 135.989 57.8655 136.007 58.0566C136.024 58.2477 136.059 58.404 136.094 58.404C136.112 58.404 136.147 58.5951 136.181 58.8382C136.199 59.0814 136.339 59.7414 136.461 60.3146C136.635 61.0615 136.705 62.7637 136.705 66.307L136.705 66.3226C136.688 71.1533 136.687 71.2938 136.216 72.9942C135.955 73.9495 135.745 74.9916 135.745 75.3043C135.745 75.5996 135.658 75.8948 135.571 75.9469C135.483 75.999 135.344 76.4854 135.291 77.0412C135.221 77.5797 135.117 78.1181 135.029 78.2049C134.96 78.2918 134.837 78.8823 134.785 79.5076C134.698 80.3587 134.768 80.9145 135.012 81.7656C135.204 82.3909 135.466 83.1726 135.588 83.5026C135.71 83.8326 135.902 84.3537 136.024 84.6316C136.129 84.9095 136.461 85.6564 136.757 86.2816C137.054 86.9069 137.438 87.8796 137.648 88.4528C137.84 89.026 138.084 89.8076 138.171 90.1897C138.276 90.5719 138.468 91.3187 138.625 91.8398C138.782 92.3609 139.061 93.7157 139.236 94.8273C139.428 95.9563 139.602 97.5543 139.62 98.4054C139.637 99.2391 139.568 100.42 139.498 101.046C139.41 101.671 139.341 102.209 139.323 102.261C139.306 102.313 139.201 102.817 139.079 103.39C138.957 103.964 138.747 104.78 138.625 105.214C138.503 105.648 138.241 106.36 138.032 106.829C137.822 107.281 137.578 107.681 137.491 107.733C137.403 107.785 137.316 107.976 137.316 108.167C137.316 108.358 136.74 109.14 136.007 109.904C135.291 110.668 134.611 111.293 134.523 111.293C134.436 111.293 134.139 111.432 133.86 111.606C133.598 111.78 132.883 112.058 132.254 112.214C131.626 112.388 130.718 112.527 130.247 112.544C129.758 112.561 129.06 112.509 128.676 112.44C128.292 112.37 127.926 112.283 127.838 112.231C127.769 112.197 127.472 112.249 127.193 112.336C126.913 112.422 126.669 112.561 126.669 112.648C126.669 112.718 126.494 112.804 126.285 112.857C126.058 112.891 125.22 112.926 124.4 112.926C123.143 112.909 122.759 112.839 121.956 112.457C121.433 112.197 120.752 111.832 120.473 111.658C120.193 111.484 119.862 111.363 119.775 111.398C119.687 111.415 118.815 111.606 117.855 111.814C116.895 112.023 115.917 112.162 115.236 112.023L115.376 114.819C115.463 116.817 115.568 117.703 115.743 117.894C115.882 118.033 116.319 118.311 116.738 118.484L116.856 118.538C117.38 118.777 118.673 119.366 119.862 119.926C121.153 120.551 122.41 121.09 122.654 121.142C122.899 121.194 124.033 121.593 125.185 122.01C126.337 122.427 127.559 122.896 127.891 123.035C128.222 123.174 128.694 123.4 128.938 123.521C129.182 123.643 129.846 123.903 130.422 124.077C130.998 124.251 132.952 125.137 138.101 127.707M63.2232 135.784C63.3977 135.923 63.5723 135.975 63.5897 135.871C63.6246 135.784 64.3053 134.881 65.0908 133.873C65.8937 132.866 66.8885 131.72 67.3249 131.337C67.7613 130.955 68.5118 130.33 68.983 129.931C69.4718 129.548 70.4666 128.906 71.2172 128.506C71.9503 128.107 72.6833 127.829 72.823 127.881C72.9626 127.933 73.0673 127.881 73.0499 127.794C73.015 127.69 73.5386 127.377 74.2193 127.082C74.9 126.804 76.1916 126.3 77.0992 125.988C78.0068 125.675 78.9144 125.328 79.1064 125.241C79.2984 125.137 80.1013 124.737 80.9042 124.338C81.6896 123.956 82.4227 123.626 82.51 123.626C82.5973 123.626 82.6845 123.747 82.6845 123.886C82.6845 124.025 82.3355 124.338 81.8991 124.581L81.1137 125.015C81.7246 126.005 82.3355 126.735 82.8591 127.273C83.4176 127.812 84.6568 128.715 85.739 129.357C86.7863 129.983 87.7986 130.573 88.0081 130.677C88.2 130.782 88.9506 131.06 89.6662 131.32C90.3818 131.563 91.4465 131.859 92.0225 131.963C92.5985 132.067 93.157 132.206 93.2443 132.258C93.349 132.31 93.2617 132.466 93.0697 132.588C92.7905 132.762 92.5112 132.762 91.5861 132.553C90.9578 132.432 90.1724 132.258 89.8407 132.171C89.5091 132.084 88.7237 131.806 88.0953 131.546C87.467 131.285 86.5943 130.851 86.1405 130.573C85.6692 130.278 85.2678 130.052 85.2154 130.052C85.163 130.052 84.6394 129.705 84.046 129.288C83.4351 128.871 82.6322 128.194 82.2482 127.759C81.8642 127.325 81.358 126.613 81.1137 126.179C80.7297 125.484 80.6249 125.38 80.241 125.484C79.9966 125.536 79.4555 125.762 79.0192 125.97C78.5828 126.179 77.4483 126.613 76.4883 126.926C75.5283 127.238 73.8353 127.95 72.7357 128.506C71.6361 129.062 70.1874 129.931 69.5067 130.434C68.8434 130.938 67.7612 131.893 67.1154 132.571C66.4696 133.248 65.6493 134.221 65.3002 134.742C64.9337 135.263 64.4275 136.045 64.1832 136.479C63.9213 136.913 63.6072 137.66 63.4675 138.129C63.3279 138.615 63.2406 139.136 63.2581 139.31C63.3105 139.571 63.6246 139.605 66.9409 139.623M28.6814 9.50961C28.9083 9.50961 29.1003 9.57909 29.1003 9.6833C29.1003 9.78752 28.5243 10.2739 27.8436 10.7949C27.1454 11.2986 26.4124 11.9066 26.2029 12.1324C26.0109 12.3582 25.6095 12.9314 25.3128 13.4177C25.0335 13.8867 24.5971 14.7899 24.3528 15.4152C24.1084 16.0404 23.8117 16.9784 23.707 17.4995C23.6023 18.0205 23.4975 18.6458 23.4801 18.889C23.4452 19.1322 23.323 19.3232 23.1659 19.3232C22.9564 19.3232 22.9041 19.0974 22.9564 18.1421C22.9739 17.4647 23.1833 16.4226 23.4452 15.6236C23.6895 14.8941 24.1259 13.8519 24.4226 13.3308C24.7193 12.8098 25.2429 12.0455 25.592 11.6287C25.9411 11.2118 26.6916 10.5691 27.2502 10.187C27.8087 9.82225 28.4545 9.50961 28.6814 9.50961ZM34.0747 12.6534C34.0747 12.6361 34.5111 12.775 35.0347 12.9487C35.5583 13.1398 36.239 13.4003 36.5183 13.5393C36.7976 13.6956 37.391 14.1472 37.8099 14.5641C38.2288 14.9809 38.8572 15.7625 39.2237 16.2836C39.5902 16.8047 40.1488 17.7774 40.4978 18.4548C40.8295 19.1322 41.3182 20.3307 41.5625 21.147C41.8244 21.9634 42.0164 22.8666 42.0164 23.1445C41.9989 23.4224 42.0687 24.0477 42.156 24.534C42.2607 25.003 42.4353 25.7151 42.54 26.0972C42.6622 26.4794 42.8891 27.7126 43.0811 28.8242C43.2556 29.9532 43.5698 31.2212 43.7618 31.6554C43.9538 32.0896 44.1108 32.4891 44.1108 32.5586C44.0934 32.6455 44.4425 33.1144 44.8439 33.6181C45.2628 34.1392 46.0308 34.8687 46.5544 35.2682C47.0781 35.6503 48.0555 36.2235 48.7362 36.5362C49.4344 36.8488 50.5165 37.1615 51.267 37.2657C52.3143 37.422 52.8554 37.4046 53.9724 37.1962C54.7404 37.0399 55.5782 36.9704 55.8575 37.0225C56.1193 37.0746 56.5905 37.3699 56.9047 37.6652C57.2014 37.9604 57.7425 38.3426 58.0742 38.5163C58.4058 38.69 59.1563 38.9679 59.7323 39.1242C60.3083 39.2979 61.2159 39.4195 61.7395 39.4195C62.2631 39.4021 63.0486 39.2805 63.4849 39.1589C64.026 39.0026 64.3751 38.7421 64.6195 38.3773C64.8114 38.082 65.1431 37.7694 65.37 37.6652C65.5794 37.561 65.8761 37.4741 66.0158 37.4741C66.1554 37.4741 66.3823 37.7346 66.522 38.0299C66.6616 38.3426 66.8187 39.1937 66.8885 39.9058C66.9408 40.6179 67.0979 41.8338 67.2376 42.598C67.3597 43.3623 67.5343 44.1786 67.5866 44.4218C67.6565 44.6823 67.5692 45.2729 67.3598 45.8982C67.1678 46.4714 66.9408 47.2009 66.7139 48.0694L65.6667 47.2356C65.0907 46.7667 64.1133 46.0893 63.4849 45.7592C62.8566 45.4119 62.0711 45.0471 61.7395 44.9429C61.4079 44.8387 60.413 44.7518 59.5577 44.7692C58.7025 44.7692 57.4807 44.9081 56.8524 45.0471C56.224 45.2034 54.9324 45.7071 53.9724 46.1414C53.0125 46.593 51.9303 47.2183 51.5812 47.5135C51.2147 47.8262 50.918 48.2257 50.918 48.4167C50.918 48.6252 51.075 48.7989 51.3194 48.8683C51.5289 48.9378 52.4888 48.9031 53.4488 48.8336C54.4088 48.7467 56.608 48.6773 58.336 48.6773C60.4479 48.6773 61.8966 48.7641 62.7693 48.9378C63.4675 49.0768 64.0784 49.2505 64.1133 49.3199C64.1482 49.4068 64.4449 49.4589 64.7591 49.4589C65.0558 49.4589 65.6143 49.5457 66.6267 49.8063V50.7963C66.6267 51.3521 66.6616 52.0469 66.7139 52.3248C66.7488 52.6027 66.8361 53.9402 66.9234 55.2776C66.9932 56.615 67.063 60.6447 67.063 64.2228C67.063 67.8008 67.0107 71.431 66.9234 72.2995C66.8536 73.1679 66.7139 74.4532 66.6092 75.1654C66.5219 75.8775 66.3649 76.9023 66.2776 77.4234C66.1903 77.9445 66.0681 78.6913 66.0158 79.0735C65.9634 79.4556 65.754 80.6367 65.562 81.6788C65.37 82.721 65.1256 83.9195 65.0034 84.319C64.8289 84.9616 64.7591 85.0311 64.5322 84.8227C64.3925 84.6837 63.7293 84.2842 63.0486 83.9369C62.3679 83.5895 61.2857 82.8947 60.605 82.3736C59.9243 81.8699 58.877 81.2446 58.2487 80.9841C57.4458 80.6541 56.6778 80.4977 55.6306 80.4283C54.5135 80.3588 53.8852 80.4109 53.0997 80.6367C52.5237 80.793 51.6161 81.1404 51.0925 81.4183C50.5689 81.6789 49.958 82.1131 49.7311 82.391C49.382 82.8252 49.2598 82.8773 48.7711 82.7558C48.4569 82.6863 47.7064 82.5821 47.0781 82.53C46.4497 82.4605 45.4723 82.4778 43.849 82.6515L43.8141 83.4679C43.7967 84.0237 43.5698 84.7011 43.1334 85.5869C42.6971 86.438 42.1385 87.2023 41.5102 87.8102C40.9691 88.3313 39.9917 89.0087 39.311 89.3387C38.6303 89.6687 37.9844 89.9292 37.8797 89.9292C37.7575 89.9292 37.6528 89.8424 37.6528 89.7556C37.6528 89.6687 38.1415 89.3387 38.7524 89.0434C39.3633 88.7308 40.3059 88.036 40.8993 87.4281C41.6324 86.6986 42.1734 85.9517 42.6098 85.0659C42.9589 84.3537 43.2381 83.5547 43.2381 83.2768C43.2381 82.86 43.1858 82.8252 42.7669 82.9294C42.4876 82.9816 41.6149 83.3984 40.7946 83.8326C39.9742 84.2842 38.6826 85.118 37.9146 85.7085C37.1467 86.2817 36.3612 86.9417 36.1692 87.1675C35.9772 87.3933 35.7154 87.7581 35.6107 87.9665C35.4885 88.1923 35.3838 88.505 35.3838 88.6613C35.3663 88.835 35.6281 89.165 35.9423 89.4082C36.2565 89.6513 36.7278 89.9466 37.007 90.0682C37.2688 90.1898 37.775 90.2766 38.1415 90.2766C38.4906 90.2766 39.2586 90.1203 39.8346 89.9466C40.4106 89.7729 41.0215 89.5819 41.196 89.5124C41.4404 89.4255 41.4927 89.495 41.4578 89.964C41.4404 90.2766 41.5276 90.7109 41.6324 90.9193C41.7545 91.1451 41.9116 91.3188 42.0164 91.3188C42.1211 91.3188 42.1909 91.4404 42.1909 91.5793C42.1909 91.7183 42.5225 91.9788 42.9414 92.1699C43.3429 92.3436 44.2854 92.6215 45.0359 92.7778C45.8388 92.9515 47.2351 93.0557 48.5267 93.0557C49.6962 93.0557 51.1274 92.9689 51.7034 92.8647C52.2794 92.7604 53.0997 92.5694 53.5361 92.4304C53.9724 92.2741 54.6008 92.0483 54.9324 91.892C55.264 91.753 55.7004 91.5446 55.8924 91.4404C56.0844 91.3362 56.8349 90.954 57.5505 90.5719C58.2661 90.1898 58.9992 89.7556 59.1738 89.5992C59.4007 89.4082 59.4879 89.1476 59.4356 88.7481C59.3832 88.2618 59.4356 88.1923 59.7323 88.2618C59.9243 88.3139 60.3606 88.4008 60.6923 88.4529C61.181 88.5571 61.4079 88.4876 62.3155 87.7581L61.8093 86.9765C61.5301 86.5422 61.2683 86.1601 61.2159 86.108C61.1461 86.0559 60.8494 85.5522 60.5352 84.979C60.221 84.4058 60.029 83.8674 60.1163 83.7805C60.1861 83.7111 60.3606 83.6937 60.4828 83.7458C60.5875 83.7979 60.9366 84.3363 61.2159 84.9269C61.5999 85.7259 61.949 86.1428 62.49 86.5075C62.8915 86.768 63.4849 87.0112 63.7991 87.0633C64.0958 87.1154 64.3576 87.1675 64.3576 87.1849C64.3576 87.2196 64.0435 88.366 63.6595 89.7556C63.258 91.1451 62.5424 93.2989 62.0362 94.5321C61.5475 95.7653 60.5875 97.8844 59.9068 99.2218C59.2261 100.559 58.2312 102.192 57.7076 102.869C57.1665 103.547 56.4335 104.346 56.0495 104.658C55.6829 104.971 54.5484 105.648 53.5361 106.152C52.5237 106.673 51.2321 107.177 50.6561 107.299C50.0802 107.42 48.5442 107.524 47.2526 107.542C45.4548 107.559 44.617 107.49 43.6745 107.229C42.9938 107.055 42.3829 106.847 42.2782 106.777C42.1734 106.708 41.8244 106.569 41.4927 106.447C41.1611 106.343 39.8171 105.701 38.5255 105.006C37.2339 104.328 35.698 103.46 35.122 103.078C34.546 102.713 33.8129 102.192 33.4813 101.949C33.1671 101.688 32.4166 101.098 31.8231 100.629C31.2472 100.16 30.2523 99.3434 29.6239 98.8049C28.9956 98.2839 27.512 96.8596 26.3076 95.6611C25.1033 94.4626 23.7593 92.9515 23.323 92.2741C22.8692 91.5967 22.0314 90.1898 21.4379 89.1476C20.8445 88.1055 19.7274 85.9864 18.9769 84.4579C18.2264 82.9294 17.2839 80.8625 16.8999 79.8551C16.4984 78.8477 16.1842 77.8403 16.1842 77.5971C16.1842 77.1802 16.1319 77.1628 14.9625 77.1107C14.2817 77.0934 13.3392 76.9197 12.8331 76.7286C12.3269 76.5549 11.5938 76.1554 11.2098 75.8602C10.8258 75.5649 10.0055 74.8354 9.39459 74.2448C8.7837 73.6543 7.84117 72.5774 7.30009 71.8652C6.77647 71.1531 5.99104 69.8678 5.57214 68.9993C5.15324 68.1308 4.64707 66.8455 4.47253 66.1334C4.22817 65.1781 4.15835 64.4138 4.21071 63.2675C4.26308 61.9474 4.35035 61.5653 4.7867 60.7489C5.06597 60.2278 5.6245 59.5331 6.02594 59.2204C6.65429 58.7514 6.89865 58.6646 7.71899 58.6646C8.26007 58.6646 8.92333 58.7862 9.25496 58.9599C9.55168 59.1162 10.1277 59.4809 10.5117 59.7762C10.8956 60.0715 11.4716 60.5926 11.8033 60.9226C12.1349 61.2526 12.868 62.1211 13.4614 62.8506C14.0548 63.5801 14.6657 64.4312 14.8403 64.7265C14.9974 65.0217 15.2766 65.2649 15.4512 65.2649C15.713 65.2649 15.7479 65.0044 15.7479 62.3469C15.7479 60.7489 15.8526 58.2304 15.9748 56.754C16.097 55.2776 16.289 53.7144 16.4111 53.2975C16.5333 52.8806 16.7253 52.4464 16.8475 52.3422C16.9697 52.238 17.0744 52.0295 17.0744 51.8906C17.0744 51.7516 17.2489 51.2306 17.4933 50.7616C17.7202 50.2752 17.8773 49.8584 17.8424 49.8063C17.8075 49.7542 17.8947 49.2157 18.0518 48.5904C18.2438 47.7741 18.3137 46.5756 18.2962 44.335C18.2962 42.6154 18.2264 40.67 18.1391 39.9926C18.0518 39.3152 18.0169 38.4294 18.0518 37.9952C18.0693 37.561 18.1391 36.8662 18.1915 36.432C18.2264 35.9977 18.3136 35.2161 18.3835 34.695C18.4358 34.1739 18.6627 33.236 18.8722 32.6107C19.0816 31.9854 19.4307 31.1517 19.6402 30.7348C19.8496 30.3353 20.286 29.8316 20.6001 29.6232C20.8969 29.4148 21.595 29.189 22.1187 29.1195C22.6423 29.05 23.2706 29.0326 23.515 29.05C23.7593 29.0848 24.4226 29.2063 24.9986 29.3279C25.9062 29.5016 26.168 29.5016 26.9185 29.2584C27.4072 29.1021 28.2974 28.5984 28.9083 28.1468C29.5192 27.6952 30.1825 27.2089 30.3919 27.0699C30.7235 26.8441 30.8457 26.8962 31.7882 27.5042C32.7133 28.1121 32.9402 28.1816 33.8827 28.1642C34.546 28.1642 35.1743 28.0426 35.5583 27.8342C35.89 27.6605 36.2739 27.4173 36.3961 27.2784C36.5009 27.1568 37.1467 26.931 37.8274 26.792C38.5081 26.6531 39.2586 26.5836 39.5379 26.6357C39.7997 26.7052 40.2011 26.8615 40.4455 27.0004C40.8295 27.2436 40.9517 27.2262 41.4578 26.9831C41.8942 26.7573 41.9989 26.6183 41.9291 26.323C41.8767 26.0972 41.6324 24.9856 41.388 23.8392C41.1436 22.6929 40.7597 21.1817 40.5153 20.487C40.2884 19.8096 39.6426 18.5069 39.1015 17.6384C38.543 16.7526 37.8099 15.7104 37.4608 15.3283C37.0768 14.8941 36.3263 14.4077 35.5409 14.043C34.5111 13.574 34.1096 13.4698 33.5511 13.5566C33.1671 13.6088 32.4515 13.8693 31.9628 14.1472C31.317 14.4946 30.8457 14.9288 30.3395 15.6757C29.8334 16.4052 29.3796 17.43 28.8559 19.0627C28.437 20.348 28.0356 21.9113 27.9658 22.5365C27.896 23.1618 27.7912 23.735 27.7389 23.8392C27.6865 23.9435 27.5818 23.8566 27.512 23.6655C27.4422 23.4745 27.3723 22.9708 27.3723 22.5365C27.3723 22.1023 27.4771 21.286 27.6342 20.7128C27.7738 20.1396 28.1054 19.0453 28.3498 18.2811C28.5941 17.5168 29.013 16.4573 29.2748 15.9362C29.5367 15.4152 29.9556 14.7378 30.1825 14.4598C30.4268 14.1819 30.9853 13.7303 31.4217 13.4698C31.8755 13.1919 32.6609 12.914 33.1671 12.8271C33.6558 12.7403 34.0747 12.6708 34.0747 12.6534ZM58.1614 23.0576C58.2138 23.0576 58.3883 23.1097 58.5454 23.1618C58.7374 23.2313 58.8421 23.4224 58.8072 23.6482C58.7898 23.8392 58.9643 24.5166 59.2087 25.1419C59.4705 25.7672 59.7672 26.462 59.8719 26.7052C59.9941 26.9483 60.3083 27.5389 60.605 28.0079C60.8843 28.4942 61.4777 29.2584 61.9141 29.7274C62.3504 30.1964 63.0486 30.8043 63.4849 31.0822C63.9213 31.3428 64.7765 31.7423 65.4049 31.9333C66.0332 32.1417 66.8361 32.2807 67.1852 32.246C67.5517 32.2112 67.8485 32.2112 67.8485 32.2633C67.8485 32.3154 67.639 32.4891 67.4121 32.6628C67.063 32.906 66.7838 32.9407 65.9809 32.8365C65.4049 32.767 64.4449 32.4718 63.7467 32.1244C62.8915 31.7249 62.2108 31.2212 61.5126 30.4743C60.9541 29.8837 60.3257 29.05 60.1163 28.6332C59.9068 28.2163 59.6799 27.8515 59.6101 27.8168C59.5228 27.7821 59.2785 27.3305 59.0516 26.8441C58.8247 26.3404 58.4581 25.3851 58.2487 24.7077C58.0392 24.0303 57.9171 23.3876 57.9694 23.2834C58.0218 23.1618 58.1091 23.0576 58.1614 23.0576ZM55.6306 30.0053C55.8633 30.0053 55.9797 30.1211 55.9797 30.3527C55.9797 30.5438 56.0495 30.8391 56.1367 31.0127C56.2415 31.1691 56.5382 31.8117 56.8 32.4197C57.1316 33.1665 57.6029 33.8092 58.2487 34.4345C58.7723 34.9382 59.7497 35.6156 60.4305 35.9456C61.2333 36.3277 62.1759 36.623 63.1358 36.762C63.9562 36.9009 64.7067 37.0399 64.794 37.092C64.8987 37.1267 64.8464 37.2309 64.7067 37.3178C64.5671 37.4046 64.0086 37.4741 63.4849 37.4741C62.9613 37.4741 62.0188 37.3352 61.3904 37.1615C60.7446 36.9878 59.7323 36.5188 59.0341 36.0672C58.3534 35.6156 57.4633 34.834 57.0269 34.3303C56.5556 33.7571 56.0669 32.8886 55.7702 32.0896C55.5084 31.3775 55.2815 30.6132 55.2815 30.4048C55.2815 30.1269 55.3862 30.0053 55.6306 30.0053ZM91.3417 34.5561C91.3592 34.5908 91.2544 35.164 91.1323 35.824C90.9752 36.5535 90.8705 38.0994 90.8705 39.6453C90.8705 41.3127 90.9752 42.7891 91.1497 43.727C91.3068 44.5434 91.5512 45.7419 91.7083 46.4193C91.8653 47.0967 92.3017 48.382 92.6857 49.2852C93.0522 50.1884 93.89 51.9601 94.5184 53.1933C95.1642 54.4265 95.8798 55.6945 96.1416 55.9724C96.543 56.424 96.7699 56.5108 97.887 56.6324C98.6026 56.7192 99.9641 56.8061 100.924 56.8582C101.884 56.8929 103.123 57.0319 103.682 57.1535C104.502 57.3272 104.904 57.553 105.864 58.3693C106.509 58.9251 107.347 59.5331 107.731 59.7241C108.115 59.9152 108.831 60.2973 109.302 60.5752C109.791 60.8531 110.716 61.3047 111.397 61.5653C112.077 61.8084 112.74 62.1211 112.88 62.2427C113.02 62.3643 113.578 62.6595 114.102 62.8853C114.626 63.1285 115.603 63.4759 116.284 63.6669C117.383 63.997 117.575 64.1185 118.204 64.9523C118.588 65.4386 119.373 66.3244 119.949 66.915C120.525 67.4882 121.241 68.1135 121.52 68.3045C121.799 68.4956 122.201 68.7388 122.393 68.8603C122.585 68.9819 123.021 69.2077 123.353 69.3641C123.684 69.5204 124.4 69.6941 124.923 69.7462C125.534 69.7983 126.11 69.7462 126.494 69.6072C126.826 69.4683 127.542 69.0688 128.065 68.704C128.711 68.2698 129.304 68.0093 129.898 67.9398C130.631 67.8356 130.928 67.8877 131.783 68.2698C132.656 68.6866 132.848 68.8603 133.301 69.7462C133.598 70.2846 133.895 70.9968 133.965 71.3268C134.035 71.6394 134.122 71.9347 134.174 71.9521C134.227 71.9868 134.244 72.5774 134.209 73.2895C134.192 73.9843 134 75.0959 133.79 75.7733C133.581 76.4507 133.267 77.2671 133.075 77.5971C132.883 77.9271 132.446 78.6392 132.097 79.1603C131.748 79.664 130.771 80.8104 129.898 81.6788C128.711 82.8947 128.03 83.4158 127.105 83.8674C126.041 84.3885 125.674 84.4579 124.225 84.5274C122.794 84.5795 122.462 84.5448 121.834 84.2148C121.415 84.0237 121.049 83.7458 121.014 83.6416C120.961 83.4679 120.874 83.4679 120.63 83.6068C120.385 83.7458 120.316 83.9542 120.35 84.3885C120.385 84.8227 120.124 85.5522 119.268 87.237C118.657 88.4702 117.61 90.3635 116.982 91.4056C116.336 92.4478 115.324 93.9589 114.73 94.7579C114.154 95.5569 113.194 96.7727 112.636 97.4501C112.06 98.1449 111.344 98.8918 111.065 99.135C110.768 99.3781 110.437 99.656 110.349 99.7602C110.262 99.8818 109.389 100.629 108.429 101.41C107.469 102.209 106.37 103.078 105.986 103.338C105.602 103.581 104.537 104.207 103.629 104.71C102.722 105.214 101.535 105.857 101.011 106.1C100.488 106.361 99.3532 106.864 98.4805 107.212C97.6078 107.559 96.3161 108.045 95.6005 108.289C94.8849 108.514 93.5409 108.862 92.6333 109.053C91.7257 109.244 90.3643 109.383 89.6312 109.383C88.8807 109.383 87.4669 109.226 86.4895 109.035C85.4946 108.844 84.2553 108.532 83.7317 108.323C83.2081 108.132 82.4925 107.802 82.1608 107.594C81.8292 107.403 80.974 106.777 80.2933 106.222C79.5951 105.666 79.0191 105.162 79.0191 105.093C79.0191 105.006 78.8795 104.797 78.7049 104.606C78.5304 104.415 77.9544 103.616 77.4308 102.852C76.9072 102.07 76.209 100.976 75.8599 100.42C75.5108 99.8471 74.9523 98.8049 74.6032 98.0928C74.2716 97.3807 73.7131 96.0432 73.3465 95.14C72.9974 94.2368 72.5785 93.1426 72.4564 92.7083C72.3167 92.2741 72.0375 91.2319 71.8455 90.3635C71.6535 89.495 71.3393 87.8623 71.1473 86.7159C70.9553 85.5696 70.7633 84.1974 70.7109 83.6763C70.6586 83.1552 70.6062 80.3762 70.6062 77.5102C70.6062 74.6443 70.6586 71.4831 70.7109 70.4757C70.7808 69.4683 70.868 68.3393 70.9029 67.9571C70.9378 67.575 71.1124 65.317 71.2695 62.9201C71.4964 59.2552 71.5836 58.543 71.828 58.4041C72.0025 58.3172 72.596 58.0567 73.172 57.8482C73.748 57.6572 74.673 57.3098 75.2316 57.1187C75.7726 56.9103 76.9072 56.6324 77.7624 56.4934C78.6002 56.3545 79.6998 56.2329 80.206 56.2329C80.6947 56.2329 81.358 56.1113 81.6372 55.9724C81.9165 55.8334 82.3179 55.5034 82.4925 55.2428C82.6845 54.9649 83.051 54.166 83.2954 53.4538C83.5572 52.7417 83.819 51.769 83.9063 51.2827C83.9935 50.8137 84.1332 50.1363 84.2379 49.8063C84.3426 49.4763 84.6219 48.4862 84.8662 47.6351C85.0931 46.784 85.5819 45.0124 85.9135 43.727C86.28 42.3722 86.8036 40.8785 87.1876 40.1663C87.5367 39.4889 88.0429 38.6031 88.3047 38.1689C88.5665 37.7346 89.0552 37.0746 89.3519 36.6925C89.6661 36.3277 90.2421 35.6677 90.6086 35.2682C90.9926 34.8513 91.3068 34.5387 91.3417 34.5561ZM70.5888 37.561C70.7109 37.752 70.8157 38.082 70.8157 38.3078C70.8157 38.5163 70.6411 38.9852 70.4142 39.35C70.1873 39.6974 69.751 40.5832 69.4368 41.2953C69.1052 42.0075 68.7735 42.6675 68.6688 42.7717C68.5641 42.8875 68.535 42.8586 68.5815 42.6849C68.6339 42.5459 68.599 42.2507 68.5292 42.0422C68.4244 41.7643 68.4419 41.608 68.599 41.5211C68.7386 41.4343 69.0528 41.0348 69.2972 40.6006C69.5415 40.1663 69.8033 39.4716 69.8557 39.0373C69.9255 38.6031 70.0477 38.0126 70.1524 37.7346C70.3444 37.2309 70.3619 37.2309 70.5888 37.561ZM101.465 43.0323C101.692 43.0323 101.954 43.7097 102.635 45.9503C103.123 47.5483 103.821 49.4763 104.205 50.2405C104.572 51.0048 105.305 52.2553 105.794 53.0196C106.3 53.7838 106.998 54.9302 107.347 55.5902C107.696 56.2329 107.993 56.8582 107.993 56.9798C107.993 57.084 107.644 56.8061 107.225 56.3197C106.789 55.8508 106.422 55.3644 106.422 55.2776C106.405 55.1907 106.125 54.7565 105.811 54.3223C105.48 53.8881 104.869 52.9154 104.432 52.1511C104.013 51.3869 103.385 50.171 103.053 49.4589C102.722 48.7467 102.233 47.5309 101.971 46.7667C101.727 46.0024 101.395 44.9429 101.256 44.4218C101.116 43.9007 101.029 43.3623 101.081 43.2581C101.133 43.1365 101.308 43.0323 101.465 43.0323ZM108.743 46.2803C108.935 46.454 109.511 47.4962 110.018 48.5904C110.541 49.6847 111.065 50.779 111.187 51.0221C111.309 51.2653 111.711 51.9948 112.095 52.6722C112.461 53.3496 113.299 54.7565 113.98 55.7987C114.643 56.8408 115.359 57.9872 115.551 58.3172C115.725 58.6472 116.092 59.2725 116.336 59.7068C116.58 60.141 117.121 60.9226 117.523 61.4437C117.942 61.9648 118.518 62.6769 118.797 63.0069C119.094 63.3369 119.897 64.2228 120.595 64.987C121.293 65.7339 122.34 66.6892 122.916 67.1234C123.492 67.5403 124.225 67.9398 124.557 68.0093C124.871 68.0787 125.168 68.1829 125.203 68.2698C125.238 68.3393 125.168 68.4261 125.063 68.4609C124.941 68.4956 124.557 68.4782 124.225 68.4087C123.894 68.3393 123.23 68.044 122.742 67.7487C122.27 67.4361 121.31 66.6197 120.647 65.9249C119.966 65.2302 118.972 64.1533 118.431 63.528C117.889 62.9027 117.139 62.0169 116.772 61.5305C116.423 61.0615 115.376 59.4462 114.468 57.9698C113.561 56.4934 112.391 54.5307 111.885 53.6275C111.362 52.7243 110.646 51.3521 110.279 50.5879C109.895 49.8236 109.285 48.5209 108.883 47.6872C108.482 46.8361 108.22 46.124 108.29 46.0719C108.342 46.0198 108.551 46.124 108.743 46.2803ZM67.8135 56.4413C67.8834 56.4934 68.1801 56.9798 68.4594 57.5182C68.7386 58.0567 69.0179 58.4909 69.0703 58.4909C69.1226 58.4735 69.5066 58.9251 70.6935 60.4884L70.5538 62.8332C70.484 64.1185 70.3968 65.4212 70.3793 65.6991C70.3444 65.9771 70.2746 66.8802 70.2222 67.6966C70.1524 68.513 70.0651 69.7114 70.0302 70.3888C69.9779 71.0662 69.8906 73.0811 69.751 78.205L69.0004 79.5945C68.599 80.3588 68.0928 81.5225 67.8834 82.1999C67.6914 82.8773 67.4121 83.85 67.255 84.3711C67.1154 84.8922 66.9408 85.639 66.871 86.0212C66.8187 86.4033 66.6267 87.3065 66.4521 88.0186C66.2601 88.7308 66.0856 89.7208 66.0158 90.1898C65.9634 90.6761 65.8412 91.8746 65.754 92.882C65.6667 93.8894 65.6143 94.8621 65.6667 95.0532C65.7016 95.2442 65.7889 96.0606 65.8412 96.877C65.8936 97.6933 66.0158 98.666 66.1205 99.0481C66.2252 99.4302 66.3474 100.021 66.3823 100.351C66.4347 100.681 66.5219 101.046 66.5918 101.132C66.6441 101.219 66.7139 101.462 66.7314 101.653C66.7489 101.845 67.1328 102.782 67.5866 103.738C68.0405 104.693 68.8433 105.996 69.3495 106.656C69.8731 107.298 70.3793 107.82 70.5015 107.82C70.6062 107.82 70.6411 107.872 70.5888 107.959C70.5189 108.028 70.3793 107.993 70.2571 107.889C70.1349 107.802 69.4368 107.49 68.7212 107.229C68.0055 106.968 66.0856 106.117 64.4449 105.353C62.8042 104.572 61.3032 103.859 61.0937 103.755C60.7097 103.564 60.6923 103.477 60.7272 101.393C60.7446 99.2392 60.7446 99.2044 61.4428 97.8323C61.8093 97.068 62.5075 95.47 62.9788 94.2716C63.45 93.0731 64.0435 91.3535 64.2878 90.4503C64.5322 89.5471 64.8987 88.2097 65.0907 87.4976C65.2827 86.7854 65.6143 85.3264 65.8412 84.2842C66.0681 83.2421 66.487 81.0015 66.7838 79.334C67.063 77.6666 67.3772 75.5128 67.4819 74.5575C67.5866 73.6022 67.7612 71.6394 67.8485 70.2151C67.9532 68.6345 67.9706 65.456 67.9008 62.1384C67.831 59.1336 67.7437 56.5977 67.7263 56.5108C67.6914 56.424 67.7263 56.3892 67.8135 56.4413ZM123.387 63.528C123.51 63.528 123.806 63.8059 124.051 64.1706C124.295 64.5354 124.801 64.987 125.185 65.1781C125.569 65.3865 126.756 65.7165 127.803 65.9249C128.851 66.1334 130.16 66.3418 130.683 66.3939C131.521 66.4634 131.748 66.5676 132.481 67.2624C132.935 67.6966 133.301 68.0787 133.301 68.1308C133.301 68.1829 132.778 67.9224 132.132 67.575C131.085 67.0192 130.753 66.9324 129.2 66.8108C128.24 66.7413 126.948 66.5502 126.32 66.3939C125.691 66.2376 124.958 65.9597 124.662 65.786C124.382 65.6123 123.929 65.2302 123.667 64.9349C123.387 64.6396 123.178 64.2054 123.178 63.9622C123.178 63.719 123.283 63.528 123.405 63.528H123.387ZM54.7404 82.9815C55.0022 82.9815 55.2989 83.381 55.9622 84.6837C56.4509 85.6043 57.1316 86.6986 57.4982 87.0981C58.1091 87.7755 58.1265 87.8102 57.7076 87.7233C57.4633 87.6539 57.0094 87.4107 56.6953 87.1675C56.3113 86.8723 55.8051 86.108 55.2466 85.0311C54.7753 84.0932 54.3913 83.2421 54.3913 83.1552C54.3913 83.0684 54.5484 82.9815 54.7404 82.9815ZM19.7798 88.1055C19.9194 88.3834 20.1463 88.7481 20.2685 88.8871C20.3907 89.026 20.7921 89.6861 21.1412 90.3635C21.5078 91.0409 21.979 91.8399 22.2059 92.1525C22.4328 92.4478 22.6248 92.7952 22.6248 92.882C22.6248 92.9689 23.9339 94.3758 25.5571 95.9737C27.1629 97.5717 28.8909 99.2392 29.4145 99.656C29.9206 100.09 30.4617 100.542 30.5839 100.663C30.7235 100.768 30.8806 100.872 30.9679 100.872C31.0377 100.872 31.6137 101.341 32.2769 101.914C32.9228 102.487 33.4813 102.956 33.5336 102.956C33.586 102.956 34.0398 103.286 34.546 103.703C35.0696 104.103 36.0645 104.936 36.7801 105.544C37.4957 106.17 38.5779 107.003 39.2062 107.403C39.8346 107.802 41.0564 108.48 41.9116 108.914C42.7843 109.348 43.7618 109.817 44.0934 109.956C44.425 110.112 45.1406 110.355 45.6643 110.529C46.1879 110.703 46.8162 110.877 47.0606 110.894C47.305 110.911 48.422 110.946 49.5565 110.946C50.6736 110.946 51.7034 110.894 51.8256 110.824C51.9303 110.755 52.1747 110.668 52.3492 110.651C52.5063 110.616 53.1695 110.355 53.8328 110.043C54.4786 109.748 55.1593 109.348 55.3513 109.174C55.7004 108.862 55.7528 108.879 58.2661 110.112C59.6799 110.807 60.8843 111.328 60.9715 111.259C61.0414 111.189 61.0588 110.686 60.989 110.13C60.9192 109.574 60.797 108.028 60.7272 106.708C60.6225 104.884 60.6399 104.311 60.797 104.363C60.9017 104.398 61.8617 104.867 64.8463 106.343L64.8638 107.177C64.8638 107.82 64.6718 108.375 63.9213 109.869C63.3977 110.894 62.525 112.318 61.9664 113.048C61.3904 113.777 60.3956 114.993 59.7497 115.74C59.1039 116.504 58.2661 117.338 57.9171 117.598C57.568 117.876 56.7302 118.415 56.0495 118.814C55.3862 119.196 54.0772 119.839 53.1695 120.239C52.2619 120.638 51.075 121.072 50.5514 121.229C50.0278 121.385 48.9282 121.715 48.1078 121.941C47.2875 122.184 46.1181 122.462 45.4897 122.566C44.8614 122.653 43.8141 122.792 43.1334 122.861C42.4702 122.913 41.1262 122.983 40.1662 123.018C39.2062 123.052 37.4434 122.966 36.239 122.844C35.0347 122.722 33.5511 122.479 32.9228 122.323C32.2944 122.167 31.317 121.871 30.741 121.68C30.165 121.489 29.3796 121.194 28.9956 121.02C28.6116 120.864 28.1054 120.655 27.8611 120.586C27.6167 120.517 26.6044 120.03 25.592 119.492C24.5797 118.971 23.4103 118.311 22.9739 118.033C22.5375 117.737 21.6823 116.921 21.0714 116.192C20.4605 115.445 19.6925 114.316 19.3784 113.638C19.0467 112.961 18.6976 112.058 18.3486 110.79L19.8845 109.748C20.7223 109.157 21.4903 108.688 21.5776 108.688C21.6823 108.688 21.7521 108.844 21.7521 109.035C21.7521 109.226 21.8568 109.435 21.979 109.487C22.0837 109.539 22.2757 109.504 22.363 109.4C22.4852 109.261 22.4328 108.584 22.2408 107.333C22.0663 106.308 21.7347 103.911 21.4903 102.001C21.2459 100.09 20.9492 97.5891 20.7921 96.4427C20.6525 95.2963 20.3732 93.3857 20.1987 92.1873C20.0067 90.9888 19.7623 89.5471 19.6751 88.9739C19.5703 88.4008 19.4831 87.8449 19.4831 87.7581C19.5005 87.6712 19.6227 87.8276 19.7798 88.1055ZM51.0925 87.8449C51.1798 87.8449 51.5114 88.2618 51.8256 88.7655C52.1572 89.2518 52.5237 89.7556 52.6634 89.8771C52.803 89.9814 53.0997 90.0856 53.3441 90.1203C53.5884 90.1377 54.0946 90.0682 54.4786 89.964C54.8626 89.8424 55.2466 89.7556 55.3513 89.7556C55.456 89.7556 55.456 89.8077 55.3513 89.8945C55.2466 89.9814 54.7404 90.2245 54.2168 90.4156C53.6932 90.624 52.6634 90.9193 51.9478 91.0756C51.2321 91.2146 49.3122 91.3883 44.7741 91.5446L45.5421 90.6935C45.961 90.2245 46.4672 89.5819 46.6417 89.2692C46.8337 88.9566 47.0257 88.7134 47.113 88.7134C47.1828 88.7134 47.2351 88.8871 47.2351 89.1129C47.2351 89.3213 47.3922 89.7556 47.5842 90.0682C47.7762 90.3635 48.0729 90.6588 48.2475 90.7109C48.4046 90.763 48.8409 90.7109 49.2249 90.5893C49.7136 90.4156 49.9929 90.1724 50.2896 89.6687C50.4991 89.2866 50.726 88.7134 50.7958 88.4181C50.8656 88.1055 51.0052 87.8449 51.0925 87.8449ZM113.927 97.6586C114.015 97.6933 114.119 100.959 114.172 104.902C114.224 108.844 114.311 112.353 114.346 112.683C114.381 113.013 114.451 114.368 114.608 118.067L113.788 118.727C113.316 119.092 112.636 119.579 112.252 119.787C111.868 120.013 111.047 120.378 110.419 120.621C109.791 120.864 108.935 121.177 108.499 121.315C108.063 121.437 106.893 121.715 105.881 121.906C104.869 122.114 103.35 122.323 102.477 122.392C101.622 122.444 99.8419 122.444 98.5503 122.358C96.9969 122.271 95.81 122.097 95.0594 121.871C94.4311 121.68 93.3315 121.229 92.6159 120.881C91.7257 120.447 90.9403 119.891 89.0029 117.981L88.8807 115.723C88.8109 114.489 88.6887 112.996 88.6189 112.422C88.5316 111.849 88.4967 111.346 88.5316 111.293C88.5665 111.241 88.6887 111.293 88.8109 111.415C88.9331 111.519 89.4741 111.728 89.9977 111.884C90.661 112.092 91.4115 112.145 92.4413 112.11C93.2617 112.058 94.4311 111.901 95.0594 111.728C95.6878 111.554 96.2638 111.346 96.3685 111.276C96.4558 111.189 96.6303 111.12 96.7525 111.12C96.8747 111.12 97.4332 110.911 97.9917 110.651C98.5328 110.39 99.7721 109.73 100.732 109.157C101.692 108.601 102.565 108.045 102.652 107.924C102.757 107.802 103.385 107.351 104.048 106.916C104.764 106.465 105.846 105.492 106.666 104.606C107.434 103.755 108.534 102.626 109.093 102.105C109.669 101.567 110.96 100.333 111.955 99.3607C112.967 98.3881 113.858 97.6238 113.927 97.6586ZM122.009 100.212C122.113 100.264 122.218 100.524 122.253 100.802C122.288 101.08 122.148 102.053 121.939 102.956C121.729 103.859 121.363 105.197 121.118 105.909C120.857 106.621 120.473 107.507 120.246 107.872C120.019 108.219 119.495 108.966 119.094 109.522C118.675 110.06 118.221 110.564 118.081 110.633C117.942 110.686 117.715 110.668 117.575 110.581C117.436 110.494 117.401 110.425 117.488 110.442C117.593 110.442 118.134 109.748 118.71 108.914C119.268 108.08 119.984 106.76 120.298 105.996C120.612 105.232 121.014 103.946 121.223 103.13C121.415 102.314 121.607 101.341 121.66 100.959C121.694 100.577 121.747 100.247 121.764 100.212C121.782 100.177 121.886 100.177 122.009 100.212ZM85.0233 109.452C85.1106 109.487 85.704 109.626 86.3149 109.748C86.9258 109.887 87.4843 110.112 87.5542 110.251C87.624 110.39 87.7287 111.293 87.7985 112.249C87.8683 113.204 87.9731 114.264 88.0254 114.594C88.1302 115.149 88.1127 115.184 87.7985 115.045C87.624 114.958 86.0531 114.35 84.3252 113.69C82.5972 113.03 80.014 112.023 78.5653 111.45C77.1341 110.877 75.7377 110.321 75.4585 110.199C75.1967 110.078 74.9872 109.939 74.9872 109.869C74.9872 109.782 75.5632 109.782 76.2614 109.852C76.9421 109.921 77.7973 109.973 78.1289 109.973C78.4606 109.956 80.0314 109.904 81.6198 109.852C83.2081 109.782 84.5695 109.643 84.6742 109.557C84.7615 109.452 84.9186 109.4 85.0233 109.452ZM115.236 118.589C115.271 118.589 115.83 118.849 116.493 119.179C117.139 119.492 118.675 120.221 122.148 121.802L120.769 123.105C120.019 123.817 118.937 124.755 118.361 125.189C117.785 125.623 116.772 126.3 116.092 126.7C115.428 127.082 114.399 127.638 113.823 127.933C113.247 128.228 112.077 128.68 111.205 128.923C110.349 129.166 108.883 129.514 107.976 129.687C107.068 129.879 105.532 130.104 104.572 130.226C103.612 130.33 102.512 130.452 102.128 130.486C101.744 130.539 100.627 130.573 99.6499 130.573C98.655 130.573 97.7997 130.539 97.7299 130.504C97.6427 130.469 96.9969 130.382 96.2812 130.33C95.5656 130.261 94.3089 130.052 93.4886 129.861C92.6682 129.67 91.5337 129.357 90.9577 129.149C90.3817 128.958 89.4392 128.576 88.8632 128.315C88.2872 128.055 87.3098 127.534 86.6815 127.134C86.0531 126.752 85.1455 126.005 84.6568 125.501C84.1855 124.998 83.6794 124.338 83.5572 124.06C83.435 123.782 83.3826 123.4 83.435 123.243C83.4874 123.07 84.0284 122.601 84.6393 122.201C85.2328 121.802 86.3847 120.881 88.6363 118.849L89.5265 119.735C90.0327 120.221 90.9926 120.951 91.6559 121.35C92.3366 121.75 93.1919 122.149 93.5758 122.253C93.9598 122.34 94.5882 122.549 94.9722 122.688C95.3562 122.844 96.6478 123.052 97.8521 123.139C99.0564 123.243 100.435 123.313 100.907 123.313C101.395 123.296 102.565 123.209 103.525 123.105C104.485 123.018 105.829 122.809 106.492 122.653C107.173 122.497 108.307 122.184 109.023 121.976C109.738 121.75 110.995 121.263 111.815 120.881C112.636 120.499 113.718 119.839 114.224 119.388C114.748 118.953 115.202 118.589 115.236 118.589ZM124.749 122.931C124.836 122.931 124.941 123.018 124.993 123.105C125.046 123.191 124.801 123.643 124.452 124.112C124.103 124.564 123.475 125.241 123.056 125.623C122.637 126.005 122.061 126.509 121.747 126.752C121.45 126.995 121.118 127.273 120.996 127.36C120.892 127.464 120.455 127.759 120.019 128.055C119.583 128.333 119.007 128.697 118.71 128.854C118.431 129.01 117.907 129.305 117.575 129.496C117.244 129.705 116.458 130.104 115.83 130.417C115.202 130.712 114.032 131.216 113.212 131.529C112.391 131.859 110.908 132.31 109.895 132.553C108.883 132.797 107.242 133.109 106.23 133.266C105.218 133.404 103.263 133.578 101.867 133.63C100.47 133.7 99.1263 133.7 98.8644 133.648C98.5852 133.578 98.3757 133.404 98.3757 133.266C98.3757 133.057 98.7074 133.005 100.261 133.005C101.291 133.005 103.158 132.883 104.397 132.744C105.654 132.605 107.103 132.414 107.626 132.328C108.15 132.241 109.093 132.05 109.721 131.893C110.349 131.754 111.519 131.407 112.339 131.129C113.159 130.851 114.887 130.087 116.179 129.41C117.471 128.75 119.094 127.812 119.757 127.343C120.438 126.874 121.799 125.693 122.794 124.72C123.789 123.73 124.679 122.931 124.749 122.931ZM31.8058 46.1586C31.2298 46.2455 30.2524 46.4365 29.624 46.5929C28.9957 46.7666 28.0881 47.0618 27.6168 47.2703C27.1281 47.4787 26.3077 47.9303 25.7841 48.2777C25.2605 48.6251 24.2482 49.4762 23.55 50.1883C22.8344 50.8831 21.9966 51.9079 21.6649 52.4637C21.3333 53.0021 21.1064 53.5753 21.1588 53.7143C21.2111 53.8532 21.3508 53.9748 21.4729 53.9748C21.5777 53.9922 22.2409 53.61 22.9042 53.1758C23.5674 52.7242 24.7194 52.0815 25.435 51.7515C26.1507 51.4215 27.4946 50.9352 28.4022 50.6573C29.3098 50.362 30.8109 50.0493 31.7185 49.9625C32.6261 49.8583 33.9177 49.7367 34.5985 49.6846C35.2792 49.6325 36.2566 49.6846 36.7802 49.8062C37.618 49.9799 37.8449 49.9625 38.6129 49.6846C39.2936 49.4241 39.5031 49.2677 39.538 48.9377C39.5903 48.6077 39.4158 48.3298 38.8398 47.8261C38.4209 47.444 37.6529 46.9402 37.1293 46.7144C36.6057 46.4886 35.6282 46.2281 34.9475 46.1586C34.2668 46.0718 33.5337 46.0023 33.2894 46.0197C33.045 46.0197 32.3818 46.0892 31.8058 46.1586ZM57.0096 52.8111C56.3987 52.8805 55.491 53.1237 55.0198 53.3495C54.5311 53.5579 53.7107 54.1659 53.1871 54.6869C52.6635 55.208 52.07 55.9375 51.8955 56.3196C51.721 56.7018 51.6162 57.1534 51.686 57.3271C51.7559 57.5181 51.878 57.5876 52.07 57.5008C52.2271 57.4139 52.454 57.1707 52.5762 56.9276C52.6984 56.6844 53.03 56.2675 53.2918 56.007C53.5711 55.7291 54.3042 55.2601 54.9325 54.9648C55.5609 54.6696 56.5034 54.3917 57.027 54.3222C57.5506 54.2701 58.7026 54.3222 59.5579 54.4438C61.0938 54.6696 61.1462 54.6869 62.0014 55.5207C62.4727 55.9896 63.1185 56.667 63.3978 57.0144C63.869 57.5876 63.9738 57.6397 64.3054 57.466C64.5323 57.3618 64.7068 57.1534 64.7068 57.0144C64.7068 56.8755 64.4974 56.3891 64.2181 55.9375C63.9563 55.5033 63.3978 54.8259 62.9614 54.4438C62.5251 54.0616 61.7745 53.5753 61.3033 53.3669C60.8146 53.1411 59.9069 52.8979 59.2786 52.8111C58.6328 52.7242 57.6204 52.7242 57.0096 52.8111ZM46.5022 54.6175C46.4498 54.6869 46.5022 55.1038 46.6243 55.538C46.7989 56.1633 46.7989 56.5107 46.6069 57.3618C46.4847 57.935 46.38 59.0814 46.38 59.9324C46.38 60.7662 46.4673 61.8604 46.572 62.3641C46.6593 62.8505 47.2178 64.6743 47.7763 66.3938C48.3523 68.1134 49.2076 70.7709 49.6788 72.2994C50.2024 73.9494 50.6563 75.1305 50.8308 75.2174C51.0402 75.3042 51.0926 75.2174 51.0926 74.7832C51.0926 74.4705 50.8482 73.4631 50.569 72.5599C50.2723 71.6567 49.8883 70.3193 49.6963 69.6071C49.5043 68.895 49.033 67.3665 48.649 66.2201C48.2476 65.0737 47.8461 63.7884 47.7589 63.3542C47.6541 62.92 47.4971 62.1383 47.4098 61.6173C47.3051 61.0962 47.2702 60.0019 47.3225 59.1856C47.3923 58.3692 47.4796 57.275 47.532 56.7539C47.6018 56.007 47.5494 55.6596 47.2876 55.1906C47.0956 54.8606 46.8687 54.5653 46.764 54.5306C46.6767 54.4959 46.5545 54.548 46.5022 54.6175ZM30.8458 55.0864C30.4095 55.2254 29.7113 55.4859 29.2749 55.677C28.8386 55.868 28.0532 56.4065 27.5295 56.8755C27.0059 57.3444 26.2379 58.2303 25.819 58.8556C25.4001 59.4635 25.0336 60.1409 24.9812 60.3667C24.9463 60.5751 24.9812 60.8704 25.0859 61.0093C25.1907 61.1657 25.3652 61.2178 25.5398 61.1483C25.6968 61.0615 25.9936 60.6967 26.1856 60.3146C26.3601 59.9324 26.6917 59.3766 26.9012 59.0987C27.1281 58.8208 27.7913 58.3171 28.4197 57.9871C29.0306 57.6571 30.008 57.2228 30.584 57.0144C31.4742 56.6844 31.928 56.6323 33.7257 56.6497C35.4712 56.6844 35.9424 56.7539 36.5184 57.0492C36.9024 57.2576 37.4609 57.6571 37.7402 57.9524C38.0195 58.2476 38.4384 58.4908 38.6653 58.4908C38.8747 58.4908 39.0493 58.404 39.0493 58.3171C39.0493 58.2303 38.9445 57.935 38.8049 57.6744C38.6827 57.3965 38.2638 56.9102 37.8798 56.5802C37.4958 56.2502 36.9897 55.8854 36.7628 55.7812C36.5359 55.677 36.0297 55.4512 35.6457 55.2775C35.1919 55.0691 34.389 54.9475 33.2894 54.9127C32.2596 54.878 31.3345 54.9475 30.8458 55.0864ZM55.4561 55.9375C55.1245 56.0591 54.6532 56.4239 54.4089 56.7365C54.0598 57.1707 53.9725 57.5008 53.9725 58.1955C53.99 58.7687 54.1122 59.3072 54.3216 59.6545C54.5136 59.9846 55.0547 60.4188 55.5434 60.6793C56.0321 60.9399 56.6081 61.1483 56.8525 61.1309C57.0968 61.1309 57.6205 60.992 58.0394 60.8183C58.6153 60.5577 58.8422 60.3319 59.0342 59.8456C59.1739 59.4808 59.296 58.9077 59.296 58.5776C59.296 58.2476 59.1913 57.7092 59.0691 57.3965C58.947 57.1013 58.5281 56.6149 58.1441 56.3196C57.7077 56.007 57.2015 55.7986 56.7652 55.7638C56.3812 55.7291 55.7878 55.8159 55.4561 55.9375ZM30.4095 58.5776C30.0255 58.7166 29.5018 59.0814 29.24 59.394C28.9782 59.7066 28.7513 60.2104 28.7339 60.4883C28.7164 60.7662 28.7164 61.2004 28.7339 61.4436C28.7513 61.6867 28.891 62.0515 29.0306 62.2773C29.1702 62.4857 29.5368 62.8157 29.8509 63.0068C30.1476 63.1979 30.6364 63.4063 30.9331 63.4584C31.2298 63.5105 31.8058 63.4584 32.2421 63.3542C32.7483 63.2152 33.2545 62.9026 33.6908 62.4684C34.2668 61.8604 34.3366 61.6867 34.3366 60.8704C34.3541 60.2277 34.2494 59.8282 33.9876 59.4808C33.7956 59.2203 33.429 58.9077 33.1672 58.7687C32.8879 58.6471 32.3294 58.4908 31.8931 58.4387C31.4218 58.3866 30.8284 58.4387 30.4095 58.5776ZM76.5756 61.1483C76.1393 61.2699 75.4411 61.5825 75.0048 61.8257C74.5684 62.0689 73.9226 62.6073 73.5561 63.0242C73.1895 63.441 72.7706 64.1011 72.631 64.4832C72.4565 64.9174 72.3866 65.4211 72.4565 65.8206C72.5263 66.307 72.631 66.4633 72.8579 66.4285C73.0674 66.4112 73.207 66.168 73.2768 65.699C73.3466 65.3169 73.5037 64.7611 73.6608 64.4832C73.8004 64.2053 74.2717 63.6668 74.6731 63.3021C75.0746 62.9547 75.5284 62.6594 75.6506 62.6594C75.7727 62.6594 75.8949 62.5726 75.9298 62.4684C75.9473 62.3468 76.6454 62.2252 77.7625 62.1557C79.5254 62.0515 79.5428 62.0515 79.5428 62.4336C79.5428 62.6594 79.4381 62.8331 79.3334 62.8331C79.2112 62.8157 78.7399 63.1284 78.2861 63.5279C77.6403 64.0663 77.3785 64.4311 77.1691 65.1259C77.012 65.6296 76.9247 66.3243 76.9596 66.6543C77.012 66.9844 77.204 67.6097 77.396 68.0439C77.6578 68.5823 78.0418 68.9992 78.6178 69.3987C79.1763 69.7692 79.6592 69.9545 80.0665 69.9545C80.3981 69.9545 80.9566 69.885 81.2882 69.7808C81.6199 69.694 82.1435 69.364 82.4577 69.0513C82.7718 68.7387 83.1384 68.1828 83.278 67.8181C83.4351 67.4707 83.5747 66.8454 83.5747 66.4285C83.5922 66.0291 83.5573 65.4211 83.47 65.0911C83.4002 64.7611 83.1733 64.1705 82.9464 63.7884C82.7369 63.4063 82.2482 62.8157 81.8817 62.4857C81.4977 62.1383 80.817 61.6694 80.3283 61.4436C79.7523 61.1657 79.089 61.0093 78.4083 60.9746C77.8323 60.9572 77.012 61.0267 76.5756 61.1483ZM99.6325 62.4684C99.3009 62.5378 98.7075 62.7463 98.3235 62.9373C97.922 63.1284 97.2239 63.6321 96.7701 64.0663C96.2988 64.5006 95.8275 65.1259 95.6704 65.5254C95.5308 65.9075 95.4086 66.6022 95.3737 67.0886C95.3388 67.8528 95.3737 67.957 95.6704 67.957C95.9497 67.957 96.0719 67.7312 96.2988 66.828C96.4559 66.2028 96.6653 65.5427 96.7701 65.3517C96.8573 65.1606 97.2588 64.7611 97.6253 64.4658C98.0093 64.1705 98.5853 63.8058 98.9169 63.6668C99.2486 63.5105 99.9642 63.3368 100.488 63.2673C101.081 63.1979 101.797 63.25 102.373 63.3889L102.389 63.3929C103.298 63.6148 103.316 63.6191 103.385 64.3442C103.455 65.0737 103.438 65.0911 102.914 65.0911C102.512 65.0911 102.181 65.2648 101.71 65.7338C101.238 66.2028 100.959 66.7065 100.75 67.436C100.488 68.3044 100.488 68.6344 100.645 69.4334C100.75 69.9545 101.046 70.684 101.273 71.0314C101.57 71.483 102.024 71.8304 102.722 72.143C103.542 72.5252 103.909 72.5946 104.799 72.5425C105.637 72.4904 106.021 72.3688 106.614 71.952C107.033 71.6741 107.609 71.0835 107.888 70.684C108.377 69.9893 108.429 69.7982 108.429 68.5997C108.412 67.436 108.342 67.0886 107.801 65.9596C107.312 64.9174 106.981 64.5006 106.23 63.9274C105.707 63.5279 105.165 63.1979 105.026 63.1805C104.886 63.1805 104.677 63.111 104.59 63.0242C104.502 62.9547 104.031 62.7463 103.542 62.5899C103.036 62.4336 102.163 62.312 101.448 62.3294C100.767 62.3468 99.9642 62.3989 99.6325 62.4684ZM7.30019 63.0937C7.16056 63.2847 7.16056 63.3716 7.3351 63.4237C7.43982 63.4584 7.80636 63.5453 8.12054 63.5974C8.41726 63.6495 9.0456 63.9274 9.51687 64.2053C9.97067 64.4832 10.7736 65.2301 11.2972 65.838C11.8208 66.4633 12.519 67.3839 12.8157 67.9049C13.1299 68.4086 13.5488 69.2424 13.7408 69.7287L14.0898 70.6493C13.3393 70.4756 12.7459 70.1629 12.2572 69.8503C11.751 69.5203 11.2623 69.0166 11.0877 68.6518C10.8783 68.2523 10.6514 68.0439 10.4245 68.0439C10.1452 68.0439 10.0929 68.1307 10.1801 68.426C10.2499 68.6518 10.3896 69.0339 10.4943 69.2771C10.599 69.5203 10.9307 69.9198 11.2099 70.1629C11.5066 70.3887 12.0128 70.7361 12.3444 70.9272C12.6761 71.1182 13.3219 71.4135 13.7931 71.5699C14.2469 71.7262 14.7007 71.8304 14.788 71.7783C14.8927 71.7262 14.9626 71.5177 14.9626 71.2919C14.9626 71.0835 14.8055 70.3714 14.596 69.694C14.3691 68.9645 13.828 67.8876 13.2346 67.0017C12.6935 66.1854 11.8208 65.0911 11.2972 64.57C10.7561 64.049 9.97067 63.441 9.55177 63.2326C9.11542 63.0068 8.48707 62.8331 8.13799 62.8331C7.77145 62.8331 7.42237 62.9373 7.30019 63.0937ZM86.6118 69.0339C86.5419 69.2945 86.4372 69.7113 86.3499 69.9545C86.2627 70.1977 86.1405 70.6667 86.0881 70.9967C86.0183 71.3267 85.739 72.2646 85.4772 73.081C85.2154 73.8973 84.7442 75.2174 84.4474 76.0337C84.1333 76.8501 83.6271 78.0138 83.2955 78.6391C82.9813 79.2644 82.3529 80.3934 81.8991 81.1577C81.4628 81.9219 80.9741 82.9815 80.8344 83.5025C80.6424 84.1452 80.6075 84.5447 80.7123 84.7184C80.817 84.8573 81.0439 85.0658 81.2184 85.1526C81.4104 85.2394 81.8293 85.5 82.161 85.7084C82.4926 85.9169 82.9813 86.16 83.2606 86.2642C83.6271 86.4206 83.7667 86.4032 83.9064 86.1948C84.046 85.9863 83.8191 85.7779 82.7718 85.1005C81.8293 84.5273 81.4628 84.1799 81.4628 83.9368C81.4628 83.7457 81.7421 83.0509 82.0911 82.3735C82.4228 81.6961 82.8242 81.0361 82.9464 80.8971C83.086 80.7582 83.4351 80.2024 83.7318 79.6813C84.0285 79.1602 84.3951 78.4481 84.5347 78.1181C84.6918 77.788 85.0234 77.0412 85.2852 76.468C85.5645 75.8948 86.0183 74.6442 86.315 73.6889C86.6118 72.7336 86.9434 71.4483 87.0656 70.823C87.1703 70.1977 87.275 69.4682 87.2925 69.1729C87.3099 68.8255 87.2227 68.6344 87.0132 68.5997C86.8212 68.565 86.699 68.7039 86.6118 69.0339ZM129.689 72.9941C128.851 73.4284 127.734 74.1231 127.21 74.5226C126.686 74.9221 125.953 75.6343 125.569 76.1206C125.185 76.5896 124.732 77.3017 124.557 77.6838C124.382 78.066 124.225 78.587 124.225 78.8476C124.225 79.2471 124.348 79.386 124.889 79.6118C125.412 79.8202 125.692 79.8376 126.372 79.6987C127.036 79.5423 127.385 79.3165 128.153 78.5002C128.694 77.9617 129.113 77.3712 129.113 77.1975C129.113 77.0412 128.973 76.8501 128.816 76.798C128.589 76.7111 128.397 76.8154 128.153 77.1801C127.961 77.4407 127.716 77.7359 127.629 77.8054C127.542 77.8923 127.262 78.1007 127.018 78.2917C126.774 78.4828 126.337 78.6912 126.058 78.7434C125.779 78.7955 125.447 78.7607 125.36 78.6565C125.244 78.5407 125.284 78.2918 125.482 77.9096C125.639 77.597 126.163 76.9196 126.617 76.3985C127.07 75.8774 128.118 75.009 128.938 74.4879C129.758 73.9668 130.771 73.4457 131.207 73.3241C131.643 73.2199 132.08 72.9941 132.167 72.8378C132.289 72.6294 132.272 72.5078 132.08 72.3862C131.94 72.2994 131.678 72.2125 131.521 72.2125C131.364 72.2125 130.544 72.5599 129.689 72.9941ZM52.1224 77.927C51.5115 78.5002 50.7086 79.0734 50.3421 79.2297C49.993 79.386 49.7312 79.6118 49.7486 79.716C49.7835 79.8376 50.0105 79.9071 50.2374 79.8724C50.4643 79.855 50.8482 79.716 51.0926 79.5944C51.337 79.4729 52.0177 78.9344 52.6111 78.396C53.222 77.8575 53.7107 77.3017 53.7107 77.1627C53.7107 77.0238 53.606 76.9022 53.4838 76.9022C53.3442 76.9022 52.7333 77.3712 52.1224 77.927ZM80.1188 93.5246C80.049 93.733 80.1537 93.9414 80.4679 94.1846C80.7123 94.3757 81.4104 94.7057 82.0213 94.9141C82.6322 95.1399 83.7493 95.4352 84.5173 95.5742C85.2852 95.7131 86.8561 95.8347 88.0081 95.8521C89.6139 95.8868 90.4866 95.8 91.7607 95.522C92.9301 95.2615 93.5585 95.0183 93.8901 94.7057C94.1694 94.4625 94.3788 94.1846 94.3788 94.0978C94.3788 94.0109 94.2741 93.872 94.1345 93.8199C93.9949 93.7678 93.4712 93.8372 92.9476 93.9762C92.4414 94.1151 91.2371 94.3236 90.2771 94.4452C89.1601 94.5841 87.7812 94.6362 86.4372 94.5494C85.2852 94.4973 83.6446 94.2888 82.7718 94.0978C81.8991 93.9067 81.0264 93.6288 80.7995 93.4898C80.5901 93.3509 80.3806 93.2293 80.3283 93.2293C80.2759 93.2293 80.1886 93.3683 80.1188 93.5246Z" stroke="#C7ACBE" stroke-opacity="0.74" stroke-width="0.753247"/>
</svg>
