<svg width="791" height="334" viewBox="0 0 791 334" fill="none" xmlns="http://www.w3.org/2000/svg">
<path d="M8.11718 314.362C8.11718 314.362 8.40579 312.563 8.87807 309.827C9.36347 307.054 10.085 303.418 10.8328 299.795C11.6068 296.148 12.4333 292.55 13.063 289.839C13.7189 287.078 14.165 285.316 14.165 285.316C14.165 285.316 16.6838 286.965 19.1501 288.564C21.669 290.151 24.2009 291.775 24.2009 291.775C24.2009 291.775 25.3422 291.813 27.3494 291.85C29.3697 291.838 32.2034 291.875 35.5881 291.937C37.2935 291.975 39.1564 292.037 41.1373 292.087C43.0658 292.162 45.1123 292.187 47.2638 292.275C49.4022 292.337 51.5799 292.425 53.8364 292.5C56.0535 292.625 58.3493 292.7 60.5795 292.774C62.8621 292.924 65.1579 293.012 67.3882 293.137C69.6184 293.262 71.783 293.399 73.9214 293.499C76.0204 293.674 78.0931 293.761 80.0216 293.911C81.937 294.036 83.813 294.161 85.5053 294.299C88.8637 294.536 91.6974 294.748 93.6915 294.911C95.6724 295.086 96.7875 295.173 96.7875 295.173C96.7875 295.173 93.9801 293.911 89.7296 292C87.6568 291.013 85.2036 289.914 82.606 288.652C79.956 287.428 77.1617 286.078 74.4199 284.754C71.6256 283.392 68.8181 282.068 66.2599 280.769C63.6362 279.495 61.2354 278.308 59.1495 277.271C55.0433 275.135 52.249 273.735 52.249 273.735C52.249 273.735 50.8453 273.635 48.7463 273.436C46.5948 273.298 43.748 273.036 40.9143 272.811C38.1069 272.599 35.247 272.461 33.0692 272.274C30.9702 272.111 29.5271 272.024 29.5271 272.024C29.5271 272.024 26.536 272.286 23.5187 272.574C20.4751 272.774 17.4447 273.073 17.4447 273.073C17.4447 273.073 17.9826 271.312 18.7959 268.651C19.6093 265.952 20.7375 262.417 21.9051 258.907C23.0858 255.334 24.3321 251.836 25.2898 249.225C26.2606 246.614 26.8903 244.815 26.8903 244.815C26.8903 244.815 29.1992 246.726 31.5081 248.637C33.817 250.499 36.1259 252.323 36.1259 252.323C36.1259 252.323 37.2541 252.46 39.2351 252.723C41.2029 252.935 44.0628 253.31 47.4606 253.722C49.1398 253.947 50.9634 254.197 52.8918 254.447C54.8465 254.734 56.8668 254.971 58.9658 255.284C61.0911 255.608 63.282 255.896 65.499 256.221C67.703 256.558 69.9332 256.895 72.2028 257.22C74.4461 257.582 76.6763 257.932 78.854 258.307C81.058 258.657 83.2095 259.006 85.3348 259.356C87.4206 259.731 89.4541 260.056 91.3694 260.393C93.2454 260.743 95.0427 261.068 96.7219 261.368C100.054 261.992 102.848 262.492 104.816 262.854C106.718 263.229 107.847 263.454 107.847 263.454C107.847 263.454 106.902 262.879 105.223 261.892C103.478 260.905 101.09 259.469 98.2568 257.745C96.8006 256.883 95.2395 255.921 93.639 254.921C91.9991 253.909 90.2412 252.873 88.4833 251.736C86.686 250.661 84.8494 249.474 82.9865 248.338C81.163 247.138 79.2607 245.927 77.3847 244.74C75.4956 243.515 73.6065 242.341 71.783 241.092C69.907 239.88 68.1359 238.706 66.3649 237.606C64.5938 236.382 62.9146 235.245 61.301 234.183C59.7136 233.134 58.2312 232.097 56.8012 231.16C54.0332 229.261 51.7636 227.687 50.1106 226.538C48.497 225.426 47.5918 224.776 47.5918 224.776C47.5918 224.776 44.7975 224.164 42.0163 223.427C39.2482 222.752 36.4933 222.078 36.4933 222.078L41.216 212.171C41.216 212.171 43.0658 214.782 44.8893 217.393C46.7784 220.004 48.6676 222.565 48.6676 222.565C48.6676 222.565 49.5334 223.215 51.1077 224.352C52.6688 225.438 54.9121 226.975 57.6277 228.899C58.9659 229.823 60.4352 230.823 62.0094 231.86C63.5574 232.909 65.2104 234.071 66.9159 235.17C68.6213 236.357 70.3792 237.531 72.1897 238.693C74.0001 239.893 75.8105 241.104 77.6602 242.291C79.4706 243.503 81.3204 244.665 83.1177 245.852C84.9412 246.988 86.7385 248.15 88.4833 249.25C90.215 250.349 91.8942 251.398 93.4684 252.373C95.082 253.385 96.5513 254.334 97.9813 255.171C100.789 256.895 103.111 258.332 104.711 259.306C106.377 260.293 107.335 260.843 107.335 260.843L114.682 261.455C114.682 261.455 114.183 262.592 113.475 264.341C112.753 266.077 111.782 268.376 110.851 270.712C109.906 273.061 109.093 275.397 108.424 277.158C107.781 278.92 107.388 280.094 107.388 280.094C107.388 280.094 104.291 279.682 99.7261 279.032C97.4172 278.72 94.741 278.358 91.881 277.971C88.9555 277.633 85.8988 277.233 82.8553 276.871C79.7723 276.496 76.6894 276.147 73.7902 275.834C70.9171 275.509 68.1884 275.272 65.8401 274.972C61.2223 274.56 58.1131 274.235 58.1131 274.235C58.1131 274.235 60.5139 275.472 64.0429 277.258C65.8401 278.133 67.8867 279.17 70.0775 280.294C72.3077 281.381 74.6691 282.555 77.0699 283.73C79.4313 284.842 81.832 286.016 84.0491 287.09C86.3187 288.127 88.3914 289.114 90.1887 289.989C93.7964 291.625 96.184 292.712 96.184 292.712L103.321 292.575C103.321 292.575 102.862 293.986 102.271 296.048C101.668 298.134 100.92 300.92 100.172 303.718C99.5031 306.516 98.7553 309.365 98.3093 311.464C97.8501 313.562 97.5615 314.974 97.5615 314.974L90.9496 311.564C90.9496 311.564 89.8739 311.514 87.8798 311.464C85.9907 311.401 83.2095 311.376 79.9167 311.276C78.2637 311.239 76.4533 311.226 74.5511 311.189C72.6357 311.189 70.6416 311.164 68.5688 311.126C66.4961 311.164 64.3315 311.114 62.1537 311.139C59.976 311.114 57.7589 311.139 55.5025 311.126C53.3247 311.151 51.0814 311.214 48.9037 311.226C46.7391 311.239 44.5745 311.314 42.5017 311.314C40.4158 311.364 38.3824 311.414 36.4933 311.476C34.5779 311.526 32.7544 311.576 31.1014 311.651C27.7692 311.713 24.9618 311.863 23.0596 311.901C21.0786 312.026 20.0029 312.026 20.0029 312.026C20.0029 312.026 16.9986 312.613 14.0469 313.175C11.082 313.75 8.11718 314.362 8.11718 314.362ZM71.0877 207.599C73.0949 204.026 75.4825 201.215 78.2243 199.229C81.0055 197.242 84.1147 195.98 87.5781 195.543C89.3098 195.331 91.1202 195.343 92.983 195.518C94.8328 195.693 96.6957 196.093 98.6766 196.643C100.658 197.192 102.704 197.979 104.764 198.941C106.902 199.878 109.041 201.052 111.297 202.339C111.297 202.339 110.313 203.776 108.988 205.937C107.624 208.111 105.826 211.009 104.016 213.97C102.284 216.868 100.579 219.854 99.3719 222.09C98.1387 224.327 97.3254 225.826 97.3254 225.826C99.1882 226.725 101.51 227.712 104.278 228.687C107.086 229.623 109.893 230.273 112.674 230.635C115.469 230.973 118.053 230.873 120.441 230.311C122.894 229.711 124.718 228.324 125.977 226.125C126.803 224.839 127.302 223.277 127.564 221.453C127.879 219.542 127.604 217.368 126.856 214.894L127.774 213.458C129.296 215.494 130.267 217.643 130.726 219.867C131.12 222.078 131.211 224.202 131.028 226.288C130.805 228.262 130.346 230.198 129.624 232.06C128.968 233.859 128.299 235.445 127.525 236.782C126.266 238.981 124.573 240.867 122.304 242.466C120.073 243.99 117.279 245.077 113.999 245.727C112.307 246.051 110.615 246.189 108.699 246.239C106.876 246.264 104.895 246.164 102.796 245.927C100.618 245.664 98.4405 245.177 96.1316 244.49C93.7833 243.84 91.3169 242.966 88.8375 241.891C86.3842 240.892 84.2196 239.818 82.1862 238.731C80.2184 237.656 78.4605 236.432 76.8206 235.233C75.2332 234.021 73.8426 232.709 72.675 231.41C71.5075 230.073 70.5498 228.687 69.7758 227.262C68.254 224.339 67.5981 221.241 67.7686 217.968C68.0178 214.62 69.0936 211.172 71.0877 207.599ZM99.9623 216.931C96.9318 215.344 93.9276 213.883 90.9627 212.371C87.9716 210.922 85.2692 209.735 82.8159 208.848C80.2971 207.836 78.185 207.274 76.3221 207.161C74.5511 206.899 73.331 207.299 72.78 208.411C72.1897 209.385 72.5045 210.597 73.6327 211.946C74.8397 213.208 76.5845 214.582 78.7753 216.069C81.0186 217.518 83.6162 219.042 86.5679 220.554C89.5459 222.015 92.537 223.465 95.5281 224.926L99.9623 216.931ZM85.0986 157.703C87.5387 159.377 89.4147 161.275 90.6216 163.299C91.9729 165.311 92.7076 167.334 92.9962 169.458C93.2979 171.482 93.1273 173.493 92.5632 175.58C91.9991 177.516 91.107 179.365 89.9395 181.126L88.339 180.127C89.5459 178.391 90.215 176.379 90.2674 174.093C90.333 171.794 89.7558 169.533 88.6538 167.26C88.3652 168.484 87.7355 169.758 86.7647 171.207C84.9805 173.731 82.8553 175.317 80.3496 175.979C77.8439 176.567 75.43 176.167 73.0293 174.705C70.576 173.256 69.1854 171.27 68.8312 168.871C68.4901 166.373 69.2379 163.737 71.0745 161.051C72.9899 158.465 75.2595 156.866 77.8045 156.303C80.3627 155.679 82.7635 156.116 85.0986 157.703ZM149.722 201.615C149.722 201.615 147.925 199.366 146.154 197.105C144.383 194.856 142.625 192.557 142.625 192.557C142.625 192.557 141.116 191.533 138.925 189.984C136.761 188.435 133.848 186.398 130.897 184.325C127.997 182.263 125.059 180.227 122.868 178.678C120.651 177.129 119.234 176.092 119.234 176.092L109.854 173.269C109.854 173.269 110.024 171.707 110.274 169.321C110.641 166.96 111.074 163.799 111.546 160.613C112.018 157.415 112.596 154.242 113.042 151.856C113.475 149.445 113.803 147.858 113.803 147.858L121.753 154.13C120.782 151.131 120.415 148.021 120.638 144.835C120.9 141.474 122.068 138.676 124.167 136.49C125.229 135.365 126.266 134.478 127.302 133.854C127.302 133.854 127.919 135.203 128.811 137.139C129.755 139.088 130.988 141.712 132.274 144.298C133.52 146.871 134.806 149.457 135.79 151.344C136.774 153.268 137.456 154.529 137.456 154.529C134.281 152.093 131.723 150.669 129.781 150.307C127.84 149.87 126.357 150.269 125.15 151.519C124.481 152.331 123.917 153.617 123.379 155.416C123.379 155.416 125.282 156.916 128.089 159.139C129.506 160.264 131.159 161.575 132.917 162.962C134.727 164.361 136.603 165.86 138.479 167.334C140.368 168.834 142.257 170.308 144.015 171.719C145.786 173.106 147.453 174.405 148.856 175.53C151.69 177.753 153.579 179.24 153.579 179.24C153.579 179.24 156.321 180.314 159.05 181.426C161.791 182.513 164.481 183.625 164.481 183.625C164.481 183.625 163.536 184.724 162.08 186.349C160.65 188.01 158.787 190.246 156.846 192.47C155.075 194.731 153.277 197.017 151.847 198.716C150.575 200.44 149.722 201.615 149.722 201.615ZM142.415 117.738C145.472 114.977 148.673 113.041 151.926 111.941C155.219 110.867 158.577 110.68 162.001 111.242C163.733 111.604 165.412 112.116 167.144 112.841C168.823 113.578 170.515 114.503 172.195 115.627C173.874 116.764 175.527 118.1 177.232 119.625C178.898 121.149 180.591 122.898 182.27 124.809C182.27 124.809 180.919 125.896 178.885 127.532C176.878 129.182 174.189 131.393 171.565 133.666C168.954 135.94 166.37 138.239 164.415 139.975C162.539 141.737 161.28 142.924 161.28 142.924C162.736 144.335 164.586 145.922 166.934 147.708C169.269 149.445 171.722 150.894 174.307 152.093C176.799 153.243 179.226 153.892 181.758 154.105C184.212 154.23 186.415 153.48 188.41 151.768C189.538 150.769 190.535 149.445 191.388 147.821C192.332 146.084 192.804 143.948 192.896 141.374L194.261 140.288C195.008 142.661 195.271 145.01 194.93 147.259C194.602 149.47 193.985 151.519 193.106 153.443C192.188 155.254 191.138 156.928 189.826 158.49C188.659 160.001 187.491 161.313 186.271 162.337C184.435 164.074 182.231 165.361 179.541 166.21C176.878 166.972 173.874 167.172 170.515 166.81C168.876 166.572 167.144 166.223 165.36 165.71C163.576 165.173 161.726 164.511 159.824 163.649C157.921 162.75 155.954 161.638 153.946 160.314C151.939 158.964 149.958 157.415 147.859 155.654C145.918 153.942 144.212 152.293 142.664 150.669C141.155 148.995 139.817 147.371 138.728 145.734C137.613 144.085 136.695 142.461 136.013 140.862C135.37 139.251 134.911 137.652 134.688 136.04C134.15 132.817 134.57 129.669 135.829 126.608C137.102 123.547 139.319 120.574 142.415 117.738ZM166.724 135.291C164.376 132.892 162.028 130.543 159.679 128.257C157.305 125.971 155.088 124.084 153.08 122.485C151.034 120.749 149.21 119.587 147.518 118.887C145.878 118.138 144.593 118.213 143.674 119.025C142.822 119.837 142.717 121.024 143.386 122.66C144.12 124.234 145.275 126.033 146.902 128.12C148.502 130.181 150.496 132.367 152.766 134.691C155.14 136.99 157.502 139.276 159.863 141.549L166.724 135.291ZM193.093 104.383C191.033 101.735 189.236 99.0739 187.701 96.4254C186.114 93.777 184.828 91.1285 183.792 88.48C182.742 85.7816 181.968 83.1456 181.47 80.6096C180.984 78.0736 180.735 75.5625 180.761 73.1514C180.84 70.7028 181.168 68.3292 181.811 66.0805C182.44 63.8318 183.333 61.6955 184.54 59.5967C185.773 57.5479 187.308 55.599 189.079 53.8501C190.876 52.1635 192.949 50.6394 195.244 49.3152C197.711 47.8785 200.269 46.8666 202.84 46.2919C205.412 45.7048 207.996 45.4674 210.62 45.7423C213.23 45.9421 215.894 46.6417 218.504 47.7661C221.141 48.8904 223.804 50.502 226.441 52.5258C226.441 52.5258 225.405 53.5128 223.87 54.9994C222.322 56.4361 220.328 58.4349 218.321 60.4462C216.353 62.4576 214.398 64.4314 212.955 65.9431C211.512 67.5046 210.554 68.5166 210.554 68.5166L207.209 60.5087C206.264 58.9346 205.11 57.5479 203.68 56.3486C202.263 55.0868 200.807 54.2123 199.364 53.6627C197.894 52.9631 196.543 52.6258 195.297 52.6258C193.959 52.5758 193.001 52.8506 192.267 53.5128C190.705 55.2243 190.758 58.5224 192.476 63.4945C193.355 65.9306 194.562 68.6165 196.123 71.5273C196.95 73.014 197.829 74.5256 198.813 76.1247C199.757 77.6738 200.807 79.3103 201.988 81.0219C203.129 82.7458 204.323 84.4199 205.49 86.0065C206.658 87.5806 207.786 89.0422 208.967 90.4914C210.147 91.953 211.289 93.3023 212.417 94.5765C213.572 95.8508 214.687 97.0751 215.828 98.2119C218.098 100.448 220.393 102.459 222.532 104.208C224.657 105.932 226.73 107.419 228.724 108.668C230.652 109.868 232.502 110.83 234.286 111.554C236.031 112.316 237.723 112.816 239.284 113.078C242.472 113.616 245.162 113.278 247.353 112.154C248.061 111.742 248.743 111.117 249.36 110.317C249.871 109.393 250.304 108.443 250.659 107.469C251.026 106.382 251.262 105.295 251.564 104.296C251.839 103.172 252.049 102.197 252.259 101.398C252.259 101.398 250.291 100.186 247.353 98.3868C245.844 97.4998 244.086 96.4629 242.249 95.3636C240.373 94.3017 238.366 93.1523 236.333 92.003C234.273 90.8912 232.227 89.7668 230.298 88.7174C228.383 87.7055 226.546 86.7435 224.985 85.944C221.85 84.3449 219.737 83.2955 219.737 83.2955C219.737 83.2955 220.918 82.5959 222.728 81.634C224.513 80.6596 226.94 79.3603 229.367 78.0486C231.767 76.7868 234.234 75.55 236.07 74.6256C237.894 73.7386 239.166 73.1389 239.166 73.1389C239.166 73.1389 240.085 74.8504 241.462 77.4239C242.118 78.7232 242.932 80.2098 243.771 81.8339C244.676 83.433 245.555 85.1445 246.513 86.881C247.392 88.5925 248.323 90.2915 249.137 91.9156C250.055 93.5271 250.868 95.0262 251.485 96.313C252.889 98.8865 253.82 100.636 253.82 100.636C253.755 103.147 253.479 105.483 252.915 107.606C252.416 109.78 251.603 111.729 250.619 113.466C249.622 115.177 248.468 116.776 247.038 118.138C245.647 119.55 244.02 120.774 242.157 121.811C240.832 122.498 239.455 123.123 237.828 123.535C236.228 123.985 234.47 124.272 232.568 124.472C230.692 124.647 228.645 124.597 226.638 124.397C224.591 124.184 222.453 123.772 220.236 123.172C218.006 122.56 215.789 121.748 213.519 120.711C211.21 119.675 208.862 118.413 206.514 116.926C204.152 115.464 201.83 113.665 199.6 111.617C197.343 109.505 195.205 107.144 193.093 104.383ZM257.664 46.192C261.573 44.6679 265.22 43.9683 268.763 44.0932C272.226 44.2556 275.453 45.2051 278.418 46.9665C279.835 47.8535 281.252 48.9154 282.537 50.1522C283.862 51.4514 285.095 52.9131 286.224 54.5372C287.339 56.1612 288.402 57.9977 289.399 60.009C290.369 62.0203 291.261 64.2066 292.114 66.5802C292.114 66.5802 290.435 67.1174 287.903 67.9294C285.41 68.7789 282.078 69.9283 278.772 71.1151C275.466 72.3269 272.173 73.5762 269.707 74.5381C267.228 75.525 265.627 76.1747 265.627 76.1747C266.401 77.9861 267.608 80.1474 269.038 82.5585C270.586 85.0195 272.331 87.2308 274.22 89.2046C276.083 91.1285 278.195 92.6526 280.425 93.677C282.682 94.689 285.069 94.7389 287.536 93.8519C288.979 93.3023 290.382 92.4153 291.839 91.1535C293.347 89.8917 294.607 88.0553 295.669 85.6817L297.349 85.132C297.152 87.618 296.496 89.8667 295.328 91.8656C294.147 93.8144 292.757 95.4885 291.222 96.9501C289.766 98.3868 288.126 99.5986 286.329 100.598C284.61 101.585 283.023 102.385 281.553 102.959C279.14 103.871 276.581 104.333 273.761 104.208C270.98 103.984 268.067 103.097 265.142 101.61C263.686 100.86 262.203 99.8984 260.76 98.7991C259.304 97.7247 257.808 96.4379 256.378 94.9888C254.935 93.4772 253.518 91.7657 252.167 89.8418C250.803 87.8929 249.557 85.7566 248.271 83.3705C247.156 81.1593 246.159 79.0105 245.372 76.9367C244.558 74.8629 243.955 72.9016 243.522 70.9777C243.155 69.0663 242.945 67.2673 242.905 65.5058C242.892 63.7568 243.089 62.1328 243.483 60.5712C244.243 57.3855 245.778 54.5871 248.166 52.1635C250.514 49.7274 253.702 47.7286 257.664 46.192ZM273.577 70.9277C272.357 67.9169 271.045 64.8687 269.733 61.9704C268.408 59.0096 267.11 56.4611 265.811 54.2873C264.538 51.9637 263.279 50.2521 262.006 49.0403C260.76 47.7411 259.553 47.3413 258.386 47.8535C257.284 48.2658 256.719 49.3277 256.719 51.1141C256.746 52.8007 257.179 54.8995 257.887 57.3855C258.595 59.8841 259.606 62.595 260.826 65.5808C262.19 68.5291 263.515 71.4649 264.827 74.4132L273.577 70.9277ZM284.781 39.2085C284.781 39.2085 285.817 37.7219 287.444 35.5232C289.084 33.3244 291.301 30.4011 293.597 27.4903C295.892 24.6045 298.254 21.7186 300.051 19.5699C301.861 17.4336 303.095 16.0094 303.095 16.0094C303.095 16.0094 304.105 19.7698 305.128 23.5551C306.138 27.2904 307.161 31.0882 307.161 31.0882C307.161 31.0882 310.297 30.3511 313.445 29.6266C316.581 28.902 319.742 28.2524 319.742 28.2524L320.149 30.0013C320.149 30.0013 317.001 30.6884 313.865 31.3755C310.756 32.1126 307.634 32.8372 307.634 32.8372C307.634 32.8372 308.303 35.2983 309.3 39.0211C309.798 40.8826 310.376 43.0313 310.979 45.2925C311.635 47.6536 312.278 50.1147 312.973 52.6008C313.629 55.0743 314.298 57.5229 314.915 59.8091C315.544 62.1577 316.135 64.319 316.62 66.1305C317.63 69.8658 318.286 72.3144 318.286 72.3144C318.758 74.0384 319.323 75.4751 320.031 76.5994C320.779 77.7612 321.487 78.6482 322.222 79.2854C323.035 79.885 323.849 80.3597 324.623 80.5846C325.41 80.822 326.118 80.8719 326.735 80.722C327.561 80.5346 328.178 80.1224 328.558 79.4478C329.044 78.6982 329.149 77.7737 328.886 76.6868L330.618 76.3246C331.025 78.0985 331.011 79.7851 330.592 81.3342C330.251 82.8833 329.542 84.295 328.506 85.4943C327.548 86.7186 326.315 87.743 324.806 88.5925C323.298 89.417 321.645 90.1041 319.795 90.5663C317.355 91.2035 315.177 91.2409 313.249 90.9161C311.294 90.4914 309.497 89.6544 307.909 88.4301C306.361 87.1433 304.971 85.5567 303.698 83.6204C302.596 81.634 301.638 79.4727 300.851 77.1116C300.851 77.1116 299.999 74.663 298.805 70.9902C298.214 69.2162 297.493 67.0549 296.745 64.8187C295.984 62.5325 295.184 60.1089 294.371 57.6729C293.57 55.2493 292.704 52.7757 291.996 50.5395C291.209 48.2533 290.514 46.0795 289.923 44.3056C288.703 40.6577 287.903 38.2341 287.903 38.2341L284.781 39.2085ZM320.32 29.9264C320.32 29.9264 321.54 28.5772 323.389 26.5658C325.252 24.5295 327.797 21.8436 330.356 19.1451C332.966 16.4966 335.616 13.8607 337.61 11.8743C339.644 9.91296 341.034 8.6262 341.034 8.6262C341.034 8.6262 341.651 12.4865 342.267 16.3342C342.884 20.1945 343.501 24.0423 343.501 24.0423C343.501 24.0423 346.688 23.5801 349.903 23.1678C353.09 22.7305 356.292 22.3433 356.292 22.3433L356.528 24.1547C356.528 24.1547 353.314 24.517 350.139 24.9168C346.938 25.354 343.763 25.7913 343.763 25.7913C343.763 25.7913 344.196 28.3398 344.799 32.1126C345.062 33.974 345.442 36.1728 345.81 38.5589C346.19 40.92 346.61 43.4436 347.017 45.9671C347.423 48.4532 347.83 51.0142 348.197 53.3503C348.591 55.7365 348.932 57.9102 349.247 59.8341C349.85 63.5819 350.257 66.1305 350.257 66.1305C350.532 67.8545 350.965 69.3411 351.516 70.4904C352.159 71.7522 352.749 72.6767 353.445 73.3763C354.193 74.1383 354.927 74.5756 355.701 74.9129C356.462 75.2377 357.144 75.3626 357.748 75.2627C358.614 75.1752 359.27 74.8129 359.729 74.1633C360.24 73.4512 360.476 72.5643 360.332 71.4649L362.09 71.2275C362.313 73.039 362.143 74.7505 361.539 76.2621C361.027 77.7737 360.162 79.0355 359.02 80.1973C357.945 81.3092 356.606 82.2087 355.019 82.8958C353.432 83.5454 351.7 84.0826 349.811 84.3699C347.358 84.8072 345.18 84.6947 343.291 84.145C341.375 83.5079 339.683 82.521 338.201 81.1093C336.81 79.7226 335.603 78.0111 334.593 75.9998C333.662 73.8635 332.888 71.6023 332.376 69.1662C332.376 69.1662 331.838 66.7051 331.012 62.9448C330.605 61.0959 330.093 58.8971 329.608 56.586C329.083 54.2124 328.532 51.7513 327.981 49.2402C327.43 46.7667 326.879 44.2681 326.354 41.882C325.856 39.5958 325.37 37.4096 324.951 35.5107C324.137 31.8003 323.573 29.2893 323.573 29.2893L320.32 29.9264ZM366.734 70.7653C366.734 70.7653 366.564 69.0413 366.262 66.4303C365.999 63.8693 365.606 60.4213 365.252 56.9857C364.871 53.5377 364.504 50.0897 364.215 47.5037C363.94 44.9052 363.756 43.1562 363.756 43.1562L359.637 34.6861C359.637 34.6861 360.975 33.7617 362.995 32.3625C365.055 30.9883 367.81 29.1268 370.591 27.3654C373.372 25.5914 376.219 23.8049 378.41 22.5307C380.561 21.2439 382.031 20.3819 382.031 20.3819C382.031 20.3819 382.175 23.4426 382.398 28.0275C382.516 30.3511 382.634 33.0371 382.792 35.9104C382.936 38.7963 383.093 41.8695 383.251 44.9427C383.395 47.966 383.553 51.0642 383.671 53.9375C383.815 56.7983 383.972 59.5218 384.064 61.808C384.313 66.4303 384.458 69.491 384.458 69.491C384.458 69.491 385.481 72.152 386.478 74.8129C387.436 77.4364 388.42 80.0724 388.42 80.0724C388.42 80.0724 386.924 80.1723 384.681 80.2598C382.437 80.4097 379.407 80.5471 376.442 80.7845C373.438 81.0094 370.46 81.2342 368.23 81.4716C365.986 81.634 364.504 81.8589 364.504 81.8589C364.504 81.8589 365.029 79.023 365.593 76.3121C366.157 73.5262 366.734 70.7653 366.734 70.7653ZM359.493 10.4252C359.204 7.85165 360.03 5.503 362.077 3.46668C364.11 1.44285 366.721 0.306005 369.935 0.0311647C373.136 -0.168719 375.904 0.593343 378.226 2.30485C380.496 4.00386 381.755 6.21509 381.86 8.81359C382.005 11.487 381.034 13.7732 379 15.6971C376.98 17.671 374.474 18.7453 371.418 18.9452C368.374 19.1701 365.698 18.4455 363.428 16.809C361.106 15.2099 359.781 13.0861 359.493 10.4252ZM391.07 79.9974C391.07 79.9974 391.87 77.349 392.696 74.6256C393.483 71.9021 394.349 69.1912 394.349 69.1912C394.349 69.1912 394.31 67.4672 394.271 64.8437C394.218 62.2702 394.166 58.7847 394.1 55.3492C394.048 51.8762 393.982 48.4157 393.943 45.8172C393.903 43.1812 393.851 41.4822 393.851 41.4822L390.532 32.6748C390.532 32.6748 391.962 31.8378 394.087 30.6135C396.278 29.4142 399.177 27.8151 402.116 26.241C405.081 24.7419 408.072 23.1803 410.341 22.0934C412.598 20.9941 414.146 20.232 414.146 20.232L413.726 29.8264C415.654 27.203 418.029 24.9418 420.862 23.0928C423.801 21.1315 426.871 20.3319 429.993 20.5818C432.197 20.7317 434.152 21.3438 435.857 22.3558C437.628 23.3177 439.045 24.8668 440.187 26.9406C441.328 28.8645 442.049 31.4755 442.364 34.6362C442.509 36.1978 442.522 37.8968 442.496 39.7707C442.417 41.6571 442.259 43.7559 441.971 45.9671C441.971 45.9671 441.774 47.5162 441.446 49.9273C441.157 52.301 440.724 55.4616 440.318 58.6223C439.924 61.7955 439.504 64.9686 439.19 67.3548C438.888 69.7284 438.691 71.3275 438.691 71.3275C438.691 71.3275 439.216 74.1383 439.727 76.8992C440.173 79.7226 440.685 82.546 440.685 82.546C440.685 82.546 439.19 82.3961 436.946 82.0962C434.729 81.8714 431.751 81.5216 428.76 81.2467C425.756 80.9594 422.791 80.722 420.548 80.6346C418.304 80.4972 416.796 80.4097 416.796 80.4097C416.796 80.4097 417.819 77.7612 418.842 75.0878C419.918 72.4643 420.981 69.8158 420.981 69.8158C420.981 69.8158 421.099 68.2667 421.269 65.8556C421.427 63.5195 421.65 60.3713 421.873 57.2106C422.096 54.0125 422.319 50.8768 422.489 48.5281C422.66 46.1295 422.765 44.5554 422.765 44.5554C422.935 42.2318 422.948 40.2079 422.83 38.4714C422.699 36.8224 422.437 35.4732 422.017 34.4238C421.269 32.4125 419.918 31.3256 417.95 31.2256C416.717 31.1757 415.274 31.463 413.621 32.1126C413.621 32.1126 413.555 34.4238 413.385 37.8968C413.332 39.6583 413.24 41.6946 413.162 43.9058C413.057 46.092 412.978 48.4282 412.86 50.7019C412.755 53.038 412.676 55.4117 412.598 57.5979C412.48 59.7591 412.427 61.8205 412.335 63.5569C412.204 67.0424 412.099 69.3786 412.099 69.3786C412.099 69.3786 412.873 72.127 413.634 74.8379C414.369 77.5863 415.077 80.2973 415.077 80.2973C415.077 80.2973 413.582 80.2598 411.338 80.1474C409.095 80.0974 406.104 79.985 403.1 79.9725C400.095 79.96 397.091 79.9225 394.835 79.9475C392.605 79.985 391.07 79.9974 391.07 79.9974ZM439.098 101.373C439.321 99.7735 439.819 98.3743 440.567 97.1625C441.42 96.0382 442.417 95.0762 443.571 94.3516C444.713 93.6146 445.946 93.1149 447.271 92.84C448.648 92.5402 450.026 92.5402 451.338 92.7526C449.986 92.1904 448.727 91.5408 447.507 90.7787C446.247 90.0292 445.211 89.1671 444.306 88.1552C443.466 87.1183 442.863 85.944 442.456 84.6323C442.036 83.358 441.944 81.8464 442.181 80.0849C442.679 76.7868 444.109 74.1758 446.549 72.3269C449.107 70.428 452.007 69.7409 455.234 70.2781L456.06 70.403C454.985 69.1662 454.066 67.742 453.305 66.1679C452.518 64.5938 451.915 62.8449 451.443 60.921C451.01 58.9971 450.787 56.9483 450.747 54.7745C450.708 52.6133 450.892 50.3271 451.272 47.9035C451.574 46.0421 451.967 44.3056 452.466 42.644C452.977 40.995 453.594 39.4709 454.316 38.0217C455.746 35.1734 457.543 32.8372 459.707 30.9633C461.872 29.0894 464.325 27.8526 467.041 27.103C469.888 26.3659 472.905 26.341 476.067 26.9531C479.032 27.5777 481.563 28.6396 483.754 30.1887C485.866 31.7628 487.611 33.7867 488.949 36.2977C488.949 36.2977 491.901 35.5481 494.905 34.7986C497.896 34.0865 500.914 33.4244 500.914 33.4244C500.914 33.4244 500.153 35.9729 499.366 38.6089C498.592 41.2074 497.818 43.8059 497.818 43.8059L490.72 41.9694C491.127 43.9683 491.271 46.0671 491.101 48.3532C490.93 50.6519 490.484 53.063 489.776 55.5991C489.264 57.4355 488.648 59.122 487.939 60.6836C487.257 62.3327 486.47 63.8318 485.617 65.1935C483.938 67.9544 482.009 70.1656 479.884 71.8646C477.759 73.5886 475.489 74.788 473.036 75.4251C470.557 76.1372 468.012 76.2246 465.309 75.6625C463.525 75.3127 461.898 74.713 460.455 73.926C458.999 73.1889 457.7 72.177 456.572 70.9777C455.693 71.7272 455.155 72.5767 454.998 73.5137C454.801 74.5506 454.972 75.4001 455.483 76.0122C456.087 76.7118 456.808 77.2865 457.661 77.7737C458.553 78.1485 459.419 78.4733 460.324 78.7357C461.308 78.973 462.121 79.123 462.712 79.2479C465.217 79.7851 467.789 80.6721 470.36 81.8964C472.944 83.0457 475.148 84.5823 476.919 86.4937C478.808 88.3676 480.107 90.5663 480.881 93.0649C481.629 95.6009 481.537 98.4118 480.619 101.46C479.648 104.683 478.113 107.257 476.027 109.056C473.981 111.067 471.698 112.479 469.127 113.441C466.634 114.503 463.997 115.04 461.203 115.202C458.5 115.377 455.942 115.19 453.529 114.74C452.046 114.465 450.393 114.003 448.556 113.341C446.785 112.716 445.185 111.916 443.676 110.855C442.181 109.83 440.934 108.531 439.99 106.944C439.071 105.445 438.77 103.546 439.098 101.373ZM475.634 71.8272C476.867 72.127 477.746 71.8272 478.244 70.9777C478.73 70.1032 479.018 69.3661 479.163 68.8664C479.556 67.3797 479.753 65.8181 479.727 64.1441C479.845 62.545 479.779 60.9085 479.596 59.2969C479.412 57.6104 479.11 55.9988 478.704 54.5621C478.389 52.9756 477.982 51.5639 477.483 50.3396C476.998 49.0653 476.263 47.4912 475.293 45.5674C474.414 43.5685 473.299 41.6196 472 39.7332C470.806 37.8093 469.481 36.1353 468.051 34.6736C466.608 33.237 465.217 32.3875 463.892 32.1501C462.646 31.9377 461.807 32.3 461.374 33.187C460.941 33.9865 460.704 34.6112 460.626 35.0234C460.376 36.4351 460.455 38.2591 460.809 40.6202C461.19 42.9064 461.741 45.355 462.475 47.9785C463.263 50.6144 464.155 53.3379 465.139 56.0613C466.175 58.7847 467.264 61.2708 468.366 63.5195C469.547 65.7432 470.74 67.6296 471.934 69.1912C473.246 70.7028 474.479 71.5898 475.634 71.8272ZM464.063 110.88C467.12 111.604 469.442 111.692 471.042 111.179C472.695 110.68 473.81 109.593 474.361 107.931C474.794 106.395 474.715 105.033 474.138 103.896C473.535 102.822 472.682 101.872 471.541 100.985C470.412 100.198 469.166 99.4987 467.815 98.8865C466.503 98.3493 465.375 97.8371 464.443 97.4374C462.174 96.4754 460.14 95.6759 458.33 94.9638C456.559 94.4141 454.657 93.827 452.597 93.2148C451.797 93.8894 451.154 94.5515 450.655 95.2136C450.236 95.8633 449.934 96.6753 449.776 97.5998C449.422 99.4112 449.658 101.048 450.406 102.472C451.141 103.859 452.203 105.12 453.594 106.157C454.932 107.332 456.52 108.281 458.356 109.081C460.258 109.88 462.161 110.48 464.063 110.88ZM530.261 17.1213C530.261 17.1213 531.809 17.5835 534.183 18.3955C536.492 19.2451 539.588 20.3444 542.697 21.4313C545.754 22.6181 548.824 23.7674 551.133 24.6669C553.402 25.6039 554.924 26.216 554.924 26.216C554.924 26.216 554.74 27.4278 554.36 29.6515C554.006 31.8503 553.481 34.936 552.838 38.7088C552.51 40.5827 552.117 42.6066 551.697 44.7303C551.343 46.8916 550.923 49.1153 550.464 51.4764C550.018 53.8001 549.532 56.2112 549.034 58.6223C548.548 61.0584 548.01 63.5195 547.499 65.993C546.948 68.4666 546.41 70.9527 545.859 73.3763C545.308 75.7874 544.757 78.161 544.219 80.4472C543.681 82.7584 543.143 84.9696 542.632 87.0684C542.094 89.1796 541.595 91.1785 541.097 92.9899C540.192 96.6628 539.405 99.6611 538.827 101.835C538.263 103.921 537.922 105.17 537.922 105.17C537.922 105.17 538.683 104.158 540.008 102.384C541.385 100.598 543.288 98.0745 545.623 95.0887C546.79 93.6021 548.063 91.978 549.401 90.254C550.779 88.505 552.195 86.7311 553.678 84.8821C555.16 83.0207 556.708 81.0968 558.283 79.1604C559.87 77.1991 561.483 75.2377 563.097 73.2513C564.711 71.29 566.351 69.3661 567.964 67.4297C569.552 65.5058 571.152 63.6069 572.739 61.7705C574.301 59.959 575.796 58.2225 577.239 56.536C578.682 54.8745 580.034 53.3004 581.293 51.9012C583.838 49.0154 585.976 46.5918 587.446 44.9552C588.954 43.2437 589.82 42.2817 589.82 42.2817C589.82 42.2817 591.276 43.1063 593.48 44.2681C595.684 45.4549 598.584 47.054 601.483 48.6656C604.382 50.3021 607.268 51.9137 609.394 53.2129C611.532 54.5247 612.962 55.3742 612.962 55.3742C612.962 55.3742 610.496 57.0982 608.055 58.8097C605.628 60.5462 603.228 62.3077 603.228 62.3077C603.228 62.3077 601.089 65.5933 597.836 70.5904C596.235 73.064 594.346 75.9623 592.339 79.0605C591.342 80.6096 590.293 82.2087 589.217 83.8702C588.18 85.4943 587.078 87.1683 586.016 88.7799C584.927 90.4789 583.851 92.1404 582.802 93.7645C581.726 95.3886 580.689 96.9751 579.692 98.5367C577.659 101.672 575.796 104.521 574.156 107.044C570.929 112.016 568.778 115.34 568.778 115.34C568.778 115.34 568.03 118.063 567.23 120.799C566.456 123.472 565.695 126.208 565.695 126.208C565.695 126.208 564.383 125.471 562.467 124.322C560.539 123.135 557.955 121.648 555.344 120.212C552.746 118.738 550.096 117.313 548.102 116.276C546.095 115.265 544.809 114.515 544.809 114.515C544.809 114.515 546.895 112.604 549.034 110.642C551.185 108.681 553.363 106.72 553.363 106.72C553.363 106.72 555.331 103.247 558.283 98.1245C559.017 96.8252 559.817 95.4385 560.67 93.9644C561.523 92.4777 562.441 90.8912 563.346 89.3046C564.265 87.693 565.222 86.0315 566.193 84.3324C567.177 82.6209 568.161 80.9094 569.145 79.2104C570.129 77.4864 571.126 75.7624 572.097 74.0759C573.054 72.3394 574.025 70.6653 574.943 69.1037C575.849 67.4797 576.741 65.9056 577.607 64.4439C578.459 62.9698 579.247 61.5206 579.994 60.2838C582.959 55.0993 584.927 51.6638 584.927 51.6638C584.927 51.6638 584.14 52.5633 582.723 54.1124C581.345 55.699 579.378 57.9352 577.003 60.6461C575.809 61.9954 574.55 63.457 573.186 64.9936C571.86 66.5552 570.47 68.2043 569.001 69.9283C567.558 71.5898 566.062 73.4013 564.566 75.1877C563.058 76.9992 561.536 78.8231 560.027 80.6471C558.506 82.496 556.984 84.3075 555.501 86.1689C554.045 87.9928 552.602 89.7418 551.211 91.4783C549.808 93.2398 548.47 94.9638 547.197 96.5629C545.951 98.1619 544.757 99.6861 543.655 101.085C541.49 103.896 539.68 106.232 538.421 107.869C537.161 109.53 536.453 110.505 536.453 110.505C536.453 110.505 532.438 108.593 528.411 106.807C524.331 105.045 520.251 103.409 520.251 103.409C520.251 103.409 520.5 102.272 520.907 100.323C521.327 98.3618 521.917 95.5634 522.599 92.2154C522.94 90.5164 523.294 88.7049 523.675 86.781C524.042 84.8571 524.423 82.8208 524.816 80.7095C525.184 78.5733 525.59 76.3995 525.984 74.1758C526.377 71.9271 526.758 69.6784 527.125 67.4547C527.492 65.181 527.873 62.8948 528.227 60.6711C528.568 58.4599 528.909 56.2237 529.211 54.1249C529.513 51.9886 529.815 49.9273 530.077 47.966C530.339 46.0171 530.602 44.1557 530.798 42.4317C531.271 39.0336 531.625 36.1853 531.861 34.1739C532.084 32.1751 532.215 31.0133 532.215 31.0133C532.215 31.0133 530.864 34.5737 528.804 39.9206C527.781 42.5941 526.574 45.7173 525.275 49.0403C524.646 50.7269 523.977 52.4509 523.295 54.1874C522.639 55.9363 521.93 57.7228 521.235 59.5218C520.579 61.2833 519.884 63.0822 519.188 64.7937C518.532 66.5927 517.876 68.3167 517.221 69.9782C515.922 73.2888 514.741 76.4245 513.705 79.0855C511.658 84.4449 510.294 87.9928 510.294 87.9928C510.294 87.9928 510.097 90.7787 509.9 93.6396C509.677 96.388 509.454 99.2488 509.454 99.2488L501.202 96.3505C501.202 96.3505 502.947 94.0393 504.705 91.8281C506.476 89.5544 508.273 87.3057 508.273 87.3057C508.273 87.3057 509.664 83.6578 511.763 78.161C512.799 75.4126 514.006 72.1645 515.318 68.7414C515.974 67.0299 516.643 65.256 517.339 63.432C518.021 61.658 518.729 59.8341 519.424 57.9977C520.12 56.1237 520.802 54.2998 521.497 52.4883C522.193 50.7019 522.862 48.9279 523.531 47.1914C524.829 43.7684 526.036 40.5452 527.099 37.8093C529.159 32.2875 530.549 28.6271 530.549 28.6271C530.549 28.6271 530.497 25.7788 530.431 22.8555C530.366 20.0196 530.261 17.1213 530.261 17.1213ZM573.382 117.513C574.602 115.714 576.111 114.253 577.816 113.153C579.614 111.941 581.542 111.079 583.549 110.567C585.662 109.968 587.839 109.705 590.122 109.743C592.418 109.768 594.713 110.155 596.983 110.817C596.983 110.817 600.105 111.704 603.215 112.591C606.35 113.566 609.499 114.59 609.499 114.59C609.499 114.59 610.312 113.578 611.545 112.054C612.765 110.567 614.418 108.518 616.045 106.52C617.672 104.508 619.325 102.472 620.545 100.973C621.778 99.4362 622.578 98.4493 622.578 98.4493C623.614 97.1875 623.942 95.9632 623.627 94.8389C623.3 93.6521 622.683 92.7901 621.804 92.1654C620.715 91.3284 619.495 91.116 618.157 91.3534C616.963 91.6032 615.625 92.1904 614.182 93.2023C612.778 94.2142 611.296 95.5135 609.748 97.0501C608.278 98.7491 606.796 100.548 605.353 102.447C605.353 102.447 603.49 98.5992 601.614 94.7139C599.62 90.8912 597.6 87.0684 597.6 87.0684C599.922 85.894 602.283 85.2819 604.789 85.1445C607.281 84.9821 609.721 85.2319 612.057 85.8441C614.51 86.3937 616.911 87.3182 619.18 88.505C621.542 89.6918 623.785 91.0411 625.831 92.4902C627.865 94.0143 629.662 95.8008 631.21 97.8746C632.837 99.9484 633.86 102.297 634.149 104.958C634.542 107.594 634.149 110.442 632.981 113.616C632.417 115.215 631.564 116.864 630.449 118.538C629.321 120.274 627.917 122.061 626.238 123.91C626.238 123.91 625.162 125.096 623.523 126.895C621.843 128.744 619.666 131.143 617.462 133.566C615.284 135.953 613.08 138.389 611.427 140.213C609.774 142.024 608.685 143.223 608.685 143.223C608.685 143.223 607.478 145.847 606.258 148.458C605.038 151.019 603.792 153.58 603.792 153.58C603.792 153.58 602.834 152.83 601.365 151.606C599.895 150.444 597.954 148.82 595.973 147.259C593.992 145.709 591.985 144.173 590.463 143.024C588.954 141.899 587.931 141.175 587.931 141.175C587.931 141.175 589.571 139.126 591.198 137.139C592.851 135.116 594.477 133.092 594.477 133.092C591.211 134.441 588.049 135.365 584.953 135.865C581.936 136.315 579.089 135.603 576.347 133.791C575.363 133.092 574.419 132.255 573.514 131.155C572.635 130.069 571.913 128.857 571.428 127.507C570.968 126.171 570.85 124.672 571.087 122.973C571.375 121.211 572.097 119.425 573.382 117.513ZM589.728 131.443C590.489 131.955 591.368 132.242 592.391 132.18C593.546 132.105 594.622 131.942 595.658 131.655C595.658 131.655 598.807 127.77 601.994 123.835C605.169 119.924 608.331 116.014 608.331 116.014C606.639 115.552 604.999 115.489 603.346 115.714C601.719 115.927 600.105 116.401 598.518 117.064C597.049 117.776 595.632 118.725 594.32 119.774C593.061 120.886 591.932 122.086 590.948 123.385C590.594 123.835 590.188 124.434 589.702 125.146C589.361 125.883 589.007 126.67 588.718 127.433C588.521 128.207 588.469 128.982 588.574 129.719C588.731 130.406 589.125 130.98 589.728 131.443ZM605.76 155.291C605.76 155.291 608.292 153.817 610.837 152.418C613.382 150.956 615.953 149.582 615.953 149.582C615.953 149.582 617.186 148.295 619.023 146.384C620.899 144.46 623.339 141.899 625.818 139.351C628.285 136.802 630.725 134.279 632.588 132.367C634.437 130.431 635.657 129.194 635.657 129.194L639.633 120.611C639.633 120.611 641.233 120.924 643.699 121.436C646.126 122.036 649.393 122.773 652.646 123.597C655.9 124.422 659.166 125.284 661.659 125.921C664.112 126.608 665.713 127.095 665.713 127.095L658.34 133.916C661.541 133.354 664.847 133.279 668.192 133.854C671.629 134.516 674.411 135.928 676.51 138.101C677.52 139.238 678.333 140.338 678.858 141.399C678.858 141.399 677.415 141.824 675.276 142.474C673.138 143.161 670.291 144.06 667.471 144.96C664.637 145.897 661.803 146.821 659.717 147.521C657.592 148.283 656.241 148.745 656.241 148.745C659.062 146.072 660.806 143.798 661.436 141.987C662.131 140.225 661.882 138.689 660.649 137.477C659.914 136.74 658.615 136.04 656.779 135.365C656.779 135.365 655.021 136.99 652.397 139.413C651.059 140.65 649.537 142.049 647.897 143.586C646.244 145.11 644.486 146.734 642.742 148.345C640.984 149.982 639.226 151.606 637.573 153.13C635.933 154.654 634.398 156.066 633.073 157.303C630.436 159.739 628.704 161.338 628.704 161.338C628.704 161.338 627.261 163.861 625.845 166.323C624.415 168.771 622.945 171.22 622.945 171.22C622.945 171.22 621.909 170.195 620.361 168.634C618.787 167.097 616.648 165.111 614.51 163.099C612.345 161.126 610.141 159.164 608.541 157.678C606.862 156.266 605.76 155.291 605.76 155.291ZM630.449 179.078C630.449 179.078 633.165 177.928 635.894 176.754C638.583 175.63 641.338 174.468 641.338 174.468C641.338 174.468 642.676 173.356 644.736 171.632C646.809 169.958 649.564 167.697 652.358 165.411C655.073 163.162 657.815 160.901 659.888 159.202C661.974 157.478 663.325 156.378 663.325 156.378L668.284 148.283C668.284 148.283 669.858 148.77 672.246 149.557C674.555 150.394 677.717 151.506 680.891 152.618C684.014 153.83 687.162 155.017 689.497 155.966C691.859 156.928 693.433 157.578 693.433 157.578L685.26 163.574C688.54 163.274 691.832 163.637 695.047 164.586C698.418 165.561 701.029 167.272 702.826 169.696C703.718 170.895 704.374 172.044 704.781 173.181C704.781 173.181 703.298 173.443 701.094 173.868C698.917 174.28 695.952 174.905 693.026 175.505C690.088 176.104 687.228 176.729 685.05 177.216C682.846 177.728 681.403 178.066 681.403 178.066C684.552 175.667 686.545 173.606 687.411 171.844C688.303 170.195 688.238 168.659 687.149 167.309C686.506 166.485 685.312 165.673 683.554 164.823C683.554 164.823 681.626 166.21 678.74 168.359C677.297 169.408 675.565 170.683 673.742 172.007C671.944 173.343 669.989 174.78 668.048 176.142C666.119 177.629 664.204 179.028 662.354 180.389C660.57 181.701 658.852 182.963 657.408 184.025C654.496 186.149 652.568 187.585 652.568 187.585C652.568 187.585 650.823 189.896 649.131 192.208C647.386 194.506 645.667 196.78 645.667 196.78C645.667 196.78 644.736 195.656 643.371 193.957C641.981 192.22 640.118 190.021 638.242 187.798C636.34 185.574 634.411 183.388 632.942 181.764C631.46 180.127 630.449 179.078 630.449 179.078ZM663.522 201.977C663.522 201.977 665.031 201.003 667.274 199.541C669.517 198.079 672.548 196.118 675.539 194.181C678.543 192.233 681.534 190.284 683.79 188.81C686.047 187.348 687.569 186.361 687.569 186.361L693.433 178.878C693.433 178.878 694.929 179.552 697.185 180.602C699.441 181.651 702.419 183.088 705.41 184.575C708.402 186.086 711.393 187.623 713.61 188.81C715.853 189.946 717.309 190.821 717.309 190.821C717.309 190.821 714.554 192.42 710.409 194.794C708.362 195.943 705.961 197.317 703.324 198.866C700.74 200.353 697.985 201.902 695.217 203.526C692.436 205.1 689.681 206.687 687.11 208.186C684.499 209.672 682.085 211.059 680.012 212.258C675.893 214.632 673.099 216.231 673.099 216.231C673.099 216.231 671.131 218.317 669.15 220.416C667.195 222.503 665.149 224.614 665.149 224.614C665.149 224.614 664.388 223.377 663.246 221.516C662.092 219.692 660.505 217.281 658.891 214.857C657.264 212.458 655.611 210.072 654.339 208.311C653.066 206.549 652.213 205.375 652.213 205.375C652.213 205.375 654.995 204.488 657.868 203.626C660.662 202.814 663.522 201.977 663.522 201.977ZM715.774 167.235C718.044 165.748 720.615 165.298 723.449 166.048C726.283 166.797 728.578 168.446 730.323 171.02C732.029 173.556 732.671 176.267 732.225 179.04C731.701 181.776 730.258 183.85 727.922 185.199C725.508 186.573 722.977 186.798 720.209 186.061C717.427 185.299 715.21 183.663 713.597 181.264C711.944 178.828 711.34 176.242 711.734 173.556C712.167 170.795 713.479 168.709 715.774 167.235ZM733.393 217.618C735.216 221.253 736.213 224.714 736.279 228.037C736.332 231.347 735.571 234.446 733.905 237.394C733.052 238.856 732.015 240.217 730.782 241.554C729.536 242.866 728.093 244.115 726.466 245.289C724.8 246.489 722.963 247.601 720.943 248.662C718.897 249.712 716.64 250.724 714.213 251.661C714.213 251.661 713.544 250.099 712.521 247.75C711.471 245.439 710.055 242.354 708.612 239.268C707.116 236.207 705.647 233.134 704.466 230.873C703.259 228.624 702.459 227.1 702.459 227.1C700.596 227.999 698.418 229.249 695.978 230.773C693.525 232.397 691.308 234.183 689.314 236.12C687.411 238.031 685.995 240.105 685.063 242.304C684.145 244.527 684.237 246.789 685.339 249.062C685.995 250.411 687.018 251.711 688.448 252.96C689.878 254.322 691.898 255.421 694.443 256.271L695.125 257.832C692.475 257.807 690.061 257.332 687.91 256.321C685.837 255.334 683.987 254.159 682.269 252.798C680.721 251.473 679.356 249.999 678.189 248.35C677.061 246.776 676.103 245.327 675.395 243.953C674.266 241.754 673.728 239.293 673.663 236.619C673.663 233.971 674.397 231.16 675.775 228.274C676.444 226.788 677.349 225.401 678.412 223.939C679.474 222.478 680.734 220.991 682.151 219.529C683.686 218.03 685.352 216.618 687.293 215.207C689.222 213.795 691.413 212.433 693.787 211.122C696.057 209.872 698.261 208.786 700.373 207.899C702.498 207.012 704.518 206.324 706.486 205.787C708.454 205.3 710.356 204.975 712.219 204.825C714.003 204.725 715.748 204.8 717.414 205.063C720.786 205.587 723.816 206.887 726.506 208.973C729.182 211.084 731.478 213.983 733.393 217.618ZM708.454 234.358C711.563 232.947 714.62 231.547 717.65 230.098C720.641 228.649 723.226 227.25 725.443 225.888C727.726 224.551 729.47 223.24 730.704 221.915C731.91 220.691 732.252 219.517 731.688 218.417C731.163 217.406 729.982 216.943 728.159 217.043C726.374 217.218 724.197 217.73 721.678 218.555C719.12 219.417 716.286 220.541 713.256 221.903C710.291 223.327 707.26 224.801 704.269 226.25L708.454 234.358ZM714.895 253.56C717.349 252.623 719.71 251.861 721.98 251.273C724.249 250.699 726.401 250.311 728.552 250.099C730.586 249.974 732.593 249.912 734.442 249.999C736.24 250.112 737.971 250.324 739.532 250.686C742.694 251.473 745.305 252.635 747.351 254.147C749.437 255.733 750.828 257.495 751.563 259.406C752.284 261.567 751.93 264.016 750.474 266.752C749.096 269.413 747.22 272.049 744.859 274.61C744.859 274.61 749.555 273.273 754.239 271.912C758.909 270.575 763.593 269.226 763.593 269.226L771.477 263.541C771.477 263.541 772.736 264.728 774.599 266.54C776.449 268.364 778.915 270.85 781.408 273.336C783.822 275.859 786.236 278.445 788.007 280.369C789.843 282.331 790.972 283.667 790.972 283.667C790.972 283.667 789.712 283.967 787.508 284.454C785.304 284.979 782.156 285.691 778.377 286.553C776.475 286.99 774.416 287.465 772.251 287.965C770.073 288.439 767.778 288.989 765.416 289.526C763.042 290.076 760.628 290.626 758.109 291.188C755.616 291.775 753.111 292.35 750.566 292.937C748.086 293.499 745.515 294.086 743.048 294.661C740.569 295.223 738.116 295.785 735.741 296.335C733.38 296.872 731.084 297.397 728.933 297.897C726.755 298.396 724.708 298.858 722.806 299.296C719.002 300.17 715.853 300.882 713.649 301.394C711.445 301.907 710.159 302.194 710.159 302.194C710.159 302.194 707.627 303.643 705.069 305.08C702.511 306.492 699.953 307.891 699.953 307.891C699.953 307.891 699.638 306.704 699.218 304.917C698.733 303.143 698.129 300.745 697.46 298.396C696.818 296.01 696.135 293.661 695.611 291.887C695.06 290.139 694.666 288.964 694.666 288.964C694.666 288.964 697.251 288.227 699.809 287.503C702.406 286.753 704.978 286.016 704.978 286.016C703.862 285.941 702.642 285.754 701.107 285.491C699.677 285.216 698.248 284.779 696.844 284.204C695.44 283.692 694.141 283.03 692.987 282.143C691.872 281.294 691.098 280.232 690.665 279.007C690.061 277.208 690.035 275.247 690.639 273.111C691.347 270.925 692.646 268.701 694.614 266.415C695.624 265.29 696.752 264.179 698.103 263.067C699.441 261.942 700.897 260.843 702.577 259.719C704.256 258.582 706.132 257.507 708.218 256.458C710.238 255.446 712.495 254.459 714.895 253.56ZM721.507 270.4C717.991 271.524 714.948 272.599 712.455 273.611C709.989 274.597 707.942 275.522 706.499 276.409C703.6 278.183 702.432 279.932 703.036 281.643C703.377 282.73 704.597 284.005 706.762 285.516C706.762 285.516 709.018 284.867 712.39 283.905C714.082 283.417 716.063 282.843 718.188 282.231C720.313 281.631 722.557 280.981 724.826 280.344C727.109 279.67 729.352 279.045 731.478 278.408C733.59 277.833 735.571 277.271 737.316 276.759C740.661 275.809 742.917 275.172 742.917 275.172C743.285 274.085 743.534 273.086 743.691 272.136C743.822 271.224 743.757 270.4 743.508 269.675C743.285 268.826 742.707 268.176 741.815 267.651C740.91 267.114 739.585 266.877 737.827 266.889C736.135 266.902 733.944 267.164 731.176 267.689C728.552 268.264 725.338 269.176 721.507 270.4ZM786.865 293.462C786.865 293.462 788.007 298.596 789.109 303.743C790.093 308.903 790.932 314.1 790.932 314.1C790.932 314.1 786.97 314.1 780.975 314.125C778.01 314.137 774.56 314.187 770.795 314.25C768.919 314.287 767.03 314.287 765.036 314.337C763.081 314.399 761.087 314.424 759.106 314.487C757.125 314.512 755.118 314.587 753.163 314.637C751.208 314.699 749.306 314.749 747.417 314.812C743.704 314.949 740.215 315.074 737.237 315.199C731.294 315.436 727.332 315.636 727.332 315.636L727.004 314.025C727.004 314.025 730.795 312.813 736.423 310.989C739.231 310.077 742.524 308.99 746.04 307.828C747.824 307.241 749.66 306.616 751.471 306.004C753.334 305.367 755.183 304.743 757.072 304.08C758.935 303.468 760.811 302.806 762.648 302.169C764.472 301.532 766.295 300.882 768.04 300.283C771.529 299.046 774.783 297.872 777.603 296.872C783.153 294.836 786.865 293.462 786.865 293.462ZM709.333 309.477C712.14 308.89 714.515 309.178 716.483 310.339C718.582 311.551 719.841 313.475 720.366 316.036C720.851 318.622 720.379 320.796 718.897 322.582C717.519 324.419 715.42 325.531 712.6 325.943C709.766 326.368 707.378 325.98 705.345 324.731C703.443 323.557 702.262 321.783 701.79 319.347C701.304 316.936 701.711 314.824 703.075 313C704.466 311.226 706.552 310.052 709.333 309.477Z" fill="#101C26"/>
<path d="M0 312.236C0 312.236 0.314314 310.441 0.825695 307.711C1.35073 304.944 2.12425 301.318 2.92383 297.705C3.75001 294.068 4.62796 290.481 5.29644 287.778C5.99188 285.026 6.46313 283.271 6.46313 283.271C6.46313 283.271 8.95894 284.956 11.403 286.59C13.8997 288.213 16.409 289.874 16.409 289.874C16.409 289.874 17.55 289.928 19.5571 289.994C21.578 290.01 24.4117 290.088 27.7961 290.199C29.5014 290.26 31.3638 290.349 33.3444 290.428C35.2722 290.53 37.3188 290.584 39.4695 290.702C41.6074 290.795 43.7843 290.914 46.0402 291.021C48.2559 291.178 50.5511 291.285 52.7807 291.392C55.0617 291.575 57.3567 291.695 59.5856 291.851C61.8145 292.008 63.9776 292.177 66.1149 292.307C68.2119 292.512 70.2838 292.629 72.2105 292.806C74.1245 292.959 75.9991 293.11 77.6898 293.272C81.0455 293.557 83.8768 293.81 85.8689 294.001C87.8478 294.204 88.9619 294.307 88.9619 294.307C88.9619 294.307 86.1718 293.005 81.9477 291.033C79.8886 290.016 77.4506 288.882 74.8705 287.583C72.2374 286.32 69.4617 284.931 66.7382 283.567C63.9628 282.166 61.1736 280.801 58.6335 279.465C56.0273 278.153 53.643 276.932 51.5715 275.865C47.4949 273.67 44.72 272.23 44.72 272.23C44.72 272.23 43.3174 272.11 41.2208 271.881C39.0708 271.712 36.2272 271.409 33.3962 271.144C30.5912 270.892 27.7327 270.713 25.5572 270.495C23.46 270.303 22.0179 270.195 22.0179 270.195C22.0179 270.195 19.0225 270.414 16.0004 270.659C12.9534 270.815 9.91806 271.072 9.91806 271.072C9.91806 271.072 10.4812 269.318 11.3326 266.668C12.1846 263.98 13.3635 260.46 14.5813 256.966C15.8132 253.409 17.1096 249.928 18.1047 247.33C19.1129 244.733 19.7684 242.942 19.7684 242.942C19.7684 242.942 22.0506 244.887 24.3327 246.832C26.6155 248.726 28.8989 250.584 28.8989 250.584C28.8989 250.584 30.0254 250.737 32.003 251.028C33.9682 251.268 36.8234 251.684 40.216 252.145C41.8923 252.394 43.7126 252.669 45.6379 252.947C47.5889 253.262 49.6063 253.528 51.7013 253.871C53.8223 254.226 56.0095 254.544 58.2224 254.901C60.422 255.27 62.6479 255.639 64.9133 255.996C67.1519 256.39 69.3775 256.772 71.5504 257.178C73.7498 257.559 75.8967 257.94 78.0174 258.32C80.0984 258.725 82.1276 259.079 84.0385 259.443C85.9099 259.82 87.7029 260.17 89.3782 260.494C92.7022 261.166 95.4899 261.706 97.453 262.096C99.3503 262.498 100.476 262.739 100.476 262.739C100.476 262.739 99.539 262.151 97.8735 261.14C96.1424 260.128 93.7748 258.657 90.9651 256.892C89.5209 256.009 87.9731 255.025 86.3866 254.003C84.7608 252.967 83.0173 251.905 81.2752 250.743C79.4929 249.643 77.6728 248.429 75.8258 247.266C74.019 246.04 72.1336 244.801 70.2742 243.587C68.4021 242.336 66.5294 241.134 64.7233 239.859C62.8642 238.62 61.1095 237.42 59.3538 236.295C57.5999 235.045 55.9365 233.884 54.3377 232.799C52.765 231.727 51.297 230.669 49.8802 229.711C47.1386 227.773 44.891 226.166 43.2541 224.993C41.656 223.858 40.7599 223.195 40.7599 223.195C40.7599 223.195 37.9737 222.543 35.2025 221.766C32.4434 221.052 29.6975 220.338 29.6975 220.338L34.5625 210.496C34.5625 210.496 36.3754 213.134 38.1621 215.772C40.0144 218.41 41.8674 220.999 41.8674 220.999C41.8674 220.999 42.7241 221.661 44.2825 222.82C45.8284 223.93 48.0503 225.498 50.739 227.461C52.0643 228.405 53.5196 229.426 55.0794 230.485C56.6128 231.557 58.2495 232.743 59.9397 233.867C61.6285 235.078 63.3701 236.278 65.1643 237.465C66.9579 238.691 68.7514 239.929 70.5846 241.142C72.3781 242.38 74.2117 243.568 75.9924 244.781C77.8001 245.944 79.5812 247.132 81.3107 248.256C83.0271 249.38 84.6916 250.454 86.2523 251.451C87.8518 252.486 89.3079 253.457 90.7262 254.314C93.5096 256.079 95.8117 257.549 97.3986 258.546C99.051 259.557 100.001 260.121 100.001 260.121L107.34 260.838C107.34 260.838 106.825 261.968 106.092 263.707C105.346 265.433 104.342 267.719 103.377 270.042C102.399 272.378 101.552 274.703 100.857 276.455C100.189 278.208 99.779 279.377 99.779 279.377C99.779 279.377 96.6882 278.92 92.1312 278.205C89.8263 277.86 87.1546 277.46 84.2997 277.031C81.3784 276.652 78.3268 276.209 75.2877 275.803C72.2095 275.384 69.131 274.99 66.2356 274.637C63.3666 274.271 60.6407 273.995 58.2962 273.661C53.6833 273.183 50.5782 272.814 50.5782 272.814C50.5782 272.814 52.9618 274.085 56.466 275.922C58.2512 276.823 60.2833 277.889 62.4586 279.045C64.6738 280.164 67.0189 281.372 69.4034 282.581C71.7494 283.726 74.1339 284.935 76.3361 286.041C78.5913 287.111 80.6505 288.127 82.4357 289.028C86.0207 290.716 88.3934 291.837 88.3934 291.837L95.5334 291.802C95.5334 291.802 95.054 293.207 94.4342 295.26C93.8008 297.338 93.0132 300.114 92.2254 302.902C91.5163 305.692 90.7277 308.53 90.2517 310.623C89.7625 312.716 89.4537 314.123 89.4537 314.123L82.8891 310.618C82.8891 310.618 81.8139 310.553 79.8201 310.474C77.9315 310.385 75.1501 310.32 71.858 310.173C70.2052 310.112 68.3946 310.074 66.4926 310.009C64.5768 309.982 62.5827 309.929 60.51 309.862C58.4363 309.87 56.272 309.789 54.0934 309.783C51.9156 309.727 49.6977 309.72 47.441 309.675C45.2625 309.669 43.0178 309.7 40.8395 309.681C38.6742 309.663 36.5081 309.707 34.4349 309.677C32.3479 309.698 30.3134 309.719 28.423 309.754C26.5065 309.777 24.6819 309.801 23.0275 309.852C19.6938 309.867 16.8836 309.977 14.9805 309.987C12.9974 310.084 11.9214 310.069 11.9214 310.069C11.9214 310.069 8.90819 310.613 5.94784 311.133C2.97418 311.666 0 312.236 0 312.236ZM64.5054 206.349C66.5639 202.804 68.9921 200.026 71.7628 198.079C74.5729 196.132 77.7007 194.914 81.171 194.526C82.9061 194.338 84.7167 194.377 86.5774 194.578C88.4251 194.779 90.2826 195.206 92.2561 195.784C94.2296 196.362 96.2654 197.178 98.3117 198.17C100.437 199.137 102.559 200.342 104.798 201.662C104.798 201.662 103.793 203.085 102.437 205.227C101.041 207.382 99.2025 210.255 97.3495 213.191C95.5762 216.065 93.8278 219.027 92.5887 221.247C91.3234 223.466 90.4885 224.954 90.4885 224.954C92.339 225.88 94.6474 226.9 97.4022 227.914C100.197 228.891 102.996 229.581 105.772 229.983C108.562 230.36 111.149 230.297 113.545 229.769C116.007 229.204 117.851 227.843 119.142 225.662C119.987 224.387 120.508 222.832 120.796 221.011C121.138 219.104 120.894 216.926 120.181 214.441L121.12 213.017C122.613 215.076 123.553 217.239 123.981 219.47C124.343 221.687 124.405 223.812 124.191 225.896C123.94 227.868 123.453 229.798 122.705 231.649C122.023 233.439 121.331 235.017 120.538 236.343C119.247 238.524 117.527 240.386 115.235 241.953C112.982 243.446 110.172 244.493 106.882 245.096C105.185 245.397 103.49 245.51 101.574 245.533C99.7496 245.532 97.7697 245.404 95.6736 245.137C93.4992 244.843 91.328 244.325 89.0284 243.605C86.6889 242.921 84.2345 242.011 81.7699 240.902C79.3304 239.867 77.1807 238.761 75.1623 237.645C73.2094 236.543 71.4686 235.293 69.8455 234.07C68.2751 232.836 66.9029 231.504 65.7536 230.188C64.6049 228.834 63.6668 227.433 62.9129 225.998C61.4325 223.052 60.8206 219.944 61.0378 216.673C61.3349 213.327 62.46 209.894 64.5054 206.349ZM93.2528 216.094C90.2443 214.464 87.2604 212.96 84.3164 211.405C81.3454 209.913 78.6593 208.688 76.2182 207.766C73.7133 206.718 71.6088 206.125 69.7471 205.986C67.9794 205.698 66.7535 206.081 66.1865 207.185C65.5821 208.151 65.8798 209.368 66.989 210.733C68.1782 212.013 69.9037 213.412 72.0738 214.93C74.2969 216.412 76.8733 217.973 79.8041 219.527C82.7618 221.032 85.7328 222.524 88.7037 224.028L93.2528 216.094ZM79.2306 156.642C81.6473 158.351 83.4966 160.278 84.6749 162.319C85.9977 164.35 86.7037 166.385 86.9621 168.513C87.235 170.542 87.0358 172.551 86.4418 174.63C85.85 176.558 84.9314 178.395 83.7384 180.14L82.1519 179.118C83.3838 177.398 84.0817 175.396 84.1667 173.11C84.2651 170.812 83.72 168.542 82.6502 166.252C82.3441 167.472 81.6961 168.738 80.7044 170.174C78.8839 172.672 76.7356 174.229 74.22 174.855C71.7054 175.407 69.2967 174.973 66.9163 173.476C64.4833 171.992 63.1207 169.985 62.8006 167.581C62.4951 165.077 63.2806 162.451 65.1559 159.791C67.1085 157.232 69.4013 155.665 71.9549 155.139C74.5225 154.551 76.9175 155.022 79.2306 156.642ZM143.241 201.485C143.241 201.485 141.475 199.21 139.736 196.923C137.997 194.649 136.271 192.324 136.271 192.324C136.271 192.324 134.777 191.278 132.608 189.698C130.465 188.117 127.581 186.039 124.658 183.923C121.788 181.82 118.878 179.741 116.708 178.16C114.513 176.579 113.111 175.522 113.111 175.522L103.769 172.564C103.769 172.564 103.962 171.005 104.245 168.622C104.646 166.266 105.124 163.11 105.642 159.931C106.16 156.739 106.783 153.573 107.263 151.193C107.73 148.788 108.081 147.205 108.081 147.205L115.943 153.591C115.015 150.579 114.692 147.462 114.96 144.279C115.271 140.921 116.478 138.139 118.609 135.982C119.688 134.873 120.737 134 121.782 133.39C121.782 133.39 122.38 134.749 123.245 136.698C124.162 138.661 125.358 141.303 126.607 143.907C127.816 146.499 129.065 149.104 130.023 151.005C130.979 152.943 131.644 154.215 131.644 154.215C128.503 151.733 125.965 150.272 124.028 149.882C122.092 149.417 120.604 149.796 119.379 151.028C118.698 151.831 118.115 153.11 117.552 154.901C117.552 154.901 119.433 156.428 122.209 158.692C123.61 159.837 125.245 161.173 126.983 162.585C128.774 164.01 130.629 165.536 132.485 167.037C134.353 168.564 136.221 170.065 137.959 171.502C139.711 172.914 141.359 174.238 142.747 175.382C145.549 177.647 147.418 179.161 147.418 179.161C147.418 179.161 150.145 180.274 152.858 181.425C155.585 182.551 158.259 183.702 158.259 183.702C158.259 183.702 157.299 184.788 155.819 186.392C154.365 188.033 152.47 190.243 150.496 192.44C148.693 194.676 146.863 196.937 145.408 198.616C144.111 200.322 143.241 201.485 143.241 201.485ZM137.128 117.487C140.225 114.769 143.454 112.878 146.724 111.825C150.033 110.797 153.395 110.658 156.811 111.269C158.538 111.656 160.21 112.192 161.932 112.941C163.601 113.703 165.281 114.651 166.944 115.8C168.607 116.961 170.242 118.321 171.926 119.87C173.571 121.418 175.238 123.192 176.891 125.128C176.891 125.128 175.524 126.195 173.466 127.803C171.435 129.424 168.714 131.597 166.057 133.834C163.414 136.071 160.796 138.333 158.816 140.042C156.914 141.777 155.638 142.947 155.638 142.947C157.074 144.379 158.902 145.993 161.225 147.813C163.536 149.583 165.969 151.067 168.537 152.304C171.013 153.489 173.432 154.173 175.961 154.422C178.413 154.582 180.628 153.863 182.647 152.18C183.79 151.196 184.806 149.886 185.682 148.274C186.651 146.551 187.154 144.421 187.283 141.848L188.663 140.78C189.377 143.165 189.606 145.518 189.233 147.762C188.873 149.969 188.227 152.01 187.321 153.921C186.376 155.72 185.303 157.379 183.968 158.923C182.779 160.418 181.592 161.713 180.358 162.721C178.496 164.431 176.273 165.687 173.571 166.498C170.896 167.222 167.889 167.379 164.535 166.969C162.898 166.708 161.171 166.334 159.394 165.796C157.617 165.233 155.776 164.545 153.886 163.655C151.996 162.729 150.044 161.589 148.055 160.235C146.067 158.857 144.107 157.28 142.033 155.488C140.115 153.748 138.433 152.075 136.908 150.428C135.423 148.732 134.108 147.089 133.042 145.436C131.95 143.771 131.055 142.134 130.395 140.525C129.775 138.903 129.339 137.298 129.139 135.682C128.647 132.451 129.111 129.308 130.415 126.265C131.731 123.222 133.991 120.279 137.128 117.487ZM161.192 135.39C158.878 132.957 156.562 130.574 154.246 128.254C151.904 125.934 149.713 124.015 147.728 122.387C145.706 120.621 143.899 119.433 142.216 118.709C140.587 117.936 139.3 117.993 138.37 118.792C137.505 119.592 137.383 120.778 138.029 122.424C138.741 124.009 139.87 125.825 141.468 127.935C143.039 130.019 145.002 132.234 147.239 134.591C149.582 136.924 151.911 139.244 154.24 141.552L161.192 135.39ZM188.007 104.852C185.985 102.174 184.225 99.4866 182.727 96.8157C181.178 94.144 179.929 91.4767 178.931 88.8129C177.919 86.099 177.183 83.4514 176.72 80.9078C176.271 78.3643 176.057 75.8492 176.118 73.438C176.232 70.99 176.594 68.6206 177.269 66.3806C177.93 64.1404 178.853 62.0164 180.09 59.9344C181.353 57.9028 182.916 55.9754 184.712 54.2513C186.534 52.5901 188.629 51.0952 190.944 49.8034C193.431 48.4016 196.004 47.426 198.584 46.8878C201.165 46.3372 203.753 46.1367 206.373 46.449C208.982 46.6861 211.635 47.4238 214.231 48.5856C216.852 49.7478 219.493 51.3977 222.101 53.4595C222.101 53.4595 221.051 54.4318 219.494 55.8969C217.925 57.3118 215.902 59.2826 213.866 61.2657C211.869 63.2494 209.886 65.1958 208.421 66.6872C206.955 68.2285 205.983 69.227 205.983 69.227L202.751 61.1698C201.829 59.5819 200.694 58.1785 199.281 56.9585C197.882 55.6763 196.438 54.7809 195.002 54.2105C193.543 53.4898 192.196 53.1332 190.949 53.1154C189.612 53.0464 188.65 53.3076 187.906 53.9594C186.32 55.649 186.325 58.9485 187.973 63.9461C188.818 66.3952 189.987 69.099 191.506 72.0326C192.312 73.5313 193.17 75.0558 194.131 76.6692C195.054 78.2321 196.08 79.884 197.236 81.6126C198.353 83.3533 199.524 85.0447 200.669 86.6482C201.814 88.2393 202.922 89.7173 204.082 91.1836C205.242 92.6624 206.365 94.0281 207.475 95.3187C208.611 96.6097 209.709 97.8502 210.835 99.0035C213.073 101.273 215.34 103.317 217.454 105.097C219.555 106.852 221.607 108.368 223.584 109.646C225.496 110.873 227.332 111.862 229.106 112.612C230.841 113.399 232.526 113.923 234.084 114.207C237.265 114.79 239.959 114.491 242.167 113.398C242.881 112.995 243.572 112.38 244.201 111.59C244.725 110.672 245.172 109.729 245.54 108.759C245.923 107.677 246.175 106.594 246.491 105.598C246.782 104.478 247.006 103.506 247.228 102.709C247.228 102.709 245.277 101.469 242.363 99.6279C240.867 98.7192 239.123 97.6571 237.302 96.5313C235.441 95.4424 233.449 94.2643 231.432 93.0857C229.388 91.9443 227.357 90.7905 225.443 89.7134C223.542 88.674 221.718 87.6856 220.168 86.8637C217.055 85.2196 214.957 84.1399 214.957 84.1399C214.957 84.1399 216.148 83.4569 217.973 82.5206C219.771 81.5714 222.217 80.3065 224.663 79.0291C227.083 77.8013 229.567 76.5995 231.417 75.701C233.254 74.8398 234.535 74.2582 234.535 74.2582C234.535 74.2582 235.429 75.9831 236.77 78.5768C237.408 79.8857 238.2 81.3842 239.017 83.0206C239.899 84.6329 240.754 86.3573 241.687 88.1078C242.542 89.8321 243.449 91.5448 244.24 93.1808C245.135 94.8058 245.928 96.3168 246.526 97.6126C247.893 100.207 248.8 101.969 248.8 101.969C248.699 104.48 248.39 106.813 247.795 108.929C247.266 111.096 246.424 113.033 245.415 114.756C244.394 116.454 243.216 118.037 241.767 119.378C240.356 120.771 238.711 121.972 236.833 122.983C235.498 123.651 234.111 124.256 232.478 124.645C230.871 125.072 229.109 125.335 227.203 125.507C225.324 125.656 223.278 125.576 221.273 125.348C219.229 125.106 217.096 124.663 214.887 124.032C212.666 123.388 210.46 122.544 208.204 121.475C205.91 120.405 203.579 119.109 201.251 117.589C198.91 116.093 196.614 114.261 194.412 112.18C192.185 110.036 190.08 107.644 188.007 104.852ZM253.421 47.5695C257.353 46.1008 261.01 45.4531 264.551 45.6285C268.013 45.8404 271.228 46.836 274.168 48.6401C275.572 49.5475 276.974 50.6298 278.243 51.8852C279.549 53.2036 280.762 54.6831 281.867 56.3236C282.959 57.9639 283.996 59.8158 284.965 61.8418C285.907 63.8674 286.768 66.0668 287.587 68.453C287.587 68.453 285.9 68.9664 283.356 69.7425C280.851 70.5566 277.501 71.6587 274.178 72.7986C270.854 73.9635 267.543 75.1661 265.062 76.0931C262.568 77.0449 260.958 77.6718 260.958 77.6718C261.706 79.4947 262.883 81.6735 264.279 84.1055C265.792 86.5892 267.505 88.8257 269.367 90.8269C271.203 92.7778 273.294 94.3323 275.51 95.3887C277.752 96.433 280.139 96.517 282.619 95.665C284.07 95.1358 285.487 94.2686 286.961 93.0274C288.488 91.7869 289.774 89.968 290.871 87.609L292.558 87.0832C292.326 89.567 291.638 91.8068 290.441 93.7894C289.233 95.7218 287.818 97.3763 286.262 98.8164C284.785 100.233 283.127 101.421 281.316 102.395C279.583 103.358 277.983 104.135 276.506 104.689C274.078 105.567 271.513 105.992 268.694 105.827C265.915 105.563 263.015 104.634 260.11 103.105C258.664 102.335 257.195 101.352 255.767 100.231C254.326 99.1361 252.849 97.8277 251.439 96.3579C250.017 94.8254 248.625 93.0933 247.3 91.1498C245.964 89.1811 244.748 87.0266 243.496 84.6216C242.412 82.3941 241.445 80.2307 240.688 78.1452C239.904 76.0594 239.328 74.089 238.922 72.1586C238.582 70.2416 238.398 68.4392 238.384 66.6769C238.395 64.9273 238.615 63.3057 239.031 61.7494C239.838 58.574 241.413 55.7969 243.836 53.4069C246.219 51.0038 249.436 49.05 253.421 47.5695ZM268.984 72.5371C267.807 69.5083 266.538 66.4408 265.268 63.5232C263.985 60.5429 262.722 57.9753 261.454 55.7826C260.214 53.4404 258.979 51.7105 257.723 50.4804C256.495 49.1631 255.294 48.746 254.119 49.2417C253.011 49.6383 252.431 50.6924 252.406 52.4792C252.408 54.1664 252.811 56.2718 253.484 58.7685C254.157 61.2777 255.129 64.0035 256.307 67.0073C257.629 69.9757 258.913 72.931 260.183 75.8985L268.984 72.5371ZM280.642 40.9712C280.642 40.9712 281.7 39.4991 283.359 37.3231C285.03 35.1473 287.289 32.255 289.627 29.3763C291.965 26.5227 294.368 23.6699 296.196 21.5463C298.037 19.4355 299.291 18.0286 299.291 18.0286C299.291 18.0286 300.248 21.8041 301.217 25.6047C302.174 29.3552 303.144 33.1684 303.144 33.1684C303.144 33.1684 306.29 32.4759 309.45 31.796C312.596 31.116 315.767 30.5113 315.767 30.5113L316.149 32.2665C316.149 32.2665 312.99 32.9088 309.845 33.5514C306.724 34.2443 303.591 34.9245 303.591 34.9245C303.591 34.9245 304.225 37.3956 305.169 41.1334C305.641 43.0023 306.188 45.1597 306.759 47.43C307.382 49.8009 307.99 52.2717 308.65 54.7682C309.27 57.2516 309.905 59.7102 310.489 62.0056C311.085 64.3637 311.645 66.5339 312.105 68.3526C313.062 72.1031 313.683 74.5615 313.683 74.5615C314.131 76.2926 314.674 77.7376 315.367 78.8723C316.098 80.045 316.794 80.9423 317.52 81.59C318.325 82.2014 319.132 82.6878 319.903 82.9238C320.686 83.1724 321.394 83.2325 322.013 83.0913C322.842 82.9157 323.465 82.5121 323.855 81.8428C324.351 81.1 324.47 80.1768 324.223 79.086L325.96 78.7483C326.341 80.5285 326.304 82.2151 325.862 83.7586C325.499 85.3031 324.77 86.705 323.717 87.8898C322.741 89.1007 321.493 90.1077 319.972 90.9359C318.451 91.739 316.788 92.4027 314.932 92.8387C312.482 93.4411 310.303 93.4476 308.379 93.0952C306.43 92.6425 304.644 91.7797 303.074 90.5325C301.544 89.2234 300.176 87.6167 298.93 85.6618C297.857 83.6593 296.93 81.484 296.176 79.1112C296.176 79.1112 295.358 76.6499 294.216 72.9593C293.651 71.1765 292.96 69.0045 292.244 66.7572C291.516 64.4597 290.75 62.0242 289.971 59.576C289.205 57.1405 288.374 54.6541 287.698 52.4074C286.943 50.1095 286.279 47.9254 285.713 46.1427C284.545 42.4766 283.779 40.0411 283.779 40.0411L280.642 40.9712ZM316.321 32.1939C316.321 32.1939 317.56 30.8618 319.439 28.8765C321.332 26.8663 323.915 24.2161 326.513 21.5536C329.162 18.9418 331.85 16.343 333.872 14.3847C335.934 12.4519 337.344 11.1848 337.344 11.1848C337.344 11.1848 337.905 15.0546 338.467 18.9119C339.029 22.7818 339.591 26.6391 339.591 26.6391C339.591 26.6391 342.786 26.2223 346.006 25.8557C349.201 25.4638 352.408 25.1221 352.408 25.1221L352.619 26.9373C352.619 26.9373 349.399 27.2539 346.218 27.6084C343.01 28.0001 339.828 28.3922 339.828 28.3922C339.828 28.3922 340.225 30.9474 340.775 34.7296C341.01 36.5952 341.36 38.7998 341.693 41.1916C342.04 43.5586 342.424 46.0887 342.795 48.6185C343.166 51.1109 343.536 53.6782 343.87 56.0201C344.23 58.4123 344.54 60.5913 344.827 62.5201C345.378 66.2773 345.748 68.8322 345.748 68.8322C345.999 70.5604 346.411 72.0535 346.946 73.211C347.57 74.4822 348.148 75.4153 348.833 76.1249C349.57 76.8978 350.299 77.3456 351.068 77.694C351.825 78.0297 352.505 78.1644 353.11 78.073C353.978 77.9979 354.639 77.6449 355.107 77.0017C355.629 76.2968 355.878 75.413 355.749 74.3113L357.511 74.099C357.708 75.914 357.513 77.6234 356.888 79.1267C356.355 80.6314 355.471 81.881 354.313 83.0268C353.221 84.1236 351.87 85.0042 350.272 85.6688C348.675 86.2959 346.935 86.8085 345.042 87.0689C342.582 87.4713 340.405 87.3278 338.524 86.7511C336.617 86.0865 334.938 85.0752 333.476 83.6421C332.105 82.2353 330.922 80.5063 329.94 78.4801C329.039 76.3302 328.297 74.0575 327.82 71.6136C327.82 71.6136 327.317 69.1443 326.544 65.3715C326.164 63.5164 325.683 61.3099 325.231 58.9913C324.74 56.6098 324.224 54.1403 323.709 51.6209C323.193 49.139 322.677 46.6321 322.186 44.238C321.72 41.9442 321.266 39.7506 320.873 37.8454C320.113 34.1226 319.584 31.6031 319.584 31.6031L316.321 32.1939ZM362.163 73.7028C362.163 73.7028 362.017 71.976 361.752 69.3602C361.526 66.7949 361.182 63.3406 360.876 59.8994C360.545 56.4452 360.227 52.9913 359.975 50.4007C359.736 47.7977 359.578 46.0458 359.578 46.0458L355.578 37.5152C355.578 37.5152 356.93 36.6096 358.971 35.239C361.05 33.8938 363.832 32.0713 366.639 30.3491C369.446 28.6144 372.319 26.8682 374.528 25.6249C376.699 24.3686 378.181 23.5273 378.181 23.5273C378.181 23.5273 378.281 26.5907 378.439 31.1797C378.524 33.5055 378.604 36.1937 378.72 39.0699C378.823 41.9583 378.937 45.0344 379.051 48.1105C379.152 51.1364 379.265 54.2375 379.342 57.1131C379.446 59.9766 379.565 62.7028 379.624 64.9908C379.807 69.6176 379.908 72.681 379.908 72.681C379.908 72.681 380.893 75.3571 381.853 78.0328C382.773 80.6705 383.72 83.321 383.72 83.321C383.72 83.321 382.222 83.3997 379.977 83.4551C377.732 83.5731 374.699 83.6673 371.73 83.8625C368.722 84.0446 365.74 84.227 363.506 84.4326C361.26 84.5631 359.774 84.7669 359.774 84.7669C359.774 84.7669 360.339 81.9379 360.942 79.2345C361.546 76.4561 362.163 73.7028 362.163 73.7028ZM355.78 13.2472C355.528 10.6691 356.388 8.33176 358.464 6.3242C360.527 4.32896 363.154 3.2291 366.373 3.00003C369.577 2.84574 372.335 3.64742 374.633 5.39239C376.879 7.12411 378.107 9.35373 378.175 11.9543C378.281 14.6303 377.278 16.9031 375.216 18.7984C373.167 20.7438 370.646 21.7827 367.586 21.9391C364.538 22.1206 361.872 21.3577 359.625 19.6885C357.326 18.056 356.031 15.9129 355.78 13.2472ZM386.371 83.2838C386.371 83.2838 387.21 80.6462 388.075 77.934C388.901 75.2213 389.806 72.5221 389.806 72.5221C389.806 72.5221 389.791 70.7972 389.789 68.1727C389.773 65.5979 389.77 62.1109 389.754 58.6738C389.751 55.1993 389.735 51.7372 389.732 49.1376C389.731 46.5006 389.702 44.8004 389.702 44.8004L386.508 35.9439C386.508 35.9439 387.95 35.1271 390.093 33.9329C392.302 32.7646 395.224 31.2065 398.186 29.674C401.173 28.2168 404.187 26.6976 406.472 25.6428C408.745 24.5754 410.304 23.8353 410.304 23.8353L409.747 33.4257C411.714 30.8292 414.121 28.6014 416.982 26.7925C419.949 24.8726 423.031 24.1167 426.15 24.4111C428.352 24.5924 430.299 25.2326 431.99 26.269C433.748 27.2564 435.143 28.826 436.255 30.9165C437.369 32.8571 438.053 35.4789 438.323 38.6447C438.445 40.2087 438.434 41.9082 438.381 43.7821C438.276 45.6678 438.088 47.7648 437.768 49.9723C437.768 49.9723 437.549 51.5189 437.187 53.9258C436.864 56.2958 436.386 59.451 435.934 62.6065C435.495 65.7747 435.03 68.9425 434.681 71.3246C434.346 73.6944 434.126 75.291 434.126 75.291C434.126 75.291 434.611 78.11 435.083 80.8787C435.489 83.709 435.961 86.5403 435.961 86.5403C435.961 86.5403 434.467 86.369 432.227 86.0371C430.013 85.7806 427.039 85.3883 424.052 85.0707C421.051 84.7405 418.089 84.4608 415.846 84.3414C413.604 84.1719 412.097 84.063 412.097 84.063C412.097 84.063 413.158 81.4286 414.22 78.7691C415.333 76.1605 416.434 73.5266 416.434 73.5266C416.434 73.5266 416.574 71.9789 416.779 69.5697C416.969 67.2353 417.237 64.0897 417.506 60.9315C417.774 57.7359 418.042 54.6028 418.246 52.2561C418.451 49.8594 418.578 48.2865 418.578 48.2865C418.782 45.9648 418.824 43.9408 418.731 42.2022C418.623 40.551 418.38 39.1978 417.975 38.1422C417.255 36.1198 415.92 35.0134 413.953 34.8854C412.72 34.8178 411.273 35.0846 409.61 35.7108C409.61 35.7108 409.511 38.0215 409.291 41.4928C409.214 43.2539 409.093 45.2893 408.983 47.4999C408.846 49.685 408.734 52.0205 408.584 54.293C408.446 56.6281 408.333 59.0011 408.223 61.1867C408.074 63.3467 407.992 65.4076 407.876 67.1432C407.695 70.6275 407.557 72.9626 407.557 72.9626C407.557 72.9626 408.292 75.7226 409.014 78.445C409.71 81.2044 410.379 83.926 410.379 83.926C410.379 83.926 408.884 83.8672 406.642 83.7227C404.399 83.6408 401.409 83.4857 398.404 83.4304C395.4 83.375 392.395 83.2947 390.138 83.2875C387.907 83.2932 386.371 83.2838 386.371 83.2838ZM434.104 105.348C434.35 103.752 434.869 102.359 435.634 101.158C436.503 100.046 437.514 99.0977 438.679 98.3895C439.831 97.6685 441.072 97.1863 442.401 96.9303C443.783 96.65 445.161 96.6697 446.47 96.9008C445.126 96.3192 443.876 95.6515 442.666 94.8719C441.417 94.1042 440.393 93.2273 439.502 92.2023C438.677 91.1532 438.09 89.97 437.702 88.6522C437.301 87.3717 437.23 85.8585 437.491 84.1C438.037 80.8083 439.505 78.2172 441.972 76.4027C444.557 74.5399 447.467 73.894 450.687 74.4773L451.512 74.614C450.454 73.3617 449.556 71.9241 448.817 70.3388C448.052 68.7532 447.473 66.9952 447.028 65.0642C446.623 63.1338 446.429 61.0814 446.421 58.9066C446.412 56.7444 446.628 54.4604 447.044 52.0417C447.372 50.1842 447.79 48.453 448.313 46.7982C448.848 45.1561 449.486 43.6405 450.229 42.2013C451.699 39.3728 453.53 37.0618 455.722 35.2183C457.914 33.3749 460.385 32.1728 463.112 31.4618C465.97 30.7652 468.988 30.7832 472.142 31.4406C475.098 32.1076 477.616 33.2058 479.785 34.7865C481.875 36.391 483.591 38.4401 484.894 40.9707C484.894 40.9707 487.857 40.2631 490.873 39.5562C493.874 38.8866 496.902 38.2674 496.902 38.2674C496.902 38.2674 496.104 40.8056 495.279 43.4309C494.468 46.0189 493.657 48.6069 493.657 48.6069L486.585 46.6689C486.963 48.6739 487.077 50.7752 486.874 53.0594C486.671 55.3561 486.19 57.7613 485.445 60.2878C484.908 62.1173 484.267 63.7954 483.536 65.3472C482.83 66.9868 482.021 68.4751 481.149 69.8249C479.43 72.5624 477.47 74.7466 475.32 76.4156C473.17 78.1097 470.883 79.2769 468.42 79.8792C465.93 80.5561 463.383 80.6072 460.688 80.0064C458.908 79.6311 457.29 79.0081 455.858 78.2004C454.412 77.4424 453.127 76.4117 452.016 75.1961C451.126 75.9333 450.576 76.7753 450.405 77.7102C450.193 78.7445 450.352 79.5966 450.855 80.2162C451.448 80.9245 452.162 81.5096 453.008 82.0091C453.895 82.3967 454.756 82.7339 455.658 83.0092C456.639 83.2606 457.45 83.4222 458.039 83.5555C460.537 84.1286 463.096 85.0524 465.651 86.3136C468.219 87.5 470.402 89.0684 472.146 91.0054C474.009 92.9066 475.276 95.1243 476.015 97.6344C476.727 100.182 476.595 102.992 475.633 106.027C474.616 109.237 473.044 111.79 470.932 113.559C468.856 115.542 466.553 116.921 463.968 117.847C461.459 118.873 458.814 119.373 456.017 119.496C453.311 119.632 450.756 119.408 448.348 118.924C446.869 118.628 445.222 118.142 443.394 117.453C441.632 116.803 440.043 115.981 438.549 114.897C437.067 113.851 435.839 112.534 434.917 110.934C434.02 109.421 433.745 107.518 434.104 105.348ZM471.069 76.3176C472.298 76.635 473.182 76.3477 473.692 75.5051C474.19 74.6373 474.49 73.9042 474.641 73.4065C475.056 71.9251 475.275 70.366 475.273 68.6913C475.413 67.0936 475.371 65.4558 475.21 63.8412C475.051 62.1518 474.772 60.5356 474.386 59.0928C474.093 57.5014 473.707 56.0836 473.226 54.852C472.758 53.5706 472.046 51.9857 471.102 50.0476C470.252 48.0358 469.164 46.0706 467.892 44.1653C466.725 42.224 465.424 40.5307 464.015 39.0484C462.592 37.5909 461.213 36.7213 459.891 36.465C458.648 36.2349 457.803 36.5853 457.357 37.4662C456.913 38.2598 456.667 38.8812 456.583 39.2924C456.313 40.7008 456.366 42.5262 456.687 44.8929C457.035 47.185 457.551 49.6419 458.248 52.2764C458.998 54.9241 459.851 57.6608 460.797 60.3988C461.794 63.1376 462.848 65.6397 463.918 67.9045C465.067 70.1455 466.235 72.0494 467.406 73.6283C468.697 75.1589 469.918 76.0637 471.069 76.3176ZM458.939 115.213C461.986 115.981 464.307 116.102 465.916 115.612C467.576 115.136 468.707 114.065 469.282 112.411C469.736 110.88 469.677 109.517 469.116 108.372C468.528 107.288 467.688 106.327 466.559 105.423C465.442 104.62 464.206 103.902 462.863 103.271C461.558 102.715 460.437 102.187 459.511 101.773C457.255 100.779 455.233 99.9502 453.432 99.2122C451.668 98.6371 449.774 98.0227 447.723 97.3811C446.913 98.0444 446.26 98.6975 445.752 99.3526C445.323 99.9964 445.01 100.804 444.839 101.727C444.459 103.533 444.672 105.174 445.4 106.609C446.115 108.006 447.159 109.283 448.536 110.34C449.857 111.534 451.431 112.506 453.257 113.332C455.148 114.159 457.042 114.786 458.939 115.213ZM526.487 22.3794C526.487 22.3794 528.029 22.8638 530.392 23.7099C532.689 24.5925 535.77 25.7362 538.865 26.8676C541.905 28.0982 544.959 29.2916 547.256 30.2242C549.512 31.1937 551.026 31.8276 551.026 31.8276C551.026 31.8276 550.825 33.0371 550.413 35.2558C550.027 37.4499 549.458 40.5288 548.761 44.2932C548.407 46.1628 547.984 48.1815 547.534 50.2997C547.149 52.4563 546.697 54.6745 546.204 57.0296C545.725 59.3473 545.205 61.752 544.672 64.1565C544.152 66.5862 543.579 69.0401 543.032 71.5068C542.446 73.9731 541.872 76.452 541.286 78.8682C540.701 81.2719 540.116 83.6382 539.545 85.9172C538.974 88.2211 538.405 90.4251 537.863 92.517C537.295 94.6211 536.768 96.6132 536.244 98.4179C535.286 102.079 534.456 105.066 533.848 107.232C533.254 109.311 532.895 110.556 532.895 110.556C532.895 110.556 533.67 109.554 535.021 107.799C536.424 106.032 538.362 103.535 540.741 100.582C541.93 99.1114 543.226 97.5051 544.589 95.7998C545.991 94.0701 547.434 92.316 548.943 90.4878C550.452 88.6472 552.028 86.745 553.63 84.8306C555.246 82.8915 556.888 80.9528 558.53 78.989C560.172 77.0503 561.839 75.1494 563.481 73.2356C565.096 71.3339 566.724 69.4575 568.338 67.6433C569.925 65.8537 571.446 64.1382 572.913 62.4719C574.38 60.8306 575.754 59.2755 577.034 57.8939C579.621 55.0438 581.794 52.6502 583.287 51.0343C584.82 49.3439 585.7 48.3941 585.7 48.3941C585.7 48.3941 587.145 49.2396 589.333 50.4331C591.52 51.6515 594.397 53.2923 597.274 54.9455C600.15 56.6237 603.014 58.2768 605.121 59.6066C607.242 60.9491 608.66 61.8192 608.66 61.8192C608.66 61.8192 606.168 63.5083 603.703 65.1854C601.251 66.8877 598.825 68.6153 598.825 68.6153C598.825 68.6153 596.639 71.8711 593.314 76.8228C591.678 79.274 589.747 82.146 587.695 85.2162C586.676 86.7515 585.603 88.3359 584.503 89.9824C583.444 91.592 582.318 93.2507 581.232 94.8474C580.118 96.5313 579.019 98.1778 577.946 99.7872C576.847 101.396 575.788 102.968 574.768 104.516C572.69 107.623 570.786 110.446 569.11 112.946C565.811 117.874 563.611 121.167 563.611 121.167C563.611 121.167 562.825 123.88 561.985 126.605C561.173 129.268 560.373 131.994 560.373 131.994C560.373 131.994 559.071 131.238 557.172 130.061C555.26 128.846 552.696 127.323 550.106 125.848C547.529 124.337 544.898 122.875 542.919 121.809C540.925 120.768 539.65 120 539.65 120C539.65 120 541.764 118.118 543.931 116.187C546.11 114.256 548.317 112.325 548.317 112.325C548.317 112.325 550.334 108.88 553.36 103.799C554.113 102.509 554.933 101.134 555.807 99.6716C556.681 98.1968 557.622 96.623 558.55 95.049C559.492 93.4502 560.473 91.802 561.469 90.1165C562.477 88.4187 563.486 86.7208 564.494 85.0355C565.503 83.3252 566.524 81.615 567.519 79.942C568.502 78.2188 569.497 76.5583 570.438 75.0095C571.366 73.398 572.281 71.8363 573.168 70.3867C574.042 68.9244 574.85 67.4862 575.615 66.2598C578.655 61.1165 580.672 57.7083 580.672 57.7083C580.672 57.7083 579.872 58.5968 578.433 60.126C577.032 61.6933 575.032 63.9019 572.618 66.5795C571.405 67.912 570.125 69.356 568.738 70.8734C567.391 72.4165 565.976 74.046 564.482 75.7494C563.015 77.3907 561.493 79.1812 559.972 80.9467C558.437 82.737 556.889 84.5397 555.354 86.3425C553.806 88.1701 552.258 89.9602 550.748 91.8009C549.266 93.6044 547.798 95.3332 546.382 97.0502C544.953 98.792 543.59 100.497 542.294 102.079C541.025 103.66 539.809 105.168 538.687 106.551C536.482 109.332 534.638 111.643 533.355 113.262C532.071 114.906 531.349 115.87 531.349 115.87C531.349 115.87 527.361 113.901 523.358 112.057C519.303 110.237 515.245 108.542 515.245 108.542C515.245 108.542 515.511 107.408 515.945 105.465C516.393 103.509 517.023 100.719 517.753 97.3795C518.119 95.685 518.499 93.8782 518.907 91.9594C519.302 90.0403 519.711 88.009 520.135 85.9029C520.533 83.7715 520.971 81.6031 521.396 79.3845C521.822 77.141 522.234 74.8973 522.633 72.6783C523.033 70.4094 523.446 68.1282 523.832 65.9091C524.205 63.7023 524.578 61.4705 524.91 59.3756C525.242 57.2432 525.573 55.1857 525.864 53.2277C526.154 51.2822 526.443 49.4241 526.664 47.7026C527.185 44.3106 527.58 41.4667 527.845 39.4583C528.096 37.4623 528.244 36.3021 528.244 36.3021C528.244 36.3021 526.842 39.844 524.706 45.1626C523.644 47.822 522.392 50.9286 521.046 54.2339C520.392 55.9118 519.698 57.6266 518.991 59.3537C518.31 61.0937 517.576 62.8704 516.855 64.6598C516.174 66.4123 515.453 68.2017 514.733 69.9037C514.051 71.6936 513.37 73.4086 512.691 75.0612C511.344 78.3539 510.119 81.4734 509.044 84.1201C506.921 89.4514 505.506 92.9806 505.506 92.9806C505.506 92.9806 505.269 95.7643 505.031 98.6229C504.769 101.369 504.505 104.227 504.505 104.227L496.293 101.21C496.293 101.21 498.071 98.9236 499.861 96.737C501.665 94.4881 503.495 92.2646 503.495 92.2646C503.495 92.2646 504.938 88.6358 507.115 83.1678C508.191 80.4336 509.445 77.202 510.806 73.797C511.486 72.0945 512.181 70.3297 512.902 68.5153C513.61 66.7507 514.344 64.9365 515.066 63.1096C515.788 61.2452 516.496 59.4306 517.218 57.6287C517.939 55.8518 518.633 54.087 519.327 52.3597C520.675 48.9545 521.928 45.7479 523.03 43.0266C525.169 37.533 526.612 33.8917 526.612 33.8917C526.612 33.8917 526.6 31.042 526.576 28.1172C526.551 25.2798 526.487 22.3794 526.487 22.3794ZM568.186 123.407C569.432 121.625 570.962 120.184 572.683 119.109C574.498 117.922 576.439 117.088 578.454 116.604C580.575 116.034 582.757 115.803 585.04 115.873C587.336 115.931 589.627 116.351 591.887 117.046C591.887 117.046 594.997 117.977 598.095 118.909C601.217 119.928 604.351 120.998 604.351 120.998C604.351 120.998 605.179 119.997 606.434 118.49C607.676 117.021 609.358 114.995 611.014 113.019C612.67 111.03 614.352 109.017 615.594 107.535C616.849 106.016 617.664 105.04 617.664 105.04C618.718 103.793 619.064 102.573 618.765 101.444C618.454 100.252 617.849 99.3812 616.979 98.7439C615.902 97.8912 614.685 97.6614 613.343 97.8797C612.145 98.1126 610.798 98.6808 609.341 99.6723C607.922 100.664 606.421 101.943 604.851 103.458C603.357 105.136 601.848 106.914 600.378 108.793C600.378 108.793 598.57 104.918 596.749 101.005C594.809 97.1531 592.842 93.3007 592.842 93.3007C595.182 92.1593 597.552 91.5807 600.06 91.479C602.556 91.3521 604.993 91.6367 607.32 92.2823C609.766 92.8671 612.154 93.8259 614.407 95.0454C616.752 96.2661 618.976 97.6476 621.003 99.1262C623.015 100.68 624.787 102.492 626.306 104.588C627.903 106.686 628.893 109.049 629.144 111.715C629.5 114.357 629.066 117.201 627.853 120.358C627.266 121.949 626.389 123.586 625.25 125.245C624.097 126.966 622.667 128.732 620.961 130.558C620.961 130.558 619.869 131.729 618.203 133.505C616.497 135.331 614.284 137.699 612.045 140.091C609.833 142.447 607.594 144.852 605.915 146.653C604.236 148.441 603.129 149.625 603.129 149.625C603.129 149.625 601.885 152.232 600.627 154.826C599.371 157.37 598.088 159.914 598.088 159.914C598.088 159.914 597.14 159.151 595.688 157.905C594.235 156.722 592.316 155.07 590.357 153.48C588.398 151.902 586.412 150.337 584.907 149.165C583.414 148.019 582.401 147.28 582.401 147.28C582.401 147.28 584.07 145.254 585.725 143.291C587.407 141.29 589.063 139.289 589.063 139.289C585.777 140.592 582.601 141.471 579.498 141.927C576.473 142.334 573.636 141.581 570.92 139.73C569.945 139.016 569.013 138.166 568.123 137.053C567.259 135.954 566.555 134.731 566.089 133.375C565.648 132.031 565.552 130.53 565.812 128.834C566.126 127.077 566.873 125.3 568.186 123.407ZM584.337 137.572C585.091 138.095 585.966 138.395 586.99 138.347C588.146 138.289 589.224 138.141 590.265 137.869C590.265 137.869 593.469 134.028 596.714 130.137C599.945 126.271 603.163 122.405 603.163 122.405C601.477 121.919 599.838 121.833 598.181 122.034C596.551 122.224 594.93 122.675 593.333 123.315C591.854 124.006 590.423 124.936 589.096 125.967C587.82 127.061 586.675 128.244 585.672 129.53C585.311 129.975 584.896 130.569 584.4 131.274C584.049 132.006 583.683 132.788 583.384 133.546C583.176 134.318 583.112 135.092 583.207 135.831C583.354 136.521 583.74 137.101 584.337 137.572ZM600.031 161.654C600.031 161.654 602.585 160.216 605.15 158.852C607.717 157.427 610.308 156.089 610.308 156.089C610.308 156.089 611.56 154.819 613.424 152.934C615.328 151.036 617.805 148.51 620.321 145.996C622.825 143.482 625.301 140.993 627.192 139.108C629.069 137.197 630.307 135.978 630.307 135.978L634.406 127.45C634.406 127.45 636.002 127.785 638.461 128.333C640.88 128.967 644.137 129.751 647.38 130.622C650.622 131.493 653.877 132.402 656.361 133.074C658.805 133.797 660.399 134.307 660.399 134.307L652.927 141.024C656.137 140.507 659.444 140.48 662.782 141.102C666.211 141.813 668.972 143.265 671.041 145.469C672.035 146.621 672.833 147.732 673.343 148.801C673.343 148.801 671.893 149.206 669.745 149.825C667.596 150.482 664.736 151.341 661.902 152.2C659.055 153.097 656.207 153.981 654.111 154.651C651.974 155.383 650.616 155.826 650.616 155.826C653.475 153.192 655.253 150.943 655.909 149.14C656.629 147.388 656.402 145.848 655.186 144.618C654.461 143.871 653.172 143.152 651.345 142.451C651.345 142.451 649.564 144.051 646.905 146.437C645.549 147.655 644.007 149.033 642.344 150.547C640.669 152.047 638.888 153.647 637.12 155.234C635.338 156.846 633.557 158.445 631.882 159.946C630.22 161.447 628.665 162.837 627.322 164.055C624.649 166.454 622.895 168.029 622.895 168.029C622.895 168.029 621.415 170.532 619.963 172.974C618.498 175.402 616.993 177.831 616.993 177.831C616.993 177.831 615.971 176.791 614.445 175.207C612.893 173.648 610.782 171.631 608.672 169.588C606.535 167.583 604.359 165.59 602.779 164.08C601.12 162.644 600.031 161.654 600.031 161.654ZM624.387 185.797C624.387 185.797 627.119 184.686 629.865 183.551C632.571 182.464 635.344 181.341 635.344 181.341C635.344 181.341 636.698 180.249 638.782 178.554C640.879 176.909 643.667 174.686 646.495 172.44C649.243 170.229 652.018 168.007 654.115 166.337C656.226 164.642 657.593 163.562 657.593 163.562L662.668 155.536C662.668 155.536 664.236 156.045 666.613 156.867C668.91 157.737 672.057 158.894 675.216 160.051C678.322 161.308 681.454 162.54 683.776 163.523C686.124 164.518 687.69 165.191 687.69 165.191L679.43 171.072C682.714 170.819 686.003 171.228 689.204 172.223C692.562 173.246 695.149 174.995 696.912 177.445C697.787 178.657 698.427 179.816 698.817 180.959C698.817 180.959 697.331 181.2 695.12 181.594C692.936 181.975 689.962 182.557 687.027 183.116C684.08 183.673 681.21 184.257 679.025 184.714C676.813 185.195 675.365 185.511 675.365 185.511C678.549 183.157 680.572 181.124 681.464 179.374C682.379 177.738 682.336 176.2 681.266 174.835C680.635 174.001 679.452 173.172 677.706 172.297C677.706 172.297 675.757 173.656 672.84 175.765C671.382 176.794 669.632 178.043 667.789 179.342C665.972 180.653 663.996 182.062 662.035 183.397C660.085 184.856 658.149 186.228 656.28 187.564C654.477 188.85 652.74 190.088 651.281 191.13C648.338 193.212 646.388 194.622 646.388 194.622C646.388 194.622 644.61 196.908 642.885 199.196C641.107 201.47 639.355 203.72 639.355 203.72C639.355 203.72 638.44 202.582 637.099 200.863C635.733 199.106 633.901 196.881 632.057 194.63C630.186 192.379 628.288 190.164 626.842 188.519C625.382 186.861 624.387 185.797 624.387 185.797ZM657.14 209.172C657.14 209.172 658.663 208.219 660.927 206.789C663.192 205.359 666.251 203.441 669.27 201.547C672.303 199.64 675.322 197.734 677.6 196.291C679.878 194.862 681.414 193.896 681.414 193.896L687.386 186.495C687.386 186.495 688.872 187.191 691.114 188.273C693.356 189.355 696.314 190.834 699.285 192.364C702.255 193.918 705.225 195.498 707.425 196.717C709.653 197.886 711.097 198.781 711.097 198.781C711.097 198.781 708.319 200.341 704.138 202.656C702.075 203.777 699.654 205.117 696.995 206.629C694.389 208.079 691.611 209.589 688.819 211.174C686.015 212.709 683.237 214.256 680.644 215.719C678.011 217.169 675.577 218.521 673.487 219.691C669.333 222.007 666.515 223.566 666.515 223.566C666.515 223.566 664.517 225.625 662.506 227.696C660.521 229.755 658.444 231.837 658.444 231.837C658.444 231.837 657.701 230.589 656.586 228.711C655.457 226.87 653.904 224.436 652.324 221.989C650.731 219.567 649.112 217.157 647.864 215.377C646.617 213.597 645.781 212.41 645.781 212.41C645.781 212.41 648.575 211.562 651.461 210.741C654.267 209.969 657.14 209.172 657.14 209.172ZM709.898 175.168C712.189 173.713 714.768 173.3 717.591 174.09C720.415 174.88 722.687 176.563 724.396 179.161C726.066 181.722 726.67 184.443 726.184 187.211C725.62 189.94 724.147 191.993 721.792 193.309C719.358 194.65 716.823 194.838 714.065 194.062C711.294 193.26 709.1 191.591 707.52 189.169C705.901 186.709 705.335 184.114 705.767 181.433C706.239 178.678 707.581 176.61 709.898 175.168ZM726.802 225.813C728.574 229.475 729.522 232.95 729.54 236.275C729.545 239.587 728.74 242.675 727.032 245.6C726.158 247.05 725.102 248.397 723.849 249.717C722.584 251.011 721.123 252.24 719.479 253.391C717.796 254.567 715.943 255.653 713.907 256.686C711.845 257.707 709.574 258.686 707.133 259.589C707.133 259.589 706.486 258.018 705.496 255.654C704.479 253.327 703.106 250.221 701.707 247.114C700.255 244.031 698.829 240.936 697.68 238.658C696.505 236.391 695.726 234.856 695.726 234.856C693.85 235.729 691.654 236.947 689.192 238.437C686.715 240.026 684.472 241.782 682.45 243.69C680.52 245.575 679.073 247.629 678.11 249.814C677.16 252.026 677.22 254.288 678.29 256.578C678.926 257.937 679.931 259.251 681.344 260.521C682.755 261.904 684.76 263.032 687.293 263.918L687.953 265.49C685.303 265.427 682.895 264.918 680.758 263.875C678.699 262.858 676.865 261.657 675.166 260.271C673.636 258.924 672.293 257.43 671.148 255.764C670.042 254.174 669.105 252.711 668.416 251.326C667.319 249.111 666.816 246.641 666.789 243.967C666.827 241.318 667.601 238.517 669.02 235.65C669.711 234.172 670.636 232.798 671.72 231.351C672.803 229.905 674.084 228.436 675.522 226.994C677.079 225.516 678.765 224.128 680.727 222.744C682.676 221.359 684.887 220.029 687.281 218.751C689.569 217.533 691.789 216.478 693.914 215.621C696.052 214.764 698.083 214.105 700.058 213.596C702.034 213.137 703.941 212.839 705.806 212.716C707.592 212.641 709.336 212.741 710.999 213.027C714.364 213.6 717.376 214.943 720.036 217.068C722.683 219.218 724.938 222.149 726.802 225.813ZM701.619 242.201C704.749 240.833 707.826 239.477 710.878 238.071C713.89 236.664 716.495 235.302 718.732 233.971C721.035 232.667 722.798 231.38 724.051 230.073C725.275 228.865 725.633 227.696 725.085 226.588C724.574 225.569 723.4 225.089 721.575 225.163C719.788 225.313 717.602 225.794 715.071 226.583C712.5 227.409 709.65 228.493 706.599 229.812C703.614 231.194 700.562 232.625 697.549 234.032L701.619 242.201ZM707.788 261.498C710.255 260.596 712.628 259.867 714.906 259.312C717.185 258.77 719.342 258.413 721.497 258.232C723.533 258.136 725.541 258.102 727.39 258.216C729.186 258.354 730.915 258.591 732.471 258.975C735.622 259.808 738.217 261.007 740.242 262.548C742.306 264.165 743.672 265.946 744.379 267.869C745.07 270.041 744.681 272.485 743.186 275.2C741.77 277.842 739.856 280.452 737.458 282.98C737.458 282.98 742.174 281.71 746.878 280.415C751.568 279.144 756.272 277.861 756.272 277.861L764.239 272.288C764.239 272.288 765.482 273.494 767.319 275.332C769.143 277.183 771.575 279.704 774.032 282.226C776.411 284.785 778.788 287.406 780.532 289.355C782.341 291.343 783.451 292.696 783.451 292.696C783.451 292.696 782.187 292.978 779.975 293.434C777.763 293.928 774.604 294.595 770.813 295.403C768.904 295.813 766.837 296.259 764.665 296.728C762.48 297.172 760.176 297.689 757.806 298.192C755.423 298.708 753.001 299.224 750.474 299.75C747.972 300.302 745.458 300.841 742.904 301.392C740.416 301.919 737.836 302.469 735.361 303.009C732.873 303.536 730.411 304.063 728.028 304.579C725.659 305.083 723.355 305.575 721.196 306.044C719.011 306.513 716.957 306.946 715.048 307.356C711.231 308.177 708.071 308.844 705.86 309.325C703.648 309.806 702.358 310.075 702.358 310.075C702.358 310.075 699.805 311.488 697.226 312.889C694.647 314.264 692.068 315.627 692.068 315.627C692.068 315.627 691.77 314.436 691.376 312.643C690.916 310.862 690.346 308.454 689.71 306.095C689.101 303.699 688.453 301.341 687.953 299.559C687.427 297.802 687.05 296.621 687.05 296.621C687.05 296.621 689.646 295.921 692.215 295.233C694.823 294.52 697.406 293.819 697.406 293.819C696.291 293.729 695.074 293.524 693.542 293.24C692.116 292.944 690.692 292.486 689.296 291.892C687.899 291.359 686.61 290.679 685.468 289.775C684.364 288.909 683.606 287.836 683.19 286.606C682.612 284.798 682.614 282.835 683.248 280.707C683.988 278.531 685.318 276.325 687.319 274.067C688.345 272.956 689.49 271.86 690.857 270.768C692.211 269.662 693.684 268.583 695.379 267.483C697.075 266.369 698.967 265.322 701.068 264.302C703.103 263.318 705.374 262.363 707.788 261.498ZM714.161 278.436C710.629 279.51 707.569 280.542 705.062 281.518C702.581 282.47 700.521 283.366 699.065 284.232C696.139 285.965 694.947 287.698 695.526 289.418C695.852 290.51 697.054 291.802 699.197 293.345C699.197 293.345 701.463 292.728 704.849 291.813C706.549 291.35 708.538 290.804 710.673 290.222C712.807 289.652 715.06 289.034 717.339 288.43C719.632 287.787 721.885 287.195 724.019 286.588C726.14 286.043 728.13 285.509 729.882 285.021C733.242 284.12 735.508 283.514 735.508 283.514C735.89 282.433 736.154 281.437 736.325 280.489C736.469 279.579 736.415 278.753 736.176 278.025C735.966 277.172 735.397 276.514 734.513 275.977C733.615 275.426 732.293 275.17 730.534 275.157C728.842 275.146 726.647 275.377 723.871 275.862C721.238 276.4 718.01 277.266 714.161 278.436ZM779.204 302.434C779.204 302.434 780.272 307.586 781.301 312.75C782.212 317.924 782.977 323.134 782.977 323.134C782.977 323.134 779.014 323.078 773.018 323.017C770.052 322.988 766.6 322.988 762.834 322.997C760.957 323.008 759.067 322.981 757.072 323.003C755.116 323.037 753.121 323.034 751.139 323.068C749.157 323.065 747.149 323.111 745.193 323.133C743.237 323.168 741.333 323.191 739.443 323.226C735.728 323.311 732.236 323.386 729.255 323.468C723.308 323.621 719.342 323.765 719.342 323.765L719.037 322.148C719.037 322.148 722.847 320.99 728.502 319.246C731.323 318.374 734.632 317.334 738.165 316.222C739.958 315.66 741.804 315.061 743.623 314.475C745.496 313.864 747.355 313.266 749.254 312.63C751.126 312.045 753.011 311.409 754.857 310.798C756.69 310.187 758.524 309.563 760.277 308.988C763.785 307.801 767.056 306.673 769.891 305.713C775.471 303.756 779.204 302.434 779.204 302.434ZM701.427 317.348C704.244 316.8 706.615 317.122 708.566 318.312C710.649 319.554 711.881 321.496 712.369 324.065C712.818 326.659 712.314 328.826 710.806 330.592C709.402 332.409 707.287 333.491 704.46 333.863C701.62 334.248 699.237 333.826 697.221 332.548C695.335 331.346 694.18 329.555 693.742 327.111C693.291 324.693 693.728 322.587 695.118 320.782C696.534 319.028 698.638 317.883 701.427 317.348Z" fill="#FEA88A"/>
</svg>
